<svg xmlns="http://www.w3.org/2000/svg" xmlns:xlink="http://www.w3.org/1999/xlink" width="1025.9" height="100"><path d="M56 104.50L50.70 100.50L45.50 61.40L50.30 56L62.50 56.40L63.20 23.70L72.50 23.80L72.30 37.30L90.80 38.20L90.30 47.50L72.10 46.70L72 56.70L88.20 57.20L92.70 62.40L88.80 96.40L84.80 100.50L56 104.50ZM10.20 103.30L8.30 94L26.70 90.40L32.40 50L41.80 51.30L36.50 88.40L43.80 87L45.70 96.30L10.20 103.30ZM55.50 65.70L59.40 94.70L79.80 91.70L82.80 66.40L55.50 65.70ZM8.40 47.70L7.40 38.30L20.10 36.90L17.30 28.40L26.20 25.40L29.70 35.90L43.40 34.40L44.40 43.80L8.40 47.70ZM16.90 85.90L9.70 55.50L18.90 53.40L26 83.80L16.90 85.90ZM109 36.50L108 27.10L146.30 22.90L147.30 32.20L141.70 32.90L140.70 45.60L145.30 45.60L150 50.10L153.10 96.40L149 101.20L113.80 105.70L108.40 101.10L108.40 50.40L113 45.60L119.90 45.60L120.60 35.20L109 36.50ZM184.30 103.70L159.80 103.10L155.10 98.60L154.40 71.50L159.10 66.60L187.40 66.60L192 71.90L189 99.50L184.30 103.70ZM155.90 45.60L150.90 39.40L156.80 22.40L165.60 25.50L162.30 35.40L168 34.80L168 23.90L177.50 24L177.40 33.70L186.60 32.70L187.80 42.10L177.40 43.30L177.40 53.10L191.80 53.60L191.50 63L152.60 61.60L152.90 52.20L168 52.80L168 44.30L155.90 45.60ZM117.80 55.10L117.80 82.40L136.60 80L137.80 89.20L117.90 91.80L117.90 95.70L143.40 92.50L142.40 77.80L133.40 76.50L129.40 71.40L130.60 55.10L128.80 55.10L127.40 76.40L117.90 75.70L119.30 55.10L117.80 55.10ZM164.50 93.90L180.10 94.10L182.10 76.10L164 76.10L164.50 93.90ZM140.90 55.10L140 55.10L139.10 67.70L141.70 68.10L140.90 55.10ZM130.20 34.10L129.40 45.60L131.30 45.60L132.20 33.90L130.20 34.10ZM236.90 77.10L236.20 67.70L255.80 66.20L255.10 41.80L241.80 41L242.30 31.50L254.80 32.30L254.50 23.10L264 22.90L264.30 32.80L283.90 34L288.20 40.10L280.80 64.40L291.90 63.50L292.70 72.90L261.90 75.20L241.90 104.90L234.20 99.60L250 76.10L236.90 77.10ZM215.90 73L207.40 69L216.70 49.60L221.70 52L222.90 24.20L232.30 24.60L231.60 40.50L245.90 50.60L240.50 58.40L231.10 51.80L228.80 104.40L219.40 104L221.20 61.90L215.90 73ZM284 105.20L264.40 84.90L271.20 78.40L290.80 98.70L284 105.20ZM277.40 43.10L264.50 42.40L265.20 65.50L270.70 65.10L277.40 43.10ZM385.40 65.10L357.40 65.90L359.20 86.30L357.80 89.90L342 105.60L335.40 98.90L349.70 84.80L348 66.20L319.50 67L314.80 62L316.90 31.30L321.30 26.90L384.90 22.50L385.50 32L326 36L324.50 57.50L347.20 56.80L345.80 40.30L355.20 39.40L356.60 56.50L385.20 55.60L385.40 65.10ZM334.50 77.10L317.20 102.60L309.40 97.30L326.80 71.90L334.50 77.10ZM390.70 92.40L383 97.90L367.20 75.80L374.80 70.30L390.70 92.40ZM489.80 43.40L468.20 46.10L466.70 75.90L472.80 74.90L474.30 84.20L466.20 85.60L465.10 106.50L455.60 106L456.60 87.20L447 88.80L445.30 79.50L457.10 77.50L458.70 47.20L453.70 47.80L437 101.80L428 98.90L443.40 49.10L429.70 50.70L428.60 41.30L459.20 37.60L460.10 21.70L469.50 22L468.70 36.50L488.70 34L489.80 43.40ZM431.60 31.70L423.70 39.60L425.20 106L415.80 106.30L414.40 48.90L410 53.40L403.20 46.80L424.80 25L431.60 31.70ZM496.80 92L488.50 96.20L468.60 56.30L477 52L496.80 92ZM561.50 97.10L508.60 102.90L505.30 96.20L546.80 49.60L527.80 33.70L506.50 48.20L502 41.60L525.80 25.30L530.60 25.60L555.10 46.10L555.50 51.90L518.30 93.80L560.60 89.10L561.50 97.10ZM583.90 36.80L574.30 86.50L612 91.20L611.90 41.60L583.90 36.80ZM620.10 95.80L615.50 99.80L568.90 94L565.50 89.20L576.80 31.50L581.40 28.20L616.60 34.20L620 38.20L620.10 95.80ZM655.50 29.70L650.10 101.90L642.10 101.30L646.70 37.90L629 51.20L624.10 44.70L649.10 26.20L655.50 29.70ZM703.60 100.40L699.30 101.50L661.80 87.80L659.50 82.20L689.40 26.50L696.50 30.30L668.90 81.80L699.40 93L714.10 75.80L688 64.70L691.10 57.20L722.40 70.50L723.90 76.90L703.60 100.40ZM774.70 50.60L767 45.30L784.10 20.90L791.80 26.40L789.80 29.30L814.50 37.80L815.20 46.30L806.10 51.50L820.10 57.80L816.10 66.40L796.10 57.30L777.20 68.10L772.60 59.90L785.60 52.50L782.20 50.90L786.10 42.40L795.60 46.70L801.60 43.30L784.10 37.30L774.70 50.60ZM737.50 53.90L731.70 46.40L756.80 27.30L762.60 34.80L753.20 41.90L754.10 101.50L744.70 101.60L743.80 49.10L737.50 53.90ZM776.20 107.10L773.60 98.10L811.70 86.50L814.50 95.60L776.20 107.10ZM766.80 88L757.50 87.60L759.20 50L768.60 50.40L766.80 88ZM775.50 81.90L773.20 72.60L805.70 64.60L808 73.80L775.50 81.90ZM782.10 92.50L779.50 83.40L804.70 76.10L807.30 85.10L782.10 92.50ZM916.90 35.20L904.10 36.30L907.30 94.50L903.70 99.20L878.70 105.20L876.40 96.10L897.70 91L894.60 37.20L866.10 39.70L865.20 30.40L916.10 25.90L916.90 35.20ZM863.30 94.90L860.60 103.90L841.20 98L837.90 92.40L848.60 52.50L834.80 50.50L836.20 41.10L855.20 44L859.10 49.90L848.30 90.40L863.30 94.90ZM858.90 35.90L852.10 42.40L839.60 29.40L846.30 22.90L858.90 35.90ZM943.20 101.70L933.80 100.60L936.80 72.40L934.90 22.70L944.40 22.40L945.10 40.80L952.70 40.10L951.40 22.90L960.80 22.20L962.10 39.30L965.90 38.90L966.80 48.30L945.40 50.30L945.70 58.20L961.80 56.80L966.90 62.20L962.20 96.10L952.80 94.80L956.80 66.70L946.10 67.70L946.30 72.40L946.30 73.10L943.20 101.70ZM981.90 105.90L974.40 100.10L990.60 79.40L981.70 69.10L988.80 62.90L996.50 71.90L1007.30 58.10L1007.60 55.10L984.30 56.90L983.60 47.60L1012.40 45.30L1017.40 50.30L1016.70 60.30L1015.70 62.80L1002.80 79.20L1018.10 96.80L1010.90 102.90L996.90 86.70L981.90 105.90ZM972.60 101.20L964.20 96.90L970.90 83.30L972.90 31.60L977.10 27.10L1015.70 22.40L1016.80 31.80L982.20 35.90L980.30 84.70L979.80 86.60L972.60 101.20Z"/></svg>