<svg xmlns="http://www.w3.org/2000/svg" xmlns:xlink="http://www.w3.org/1999/xlink" width="700" height="138.5"><path d="M75.70 113.30L75.70 113.30L76 113.10L76.30 113.30Q76.20 113.40 75.70 113.30ZM79.10 112.60Q79.10 112.20 79.90 112.10Q80.70 112 81.05 111.95Q81.40 111.90 81.10 112.40L81.10 112.40Q81 112.80 80.80 112.80L80.80 112.80Q79.10 113.30 79.10 112.60L79.10 112.60ZM82.10 111.80L82.10 111.80L82.10 111.60Q82.20 111.80 82.30 111.90L82.30 111.90Q82.90 112.20 82.40 112.60L82.40 112.60Q81.90 112.90 81.80 112.70L81.80 112.70Q81.70 112.70 81.90 112.30L81.90 112.30Q82.20 112 82.10 111.80ZM29.10 99.85Q28.80 100 28.80 99.75Q28.80 99.50 29.10 99.50Q29.40 99.50 29.40 99.60Q29.40 99.70 29.10 99.85ZM65.70 51.70L65.70 51.70Q68.40 51.60 72 52.10L72 52.10Q74.30 52.40 75.20 52.70Q76.10 53 77.10 53.90L77.10 53.90Q77.50 54.30 78.10 55.10Q78.70 55.90 79.10 56.50Q79.50 57.10 79.40 57.10L79.40 57.10Q79.30 57.10 79.60 57.90L79.60 57.90Q79.90 58.70 80 60.05Q80.10 61.40 79.80 61.55Q79.50 61.70 79.85 62.10Q80.20 62.50 80.10 63L80.10 63Q79.90 63.70 80.80 67.60L80.80 67.60Q81 68.50 80.90 68.90L80.90 68.90Q80.90 69 80.70 68.50L80.70 68.50Q80.60 68.40 80.60 68.30L80.60 68.30Q80.20 67.60 79.10 67Q78 66.40 77.20 65.90Q76.40 65.40 76.10 65.60Q75.80 65.80 75.20 64.80Q74.60 63.80 73.60 63.40Q72.60 63 72.40 62.50L72.40 62.50Q71.80 60.90 69.05 58.45Q66.30 56 63.50 54.50L63.50 54.50Q62.80 53.90 62.70 53.70L62.70 53.70Q63.10 53.50 63 53L63 53Q62.70 52.30 63.25 52Q63.80 51.70 65.70 51.70ZM21.40 51Q20.40 50.10 20.60 49.60Q20.80 49.10 21.55 49.25Q22.30 49.40 23.55 49.70Q24.80 50 25.20 50.35Q25.60 50.70 25.80 50.60L25.80 50.60Q26.70 50.30 29.70 53.30L29.70 53.30Q31.60 55.20 32.40 57.20L32.40 57.20Q32.90 58.70 33.05 59.55Q33.20 60.40 33.10 62.90L33.10 62.90Q32.90 66.40 32.40 70Q31.90 73.60 32.10 73.75Q32.30 73.90 34.25 73.30Q36.20 72.70 36.50 72.30L36.50 72.30Q36.70 72.10 37.40 72.10Q38.10 72.10 38.10 71.85Q38.10 71.60 38.60 71.40L38.60 71.40L41 70.10Q42.70 69.20 43.10 69.20Q43.50 69.20 43.70 68.75Q43.90 68.30 44.40 68.30L44.40 68.30Q45.30 68.30 45.90 63.70L45.90 63.70Q46.20 62.10 46.25 59.35Q46.30 56.60 46.20 56.10L46.20 56.10Q45.90 55.80 45.80 54.70L45.80 54.70Q45.60 53.90 45.15 53.25Q44.70 52.60 44.20 52.60L44.20 52.60Q43.90 52.60 44.05 52Q44.20 51.40 44.40 51.15Q44.60 50.90 47.60 51.30L47.60 51.30Q50 51.50 51.10 52Q52.20 52.50 53 53.80L53 53.80Q53.60 54.80 53.80 59.30L53.80 59.30Q53.80 60.50 53.85 61.50Q53.90 62.50 53.95 63.10Q54 63.70 54 63.60L54 63.60Q54.20 63.50 55.15 63.15Q56.10 62.80 56.10 62.50Q56.10 62.20 56.45 62.20Q56.80 62.20 57.10 61.90Q57.40 61.60 58.35 61.05Q59.30 60.50 59.20 60.10L59.20 60.10Q58.90 60 59.70 60L59.70 60Q60.10 60 60.80 60L60.80 60Q62.60 60.20 63.90 60.20L63.90 60.20Q64.70 60.10 64.90 60.25Q65.10 60.40 65 60.65Q64.90 60.90 65.10 60.95Q65.30 61 66 61L66 61Q68.60 61.20 68.60 61.80L68.60 61.80Q68.60 62.20 68.10 62.70L68.10 62.70Q67.30 63.50 67.70 63.70Q68.10 63.90 67.75 63.90Q67.40 63.90 67.40 64.20Q67.40 64.50 67.85 64.40Q68.30 64.30 68.30 64.70Q68.30 65.10 69.30 65.50Q70.30 65.90 70.30 66L70.30 66Q70.30 66.20 64.20 68.50L64.20 68.50Q62.30 69.20 61.20 69.80Q60.10 70.40 60 70.20L60 70.20Q59.90 70.20 60 70.10Q60.10 70 60.30 69.90Q60.50 69.80 60.80 69.70L60.80 69.70Q61.80 69.20 62 68.90L62 68.90Q62.30 68.60 62 68.65Q61.70 68.70 60.20 69.40L60.20 69.40Q58.70 70.20 58.70 70.40Q58.70 70.60 59.15 70.50Q59.60 70.40 59.60 70.65Q59.60 70.90 59.10 71.10Q58.60 71.30 58.15 71.60Q57.70 71.90 56.80 72.20Q55.90 72.50 55.05 73.25Q54.20 74 53.50 74.35Q52.80 74.70 52.40 75.80L52.40 75.80L52 76.80L53.30 78.20Q54.60 79.60 55.05 81.80Q55.50 84 55.80 83.85Q56.10 83.70 57.70 81.45Q59.30 79.20 59.60 78.30L59.60 78.30Q60.10 77.50 60.45 75.65Q60.80 73.80 60.95 73.85Q61.10 73.90 61.85 74.30Q62.60 74.70 63.70 74.70L63.70 74.70Q64.60 74.70 65.50 75.40Q66.40 76.10 66.80 77L66.80 77Q67 77.70 67.20 80.05Q67.40 82.40 67.60 83.10L67.60 83.10L67.80 85.20Q68.40 88.60 65.70 91.90L65.70 91.90Q64.30 93.70 63.70 94.35Q63.10 95 63.10 95.15Q63.10 95.30 62.40 96.10L62.40 96.10Q58.90 99.90 58.90 100.70L58.90 100.70Q58.90 101.10 60.25 101.60Q61.60 102.10 62 101.90L62 101.90Q62.50 101.80 62.80 102L62.80 102Q63.50 102.40 66.80 102.40Q70.10 102.40 71.90 102.10L71.90 102.10Q76.20 101.10 77.10 99.80L77.10 99.80Q78.50 98 78.80 95.20L78.80 95.20Q79.10 93.90 79.40 94L79.40 94Q79.60 94.20 79.80 93.85Q80 93.50 80.10 92.85Q80.20 92.20 80.20 91.40L80.20 91.40Q80.20 90.40 80.50 90.40Q80.80 90.40 80.80 91.60L80.80 91.60L80.90 92.70Q81.20 92.30 81.40 87.10L81.40 87.10Q81.40 85.20 81.60 85.20L81.60 85.20Q81.80 85.20 82.15 86.50Q82.50 87.80 82.40 88.40L82.40 88.40Q82.20 89.20 82.55 89.40Q82.90 89.60 82.90 89.10Q82.90 88.60 83.20 88.60L83.20 88.60Q84.10 88.60 83.90 93.90L83.90 93.90Q83.90 95.90 84.05 96.45Q84.20 97 84.90 97L84.90 97Q85.30 97 85.20 94.90L85.20 94.90Q85.20 94.50 85.45 94.50Q85.70 94.50 85.70 93.40L85.70 93.40L86.20 97.60Q86.30 99.30 86.30 100.50L86.30 100.50Q86.30 103.10 86.70 103.10Q87.10 103.10 87.30 104.55Q87.50 106 87.70 106.20L87.70 106.20Q88.30 106.60 87.80 108.05Q87.30 109.50 86.30 110.40L86.30 110.40Q86 110.70 86 111.10L86 111.10Q86 111.20 85.90 111.25Q85.80 111.30 85.70 111.30L85.70 111.30Q85.50 111.30 85.15 111.35Q84.80 111.40 84.60 111.60Q84.40 111.80 84.50 111.90L84.50 111.90Q84.60 112.20 84.20 112.20L84.20 112.20Q83.40 112.20 82.60 111.40L82.60 111.40L81.90 110.60L80.20 111.20Q78.70 111.50 74.20 111.70Q69.70 111.90 67.60 111.50L67.60 111.50Q65.80 111.30 64.70 111.20L64.70 111.20Q62.80 111 60 109.55Q57.20 108.10 55.30 106.10L55.30 106.10Q54.10 105.20 53.50 105.90L53.50 105.90Q53.20 106.40 52.45 106.55Q51.70 106.70 51.70 107Q51.70 107.30 51 107.30L51 107.30Q50.50 107.30 50.40 107.35Q50.30 107.40 50.40 107.70L50.40 107.70Q50.50 108.20 49.90 108.80L49.90 108.80Q48.60 109.80 48.50 108.70L48.50 108.70Q48.40 106.60 48 106.50L48 106.50Q47.70 106.40 47.70 105.90Q47.70 105.40 47.20 105.80L47.20 105.80Q47 106 46.95 105.90Q46.90 105.80 46.90 105.30L46.90 105.30Q46.90 104.70 46.50 104.20Q46.10 103.70 45.60 103.80L45.60 103.80Q45.40 103.80 45.25 103.45Q45.10 103.10 45.10 102.20L45.10 102.20Q45.10 100.60 44.75 100.15Q44.40 99.70 44.90 99Q45.40 98.30 45.05 98Q44.70 97.70 45.80 97.20Q46.90 96.70 47.80 95.70L47.80 95.70L48.70 94.50L48.60 91.20Q48.50 88 48.20 87.70L48.20 87.70Q48.10 87.60 47.80 88.30L47.80 88.30Q47.20 89.20 45.60 92.60L45.60 92.60Q44.40 95.20 44.20 95.70L44.20 95.70Q43.90 96.10 42.60 98.90L42.60 98.90Q42.30 99.70 42.05 99.70Q41.80 99.70 41.80 100.15Q41.80 100.60 40.95 101.80Q40.10 103 40.10 103.35Q40.10 103.70 39.25 104.70Q38.40 105.70 38.40 106L38.40 106Q38.40 106.40 36.35 108.45Q34.30 110.50 34.10 110.50L34.10 110.50Q33.80 110.50 33.40 110.80L33.40 110.80Q32.80 111.60 32.60 111.20L32.60 111.20Q32.60 111.10 32.60 110.70L32.60 110.70Q32.80 110.10 32.35 109.95Q31.90 109.80 32.10 109.60L32.10 109.60Q32.30 109.30 32.05 108.85Q31.80 108.40 31.60 108.40L31.60 108.40Q31.10 108.40 30.60 106.40L30.60 106.40Q30.40 105.30 29.90 104.55Q29.40 103.80 29.55 103.35Q29.70 102.90 29.40 102.30L29.40 102.30Q29 101.80 29.35 100.45Q29.70 99.10 30.25 98.85Q30.80 98.60 31.25 98.15Q31.70 97.70 31.70 97.40L31.70 97.40Q31.70 97 32.30 96.50L32.30 96.50Q32.70 96 34.30 92.85Q35.90 89.70 36.20 88.80L36.20 88.80Q36.40 88.10 36.65 88.10Q36.90 88.10 37.10 87.30Q37.30 86.50 38.20 84.50L38.20 84.50Q40.10 80.50 40.10 79.90L40.10 79.90Q40.10 79.70 39.10 79.70Q38.10 79.70 37.95 79.40Q37.80 79.10 36.75 79.10Q35.70 79.10 34.80 78.35Q33.90 77.60 33.20 77.60L33.20 77.60Q31.70 77.60 31.70 76.80L31.70 76.80L31.60 76.60Q31.30 76.80 29.80 84.70L29.80 84.70Q29 88.60 27.80 92.80Q26.60 97 26 97.50L26 97.50Q25.50 98.10 23.40 103L23.40 103Q21.70 107.70 20.60 108.80L20.60 108.80Q19.80 109.60 19.65 110.40Q19.50 111.20 18.35 112.75Q17.20 114.30 17.35 114.80Q17.50 115.30 17 115.70L17 115.70Q16.40 115.90 16.20 115.75Q16 115.60 15.90 114.60L15.90 114.60Q15.70 113.70 14.25 112.15Q12.80 110.60 12.90 109.90L12.90 109.90Q13.10 109.30 12.90 108.85Q12.70 108.40 12.30 108.40Q11.90 108.40 12.05 107.15Q12.20 105.90 12.20 105.55Q12.20 105.20 13.05 105.20Q13.90 105.20 14.40 103.90L14.40 103.90Q16 100.80 18.55 94.60Q21.10 88.40 21.90 85.70L21.90 85.70Q22.80 82.90 24.30 74.75Q25.80 66.60 25.90 64.10L25.90 64.10Q26 62.40 26 59.80L26 59.80Q25.90 56.90 25.05 55.10Q24.20 53.30 21.40 51L21.40 51ZM50 108.25Q50.30 108.10 50.30 107.95Q50.30 107.80 50 107.80Q49.70 107.80 49.70 108.10Q49.70 108.40 50 108.25ZM41.20 24.50L41.20 24.50Q41.60 24.10 43.65 24.30Q45.70 24.50 48.50 25Q51.30 25.50 52.40 26.10L52.40 26.10Q53.30 26.50 53.50 26.50L53.50 26.50Q54.70 26.50 54.90 29L54.90 29Q55.10 31 55.40 31.05Q55.70 31.10 55.60 32.80L55.60 32.80Q55.50 34.10 55.85 34.35Q56.20 34.60 57.30 33.90L57.30 33.90Q58.10 33.40 58.60 33.40L58.60 33.40Q59.20 33.40 59.10 32.50L59.10 32.50Q58.90 32.20 60.10 32.40L60.10 32.40Q60.50 32.50 61.20 32.80L61.20 32.80Q63 33.10 64.50 33.35Q66 33.60 66 34Q66 34.40 66.50 34.40Q67 34.40 68.40 35.40L68.40 35.40Q69.60 36.50 69.30 36.70L69.30 36.70Q68 37.10 68.50 37.90L68.50 37.90Q68.90 38.60 69.15 39.45Q69.40 40.30 69.10 40.50L69.10 40.50Q68.70 40.70 68.50 40.60Q68.30 40.50 68.30 40.70Q68.30 40.90 69.30 41.50L69.30 41.50L70.30 42L69.30 42.40Q68.10 42.80 67.05 42.95Q66 43.10 65.80 43.40Q65.60 43.70 64.80 43.70Q64 43.70 63.85 43.90Q63.70 44.10 62.40 44.35Q61.10 44.60 59.65 45.10Q58.20 45.60 56.60 45.95Q55 46.30 53.70 46.70Q52.40 47.10 52 47.25Q51.60 47.40 50.75 47.70Q49.90 48 48.55 48.50Q47.20 49 47 49.20L47 49.20Q46.70 49.30 43.90 50.25Q41.10 51.20 40.30 51.40L40.30 51.40Q38.50 51.80 37.85 51.65Q37.20 51.50 35.70 50.50L35.70 50.50Q33.90 49.10 32.80 48.80Q31.70 48.50 31.20 47.70L31.20 47.70Q30.50 46.40 28.80 45.40L28.80 45.40Q26.60 44.10 26.30 43.65Q26 43.20 26.90 42.40L26.90 42.40Q27.70 41.60 29.60 41.60L29.60 41.60Q32.50 41.60 39.80 39.20L39.80 39.20Q43.80 37.90 45.40 37.50L45.40 37.50L47 37.10L46.60 36Q46.20 34.80 45.70 34.40L45.70 34.40Q44.80 33.40 44 29L44 29Q43.60 27.30 42.40 26.05Q41.20 24.80 41.20 24.50ZM59.85 44Q60.40 44.10 60.40 44.05Q60.40 44 59.85 43.65Q59.30 43.30 59.30 43.60Q59.30 43.90 59.85 44ZM58.10 45Q58.40 44.80 58.40 44.65Q58.40 44.50 58.10 44.50Q57.80 44.50 57.80 44.85Q57.80 45.20 58.10 45ZM121.60 45.70L121.60 45.70Q122.30 44.70 125.80 46.60L125.80 46.60Q126.30 46.90 128.20 47.85Q130.10 48.80 130.90 49.60L130.90 49.60Q133 51.60 132.70 55.50L132.70 55.50Q132.50 57.30 132.40 59.75Q132.30 62.20 131.80 65.30L131.80 65.30Q130.40 75 130 78.70L130 78.70Q129.50 84.90 128.70 88.50L128.70 88.50Q127 96.10 126.70 96.10L126.70 96.10Q126.60 96.10 125.35 94.50Q124.10 92.90 123.80 92.20L123.80 92.20Q122.50 89.60 122.10 89.60L122.10 89.60Q121.80 89.60 121.65 88.80Q121.50 88 120.90 87.60L120.90 87.60Q120 86.90 120.60 84.50L120.60 84.50Q121 82.70 121.30 79.10L121.30 79.10Q121.40 77.30 121.70 75.60L121.70 75.60Q122.60 70.70 122.90 66.30L122.90 66.30Q123 63.10 123.30 61.95Q123.60 60.80 123.75 56.20Q123.90 51.60 123.70 50.30L123.70 50.30Q123.50 49 122.40 47.65Q121.30 46.30 121.60 45.70ZM141.70 36.40L141.70 36.40Q143.50 34.80 143.50 34.80Q143.50 34.80 143.40 35.85Q143.30 36.90 142.90 37.30L142.90 37.30Q142 38.50 142.40 38.50L142.40 38.50Q142.70 38.50 142.90 38.50L142.90 38.50Q143.80 38.30 144.20 38.10L144.20 38.10Q144.40 38 144.40 38.70L144.40 38.70Q144.50 39 144.50 39.40L144.50 39.40Q144.50 40.40 144.20 41Q143.90 41.60 142.50 43.20L142.50 43.20Q140.70 45.60 140.70 46Q140.70 46.40 139.90 47L139.90 47L139.10 47.40L137.70 46.60Q136.40 45.80 135.90 45.20L135.90 45.20Q133 42.70 131 42L131 42Q130.10 41.80 129.80 41.30Q129.50 40.80 129.40 39.30L129.40 39.30Q129.40 38 129.55 37.60Q129.70 37.20 130.40 36.90L130.40 36.90Q130.90 36.60 132.70 37.05Q134.50 37.50 135.40 38.20L135.40 38.20Q136.20 38.80 136.80 38.80L136.80 38.80Q139.10 38.80 141.70 36.40ZM166.60 31.70L166.60 31.70Q166.80 31.40 167.95 31.50Q169.10 31.60 170.10 31.80L170.10 31.80Q171.60 32.30 176.20 35.70L176.20 35.70Q179.70 38.30 178.70 39.40L178.70 39.40Q178.30 39.70 179.10 41.45Q179.90 43.20 179.50 43.75Q179.10 44.30 178.90 44.20L178.90 44.20Q177.80 43.90 177.50 45.90L177.50 45.90Q177.30 47.30 176.95 47.55Q176.60 47.80 176.55 49.15Q176.50 50.50 176.20 52.40Q175.90 54.30 176.05 56.65Q176.20 59 176.15 61.30Q176.10 63.60 176.50 68.40Q176.90 73.20 176.90 73.65Q176.90 74.10 177.10 76.30Q177.30 78.50 177.45 81.95Q177.60 85.40 177.70 86.80L177.70 86.80Q178.30 94.40 177.80 95.80L177.80 95.80Q177.50 97.10 177.25 99.25Q177 101.40 176.10 102.10L176.10 102.10Q175.40 102.60 174.55 104.50Q173.70 106.40 173.70 107.60L173.70 107.60Q173.60 108.50 173.40 108.50Q173.20 108.50 172.40 106.90Q171.60 105.30 171.25 105.30Q170.90 105.30 171.05 104.30Q171.20 103.30 170.60 102.90Q170 102.50 170 102.05Q170 101.60 168.65 100.15Q167.30 98.70 167.35 98.25Q167.40 97.80 167.10 97.65Q166.80 97.50 166.80 96.95Q166.80 96.40 166.55 96.30Q166.30 96.20 165.25 94.95Q164.20 93.70 164.20 92.70Q164.20 91.70 163.90 91.05Q163.60 90.40 163.75 90Q163.90 89.60 165 90.30L165 90.30Q166.90 91.70 167.20 90L167.20 90Q167.30 89.20 167.25 84.90Q167.20 80.60 166.90 80.10L166.90 80.10Q166.80 79.70 166.65 74.45Q166.50 69.20 166.30 68.70L166.30 68.70Q166.10 68.20 165.80 48.50L165.80 48.50Q165.70 41.50 164.60 41.50L164.60 41.50Q164.20 41.50 160.90 42.20Q157.60 42.90 156.35 42.80Q155.10 42.70 153.35 42.10Q151.60 41.50 150.80 40.80L150.80 40.80Q150 40.10 148.65 39.55Q147.30 39 146.80 38.60Q146.30 38.20 146.95 37.65Q147.60 37.10 150.10 36.70L150.10 36.70Q153.10 36.40 158.05 35.05Q163 33.70 163.20 33.20L163.20 33.20Q163.40 32.70 163.95 32.70Q164.50 32.70 164.95 32.30Q165.40 31.90 165.95 31.90Q166.50 31.90 166.60 31.70ZM259.30 96.60L259.30 96.60Q259.30 96.50 259.70 96.50L259.70 96.50Q260.10 96.50 260.10 96.60L260.10 96.60Q259.80 96.90 259.30 96.60ZM261 96.40L261 96.40Q260.70 96.30 261 96.30L261 96.30Q261.20 96.20 261.40 96.20L261.40 96.20Q262 96.30 261.90 96.40L261.90 96.40Q261.50 96.50 261 96.40ZM254.30 36.80Q255.50 36.30 255.95 36.05Q256.40 35.80 257.40 35.90L257.40 35.90Q261 36.50 261.20 37L261.20 37Q261.30 37.20 261.50 37.10L261.50 37.10Q261.90 36.80 262.90 37.55Q263.90 38.30 264.60 39.30L264.60 39.30Q265.40 40.40 265.80 40.55Q266.20 40.70 266 41Q265.80 41.30 266.20 41.60L266.20 41.60Q266.60 41.80 266.65 43.50Q266.70 45.20 266.20 45.60L266.20 45.60Q265.90 46 266.50 46.55Q267.10 47.10 267.65 47.55Q268.20 48 268.60 48L268.60 48Q269.80 48 268.40 48.30L268.40 48.30Q267.60 48.60 266.50 48.70L266.50 48.70Q262.90 49.40 259.60 50.60L259.60 50.60Q258.50 51.10 258.30 51.35Q258.10 51.60 258.10 52.10L258.10 52.10Q258.10 53.10 257.90 58.30L257.90 58.30L257.70 63.60L258.50 63.40Q260.50 62.80 260.70 62.30L260.70 62.30Q260.80 61.90 263.85 61.75Q266.90 61.60 267.85 62.05Q268.80 62.50 268.80 62.85Q268.80 63.20 270.20 64.40L270.20 64.40Q272.50 66.50 271.70 67.50L271.70 67.50Q271.40 68 271.40 69L271.40 69Q271.50 69.80 271.40 70Q271.30 70.20 270.60 70.20L270.60 70.20Q268.30 70.30 262 72.90L262 72.90Q259.90 73.80 258.60 74.20L258.60 74.20L257.30 74.80L257 77.50Q256.90 80.30 256.25 80.95Q255.60 81.60 255.60 82.70L255.60 82.70Q255.60 83.60 256 83.60L256 83.60Q256.60 83.90 264.30 83.40L264.30 83.40Q270.80 83 270.80 82.70L270.80 82.70Q270.80 82.10 274.40 83.40L274.40 83.40Q276.90 84.20 277.30 84.20L277.30 84.20Q277.60 84.20 278.85 85.15Q280.10 86.10 279.90 86.30L279.90 86.30Q279.80 86.60 281.20 88.05Q282.60 89.50 282.25 89.90Q281.90 90.30 282.40 91.70L282.40 91.70Q283.20 93.50 282.30 93.50L282.30 93.50Q281.60 93.50 282.20 94.50L282.20 94.50Q282.40 95 282.20 95.40Q282 95.80 281.40 95.70L281.40 95.70Q280.70 95.50 280.70 95.80L280.70 95.80Q280.70 96.10 281.40 96.40L281.40 96.40Q281.90 96.60 281.40 96.60L281.40 96.60Q281.20 96.60 280.40 96.50L280.40 96.50Q276.90 96.20 266.70 96.20L266.70 96.20Q263 96.10 263 95.80L263 95.80Q263.20 95.70 262.70 95.70L262.70 95.70Q261.50 95.70 258.30 96.30L258.30 96.30L256.90 96.80Q257 96.80 257.60 96.80L257.60 96.80Q258.40 96.80 258.40 96.85Q258.40 96.90 257.30 97.10L257.30 97.10Q255.60 97.30 255.50 97.20L255.50 97.20L255.90 97.10Q256.30 97.10 256.30 96.75Q256.30 96.40 255.85 96.60Q255.40 96.80 254.10 96.80Q252.80 96.80 252.85 97Q252.90 97.20 252.90 97.90L252.90 97.90Q252.80 98.50 252.80 98.50Q252.80 98.50 252.50 98L252.50 98Q252.30 97.40 252 97.20L252 97.20Q250.90 96.50 244.70 98L244.70 98L237.80 99.60Q235.30 100.20 231.50 101.50Q227.70 102.80 226.90 103.40L226.90 103.40Q226.10 104 225.90 104Q225.70 104 224.10 102.85Q222.50 101.70 222.15 101.70Q221.80 101.70 220.90 100.65Q220 99.60 219.55 98.70Q219.10 97.80 218.40 97.20L218.40 97.20Q217.80 96.80 217.45 95.50Q217.10 94.20 217.50 94L217.50 94Q217.70 93.80 217.60 93.30L217.60 93.30Q217 91 217.30 90.40L217.30 90.40Q217.60 90 219.10 90.70L219.10 90.70Q221.40 91.80 224.80 90.70L224.80 90.70Q226.50 90.10 228.70 89.60L228.70 89.60Q231.30 89.20 231.30 88.60L231.30 88.60Q231.30 88.50 231 88.20L231 88.20Q230.50 87.40 232.60 84.10L232.60 84.10Q233.60 82.60 233.80 81Q234 79.40 234.10 73.80L234.10 73.80Q234.10 70.50 233.90 69.65Q233.70 68.80 232.80 68.50L232.80 68.50Q232.30 68.30 233 68.10L233 68.10Q233.60 68 233.65 67.45Q233.70 66.90 233.10 66.50L233.10 66.50Q232 65.70 232.65 65Q233.30 64.30 235.90 65.05Q238.50 65.80 240.20 67.20L240.20 67.20Q241.70 68.30 242 69.70L242 69.70Q242.20 70.90 242.20 76.65Q242.20 82.40 242.10 84.20L242.10 84.20L242 85.80L243.60 85.80Q245.20 85.80 245.60 85.70L245.60 85.70Q246.70 85.70 246.70 80.30L246.70 80.30Q246.80 76.90 247.10 73.90L247.10 73.90Q247.90 67.80 247.60 67.50L247.60 67.50Q247.20 67.30 247.40 62.80Q247.60 58.30 247.10 57.55Q246.60 56.80 246.50 56.70Q246.40 56.60 243.90 57.80Q241.40 59 240.85 59Q240.30 59 238.55 57.35Q236.80 55.70 235.55 55.20Q234.30 54.70 234.05 54.35Q233.80 54 232.95 53.45Q232.10 52.90 231.80 52Q231.50 51.10 230.30 50.30L230.30 50.30Q229.70 49.80 229.50 49.55Q229.30 49.30 229.40 48.30L229.40 48.30Q229.70 47.10 229.30 46.60L229.30 46.60Q229 45.90 229.40 45.60Q229.80 45.30 230.80 45.30L230.80 45.30Q233 45.30 234.30 45Q235.60 44.70 238.20 43.50L238.20 43.50L246 39.80Q248.60 38.70 251.30 37.80L251.30 37.80Q252.30 37.40 252.55 37.80Q252.80 38.20 252.95 37.75Q253.10 37.30 254.30 36.80ZM367.35 117.90Q367.10 117.90 366.70 117.60Q366.30 117.30 366.55 117.30Q366.80 117.30 367.20 117.60Q367.60 117.90 367.35 117.90ZM362.20 116.80L362.20 116.80Q362 116.50 362.20 116.50L362.20 116.50Q362.30 116.50 362.60 116.60L362.60 116.60Q362.90 116.90 362.90 117L362.90 117Q362.60 117.10 362.20 116.80ZM316.30 57L316.10 56.70L316.30 56.40Q316.50 56.60 316.30 57L316.30 57ZM312.90 39.10L312.90 39.10Q313.50 38.30 317.50 40.20L317.50 40.20Q320.10 41.40 322.50 43.65Q324.90 45.90 325.20 47.50L325.20 47.50Q325.40 48.20 325.05 49.35Q324.70 50.50 324.20 51.20L324.20 51.20Q323.50 52 323.10 52.80L323.10 52.80Q323 53.20 322.80 53.40Q322.60 53.60 322.50 53.55Q322.40 53.50 322.05 53.95Q321.70 54.40 321.40 55.10L321.40 55.10Q320.60 56.80 320.30 56.80Q320 56.80 319.80 57.30L319.80 57.30L319.70 57.20Q319.70 57 319.80 56.70L319.80 56.70Q319.90 55.70 319.55 55.70Q319.20 55.70 318.75 55.65Q318.30 55.60 317.95 55.80Q317.60 56 317.30 55.50Q317 55 316.70 55.50L316.70 55.50Q316.50 55.80 316.50 55.30L316.50 55.30Q316.50 55.10 316.60 54.70L316.60 54.70Q316.70 53.90 316.65 53.80Q316.60 53.70 316.30 54.20L316.30 54.20Q315.90 54.80 315.50 55.90L315.50 55.90L315.30 56.60L315.30 56.40Q315.30 55.80 315.90 53.20Q316.50 50.60 316.30 47.80L316.30 47.80L316.20 44.90L314.70 42.40Q313.10 39.90 312.80 39.70Q312.50 39.50 312.90 39.10ZM356.40 25.05Q357.50 22.50 357.95 21.95Q358.40 21.40 358.95 21.55Q359.50 21.70 360.70 22.60L360.70 22.60Q362.30 24 362.85 24.55Q363.40 25.10 364.20 26.60L364.20 26.60Q365.20 28.40 365.05 29.80Q364.90 31.20 363.85 33.35Q362.80 35.50 363.30 35.70L363.30 35.70Q364 36.10 365 36L365 36Q365.30 35.90 366.85 36.40Q368.40 36.90 368.60 37.20L368.60 37.20Q368.70 37.40 369.20 37.40L369.20 37.40Q369.70 37.40 371 38.65Q372.30 39.90 372.90 40.90L372.90 40.90Q373.50 41.80 373.75 41.80Q374 41.80 374 42.35Q374 42.90 374.20 43.20L374.20 43.20Q374.60 43.40 374.40 43.80Q374.20 44.20 373.50 44.40L373.50 44.40Q372.60 44.70 371 44.90L371 44.90Q365.40 45.50 360.80 46.10L360.80 46.10L358.90 46.50L359 47.40Q359.10 48.30 360 49.50L360 49.50L361 50.50L359.70 52.60Q358.40 54.50 357.50 55.20L357.50 55.20Q356.70 55.70 356.15 56.45Q355.60 57.20 355.80 57.40L355.80 57.40Q355.90 57.50 357.70 56.80L357.70 56.80Q361.20 55.60 363.10 56.80L363.10 56.80Q364.20 57.40 364.70 57.40Q365.20 57.40 365.80 58Q366.40 58.60 366.70 58.80L366.70 58.80Q367.20 59.10 368.20 60.80Q369.20 62.50 369.40 63.20L369.40 63.20Q369.60 64 369.25 65.60Q368.90 67.20 368.85 76.80Q368.80 86.40 368.45 90.90Q368.10 95.40 367.90 98.60L367.90 98.60L367.70 101.90L367.20 101.30L365.40 99.70Q364.30 98.70 364.30 98.40Q364.30 98.10 363.70 97.80L363.70 97.80Q363 97.40 362.25 96.60Q361.50 95.80 361.70 95.60L361.70 95.60Q361.80 95.40 361.40 95L361.40 95Q360.70 94.40 350.40 96.60L350.40 96.60L345 97.70L344.60 98.90Q344.30 100.30 344.50 100.50L344.50 100.50Q345 100.90 354.50 103.40L354.50 103.40Q357.20 104.20 359.85 104.60Q362.50 105 364.95 105.45Q367.40 105.90 374.10 106.80L374.10 106.80Q386.70 108.10 388.90 108.80L388.90 108.80Q389.50 108.90 389.85 109.45Q390.20 110 391.60 110.50L391.60 110.50L392.80 111.10L392.20 111.80Q391.70 112.50 392.20 113.10Q392.70 113.70 392.80 113.85Q392.90 114 393.15 114.45Q393.40 114.90 394.20 115L394.20 115Q394.80 115.10 394.40 115.10L394.40 115.10Q394.30 115.10 393.90 115.30L393.90 115.30Q390.50 115.40 383.80 116.60L383.80 116.60Q381.30 117.10 379.60 117.35Q377.90 117.60 376.75 117.80Q375.60 118 374.55 117.95Q373.50 117.90 372.85 118.25Q372.20 118.60 370.40 118Q368.60 117.40 368.30 117.25Q368 117.10 365.10 116.20L365.10 116.20Q357.90 113.90 356.60 113.10L356.60 113.10Q356 112.70 354.75 112.25Q353.50 111.80 352.90 111.50Q352.30 111.20 347.70 109.40L347.70 109.40Q337 104.90 331.25 103.60Q325.50 102.30 321.20 103.20L321.20 103.20Q315.80 104.50 314.70 105.10L314.70 105.10Q314.40 105.50 313.25 105.25Q312.10 105 311.30 104.50L311.30 104.50L309.60 103.30Q308.60 102.70 308.60 102.45Q308.60 102.20 308.10 102.20L308.10 102.20Q307.50 102.20 306.90 101.50Q306.30 100.80 306.50 100.30L306.50 100.30Q306.60 99.70 308.55 99.35Q310.50 99 314.70 98.10Q318.90 97.20 322.95 97.10Q327 97 327.15 96.85Q327.30 96.70 326.40 95.55Q325.50 94.40 325.10 92.75Q324.70 91.10 324.50 91Q324.30 90.90 324.30 90.45Q324.30 90 323.45 88.15Q322.60 86.30 322.60 85.90Q322.60 85.50 322.40 85.30Q322.20 85.10 321.50 83.15Q320.80 81.20 320.80 81L320.80 81Q320.90 80.80 320.35 77.90Q319.80 75 319.70 74.80L319.70 74.80Q319.40 74.70 317.65 75.85Q315.90 77 314.70 77.20L314.70 77.20Q313.80 77.30 311.80 76.95Q309.80 76.60 309.80 76.40L309.80 76.40Q309.80 76.20 308.80 76Q307.80 75.80 306.95 75.05Q306.10 74.30 305.90 74.30L305.90 74.30Q305.30 74.30 305.80 73.40L305.80 73.40Q305.90 73.10 306.20 72.90L306.20 72.90Q308.30 72.40 311.30 70.20L311.30 70.20Q312.40 69.40 316 65.90Q319.60 62.40 319.60 62.10L319.60 62.10Q319.60 61.80 320.55 60.95Q321.50 60.10 321.90 60.10L321.90 60.10Q322.40 60.10 322.55 59.75Q322.70 59.40 323.20 59.80L323.20 59.80Q324.70 61 325.50 61L325.50 61Q325.80 61 326.95 62.15Q328.10 63.30 328.60 64.20L328.60 64.20Q329.20 64.90 330 66L330 66Q330.90 67.40 331 67.85Q331.10 68.30 330.40 68.60L330.40 68.60Q329.60 68.80 329.30 69.60Q329 70.40 328.50 70.90Q328 71.40 327.15 74.65Q326.30 77.90 326.50 80.60L326.50 80.60Q326.80 85.80 329.50 91.90L329.50 91.90Q330.60 94.40 331.20 95.90L331.20 95.90Q331.60 97.20 332.30 97.50Q333 97.80 338.30 99L338.30 99Q342.40 100 342.80 100.10L342.80 100.10L342.40 99.50Q342.30 99.40 342.20 99.30L342.20 99.30Q341.10 98.40 341.10 98L341.10 98Q341.10 97.10 338.70 95.70L338.70 95.70Q337.20 94.80 336.80 94.40L336.80 94.40Q336.50 94.10 336.55 93.60Q336.60 93.10 336.80 92.80L336.80 92.80Q337.20 92.70 337.10 90.10Q337 87.50 337.50 87Q338 86.50 337.80 85.45Q337.60 84.40 337.80 84L337.80 84Q338.30 83.20 338.70 76L338.70 76Q338.80 73.90 339 70.90L339 70.90Q339.60 63.70 338.30 61L338.30 61Q337.60 59.50 337.80 58.90Q338 58.30 339.10 58.50L339.10 58.50Q341.40 58.80 342.70 60.20L342.70 60.20Q343.30 60.80 343.50 60.60Q343.70 60.40 343.80 59L343.80 59Q343.90 57.90 344.20 57.35Q344.50 56.80 345.70 55.60L345.70 55.60Q348.90 52.40 350.50 49.10L350.50 49.10Q350.80 48.40 350.80 48.30Q350.80 48.20 350.50 48.20L350.50 48.20Q349.90 48.20 347.60 48.75Q345.30 49.30 343.95 49.50Q342.60 49.70 342.35 50.10Q342.10 50.50 341.05 50.05Q340 49.60 338.80 49.50Q337.60 49.40 337.15 48.90Q336.70 48.40 336.30 48.40Q335.90 48.40 334.80 47.85Q333.70 47.30 333.40 47.30Q333.10 47.30 331.90 46.20Q330.70 45.10 330.90 44.20L330.90 44.20Q331.10 43.60 331.35 43.50Q331.60 43.40 333.10 43.20L333.10 43.20Q335.10 42.90 339.20 41.90L339.20 41.90Q342.80 41 342.95 40.60Q343.10 40.20 341.30 38.20L341.30 38.20Q339.70 36.50 339.25 35.55Q338.80 34.60 338.10 32.20L338.10 32.20Q337.40 29.60 336.90 28.80L336.90 28.80Q335.70 26.90 336.20 26.10L336.20 26.10Q336.50 25.70 339 26.70L339 26.70Q344.10 28.60 346.60 31L346.60 31Q348.30 32.70 348.40 33.60L348.40 33.60L348.90 36.60Q349.10 38.40 349.40 38.75Q349.70 39.10 350.60 39L350.60 39Q352.50 38.70 352.60 38.60L352.60 38.60Q352.60 38.40 352.10 38.10L352.10 38.10Q350.50 36.90 353 32.90L353 32.90Q355.90 28.60 355.40 27.90L355.40 27.90Q355.30 27.60 356.40 25.05ZM359.80 63.70L359.80 63.70Q359.40 62.70 352.70 65L352.70 65Q349.30 66.20 348.20 66.50L348.20 66.50L346.90 66.80L346.90 68.70Q346.90 70.50 347.15 70.50Q347.40 70.50 351.40 69Q355.40 67.50 357.15 67.50Q358.90 67.50 359 67.85Q359.10 68.20 359.80 68.20L359.80 68.20Q360.20 68.20 360.25 67.95Q360.30 67.70 360.20 66.30L360.20 66.30Q360 64.30 359.80 63.70ZM361.20 78.30L361.10 75.40Q361.10 72.30 360.90 72.30Q360.70 72.30 357.40 73.50L357.40 73.50Q347.60 77 347 77L347 77Q346.80 77 346.60 78.25Q346.40 79.50 346.50 79.80L346.50 79.80Q346.60 80.10 349.60 79.10Q352.60 78.10 354.30 77.70L354.30 77.70Q355.20 77.40 356.30 77.30Q357.40 77.20 358.10 77.25Q358.80 77.30 358.80 77.40L358.80 77.40Q358.80 77.80 360 78L360 78L361.20 78.30ZM361.20 79.20L361.20 79.20Q361.20 78.90 360.80 78.90L360.80 78.90Q360.60 78.90 360.45 79.20Q360.30 79.50 360.50 79.60L360.50 79.60Q360.70 79.80 360.95 79.65Q361.20 79.50 361.20 79.20ZM361.10 84.30L361.10 84.30Q361.20 82.70 361.10 82.40Q361 82.10 360.50 82.10L360.50 82.10Q359.50 82.30 355.80 83.80L355.80 83.80Q349.80 86.20 346.90 86.60L346.90 86.60Q346 86.90 345.70 87.35Q345.40 87.80 345.40 89.50L345.40 89.50Q345.40 90.90 345.95 90.90Q346.50 90.90 351.30 89.80L351.30 89.80Q358.20 88.40 360.30 89L360.30 89Q360.50 89 360.60 88.85Q360.70 88.70 360.85 88.10Q361 87.50 361.05 86.60Q361.10 85.70 361.10 84.30ZM468.30 47L468.30 47Q468.70 46.60 469.50 46.70L469.50 46.70Q470.20 46.80 472.90 48.10Q475.60 49.40 476.30 50L476.30 50Q478.80 52 479.55 52.75Q480.30 53.50 480.20 53.60L480.20 53.60Q480.10 53.90 480.10 60.15Q480.10 66.40 480.30 69.60L480.30 69.60Q480.40 72.20 480.60 76.50L480.60 76.50Q480.90 84.30 481.20 86.50L481.20 86.50Q481.50 87.60 482.20 87.90L482.20 87.90Q484.20 88.40 485.50 87.70L485.50 87.70Q486.40 87.30 487.10 87.40Q487.80 87.50 489.30 88.70L489.30 88.70Q492.40 91.20 494 94.60L494 94.60Q494.20 95.20 494.40 95.80Q494.60 96.40 494.55 96.75Q494.50 97.10 494.40 97.10L494.40 97.10Q494.10 97.10 494.10 97.50L494.10 97.50Q494.10 98.10 492.40 98.35Q490.70 98.60 485.30 98.80L485.30 98.80Q478.10 98.90 477.90 99.25Q477.70 99.60 477.50 100.50L477.50 100.50L477.10 101.40L475.40 100.20L473.70 98.80L471.60 99Q469.50 99.20 464.30 99.80Q459.10 100.40 454.50 100.80Q449.90 101.20 448 101.80L448 101.80L446.20 102.20L444.70 101.50Q443.20 100.90 442.45 100.90Q441.70 100.90 441.40 100.25Q441.10 99.60 440.10 99.20L440.10 99.20Q438 98.70 437 96.70L437 96.70Q436.50 95.90 436.90 95.20L436.90 95.20Q437.20 94.80 437.55 94.65Q437.90 94.50 439.50 94.50L439.50 94.50Q441 94.50 445.70 93.70Q450.40 92.90 450.70 92.70L450.70 92.70Q450.90 92.50 450.55 91.80Q450.20 91.10 450.20 90.40L450.20 90.40Q450.40 88.70 449.90 88.70L449.90 88.70Q449.40 88.70 449.55 87.45Q449.70 86.20 449.95 85.95Q450.20 85.70 450.55 77.25Q450.90 68.80 451 67.20L451 67.20Q451.10 65.30 450.80 59.95Q450.50 54.60 450.30 54.40L450.30 54.40Q450 54 450 53.50Q450 53 449.50 53Q449 53 449 52.90L449 52.90Q449 52 450.20 51.40L450.20 51.40Q451 50.90 452.70 51.40L452.70 51.40Q454 51.60 454.70 51.50Q455.40 51.40 458.10 50.50L458.10 50.50Q461.80 49.20 464.10 48.80L464.10 48.80Q467.40 48 468.30 47ZM468.60 55.90L468.60 55.90Q468.50 54.90 468.10 54.80Q467.70 54.70 466 55.30L466 55.30Q464.30 55.80 462.20 56L462.20 56L459.90 56.20L459.90 61.50Q459.90 65.30 459.95 66.10Q460 66.90 460.40 66.90L460.40 66.90Q460.90 66.90 461.15 66.70Q461.40 66.50 465.30 64.90L465.30 64.90L469.30 63.20L469.30 62.20Q469.30 59.50 468.60 55.90ZM465.10 71.20L465.10 71.20Q467.40 70 467.40 69.90Q467.40 69.80 464.80 71L464.80 71Q462.30 72 461.10 72Q459.90 72 459.80 72.45Q459.70 72.90 459.60 75.20L459.60 75.20Q459.60 75.90 459.55 76.45Q459.50 77 459.50 77.30Q459.50 77.60 459.60 77.60L459.60 77.60Q459.70 77.60 463.85 76.35Q468 75.10 468.90 75.10L468.90 75.10Q469.60 75.10 469.80 74.90Q470 74.70 470 74.10L470 74.10Q470 73.10 469.70 71.60L469.70 71.60Q469.60 70.60 469.50 70.35Q469.40 70.10 469.20 70.10L469.20 70.10Q468.70 70.40 466.40 71.20L466.40 71.20Q463.50 72.30 463.40 72.20L463.40 72.20Q463.20 72.10 465.10 71.20ZM470.15 89.45Q470.20 89.40 470.30 85.75Q470.40 82.10 470.25 81.65Q470.10 81.20 467.70 82.20L467.70 82.20Q463.90 83.60 462 83.40L462 83.40Q461.60 83.40 462.30 83L462.30 83L463.20 82.70L461.70 82.60Q460.20 82.60 460 82.30L460 82.30Q459.40 81.40 459.30 82.90L459.30 82.90Q459.30 83.30 459.30 83.80L459.30 83.80Q459.20 89 458.20 90.60L458.20 90.60Q457.90 91.10 457.90 91.20Q457.90 91.30 458.50 91.30L458.50 91.30Q459.30 91.30 463.35 90.55Q467.40 89.80 468.75 89.65Q470.10 89.50 470.15 89.45ZM424.90 23.60L424.90 23.60Q425.70 22.80 426.30 22.80L426.30 22.80Q427.30 22.80 431.80 25.80L431.80 25.80Q432.80 26.60 433.30 27.50Q433.80 28.40 434.10 29.20L434.10 29.20Q434.40 29.80 434.50 30.60Q434.60 31.40 434.20 31.60L434.20 31.60Q434 31.70 434.10 33.40Q434.20 35.10 434.60 36.50L434.60 36.50Q434.90 37.70 434.70 39.60L434.70 39.60Q434.10 47.40 434.30 48.90L434.30 48.90L434.40 50.30L435 49.10Q435.80 47.50 436.50 45.15Q437.20 42.80 437.10 42L437.10 42Q436.90 40.90 437.40 40.55Q437.90 40.20 438.80 40.20Q439.70 40.20 440.20 40.60L440.20 40.60Q440.80 40.90 441.60 41.20L441.60 41.20Q443.30 41.70 444.40 43.25Q445.50 44.80 445.10 46.60L445.10 46.60Q445 47.50 443.75 50.15Q442.50 52.80 441.10 54.70L441.10 54.70L439.20 58.10L438 59.30Q438 58.90 437.65 59.40Q437.30 59.90 436.90 59.90L436.90 59.90Q436.60 59.90 436.05 60.85Q435.50 61.80 435.50 62.10L435.50 62.10Q435.50 62.90 436.70 61.50L436.70 61.50Q437.40 60.80 438.50 60.60L438.50 60.60L439.40 60.30Q439.30 60.10 439.50 59.90Q439.70 59.70 440.10 59.50Q440.50 59.30 440.90 59.30L440.90 59.30Q441.70 59.30 443.80 60.45Q445.90 61.60 446.90 62.40L446.90 62.40Q448.50 64.10 447.70 64.70L447.70 64.70Q447.60 64.90 447.20 64.90L447.20 64.90Q446.70 64.90 446.90 65.65Q447.10 66.40 446.65 66.40Q446.20 66.40 446.20 66.95Q446.20 67.50 445.40 67.85Q444.60 68.20 444.20 68.55Q443.80 68.90 440.45 70.55Q437.10 72.20 436.60 72.65Q436.10 73.10 436.10 75.20L436.10 75.20L436.10 77.40L437.30 78.20Q440.10 79.90 441.30 83.90L441.30 83.90Q442.50 87.30 441.70 87.60L441.70 87.60Q441.30 87.70 441.10 88.70L441.10 88.70L440.90 89.60L440.10 89Q439.20 88.50 437.75 87.45Q436.30 86.40 436.20 86.40L436.20 86.40Q436.10 86.40 436.10 86.60Q436.10 86.80 436.10 87.20Q436.10 87.60 436.20 88L436.20 88Q436.30 89.70 436.30 96.50L436.30 96.50Q436.30 106.10 435.90 106.30L435.90 106.30Q435.70 106.50 435.70 107.60L435.70 107.60Q435.70 109.20 435.20 112.05Q434.70 114.90 434.30 114.90L434.30 114.90Q434 114.90 434 115.90L434 115.90Q434 117.30 433.50 117.30L433.50 117.30Q433.40 117.30 433.10 117L433.10 117Q432.70 116.40 431.30 114.90L431.30 114.90Q428.70 111.80 428.30 111.05Q427.90 110.30 427.80 108.80L427.80 108.80Q427.70 107.50 427.35 107.15Q427 106.80 427.20 106.60L427.20 106.60Q427.30 106.50 427.60 103.80Q427.90 101.10 427.90 100.20L427.90 100.20Q427.80 95.90 427.90 92.90L427.90 92.90Q428 90.40 427.80 90.30L427.80 90.30Q427.80 90.20 427.50 90.50Q427.20 90.80 426.80 91.55Q426.40 92.30 425.80 93.40Q425.20 94.50 424.55 95.90Q423.90 97.30 423.10 98.90L423.10 98.90Q420.10 105.10 419.50 106Q418.90 106.90 418.30 106.90L418.30 106.90Q417.50 106.90 417.20 107.30L417.20 107.30Q416.60 107.60 416.15 107.10Q415.70 106.60 415.70 105.80L415.70 105.80Q415.70 104.60 415 103.50L415 103.50Q414.10 101.70 413.70 98.70L413.70 98.70Q413.60 97.50 414.40 96.55Q415.20 95.60 417.85 90.35Q420.50 85.10 421.80 82.80L421.80 82.80Q422 82.20 422.30 81.70Q422.60 81.20 422.70 80.90Q422.80 80.60 422.80 80.60L422.80 80.60Q422.50 80.60 420.50 81.75Q418.50 82.90 417.90 83.40L417.90 83.40Q417.10 84.20 415.40 84.20L415.40 84.20Q413.70 84.10 412.45 83.75Q411.20 83.40 411.20 82.90L411.20 82.90Q411.30 82.80 411.20 82.75Q411.10 82.70 410.90 82.80L410.90 82.80Q410.40 82.90 410.40 82.60Q410.40 82.30 408.85 81.85Q407.30 81.40 407.30 81Q407.30 80.60 406.85 80.25Q406.40 79.90 406.55 79.45Q406.70 79 406.20 78.90L406.20 78.90Q405 78.70 405.80 78.10L405.80 78.10Q406.20 77.90 407.95 77.80Q409.70 77.70 412.65 76.05Q415.60 74.40 416.55 73.75Q417.50 73.10 420.45 71.40Q423.40 69.70 424.80 68.75Q426.20 67.80 427.35 67.30Q428.50 66.80 428.50 66.10L428.50 66.10Q428.50 65.80 428.30 65.50Q428.10 65.20 427.95 65.20Q427.80 65.20 427.50 65.40L427.50 65.40Q427.30 65.90 427.35 65.50Q427.40 65.10 427.80 63.80L427.80 63.80Q428.20 62.40 428 59.80Q427.80 57.20 427.80 55.85Q427.80 54.50 427.50 54.30L427.50 54.30Q427.30 54 427.30 54.40L427.30 54.40Q427.20 54.90 427.20 57.30L427.20 57.30Q427.10 59.70 426.55 60.20Q426 60.70 425.95 61.10Q425.90 61.50 425.65 62.10Q425.40 62.70 425.50 63.15Q425.60 63.60 424.60 64.75Q423.60 65.90 422.80 67.40L422.80 67.40Q422 68.80 421.40 68.90Q420.80 69 419.40 68L419.40 68Q418 66.90 417.80 66.90L417.80 66.90Q417.50 66.90 416.90 66.05Q416.30 65.20 416.30 64.90Q416.30 64.60 415.60 64.40L415.60 64.40Q413.10 63.70 413.10 62.90L413.10 62.90Q413.10 62.30 412.65 61.75Q412.20 61.20 412.15 60.15Q412.10 59.10 412.50 58.60L412.50 58.60Q413.10 58 415.60 59.30L415.60 59.30Q417.50 60.40 419.80 59.40Q422.10 58.40 425.90 54.90L425.90 54.90L427.80 53.10L427.50 49.70Q426.70 35.40 426.40 32.90L426.40 32.90Q426 31 425.90 29.80L425.90 29.80Q425.60 25.90 424.70 25L424.70 25Q424.30 24.50 424.30 24.30Q424.30 24.10 424.90 23.60ZM562.20 32.20L563.40 31.70Q564.70 31.30 565 31.90L565 31.90Q565.10 32.10 566 32.10L566 32.10Q568.10 32.10 570.30 33.60L570.30 33.60Q571.90 34.60 574.25 35.85Q576.60 37.10 576.50 37.45Q576.40 37.80 576.90 38.05Q577.40 38.30 577.60 38.35Q577.80 38.40 578.40 38.65Q579 38.90 579.20 40.05Q579.40 41.20 579.80 42Q580.20 42.80 580.35 44.05Q580.50 45.30 580.75 45.50Q581 45.70 581.30 46.30L581.30 46.30Q581.60 46.70 581.60 46.80Q581.60 46.90 581.20 46.90L581.20 46.90Q580.80 46.80 580.70 47.15Q580.60 47.50 580.90 48.30L580.90 48.30Q581.10 49 580.65 49Q580.20 49 580.40 49.60L580.40 49.60Q580.50 50 580.30 50.15Q580.10 50.30 579.70 49.80L579.70 49.80Q579.50 49.40 579.30 50.10L579.30 50.10Q579 50.70 578.75 50.70Q578.50 50.70 578.30 50.10L578.30 50.10Q578.20 49.70 577.45 49.05Q576.70 48.40 576.20 48.30L576.20 48.30Q575.70 48.20 575 47.40Q574.30 46.60 572.80 45.40L572.80 45.40Q570.20 43.50 567.50 40.10L567.50 40.10Q566.10 38.30 565.20 37.60L565.20 37.60Q564.20 36.80 563.20 34.60L563.20 34.60Q562.40 33.10 561.90 32.75Q561.40 32.40 562.20 32.20L562.20 32.20ZM538.40 24.10Q538.70 23.90 538.70 23.40Q538.70 22.90 539.50 22.85Q540.30 22.80 540.80 23.20L540.80 23.20Q541.40 23.70 542 23.70L542 23.70Q542.90 23.70 544.30 25L544.30 25Q544.90 25.40 545.70 25.80L545.70 25.80Q546.40 26.10 547.70 27.15Q549 28.20 549.95 29.20Q550.90 30.20 550.70 30.50L550.70 30.50Q550.50 30.60 550.45 31.85Q550.40 33.10 550.20 33.85Q550 34.60 549.85 36.85Q549.70 39.10 549.30 40.75Q548.90 42.40 548.70 43.90L548.70 43.90L548.60 45.40L549.80 45.10Q551.80 44.40 552.50 44Q553.20 43.60 553 43.10L553 43.10Q552.90 42.80 552.95 42.65Q553 42.50 553.40 42.70L553.40 42.70Q553.80 42.90 554.90 42.10L554.90 42.10L555.80 41.40L557.40 42.40Q559 43.60 560.50 43.70Q562 43.80 562.75 44.30Q563.50 44.80 564.40 45Q565.30 45.20 565.25 45.60Q565.20 46 566.80 47.60L566.80 47.60Q568 48.60 568.20 49Q568.40 49.40 568.40 50.40L568.40 50.40L568.20 51.40Q568 51.30 567.25 52.25Q566.50 53.20 565.90 54.70L565.90 54.70Q565 56.50 564.85 56.35Q564.70 56.20 564.20 56.70L564.20 56.70L563 58.20Q562.10 59.30 562.30 59.55Q562.50 59.80 564 59.80L564 59.80Q565.70 59.70 566.25 59.50Q566.80 59.30 567.40 59.80L567.40 59.80Q568.30 60.70 571.90 61.10L571.90 61.10Q574 61.20 575.30 62Q576.60 62.80 577.30 63.10L577.30 63.10Q579.70 64.40 580.40 65L580.40 65L581.80 66.20Q582.60 67 582.30 67.15Q582 67.30 582 67.85Q582 68.40 582.30 68.45Q582.60 68.50 582.40 69.30Q582.20 70.10 581.75 70.60Q581.30 71.10 581.40 72L581.40 72Q581.40 72.90 581.25 73.25Q581.10 73.60 580.50 73.50L580.50 73.50Q580.20 73.40 579.65 74.20Q579.10 75 577.50 78.40L577.50 78.40Q576.40 81 575.10 81.30L575.10 81.30Q574.40 81.50 572.90 84.10L572.90 84.10Q572.20 85.20 572.05 85.40Q571.90 85.60 571.70 85.30L571.70 85.30Q571.40 85.10 571.25 85.35Q571.10 85.60 570.60 86.40L570.60 86.40Q569.10 89.60 568.10 90.70L568.10 90.70Q567.40 91.50 566.30 93.50L566.30 93.50Q563.50 98.30 562 98.30L562 98.30Q561.50 98.30 561.40 98.15Q561.30 98 561.30 97.40L561.30 97.40Q561.30 96.40 560.25 95.40Q559.20 94.40 559.20 94.10Q559.20 93.80 558.35 92.80Q557.50 91.80 557.50 91.45Q557.50 91.10 556.80 89.20L556.80 89.20Q554.40 82.90 555.50 81.20L555.50 81.20L555.90 80.40L557.40 81.90Q558.90 83.50 559.20 83.50L559.20 83.50Q560.50 83.50 562.60 74.90L562.60 74.90Q563.30 72.10 563.60 71.30L563.60 71.30Q563.80 70.70 563.75 70.60Q563.70 70.50 562.90 70.50L562.90 70.50Q561.90 70.50 558.40 71.05Q554.90 71.60 553.20 72.20L553.20 72.20L549.70 73.10L548.10 73.60L547.90 82.90Q547.70 92.10 547.40 95.30L547.40 95.30Q546.90 100.60 546.80 105.30L546.80 105.30Q546.70 106.50 546.60 106.50L546.60 106.50Q546.10 105.90 545.90 106.40L545.90 106.40Q545.80 106.70 546 107.30L546 107.30Q546.30 108.10 546 110.70L546 110.70Q545.90 113.30 545.60 113.30L545.60 113.30Q545.40 113.40 545.30 113.30L545.30 113.30Q544.80 113.20 544.80 113.60L544.80 113.60Q544.80 114.50 544.30 116.30L544.30 116.30L544.10 117.30L543.50 116.50Q543 115.80 543 115.50Q543 115.20 542.70 115.20L542.70 115.20Q542.30 115.20 540.95 113.80Q539.60 112.40 539.60 111.90L539.60 111.90Q539.60 111.70 539.10 111.80L539.10 111.80Q538.80 111.90 538.75 111.85Q538.70 111.80 538.80 111.40L538.80 111.40Q538.90 110.70 538.25 110.10Q537.60 109.50 537.60 108.90Q537.60 108.30 537.50 108.05Q537.40 107.80 537.65 106.80Q537.90 105.80 537.60 105.45Q537.30 105.10 537.40 104.90L537.40 104.90Q537.50 104.80 537.30 104.60L537.30 104.60Q537.20 104.50 537.10 104.50L537.10 104.50Q536.60 104.40 536.50 104.25Q536.40 104.10 536.60 103.85Q536.80 103.60 537.30 103.50L537.30 103.50Q537.90 103.40 538.05 102.40Q538.20 101.40 538.50 97.20L538.50 97.20Q538.70 94.40 538.80 93.35Q538.90 92.30 539.40 86.55Q539.90 80.80 540.05 80.60Q540.20 80.40 540.30 78L540.30 78Q540.50 75.80 540.20 75.80L540.20 75.80Q540.20 75.80 539.90 75.80L539.90 75.80Q539.20 76.10 530.70 78.20L530.70 78.20Q529 78.70 526.95 78.15Q524.90 77.60 524.40 77.30L524.40 77.30Q524.10 76.90 522.20 76.45Q520.30 76 519.50 76L519.50 76Q518.40 76 518.30 74.60L518.30 74.60Q518.30 74.40 517.90 73.70Q517.50 73 517.50 72.20L517.50 72.20Q517.60 71.60 517.90 71.50Q518.20 71.40 519.70 71.20L519.70 71.20Q523 70.80 533.60 67.40L533.60 67.40Q539.40 65.50 540.20 65.30L540.20 65.30L541 65.20L541 61.80L541 58.30L540.20 58.10Q539.40 57.80 537.90 56.90Q536.40 56 534.10 54.90L534.10 54.90Q531.10 53.20 531.20 52.30L531.20 52.30Q531.50 52.20 531.10 51.75Q530.70 51.30 531.10 50.60L531.10 50.60Q531.30 50 531.65 49.90Q532 49.80 533.40 49.80L533.40 49.80Q536.20 49.80 539.90 48.50L539.90 48.50L541.30 48L541.20 40.80Q541.10 33.10 540.55 30Q540 26.90 538.70 25.80L538.70 25.80Q538.30 25.50 538.25 24.90Q538.20 24.30 538.40 24.10L538.40 24.10ZM552.10 60.70Q552 59.20 552.35 57.65Q552.70 56.10 552.60 55.50Q552.50 54.90 550.20 55.80L550.20 55.80L547.90 56.70L547.60 60Q547.40 63.40 547.50 63.40L547.50 63.40Q547.60 63.60 551.30 62.60L551.30 62.60L552.30 62.30L552.10 60.70ZM623.10 33.40L623.10 33.40Q623.10 32.80 625.20 33.50L625.20 33.50Q625.80 33.60 626.60 33.90L626.60 33.90Q630.60 35 634.80 38.30L634.80 38.30Q635.20 38.70 636.25 40.70Q637.30 42.70 637.30 43.20Q637.30 43.70 636.85 44.60Q636.40 45.50 636.15 45.50Q635.90 45.50 635.90 46L635.90 46Q635.90 47.30 632.70 51.70L632.70 51.70Q631.20 53.50 631.20 53.85Q631.20 54.20 630.90 54.20Q630.60 54.20 630.60 54.60Q630.60 55 629.75 55.95Q628.90 56.90 628.90 57.30Q628.90 57.70 628.50 57.70L628.50 57.70Q628.40 57.70 628.35 57.75Q628.30 57.80 628.30 57.90L628.30 57.90Q628.40 58.20 627 60.30Q625.60 62.40 625.10 62.50L625.10 62.50Q623.90 62.70 625.80 63.30L625.80 63.30Q626.10 63.40 626.60 63.60L626.60 63.60Q628.40 64.20 629.85 65.15Q631.30 66.10 631.50 66.90L631.50 66.90Q631.80 67.70 631.65 70.85Q631.50 74 631.30 75.60L631.30 75.60Q631 77 630.60 82.20L630.60 82.20Q629.90 94 629.50 95.50L629.50 95.50Q629.20 96.50 629.20 98.10Q629.20 99.70 628.80 100.30L628.80 100.30Q628.10 101.20 627.90 105L627.90 105Q627.60 106.90 627.45 107.45Q627.30 108 626.50 106.85Q625.70 105.70 624.05 104.60Q622.40 103.50 622.40 102.95Q622.40 102.40 621.75 102.10Q621.10 101.80 621.10 100.70Q621.10 99.60 620.60 99.05Q620.10 98.50 620.30 97.30Q620.50 96.10 620.60 95Q620.70 93.90 621.05 92.80Q621.40 91.70 621.25 91.25Q621.10 90.80 621.40 90L621.40 90Q621.90 89.20 622.05 88Q622.20 86.80 621.90 86.60L621.90 86.60Q621.50 86.50 621.80 86.20L621.80 86.20Q622.10 85.70 622.30 78.10L622.30 78.10Q622.40 74.40 622.70 71.80L622.70 71.80Q623 67 622.20 67L622.20 67Q622 67 620 69.50Q618 72 617.70 72.40L617.70 72.40Q616 74.20 615.90 75L615.90 75Q615.90 75.50 615.40 75.90L615.40 75.90Q613.70 78 610.50 85L610.50 85Q610.10 85.70 609.90 85.90L609.90 85.90Q609.60 86.20 609.05 85.75Q608.50 85.30 608.50 84.70L608.50 84.70Q608.50 84 607.40 83.15Q606.30 82.30 606.50 81.90L606.50 81.90Q606.60 81.70 606.15 81.20Q605.70 80.70 605.30 80.70L605.30 80.70Q605 80.70 605.15 80.20Q605.30 79.70 605 79.70Q604.70 79.70 604.70 79.05Q604.70 78.40 604.45 78.20Q604.20 78 604.35 77.70Q604.50 77.40 604.30 77L604.30 77Q603.70 75.90 605.30 73.90L605.30 73.90Q605.90 73.30 606.35 72.20Q606.80 71.10 607.10 71.10Q607.40 71.10 607.55 70.45Q607.70 69.80 608.60 68.80L608.60 68.80Q609.50 68 611.10 65.65Q612.70 63.30 612.70 63.10L612.70 63.10Q612.70 62.80 613.80 61.30L613.80 61.30L615.20 59.60Q615.40 59.30 615.45 58.80Q615.50 58.30 617.20 55.75Q618.90 53.20 619.75 51.65Q620.60 50.10 621.05 49.35Q621.50 48.60 623.35 45.10Q625.20 41.60 625.40 41.10L625.40 41.10Q626.90 38.60 626.80 37.30L626.80 37.30Q626.80 36.60 624.95 35.25Q623.10 33.90 623.10 33.40ZM652.10 28.60L652.10 28.60Q652.10 27.90 652.20 27.70Q652.30 27.50 652.90 27.50L652.90 27.50Q653.60 27.50 654.95 27.95Q656.30 28.40 656.80 28.90L656.80 28.90Q657.30 29.30 657.70 29.30Q658.10 29.30 658.65 29.90Q659.20 30.50 660.70 31.40L660.70 31.40Q663.40 33.30 663.40 34.90L663.40 34.90Q663.40 36 663.70 36.30L663.70 36.30Q664.10 36.70 664.05 37.70Q664 38.70 663.50 39.10L663.50 39.10Q662.80 39.70 663 40.10Q663.20 40.50 662.70 44.20Q662.20 47.90 662.40 48.05Q662.60 48.20 663.35 47.70Q664.10 47.20 665.05 47.35Q666 47.50 668.60 46.65Q671.20 45.80 672.60 45.70L672.60 45.70Q673.60 45.50 674 45.65Q674.40 45.80 675.50 46.70L675.50 46.70Q676.80 48 676.80 48.70Q676.80 49.40 677.55 50.10Q678.30 50.80 677.85 50.95Q677.40 51.10 677.40 52L677.40 52Q677.50 52.80 677.60 52.80L677.60 52.80Q677.80 52.80 678 52.70L678 52.70L678 52.80Q677.60 53.30 677.50 54.60L677.50 54.60L677.40 55.80L676.20 55.80Q673.70 55.90 669.65 56.95Q665.60 58 662.70 59.30L662.70 59.30Q661.90 59.60 661.65 60Q661.40 60.40 661.30 62.30L661.30 62.30Q661.10 64.20 661.40 64.70Q661.70 65.20 663.50 66.20L663.50 66.20Q666.30 67.50 669.60 70.40L669.60 70.40Q670.50 71.30 672.40 72.70Q674.30 74.10 675.95 75.40Q677.60 76.70 680 77.85Q682.40 79 682.40 79.25Q682.40 79.50 683.65 80.10Q684.90 80.70 685.20 80.70L685.20 80.70Q685.90 80.70 688.10 82.60Q690.30 84.50 692.70 87L692.70 87Q695.90 90.40 695.90 90.65Q695.90 90.90 695.45 90.85Q695 90.80 694.20 90.90L694.20 90.90Q693.60 91.10 693.55 91.25Q693.50 91.40 693.70 91.90L693.70 91.90Q694.10 92.70 694.60 93.50L694.60 93.50Q695.20 94.30 695.05 94.50Q694.90 94.70 693.90 94.10L693.90 94.10Q691.60 92.80 691.60 93.80L691.60 93.80Q691.60 94.10 691.10 93.90L691.10 93.90Q690.90 93.80 690.85 93.85Q690.80 93.90 690.90 94.20Q691 94.50 690.90 94.55Q690.80 94.60 690.40 94.50L690.40 94.50Q689.70 94.20 687.50 93.90L687.50 93.90Q684.90 93.40 682.10 92.30L682.10 92.30Q681.70 92.20 681.35 92.05Q681 91.90 680.80 91.90Q680.60 91.90 680.60 91.90L680.60 91.90Q680.40 92.70 678.30 90.80L678.30 90.80Q677.10 89.60 676 88.90Q674.90 88.20 674.20 87.50Q673.50 86.80 673 87.25Q672.50 87.70 672.60 89.20L672.60 89.20L672.80 90.50L671.80 90.50Q670.90 90.50 669.95 91Q669 91.50 668.90 91.90L668.90 91.90Q668.70 92.50 667.20 92.50L667.20 92.50Q666.10 92.50 663.65 93Q661.20 93.50 661 93.80L661 93.80Q661 93.90 660.75 97.90Q660.50 101.90 660.35 102.20Q660.20 102.50 660.20 103.80L660.20 103.80Q660.20 104.90 659.90 104.90L659.90 104.90Q659.80 104.80 659.70 105.05Q659.60 105.30 659.50 105.50L659.50 105.50Q659.40 106.30 659 107.60Q658.60 108.90 658.30 110.70L658.30 110.70L658 112.40L657.80 111.10Q657.50 109.90 656.80 109.65Q656.10 109.40 656.10 109.10Q656.10 108.80 655.50 108.80Q654.90 108.80 654.35 107.55Q653.80 106.30 653.80 105.95Q653.80 105.60 652.80 104.55Q651.80 103.50 652 103.30L652 103.30Q652.20 102.90 652.25 101.95Q652.30 101 652.20 100.70L652.20 100.70Q652 100.20 652 98.50L652 98.50Q652 96.90 651.45 96.15Q650.90 95.40 649.40 94.60L649.40 94.60Q648.10 94 648.10 93.70Q648.10 93.40 646.90 93.10Q645.70 92.80 645.50 91.95Q645.30 91.10 645.10 91.10L645.10 91.10Q644.60 91.10 641.20 96.20L641.20 96.20Q639.50 98.80 638.10 99.70Q636.70 100.60 636.70 100.90Q636.70 101.20 636.30 101.20Q635.90 101.20 636.10 100.30L636.10 100.30Q636.20 99.60 635.95 98.70Q635.70 97.80 635.30 97.80L635.30 97.80Q635.10 97.80 634.95 96.95Q634.80 96.10 634.30 95.60Q633.80 95.10 633.90 93.20L633.90 93.20Q634.20 90.20 635.40 89.70L635.40 89.70Q635.90 89.60 635.90 89.05Q635.90 88.50 636.80 88.40L636.80 88.40Q638.50 88 642.20 82.40L642.20 82.40Q644.10 79.60 646.95 73.85Q649.80 68.10 650.40 66.10L650.40 66.10Q651.20 63.20 650.70 63.10L650.70 63.10Q650.60 63.10 650.30 63.20L650.30 63.20Q649.70 63.40 648.45 63.80Q647.20 64.20 647.20 64.50Q647.20 64.80 646.70 64.60L646.70 64.60Q644.40 63.50 642.10 63.40L642.10 63.40Q641.10 63.30 638.95 61.80Q636.80 60.30 635.70 60.30L635.70 60.30Q635 60.30 634.80 60.20Q634.60 60.10 634.80 59.70L634.80 59.70Q635 59.20 634.40 59Q633.80 58.80 633.95 58.35Q634.10 57.90 634.10 57.70Q634.10 57.50 634.60 56.95Q635.10 56.40 637.25 56.15Q639.40 55.90 640.80 55.50L640.80 55.50Q642 55.10 647.50 53.05Q653 51 653.30 50.90L653.30 50.90Q653.70 50.40 654 38.50L654 38.50Q654 34.20 653.90 33.20Q653.80 32.20 653.30 31.20L653.30 31.20Q652.70 29.80 652.40 29.65Q652.10 29.50 652.10 28.60ZM663.70 76.50Q663 75.70 662.10 75.15Q661.20 74.60 661.10 74.60L661.10 74.60Q660.60 74.60 661 80.40L661 80.40L661.20 83.50L662.70 83.40Q664.20 83.20 665.20 83L665.20 83Q666.10 82.70 666.65 82.60Q667.20 82.50 667.55 82.50Q667.90 82.50 668 82.60Q668.10 82.70 668.10 82.80L668.10 82.80Q668.10 83.80 669.30 83L669.30 83Q669.40 83 669.35 82.80Q669.30 82.60 669 82.20Q668.70 81.80 668.25 81.30Q667.80 80.80 667.10 80.10L667.10 80.10Q664.40 77.30 663.70 76.50ZM652.60 85.90L652.60 82.70Q652.70 81.80 652.70 81.05Q652.70 80.30 652.70 79.90Q652.70 79.50 652.70 79.50L652.70 79.50Q652.20 79.50 649.85 83.25Q647.50 87 647.90 87.20L647.90 87.20Q648 87.30 650.30 86.60L650.30 86.60L652.60 85.90ZM688.80 88.20L688.80 88.20Q688.70 88.10 688.20 88.05Q687.70 88 687.20 88.05Q686.70 88.10 686.70 88.20L686.70 88.20Q686.70 88.50 687.10 88.70L687.10 88.70Q688.10 88.90 688.80 88.20Z"/></svg>