<svg xmlns="http://www.w3.org/2000/svg" xmlns:xlink="http://www.w3.org/1999/xlink" width="500" height="120"><path d="M26.70 29.20L48.20 29.20L47.20 38.20L17.50 38.20Q15.80 38.20 14.90 37.40Q14 36.60 14 35.20L14 35.20Q14 34.30 14.50 33L14.50 33L19 22.10L29.10 22.10L26.70 29.20ZM80.80 37.20L73.40 98.60Q72.70 106.70 64.80 106.70L64.80 106.70L46.70 106.70L47.90 97.10L61.90 97.10Q63 97.10 63.35 96.70Q63.70 96.30 63.90 95L63.90 95L70.80 37.20L51 37.20L52.10 28L94.90 28L93.80 37.20L80.80 37.20ZM29.50 68.90L44.80 68.90L43.80 77.90L28.40 77.90L26.40 94.30Q26.10 95.90 27.50 95.90L27.50 95.90Q28.30 95.90 31 95L31 95L38 92.80Q39.40 92.40 41.20 91.70L41.20 91.70L40 101.80Q31.70 104.90 23.20 106.20L23.20 106.20Q22.70 106.30 21.70 106.30L21.70 106.30Q18.70 106.30 17.20 104.25Q15.70 102.20 16.10 98.80L16.10 98.80L18.70 77.90L8.90 77.90L10 68.90L19.80 68.90L21.20 57.40L11.20 57.40L12.30 48.40L45.90 48.40L44.80 57.40L30.90 57.40L29.50 68.90ZM126.70 29.20L148.20 29.20L147.20 38.20L117.50 38.20Q115.80 38.20 114.90 37.40Q114 36.60 114 35.20L114 35.20Q114 34.30 114.50 33L114.50 33L119 22.10L129.10 22.10L126.70 29.20ZM180.80 37.20L173.40 98.60Q172.70 106.70 164.80 106.70L164.80 106.70L146.70 106.70L147.90 97.10L161.90 97.10Q163 97.10 163.35 96.70Q163.70 96.30 163.90 95L163.90 95L170.80 37.20L151 37.20L152.10 28L194.90 28L193.80 37.20L180.80 37.20ZM129.50 68.90L144.80 68.90L143.80 77.90L128.40 77.90L126.40 94.30Q126.10 95.90 127.50 95.90L127.50 95.90Q128.30 95.90 131 95L131 95L138 92.80Q139.40 92.40 141.20 91.70L141.20 91.70L140 101.80Q131.70 104.90 123.20 106.20L123.20 106.20Q122.70 106.30 121.70 106.30L121.70 106.30Q118.70 106.30 117.20 104.25Q115.70 102.20 116.10 98.80L116.10 98.80L118.70 77.90L108.90 77.90L110 68.90L119.80 68.90L121.20 57.40L111.20 57.40L112.30 48.40L145.90 48.40L144.80 57.40L130.90 57.40L129.50 68.90ZM280.70 62.10L293.30 62.10L292.30 71.20L279.60 71.20L276.80 95.20L267.30 95.20L270.10 71.20L254.10 71.20Q252.30 78.50 249.05 84.85Q245.80 91.20 242.20 95L242.20 95L233.90 90.80Q238.10 85.90 240.70 81.55Q243.30 77.20 244.90 71.20L244.90 71.20L234.50 71.20L235.60 62.10L246.40 62.10L248.40 45.10L239.10 45.10L240.20 36.10L249.40 36.10L251 22.40L260.50 22.40L258.80 36.10L274.30 36.10L276 22.40L285.40 22.40L283.70 36.10L292.80 36.10L291.80 45.10L282.70 45.10L280.70 62.10ZM214.70 32.90L215.80 22.60L234 31.10L232.70 41.50L214.70 32.90ZM271.20 62.10L273.30 45.10L257.70 45.10L255.60 62.10L271.20 62.10ZM219.40 56.60L208.40 56.60L209.50 47.60L223.50 47.60Q226.30 47.60 227.90 49.30Q229.50 51 229.50 54.10L229.50 54.10Q229.50 55.20 229.40 55.80L229.40 55.80L225.80 84.60L225.50 86.30Q229.10 91.60 233.70 94.40L233.70 94.40Q240.30 98.60 249.80 98.20L249.80 98.20L292.70 98.20L289.80 107.40L246.20 107.40Q237.80 107.40 231.10 103.80L231.10 103.80Q226.40 101.30 222.30 96.40L222.30 96.40Q219.40 102.80 214.90 108L214.90 108L204.80 105.40Q214.80 94.90 216.30 83.40L216.30 83.40L219.40 56.60ZM350.20 51.70L353.80 20.70L364.10 20.70L362.80 31.50L389.70 31.50L388.60 40.50L361.70 40.50L360.40 51.70L393.50 51.70L392.40 60.90L358.90 60.90L356.20 83.50L345.90 83.50L348.60 60.90L310.90 60.90L312 51.70L325.80 51.70L328.80 27.60L338.80 27.60L335.70 51.70L350.20 51.70ZM378.30 65L390.30 65Q383.40 75.80 375.05 83.50Q366.70 91.20 356.40 96.30L356.40 96.30Q346.50 101.30 335.25 103.95Q324 106.60 310.60 107.30L310.60 107.30L307.50 98.10Q321.50 97.10 332.35 94.70Q343.20 92.30 352.30 87.70L352.30 87.70Q368.30 79.70 378.30 65L378.30 65ZM325.40 65.10L335.60 65.10Q332.20 74.20 326.10 86.90L326.10 86.90L315.30 86.90Q321 76.70 325.40 65.10L325.40 65.10ZM461.30 20.90L471 20.90L469.40 35.10L493.20 35.10L492 44.50L477.20 44.50Q479.10 59.80 483.30 72.40L483.30 72.40Q487.40 84.50 494.50 95.60L494.50 95.60L485.20 98.60Q478.70 87.70 474.90 74.55Q471.10 61.40 469.30 44.50L469.30 44.50L468.40 44.50L464.30 81.20L474.80 81.20L473.80 89.80L463.40 89.80L461.50 107.30L451.90 107.30L453.80 89.80L444.70 89.80L445.60 81.20L454.70 81.20L458.70 44.50L457.50 44.50Q453.90 59.20 448 72.35Q442.10 85.50 434.40 96L434.40 96L425.40 93.10Q434.40 81.10 439.50 70.10L439.50 70.10Q444.60 59.10 448.80 44.50L448.80 44.50L435.60 44.50L436.80 35.10L459.70 35.10L461.30 20.90ZM427.80 21.30L439.10 21.30Q434.80 30.50 431.10 37.50L431.10 37.50L422.90 107.80L413.30 107.80L419.20 58.60Q418 60.60 415.40 64.60L415.40 64.60L404.30 64.60Q417.80 45.20 427.80 21.30L427.80 21.30Z"/></svg>