<svg xmlns="http://www.w3.org/2000/svg" xmlns:xlink="http://www.w3.org/1999/xlink" width="700" height="119.60000000000001"><path d="M95.60 30.60Q96.40 29.70 96.90 29.70L96.90 29.70Q97.30 29.70 97.40 29.90Q97.50 30.10 97.50 31.20L97.50 31.20Q97.50 32.40 96.65 36.85Q95.80 41.30 95.20 42.40L95.20 42.40Q93.20 47.80 93 48.10L93 48.10Q92.70 48.40 86.80 48.40L86.80 48.40L81.10 48.40L81.10 49.90Q81.40 54.60 82.10 66L82.10 66L82.50 72.70Q83.20 85.10 83.55 90.15Q83.90 95.20 84.70 97.40L84.70 97.40Q85.10 98.60 85.10 99.20L85.10 99.20Q85.10 99.70 84.90 100.20L84.90 100.20Q84 102.90 82.30 103.80L82.30 103.80Q81.10 104.30 79.50 104.30L79.50 104.30Q74.30 104.30 71.70 104Q69.10 103.70 66.70 102.60L66.70 102.60Q63.10 101.10 59.10 98.80L59.10 98.80Q58.10 98.20 56.10 96.60Q54.10 95 54.20 94.90L54.20 94.90L57.10 95.20Q58.90 95.70 61.30 95.70L61.30 95.70Q62.80 95.70 65.20 95.30Q67.60 94.90 68.70 94.50L68.70 94.50Q70.10 94 71.60 93Q73.10 92 73.80 91L73.80 91Q74.60 89.70 75 88.10Q75.40 86.50 75.55 82.95Q75.70 79.40 75.90 71.50L75.90 71.50L76.10 62.30Q76.20 59 75.70 54.60L75.70 54.60L75.10 48.40L72.60 48.30Q67 48.10 51.20 49.30L51.20 49.30Q47.10 49.70 46 49.50L46 49.50L44.80 49.50L43.50 44.60L42.20 39.60L43.80 39.90Q45.20 40.40 46.80 40.60L46.80 40.60Q47.30 40.70 51.60 41.60L51.60 41.60Q55.80 42.50 61 42.50L61 42.50Q67.40 42.50 74 41.20L74 41.20Q80.80 40 84.60 38.70L84.60 38.70Q86.80 37.80 90.50 35.10Q94.20 32.40 95.60 30.60L95.60 30.60ZM36 37.20Q37.30 36.80 38.10 36.80L38.10 36.80Q38.80 36.80 39.05 37.20Q39.30 37.60 39.50 38.50L39.50 38.50Q39.70 40.60 37.70 46.10L37.70 46.10Q36.90 48.70 35.30 51.65Q33.70 54.60 31.80 57.10L31.80 57.10Q31.50 57.60 31.05 58.20Q30.60 58.80 30.60 58.90L30.60 58.90Q30.60 59.10 32.30 60.10L32.30 60.10Q33.70 60.90 34.80 61.90L34.80 61.90Q35.10 62.10 37.70 63.70L37.70 63.70Q39.30 64.60 39.85 65.05Q40.40 65.50 40.80 66.50L40.80 66.50Q41.70 68.30 41.70 69.70L41.70 69.70Q41.70 71.10 40.50 74.90L40.50 74.90Q39.80 77.10 37.80 80.35Q35.80 83.60 34.90 84L34.90 84Q34.60 84 30 81.80L30 81.80Q25.20 79.50 24.30 79.20L24.30 79.20Q22.80 78.60 22.80 78.10L22.80 78.10Q22.80 77.60 24.80 77.40L24.80 77.40Q27 77.30 29.40 76.30Q31.80 75.30 33.70 73.80L33.70 73.80Q35.10 72.90 35.45 72.10Q35.80 71.30 35.60 69.80L35.60 69.80Q35.50 68.80 35.25 68.35Q35 67.90 33.70 66.40L33.70 66.40Q31.50 64 30.50 63.10L30.50 63.10Q25.70 59.50 25.10 59.50L25.10 59.50Q25 59.50 25 59.40L25 59.40Q25 59.10 25.80 58.30L25.80 58.30Q27.40 56.40 28.95 53.05Q30.50 49.70 31.10 46.60L31.10 46.60Q31.30 45.10 31.50 44.25Q31.70 43.40 31.70 43.20L31.70 43.20L31.70 43Q31.70 42.80 31.50 42.85Q31.30 42.90 30.90 43L30.90 43Q30.10 43.10 27.05 44.10Q24 45.10 23 45.60L23 45.60Q22 46.10 21.70 46.50Q21.40 46.90 21.30 48.45Q21.20 50 21.20 52.70L21.20 52.70Q21.20 62.90 21.50 65.80L21.50 65.80Q21.60 66.90 21.80 75.80L21.80 75.80Q22 82.20 22.20 85.10L22.20 85.10L22.80 96.50L23 104.20Q23 105.80 22.85 106.05Q22.70 106.30 21.90 106.30L21.90 106.30Q20.20 106.30 17.70 105.80L17.70 105.80Q14.70 105.50 12.70 105.50L12.70 105.50Q11.20 105.50 10.40 105.20L10.40 105.20L9.60 105.10L10.30 104Q13.50 99.50 14.70 87.80L14.70 87.80Q15.70 79.80 15.70 74.10L15.70 74.10Q15.70 70 15.60 67.20L15.60 67.20Q15.30 57.10 14.95 51.95Q14.60 46.80 13.90 42.20L13.90 42.20Q13.80 41.90 13.70 41Q13.60 40.10 13.80 40L13.80 40Q13.90 39.80 15.90 39.70Q17.90 39.60 20.70 39.60L20.70 39.60Q26.30 39.50 28.50 39.10Q30.70 38.70 36 37.20L36 37.20ZM66.10 56Q67.30 55.50 68.10 55.30Q68.90 55.10 69 55.30L69 55.30Q69.10 55.30 69.10 58.40L69.10 58.40Q69.10 62.70 69 65.40L69 65.40Q69 76 69.10 77.40L69.10 77.40L69.20 78.70Q69.30 79.50 68.95 79.85Q68.60 80.20 67.90 80.20L67.90 80.20Q66.70 80.10 64 79.50L64 79.50L61 78.80L45 79L45 67.60Q45 56.10 45.30 56L45.30 56Q45.50 55.90 46 55.90L46 55.90Q46.60 55.90 47.80 56.40L47.80 56.40Q49.50 57.10 51.45 57.40Q53.40 57.70 56.50 57.70L56.50 57.70Q60 57.70 61.70 57.40Q63.40 57.10 66.10 56L66.10 56ZM63.60 62.20L58.50 62.10Q53.40 62 52.80 61.90L52.80 61.90Q52 61.70 51.70 62Q51.40 62.30 51.35 63.80Q51.30 65.30 51.30 67.80L51.30 67.80L51.30 73.30L53 73.30Q55 73.30 57.85 73.15Q60.70 73 62.50 72.70L62.50 72.70L63.20 72.60L63.30 68L63.60 62.80L63.60 62.20ZM173.90 34.50L174.60 34.30Q175.20 34.10 175.10 36.90L175.10 36.90L175 40.30Q174.90 43 174.90 45.20L174.90 45.20Q174.80 52 174.70 57.20L174.70 57.20L174.50 69.20L173.30 69.10L163.30 68.20L155.80 67.60L153.70 67.40L152.50 67.30L152.60 71.10Q152.70 74.90 153 75.30L153 75.30Q153.40 75.50 154.55 75.60Q155.70 75.70 158 75.70L158 75.70Q159.50 75.70 161.50 75.40Q163.50 75.10 167 74.40L167 74.40Q169.80 73.80 171.85 73.40Q173.90 73 174.60 72.90L174.60 72.90Q175 72.90 174.75 74Q174.50 75.10 174.10 76.80L174.10 76.80L173.20 80.80Q172.80 82.60 172.60 82.60L172.60 82.60Q172.50 82.70 171.50 82.70L171.50 82.70L167.80 82.60Q165.20 82.50 163.30 82.40L163.30 82.40Q154.10 82 153.50 82.20L153.50 82.20L152.50 82.30L152.50 90.20L160.10 90.20Q167.70 90.20 172.40 89.70L172.40 89.70Q182.30 88.90 187.10 87.80L187.10 87.80Q193.30 86.10 193.60 86.40L193.60 86.40L191.40 92.80L189.20 99.30L155.30 99.30Q136.40 99.30 128.15 99.40Q119.90 99.50 115.40 99.80L115.40 99.80Q112.40 100.20 109.60 100.30L109.60 100.30Q109.10 99.80 107.50 95.70L107.50 95.70Q105.60 86.70 105.70 86.60L105.70 86.60L108.20 87.70Q113.30 89.90 116.50 90.30L116.50 90.30Q117.50 90.30 119.90 90.70L119.90 90.70Q120.70 91.10 133.20 91.20L133.20 91.20L145.30 91.30L145.30 87.20L145.10 83.10Q143.40 83.10 138.75 83.45Q134.10 83.80 132.10 84.10L132.10 84.10Q127.90 84.60 127.60 84.60L127.60 84.60Q126.90 84.60 126.60 84.30L126.60 84.30Q126.40 84.10 125.55 81.10Q124.70 78.10 124.20 75.80L124.20 75.80Q124 74.50 124.10 74.40L124.10 74.40L124.30 74.30Q124.80 74.30 125.45 74.55Q126.10 74.80 127 75L127 75Q128.80 75.40 130.40 75.60Q132 75.80 134.60 75.90L134.60 75.90L137.40 76L142.80 76.20L146 76.20L146 68.20L144.80 68.20Q144.10 68.40 139.20 68.80L139.20 68.80Q135.10 69.10 131.65 69.50Q128.20 69.90 126.70 70.20L126.70 70.20Q126.50 70.30 126.35 70.25Q126.20 70.20 126.20 70L126.20 70Q126 69.40 125.60 63.05Q125.20 56.70 125 51.70L125 51.70L124.60 40.90L124.10 36.10L143.80 36.10Q160.50 36.10 165.80 35.70Q171.10 35.30 173.90 34.50L173.90 34.50ZM166.40 42.40L152.50 42.40L152.50 49.40L156.60 49.50Q158.90 49.60 163.60 49.60L163.60 49.60L166.40 49.60L166.40 42.40ZM145 44.40L144.80 43L141.40 43Q138.70 43 135.85 43.10Q133 43.20 132.80 43.40L132.80 43.40Q132.60 43.40 132.50 46.80L132.50 46.80L132.40 50.10L135.20 50L141.70 49.80L145.30 49.60L145.20 47.70Q145.10 45 145 44.40L145 44.40ZM145.80 58.30L145.70 55.30L139.10 55.40L132.50 55.40L132.50 58.20Q132.50 61 132.60 61.40L132.60 61.40L132.70 61.90L139.10 61.90Q145.60 61.90 145.80 61.50L145.80 61.50Q145.90 61.30 145.80 58.30L145.80 58.30ZM165.80 55.60Q165.40 55.40 164.25 55.25Q163.10 55.10 160.40 55.30L160.40 55.30Q153.80 55.70 152.80 55.80L152.80 55.80Q152.60 55.90 152.55 56.65Q152.50 57.40 152.50 58.90L152.50 58.90L152.50 61.80L156.80 61.50L163.80 61.40L166.40 61.40L166.40 58.90Q166.40 57 166.30 56.45Q166.20 55.90 165.80 55.60L165.80 55.60ZM228 34.80Q228.10 34.60 229.10 34.75Q230.10 34.90 232.80 35.40L232.80 35.40Q234.60 35.80 235.55 36.05Q236.50 36.30 236.55 36.45Q236.60 36.60 236.40 37L236.40 37Q235.40 39.30 234.25 42.15Q233.10 45 232.50 46.80L232.50 46.80Q232.20 48.30 231.20 51.20L231.20 51.20L230.50 53.80Q230.50 54 234.30 53.60L234.30 53.60Q236 53.20 240 52.70L240 52.70Q243.90 52.10 243.90 52.20L243.90 52.20Q243.90 52.40 243.70 53.25Q243.50 54.10 243.10 55.20L243.10 55.20Q241.60 60 240.90 62.60L240.90 62.60Q239.90 65.90 239.10 67.95Q238.30 70 235.90 75.30L235.90 75.30Q235 77.10 234.60 78.05Q234.20 79 234.40 79.20L234.40 79.20Q236.10 81.20 239.10 84.35Q242.10 87.50 242.70 87.90L242.70 87.90Q243.80 88.80 243.80 89L243.80 89Q243.20 90.20 241.85 92.70Q240.50 95.20 239.60 96.50L239.60 96.50Q239.30 96.80 239.10 96.80L239.10 96.80Q238.80 96.80 237.80 95.40L237.80 95.40Q236.90 94 234.80 91.50Q232.70 89 232.30 88.80L232.30 88.80L231.30 87.90L230.70 87.20L228.60 90.50Q223.40 98.30 219.80 98.60L219.80 98.60Q218.70 98.60 216.40 97.50Q214.10 96.40 212.80 95.30L212.80 95.30Q212.60 95.10 212.60 95L212.60 95Q212.60 94.80 213.30 94.50L213.30 94.50Q214.60 94 216.45 92.55Q218.30 91.10 219.10 90L219.10 90Q221.60 86.80 223.30 83.30L223.30 83.30Q224.30 80.90 224.40 80.80L224.40 80.80L224.50 80.40Q224.50 80.10 223.30 78.90L223.30 78.90L221.80 77.50Q221.40 77.20 221.05 76.80Q220.70 76.40 220.20 76.10L220.20 76.10Q218.40 74.70 217.05 73.40Q215.70 72.10 215.70 71.70L215.70 71.70Q215.80 71.40 216.20 70.45Q216.60 69.50 217.20 68.20L217.20 68.20Q219.80 62.70 219.80 61.50L219.80 61.50Q219.80 61.10 218.80 61.15Q217.80 61.20 215.10 61.60L215.10 61.60Q213.50 61.80 213.20 61.80L213.20 61.80Q212.50 61.80 212.20 61.55Q211.90 61.30 211.80 60.80L211.80 60.80Q209.80 53.40 210 53.30L210 53.30Q211.10 53.40 212.20 53.80L212.20 53.80Q213.50 54.20 214.85 54.25Q216.20 54.30 218.40 54.30L218.40 54.30L222.30 54.30L223 51.40L225.10 45Q226.40 41.10 227 38.40L227 38.40Q228 34.80 228 34.80L228 34.80ZM233.10 60.80Q233 60.70 232.10 60.70L232.10 60.70Q230.80 60.70 229.30 60.85Q227.80 61 227.60 61.20L227.60 61.20Q227.30 61.40 225.70 65.10Q224.10 68.80 224 69.30L224 69.30Q223.90 69.80 224.20 70.20Q224.50 70.60 225.90 71.90L225.90 71.90Q226.70 72.70 227.30 73.20Q227.90 73.70 228.20 73.80L228.20 73.80Q228.60 73.60 230.95 67.35Q233.30 61.10 233.10 60.80L233.10 60.80ZM248.40 40.90L248.10 38.20Q247.80 36.60 247.80 36.05Q247.80 35.50 248.20 35.60L248.20 35.60Q248.80 35.60 251.40 36.30L251.40 36.30Q254.40 37.10 256.30 37.35Q258.20 37.60 261.60 37.60L261.60 37.60L265.50 37.60Q269 37.60 270.30 37.50Q271.60 37.40 274.60 36.80L274.60 36.80L279 36.10L278.80 37.30Q278.10 41 278.10 55.40L278.10 55.40Q278.10 60.30 278.20 62.30Q278.30 64.30 278.60 64.10L278.60 64.10L280.70 63.80Q282.20 63.60 286.40 62.70L286.40 62.70Q290.20 61.80 290.40 62L290.40 62L289.80 65.50Q287.70 76.10 286.10 94.40L286.10 94.40Q285.80 98.80 284.40 103.50L284.40 103.50L283.80 105.40L280.70 105.40Q277.40 105.40 275.60 104.80L275.60 104.80Q270.70 103.60 270.40 103.30L270.40 103.30Q270.30 103.10 271.70 100.70L271.70 100.70Q275.10 95.50 278.60 84.80L278.60 84.80Q279.80 80.40 280.25 78.05Q280.70 75.70 280.80 73L280.80 73L280.80 69.80L275.90 69.80Q267.30 69.70 252.40 71.90L252.40 71.90Q251.40 72.10 250.50 72.20Q249.60 72.30 249.20 72.20L249.20 72.20Q248.70 72.20 248.55 72.05Q248.40 71.90 248.40 71.30L248.40 71.30Q248.40 70.10 248.90 67.10L248.90 67.10Q249.70 63.20 250.20 59.20L250.20 59.20Q250.90 54.80 251.30 53.50L251.30 53.50Q251.90 52.30 251.90 51.30L251.90 51.30Q252 50.90 252.15 50.70Q252.30 50.50 252.60 50.50L252.60 50.50Q253.20 50.50 255.30 51.20L255.30 51.20L258.60 52Q258.80 52 259.15 52.05Q259.50 52.10 259.50 52.50L259.50 52.50Q259.50 53 258.90 55.30L258.90 55.30Q258.50 56.60 257.90 60.70L257.90 60.70L257.30 64.30L269.60 64.30L269.80 63.40L269.90 53.80L269.90 45.10L268.70 45.10L258.30 44.60Q253.80 44.40 251.35 44.25Q248.90 44.10 248.80 43.90L248.80 43.90Q248.60 43.70 248.50 42.55Q248.40 41.40 248.40 40.90L248.40 40.90ZM242.10 77.90L242.10 77.60Q242.10 77.40 242.20 77.40L242.20 77.40Q242.40 77.40 242.65 77.55Q242.90 77.70 243.40 77.80L243.40 77.80Q244.40 78.20 247.10 78.65Q249.80 79.10 252.20 79.30L252.20 79.30Q255.40 79.50 257.20 79.50L257.20 79.50Q262.80 79.50 268.10 78.50L268.10 78.50L272.90 77.70Q273.60 77.60 274.40 77.50Q275.20 77.40 275.20 77.50L275.20 77.50Q275.20 78.20 274.85 80.10Q274.50 82 274 84.20L274 84.20Q273.80 84.70 272 85L272 85Q270.70 85.30 258.75 86.25Q246.80 87.20 245.10 87.20L245.10 87.20Q244.70 87.20 244.35 86.20Q244 85.20 243.40 82.90L243.40 82.90L242.10 77.90ZM328 34.80Q328.10 34.60 329.10 34.75Q330.10 34.90 332.80 35.40L332.80 35.40Q334.60 35.80 335.55 36.05Q336.50 36.30 336.55 36.45Q336.60 36.60 336.40 37L336.40 37Q335.40 39.30 334.25 42.15Q333.10 45 332.50 46.80L332.50 46.80Q332.20 48.30 331.20 51.20L331.20 51.20L330.50 53.80Q330.50 54 334.30 53.60L334.30 53.60Q336 53.20 340 52.70L340 52.70Q343.90 52.10 343.90 52.20L343.90 52.20Q343.90 52.40 343.70 53.25Q343.50 54.10 343.10 55.20L343.10 55.20Q341.60 60 340.90 62.60L340.90 62.60Q339.90 65.90 339.10 67.95Q338.30 70 335.90 75.30L335.90 75.30Q335 77.10 334.60 78.05Q334.20 79 334.40 79.20L334.40 79.20Q336.10 81.20 339.10 84.35Q342.10 87.50 342.70 87.90L342.70 87.90Q343.80 88.80 343.80 89L343.80 89Q343.20 90.20 341.85 92.70Q340.50 95.20 339.60 96.50L339.60 96.50Q339.30 96.80 339.10 96.80L339.10 96.80Q338.80 96.80 337.80 95.40L337.80 95.40Q336.90 94 334.80 91.50Q332.70 89 332.30 88.80L332.30 88.80L331.30 87.90L330.70 87.20L328.60 90.50Q323.40 98.30 319.80 98.60L319.80 98.60Q318.70 98.60 316.40 97.50Q314.10 96.40 312.80 95.30L312.80 95.30Q312.60 95.10 312.60 95L312.60 95Q312.60 94.80 313.30 94.50L313.30 94.50Q314.60 94 316.45 92.55Q318.30 91.10 319.10 90L319.10 90Q321.60 86.80 323.30 83.30L323.30 83.30Q324.30 80.90 324.40 80.80L324.40 80.80L324.50 80.40Q324.50 80.10 323.30 78.90L323.30 78.90L321.80 77.50Q321.40 77.20 321.05 76.80Q320.70 76.40 320.20 76.10L320.20 76.10Q318.40 74.70 317.05 73.40Q315.70 72.10 315.70 71.70L315.70 71.70Q315.80 71.40 316.20 70.45Q316.60 69.50 317.20 68.20L317.20 68.20Q319.80 62.70 319.80 61.50L319.80 61.50Q319.80 61.10 318.80 61.15Q317.80 61.20 315.10 61.60L315.10 61.60Q313.50 61.80 313.20 61.80L313.20 61.80Q312.50 61.80 312.20 61.55Q311.90 61.30 311.80 60.80L311.80 60.80Q309.80 53.40 310 53.30L310 53.30Q311.10 53.40 312.20 53.80L312.20 53.80Q313.50 54.20 314.85 54.25Q316.20 54.30 318.40 54.30L318.40 54.30L322.30 54.30L323 51.40L325.10 45Q326.40 41.10 327 38.40L327 38.40Q328 34.80 328 34.80L328 34.80ZM333.10 60.80Q333 60.70 332.10 60.70L332.10 60.70Q330.80 60.70 329.30 60.85Q327.80 61 327.60 61.20L327.60 61.20Q327.30 61.40 325.70 65.10Q324.10 68.80 324 69.30L324 69.30Q323.90 69.80 324.20 70.20Q324.50 70.60 325.90 71.90L325.90 71.90Q326.70 72.70 327.30 73.20Q327.90 73.70 328.20 73.80L328.20 73.80Q328.60 73.60 330.95 67.35Q333.30 61.10 333.10 60.80L333.10 60.80ZM348.40 40.90L348.10 38.20Q347.80 36.60 347.80 36.05Q347.80 35.50 348.20 35.60L348.20 35.60Q348.80 35.60 351.40 36.30L351.40 36.30Q354.40 37.10 356.30 37.35Q358.20 37.60 361.60 37.60L361.60 37.60L365.50 37.60Q369 37.60 370.30 37.50Q371.60 37.40 374.60 36.80L374.60 36.80L379 36.10L378.80 37.30Q378.10 41 378.10 55.40L378.10 55.40Q378.10 60.30 378.20 62.30Q378.30 64.30 378.60 64.10L378.60 64.10L380.70 63.80Q382.20 63.60 386.40 62.70L386.40 62.70Q390.20 61.80 390.40 62L390.40 62L389.80 65.50Q387.70 76.10 386.10 94.40L386.10 94.40Q385.80 98.80 384.40 103.50L384.40 103.50L383.80 105.40L380.70 105.40Q377.40 105.40 375.60 104.80L375.60 104.80Q370.70 103.60 370.40 103.30L370.40 103.30Q370.30 103.10 371.70 100.70L371.70 100.70Q375.10 95.50 378.60 84.80L378.60 84.80Q379.80 80.40 380.25 78.05Q380.70 75.70 380.80 73L380.80 73L380.80 69.80L375.90 69.80Q367.30 69.70 352.40 71.90L352.40 71.90Q351.40 72.10 350.50 72.20Q349.60 72.30 349.20 72.20L349.20 72.20Q348.70 72.20 348.55 72.05Q348.40 71.90 348.40 71.30L348.40 71.30Q348.40 70.10 348.90 67.10L348.90 67.10Q349.70 63.20 350.20 59.20L350.20 59.20Q350.90 54.80 351.30 53.50L351.30 53.50Q351.90 52.30 351.90 51.30L351.90 51.30Q352 50.90 352.15 50.70Q352.30 50.50 352.60 50.50L352.60 50.50Q353.20 50.50 355.30 51.20L355.30 51.20L358.60 52Q358.80 52 359.15 52.05Q359.50 52.10 359.50 52.50L359.50 52.50Q359.50 53 358.90 55.30L358.90 55.30Q358.50 56.60 357.90 60.70L357.90 60.70L357.30 64.30L369.60 64.30L369.80 63.40L369.90 53.80L369.90 45.10L368.70 45.10L358.30 44.60Q353.80 44.40 351.35 44.25Q348.90 44.10 348.80 43.90L348.80 43.90Q348.60 43.70 348.50 42.55Q348.40 41.40 348.40 40.90L348.40 40.90ZM342.10 77.90L342.10 77.60Q342.10 77.40 342.20 77.40L342.20 77.40Q342.40 77.40 342.65 77.55Q342.90 77.70 343.40 77.80L343.40 77.80Q344.40 78.20 347.10 78.65Q349.80 79.10 352.20 79.30L352.20 79.30Q355.40 79.50 357.20 79.50L357.20 79.50Q362.80 79.50 368.10 78.50L368.10 78.50L372.90 77.70Q373.60 77.60 374.40 77.50Q375.20 77.40 375.20 77.50L375.20 77.50Q375.20 78.20 374.85 80.10Q374.50 82 374 84.20L374 84.20Q373.80 84.70 372 85L372 85Q370.70 85.30 358.75 86.25Q346.80 87.20 345.10 87.20L345.10 87.20Q344.70 87.20 344.35 86.20Q344 85.20 343.40 82.90L343.40 82.90L342.10 77.90ZM486.30 37.40Q487.40 36.90 487.60 36.90Q487.80 36.90 487.70 37.40L487.70 37.40L485.40 48.30Q481.90 64.80 478.70 73.50L478.70 73.50Q477.70 76.10 474.90 81.80L474.90 81.80Q470.50 93.10 468.60 95.90Q466.70 98.70 465.20 99.10L465.20 99.10Q463.70 99.30 458.25 98.80Q452.80 98.30 451.60 97.80L451.60 97.80L450.80 97.50L452.70 96.20Q454.40 95.20 456.90 92.90Q459.40 90.60 461.20 88.50L461.20 88.50Q466.20 79.60 470.90 67.90L470.90 67.90Q472.30 64.30 473 61.95Q473.70 59.60 474.40 56L474.40 56Q474.50 55 474.75 54Q475 53 475 52.80L475 52.80L475 52.50Q475 52.20 474.30 52L474.30 52Q473.40 51.80 470.10 52L470.10 52Q468.50 52.20 459.90 52.40L459.90 52.40L453 52.50L452.40 54.40Q450.90 59.40 449.25 63.05Q447.60 66.70 444.60 71.80L444.60 71.80Q438.70 82.60 434.90 86.20L434.90 86.20Q431.90 88.90 421 94.80L421 94.80Q414.40 98.10 413.20 98.10L413.20 98.10Q412.30 98.10 411 96.30Q409.70 94.50 407.50 90.10L407.50 90.10Q406.10 87.40 405.15 85.25Q404.20 83.10 404.40 83L404.40 83Q404.40 82.80 406.20 83.60L406.20 83.60Q408.90 84.70 410.55 85Q412.20 85.30 415.30 85.30L415.30 85.30Q417.30 85.30 418.60 84.90Q419.90 84.50 422.90 83L422.90 83Q428.10 80.30 430.20 78.40L430.20 78.40Q431.90 76.80 436.05 70.85Q440.20 64.90 443.30 59.60L443.30 59.60Q444.10 58.20 445.30 55.55Q446.50 52.90 446.50 52.50L446.50 52.50Q446.50 52.40 445.40 52.40L445.40 52.40Q442.20 52.40 439.90 52.60Q437.60 52.80 435.30 53.20L435.30 53.20Q433.10 53.70 431.80 53.90Q430.50 54.10 430.25 54.05Q430 54 429.90 53.60L429.90 53.60Q429.20 51.50 427.80 46.60Q426.40 41.70 426.50 41.60L426.50 41.60L436.80 42.40Q451.80 43.70 457.60 43.70L457.60 43.70Q460.10 43.70 461.40 43.60L461.40 43.60Q469.30 43.50 475.30 41.80L475.30 41.80Q477.80 41.20 479.80 40.50Q481.80 39.80 481.70 39.60L481.70 39.60Q481.70 39.20 486.30 37.40L486.30 37.40ZM543 26.30L548.20 25.80Q550.10 25.70 551.95 25.55Q553.80 25.40 554.10 25.40L554.10 25.40L554.70 25.40L553 28.70L553 33.20L552.80 37.70L557.10 37.50Q563.40 37.40 569.90 36.50L569.90 36.50L572.10 36.20L572.10 36.60Q572.10 38.60 571.70 42.60L571.70 42.60L571.40 48.20L575 48.10Q580.80 47.80 583.45 47.55Q586.10 47.30 588 46.60L588 46.60Q588.20 46.60 588.25 46.75Q588.30 46.90 588.20 47.30L588.20 47.30Q587.70 49.30 586.95 51.65Q586.20 54 585.70 55.30L585.70 55.30L585.20 56.40L583.10 56.40Q581.60 56.40 577.80 55.80L577.80 55.80Q573 55 571.90 55L571.90 55Q571.20 55 571 55.20L571 55.20Q570.70 55.40 570.55 56.45Q570.40 57.50 570.40 59.70L570.40 59.70L570.30 63.80L552.40 63.80L552.40 66.50Q552.40 69.60 553.10 78.20L553.10 78.20Q554.20 93.90 554.30 100.60L554.30 100.60Q554.30 103.90 554.25 104.45Q554.20 105 553.80 105.40L553.80 105.40Q553.50 105.70 552.50 105.70L552.50 105.70Q552 105.70 543.90 103.80Q535.80 101.90 535 101.60L535 101.60L534.90 101.40Q534.90 101.10 536 101L536 101Q538.60 99.70 539.90 98.80L539.90 98.80Q541.80 97.50 542.35 96.95Q542.90 96.40 543.50 95.50L543.50 95.50Q544.70 93.60 544.80 92.60L544.80 92.60Q545 91.90 545.30 80.40L545.30 80.40L545.80 66.50L545.90 63.80L541.50 63.90Q538.90 63.90 537.35 64.10Q535.80 64.30 533.60 64.70L533.60 64.70Q531.90 64.90 530.95 65.05Q530 65.20 529.80 65.20L529.80 65.20Q529.70 65.10 529.45 64.20Q529.20 63.30 529 62.20L529 62.20Q528.70 61.20 528.45 60.30Q528.20 59.40 528 59L528 59Q528 58.60 530.60 58.60L530.60 58.60L535 58.70Q536.90 58.80 540.60 58.80L540.60 58.80Q543.40 58.80 544 58.70L544 58.70L545.90 58.60L545.80 56.90Q545.80 55.70 545.60 55.30Q545.40 54.90 544.70 54.75Q544 54.60 541.90 54.60L541.90 54.60Q539.10 54.60 534.90 54.85Q530.70 55.10 528.50 55.30L528.50 55.30Q527.90 55.50 522.30 56.10L522.30 56.10Q517 56.40 516.60 56.60L516.60 56.60L516.40 56.60Q516.10 56.60 515.70 55.70L515.70 55.70Q515.10 54.40 514.10 51.50Q513.10 48.60 513.20 48.40L513.20 48.40Q513.50 48.20 517.10 48.60L517.10 48.60Q522.90 48.80 532.15 49Q541.40 49.20 545.50 49.20L545.50 49.20Q545.50 47.70 545.30 46.50L545.30 46.50L545.20 44L543.90 43.70Q541 43.50 536.40 44.60L536.40 44.60Q533.20 45.20 533.10 45L533.10 45Q532.80 44 532.40 42Q532 40 531.90 38.80L531.90 38.80Q531.90 38.60 533.50 38.55Q535.10 38.50 538.40 38.50L538.40 38.50L545.10 38.50Q544.90 37.30 544.40 34.30Q543.90 31.30 543.30 28.60L543.30 28.60Q543.20 27.60 543.10 27.05Q543 26.50 543 26.30L543 26.30ZM562.80 43Q562.80 42.80 557.90 42.80L557.90 42.80Q553.20 42.80 553.10 43L553.10 43Q553 43.10 552.90 43.95Q552.80 44.80 552.80 45.80L552.80 45.80L552.80 48.60L556.20 48.60L559.10 48.60Q562.50 48.60 563 48.30L563 48.30Q563.30 48.20 563.35 47.60Q563.40 47 563.30 45.50L563.30 45.50Q563.20 45.10 563.10 44.05Q563 43 562.80 43L562.80 43ZM562.20 54.50Q559.60 54.20 556.80 54.20L556.80 54.20Q555.10 54.20 554 54.40L554 54.40Q553.30 54.40 552.90 54.55Q552.50 54.70 552.60 54.90L552.60 54.90L552.60 56.90L552.60 58.50L556.60 58.50Q560.60 58.40 561.80 57.90L561.80 57.90L562.90 57.50L563 56.30L563 55.70Q563 55.10 562.90 54.90Q562.80 54.70 562.20 54.50L562.20 54.50ZM522.30 68L522.90 67.20Q523 67.20 524.30 68.30L524.30 68.30Q524.80 68.80 525.65 69.50Q526.50 70.20 527.30 71L527.30 71L528.80 72.30L530.60 73.80Q535 77.90 535.40 78L535.40 78Q536 78.40 535.15 78.60Q534.30 78.80 530.80 79L530.80 79L528.90 79.20Q528.70 79.30 524.60 79.45Q520.50 79.60 519 79.60L519 79.60Q519 78.90 520.60 73.40L520.60 73.40Q521.50 70.70 521.70 69.70L521.70 69.70Q521.80 69.50 521.95 69.05Q522.10 68.60 522.30 68L522.30 68ZM567.50 71Q569.80 68.70 570.20 68.50L570.20 68.50Q570.40 68.50 571.25 69.70Q572.10 70.90 572.80 72.40L572.80 72.40Q573.20 73.20 575 76.20L575 76.20Q575.40 76.80 575.65 77.25Q575.90 77.70 575.90 77.90L575.90 77.90Q575.70 78.10 572.15 78.70Q568.60 79.30 565.70 79.60L565.70 79.60Q560.90 80 560.80 80.20L560.80 80.20Q560.50 80.20 563.05 81.70Q565.60 83.20 567.90 84.40L567.90 84.40Q570.20 85.50 574.80 86.80L574.80 86.80Q576 87.10 577 87.25Q578 87.40 579.40 87.40L579.40 87.40Q585 87.40 587.40 87L587.40 87L589.40 86.80Q589.50 86.90 585.70 90.65Q581.90 94.40 580.70 95.40L580.70 95.40Q576.60 98.40 574.70 98.40L574.70 98.40Q573.70 98.40 572.50 97.40Q571.30 96.40 567 92.30L567 92.30Q563.20 88.40 561.50 86.20Q559.80 84 558.40 81.10L558.40 81.10Q557.20 78.70 557.20 78.10L557.20 78.10Q557.20 77.70 557.70 77.40Q558.20 77.10 559 76.90L559 76.90Q560.60 76.40 563.05 74.70Q565.50 73 567.50 71L567.50 71ZM535 83.20Q536.30 82.70 536.60 82.70L536.60 82.70Q536.90 82.70 536.90 82.90L536.90 82.90Q536.90 83 536.20 84.40L536.20 84.40Q534.80 87.10 533.35 88.65Q531.90 90.20 528.50 92.40L528.50 92.40Q525.60 94.40 522.10 96.25Q518.60 98.10 517.40 98.30L517.40 98.30L517 98.30Q516.60 98.30 516.40 98.05Q516.20 97.80 516 97.20L516 97.20Q515.70 96.30 514.90 94.70L514.90 94.70L513.50 91.60L511.50 86.80Q511.50 86.60 511.80 86.55Q512.10 86.50 512.70 86.60L512.70 86.60Q514.30 86.80 515.90 86.80L515.90 86.80Q517.50 86.80 519.30 86.60L519.30 86.60Q522.70 86.20 523.80 86L523.80 86Q527.40 85.60 535 83.20L535 83.20ZM657.70 30.60Q654.50 31.10 654.30 31.20Q654.10 31.30 655.35 35.25Q656.60 39.20 657.05 41.35Q657.50 43.50 657.50 46.30L657.50 46.30L657.50 49.20L652.20 49Q647.10 49 642.55 48.50Q638 48 638 48.10Q638 48.20 638.30 49.20L638.30 49.20Q639.70 51.70 641.30 57.30L641.30 57.30L641.50 58.40L643.10 58.40Q644.80 58.20 646.45 57.75Q648.10 57.30 651.75 56.70Q655.40 56.10 655.65 56.35Q655.90 56.60 655.55 57.60Q655.20 58.60 654.50 59.60L654.50 59.60Q652.70 61.90 647.50 65.60Q642.30 69.30 639.20 70.50L639.20 70.50L637.60 71L635 70Q632.20 69.10 630.85 68.30Q629.50 67.50 629.25 67.70Q629 67.90 631.45 72.35Q633.90 76.80 634.70 77.45Q635.50 78.10 636.10 78.10Q636.70 78.10 640.50 76.60Q644.30 75.10 646.05 74.05Q647.80 73 649.40 71.70L649.40 71.70L653.10 68.40Q655.70 66.30 655.80 66.30Q655.90 66.30 655.90 74.20L655.90 74.20L655.90 81.80L640.30 80.50Q640.20 80.50 640.20 80.90L640.20 80.90L641.10 85.60Q642 89.70 642.15 89.80Q642.30 89.90 648.90 89L648.90 89Q651.10 88.80 653.60 88.60L653.60 88.60L655.90 88.40L655.90 89Q655.90 91.80 654.70 97.20L654.70 97.20Q654.30 100 653.70 100.55Q653.10 101.10 649.40 103L649.40 103L645.80 104.80L648.30 105Q650.80 105.50 652.55 106.05Q654.30 106.60 656.50 106.75Q658.70 106.90 661 107.25Q663.30 107.60 663.40 107.45Q663.50 107.30 663.30 105.35Q663.10 103.40 663.10 96L663.10 96L663.10 88.60L664 88.40Q665 88.10 667.50 88.10L667.50 88.10Q674 88.10 674.40 86.10L674.40 86.10L674.90 83Q675.40 80.30 675.25 79.80Q675.10 79.30 673.95 79.65Q672.80 80 669.90 80.45Q667 80.90 665 80.90L665 80.90L662.20 80.90L662.20 70Q662.40 59.40 662.70 58.40L662.70 58.40L662.90 57.50L663.50 58.20Q664.30 58.90 667.30 63.30L667.30 63.30Q671.30 69.10 673.60 72.10Q675.90 75.10 679.60 78.80L679.60 78.80Q684 83.30 685.40 83.30L685.40 83.30Q686 83.30 688.25 81.90Q690.50 80.50 691.60 79.10L691.60 79.10Q694.60 76.30 696.60 72.90Q698.60 69.50 698.60 67.20L698.60 67.20L698.60 66.10L695.30 68.20Q691.80 70.20 690.20 71.15Q688.60 72.10 687.50 71.90L687.50 71.90Q684.40 71.40 676.60 65.40L676.60 65.40Q674.70 63.70 670.75 60Q666.80 56.30 666.80 56.10L666.80 56.10L674.40 55.90Q682.10 55.40 683.20 55.10L683.20 55.10L684.20 55.10L687 46.60Q686.70 46.60 683 47.30L683 47.30Q676.80 48.50 670.75 48.85Q664.70 49.20 664.25 48.70Q663.80 48.20 664 42L664 42Q664.30 37.10 664.50 35Q664.70 32.90 665.50 31.60L665.50 31.60L665.90 30.10Q665.90 30.10 663 30.25Q660.10 30.40 657.70 30.60L657.70 30.60ZM628.10 34.10Q628.10 34.30 627.20 35.20L627.20 35.20L624.60 38.50Q621.40 42.70 617.20 46.50Q613 50.30 610 52.10L610 52.10Q608.70 52.80 606.70 53.40Q604.70 54 604.70 54.25Q604.70 54.50 607.10 57.15Q609.50 59.80 610.25 60.25Q611 60.70 611.20 60.70Q611.40 60.70 612.80 59.40L612.80 59.40Q617.60 55.10 617.95 55.60Q618.30 56.10 618.70 66.30Q619.10 76.50 618.60 80.30L618.60 80.30Q617.90 87.90 616.80 93.90L616.80 93.90Q616 96.50 615.25 97.75Q614.50 99 613.70 100.40L613.70 100.40L613 102L614.80 101.80Q617 101.80 621.40 101.50L621.40 101.50L626 101.50L625.80 97.20Q625.10 89.70 624.60 79.10L624.60 79.10L624.10 65.20Q623.90 58.90 623.90 54L623.90 54L623.90 49.80L625.80 48.50Q627.20 47.30 630.20 44.15Q633.20 41 633.20 40.80Q633.20 40.60 633.90 39.90Q634.60 39.20 634.25 38.50Q633.90 37.80 632 36.40L632 36.40Q631.10 35.90 629.90 34.80L629.90 34.80Q629.20 34.10 628.65 33.85Q628.10 33.60 628.10 34.10L628.10 34.10Z"/></svg>