<svg xmlns="http://www.w3.org/2000/svg" xmlns:xlink="http://www.w3.org/1999/xlink" width="1064.74609375" height="100.48828125"><path d="M2.05 96.62L2.05 86.76L5.27 86.76L5.27 14.69L2.05 14.69L2.05 5.02L46.88 5.02L46.88 14.69L43.65 14.69L43.65 86.76L46.88 86.76L46.88 96.62L43.65 96.62L43.65 105.02L29.20 105.02L29.20 96.62L2.05 96.62ZM50.78 34.12L50.78 24.36L56.05 24.36L50.78 5.02L65.92 5.02L71.29 24.36L81.35 24.36L86.72 5.02L101.86 5.02L96.58 24.36L101.86 24.36L101.86 34.12L84.08 34.12L84.08 57.46L104.39 57.46L104.39 67.32L88.38 67.32L104.39 105.02L87.89 105.02L76.37 77.68L64.75 105.02L48.24 105.02L64.26 67.32L48.24 67.32L48.24 57.46L68.55 57.46L68.55 34.12L50.78 34.12ZM29.20 32.27L29.20 14.69L19.63 14.69L19.63 32.27L29.20 32.27ZM29.20 59.61L29.20 42.03L19.63 42.03L19.63 59.61L29.20 59.61ZM29.20 86.76L29.20 69.28L19.63 69.28L19.63 86.76L29.20 86.76ZM173.63 59.51L158.20 59.51L159.38 42.32L159.38 5.02L174.80 5.02L174.80 9.61L179.10 5.12L191.21 5.02L191.21 5.02L200.20 5.02L206.25 5.02L206.25 59.32L193.46 59.32Q193.07 56.58 190.77 54.63Q188.48 52.68 185.16 52.38L185.16 52.38L185.16 49.45L191.21 49.45L191.21 45.35L174.61 45.35L173.63 59.51ZM112.99 60.49L112.99 5.12L128.32 5.12L128.32 9.61L132.81 5.12L154.98 5.02L154.98 60.49L139.65 60.49L139.65 57.46L128.32 57.46L128.32 60.49L112.99 60.49ZM139.65 27.19L139.65 13.22L128.32 13.22L128.32 27.19L139.65 27.19ZM174.80 20.84L191.21 20.84L191.21 13.22L174.80 13.22L174.80 20.84ZM174.80 36.76L191.21 36.76L191.21 29.43L174.80 29.43L174.80 36.76ZM139.65 48.87L139.65 35.78L128.32 35.78L128.32 48.87L139.65 48.87ZM108.50 105.02L108.50 96.04L112.89 96.04L112.89 63.91L128.71 63.91L128.71 69.67L133.30 63.91L206.35 63.91L206.35 96.04L210.94 96.04L210.94 105.02L108.50 105.02ZM139.36 96.04L139.36 72.11L128.71 72.11L128.71 96.04L139.36 96.04ZM154.59 96.04L165.33 96.04L165.33 72.11L154.59 72.11L154.59 96.04ZM180.47 96.04L190.63 96.04L190.63 72.11L180.47 72.11L180.47 96.04ZM229.59 28.55L216.02 28.55L216.02 18.01L229.59 18.01L229.59 5.02L245.21 5.02L245.21 18.01L257.71 18.01L257.71 28.55L245.21 28.55L245.21 43.79L260.84 43.79L260.84 54.34L250.78 54.34L250.78 66.54L259.47 66.54L259.47 77.19L250.78 77.19L250.78 91.45L253.61 94.47L315.14 94.77L315.14 105.02L244.34 105.02L244.34 104.82L243.95 105.02L228.52 88.81L227.83 105.02L213.28 105.02L215.23 57.36L229.79 57.36L229.30 68.69L235.06 74.84L235.06 54.34L212.89 54.34L212.89 43.79L229.59 43.79L229.59 28.55ZM298.24 21.43L264.26 21.43L264.26 10.78L298.24 10.78L309.86 10.78L313.87 10.78L313.87 52.68L298.24 52.68L298.24 52.68L279.88 52.68L279.88 77.58L315.14 77.58L315.14 81.88Q311.43 82.17 308.59 84.46Q305.76 86.76 305.37 89.88L305.37 89.88L279.88 89.88L273.83 89.88L264.26 89.88L264.26 42.91L264.45 42.91L279.88 42.91L279.98 42.91L279.98 48.28L284.28 42.91L298.24 42.91L298.24 21.43ZM327.05 46.33L327.05 36.46L418.26 36.46L418.26 46.33L356.84 95.06L423.54 95.06L423.54 98.87Q419.43 99.26 417.53 100.53Q415.63 101.80 415.23 105.02L415.23 105.02L329.98 105.02L329.98 95.06L392.68 46.33L327.05 46.33ZM321.58 23.87L321.58 14.10L339.45 14.10L339.55 5.31L355.08 5.31L354.98 14.10L392.87 14.10L392.97 5.31L408.59 5.31L408.50 14.10L423.54 14.10L423.54 23.87L408.40 23.87L408.30 32.66L392.68 32.66L392.77 23.87L354.88 23.87L354.79 32.66L339.16 32.66L339.26 23.87L321.58 23.87ZM443.07 105.02L427.64 105.02L429.49 71.72L429.49 29.92L444.92 29.92L444.92 33.93L448.44 29.92L470.02 29.92L470.02 5.02L486.91 5.02L486.91 11.95L529.98 11.95L529.98 21.82L486.91 21.82L486.91 29.92L528.03 29.92L528.03 65.76L512.60 65.76L512.60 63.71L444.92 63.71L444.92 71.72L443.07 105.02ZM444.92 39.69L444.92 53.85L512.60 53.85L512.60 39.69L444.92 39.69ZM610.06 15.37L636.43 15.37L636.43 23.28L636.43 26.02L636.43 100.14L634.96 100.14L621.88 100.14L620.31 100.14Q619.92 97.30 617.58 95.30Q615.23 93.30 612.01 93.01L612.01 93.01L612.01 89.98L621.88 89.98L621.88 26.02L610.06 26.02L610.06 105.02L595.70 105.02L595.70 26.02L583.79 26.02L583.79 100.14L569.34 100.14L569.34 26.02L569.34 23.28L569.34 15.37L583.79 15.37L583.79 21.23L588.57 15.37L595.70 15.37L595.70 5.02L610.06 5.02L610.06 15.37ZM561.62 105.02L547.17 105.02L552.05 80.51L552.05 5.02L566.60 5.02L566.60 82.07L561.62 105.02ZM534.08 85.78L534.08 15.18L548.54 15.18L548.54 85.78L534.08 85.78ZM640.53 15.96L640.53 5.31L742.87 5.31L742.87 15.96L701.17 15.96L701.17 49.26L739.75 49.26L739.75 59.90L701.17 59.90L701.17 94.38L742.87 94.38L742.87 105.12L640.53 105.12L640.53 94.38L650 94.38L650 36.17L664.94 36.17L664.94 94.38L683.98 94.38L683.98 15.96L640.53 15.96ZM746.97 45.94L746.97 36.17L780.96 36.17L780.96 45.94L769.14 45.94L769.14 60.49L780.96 60.49L780.96 70.06L769.14 70.06L769.14 93.40L780.96 93.40L780.96 97.01Q777.25 97.40 774.66 99.60Q772.07 101.80 771.68 105.02L771.68 105.02L769.14 105.02L755.18 105.02L755.18 93.40L755.18 70.06L746.97 70.06L746.97 60.49L755.18 60.49L755.18 45.94L746.97 45.94ZM784.47 22.21L792.48 22.21L788.09 5.02L803.61 5.02L808.01 22.21L823.93 22.21L828.52 5.02L843.85 5.02L839.45 22.21L842.38 22.21L847.46 22.21L847.46 63.13L833.20 63.13L833.20 60L831.64 60L831.64 96.04L849.32 96.04L849.32 98.77Q846.39 98.96 844.38 100.72Q842.38 102.48 842.09 105.02L842.09 105.02L831.64 105.02L829.79 105.02L817.19 105.02L817.19 60L816.11 60L802.34 105.02L786.91 105.02L800.59 60L798.73 60L798.73 63.13L784.47 63.13L784.47 31.97L784.47 22.21ZM765.43 17.32L780.96 17.32L780.96 27.19L746.97 27.19L746.97 17.32L754.88 5.02L773.34 5.02L765.43 17.32ZM833.20 31.97L798.73 31.97L798.73 50.23L833.20 50.23L833.20 31.97ZM854.49 58.05L854.49 5.02L870.12 5.02L870.12 10.88L875.39 5.02L954.59 5.02L954.59 58.05L939.36 58.05L939.36 55.41L913.18 55.41L913.18 62.64L951.17 62.64L951.17 71.04L913.18 71.04L913.18 76.11L955.86 76.11L955.86 84.51L853.42 84.51L853.42 76.11L896.78 76.11L896.78 71.04L859.77 71.04L859.77 62.64L896.78 62.64L896.78 55.41L870.12 55.41L870.12 58.05L854.49 58.05ZM870.12 47.79L896.78 47.79L896.78 13.32L870.12 13.32L870.12 47.79ZM939.36 47.79L939.36 13.32L913.18 13.32L913.18 47.79L939.36 47.79ZM886.33 18.11L892.58 43.11L880.96 43.11L874.61 18.11L886.33 18.11ZM923.83 18.11L935.55 18.11L929.20 43.11L917.48 43.11L923.83 18.11ZM858.69 87.83L873.05 87.83L867.68 105.02L853.52 105.02L858.69 87.83ZM894.34 87.83L899.61 105.02L885.35 105.02L879.98 87.83L894.34 87.83ZM920.51 87.83L925.78 105.02L911.82 105.02L906.64 87.83L920.51 87.83ZM950.98 87.83L956.25 105.02L941.89 105.02L936.72 87.83L950.98 87.83ZM982.81 28.55L987.40 28.55L987.40 105.02L972.27 105.02L972.27 48.96L960.35 48.96L975 5.02L990.63 5.02L982.81 28.55ZM1039.36 35.88L1054.10 35.88L1062.40 100.53L1047.66 100.53L1046.19 88.81L1034.77 88.81L1034.77 105.02L1018.36 105.02L1018.36 88.81L1007.13 88.81L1005.57 100.53L990.72 100.53L999.12 35.88L1013.87 35.88L1008.40 79.14L1018.36 79.14L1018.36 28.55L990.04 28.55L990.04 16.45L1018.36 16.45L1018.36 5.02L1034.77 5.02L1034.77 16.45L1062.70 16.45L1062.70 28.55L1034.77 28.55L1034.77 79.14L1044.82 79.14L1039.36 35.88Z"/></svg>