<svg xmlns="http://www.w3.org/2000/svg" xmlns:xlink="http://www.w3.org/1999/xlink" width="460" height="130"><path d="M45 29.20L65.70 29.20L60.60 45.50L87.40 45.50L86.10 55.30L57.60 55.30L43.70 100.60L25 100.60L40.40 55.30L33.20 55.30L34.50 45.50L43.70 45.50L48 32.90L45 29.20ZM32.90 29.10L31.20 41.20L22.90 100.80L4.60 100.80L12.40 44.50L6.30 45.50L8 33.40L32.90 29.10ZM83.40 87.50L81.60 100.60L53.10 100.60L59.10 58.20L76.40 58.20L71.70 91.30L79.10 91.30L83.40 87.50ZM86.20 42.20L72 42.20L70.60 31L84.90 31L86.20 42.20ZM115 100.90L135.90 87.20L123.10 76.30L123.80 71.50L140 71.50L148.50 79L158.60 72.40L159 69.50L124.10 69.50L125.40 60.20L176 60.20L173.50 78.30L158.40 87.60L173.80 100.90L152 100.90L145.60 95.50L136.70 100.90L115 100.90ZM177.80 57.60L157.60 57.60L160 40.20L146.30 40.20L142.60 57.60L126 57.60L130.90 34.40L127.80 30.80L176.90 30.80L174.60 47.60L176.40 47.60L179.70 43.80L177.80 57.60ZM121 93.20L96.30 99.10L102.20 57.40L96.30 57.40L97.60 47.90L120.20 47.90L115 85.30L122.40 83.30L121 93.20ZM102.70 30.80L118 30.80L120.90 44.10L105.60 44.10L102.70 30.80ZM194.80 100.90L201.90 50.60L191.70 50.60L193.10 41.10L203.20 41.10L204.50 32L202.10 29.10L219.60 29.10L217.90 41.10L227.90 41.10L226.50 50.60L216.50 50.60L209.40 100.90L194.80 100.90ZM244.30 100.90L230 100.90L236.30 94.60L241 61.20L225.90 61.20L227.30 51.30L274.40 51.30L273 61.20L255.80 61.20L251.10 94.90Q250.70 97.50 248.75 99.20Q246.80 100.90 244.30 100.90L244.30 100.90ZM232.70 31L273.80 31L272.40 41L231.30 41L232.70 31ZM257.50 66.90L268.70 66.90L268 99L257.40 99L257.50 66.90ZM227.20 66.90L237.80 66.90L229.60 99L219 99L227.20 66.90ZM192.20 97.30L185.50 97.30L193.60 52.40L200.30 52.40L192.20 97.30ZM220.30 91.60L213.60 91.60L217.40 52.40L224 52.40L220.30 91.60ZM297.80 74.60L296.20 80.20L296.40 80.20L298.70 83.30L300.20 72.60L281.90 72.60L283.30 63.10L321.30 63.10L319.90 72.60L314.40 72.60L313.90 76.50L321.40 76.50L320.10 85.90L312.60 85.90L312 89.70L361.20 89.70L359.90 99.20L297.20 99.20L292.40 92.90L290.60 99.10L276.30 99.10L282.70 77.80L280.80 74.60L297.80 74.60ZM327.70 30.80L367.60 30.80L366.30 40.30L355.30 40.30L353.40 45.10L364.50 45.10L360.40 74.50L352 74.50L350.30 72.60L353.10 52.70L336 52.70L333.20 72.60L331.10 74.50L322.60 74.50L326.70 45.10L336.30 45.10L338.20 40.30L326.40 40.30L327.70 30.80ZM287.50 60.30L291.10 34.60L287.80 30.80L325.80 30.80L321.70 60.30L287.50 60.30ZM337.50 55.50L350.80 55.50L348.40 72.60L359.60 87.80L344.40 87.80L340.10 80.80L333 87.80L319.70 87.80L335.10 72.60L337.50 55.50ZM302.70 52.60L308.50 52.60L309 48.80L303.20 48.80L302.70 52.60ZM304.70 38.40L304.10 42.20L309.90 42.20L310.50 38.40L304.70 38.40ZM379.90 64.40L406.80 64.40L407.30 61.10L378.40 61.10L382 35L379 30.90L458.60 30.90L454.40 61.10L427.20 61.10L426.70 64.40L451.90 64.40L450.60 73.70L425.40 73.70L424.90 77.10L455.90 77.10L454.60 86.40L371.20 86.40L372.50 77.10L405 77.10L405.50 73.70L378.60 73.70L379.90 64.40ZM385.80 100.80L369.30 100.80L376.80 88.40L392.90 88.40L385.80 100.80ZM452.30 100.70L436 100.70L433.90 88.40L449.80 88.40L452.30 100.70ZM411.40 100.70L395.40 100.70L394.70 88.40L410.30 88.40L411.40 100.70ZM431.80 100.70L415.80 100.70L414.30 88.40L429.80 88.40L431.80 100.70ZM396 52.60L410.40 52.60L410.80 50.10L399.20 50.10L397.30 42.60L396 52.60ZM397.80 39.30L397.50 41.20L409.40 41.20L411.10 47.90L412.30 39.30L397.80 39.30ZM426.50 52.60L439.30 52.60L440.20 45.70L437.70 50.10L426.90 50.10L426.50 52.60ZM431.30 41.20L440.80 41.20L441.10 39.30L428.40 39.30L427.10 48.50L431.30 41.20Z"/></svg>