<svg xmlns="http://www.w3.org/2000/svg" xmlns:xlink="http://www.w3.org/1999/xlink" width="800" height="122.60000000000001"><path d="M18 111.10Q16.40 111.80 14.15 109.05Q11.90 106.30 10.70 102.60L10.70 102.60Q10.60 102.20 10.60 101.40L10.60 101.40Q10.60 100.70 10.80 99.65Q11 98.60 11.10 98.10L11.10 98.10Q12.50 89.20 12.50 46.90L12.50 46.90L12.50 37.90Q12.50 35.30 12.20 32.30Q11.90 29.30 11.30 27.40L11.30 27.40L11.20 26.90Q11.20 25.70 12.40 25.60L12.40 25.60Q14.20 25.40 17.30 25.85Q20.40 26.30 22.30 27.20L22.30 27.20Q26.30 26.10 28.70 24.90L28.70 24.90L32.60 22.60Q33.20 22.10 34 22.10L34 22.10Q34.90 22.10 35.90 22.60L35.90 22.60Q37.40 23.20 40.05 24.80Q42.70 26.40 43.50 27.40L43.50 27.40Q44 28.10 44 28.90L44 28.90Q44 30 42.40 31.40L42.40 31.40Q41.20 32.90 39.70 35.20L39.70 35.20Q48.80 34.70 63.90 32.55Q79 30.40 86.50 28.60L86.50 28.60Q87.80 28.10 88.80 28.10L88.80 28.10Q89.90 28.10 90.50 28.60L90.50 28.60Q92.60 30.20 93.95 31.65Q95.30 33.10 96.40 35.20L96.40 35.20Q96.90 36.40 96.90 37.40L96.90 37.40Q96.90 38.90 96 39.80Q95.10 40.70 93.10 40.50L93.10 40.50L88.80 40.50Q84.80 40.50 82.20 40.70L82.20 40.70L80.80 40.80Q82 41.40 82.50 42.10L82.50 42.10Q83.20 42.80 83.20 44.40L83.20 44.40Q83.20 45.50 82.90 47L82.90 47Q82.60 50.30 82.60 50.90L82.60 50.90Q82.60 48.60 82.70 52.25Q82.80 55.90 82.85 61.80Q82.90 67.70 82.90 74.80L82.90 74.80Q82.90 92.40 82.30 99.60L82.30 99.60Q81.90 104 80.30 106.60Q78.70 109.20 74.30 112.50L74.30 112.50Q72.80 113.60 71.60 113.60L71.60 113.60Q69.40 113.60 67.50 110.70L67.50 110.70Q65.90 108.20 63.05 104.95Q60.20 101.70 57.50 99.90L57.50 99.90Q56.50 99.20 56.50 98.60L56.50 98.60Q56.50 98.10 57.30 98.10L57.30 98.10Q62.10 98.20 66.60 97.80L66.60 97.80Q67.90 97.60 68.80 96.95Q69.70 96.30 70.20 94.30L70.20 94.30Q71.20 90.60 71.20 71.70L71.20 71.70Q71.20 61.50 70.90 52.85Q70.60 44.20 70.10 42.10L70.10 42.10L70 41.70Q54.90 42.90 46.70 44.60L46.70 44.60Q45.70 44.90 44.50 44.90L44.50 44.90Q43.10 44.90 41.90 44.50L41.90 44.50Q39.40 42.80 37.40 38.90L37.40 38.90L32.90 46.10Q38.30 51.20 40.25 55.85Q42.20 60.50 42.20 64.90L42.20 64.90Q42.20 68.40 40.50 71.60Q38.80 74.80 36.45 76.75Q34.10 78.70 32.50 78.70L32.50 78.70Q30.80 78.70 29.70 77.10L29.70 77.10Q28.80 75.40 26.95 72.80Q25.10 70.20 22.90 67.80L22.90 67.80L23.30 95.60Q23.50 102.50 22.25 106.25Q21 110 18 111.10L18 111.10ZM22.90 64.30Q28.70 65.70 29.50 65.70L29.50 65.70Q30.70 65.70 31 64.90Q31.30 64.10 31.30 62.30L31.30 62.30Q31.30 57.30 30.10 54.40Q28.90 51.50 25.80 48.40L25.80 48.40Q25.20 47.90 25.20 47.30L25.20 47.30Q25.20 46.80 25.55 45.95Q25.90 45.10 26.10 44.60L26.10 44.60L27.80 38.70L29.30 33.80Q26 34.70 23.50 35.50L23.50 35.50L23.30 39Q22.90 48.50 22.90 64.30L22.90 64.30ZM42.20 53.30Q41.90 52.70 41.90 52.10L41.90 52.10Q41.90 51.20 43 51.10L43 51.10Q44.30 50.90 46.75 51.25Q49.20 51.60 50.80 52.30L50.80 52.30Q55.70 51.80 58.40 51L58.40 51Q59 50.90 60.35 50.10Q61.70 49.30 62.50 49.30L62.50 49.30Q63.10 49.30 63.40 49.50L63.40 49.50Q64.70 50.10 66.65 51.95Q68.60 53.80 69.30 54.90L69.30 54.90Q69.70 55.60 69.70 56.50L69.70 56.50Q69.70 57.10 69.20 59.10L69.20 59.10Q68.10 62.40 67.60 72.90L67.60 72.90Q67.40 75.80 67 76.75Q66.60 77.70 64.90 78.90L64.90 78.90Q63.10 80.40 61.70 80.40L61.70 80.40Q60.30 80.40 59.50 79.10L59.50 79.10Q58.50 77.20 57.90 75.50L57.90 75.50Q55.30 75.50 53.20 75.90L53.20 75.90Q53.30 76.30 53.30 77.10L53.30 77.10Q53.30 79.10 52.50 80.40Q51.70 81.70 50.30 81.70L50.30 81.70Q49.20 81.70 48.10 80.90L48.10 80.90Q46.30 79.80 45.25 78.55Q44.20 77.30 44.30 75.10L44.30 75.10Q44.30 74.20 44.25 69.20Q44.20 64.20 43.65 59.70Q43.10 55.20 42.20 53.30L42.20 53.30ZM52.80 59.70L52.70 63.60L52.80 68.20L58.50 67.70L58.70 60.80Q58.70 59.80 58.60 59.50Q58.50 59.20 57.90 59.20L57.90 59.20Q56.10 59.20 52.80 59.70L52.80 59.70ZM118.80 109.40Q116.80 109.70 115 108.50L115 108.50Q113.70 107.70 112.15 105.75Q110.60 103.80 109.60 102.20L109.60 102.20Q108.80 100.90 108.80 100L108.80 100Q108.80 99.40 109.40 99.20Q110 99 111.30 99.10L111.30 99.10Q117.60 99.40 142.50 97.50L142.50 97.50Q142.60 96.30 142.60 93.20L142.60 93.20L142.70 88.90Q141.30 89 136.70 89.80L136.70 89.80Q131.50 90.70 130.30 90.70L130.30 90.70Q128.40 90.70 127 89.50L127 89.50Q126 88.60 124.70 86.55Q123.40 84.50 122.80 83.20L122.80 83.20Q122.60 82.90 122.60 82.40L122.60 82.40Q122.60 81.90 123.05 81.70Q123.50 81.50 124.50 81.40L124.50 81.40Q134.20 80.90 142.80 79.80L142.80 79.80L142.80 70.60Q140.10 70.80 136.20 71.40L136.20 71.40Q135.70 73.40 134.50 74.45Q133.30 75.50 132.10 75.80L132.10 75.80Q130.50 75.90 128.45 74.60Q126.40 73.30 125.05 71.25Q123.70 69.20 123.90 67L123.90 67Q124 63.20 123.55 54.85Q123.10 46.50 122.05 38.80Q121 31.10 119.40 28.30L119.40 28.30Q119.20 27.50 119.20 27.30L119.20 27.30Q119.20 26.30 119.90 25.75Q120.60 25.20 121.70 25.40L121.70 25.40Q125.60 25.40 127.75 26.05Q129.90 26.70 132 28.30L132 28.30L132.40 28.80Q137.40 28.30 154 25.90L154 25.90Q157 25.50 158.55 24.85Q160.10 24.20 161.20 23.50Q162.30 22.80 162.70 22.60L162.70 22.60Q164.20 21.80 165.50 21.80L165.50 21.80Q166.10 21.80 167.10 22L167.10 22Q172.90 23.60 178 27.60L178 27.60Q180.70 29.90 180.70 31.60L180.70 31.60Q180.70 32.30 180.35 33Q180 33.70 179.60 34.40L179.60 34.40Q178.80 35.50 178.20 37L178.20 37Q177.20 40.50 175.50 54.40L175.50 54.40Q174.90 59.20 174.80 59.70L174.80 59.70Q173.80 64.60 172.35 67.85Q170.90 71.10 168.60 72.10L168.60 72.10Q168.30 72.20 167.80 72.20L167.80 72.20Q165.70 72.20 163.50 69.50L163.50 69.50L160.60 69.60Q158.80 69.60 154.80 69.80L154.80 69.80L154.80 78Q160.80 76.90 164 76.10L164 76.10Q166.80 75.70 167 75.70L167 75.70Q167.80 75.70 169 76.30L169 76.30Q170.50 77.20 172.25 79.50Q174 81.80 174.10 83.90L174.10 83.90Q174.30 85.90 173.50 86.30Q172.70 86.70 169.50 86.70L169.50 86.70L167.50 86.70Q158.70 87.10 154.70 87.50L154.70 87.50Q154.70 93.60 154.60 96.50L154.60 96.50Q174.70 94.70 180.60 93.80L180.60 93.80Q181 93.70 181.70 93.70L181.70 93.70Q183.30 93.70 185 95.30L185 95.30Q186.60 96.90 187.45 98.05Q188.30 99.20 189.10 101.20L189.10 101.20Q189.70 102.60 189.70 103.60L189.70 103.60Q189.70 104.90 188.70 105.80L188.70 105.80Q187.80 106.40 186.70 106.40L186.70 106.40L183.90 106.20Q180.50 105.90 172.60 105.90L172.60 105.90Q158.50 105.90 142.40 106.80Q126.30 107.70 118.80 109.40L118.80 109.40ZM133.50 35.60L134.30 46.20Q136.30 46.20 142.80 45.50L142.80 45.50L142.70 40.20Q142.70 37.90 142.10 35.90L142.10 35.90L138 36.40Q137.20 36.50 136 36.50L136 36.50Q134.40 36.50 133.50 35.60L133.50 35.60ZM134.70 50.50L135.80 62.40L142.90 61.70Q142.90 55.30 142.80 52.20L142.80 52.20L138.90 52.80Q137.90 52.90 136.75 52.40Q135.60 51.90 135.30 51.30L135.30 51.30L134.70 50.50ZM154.90 60.50Q159.70 60.10 162 60L162 60Q162.90 53.50 163.60 45.65Q164.30 37.80 164.10 35.30L164.10 35.30Q164.10 34.50 163.90 34.15Q163.70 33.80 162.90 33.80L162.90 33.80Q161.70 33.80 156.40 34.30L156.40 34.30Q156.30 34.70 156.10 35.20Q155.90 35.70 155.70 36.40L155.70 36.40Q155.40 37.20 155.10 41.60L155.10 41.60Q155.10 42.70 155 43.50L155 43.50L155.30 43.40Q156.30 43.20 157.60 43.20L157.60 43.20Q158.80 43.20 159.50 43.60L159.50 43.60Q161.30 45.20 162.20 46.80L162.20 46.80Q162.50 47.50 162.50 48.40L162.50 48.40Q162.50 50.90 159.20 50.90L159.20 50.90L155 51.10Q154.90 53.80 154.90 60.50L154.90 60.50ZM206.80 110.50Q206.20 110.70 205.90 110.70L205.90 110.70Q205.40 110.70 205.05 110.45Q204.70 110.20 204.70 109.80L204.70 109.80Q204.70 109.30 205.40 108.70L205.40 108.70Q210.30 105.20 215.15 99.45Q220 93.70 224.10 86.50L224.10 86.50Q220.30 83 215.60 79.90L215.60 79.90Q215.20 79.60 214.60 79.15Q214 78.70 213.75 78.40Q213.50 78.10 213.50 77.60L213.50 77.60Q213.50 76.70 214.70 73.90L214.70 73.90Q216.90 67.80 218.30 61.90L218.30 61.90L215.50 62.80Q214.70 63 214.40 63L214.40 63Q213.70 63 213 62.60Q212.30 62.20 212 62.10L212 62.10Q209.70 61.20 206.50 56.90L206.50 56.90Q205.70 56.10 205.70 55.40L205.70 55.40Q205.70 54 208.80 53.70L208.80 53.70Q214.90 52.90 220.30 51.60L220.30 51.60Q221.60 43.90 221.70 37L221.70 37L221.80 32.20Q221.80 26.70 220.70 22.20L220.70 22.20L220.70 21.80Q220.70 21.10 221.30 20.85Q221.90 20.60 222.50 20.70L222.50 20.70Q231.40 22.70 234.40 26L234.40 26Q235.80 27.20 235.80 30.10L235.80 30.10Q235.80 31 235.70 31.50L235.70 31.50Q234.70 36.30 234.10 40L234.10 40L233.20 43.90L232.20 48.70L233.90 48.30L234.80 47.90L234.80 47.10Q234.80 45 236 44.80L236 44.80Q236.50 44.70 237.50 44.70L237.50 44.70Q239.90 44.70 242.20 45.90Q244.50 47.10 245.70 48.90L245.70 48.90Q246.30 49.60 246.30 50.80L246.30 50.80Q246.30 51.40 245.90 53.20L245.90 53.20Q245.40 55.10 245.30 55.60L245.30 55.60Q242.30 70.40 236.90 81.90L236.90 81.90Q238.60 83.40 240.50 85.50L240.50 85.50Q243.50 88.60 243.50 93.10L243.50 93.10Q243.50 95.80 242.35 98.05Q241.20 100.30 239.60 101.20L239.60 101.20Q239.30 101.40 238.50 101.40L238.50 101.40Q237.30 101.40 235.95 100.40Q234.60 99.40 233.50 97.60L233.50 97.60Q232.30 95.70 230.40 93.20L230.40 93.20Q220.70 106.40 206.80 110.50L206.80 110.50ZM224.30 75.20L228.80 76.80Q232.90 67.30 234.30 57.60L234.30 57.60Q231.30 58.20 229.80 58.60L229.80 58.60Q227.50 67 224.30 75.20L224.30 75.20ZM241.80 83.50Q241.40 82.70 241.40 82L241.40 82Q241.40 80.70 243.10 80.70L243.10 80.70Q248.40 80.60 256.65 79.35Q264.90 78.10 269.70 76.90L269.70 76.90Q270.80 76.50 271.80 76.50L271.80 76.50Q274 76.50 274.90 78.20L274.90 78.20Q277.10 81.70 277.70 84.20L277.70 84.20L277.90 84.70Q278.90 78.40 278.70 70.90L278.70 70.90Q278.70 69.80 278.30 69.50Q277.90 69.20 276.20 69.40L276.20 69.40L272 70.10Q258.30 72.10 255.90 72.90L255.90 72.90Q255.70 73 255.10 73.15Q254.50 73.30 254 73.30L254 73.30Q252.90 73.30 251.60 72.30L251.60 72.30Q250 71 248.10 67.70L248.10 67.70Q247.20 66.60 247.20 65.50L247.20 65.50Q247.20 64.70 247.70 64.30L247.70 64.30Q248 64 249 63.15Q250 62.30 250.20 61.10L250.20 61.10Q251.10 57.60 251.55 53.10Q252 48.60 252 45L252 45Q252 43.20 251.60 41.70L251.60 41.70L251.40 40.50Q251.40 40.10 251.75 39.90Q252.10 39.70 252.90 39.70L252.90 39.70Q258.70 39.70 263.40 45L263.40 45Q263.90 45.40 263.90 46L263.90 46Q263.90 46.40 263.65 47Q263.40 47.60 263.30 48L263.30 48Q262.50 49.70 261.70 54.40Q260.90 59.10 260.70 62.30L260.70 62.30L268.60 61.10L268.60 60.90Q268.60 57.70 269.50 49.10L269.50 49.10Q270.30 41.10 270.40 38.30L270.40 38.30L270.50 37.20Q270.50 35.70 268.60 36.10L268.60 36.10L266.10 36.70Q258.30 38.80 254.90 38.80L254.90 38.80Q252.90 38.80 250.90 37.35Q248.90 35.90 247.40 33.60L247.40 33.60Q247.20 33.20 246.90 32.60Q246.60 32 246.60 31.60L246.60 31.60Q246.60 31.20 246.95 31.05Q247.30 30.90 248.30 30.70L248.30 30.70Q252.10 30.40 258.95 28.90Q265.80 27.40 268.50 26L268.50 26Q269.90 25.30 270.95 24.90Q272 24.50 272.60 24.20L272.60 24.20Q274 23.60 275.10 23.60L275.10 23.60Q276.40 23.60 277.50 24.40L277.50 24.40Q279.60 25.80 282.30 28.65Q285 31.50 285.10 32.60L285.10 32.60Q285.20 32.90 285.20 33.40L285.20 33.40Q285.20 34.60 283.80 36.60L283.80 36.60Q282.80 37.70 281.90 42.80Q281 47.90 279.70 57.20L279.70 57.20Q279.50 58.40 279.30 59L279.30 59Q281.30 58.60 282.40 58.10L282.40 58.10Q283 57.90 284.10 57.55Q285.20 57.20 286 57.20L286 57.20Q287.10 57.20 287.90 58L287.90 58L289.40 59.40Q291 60.80 292 61.85Q293 62.90 293.90 64.40L293.90 64.40Q294.80 65.90 294.80 67.40L294.80 67.40Q294.80 68.60 293.90 70L293.90 70Q292.60 71.40 292.35 72.25Q292.10 73.10 291.80 75.70L291.80 75.70L291.30 79.70Q290.30 89.60 288.50 97.15Q286.70 104.70 282.60 109L282.60 109Q280.90 110.90 279.10 111.80Q277.30 112.70 275.70 112.70L275.70 112.70Q274.10 112.70 273.40 112Q272.70 111.30 271.60 109.50L271.60 109.50Q271.20 108.60 270.40 107.30L270.40 107.30Q270.20 107 268.75 104.90Q267.30 102.80 264.50 100.50L264.50 100.50Q263.90 100 263.40 99.60Q262.90 99.20 262.90 98.90L262.90 98.90Q262.90 98.20 265.60 98.50L265.60 98.50Q266.70 98.60 269.70 98.60L269.70 98.60Q270.20 98.60 271.70 98.60Q273.20 98.60 273.80 98.30Q274.40 98 274.60 97.30L274.60 97.30Q276.70 91.40 277.60 86.30L277.60 86.30Q277.10 86.80 275.50 87L275.50 87Q269.60 87 261.85 87.75Q254.10 88.50 249.10 89.90L249.10 89.90Q248.30 90.10 248 90.10L248 90.10Q246.30 90.10 244.90 88.50Q243.50 86.90 241.80 83.50L241.80 83.50ZM306.80 110.50Q306.20 110.70 305.90 110.70L305.90 110.70Q305.40 110.70 305.05 110.45Q304.70 110.20 304.70 109.80L304.70 109.80Q304.70 109.30 305.40 108.70L305.40 108.70Q310.30 105.20 315.15 99.45Q320 93.70 324.10 86.50L324.10 86.50Q320.30 83 315.60 79.90L315.60 79.90Q315.20 79.60 314.60 79.15Q314 78.70 313.75 78.40Q313.50 78.10 313.50 77.60L313.50 77.60Q313.50 76.70 314.70 73.90L314.70 73.90Q316.90 67.80 318.30 61.90L318.30 61.90L315.50 62.80Q314.70 63 314.40 63L314.40 63Q313.70 63 313 62.60Q312.30 62.20 312 62.10L312 62.10Q309.70 61.20 306.50 56.90L306.50 56.90Q305.70 56.10 305.70 55.40L305.70 55.40Q305.70 54 308.80 53.70L308.80 53.70Q314.90 52.90 320.30 51.60L320.30 51.60Q321.60 43.90 321.70 37L321.70 37L321.80 32.20Q321.80 26.70 320.70 22.20L320.70 22.20L320.70 21.80Q320.70 21.10 321.30 20.85Q321.90 20.60 322.50 20.70L322.50 20.70Q331.40 22.70 334.40 26L334.40 26Q335.80 27.20 335.80 30.10L335.80 30.10Q335.80 31 335.70 31.50L335.70 31.50Q334.70 36.30 334.10 40L334.10 40L333.20 43.90L332.20 48.70L333.90 48.30L334.80 47.90L334.80 47.10Q334.80 45 336 44.80L336 44.80Q336.50 44.70 337.50 44.70L337.50 44.70Q339.90 44.70 342.20 45.90Q344.50 47.10 345.70 48.90L345.70 48.90Q346.30 49.60 346.30 50.80L346.30 50.80Q346.30 51.40 345.90 53.20L345.90 53.20Q345.40 55.10 345.30 55.60L345.30 55.60Q342.30 70.40 336.90 81.90L336.90 81.90Q338.60 83.40 340.50 85.50L340.50 85.50Q343.50 88.60 343.50 93.10L343.50 93.10Q343.50 95.80 342.35 98.05Q341.20 100.30 339.60 101.20L339.60 101.20Q339.30 101.40 338.50 101.40L338.50 101.40Q337.30 101.40 335.95 100.40Q334.60 99.40 333.50 97.60L333.50 97.60Q332.30 95.70 330.40 93.20L330.40 93.20Q320.70 106.40 306.80 110.50L306.80 110.50ZM324.30 75.20L328.80 76.80Q332.90 67.30 334.30 57.60L334.30 57.60Q331.30 58.20 329.80 58.60L329.80 58.60Q327.50 67 324.30 75.20L324.30 75.20ZM341.80 83.50Q341.40 82.70 341.40 82L341.40 82Q341.40 80.70 343.10 80.70L343.10 80.70Q348.40 80.60 356.65 79.35Q364.90 78.10 369.70 76.90L369.70 76.90Q370.80 76.50 371.80 76.50L371.80 76.50Q374 76.50 374.90 78.20L374.90 78.20Q377.10 81.70 377.70 84.20L377.70 84.20L377.90 84.70Q378.90 78.40 378.70 70.90L378.70 70.90Q378.70 69.80 378.30 69.50Q377.90 69.20 376.20 69.40L376.20 69.40L372 70.10Q358.30 72.10 355.90 72.90L355.90 72.90Q355.70 73 355.10 73.15Q354.50 73.30 354 73.30L354 73.30Q352.90 73.30 351.60 72.30L351.60 72.30Q350 71 348.10 67.70L348.10 67.70Q347.20 66.60 347.20 65.50L347.20 65.50Q347.20 64.70 347.70 64.30L347.70 64.30Q348 64 349 63.15Q350 62.30 350.20 61.10L350.20 61.10Q351.10 57.60 351.55 53.10Q352 48.60 352 45L352 45Q352 43.20 351.60 41.70L351.60 41.70L351.40 40.50Q351.40 40.10 351.75 39.90Q352.10 39.70 352.90 39.70L352.90 39.70Q358.70 39.70 363.40 45L363.40 45Q363.90 45.40 363.90 46L363.90 46Q363.90 46.40 363.65 47Q363.40 47.60 363.30 48L363.30 48Q362.50 49.70 361.70 54.40Q360.90 59.10 360.70 62.30L360.70 62.30L368.60 61.10L368.60 60.90Q368.60 57.70 369.50 49.10L369.50 49.10Q370.30 41.10 370.40 38.30L370.40 38.30L370.50 37.20Q370.50 35.70 368.60 36.10L368.60 36.10L366.10 36.70Q358.30 38.80 354.90 38.80L354.90 38.80Q352.90 38.80 350.90 37.35Q348.90 35.90 347.40 33.60L347.40 33.60Q347.20 33.20 346.90 32.60Q346.60 32 346.60 31.60L346.60 31.60Q346.60 31.20 346.95 31.05Q347.30 30.90 348.30 30.70L348.30 30.70Q352.10 30.40 358.95 28.90Q365.80 27.40 368.50 26L368.50 26Q369.90 25.30 370.95 24.90Q372 24.50 372.60 24.20L372.60 24.20Q374 23.60 375.10 23.60L375.10 23.60Q376.40 23.60 377.50 24.40L377.50 24.40Q379.60 25.80 382.30 28.65Q385 31.50 385.10 32.60L385.10 32.60Q385.20 32.90 385.20 33.40L385.20 33.40Q385.20 34.60 383.80 36.60L383.80 36.60Q382.80 37.70 381.90 42.80Q381 47.90 379.70 57.20L379.70 57.20Q379.50 58.40 379.30 59L379.30 59Q381.30 58.60 382.40 58.10L382.40 58.10Q383 57.90 384.10 57.55Q385.20 57.20 386 57.20L386 57.20Q387.10 57.20 387.90 58L387.90 58L389.40 59.40Q391 60.80 392 61.85Q393 62.90 393.90 64.40L393.90 64.40Q394.80 65.90 394.80 67.40L394.80 67.40Q394.80 68.60 393.90 70L393.90 70Q392.60 71.40 392.35 72.25Q392.10 73.10 391.80 75.70L391.80 75.70L391.30 79.70Q390.30 89.60 388.50 97.15Q386.70 104.70 382.60 109L382.60 109Q380.90 110.90 379.10 111.80Q377.30 112.70 375.70 112.70L375.70 112.70Q374.10 112.70 373.40 112Q372.70 111.30 371.60 109.50L371.60 109.50Q371.20 108.60 370.40 107.30L370.40 107.30Q370.20 107 368.75 104.90Q367.30 102.80 364.50 100.50L364.50 100.50Q363.90 100 363.40 99.60Q362.90 99.20 362.90 98.90L362.90 98.90Q362.90 98.20 365.60 98.50L365.60 98.50Q366.70 98.60 369.70 98.60L369.70 98.60Q370.20 98.60 371.70 98.60Q373.20 98.60 373.80 98.30Q374.40 98 374.60 97.30L374.60 97.30Q376.70 91.40 377.60 86.30L377.60 86.30Q377.10 86.80 375.50 87L375.50 87Q369.60 87 361.85 87.75Q354.10 88.50 349.10 89.90L349.10 89.90Q348.30 90.10 348 90.10L348 90.10Q346.30 90.10 344.90 88.50Q343.50 86.90 341.80 83.50L341.80 83.50ZM431 77.90Q429.20 78.30 428.80 78.30L428.80 78.30Q428 78.30 427.20 77.80L427.20 77.80Q425.70 76.60 423.45 74.15Q421.20 71.70 420.20 69.70L420.20 69.70Q419.90 68.80 419.90 68.50L419.90 68.50Q419.90 67.70 420.40 67.20L420.40 67.20Q421 66.60 421.50 65.90Q422 65.20 422.40 64.70L422.40 64.70Q426.60 59.50 431.20 50.70L431.20 50.70Q426.30 51.60 423.30 52.30L423.30 52.30Q422.30 52.50 421.70 52.50L421.70 52.50Q420.10 52.50 418.10 51.50L418.10 51.50Q416.90 50.90 415.70 49.20Q414.50 47.50 412.30 44.10L412.30 44.10Q412 43.50 412 42.90L412 42.90Q412 41.80 413.40 41.70L413.40 41.70Q426.70 40.80 436.30 39.80L436.30 39.80Q441.20 27.90 441.20 21.30L441.20 21.30Q441.20 20.50 441 19.30L441 19.30L441 19Q441 17.80 442.40 17.80L442.40 17.80Q442.70 17.80 443.50 18L443.50 18Q447.20 18.90 450.45 20.60Q453.70 22.30 455.60 23.70L455.60 23.70Q456.70 24.60 456.70 25.40L456.70 25.40Q456.70 25.90 456 26.80L456 26.80Q454.80 28.20 454.30 29.90L454.30 29.90Q453.30 32.80 450.90 37.90L450.90 37.90Q464.40 36 473.10 33.40L473.10 33.40Q474.20 33.10 474.70 33.10L474.70 33.10Q475.50 33.10 476.40 33.50L476.40 33.50Q478 34.40 479.85 37Q481.70 39.60 482.80 41.90L482.80 41.90Q483.30 43.10 483.30 43.70L483.30 43.70Q483.30 44.70 482.80 45.25Q482.30 45.80 481.50 45.80L481.50 45.80Q463.80 45.90 445.60 48.30L445.60 48.30Q438.90 60.30 434.10 65.70L434.10 65.70Q433.80 66.10 433.80 66.40L433.80 66.40Q433.80 67 434.90 67L434.90 67Q439.10 67 446.60 66L446.60 66Q446.40 60.40 446.20 57.50L446.20 57.50Q446 54.40 445.40 53L445.40 53Q445.30 52.80 445.30 52.40L445.30 52.40Q445.30 51.10 446.80 51.10L446.80 51.10Q449.40 51.10 453.10 51.80Q456.80 52.50 458.70 53.50L458.70 53.50Q460.40 54.20 460.40 55.90L460.40 55.90Q460.40 56.70 460.10 57.60L460.10 57.60Q459.30 59.90 459.30 63.10L459.30 63.10L459.30 63.90Q464.10 63.10 471 61.40L471 61.40Q471.90 61 472.90 61L472.90 61Q474.10 61 475.90 62.10L475.90 62.10Q477 62.80 478 64.55Q479 66.30 480.40 69L480.40 69Q481 70.20 481 71.20L481 71.20Q481 72.40 480.15 73.10Q479.30 73.80 477.70 73.80L477.70 73.80Q470.90 73.80 459.20 74.30L459.20 74.30Q459.20 84.90 459.70 99.70L459.70 99.70Q459.90 104.80 457.40 108.95Q454.90 113.10 451 114.80L451 114.80Q449.70 115.30 448.60 115.30L448.60 115.30Q446.90 115.30 445.80 114.10L445.80 114.10Q440.90 107.20 434.70 101.50L434.70 101.50Q434.10 100.90 434.10 100.40L434.10 100.40Q434.10 99.70 435.50 99.90L435.50 99.90Q438.40 100.20 442.50 100.20L442.50 100.20Q444.70 100.20 445.50 99.80Q446.30 99.40 446.40 97.90L446.40 97.90Q446.80 91.50 446.80 81L446.80 81L446.80 75.30Q436.80 76.30 431 77.90L431 77.90ZM418.20 90.20Q419.80 88.60 424.60 85.85Q429.40 83.10 433.10 81.60L433.10 81.60Q434.30 81.10 434.70 81.10L434.70 81.10Q435.30 81.10 435.45 81.55Q435.60 82 435.40 82.70L435.40 82.70Q434.40 86.60 431.35 93Q428.30 99.40 425.60 103.20L425.60 103.20Q423.70 105.40 420.50 105L420.50 105Q418.50 104.80 416.75 102.35Q415 99.90 415 96.90L415 96.90Q415 93.10 418.20 90.20L418.20 90.20ZM466.30 82.90Q465.80 82.40 465.80 81.80L465.80 81.80Q465.80 80.70 467.60 80.60L467.60 80.60Q468 80.50 468.90 80.50L468.90 80.50Q471.60 80.50 475.45 81.95Q479.30 83.40 482.50 85.30L482.50 85.30Q484.70 86.60 485.85 88.80Q487 91 487 93.60L487 93.60Q487 96.70 485.30 99.60Q483.60 102.50 480.40 104.30L480.40 104.30Q480.10 104.50 479.50 104.50L479.50 104.50Q478.70 104.50 477.90 103.90Q477.10 103.30 476.50 102.40L476.50 102.40Q474.30 97.50 471.35 91.75Q468.40 86 466.30 82.90L466.30 82.90ZM550.80 39.10Q550.50 39.20 549.90 39.20L549.90 39.20Q547.90 39.20 546.40 36.80L546.40 36.80Q543.10 28.40 537.90 19.60L537.90 19.60Q537.60 19.10 537.60 18.80L537.60 18.80Q537.60 18.30 538.30 18.05Q539 17.80 540.60 17.80L540.60 17.80Q546.40 17.80 552.70 22L552.70 22Q555.20 23.70 556.55 25.95Q557.90 28.20 557.90 30.50L557.90 30.50Q557.90 33.10 556.10 35.40Q554.30 37.70 550.80 39.10L550.80 39.10ZM504.50 109.70Q512.10 104.60 518.85 96.30Q525.60 88 530.80 78.30L530.80 78.30Q534 72.40 536.45 65.25Q538.90 58.10 539.70 52.40L539.70 52.40Q527.20 54.30 519.70 56.40L519.70 56.40Q519.10 56.60 518 56.60L518 56.60Q516.40 56.60 515 55.50L515 55.50Q511.90 53.10 508.70 47.20L508.70 47.20Q508.30 46.30 508.30 45.50L508.30 45.50Q508.30 43.80 510.10 44L510.10 44Q513.10 44.20 515.30 44.20L515.30 44.20Q527.90 44.20 548.25 41.25Q568.60 38.30 580.10 35.10L580.10 35.10Q582.10 34.70 582.70 34.70L582.70 34.70Q584 34.70 585.10 35.40L585.10 35.40Q588.50 37.70 591.30 43.50L591.30 43.50Q591.60 44.20 591.60 45L591.60 45Q591.60 46.30 590.80 47.10Q590 47.90 588.40 47.80L588.40 47.80Q582.80 47.70 573.65 48.35Q564.50 49 554.40 50.30L554.40 50.30Q555.40 51.30 555.40 52.40L555.40 52.40Q555.40 53.70 554.30 55.40L554.30 55.40Q553.10 57.80 551.70 61.20L551.70 61.20Q554.90 60.90 557.55 60.30Q560.20 59.70 563.70 58.70L563.70 58.70L567.20 57.70Q567.60 57.50 568.40 57.50L568.40 57.50Q569.10 57.50 569.85 57.95Q570.60 58.40 571.50 59.10L571.50 59.10Q577.10 64 579.30 68L579.30 68Q579.70 68.70 579.70 69.70L579.70 69.70Q579.70 71.40 578.40 72.90L578.40 72.90Q576.50 74.40 575.40 79L575.40 79Q574.20 84.20 571.60 92.85Q569 101.50 566.80 106.40L566.80 106.40Q565.40 109.90 561.65 111.90Q557.90 113.90 554.60 113.90L554.60 113.90Q552.90 113.90 551.95 113.30Q551 112.70 550.10 110.90L550.10 110.90Q546.40 103.20 542.10 97.70L542.10 97.70Q541.90 97.30 541.90 97.10L541.90 97.10Q541.90 96.90 542.10 96.70Q542.30 96.50 542.70 96.60L542.70 96.60Q544.30 97 547.75 97.50Q551.20 98 553.70 98.20L553.70 98.20L554 98.20Q555.20 98.20 555.70 97L555.70 97Q557.60 94.10 560.10 85.20Q562.60 76.30 563.30 70.80L563.30 70.80Q563.30 70.60 563.10 70.35Q562.90 70.10 562.60 70.10L562.60 70.10Q560.90 70.10 557.20 70.80L557.20 70.80Q551.50 71.70 548.30 71.90L548.30 71.90Q542.50 86.90 531.70 97.65Q520.90 108.40 505.30 111.90L505.30 111.90Q505 112 504.50 112L504.50 112Q503.40 112 503.40 111.20L503.40 111.20Q503.40 110.50 504.50 109.70L504.50 109.70ZM610.50 111.10Q609 111.10 607.60 110.65Q606.20 110.20 606.20 109.60L606.20 109.60Q606.20 108.90 608.20 108L608.20 108Q614.40 105.50 620.55 99.25Q626.70 93 631.75 83.75Q636.80 74.50 639.60 63.50L639.60 63.50Q629.70 65.20 622.10 67.50L622.10 67.50Q621.40 67.80 620.60 67.80L620.60 67.80Q618.90 67.80 617.30 66.50L617.30 66.50Q614.60 64.50 611 57.80L611 57.80Q610.40 56.70 610.40 56L610.40 56Q610.40 54.60 612.20 54.60L612.20 54.60Q624.10 54.60 641.70 52.70L641.70 52.70Q642.60 46.20 642.60 39.40L642.60 39.40Q642.60 29.90 641 24.80L641 24.80Q640.70 23.70 640.70 23.10L640.70 23.10Q640.70 21.70 642.60 21.70L642.60 21.70Q642.90 21.70 644.30 21.90L644.30 21.90Q647.90 22.50 651.30 23.45Q654.70 24.40 656.10 25.60L656.10 25.60Q657.10 26.60 656.80 28.10L656.80 28.10Q656.10 30.70 656.10 31.90L656.10 31.90Q656.10 40.80 655 50.90L655 50.90Q666.50 49.10 674.20 46.80L674.20 46.80Q676 46.40 676.60 46.40L676.60 46.40Q678 46.40 679.20 47.20L679.20 47.20Q683.30 49.70 685.50 54.90L685.50 54.90Q685.80 55.60 685.80 56.60L685.80 56.60Q685.80 57.80 685.05 58.60Q684.30 59.40 682.80 59.40L682.80 59.40Q670.80 59.20 653.60 61.30L653.60 61.30Q659.30 69.70 663.70 75.60Q668.10 81.50 673.20 86.60L673.20 86.60Q679.40 92.70 684.95 96.95Q690.50 101.20 696 103.60L696 103.60Q697.30 104.20 697.30 104.90L697.30 104.90Q697.30 105.60 695.90 106.20L695.90 106.20Q691.70 107.80 687 108.65Q682.30 109.50 678.80 109.50L678.80 109.50Q674.90 109.50 672.35 108.70Q669.80 107.90 668.20 105.40L668.20 105.40L666.50 102.70Q658.10 89.90 653.10 81.40L653.10 81.40L652.10 79.60L649.70 75.40Q644.20 91.70 634.55 101.40Q624.90 111.10 610.50 111.10L610.50 111.10ZM745.20 68.60Q743 66.10 741.70 61.80L741.70 61.80Q741.30 60 741.30 59.60L741.30 59.60Q741.30 58.70 742.10 58.40L742.10 58.40Q744.10 57.70 744.10 55.50L744.10 55.50L744.10 50.50Q744.10 34.20 742.30 28L742.30 28Q742.20 27.70 742.20 27.10L742.20 27.10Q742.20 25.70 744 26L744 26Q746.10 26.10 749.40 27.20Q752.70 28.30 753.10 28.40L753.10 28.40Q754.50 28.90 754.30 30.50L754.30 30.50Q753.70 34.80 753.40 38.70L753.40 38.70L756.30 37.50Q756.90 37.30 757.30 37.30L757.30 37.30Q757.90 37.30 758.60 37.70L758.60 37.70Q761.60 40.10 762.10 41.20L762.10 41.20Q762.40 41.60 762.40 42.20L762.40 42.20Q762.40 43.20 761.20 43.60L761.20 43.60Q757.70 44.80 752.90 45.80L752.90 45.80Q752.70 51.80 752.70 54.60L752.70 54.60Q752.70 55.40 753.60 55L753.60 55Q755.20 54.20 758.70 51.80L758.70 51.80Q761.70 49.80 762.90 49.20L762.90 49.20Q763.60 35 763.50 27.40L763.50 27.40Q763.40 25.30 762.60 23.20L762.60 23.20L762.60 23Q762.60 22.30 763.20 21.85Q763.80 21.40 764.50 21.60L764.50 21.60Q767.30 22.30 769.70 23.30Q772.10 24.30 772.80 25.10L772.80 25.10Q774.10 26.50 774.10 28L774.10 28Q774.10 28.50 773.90 29.70L773.90 29.70Q773.30 32.40 773.10 38L773.10 38Q777.40 33 778.80 29.40L778.80 29.40Q779.30 28.40 779.85 28.15Q780.40 27.90 781.10 28.20L781.10 28.20Q783.60 29.50 785.65 31.40Q787.70 33.30 788.20 35.20L788.20 35.20Q788.50 36 788.05 36.70Q787.60 37.40 786.30 38.20L786.30 38.20Q784.40 39.60 780.70 41.35Q777 43.10 772.70 44.70L772.70 44.70L772.60 48.60Q772.50 49.80 772.50 51.70L772.50 51.70Q772.50 53.50 773.05 54.45Q773.60 55.40 775.30 55.80L775.30 55.80Q777.10 56.40 778.60 56.40L778.60 56.40Q780.40 56.40 782.80 55.50L782.80 55.50Q784.60 54.80 785.10 53.90L785.10 53.90Q787 50.80 788.40 44L788.40 44Q788.70 43.10 789 43.10L789 43.10Q789.40 43.10 789.50 43.80L789.50 43.80Q790.60 46.90 792.10 50.70Q793.60 54.50 794.60 56.50L794.60 56.50Q795 57.20 795 58.20L795 58.20Q795 59.70 794 61.05Q793 62.40 791.10 63.10L791.10 63.10Q785.90 65.40 779.40 65.40L779.40 65.40Q775 65.40 771.20 64.40L771.20 64.40Q766.50 63.10 764.70 60.40Q762.90 57.70 762.70 53.70L762.70 53.70L762.90 50.80Q754.90 61.40 749.60 67.60L749.60 67.60Q748 69.50 746.90 69.50L746.90 69.50Q746.10 69.50 745.20 68.60L745.20 68.60ZM701.20 90.10Q707 84.90 712.80 76.35Q718.60 67.80 722.70 57.60L722.70 57.60L722.70 57.40Q719.60 58.20 716.80 59.50L716.80 59.50Q715.80 60.20 713.80 60.20L713.80 60.20Q713.40 60.20 712.80 60L712.80 60Q711.50 59.30 709.80 57.30Q708.10 55.30 706.90 52.90L706.90 52.90L706.70 52Q706.70 50.90 708.40 50.90L708.40 50.90Q712.30 50.90 717.40 50L717.40 50L722.70 49.10L722.70 33.50Q722.70 30.80 721.95 27.85Q721.20 24.90 720.10 22.80L720.10 22.80Q719.80 22.20 719.80 21.60L719.80 21.60Q719.80 20.70 720.50 19.95Q721.20 19.20 722.10 19.20L722.10 19.20Q725.10 19.30 728.80 20.45Q732.50 21.60 734 22.70L734 22.70Q735 23.60 735 24.60L735 24.60Q735 25.30 734.60 27.30L734.60 27.30L734.20 29.90Q733.80 32.60 733.50 46.90L733.50 46.90L734.80 46.60Q736.70 45.90 738.10 45.90L738.10 45.90Q739.30 45.90 740.20 46.50L740.20 46.50Q741.90 47.60 743.60 52.20L743.60 52.20Q743.80 52.80 743.80 53L743.80 53Q743.80 53.80 743 54.25Q742.20 54.70 741.40 54.70L741.40 54.70Q737 54.80 733.40 55.50L733.40 55.50Q733.40 57.70 733.30 58.80L733.30 58.80Q736.90 60.10 740.20 62.50L740.20 62.50Q743.10 65.10 743.10 67.40L743.10 67.40Q743.10 68.10 743 68.40L743 68.40Q742.30 70.30 740.90 71.75Q739.50 73.20 738.10 73.20L738.10 73.20Q737.20 73.20 736.50 72.50L736.50 72.50Q734.70 70.60 733.30 67.40L733.30 67.40Q733.20 72.80 733.20 83.30L733.20 83.30Q733.20 100.50 733.60 104.40L733.60 104.40Q733.80 107.40 732.75 109.55Q731.70 111.70 729.70 111.70L729.70 111.70Q725.80 111.70 722 105L722 105Q721.40 103.50 721.40 102.60L721.40 102.60Q721.40 102 721.70 100.90L721.70 100.90Q721.90 100.30 722.30 98.70Q722.70 97.10 722.70 95.70L722.70 95.70L722.70 76.60Q718.40 82.20 713.30 85.80Q708.20 89.40 701.90 92.20L701.90 92.20L701.10 92.40Q700.70 92.40 700.45 92.20Q700.20 92 700.20 91.70L700.20 91.70Q700.20 91 701.20 90.10L701.20 90.10ZM745.70 74.50Q745.50 74 745.25 73.40Q745 72.80 745 72.60L745 72.60Q745 71.70 747.80 71.70L747.80 71.70Q749.60 71.70 751.40 72.25Q753.20 72.80 754.50 73.80L754.50 73.80Q756.60 67.80 756.30 63.60L756.30 63.60L756.30 63.40Q756.30 62 757.50 62L757.50 62Q758.10 62 759 62.30L759 62.30Q765.30 64.50 766.80 67.10L766.80 67.10Q767.60 68.30 767.60 69L767.60 69Q767.60 69.90 766.30 70.60L766.30 70.60Q764.50 71.50 760.70 73.80L760.70 73.80Q769.40 72.70 773.30 70.40L773.30 70.40Q774.40 69.80 775.20 69.80L775.20 69.80Q776.20 69.80 777.60 70.50L777.60 70.50Q780 71.70 781.45 72.90Q782.90 74.10 784.50 76L784.50 76Q784.90 76.70 784.90 77.40L784.90 77.40Q784.90 78.40 784.60 79L784.60 79Q783.80 80.90 783.60 83.70L783.60 83.70Q783.40 86.50 783.40 90.90L783.40 90.90Q783.20 98.80 783 101.30L783 101.30Q782.90 104.90 780.95 107.75Q779 110.60 775.90 111.80L775.90 111.80Q775 112.20 774.10 112.20L774.10 112.20Q772.50 112.20 771.80 110.60L771.80 110.60L769.70 105.40L768.70 105.40Q767.20 105.30 762.80 105.65Q758.40 106 756.90 106.30L756.90 106.30Q756.70 106.40 756.20 106.20L756.20 106.20Q755.70 108.50 754.05 109.85Q752.40 111.20 751.30 111.20L751.30 111.20Q749.90 111.20 748.50 109.65Q747.10 108.10 746.10 106.20L746.10 106.20Q745.80 105.50 745.80 104.60L745.80 104.60Q745.80 103.90 746.10 102.55Q746.40 101.20 746.30 100.60L746.30 100.60L746.40 92.90Q746.40 86 746.20 80.40L746.20 80.40Q746 75.40 745.70 74.50L745.70 74.50ZM755.70 85.70Q761.80 85.40 766.40 84.40L766.40 84.40Q766.70 84.30 767.20 84.30L767.20 84.30Q767.90 84.30 768.30 84.70L768.30 84.70Q769 85.50 769.80 86.90Q770.60 88.30 771 89.40L771 89.40Q771.10 89.60 771.10 90.10L771.10 90.10Q771.10 90.70 770.70 91.15Q770.30 91.60 769.60 91.60L769.60 91.60Q764.10 91.60 761.30 91.70Q758.50 91.80 756 92.40L756 92.40L755.70 92.40L756 99.50Q762 99.10 767.50 98.10L767.50 98.10L768 98Q768.60 98 769 98.30L769 98.30Q769.60 98.70 770.60 99.70L770.60 99.70Q771.30 99.30 771.30 99.20L771.30 99.20Q771.60 95.50 771.80 83.80L771.80 83.80L771.80 80.10Q771.80 79.30 771.55 79.10Q771.30 78.90 770.80 78.90L770.80 78.90Q766.40 78.90 755.70 80.80L755.70 80.80L755.70 85.70Z"/></svg>