<svg xmlns="http://www.w3.org/2000/svg" xmlns:xlink="http://www.w3.org/1999/xlink" width="700" height="109.60000000000001"><path d="M68.50 43.30L71.70 39.90L76.20 43.60L72.40 47.60L68.50 43.30ZM60.70 48.90L82.70 48.90L82.70 51.30L59.20 51.30L44.70 75.20L41.20 73L54.50 51.30L46.90 51.30L46.90 48.90L55.90 48.90L61.30 40.10L64.70 42.20L60.70 48.90ZM81.10 57.40L75.30 63.10Q76.20 64.40 77.90 65.40Q79.60 66.40 82.70 67.30L82.70 67.30L77.10 77.50Q73 76.80 70.25 75.60Q67.50 74.40 65.60 72.80L65.60 72.80L61.80 76.70L58.90 73.90L63.10 69.70Q61.10 66.20 61.05 62Q61 57.80 61 53.70L61 53.70L74.10 53.70L74.10 58.60L78.30 54.50L81.10 57.40ZM59.70 27.10L55.10 32.10L50.20 26.80L54.20 22.60L59.70 27.10ZM42.30 37.60L42.30 40.80Q42.30 43.80 42.35 47.55Q42.40 51.30 40.95 55.15Q39.50 59 35.85 62.55Q32.20 66.10 24.80 68.60L24.80 68.60L17.30 57.10Q20.50 55.80 22.25 54.20Q24 52.60 24.80 50.65Q25.60 48.70 25.70 46.20Q25.80 43.70 25.80 40.80L25.80 40.80L25.80 35.30L73.10 35.30L73.10 37.60L42.30 37.60ZM143.10 35L172.20 35L175 71.50L154.70 71.50L157.30 37.40L143.10 37.40L143.10 35ZM125.80 71.50L125 39.10L130.20 39.10L129.20 71.50L125.80 71.50ZM129.50 32.70L133.40 28.60L138.90 33.10L134.40 38L129.50 32.70ZM258.50 67.20L272.80 67.20L272.80 69.50L227.20 69.50L227.20 67.20L233.60 67.20L232.70 45.20L238.30 45.20L237.70 67.20L245.50 67.20L243.30 32.80L228.90 32.80L228.90 30.50L272 30.50L272 32.80L260.30 32.80L259.50 48.60L271.10 48.60L271.10 51L259.30 51L258.50 67.20ZM383.10 41.10L365.50 41.10L363.70 47.80L378.60 47.80L376.70 72.70L344.30 72.70L344.30 70.40L343.60 47.80L353.10 47.80L352.30 41.10L337.70 41.10L337.70 38.80L383.10 38.80L383.10 41.10ZM321.20 78.40L321.70 49L316.90 49L316.90 46.70L338.10 46.70L331.80 76.10L365.30 76.10L365.30 78.40L321.20 78.40ZM349.60 21.80L356.20 32.50L350.10 36.60L341.90 27.60L349.60 21.80ZM363.70 65.10L348.10 65.10L347.90 70.40L364.20 70.40L363.70 65.10ZM348.50 57.60L348.20 62.80L363.60 62.80L363.20 57.60L348.50 57.60ZM348.80 50.10L348.60 55.30L363 55.30L362.60 50.10L348.80 50.10ZM372 21.60L375.70 24.60L364.10 36.70L361.20 34.50L372 21.60ZM329.80 44.10L324.90 38.80L328.80 34.50L334.30 39.10L329.80 44.10ZM441.70 53.20L441.50 60.20L447.80 60.20L447.80 62.50L441.40 62.50L441.10 71.70L438.40 71.80L438.10 62.50L424.60 62.50L424.60 60.20L438 60.20L437.80 53.20L432.20 53.20Q431.40 54.10 430.85 54.60Q430.30 55.10 429.90 55.50L429.90 55.50Q429.40 55.90 428.90 56.30L428.90 56.30L422.90 48.50Q425.80 46 427.35 42.85Q428.90 39.70 429.50 36.70L429.50 36.70L424.60 36.70L424.60 34.40L430.10 34.40Q430.40 31.70 430.40 30L430.40 30L430.40 28.20L440.10 28.20Q440.20 29.90 440.20 31.45Q440.20 33 440 34.40L440 34.40L447.80 34.40L447.80 36.70L439.80 36.70Q439 41.40 437.40 44.95Q435.80 48.50 434 50.90L434 50.90L437.70 50.90L437.50 45.20L442 45.10L441.90 50.90L446.30 50.90L446.30 53.20L441.70 53.20ZM448.80 29L472.50 29Q472.30 30.80 471.90 32.70L471.90 32.70Q471.40 34.50 470.60 36.70Q469.80 38.90 468.30 41.20L468.30 41.20L477.10 50L473.80 53.30L465.40 44.90Q463 47.50 459.40 49.75Q455.80 52 450.90 53.30L450.90 53.30L445.30 46.30Q448.90 45.50 451.90 43.50L451.90 43.50Q454.40 41.90 456.70 38.95Q459 36 459.70 31.30L459.70 31.30L448.80 31.30L448.80 29ZM466.30 57.50L464.70 68.60L474.60 68.60L474.60 70.90L448.80 70.90L448.80 68.60L458.70 68.60L457.10 57.50L449.80 57.50L449.80 55.20L473.60 55.20L473.60 57.50L466.30 57.50ZM573.50 59L579.30 56.80L585.70 69.10L577.80 72.40L576.60 68.70L554.40 70.70L552.20 68.40Q556.20 65.20 558.75 61.60Q561.30 58 562.90 55L562.90 55Q564.60 51.30 565.60 47.90L565.60 47.90L569.20 49.70Q568.50 53 567.10 55.80Q565.70 58.60 564.05 60.90Q562.40 63.20 560.75 65Q559.10 66.80 557.70 68L557.70 68L576 66.40L573.50 59ZM591.10 45.80L585.40 52.90L572.70 39.70L576.30 35.30L591.10 45.80ZM560.30 27.50L572.20 33.20Q570.90 38.60 567.95 42.45Q565 46.30 561.90 48.80L561.90 48.80Q558.20 51.80 554.20 53.70L554.20 53.70L544.80 45.50Q549 43 551.95 39.95Q554.90 36.90 556.80 34.10L556.80 34.10Q558.90 30.90 560.30 27.50L560.30 27.50ZM536.40 52L540.30 47.70L545.70 52.20L541.20 57.20L536.40 52ZM544.10 41.20L536.20 41.20L533.90 70.80L527 70.80L524.70 41.20L514.80 41.20L514.80 38.90L524.50 38.90L523.80 30.20L537.10 30.20L536.40 38.90L544.10 38.90L544.10 41.20ZM518.40 51.90L518.40 46.60L522.70 46.60L522.70 51.90Q522.70 57.20 521.05 61.10Q519.40 65 517.50 67.50L517.50 67.50Q515.30 70.50 512.50 72.60L512.50 72.60L508.90 70.70Q511.50 68.80 513.60 66.10L513.60 66.10Q515.50 63.80 516.95 60.25Q518.40 56.70 518.40 51.90L518.40 51.90ZM625.50 28.10L638.60 34.50Q637.10 40.40 633.80 44.70Q630.50 49 627 51.90L627 51.90L631.30 51.90L631 65.50L624 65.50L623.50 54.40Q621.50 55.80 620.10 56.50L620.10 56.50Q619.30 56.90 618.60 57.20L618.60 57.20L608.30 48Q613 45.30 616.25 41.90Q619.50 38.50 621.60 35.40L621.60 35.40Q624 31.70 625.50 28.10L625.50 28.10ZM678.40 44.30L691.70 61L683.10 67.60L673.10 48.20L678.40 44.30ZM671.30 41.40L669.60 62.20L676.50 62.20L676.50 64.50L669.40 64.50L668.70 72.30L657.60 72.40L656.90 64.50L649.80 64.50L649.80 62.20L656.70 62.20L654.90 41.40L638.40 41.40L638.40 39L654.70 39L653.70 27.20L672.40 27.10L671.40 39L685 39L685 41.40L671.30 41.40ZM644.20 52.20L644.20 46.20L648.50 46.20L648.50 52.20Q648.50 57.50 646.85 61.40Q645.20 65.30 643.30 67.80L643.30 67.80Q641.10 70.80 638.20 72.90L638.20 72.90L634.60 71Q637.20 69.10 639.30 66.40L639.30 66.40Q641.20 64.10 642.70 60.55Q644.20 57 644.20 52.20L644.20 52.20Z"/></svg>