<svg xmlns="http://www.w3.org/2000/svg" xmlns:xlink="http://www.w3.org/1999/xlink" width="700" height="100"><path d="M33.79 71.09L33.79 71.09Q26.56 74.61 19.53 78.52L19.53 78.52Q20.70 81.05 23.83 83.59L23.83 83.59Q25 84.18 26.56 84.57L26.56 84.57Q34.57 81.05 41.99 75.98L41.99 75.98Q42.38 74.02 43.36 72.27L43.36 72.27Q43.16 71.09 42.58 70.51L42.58 70.51Q38.09 70.31 33.79 71.09ZM15.82 57.62L15.82 57.62Q13.67 58.20 11.91 59.38L11.91 59.38Q13.67 63.09 17.58 65.23L17.58 65.23Q28.52 63.48 38.87 60.74L38.87 60.74L38.87 58.59Q35.74 56.45 31.25 56.05L31.25 56.05Q23.24 56.64 15.82 57.62ZM19.92 38.67L19.92 38.67Q21.48 40.82 24.02 43.36L24.02 43.36Q26.17 44.53 28.91 45.70L28.91 45.70Q34.18 45.31 39.45 45.31L39.45 45.31Q41.60 43.75 41.21 41.80L41.21 41.80Q39.45 40.82 38.09 40.43L38.09 40.43Q28.71 38.87 19.92 38.67ZM56.84 49.02L56.84 49.02Q48.63 49.02 40.82 50L40.82 50Q41.99 53.91 46.68 56.05L46.68 56.05Q48.24 56.05 50 55.86L50 55.86Q46.68 61.52 43.16 67.58L43.16 67.58Q44.34 70.12 46.68 71.88L46.68 71.88Q49.02 72.27 50.98 71.48L50.98 71.48Q54.10 67.58 57.42 63.28L57.42 63.28Q58.01 72.85 58.20 82.42L58.20 82.42Q59.77 83.79 61.52 85.74L61.52 85.74Q62.70 86.52 64.45 86.72L64.45 86.72Q65.23 86.13 65.82 85.74L65.82 85.74Q64.45 75.98 65.43 66.02L65.43 66.02Q75.39 70.90 86.72 73.44L86.72 73.44Q87.70 72.66 88.28 71.88L88.28 71.88Q88.09 70.51 86.91 69.73L86.91 69.73Q76.17 65.82 65.82 60.55L65.82 60.55Q65.43 57.81 65.82 55.08L65.82 55.08Q71.29 54.30 76.76 53.52L76.76 53.52L76.76 51.37Q75.39 49.80 73.44 49.41L73.44 49.41Q69.73 48.83 66.02 48.83L66.02 48.83Q65.63 42.38 64.84 35.94L64.84 35.94Q64.26 34.96 63.48 34.38L63.48 34.38Q59.77 33.20 55.86 33.20L55.86 33.20Q55.86 40.82 56.84 49.02ZM111.33 42.19L111.33 42.19Q112.70 44.92 115.82 47.46L115.82 47.46Q118.55 48.44 121.68 49.41L121.68 49.41Q123.44 48.83 125.59 49.02L125.59 49.02Q126.56 55.27 126.56 61.33L126.56 61.33Q120.31 61.72 116.02 64.84L116.02 64.84Q118.36 67.58 121.68 70.12L121.68 70.12Q125 70.12 128.32 68.75L128.32 68.75Q129.88 72.46 131.05 76.56L131.05 76.56Q124.41 78.52 117.38 79.69L117.38 79.69Q118.55 82.03 120.90 84.18L120.90 84.18Q122.46 85.35 124.41 85.94L124.41 85.94Q133.01 84.18 141.41 81.84L141.41 81.84Q141.41 84.96 142.58 87.89L142.58 87.89Q145.12 90.63 147.46 93.36L147.46 93.36Q150 95.31 153.32 96.09L153.32 96.09Q166.41 95.90 179.10 94.14L179.10 94.14Q180.08 97.66 183.59 100.39L183.59 100.39Q184.96 100.98 186.72 100.98L186.72 100.98Q187.30 100.39 188.09 99.80L188.09 99.80Q187.50 89.84 188.87 81.25L188.87 81.25Q187.70 79.30 185.74 78.71L185.74 78.71Q182.81 78.13 179.88 77.93L179.88 77.93Q179.10 78.13 178.91 78.91L178.91 78.91L178.91 89.06Q174.41 88.67 169.73 89.45L169.73 89.45Q168.95 83.20 169.53 76.37L169.53 76.37Q177.73 75.20 185.74 75.78L185.74 75.78Q187.30 74.41 186.33 72.46L186.33 72.46Q183.20 70.90 179.49 70.51L179.49 70.51L169.92 70.51Q169.34 64.65 170.70 59.18L170.70 59.18Q176.56 58.59 182.62 59.18L182.62 59.18Q183.98 58.20 183.79 56.64L183.79 56.64Q183.01 55.86 182.23 55.08L182.23 55.08Q177.34 53.71 172.27 53.32L172.27 53.32Q163.48 53.13 154.69 53.52L154.69 53.52Q154.30 51.95 154.69 50.20L154.69 50.20Q153.13 48.24 150.98 47.85L150.98 47.85Q148.05 47.46 145.31 47.46L145.31 47.46Q144.73 49.02 143.95 50.59L143.95 50.59Q143.95 58.40 144.73 66.02L144.73 66.02Q146.68 67.77 148.83 70.12L148.83 70.12Q150.39 71.09 152.34 70.70L152.34 70.70Q152.73 70.12 153.32 69.53L153.32 69.53L153.32 61.72Q156.84 59.96 160.55 59.96L160.55 59.96Q160.16 64.65 160.55 70.70L160.55 70.70Q151.95 72.27 143.75 72.27L143.75 72.27Q143.16 72.66 143.36 73.44L143.36 73.44Q144.73 74.61 146.48 76.56L146.48 76.56Q142.38 76.17 138.09 75.98L138.09 75.98Q136.33 71.68 135.94 66.80L135.94 66.80Q138.87 65.43 142.38 65.23L142.38 65.23Q143.36 64.06 143.36 62.50L143.36 62.50Q143.16 61.52 142.58 61.13L142.58 61.13Q138.67 60.55 135.55 59.38L135.55 59.38Q135.16 54.10 134.96 49.22L134.96 49.22Q137.70 49.02 140.63 48.63L140.63 48.63Q141.80 47.66 141.60 46.09L141.60 46.09Q140.04 44.14 137.70 43.75L137.70 43.75Q125.20 42.97 111.33 42.19ZM147.27 77.34L147.27 77.34Q148.24 77.73 149.22 78.52L149.22 78.52Q155.08 78.91 160.74 77.73L160.74 77.73Q161.13 82.62 161.52 87.89L161.52 87.89Q162.30 88.67 163.28 90.04L163.28 90.04Q157.42 90.63 152.15 90.43L152.15 90.43Q150.98 86.33 150.39 82.81L150.39 82.81Q147.66 81.05 144.34 81.25L144.34 81.25Q146.09 79.69 147.27 77.34ZM169.92 44.73L169.92 44.73Q170.70 48.05 173.24 50.78L173.24 50.78Q176.17 50.59 178.32 49.02L178.32 49.02Q181.45 40.63 183.79 32.23L183.79 32.23Q182.03 29.88 179.30 29.49L179.30 29.49Q176.95 29.49 175 29.10L175 29.10Q171.29 36.33 169.92 44.73ZM155.27 30.86L155.27 30.86Q155.27 35.74 156.84 40.23L156.84 40.23Q158.79 41.99 160.94 44.34L160.94 44.34Q162.50 45.31 164.65 45.31L164.65 45.31Q165.43 44.73 166.21 43.95L166.21 43.95Q166.02 41.60 164.84 40.04L164.84 40.04Q165.04 34.77 166.21 30.66L166.21 30.66Q162.30 28.13 157.62 27.93L157.62 27.93Q156.25 28.91 155.27 30.86ZM141.99 27.93L141.99 27.93Q141.21 29.88 141.41 32.23L141.41 32.23Q142.58 35.55 143.55 39.26L143.55 39.26Q146.48 42.97 150 46.48L150 46.48Q152.34 48.24 155.47 48.44L155.47 48.44Q157.03 47.27 156.64 45.31L156.64 45.31Q155.27 43.75 153.71 42.58L153.71 42.58Q151.37 38.67 150.78 33.98L150.78 33.98Q151.37 32.62 151.37 31.05L151.37 31.05Q150.59 29.88 149.61 29.10L149.61 29.10Q145.70 27.73 141.99 27.93ZM157.23 19.34L157.23 19.34Q151.95 20.51 147.07 22.07L147.07 22.07Q147.07 24.41 149.61 26.37L149.61 26.37Q150.98 26.95 152.54 27.54L152.54 27.54Q158.59 26.37 164.65 25.20L164.65 25.20Q171.48 25 177.54 26.37L177.54 26.37Q178.71 25.20 178.71 23.63L178.71 23.63Q175.59 20.31 171.29 19.53L171.29 19.53Q164.45 18.75 157.23 19.34ZM207.81 33.20L207.81 33.20Q208.01 35.94 211.33 38.28L211.33 38.28Q212.70 39.06 214.65 39.65L214.65 39.65Q216.60 38.48 219.14 38.67L219.14 38.67Q219.92 52.93 220.70 67.58L220.70 67.58Q221.68 74.41 223.05 81.25L223.05 81.25Q224.22 84.18 225.59 87.30L225.59 87.30Q227.15 88.87 229.69 90.63L229.69 90.63Q231.05 90.43 231.84 89.45L231.84 89.45Q230.27 84.38 228.91 79.88L228.91 79.88Q228.32 74.41 228.52 68.95L228.52 68.95Q232.42 68.75 236.52 68.55L236.52 68.55Q235.55 68.95 235.55 70.12L235.55 70.12Q237.70 73.44 241.41 75.39L241.41 75.39Q243.95 75.39 246.29 73.83L246.29 73.83Q245.51 74.61 245.31 76.17L245.31 76.17Q247.46 78.52 250.39 80.86L250.39 80.86Q250.20 83.01 249.41 84.77L249.41 84.77Q242.58 82.03 234.96 81.45L234.96 81.45Q236.13 83.98 239.06 86.52L239.06 86.52Q258.40 92.77 279.10 96.29L279.10 96.29L284.18 96.29Q284.77 95.70 284.77 94.92L284.77 94.92Q281.05 92.77 277.15 91.80L277.15 91.80Q267.97 89.84 259.38 87.70L259.38 87.70Q259.77 84.38 259.57 81.05L259.57 81.05Q258.01 78.71 256.45 77.15L256.45 77.15Q258.79 74.41 260.16 71.48L260.16 71.48Q260.35 69.53 259.38 68.36L259.38 68.36Q257.81 66.99 255.86 66.60L255.86 66.60Q250.39 65.63 245.31 66.60L245.31 66.60Q247.27 64.84 248.44 62.30L248.44 62.30Q248.24 60.16 248.05 58.40L248.05 58.40Q246.29 54.69 243.36 52.15L243.36 52.15Q240.23 50.20 237.50 48.83L237.50 48.83Q240.04 47.07 242.97 45.31L242.97 45.31Q245.70 48.63 250 51.37L250 51.37Q251.56 51.37 252.93 50.39L252.93 50.39Q253.13 47.46 251.76 45.51L251.76 45.51Q248.83 43.36 245.51 42.58L245.51 42.58Q246.29 41.60 246.48 40.23L246.48 40.23Q246.29 38.09 244.73 36.91L244.73 36.91Q238.28 34.57 231.45 33.59L231.45 33.59Q221.29 32.62 211.33 32.23L211.33 32.23Q209.38 32.42 207.81 33.20ZM228.71 52.15L228.71 52.15Q233.98 51.56 238.48 53.71L238.48 53.71Q240.63 55.66 240.43 58.98L240.43 58.98Q238.48 61.13 235.74 62.30L235.74 62.30Q232.03 63.09 228.52 63.67L228.52 63.67Q228.32 57.62 228.71 52.15ZM228.91 38.67L228.91 38.67Q232.81 38.67 236.91 39.06L236.91 39.06Q233.40 42.97 228.71 44.92L228.71 44.92Q228.52 41.60 228.91 38.67ZM266.60 33.20L266.60 33.20Q263.87 33.20 261.33 33.01L261.33 33.01Q258.40 33.79 255.86 35.16L255.86 35.16Q257.62 38.09 261.33 40.63L261.33 40.63Q256.84 46.88 253.32 53.71L253.32 53.71Q252.15 56.64 251.37 59.38L251.37 59.38Q253.13 61.52 255.86 63.28L255.86 63.28L257.62 63.28Q259.57 58.20 262.70 54.69L262.70 54.69Q262.70 66.21 264.84 78.13L264.84 78.13Q266.41 81.45 267.97 84.96L267.97 84.96Q269.92 86.91 272.66 88.87L272.66 88.87Q274.61 89.26 275.59 87.89L275.59 87.89Q273.44 82.42 271.48 76.95L271.48 76.95Q271.09 74.80 271.29 72.66L271.29 72.66Q276.95 70.90 284.57 70.51L284.57 70.51Q284.77 71.88 284.57 73.44L284.57 73.44Q282.62 77.93 279.88 81.64L279.88 81.64Q281.64 83.79 283.98 85.55L283.98 85.55Q284.96 85.74 286.33 85.74L286.33 85.74Q289.45 83.20 291.02 79.10L291.02 79.10Q291.60 74.02 291.99 68.75L291.99 68.75Q291.21 62.89 290.23 57.42L290.23 57.42Q288.87 54.49 287.11 51.76L287.11 51.76Q283.98 48.24 280.47 45.90L280.47 45.90Q276.56 43.55 272.27 42.58L272.27 42.58Q273.24 40.82 275.20 39.06L275.20 39.06Q283.01 39.65 290.63 40.43L290.63 40.43Q292.38 39.65 291.99 37.50L291.99 37.50Q290.63 36.13 288.67 35.74L288.67 35.74Q283.40 35.35 278.91 33.98L278.91 33.98Q281.05 31.25 282.81 28.32L282.81 28.32Q283.01 26.37 281.64 25.20L281.64 25.20Q277.93 23.63 273.83 23.83L273.83 23.83Q270.31 28.32 266.60 33.20ZM283.01 58.98L283.01 58.98Q284.57 62.50 284.77 66.80L284.77 66.80Q278.13 64.84 271.29 64.84L271.29 64.84Q270.90 61.72 271.88 59.57L271.88 59.57Q276.95 58.40 283.01 58.98ZM272.46 47.85L272.46 47.85Q275.39 48.44 278.13 50L278.13 50Q279.88 51.37 281.25 53.32L281.25 53.32Q276.76 52.93 272.07 52.54L272.07 52.54Q271.48 50 272.46 47.85ZM364.06 47.85L364.06 47.85Q366.41 50 368.95 52.73L368.95 52.73Q374.80 54.69 381.05 56.45L381.05 56.45Q382.62 55.47 382.62 53.32L382.62 53.32Q381.64 51.95 380.27 50.98L380.27 50.98Q372.85 47.66 364.65 46.88L364.65 46.88Q363.87 46.88 364.06 47.85ZM319.53 47.85L319.53 47.85Q318.55 53.13 317.58 58.98L317.58 58.98Q319.34 62.70 322.85 65.04L322.85 65.04Q324.80 64.65 326.56 63.67L326.56 63.67Q327.93 57.42 330.27 51.56L330.27 51.56Q333.40 48.24 334.38 43.75L334.38 43.75Q333.79 42.58 333.01 41.99L333.01 41.99Q328.91 40.63 324.80 40.23L324.80 40.23Q322.07 43.95 319.53 47.85ZM344.34 53.52L344.34 53.52Q340.04 50.98 334.38 50.39L334.38 50.39Q333.59 51.95 333.01 54.10L333.01 54.10Q332.81 58.59 332.81 63.48L332.81 63.48Q333.20 66.02 333.98 68.75L333.98 68.75Q336.91 72.85 341.41 76.76L341.41 76.76Q343.36 77.73 345.31 78.91L345.31 78.91Q348.24 79.30 351.37 79.88L351.37 79.88Q355.47 79.10 358.98 76.95L358.98 76.95Q361.33 74.61 363.67 72.27L363.67 72.27Q366.02 68.36 368.36 64.26L368.36 64.26Q368.95 61.72 369.34 59.18L369.34 59.18Q368.36 57.81 367.19 56.84L367.19 56.84Q364.84 56.05 362.70 56.84L362.70 56.84Q360.74 62.30 357.23 67.19L357.23 67.19Q354.69 69.73 351.76 72.07L351.76 72.07Q349.02 73.63 346.09 74.22L346.09 74.22Q343.75 72.66 342.77 70.12L342.77 70.12Q341.99 63.87 343.36 57.81L343.36 57.81Q343.55 55.86 344.92 55.66L344.92 55.66Q346.48 59.57 350.59 62.50L350.59 62.50Q351.76 62.89 353.32 63.09L353.32 63.09Q354.30 62.30 355.08 61.52L355.08 61.52Q354.49 58.59 353.52 55.86L353.52 55.86Q353.52 49.41 354.30 43.36L354.30 43.36Q353.71 42.58 353.32 41.80L353.32 41.80Q349.22 39.84 344.53 39.84L344.53 39.84Q342.77 46.29 344.34 53.52ZM450.59 24.80L450.59 24.80Q439.06 30.66 427.34 37.30L427.34 37.30Q427.34 39.65 430.08 41.80L430.08 41.80Q431.64 42.19 433.59 42.58L433.59 42.58Q438.09 40.04 442.97 38.28L442.97 38.28Q444.92 40.23 446.29 43.16L446.29 43.16Q436.91 45.51 428.13 48.63L428.13 48.63Q425.59 50.59 423.63 52.73L423.63 52.73Q425.78 55.86 429.10 58.59L429.10 58.59Q430.86 59.18 433.01 58.79L433.01 58.79Q434.38 57.23 435.74 55.86L435.74 55.86Q442.77 51.76 450.39 50L450.39 50Q452.54 54.10 454.88 58.59L454.88 58.59Q449.61 59.57 444.34 59.96L444.34 59.96Q430.27 63.09 416.60 66.80L416.60 66.80Q416.41 67.58 416.41 68.55L416.41 68.55Q418.95 71.68 422.46 74.02L422.46 74.02Q439.26 67.97 457.23 64.06L457.23 64.06Q458.79 67.38 459.96 71.09L459.96 71.09Q460.16 74.22 460.16 77.15L460.16 77.15Q459.57 79.10 458.20 81.25L458.20 81.25Q455.47 83.79 452.73 85.74L452.73 85.74Q447.66 88.09 442.38 89.84L442.38 89.84Q434.38 90.82 426.76 92.38L426.76 92.38Q426.95 93.55 428.32 94.53L428.32 94.53Q430.47 94.53 432.42 95.51L432.42 95.51Q438.09 94.92 443.75 94.53L443.75 94.53Q449.22 92.97 454.88 91.41L454.88 91.41Q458.98 89.45 462.89 87.11L462.89 87.11Q464.26 85.55 465.63 84.18L465.63 84.18Q466.60 81.64 467.38 79.30L467.38 79.30Q467.58 76.17 467.38 73.05L467.38 73.05Q465.82 67.58 464.65 62.70L464.65 62.70Q473.24 61.72 482.42 62.11L482.42 62.11Q483.59 61.33 483.40 59.77L483.40 59.77Q482.23 58.59 481.25 58.20L481.25 58.20Q471.88 57.23 462.50 58.20L462.50 58.20Q459.77 52.93 457.81 47.85L457.81 47.85Q463.48 47.07 468.75 45.12L468.75 45.12Q468.95 43.16 467.58 42.19L467.58 42.19Q464.45 41.41 461.52 41.02L461.52 41.02Q457.81 41.41 454.30 41.99L454.30 41.99Q452.15 38.09 448.83 35.94L448.83 35.94Q454.10 33.79 459.77 31.25L459.77 31.25Q462.11 31.05 464.45 30.86L464.45 30.86Q465.43 30.27 466.21 29.30L466.21 29.30Q466.41 26.56 464.26 25.39L464.26 25.39Q460.74 24.41 457.03 24.22L457.03 24.22Q453.71 24.41 450.59 24.80ZM523.24 79.88L523.24 79.88Q525.20 83.40 528.91 85.74L528.91 85.74Q530.08 85.74 531.45 85.74L531.45 85.74Q532.81 84.57 534.38 83.59L534.38 83.59Q548.83 82.23 563.67 82.03L563.67 82.03Q565.04 80.86 564.65 79.10L564.65 79.10Q561.52 77.54 558.01 77.15L558.01 77.15Q542.58 76.95 527.34 76.95L527.34 76.95Q525.20 78.13 523.24 79.88ZM537.30 41.60L537.30 41.60Q533.98 53.91 533.20 67.19L533.20 67.19Q535.35 69.34 537.89 71.68L537.89 71.68Q539.26 72.07 541.02 72.07L541.02 72.07Q545.90 68.75 551.37 66.21L551.37 66.21Q553.32 65.82 555.66 65.82L555.66 65.82Q559.18 66.41 562.70 68.36L562.70 68.36Q564.84 69.92 566.41 72.46L566.41 72.46Q567.97 75.98 567.38 80.47L567.38 80.47Q566.02 83.20 564.06 85.74L564.06 85.74Q562.11 86.91 560.16 88.87L560.16 88.87Q556.25 90.43 552.54 91.80L552.54 91.80Q548.05 91.99 544.14 92.58L544.14 92.58Q543.75 93.16 543.55 93.75L543.55 93.75Q545.12 95.90 548.63 96.68L548.63 96.68Q554.10 96.48 559.38 95.70L559.38 95.70Q563.48 94.34 567.58 92.38L567.58 92.38Q570.70 90.04 573.63 86.91L573.63 86.91Q574.22 84.96 575 83.20L575 83.20Q575 79.30 574.61 75.98L574.61 75.98Q572.85 72.46 570.51 69.53L570.51 69.53Q566.60 66.02 562.11 63.48L562.11 63.48Q558.98 62.30 556.25 61.33L556.25 61.33Q549.22 59.57 542.38 61.33L542.38 61.33Q542.97 58.59 543.75 55.47L543.75 55.47Q554.69 51.37 567.19 50.98L567.19 50.98Q568.95 49.80 568.75 47.66L568.75 47.66Q565.04 46.09 561.33 45.51L561.33 45.51Q554.10 45.90 547.07 46.68L547.07 46.68Q547.85 43.95 548.63 41.02L548.63 41.02Q547.27 39.26 545.70 38.67L545.70 38.67Q542.58 38.48 540.04 37.89L540.04 37.89Q538.28 39.26 537.30 41.60ZM522.07 26.95L522.07 26.95Q522.07 36.13 522.07 46.68L522.07 46.68Q522.46 50.20 523.63 53.52L523.63 53.52Q525.98 56.84 529.69 59.38L529.69 59.38Q530.66 59.57 532.03 59.38L532.03 59.38Q533.01 58.20 532.81 56.84L532.81 56.84Q530.47 54.49 530.27 51.76L530.27 51.76Q530.08 44.92 530.66 38.28L530.66 38.28Q531.64 37.89 533.01 38.09L533.01 38.09Q534.18 36.91 535.55 35.74L535.55 35.74Q540.23 33.79 545.12 32.23L545.12 32.23Q554.10 30.47 564.06 30.66L564.06 30.66Q566.41 31.05 568.95 31.64L568.95 31.64Q569.92 33.20 569.73 35.55L569.73 35.55Q568.36 39.84 565.43 43.16L565.43 43.16Q567.38 45.70 570.31 47.85L570.31 47.85L572.66 47.85Q574.22 46.48 575.59 44.92L575.59 44.92Q577.15 41.41 577.93 38.28L577.93 38.28Q577.93 33.79 575.20 30.86L575.20 30.86Q571.88 28.13 567.77 27.15L567.77 27.15Q563.09 26.37 558.59 25.78L558.59 25.78L543.75 25.78Q538.87 26.17 534.18 27.15L534.18 27.15Q533.40 24.41 531.05 23.83L531.05 23.83Q528.13 23.44 525.20 23.24L525.20 23.24Q523.44 24.80 522.07 26.95ZM625.59 37.11L625.59 37.11Q622.66 41.02 619.14 43.95L619.14 43.95Q614.45 49.41 611.72 56.25L611.72 56.25Q610.74 59.18 610.55 62.89L610.55 62.89Q612.50 65.04 615.04 66.99L615.04 66.99L617.19 66.99Q619.14 61.72 621.68 57.03L621.68 57.03Q624.80 69.73 630.08 81.25L630.08 81.25Q632.23 83.40 635.16 85.74L635.16 85.74Q636.72 85.94 638.28 85.35L638.28 85.35Q638.28 84.38 638.67 83.59L638.67 83.59Q635.35 76.95 633.40 70.51L633.40 70.51Q632.81 65.43 631.64 61.13L631.64 61.13Q631.05 55.66 631.45 50.59L631.45 50.59Q630.08 49.22 629.10 48.63L629.10 48.63Q632.03 45.90 635.16 43.55L635.16 43.55Q637.50 43.16 639.84 42.97L639.84 42.97Q641.21 41.41 640.63 39.65L640.63 39.65L639.06 38.09Q635.16 37.11 631.45 36.52L631.45 36.52Q628.32 36.33 625.59 37.11ZM657.42 22.07L657.42 22.07Q657.23 32.62 657.81 43.75L657.81 43.75Q646.09 45.12 636.13 48.63L636.13 48.63Q637.70 50.59 640.23 53.13L640.23 53.13Q641.99 54.49 644.92 54.49L644.92 54.49Q641.60 58.98 638.48 64.06L638.48 64.06Q637.11 67.58 635.94 70.90L635.94 70.90Q635.55 72.85 635.94 74.80L635.94 74.80Q638.09 77.15 640.63 79.30L640.63 79.30Q641.99 79.49 643.55 79.49L643.55 79.49Q644.34 79.10 644.73 78.32L644.73 78.32Q644.73 76.56 644.14 75.39L644.14 75.39Q644.92 72.85 645.90 70.31L645.90 70.31Q650.78 62.89 657.81 56.84L657.81 56.84Q659.18 63.87 659.18 72.07L659.18 72.07Q654.10 72.07 650.78 74.61L650.78 74.61Q653.52 78.32 657.42 80.47L657.42 80.47Q658.59 80.47 659.77 80.27L659.77 80.27Q660.74 86.52 660.94 93.16L660.94 93.16Q662.11 95.12 664.45 97.27L664.45 97.27Q665.63 98.05 667.58 97.85L667.58 97.85Q667.97 97.27 668.36 96.88L668.36 96.88Q665.82 88.48 665.63 79.49L665.63 79.49Q672.07 78.32 678.32 76.95L678.32 76.95Q678.32 75.20 677.93 74.02L677.93 74.02Q675.78 72.85 673.63 72.46L673.63 72.46Q669.73 71.88 665.82 72.07L665.82 72.07Q665.23 64.84 666.21 58.01L666.21 58.01Q672.66 61.33 678.71 66.02L678.71 66.02Q680.27 67.77 680.66 70.31L680.66 70.31Q682.81 72.27 685.16 74.61L685.16 74.61Q686.52 75.20 688.28 75.20L688.28 75.20Q688.87 74.61 689.65 74.02L689.65 74.02L689.65 71.48Q687.50 67.38 683.98 64.06L683.98 64.06Q676.95 58.40 670.31 53.71L670.31 53.71Q668.55 52.54 666.60 52.54L666.60 52.54Q666.21 50.98 666.41 49.41L666.41 49.41Q674.22 47.07 683.01 47.27L683.01 47.27Q683.79 46.68 684.18 45.90L684.18 45.90Q684.18 44.14 683.20 43.36L683.20 43.36Q680.08 42.19 676.76 41.99L676.76 41.99Q671.88 41.99 667.19 42.38L667.19 42.38Q666.99 33.59 667.38 24.80L667.38 24.80Q665.63 22.85 663.67 22.46L663.67 22.46Q660.35 21.88 657.42 22.07Z"/></svg>