<svg xmlns="http://www.w3.org/2000/svg" xmlns:xlink="http://www.w3.org/1999/xlink" width="500" height="100"><path d="M56 84.50L50.70 80.50L45.50 41.40L50.30 36L62.50 36.40L63.20 3.70L72.50 3.80L72.30 17.30L90.80 18.20L90.30 27.50L72.10 26.70L72 36.70L88.20 37.20L92.70 42.40L88.80 76.40L84.80 80.50L56 84.50ZM10.20 83.30L8.30 74L26.70 70.40L32.40 30L41.80 31.30L36.50 68.40L43.80 67L45.70 76.30L10.20 83.30ZM55.50 45.70L59.40 74.70L79.80 71.70L82.80 46.40L55.50 45.70ZM8.40 27.70L7.40 18.30L20.10 16.90L17.30 8.40L26.20 5.40L29.70 15.90L43.40 14.40L44.40 23.80L8.40 27.70ZM16.90 65.90L9.70 35.50L18.90 33.40L26 63.80L16.90 65.90ZM109 16.50L108 7.10L146.30 2.90L147.30 12.20L141.70 12.90L140.70 25.60L145.30 25.60L150 30.10L153.10 76.40L149 81.20L113.80 85.70L108.40 81.10L108.40 30.40L113 25.60L119.90 25.60L120.60 15.20L109 16.50ZM184.30 83.70L159.80 83.10L155.10 78.60L154.40 51.50L159.10 46.60L187.40 46.60L192 51.90L189 79.50L184.30 83.70ZM155.90 25.60L150.90 19.40L156.80 2.40L165.60 5.50L162.30 15.40L168 14.80L168 3.90L177.50 4L177.40 13.70L186.60 12.70L187.80 22.10L177.40 23.30L177.40 33.10L191.80 33.60L191.50 43L152.60 41.60L152.90 32.20L168 32.80L168 24.30L155.90 25.60ZM117.80 35.10L117.80 62.40L136.60 60L137.80 69.20L117.90 71.80L117.90 75.70L143.40 72.50L142.40 57.80L133.40 56.50L129.40 51.40L130.60 35.10L128.80 35.10L127.40 56.40L117.90 55.70L119.30 35.10L117.80 35.10ZM164.50 73.90L180.10 74.10L182.10 56.10L164 56.10L164.50 73.90ZM140.90 35.10L140 35.10L139.10 47.70L141.70 48.10L140.90 35.10ZM130.20 14.10L129.40 25.60L131.30 25.60L132.20 13.90L130.20 14.10ZM236.90 57.10L236.20 47.70L255.80 46.20L255.10 21.80L241.80 21L242.30 11.50L254.80 12.30L254.50 3.10L264 2.90L264.30 12.80L283.90 14L288.20 20.10L280.80 44.40L291.90 43.50L292.70 52.90L261.90 55.20L241.90 84.90L234.20 79.60L250 56.10L236.90 57.10ZM215.90 53L207.40 49L216.70 29.60L221.70 32L222.90 4.20L232.30 4.60L231.60 20.50L245.90 30.60L240.50 38.40L231.10 31.80L228.80 84.40L219.40 84L221.20 41.90L215.90 53ZM284 85.20L264.40 64.90L271.20 58.40L290.80 78.70L284 85.20ZM277.40 23.10L264.50 22.40L265.20 45.50L270.70 45.10L277.40 23.10ZM385.40 45.10L357.40 45.90L359.20 66.30L357.80 69.90L342 85.60L335.40 78.90L349.70 64.80L348 46.20L319.50 47L314.80 42L316.90 11.30L321.30 6.90L384.90 2.50L385.50 12L326 16L324.50 37.50L347.20 36.80L345.80 20.30L355.20 19.40L356.60 36.50L385.20 35.60L385.40 45.10ZM334.50 57.10L317.20 82.60L309.40 77.30L326.80 51.90L334.50 57.10ZM390.70 72.40L383 77.90L367.20 55.80L374.80 50.30L390.70 72.40ZM489.80 23.40L468.20 26.10L466.70 55.90L472.80 54.90L474.30 64.20L466.20 65.60L465.10 86.50L455.60 86L456.60 67.20L447 68.80L445.30 59.50L457.10 57.50L458.70 27.20L453.70 27.80L437 81.80L428 78.90L443.40 29.10L429.70 30.70L428.60 21.30L459.20 17.60L460.10 1.70L469.50 2L468.70 16.50L488.70 14L489.80 23.40ZM431.60 11.70L423.70 19.60L425.20 86L415.80 86.30L414.40 28.90L410 33.40L403.20 26.80L424.80 5L431.60 11.70ZM496.80 72L488.50 76.20L468.60 36.30L477 32L496.80 72Z"/></svg>