<svg xmlns="http://www.w3.org/2000/svg" xmlns:xlink="http://www.w3.org/1999/xlink" width="500" height="130.859375"><path d="M56.64 108.20L53.91 107.81L44.53 107.03Q37.50 106.64 33.98 104.69L33.98 104.69Q33.20 104.30 32.42 102.73L32.42 102.73L29.30 101.56Q28.52 101.17 27.73 99.61L27.73 99.61L26.56 94.92L26.17 87.50Q26.17 79.69 26.56 73.83L26.56 73.83L26.56 64.45L26.17 64.45Q24.61 64.84 23.44 64.45L23.44 64.45Q23.05 64.45 20.70 63.67L20.70 63.67L17.97 61.72L16.02 60.55L13.28 58.59Q12.11 58.20 11.33 56.25L11.33 56.25Q10.55 54.69 11.33 53.52L11.33 53.52L22.66 30.08Q23.05 29.30 24.22 26.76Q25.39 24.22 26.56 24.22L26.56 24.22Q28.13 23.44 29.30 24.22L29.30 24.22Q33.98 25.39 36.72 28.13L36.72 28.13Q41.80 30.08 42.19 33.59L42.19 33.59L45.70 33.20Q61.33 33.20 68.16 33.98Q75 34.77 76.56 37.11L76.56 37.11L76.95 37.89Q80.08 38.28 81.25 40.23L81.25 40.23Q82.81 42.97 82.81 53.13L82.81 53.13Q82.81 72.66 81.64 79.30L81.64 79.30Q80.86 81.25 79.69 81.64L79.69 81.64L77.73 82.42L75.39 82.81Q73.44 82.81 70.31 81.64L70.31 81.64Q69.53 81.25 68.75 79.30L68.75 79.30L67.97 79.30L67.97 81.64Q67.97 83.59 66.02 84.38L66.02 84.38Q62.50 85.16 60.55 84.77L60.55 84.77Q57.03 84.77 55.47 83.20L55.47 83.20L54.30 83.98Q53.91 84.38 51.95 84.38L51.95 84.38L45.31 84.38L45.70 91.80L47.27 91.80Q69.92 91.80 78.52 89.84L78.52 89.84Q80.86 89.84 81.64 91.02L81.64 91.02L83.20 93.36L83.20 92.97Q85.55 92.97 86.33 94.14L86.33 94.14Q90.23 99.22 89.06 104.30L89.06 104.30Q88.67 105.47 86.72 106.25L86.72 106.25L75.78 107.42L65.63 107.81Q59.77 107.81 56.64 108.20L56.64 108.20ZM50.78 102.73L71.09 101.95L82.03 100.78Q82.42 100 82.42 98.83L82.42 98.83Q82.42 95.31 79.69 92.19L79.69 92.19Q71.88 94.14 47.27 94.14L47.27 94.14Q43.75 94.14 39.45 92.97L39.45 92.97Q38.28 92.19 38.28 78.91L38.28 78.91L48.83 78.91Q48.83 78.91 49.61 76.56L49.61 76.56Q49.61 74.22 49.22 72.66L49.22 72.66Q48.44 71.88 48.44 71.48L48.44 71.48Q48.05 71.09 38.28 71.09L38.28 71.09Q38.28 63.28 38.67 60.55L38.67 60.55Q38.67 55.47 39.06 53.91L39.06 53.91Q38.67 52.34 34.77 51.95L34.77 51.95Q31.25 51.95 30.47 53.13L30.47 53.13Q28.91 56.25 28.91 73.83L28.91 73.83L28.52 87.50L28.91 94.53Q29.69 98.83 30.08 99.22L30.08 99.22Q32.42 101.17 39.84 101.56L39.84 101.56L50.78 102.73ZM50 69.53L50 66.41L48.05 66.02Q46.48 66.02 45.70 64.84L45.70 64.84L45.31 68.75Q48.44 68.75 50 69.53L50 69.53ZM56.25 79.30Q58.59 79.69 60.94 78.91L60.94 78.91L62.11 56.25Q62.11 53.91 58.98 53.13L58.98 53.13L41.80 52.73Q41.02 54.69 41.80 57.03L41.80 57.03Q41.80 60.16 41.41 60.55L41.41 60.55L52.73 61.33L51.95 77.73Q52.34 79.30 56.25 79.30L56.25 79.30ZM70.70 77.34L74.61 76.56Q75.78 69.53 75.78 50L75.78 50Q75.78 40.63 74.61 38.28L74.61 38.28Q72.27 35.55 45.70 35.55L45.70 35.55L32.42 36.33L34.38 32.42Q35.16 30.08 35.16 30.08L35.16 30.08Q33.98 27.73 28.52 26.56L28.52 26.56Q28.13 26.17 27.34 26.17L27.34 26.17L24.61 31.25L12.89 55.86L18.36 58.98Q19.53 59.38 21.48 59.38L21.48 59.38L27.34 48.44L28.52 46.09Q28.52 44.92 29.30 44.14L29.30 44.14L65.23 44.92Q67.19 46.09 67.58 48.44L67.58 48.44L67.58 57.42Q67.58 62.89 67.19 65.63L67.19 65.63Q66.80 68.36 66.80 71.88L66.80 71.88Q66.41 73.83 66.41 76.17L66.41 76.17Q68.75 77.34 70.70 77.34L70.70 77.34ZM65.23 54.30L65.23 50.39L35.55 49.61Q39.06 50.39 39.84 51.17L39.84 51.17Q41.41 50.39 42.19 50.39L42.19 50.39L59.38 50.78Q62.11 51.17 64.06 53.91L64.06 53.91L65.23 54.30ZM121.48 110.16Q118.75 110.16 116.80 107.03L116.80 107.03Q113.67 107.03 112.50 103.91L112.50 103.91Q112.11 103.13 112.11 101.17L112.11 101.17Q111.72 83.20 111.72 58.59L111.72 58.59L111.72 37.50Q111.72 33.98 112.11 32.81L112.11 32.81L112.11 32.42Q112.11 30.47 112.50 30.08L112.50 30.08Q113.28 28.91 114.06 28.52L114.06 28.52Q116.41 27.73 119.14 27.73L119.14 27.73Q123.05 27.73 124.22 28.91L124.22 28.91Q124.61 27.34 126.56 27.34L126.56 27.34L176.95 26.95Q180.47 26.95 182.42 30.08L182.42 30.08Q187.50 30.86 187.50 35.94L187.50 35.94Q187.89 38.28 187.89 48.83L187.89 48.83L187.89 103.13Q187.89 105.08 187.50 105.47L187.50 105.47Q186.72 106.64 185.94 107.03L185.94 107.03Q183.59 108.20 180.08 108.20L180.08 108.20Q178.91 108.20 176.56 107.42L176.56 107.42Q176.17 108.98 174.22 108.98L174.22 108.98L121.48 110.16ZM130.86 93.75L142.58 93.36L142.19 92.58Q140.23 91.80 138.87 90.82Q137.50 89.84 137.50 88.67L137.50 88.67L137.89 86.33L136.33 87.11Q133.98 87.11 131.64 83.98L131.64 83.98L130.86 83.59L130.86 93.75ZM154.30 94.53Q155.86 93.36 156.64 91.41L156.64 91.41Q157.03 91.02 157.03 89.45L157.03 89.45Q157.03 88.28 157.42 87.89L157.42 87.89Q144.14 82.03 142.58 81.64L142.58 81.64L141.80 83.20Q141.41 83.59 141.41 84.18Q141.41 84.77 141.02 85.16L141.02 85.16Q139.84 87.50 139.84 88.67L139.84 88.67Q139.84 89.06 145.70 91.02L145.70 91.02L154.30 94.53ZM130.47 69.53L131.64 68.75Q132.42 67.97 132.81 67.97L132.81 67.97L136.33 65.63L136.33 65.63Q133.59 65.23 130.47 62.11L130.47 62.11L130.47 69.53ZM156.64 85.16Q158.20 83.59 158.59 82.42L158.59 82.42L159.77 78.13Q147.66 73.05 144.92 72.27L144.92 72.27Q143.75 73.44 142.97 75.78L142.97 75.78Q142.58 78.52 142.58 78.91L142.58 78.91Q142.58 79.30 148.44 81.64L148.44 81.64L156.64 85.16ZM116.80 104.69L169.53 103.52L169.53 99.61Q169.53 95.31 169.14 94.92L169.14 94.92L123.83 96.09L123.05 30.86Q123.05 30.08 119.14 30.08L119.14 30.08Q115.23 30.08 114.45 30.86L114.45 30.86L114.45 33.20Q114.06 33.98 114.06 37.50L114.06 37.50L114.06 58.59Q114.06 83.98 114.45 102.34L114.45 102.34Q115.23 104.69 116.80 104.69L116.80 104.69ZM169.92 92.97L169.92 85.16L168.36 84.77L166.41 83.20L165.63 86.33Q164.84 88.28 162.89 89.84L162.89 89.84Q164.06 90.23 164.45 90.82Q164.84 91.41 164.45 91.80L164.45 91.80L164.06 92.58L167.58 92.58Q169.14 92.58 169.92 92.97L169.92 92.97ZM175.39 102.73Q179.69 102.73 180.86 101.56L180.86 101.56L180.86 45.70Q180.86 35.16 180.47 33.20L180.47 33.20Q180.47 29.30 176.95 29.30L176.95 29.30L126.56 29.69Q125.78 35.55 126.17 35.94L126.17 35.94Q126.56 36.33 126.56 37.11L126.56 37.11L126.95 37.89L141.41 37.89L125.78 55.08Q128.52 59.38 132.42 60.16L132.42 60.16L140.63 50.78L148.44 50.78Q156.64 50.78 157.42 51.17L157.42 51.17Q157.03 52.73 148.44 59.38L148.44 59.38L141.02 54.69L137.89 57.42Q135.94 59.38 135.55 60.55L135.55 60.55L141.80 64.45Q139.45 66.41 132.81 70.70L132.81 70.70Q127.34 74.61 126.95 75L126.95 75Q126.56 76.56 128.13 78.52L128.13 78.52Q129.69 80.86 131.64 81.64L131.64 81.64L148.44 68.75L166.41 80.47L169.53 76.95Q171.09 75.39 171.09 73.44L171.09 73.44L155.47 63.67L162.50 58.20Q168.36 52.73 168.36 49.22L168.36 49.22Q168.36 47.66 166.41 45.70L166.41 45.70Q162.11 43.36 151.95 43.36L151.95 43.36L147.66 43.36L148.44 42.19L148.44 41.41Q148.44 39.84 146.48 38.67L146.48 38.67L144.92 37.89L171.88 37.50L172.27 101.95Q173.05 102.73 175.39 102.73L175.39 102.73ZM130.08 46.88L133.59 42.97L132.42 41.80Q131.25 40.63 131.25 40.23L131.25 40.23L130.08 40.23L130.08 46.88ZM169.92 69.92L169.53 62.11L168.75 63.28L164.45 66.41L169.92 69.92ZM169.53 45.70L169.53 42.97L166.41 43.36Q167.58 43.75 168.75 44.92L168.75 44.92L169.53 45.70ZM246.88 108.59Q244.53 108.59 244.53 106.25L244.53 106.25L244.53 105.86L242.19 105.47Q239.84 105.47 239.84 103.13L239.84 103.13L237.50 30.08Q237.50 28.13 241.02 26.56L241.02 26.56Q241.80 26.17 245.70 26.17L245.70 26.17Q251.17 26.17 251.56 29.30L251.56 29.30Q256.25 30.08 256.25 33.20L256.25 33.20Q259.38 76.56 258.59 105.47L258.59 105.47Q258.59 107.81 257.42 107.81L257.42 107.81Q254.69 108.98 251.17 108.98L251.17 108.98L246.88 108.59ZM221.09 82.81Q222.27 82.81 222.66 82.42L222.66 82.42Q226.17 70.31 228.91 65.63L228.91 65.63Q228.52 64.06 226.17 62.50L226.17 62.50Q223.83 61.33 221.88 62.11L221.88 62.11L220.70 62.11Q218.75 64.45 216.80 70.31L216.80 70.31Q215.23 75.39 214.45 79.30L214.45 79.30Q214.45 80.86 216.80 81.64L216.80 81.64Q218.36 82.81 221.09 82.81L221.09 82.81ZM225.78 88.28Q222.27 88.28 220.70 87.11L220.70 87.11Q218.36 85.94 217.19 84.38L217.19 84.38L216.02 83.98Q212.11 82.81 212.11 78.91L212.11 78.91Q212.11 78.91 214.45 69.53L214.45 69.53Q216.41 64.45 217.97 61.72L217.97 61.72L219.92 60.16L221.09 59.77L221.48 59.77L223.44 59.38Q225.39 59.38 227.34 60.55L227.34 60.55L230.08 62.89L232.03 63.67Q234.77 65.23 235.55 67.58L235.55 67.58Q235.94 69.14 235.16 70.70L235.16 70.70Q233.20 74.22 229.69 85.94L229.69 85.94Q229.30 88.28 225.78 88.28L225.78 88.28ZM242.19 103.13L246.48 103.52Q248.44 103.52 251.56 102.73L251.56 102.73Q252.34 73.83 249.22 30.08L249.22 30.08Q249.22 28.52 245.70 28.52L245.70 28.52Q242.58 28.52 241.80 28.91L241.80 28.91Q239.84 29.69 239.84 30.08L239.84 30.08L242.19 103.13ZM273.83 78.91L274.22 78.91Q275.39 78.91 278.13 76.95L278.13 76.95Q280.47 74.61 280.86 72.66L280.86 72.66L277.34 68.75L273.83 64.84Q269.53 60.94 267.97 60.55L267.97 60.55L267.19 60.55Q266.02 60.55 264.45 62.11L264.45 62.11Q262.11 64.45 262.11 66.41L262.11 66.41L262.11 66.80L266.80 71.88Q271.48 76.95 273.83 78.91L273.83 78.91ZM277.34 83.98L274.22 81.25Q273.05 81.25 272.66 80.86L272.66 80.86Q269.92 79.30 265.23 73.44L265.23 73.44L260.94 68.75Q259.77 67.58 259.77 67.19L259.77 67.19L259.77 66.41Q259.77 64.84 260.55 63.28Q261.33 61.72 262.89 60.55L262.89 60.55Q266.02 57.42 268.75 58.20L268.75 58.20Q269.92 58.59 273.44 61.33L273.44 61.33Q276.56 62.89 280.08 66.41L280.08 66.41L282.03 68.36L283.59 70.31L285.55 72.27L286.72 73.44Q287.89 74.61 287.89 75.78L287.89 75.78Q287.89 78.13 284.38 81.64L284.38 81.64Q279.69 85.55 277.34 83.98L277.34 83.98ZM369.14 102.73Q347.27 104.30 342.19 104.30L342.19 104.30Q328.52 104.30 323.05 101.56L323.05 101.56Q321.88 101.17 321.29 100.39Q320.70 99.61 319.92 99.22L319.92 99.22L318.36 98.44Q312.89 95.31 312.89 87.89L312.89 87.89Q313.28 63.67 315.23 47.66L315.23 47.66Q315.23 46.09 316.02 44.92L316.02 44.92Q317.19 42.97 320.31 42.97L320.31 42.97Q323.05 42.97 326.17 44.14L326.17 44.14L327.73 45.31Q328.91 43.36 331.25 43.36L331.25 43.36L333.20 43.36Q330.86 40.23 330.86 36.72L330.86 36.72Q330.86 33.59 332.81 33.20L332.81 33.20L352.73 25Q354.30 24.61 355.86 25.39L355.86 25.39L357.81 28.13Q359.38 27.34 360.55 28.52L360.55 28.52Q364.06 32.42 364.06 37.11L364.06 37.11Q364.06 39.45 362.11 40.63L362.11 40.63Q360.94 41.41 359.77 41.80Q358.59 42.19 357.42 42.58L357.42 42.58Q368.75 42.58 375.39 45.31L375.39 45.31Q378.13 46.48 380.08 48.44L380.08 48.44L380.08 48.44Q387.11 50.78 387.11 58.98L387.11 58.98Q386.72 65.63 386.72 79.30L386.72 79.30L385.55 98.44Q385.55 100 384.38 101.17L384.38 101.17Q382.81 102.73 380.08 102.73L380.08 102.73Q376.95 102.73 373.83 101.17L373.83 101.17Q373.05 100.78 372.27 99.22L372.27 99.22L371.88 101.17Q370.70 102.73 369.14 102.73L369.14 102.73ZM367.19 90.23Q367.19 89.84 367.97 89.84L367.97 89.84L368.36 79.69L368.36 79.69Q360.94 80.08 350 80.08L350 80.08L337.11 80.08Q335.55 80.08 334.38 78.52L334.38 78.52L333.59 76.95L332.42 76.95L331.25 76.95L331.25 78.52Q331.25 81.64 330.86 82.81L330.86 82.81L330.86 87.89Q341.02 88.67 345.31 88.28L345.31 88.28L350.78 87.89Q353.91 87.89 355.47 87.50L355.47 87.50L360.16 87.11Q362.50 87.11 363.67 86.72L363.67 86.72L364.06 86.72Q366.02 86.72 367.19 89.84L367.19 89.84L367.19 90.23ZM364.84 97.27Q365.63 95.70 365.63 94.53L365.63 94.53Q365.63 91.80 364.45 89.06L364.45 89.06L355.86 89.84L345.70 90.63Q335.16 91.41 323.83 89.45L323.83 89.45L323.83 87.11Q323.83 80.47 324.22 75.39L324.22 75.39L325.78 46.48Q322.27 45.31 320.31 45.31L320.31 45.31Q317.97 45.31 317.58 46.88L317.58 46.88Q316.02 62.50 315.23 87.89L315.23 87.89Q315.23 94.14 319.53 96.48L319.53 96.48Q325 98.83 337.50 98.83L337.50 98.83Q342.97 98.83 364.84 97.27L364.84 97.27ZM332.03 74.61L345.31 74.61Q356.64 74.61 364.06 74.22L364.06 74.22Q364.84 73.05 364.84 70.70L364.84 70.70Q364.84 67.97 364.06 66.80L364.06 66.80Q349.22 66.02 344.92 66.02L344.92 66.02Q335.16 66.02 332.03 66.41L332.03 66.41Q330.86 67.97 330.86 70.31L330.86 70.31Q330.86 72.27 332.03 74.61L332.03 74.61ZM378.52 96.09L379.69 76.17Q379.69 62.50 380.08 55.86L380.08 55.86Q380.08 49.61 374.61 47.66L374.61 47.66Q369.14 44.92 353.13 44.92L353.13 44.92Q343.36 44.92 337.89 45.31L337.89 45.31L331.25 45.70Q329.69 45.70 329.69 48.44L329.69 48.44Q329.69 54.30 331.25 53.52L331.25 53.52Q337.89 53.13 349.22 53.13L349.22 53.13Q365.23 53.13 371.09 55.08L371.09 55.08Q371.88 60.55 369.92 95.70L369.92 95.70Q372.66 97.27 375.39 97.27L375.39 97.27Q377.34 97.27 378.52 96.09L378.52 96.09ZM368.75 67.58L368.75 59.38Q361.72 58.59 353.91 58.59L353.91 58.59Q342.97 58.59 336.33 58.98L336.33 58.98L335.55 58.98Q333.59 58.98 332.42 55.86L332.42 55.86L332.42 55.86L332.03 64.06L332.42 64.06Q335.55 63.67 344.92 63.67L344.92 63.67Q349.61 63.67 363.67 64.45L363.67 64.45Q366.02 64.45 366.41 66.41L366.41 66.41L366.80 67.58L368.36 67.58L368.75 67.58ZM335.94 42.58L348.44 38.28Q355.47 35.94 357.03 35.16L357.03 35.16L357.03 33.98Q357.03 30.08 353.91 26.95L353.91 26.95L333.20 35.55L333.20 36.72Q333.20 39.84 335.94 42.58L335.94 42.58ZM466.02 110.55L462.89 110.16Q460.94 109.38 460.16 108.59L460.16 108.59L459.38 107.03L458.20 107.03Q456.25 106.25 455.47 105.47L455.47 105.47Q454.69 103.91 454.69 102.73L454.69 102.73L454.69 98.83Q453.13 98.83 451.56 99.02Q450 99.22 448.44 98.83L448.44 98.83Q447.66 98.44 446.88 97.27L446.88 97.27L446.48 95.70L443.75 95.70Q442.97 95.31 442.19 94.14L442.19 94.14Q441.80 93.75 441.80 91.80L441.80 91.80L441.80 89.06L442.19 86.72Q439.06 85.16 437.89 83.98L437.89 83.98L437.11 83.20Q434.77 82.42 433.98 81.64L433.98 81.64L433.98 85.94L433.98 93.75Q433.59 95.70 431.25 96.48L431.25 96.48L430.08 96.88Q429.30 96.88 429.30 97.27L429.30 97.27L426.17 97.66Q423.83 97.66 422.27 96.88L422.27 96.88Q420.31 96.88 420.31 94.53L420.31 94.53Q419.14 94.53 417.58 93.75L417.58 93.75Q415.63 93.75 415.63 91.80L415.63 91.80Q415.23 90.23 415.23 87.11L415.23 87.11L415.23 85.16L414.84 82.03L414.45 62.89L414.45 62.11Q414.06 62.11 413.28 60.94L413.28 60.94L411.33 58.98Q409.38 59.77 408.59 57.81L408.59 57.81L406.64 55.86Q403.52 53.52 403.52 50.39L403.52 50.39Q403.52 48.83 424.22 37.89L424.22 37.89Q425.78 37.11 426.56 37.11L426.56 37.11Q429.30 37.11 431.25 40.23L431.25 40.23L431.64 40.23L434.77 41.80Q435.16 41.41 435.94 41.41L435.94 41.41L453.13 39.84L452.73 30.86Q452.73 28.91 453.52 27.73L453.52 27.73Q456.25 25.78 460.94 25.78L460.94 25.78Q462.50 25.78 464.84 26.56L464.84 26.56Q465.63 26.95 466.41 28.13L466.41 28.13L466.80 28.91Q467.97 28.91 469.53 29.69L469.53 29.69Q470.31 30.08 471.09 31.25L471.09 31.25Q471.48 31.64 471.48 33.59L471.48 33.59L471.88 39.06L487.89 37.50Q489.84 37.50 490.23 38.28L490.23 38.28Q491.02 39.06 491.80 40.63L491.80 40.63L492.58 40.63Q494.53 40.63 494.92 41.41L494.92 41.41Q496.48 42.58 496.68 45.12Q496.88 47.66 496.48 51.17L496.48 51.17Q496.48 53.52 494.14 53.52L494.14 53.52L471.88 55.08L472.27 63.28L488.67 68.36Q490.63 69.14 490.63 70.70L490.63 70.70L493.36 71.48Q495.31 72.27 495.31 73.44L495.31 73.44L495.31 75Q495.31 76.17 494.53 78.52L494.53 78.52L494.53 79.69L493.36 82.42Q492.97 82.81 491.02 83.98L491.02 83.98Q489.45 83.98 488.28 83.59L488.28 83.59L472.27 78.13L472.66 80.86L475 80.47Q477.34 80.47 478.91 83.59L478.91 83.59L479.69 83.59Q482.03 83.59 483.20 85.55Q484.38 87.50 484.38 90.63L484.38 90.63Q484.38 92.58 483.59 94.92L483.59 94.92Q483.20 95.70 482.03 96.48L482.03 96.48Q481.64 96.88 479.69 96.88L479.69 96.88L472.66 97.27L473.05 105.86Q473.05 107.42 471.88 108.59L471.88 108.59Q469.92 110.55 466.02 110.55L466.02 110.55ZM421.48 92.19L425 91.41Q426.56 91.02 426.95 90.63L426.95 90.63L426.95 82.81Q426.95 75.78 426.56 71.48L426.56 71.48L425.78 57.81Q425 57.03 422.27 57.03L422.27 57.03Q420.31 57.03 417.19 57.81L417.19 57.81L417.19 59.38Q416.80 60.16 416.80 62.89L416.80 62.89L417.19 83.20Q417.58 84.38 417.58 87.11L417.58 87.11L417.58 91.41Q418.36 92.19 421.48 92.19L421.48 92.19ZM410.94 56.64Q410.94 57.03 418.75 52.73L418.75 52.73Q419.14 52.34 425.39 48.83L425.39 48.83Q427.73 46.88 429.30 46.48L429.30 46.48Q430.86 45.31 429.69 42.19L429.69 42.19Q428.13 39.45 426.17 39.45L426.17 39.45Q407.81 49.22 405.86 51.17L405.86 51.17Q406.64 52.73 408.20 54.30L408.20 54.30L410.94 56.64ZM449.22 82.42L453.91 82.03L453.91 77.73L449.22 82.42ZM433.59 72.27L448.44 56.64L441.80 57.03Q439.45 57.03 439.06 55.08L439.06 55.08L438.67 53.91L437.11 53.91Q434.77 53.91 434.38 51.95L434.38 51.95L433.59 52.34L431.25 53.91L429.69 55.08L427.34 56.25L428.13 57.42L428.13 57.81Q432.42 58.59 432.81 60.55L432.81 60.55L432.81 61.72L433.59 72.27ZM461.33 105.08Q464.45 105.08 466.02 103.52L466.02 103.52L465.63 91.80L476.56 91.41Q477.34 90.63 477.34 87.50L477.34 87.50Q477.34 83.20 474.61 82.81L474.61 82.81Q473.44 83.20 470.70 83.20L470.70 83.20Q467.58 83.20 465.63 83.59L465.63 83.59L465.23 71.48L485.94 78.91Q486.72 78.13 487.50 75.78L487.50 75.78Q488.28 72.66 488.28 71.88L488.28 71.88L488.28 70.70L465.23 63.67L464.84 49.61L489.45 48.05L489.84 44.14Q489.84 41.41 488.67 39.84L488.67 39.84L464.84 41.80L464.45 28.91Q463.67 28.13 460.94 28.13L460.94 28.13Q456.25 28.13 455.08 29.69L455.08 29.69L455.47 42.19L435.94 43.75Q435.16 46.48 435.55 47.66L435.55 47.66L436.72 51.56L455.86 50.39L455.86 52.34L432.81 76.17Q432.81 77.34 434.77 79.30L434.77 79.30Q436.72 81.25 438.67 81.25L438.67 81.25L439.45 80.86L455.86 64.45L456.25 83.98Q445.31 85.16 444.92 85.55L444.92 85.55Q444.14 86.33 444.14 89.06L444.14 89.06L444.14 93.36L445.31 93.36L456.64 92.58L457.03 104.30L461.33 105.08Z"/></svg>