<svg xmlns="http://www.w3.org/2000/svg" xmlns:xlink="http://www.w3.org/1999/xlink" width="700" height="100"><path d="M16.21 71.68L16.21 71.68Q12.70 73.24 9.38 74.80L9.38 74.80Q8.01 75.59 7.42 76.95L7.42 76.95L7.42 78.32Q8.98 78.52 11.23 79.00Q13.48 79.49 16.60 79.69L16.60 79.69Q25.39 77.73 33.98 75.39L33.98 75.39Q35.74 73.44 38.28 72.27L38.28 72.27Q38.09 71.48 38.09 71.09Q38.09 70.70 38.48 70.31L38.48 70.31Q38.09 69.73 37.89 69.14L37.89 69.14Q36.13 68.55 34.18 68.75L34.18 68.75Q25.39 70.31 16.21 71.68ZM81.84 62.11L81.84 62.11Q81.25 61.72 80.66 61.91L80.66 61.91Q79.30 63.09 78.52 64.65L78.52 64.65Q78.32 65.04 78.91 65.43L78.91 65.43Q78.91 64.84 79.30 64.65L79.30 64.65Q79.49 65.43 79.49 66.41L79.49 66.41Q78.91 67.58 78.13 68.36L78.13 68.36Q78.52 68.95 78.71 69.63Q78.91 70.31 78.52 70.70L78.52 70.70Q80.27 72.07 82.62 73.44L82.62 73.44Q82.62 74.02 83.40 74.80L83.40 74.80Q85.35 74.61 86.91 75.20L86.91 75.20Q88.87 74.02 91.21 72.85L91.21 72.85Q91.60 71.68 92.77 70.70L92.77 70.70Q92.77 67.97 92.58 65.63L92.58 65.63Q91.02 62.70 89.06 60.16L89.06 60.16Q87.50 59.77 86.72 59.18L86.72 59.18Q84.18 60.55 81.84 62.11ZM11.33 58.01L11.33 58.01Q10.55 57.62 9.77 57.62L9.77 57.62Q9.38 58.98 9.38 60.94L9.38 60.94Q8.98 60.94 8.59 61.04Q8.20 61.13 8.59 61.72L8.59 61.72L10.16 61.72Q12.70 62.70 15.23 64.45L15.23 64.45L22.66 64.45Q27.15 63.48 31.64 62.30L31.64 62.30Q32.42 60.74 33.98 60.16L33.98 60.16Q33.20 59.18 33.98 58.59L33.98 58.59Q33.59 57.62 32.81 57.03L32.81 57.03Q31.05 56.25 29.69 55.86L29.69 55.86Q22.85 56.45 16.02 55.86L16.02 55.86Q13.28 56.64 11.33 58.01ZM22.07 39.84L22.07 39.84Q19.14 41.02 16.21 41.99L16.21 41.99Q15.23 42.77 14.45 43.95L14.45 43.95L13.09 43.95Q12.50 44.34 12.99 45.21Q13.48 46.09 13.28 47.46L13.28 47.46Q14.06 47.85 15.23 47.46L15.23 47.46Q15.43 48.05 16.02 48.44L16.02 48.44Q22.27 48.44 29.30 48.05L29.30 48.05Q31.05 46.88 33.01 46.68L33.01 46.68Q33.98 45.31 35.16 44.34L35.16 44.34Q34.96 42.77 34.96 41.60L34.96 41.60Q32.42 39.84 29.49 39.65L29.49 39.65Q25.78 39.84 22.07 39.84ZM60.74 27.93L60.74 27.93Q59.18 27.54 57.81 27.54L57.81 27.54Q57.42 28.71 56.45 29.10L56.45 29.10L57.42 30.08Q56.84 30.47 56.84 31.25L56.84 31.25Q57.81 32.81 58.79 34.57L58.79 34.57Q59.38 38.09 60.35 41.60L60.35 41.60Q57.42 42.38 54.49 42.38L54.49 42.38Q47.27 44.14 40.04 46.68L40.04 46.68Q37.11 48.24 34.38 49.61L34.38 49.61Q34.96 50.20 35.16 51.37L35.16 51.37Q35.94 51.76 37.11 52.15L37.11 52.15Q38.09 53.52 39.45 54.49L39.45 54.49L41.60 54.49Q45.12 53.13 49.02 51.95L49.02 51.95Q53.91 50.59 59.57 50.39L59.57 50.39L60.16 49.80Q61.13 49.41 62.11 50.20L62.11 50.20Q62.70 53.91 62.89 58.01L62.89 58.01Q63.09 58.20 63.48 58.79L63.48 58.79Q63.87 65.43 63.48 72.46L63.48 72.46Q62.50 75.78 61.52 78.91L61.52 78.91Q60.16 80.27 58.59 82.03L58.59 82.03Q55.66 83.20 52.93 84.38L52.93 84.38Q50 84.38 48.05 84.18L48.05 84.18Q50.78 74.80 53.71 65.82L53.71 65.82Q54.69 64.06 55.86 62.70L55.86 62.70Q55.47 60.94 55.66 59.18L55.66 59.18Q53.91 56.45 51.56 55.08L51.56 55.08Q50.39 55.47 49.22 55.86L49.22 55.86Q47.46 58.40 45.90 61.52L45.90 61.52Q43.75 67.58 41.41 73.83L41.41 73.83Q40.23 78.32 39.26 82.81L39.26 82.81Q39.45 83.98 40.04 85.35L40.04 85.35Q41.41 86.91 43.16 88.09L43.16 88.09Q43.16 87.50 43.65 87.70Q44.14 87.89 44.14 88.67L44.14 88.67Q44.92 87.70 46.09 86.91L46.09 86.91Q46.48 87.11 46.68 87.89L46.68 87.89L47.66 87.89Q47.85 88.28 47.85 88.87L47.85 88.87Q49.22 89.45 50.98 89.84L50.98 89.84Q51.76 90.63 52.73 91.60L52.73 91.60L53.91 91.60Q54.10 92.19 54.88 92.58L54.88 92.58L59.18 92.58Q61.33 91.21 64.06 91.02L64.06 91.02Q66.41 89.26 68.75 87.89L68.75 87.89Q69.53 86.33 70.90 85.16L70.90 85.16Q72.07 82.42 73.44 79.88L73.44 79.88Q73.83 76.37 74.80 73.05L74.80 73.05Q74.80 66.60 74.80 60.35L74.80 60.35Q73.44 54.49 72.85 49.02L72.85 49.02Q78.32 47.66 83.79 46.68L83.79 46.68Q84.57 45.70 85.74 45.31L85.74 45.31Q86.13 43.55 85.94 41.80L85.94 41.80Q85.16 40.63 84.38 40.14Q83.59 39.65 82.62 39.45L82.62 39.45Q76.95 40.04 71.29 40.63L71.29 40.63Q69.53 34.96 67.19 29.49L67.19 29.49Q64.84 28.13 62.70 27.34L62.70 27.34Q61.52 27.15 60.74 27.93ZM157.42 34.57L157.42 34.57Q159.18 43.36 161.72 51.95L161.72 51.95Q163.28 52.54 165.04 53.13L165.04 53.13Q166.80 51.76 167.58 49.41L167.58 49.41Q167.97 41.21 166.21 33.79L166.21 33.79Q164.06 32.81 162.30 31.84L162.30 31.84Q158.98 31.84 157.42 34.57ZM174.41 16.60L174.41 16.60Q155.66 20.70 138.09 27.34L138.09 27.34Q135.94 29.69 137.50 32.62L137.50 32.62Q141.99 32.81 146.48 32.03L146.48 32.03Q145.90 32.81 145.12 34.18L145.12 34.18Q145.70 41.60 147.07 48.83L147.07 48.83Q144.92 50 142.58 50.20L142.58 50.20Q142.19 52.15 141.99 54.69L141.99 54.69Q137.11 55.66 132.42 56.84L132.42 56.84Q131.25 53.52 132.62 51.56L132.62 51.56Q136.13 51.56 139.45 50.98L139.45 50.98Q140.43 50.20 141.02 49.02L141.02 49.02Q141.02 47.27 140.04 46.29L140.04 46.29Q130.27 44.53 119.92 45.70L119.92 45.70Q116.99 46.29 114.84 48.44L114.84 48.44Q113.67 51.17 116.02 53.32L116.02 53.32Q119.34 52.93 122.85 52.34L122.85 52.34Q123.63 55.86 123.05 59.38L123.05 59.38Q116.99 60.55 111.91 63.09L111.91 63.09Q108.20 65.04 108.20 69.34L108.20 69.34Q114.06 69.14 121.29 66.41L121.29 66.41Q122.27 74.02 123.05 82.03L123.05 82.03Q118.95 82.81 115.43 84.96L115.43 84.96Q115.43 88.28 118.16 90.63L118.16 90.63Q123.44 91.60 128.91 89.84L128.91 89.84Q136.13 85.94 140.63 79.88L140.63 79.88Q144.92 81.64 149.02 82.62L149.02 82.62Q144.73 86.33 141.80 90.82L141.80 90.82Q141.02 93.36 141.21 96.09Q141.41 98.83 143.75 100.98L143.75 100.98Q147.27 102.73 151.37 103.71L151.37 103.71Q161.13 103.52 171.29 103.32L171.29 103.32Q176.56 101.76 182.23 100.78L182.23 100.78Q185.74 98.63 189.26 96.68L189.26 96.68Q190.04 94.73 190.23 92.58L190.23 92.58Q187.89 84.18 186.91 75.59L186.91 75.59Q184.57 72.46 181.05 73.24L181.05 73.24Q180.47 71.68 179.69 70.31L179.69 70.31Q174.22 69.34 169.53 69.73L169.53 69.73Q169.34 64.84 171.09 61.52L171.09 61.52Q179.69 61.33 188.48 61.72L188.48 61.72Q189.84 60.74 191.60 59.77L191.60 59.77Q191.41 57.62 191.99 55.86L191.99 55.86Q190.04 54.49 188.09 53.52L188.09 53.52Q183.40 53.91 178.71 54.49L178.71 54.49Q179.88 46.09 182.03 36.13L182.03 36.13Q181.64 33.79 180.86 31.45L180.86 31.45Q177.93 28.91 174.22 29.49L174.22 29.49Q172.85 30.66 171.88 31.84L171.88 31.84Q170.90 43.55 169.34 54.88L169.34 54.88Q162.89 55.27 156.84 56.84L156.84 56.84Q154.30 45.12 152.93 33.01L152.93 33.01Q150.78 31.84 148.63 31.64L148.63 31.64Q155.27 27.34 164.06 25.59L164.06 25.59Q172.27 23.44 181.45 23.44L181.45 23.44Q183.40 21.68 183.59 19.53L183.59 19.53Q182.23 17.58 180.08 16.60L180.08 16.60Q177.15 16.21 174.41 16.60ZM159.57 80.08L159.57 80.08Q160.35 87.89 159.77 95.31L159.77 95.31Q154.10 95.90 150 93.95L150 93.95Q153.91 89.84 155.47 84.77L155.47 84.77Q153.71 82.81 151.95 81.45L151.95 81.45Q155.47 79.10 159.57 80.08ZM178.91 76.76L178.91 76.76Q178.52 84.57 179.88 91.41L179.88 91.41Q177.93 93.55 175.59 94.34L175.59 94.34Q169.53 95.51 164.84 93.95L164.84 93.95Q166.41 90.82 167.77 87.70L167.77 87.70Q167.97 83.20 168.55 78.91L168.55 78.91Q173.63 76.56 178.91 76.76ZM161.72 63.67L161.72 63.67Q161.33 68.16 159.57 72.07L159.57 72.07Q153.13 73.05 146.88 73.63L146.88 73.63Q146.68 68.55 148.44 64.06L148.44 64.06Q155.47 63.09 161.72 63.67ZM139.84 60.55L139.84 60.55Q141.02 60.35 141.60 61.52L141.60 61.52Q140.04 68.36 141.80 75.39L141.80 75.39Q140.63 76.17 139.45 75.98L139.45 75.98Q138.87 74.41 138.28 74.22L138.28 74.22Q133.98 77.73 129.88 78.52L129.88 78.52Q130.27 70.70 132.03 63.48L132.03 63.48Q135.94 62.30 139.84 60.55ZM149.22 54.69L149.22 54.69Q150.59 55.27 150.39 57.23L150.39 57.23Q149.22 58.01 148.44 57.03L148.44 57.03Q148.44 55.66 149.22 54.69ZM254.88 28.13L254.88 28.13Q254.30 29.10 253.91 30.47L253.91 30.47Q253.32 30.86 252.73 31.25L252.73 31.25Q252.54 33.98 252.34 36.91L252.34 36.91Q251.95 37.30 251.76 37.70L251.76 37.70Q250.39 49.22 248.44 60.74L248.44 60.74Q247.07 60.55 246.09 60.35L246.09 60.35Q243.36 61.33 240.82 61.52L240.82 61.52Q240.63 59.96 240.33 58.59Q240.04 57.23 240.63 56.25L240.63 56.25Q238.87 54.30 237.50 52.73L237.50 52.73Q236.13 52.73 235.55 51.95L235.55 51.95Q234.18 51.56 233.01 51.95L233.01 51.95Q232.42 50.59 233.59 49.80L233.59 49.80Q236.72 49.22 240.23 48.83L240.23 48.83Q245.12 47.27 249.61 44.92L249.61 44.92Q249.61 43.95 250 43.36L250 43.36Q249.41 42.19 249.02 41.41L249.02 41.41Q247.85 41.21 247.07 40.43L247.07 40.43Q245.70 40.43 244.53 41.02L244.53 41.02Q243.95 40.23 242.97 40.43L242.97 40.43Q239.06 41.99 234.77 42.97L234.77 42.97Q233.79 41.60 232.81 40.63L232.81 40.63Q232.81 39.84 232.81 39.65L232.81 39.65Q232.03 39.26 231.45 39.45L231.45 39.45Q231.05 38.67 230.86 38.48L230.86 38.48Q229.88 38.87 228.91 39.06L228.91 39.06Q227.93 40.04 227.15 41.11Q226.37 42.19 226.37 43.36L226.37 43.36Q225.59 43.95 225 44.53L225 44.53Q217.19 45.31 210.16 46.68L210.16 46.68Q210.16 47.07 210.35 47.46L210.35 47.46Q209.38 48.05 208.98 48.73Q208.59 49.41 208.98 50L208.98 50Q210.94 51.76 213.48 53.13L213.48 53.13L216.02 53.13Q218.75 52.34 221.48 51.76L221.48 51.76Q221.68 51.95 222.27 52.34L222.27 52.34Q218.95 58.98 215.82 65.63L215.82 65.63Q215.82 66.80 216.50 67.77Q217.19 68.75 217.97 70.31L217.97 70.31Q220.31 70.90 222.66 72.27L222.66 72.27Q225.78 71.88 229.10 71.48L229.10 71.48Q229.69 70.31 230.08 69.53L230.08 69.53Q230.08 70.51 231.05 71.48L231.05 71.48Q230.27 73.05 230.47 75L230.47 75Q228.91 75.98 227.34 76.95L227.34 76.95Q224.02 77.73 220.90 78.71L220.90 78.71L218.75 78.71Q217.38 79.88 216.60 81.64L216.60 81.64Q217.38 82.62 217.38 83.79L217.38 83.79Q219.53 85.35 222.27 86.33L222.27 86.33Q223.44 86.33 224.80 86.52L224.80 86.52Q227.54 85.35 230.66 84.77L230.66 84.77Q231.45 86.52 231.45 88.67L231.45 88.67Q232.62 90.43 234.77 91.80L234.77 91.80Q236.72 91.80 238.87 91.99L238.87 91.99Q239.26 91.41 239.65 91.02L239.65 91.02Q240.23 85.35 240.04 79.49L240.04 79.49Q240.43 78.71 241.21 78.13L241.21 78.13Q244.14 77.73 247.07 76.95L247.07 76.95Q247.85 76.17 249.02 75.78L249.02 75.78Q249.22 74.80 249.22 74.02L249.22 74.02Q246.68 71.88 244.53 70.70L244.53 70.70Q245.51 70.12 246.68 69.73L246.68 69.73Q246.48 68.95 246.68 67.97L246.68 67.97Q249.61 66.21 252.73 64.45L252.73 64.45L254.10 64.45Q255.27 63.09 256.84 61.72L256.84 61.72Q257.81 57.03 258.79 52.93L258.79 52.93Q258.98 52.54 259.57 52.34L259.57 52.34Q261.52 52.54 263.67 52.54L263.67 52.54L264.26 53.13Q263.67 53.71 262.89 54.10L262.89 54.10Q262.50 55.47 261.72 57.03L261.72 57.03L261.72 59.96Q256.64 70.31 251.37 80.66L251.37 80.66Q249.80 82.42 248.83 84.57L248.83 84.57Q248.44 85.74 248.24 87.30L248.24 87.30Q250.20 87.50 251.76 89.26L251.76 89.26Q252.93 89.45 254.30 89.45L254.30 89.45Q254.88 88.87 255.86 88.48L255.86 88.48Q258.98 83.40 261.91 78.71L261.91 78.71Q263.09 79.10 264.45 79.49L264.45 79.49Q266.60 80.66 268.75 82.42L268.75 82.42Q276.56 86.33 284.57 90.63L284.57 90.63L287.30 90.63Q289.06 89.65 291.02 88.87L291.02 88.87Q291.41 87.70 291.60 86.52L291.60 86.52Q290.82 85.35 289.84 84.38L289.84 84.38Q280.86 80.66 272.46 75.78L272.46 75.78L273.05 75.20Q274.80 75 276.76 75.39L276.76 75.39Q277.54 74.61 278.32 73.83L278.32 73.83Q278.52 74.02 279.10 74.02L279.10 74.02L282.03 71.09Q283.59 65.23 284.77 59.57L284.77 59.57L284.77 55.66Q283.98 54.10 283.40 52.54L283.40 52.54Q281.84 50.98 280.27 49.02L280.27 49.02Q276.17 47.07 272.07 46.09L272.07 46.09Q266.41 45.70 260.94 45.90L260.94 45.90Q260.35 45.31 260.45 44.73Q260.55 44.14 260.94 43.75L260.94 43.75L260.94 41.21Q261.91 36.91 263.09 32.62L263.09 32.62Q262.70 30.47 261.72 29.10L261.72 29.10Q260.35 28.32 259.18 27.93L259.18 27.93Q256.84 27.93 254.88 28.13ZM231.25 68.75L231.25 68.75Q231.84 70.31 233.01 71.88L233.01 71.88Q233.01 73.24 233.59 74.61L233.59 74.61Q233.20 74.80 232.81 74.80L232.81 74.80Q231.84 72.07 230.86 69.53L230.86 69.53Q230.66 68.95 231.25 68.75ZM229.49 55.08L229.49 55.08L230.08 55.66Q229.30 58.20 227.73 59.77L227.73 59.77Q226.76 58.40 226.76 57.23Q226.76 56.05 227.73 56.25L227.73 56.25L227.73 57.03Q228.32 55.86 229.49 55.08ZM231.05 54.88L231.05 54.88Q231.45 54.88 231.84 55.47L231.84 55.47Q231.64 58.98 231.45 62.70L231.45 62.70Q229.69 63.28 228.03 63.67Q226.37 64.06 226.56 63.09L226.56 63.09Q226.95 62.70 227.73 62.89L227.73 62.89Q229.49 58.59 231.05 54.88ZM272.07 52.73L272.07 52.73Q272.85 53.13 274.22 53.52L274.22 53.52Q274.80 56.25 274.61 59.57L274.61 59.57Q273.44 63.28 272.46 67.19L272.46 67.19Q270.90 70.12 269.73 73.44L269.73 73.44Q269.34 73.63 268.95 73.83L268.95 73.83Q266.21 72.66 264.26 71.48L264.26 71.48Q266.02 66.80 267.77 62.70L267.77 62.70L267.77 61.33Q268.55 59.77 269.73 58.40L269.73 58.40Q269.92 57.23 270.41 55.76Q270.90 54.30 272.07 52.73ZM323.63 21.09L323.63 21.09Q319.73 30.08 317.19 39.84L317.19 39.84Q316.99 43.75 317.58 47.85L317.58 47.85Q318.95 48.24 320.51 48.05L320.51 48.05Q320.51 46.48 321.09 45.31L321.09 45.31Q322.27 45.51 323.44 46.09L323.44 46.09Q323.24 44.92 323.93 44.82Q324.61 44.73 324.80 44.73L324.80 44.73Q325.98 38.87 328.52 33.79L328.52 33.79Q329.10 33.79 329.88 34.38L329.88 34.38Q329.49 41.21 329.69 48.24L329.69 48.24Q330.27 50 330.66 52.15L330.66 52.15Q332.23 52.73 333.79 53.32L333.79 53.32Q333.98 52.34 335.16 52.54L335.16 52.54Q335.55 53.13 335.35 54.10L335.35 54.10Q336.33 53.91 337.50 53.91L337.50 53.91Q338.28 50.39 339.45 47.07L339.45 47.07Q339.45 41.02 340.04 35.55L340.04 35.55Q339.06 34.57 339.45 33.20L339.45 33.20Q343.36 32.62 347.27 33.01L347.27 33.01Q347.07 35.74 346.48 38.48L346.48 38.48Q346.68 40.04 346.68 41.99L346.68 41.99Q347.27 42.58 347.75 43.16Q348.24 43.75 349.22 43.75L349.22 43.75Q350.20 42.97 351.76 42.97L351.76 42.97L352.34 43.55Q352.73 42.58 353.91 42.77L353.91 42.77Q354.49 39.26 355.86 37.11L355.86 37.11Q356.25 37.11 356.64 37.70L356.64 37.70Q356.25 39.65 356.45 41.99L356.45 41.99Q357.03 45.90 357.81 50L357.81 50Q358.98 50.98 359.57 52.15L359.57 52.15Q348.44 52.93 337.89 54.49L337.89 54.49L337.30 55.08Q334.77 55.08 332.62 55.47L332.62 55.47Q326.17 56.84 319.92 58.40L319.92 58.40Q318.75 59.57 318.36 60.94L318.36 60.94Q319.53 61.52 321.09 61.91L321.09 61.91Q321.88 62.89 323.05 63.57Q324.22 64.26 325.39 65.04L325.39 65.04Q327.34 64.65 329.30 64.26L329.30 64.26L329.88 64.84Q336.13 63.67 342.19 62.11L342.19 62.11L342.77 62.70Q341.99 64.84 341.80 67.38L341.80 67.38Q336.13 68.36 330.27 68.95L330.27 68.95Q329.49 70.12 329.88 71.68L329.88 71.68Q330.66 72.07 332.42 73.34Q334.18 74.61 335.55 75.39L335.55 75.39Q337.70 75.20 339.65 75.39L339.65 75.39Q339.84 77.93 339.84 80.47L339.84 80.47L339.26 81.05Q335.35 80.27 331.25 80.47L331.25 80.47L330.66 81.05Q327.54 81.05 324.80 81.25L324.80 81.25Q324.41 82.42 324.22 83.59L324.22 83.59L325.20 84.57Q325.59 84.38 325.88 84.57Q326.17 84.77 326.17 85.35L326.17 85.35Q328.13 86.91 330.66 88.09L330.66 88.09Q335.55 88.09 340.23 88.67L340.23 88.67Q340.82 88.87 341.41 89.45L341.41 89.45Q342.58 91.41 343.36 93.95L343.36 93.95Q344.14 94.73 344.92 95.70L344.92 95.70Q349.22 98.44 353.71 100.98L353.71 100.98Q358.79 101.37 364.26 101.37L364.26 101.37Q366.02 100.78 367.97 100.78L367.97 100.78Q368.55 100 369.14 99.41L369.14 99.41Q374.22 98.05 379.10 96.29L379.10 96.29Q380.47 94.92 381.84 94.14L381.84 94.14Q382.23 92.19 381.64 90.82L381.64 90.82Q379.88 90.04 378.52 89.06L378.52 89.06L373.24 89.06Q371.09 89.84 368.95 90.23L368.95 90.23Q367.77 89.65 366.60 89.84L366.60 89.84Q362.70 91.41 358.98 93.16L358.98 93.16Q357.23 93.16 355.66 93.16L355.66 93.16Q352.93 92.19 350.78 90.23L350.78 90.23Q350.59 89.45 350.39 89.06L350.39 89.06Q350.98 88.28 352.15 87.70L352.15 87.70Q355.86 87.30 360.16 87.30L360.16 87.30Q367.58 85.35 375 83.40L375 83.40Q377.54 81.84 380.08 79.49L380.08 79.49Q379.30 78.32 379.49 76.95L379.49 76.95Q378.32 76.56 377.34 76.17L377.34 76.17L377.34 75.59Q375.78 75.20 374.02 75.39L374.02 75.39Q371.48 75.59 369.53 76.37L369.53 76.37Q367.97 75.98 366.41 75.98L366.41 75.98Q363.87 76.95 361.13 78.52L361.13 78.52Q358.40 78.91 355.86 80.08L355.86 80.08Q352.93 80.27 350.20 80.47L350.20 80.47Q349.41 79.49 349.80 78.52L349.80 78.52Q350.20 76.37 351.17 74.61L351.17 74.61Q357.62 73.63 363.87 72.27L363.87 72.27Q364.84 71.29 366.02 69.92L366.02 69.92Q365.63 68.95 365.23 68.16L365.23 68.16Q363.67 66.99 362.89 65.82L362.89 65.82Q358.01 66.41 353.13 66.60L353.13 66.60Q352.54 66.02 352.73 65.23L352.73 65.23Q353.13 63.67 354.10 62.30L354.10 62.30Q353.71 61.72 353.52 61.13L353.52 61.13Q354.10 59.77 355.86 59.57L355.86 59.57Q359.38 59.38 363.48 59.38L363.48 59.38Q364.84 58.59 366.21 57.81L366.21 57.81Q366.41 56.84 367.38 56.25L367.38 56.25Q367.19 55.08 366.99 54.10L366.99 54.10Q365.04 53.32 364.06 51.56L364.06 51.56Q364.65 50.98 365.43 51.56L365.43 51.56Q365.82 48.44 366.99 45.51L366.99 45.51Q366.60 39.84 365.82 33.20L365.82 33.20Q365.82 32.62 366.41 32.62L366.41 32.62Q370.31 32.23 374.22 32.62L374.22 32.62Q377.54 32.03 381.05 31.45L381.05 31.45Q381.64 30.08 383.20 29.49L383.20 29.49Q383.01 28.13 382.23 27.15L382.23 27.15Q380.27 25.98 378.71 25.20L378.71 25.20Q367.77 25.20 358.59 25.39L358.59 25.39Q358.98 24.61 358.98 24.22L358.98 24.22Q358.20 22.66 357.81 21.68L357.81 21.68Q356.64 20.70 355.86 19.53L355.86 19.53Q354.88 19.34 354.30 19.53L354.30 19.53Q353.52 18.95 352.93 18.55L352.93 18.55Q351.76 18.75 350.59 18.55L350.59 18.55Q349.61 19.53 348.83 20.90L348.83 20.90Q348.63 24.61 347.85 28.13L347.85 28.13Q346.68 27.93 346.09 26.17L346.09 26.17Q339.26 25.78 332.42 25.78L332.42 25.78Q332.03 24.41 332.81 23.05L332.81 23.05Q332.62 21.29 331.64 20.31L331.64 20.31Q331.05 20.12 330.47 20.12L330.47 20.12Q329.69 19.14 329.10 18.55L329.10 18.55Q327.93 18.55 326.95 18.36L326.95 18.36Q325.20 19.73 323.63 21.09ZM431.45 34.57L431.45 34.57Q428.13 34.57 425.20 34.96L425.20 34.96Q424.80 36.13 425 37.70L425 37.70Q425.39 37.70 425.88 38.67Q426.37 39.65 427.54 39.45L427.54 39.45Q428.13 40.82 429.69 41.41L429.69 41.41Q432.81 41.41 435.74 41.41L435.74 41.41Q438.28 40.23 441.41 40.23L441.41 40.23Q442.97 42.77 444.14 45.90L444.14 45.90Q443.75 46.29 443.16 46.88L443.16 46.88Q440.23 47.27 437.50 48.24L437.50 48.24Q434.18 48.05 431.25 48.63L431.25 48.63Q429.88 49.80 428.52 50.59L428.52 50.59L427.34 50.59Q426.95 51.95 428.13 53.32L428.13 53.32Q428.91 53.91 430.08 53.91L430.08 53.91Q430.47 53.32 431.25 53.52L431.25 53.52Q432.03 54.30 433.20 54.69L433.20 54.69Q437.50 54.69 441.99 54.49L441.99 54.49Q443.95 53.13 446.29 53.52L446.29 53.52Q447.27 55.86 447.46 58.98L447.46 58.98Q443.75 59.38 440.04 59.77L440.04 59.77Q439.45 59.77 439.26 60.35L439.26 60.35Q438.28 60.35 437.50 59.96L437.50 59.96Q430.08 60.94 422.27 60.94L422.27 60.94Q419.34 62.30 416.60 63.67L416.60 63.67Q416.99 64.06 416.80 64.55Q416.60 65.04 416.21 65.04L416.21 65.04Q417.58 65.63 418.75 66.60L418.75 66.60Q419.53 66.60 420.70 66.41L420.70 66.41Q421.29 67.19 422.07 67.97L422.07 67.97Q427.34 67.97 432.81 67.97L432.81 67.97Q440.04 66.99 447.46 66.02L447.46 66.02Q447.85 66.02 448.24 66.60L448.24 66.60Q448.44 70.12 448.44 73.83L448.44 73.83Q447.66 75.98 446.48 78.32L446.48 78.32Q445.31 79.10 444.73 80.27L444.73 80.27Q442.58 81.64 440.63 83.01L440.63 83.01Q439.65 83.01 438.67 83.20L438.67 83.20L437.70 82.23Q437.50 82.62 437.11 82.81L437.11 82.81Q434.57 81.64 432.81 79.88L432.81 79.88Q432.03 80.08 431.45 80.47L431.45 80.47Q431.05 80.08 431.25 79.69L431.25 79.69L429.88 79.69Q429.69 80.08 429.69 80.66Q429.69 81.25 430.66 81.84L430.66 81.84L430.66 83.01Q432.23 84.38 433.01 86.13L433.01 86.13Q433.79 86.13 434.57 86.52L434.57 86.52Q437.30 88.48 440.04 90.82L440.04 90.82Q443.55 90.63 447.07 89.84L447.07 89.84Q449.80 87.89 452.54 86.33L452.54 86.33Q453.52 85.16 454.69 83.98L454.69 83.98Q455.86 81.25 457.03 78.71L457.03 78.71Q457.03 71.88 456.84 65.43L456.84 65.43L457.42 64.84Q469.53 63.28 482.03 61.13L482.03 61.13Q482.62 59.77 483.98 58.98L483.98 58.98Q483.98 57.62 483.79 56.25L483.79 56.25Q482.62 55.86 482.42 55.08L482.42 55.08Q480.86 54.88 479.88 54.30L479.88 54.30L476.37 54.30Q474.61 55.08 472.46 55.47L472.46 55.47Q464.45 56.64 456.05 58.20L456.05 58.20Q454.69 54.49 454.10 50.78L454.10 50.78Q455.86 50 457.42 49.61L457.42 49.61Q459.96 49.61 462.11 49.22L462.11 49.22Q462.89 48.24 463.87 47.27L463.87 47.27L463.87 46.09Q462.89 44.92 462.11 43.95L462.11 43.95Q460.35 43.95 459.38 42.97L459.38 42.97Q455.66 43.36 451.95 43.75L451.95 43.75Q450.59 40.63 450.20 37.50L450.20 37.50Q450.59 36.91 451.17 36.72L451.17 36.72Q453.52 36.52 456.05 35.94L456.05 35.94Q457.23 35.94 458.40 36.52L458.40 36.52Q460.16 35.74 462.70 35.74L462.70 35.74Q462.50 34.38 463.67 33.79L463.67 33.79Q463.09 32.23 462.50 30.86L462.50 30.86Q461.13 30.27 459.96 29.69L459.96 29.69Q456.25 29.10 452.34 29.30L452.34 29.30Q441.60 31.84 431.45 34.57ZM543.16 34.57L543.16 34.57Q542.77 35.35 542.97 36.33L542.97 36.33Q542.38 37.50 541.41 38.48L541.41 38.48Q540.23 43.36 538.28 48.05L538.28 48.05Q537.11 48.24 535.94 48.24L535.94 48.24Q536.13 55.27 536.33 62.89L536.33 62.89Q537.11 65.43 538.48 67.97L538.48 67.97Q542.19 70.90 546.09 73.24L546.09 73.24Q548.24 73.44 550.59 74.02L550.59 74.02Q550.98 74.41 550.59 74.80L550.59 74.80Q546.68 75.98 542.77 76.95L542.77 76.95Q536.91 77.15 531.45 77.54L531.45 77.54Q530.47 77.93 530.08 78.71L530.08 78.71Q529.10 78.52 527.93 78.71L527.93 78.71Q526.37 79.49 525.20 80.47L525.20 80.47Q525.98 81.25 526.17 82.42L526.17 82.42Q527.73 82.62 528.91 83.79L528.91 83.79Q528.52 84.96 529.30 85.94L529.30 85.94Q530.27 85.94 531.25 85.74L531.25 85.74L532.23 86.72Q533.01 86.13 534.18 85.94L534.18 85.94Q540.82 85.35 548.05 84.57L548.05 84.57Q551.37 83.20 555.08 82.42L555.08 82.42Q555.27 81.64 556.05 81.45L556.05 81.45L557.23 81.45Q558.98 79.69 560.74 77.93L560.74 77.93Q560.35 77.15 560.45 76.46Q560.55 75.78 561.33 75.20L561.33 75.20Q563.67 75.98 566.02 77.34L566.02 77.34Q566.02 78.91 565.82 80.47L565.82 80.47Q564.84 82.62 563.67 85.16L563.67 85.16Q561.33 87.50 558.98 89.36Q556.64 91.21 553.91 92.38L553.91 92.38Q548.05 92.97 543.55 92.19L543.55 92.19Q544.34 93.36 544.92 94.73L544.92 94.73Q545.51 94.34 546.09 94.14L546.09 94.14Q547.27 94.53 548.24 95.31L548.24 95.31Q548.05 95.70 548.05 96.09L548.05 96.09Q549.22 96.68 549.80 97.66L549.80 97.66L549.41 98.05Q553.13 98.83 556.84 100.59L556.84 100.59Q560.55 100.39 564.06 99.41L564.06 99.41Q566.02 97.85 568.16 96.39Q570.31 94.92 572.36 92.48Q574.41 90.04 575.98 86.91L575.98 86.91Q576.37 82.81 576.37 78.71L576.37 78.71Q575.20 76.37 574.22 74.22L574.22 74.22Q572.85 73.24 572.07 72.27L572.07 72.27Q568.95 70.12 565.63 68.55L565.63 68.55Q563.67 68.36 562.30 67.58L562.30 67.58Q556.64 66.80 550.98 66.80L550.98 66.80Q549.61 65.82 548.24 65.82L548.24 65.82Q547.07 64.65 546.29 63.67L546.29 63.67L546.29 58.79Q546.88 56.84 547.27 54.88L547.27 54.88Q547.85 54.10 548.63 53.71L548.63 53.71Q555.66 52.34 562.50 50.39L562.50 50.39Q564.65 49.22 567.19 48.24L567.19 48.24Q567.38 47.46 568.16 46.88L568.16 46.88Q567.97 45.70 568.16 44.34L568.16 44.34Q566.21 42.97 564.65 41.80L564.65 41.80L564.26 42.19Q562.50 41.99 561.33 41.41L561.33 41.41Q556.25 42.38 551.17 44.34L551.17 44.34L550.59 43.75Q550.59 42.77 551.37 42.38L551.37 42.38Q551.37 40.23 551.37 38.09L551.37 38.09Q550.20 36.72 549.41 35.55L549.41 35.55Q547.66 35.16 546.29 33.98L546.29 33.98Q544.53 34.18 543.16 34.57ZM524.22 20.31L524.22 20.31Q522.66 21.09 521.29 22.46L521.29 22.46Q519.34 27.73 518.36 33.40L518.36 33.40Q517.97 37.89 517.97 42.58L517.97 42.58L517.38 43.16L517.97 43.75Q517.58 44.73 517.38 45.90L517.38 45.90Q517.58 46.09 517.97 46.68L517.97 46.68L517.38 47.27Q516.99 55.08 516.99 63.48L516.99 63.48Q517.19 64.26 517.77 65.04L517.77 65.04Q517.58 65.63 517.19 66.21L517.19 66.21Q517.77 66.80 518.95 66.60L518.95 66.60Q519.53 67.19 520.12 68.16L520.12 68.16Q519.73 68.36 519.34 68.75L519.34 68.75Q519.73 69.14 520.31 68.36L520.31 68.36Q520.90 68.75 521.48 69.34L521.48 69.34Q522.85 69.14 524.61 69.34L524.61 69.34Q526.17 67.58 527.73 66.02L527.73 66.02Q527.34 49.41 527.54 33.01L527.54 33.01Q527.93 30.86 528.32 28.71L528.32 28.71Q528.71 27.73 529.49 27.15L529.49 27.15Q536.52 27.34 543.16 28.52L543.16 28.52L562.50 28.52Q566.02 28.71 569.53 29.30L569.53 29.30Q570.31 29.69 570.90 30.27Q571.48 30.86 571.68 31.84L571.68 31.84Q570.51 41.41 569.73 51.37L569.73 51.37Q571.09 54.49 572.85 57.81L572.85 57.81Q574.22 57.62 575.59 58.59L575.59 58.59Q577.15 58.01 579.30 58.59L579.30 58.59Q581.05 56.84 581.84 54.69L581.84 54.69Q582.42 44.14 583.01 33.40L583.01 33.40Q582.62 31.05 582.42 28.91L582.42 28.91Q580.08 26.37 577.93 24.22L577.93 24.22Q574.80 22.46 571.68 21.68L571.68 21.68Q565.43 21.09 559.57 20.51L559.57 20.51Q555.86 20.70 552.34 20.90L552.34 20.90Q546.29 19.92 540.23 20.12L540.23 20.12Q539.26 19.92 538.67 19.53L538.67 19.53Q532.81 19.73 527.54 19.14L527.54 19.14Q525.78 19.92 524.22 20.31ZM654.10 31.84L654.10 31.84Q654.69 32.81 655.27 34.18L655.27 34.18Q656.45 38.48 657.62 43.16L657.62 43.16Q656.25 43.36 655.27 43.95L655.27 43.95Q651.76 43.95 648.44 44.34L648.44 44.34Q641.02 45.70 634.38 47.46L634.38 47.46Q633.59 45.70 632.81 44.14L632.81 44.14Q634.77 42.97 636.52 42.19L636.52 42.19Q640.04 41.21 643.55 40.23L643.55 40.23Q644.92 39.06 645.51 37.70L645.51 37.70Q644.92 36.91 645.31 35.94L645.31 35.94Q644.73 34.77 643.95 34.18L643.95 34.18Q640.63 33.98 637.89 34.18L637.89 34.18Q624.80 38.48 611.72 42.38L611.72 42.38Q610.35 44.14 608.40 45.31L608.40 45.31Q609.18 46.48 609.38 48.24L609.38 48.24Q610.94 49.22 612.89 50.39L612.89 50.39Q614.26 49.61 616.21 50L616.21 50Q617.38 49.41 618.55 48.63L618.55 48.63Q622.46 47.07 626.37 46.09L626.37 46.09Q626.56 58.79 626.37 72.07L626.37 72.07Q626.95 78.32 627.93 84.57L627.93 84.57Q628.71 86.52 631.05 87.70L631.05 87.70Q634.57 86.72 638.48 86.52L638.48 86.52Q639.84 83.98 641.60 81.64L641.60 81.64Q643.16 76.76 646.09 72.46L646.09 72.46Q647.27 73.63 649.02 74.41L649.02 74.41Q653.32 75 657.81 74.41L657.81 74.41Q658.01 74.61 658.20 75.20L658.20 75.20Q657.81 78.32 656.64 81.45L656.64 81.45Q655.86 82.03 655.27 82.62L655.27 82.62Q653.52 82.81 651.95 83.20L651.95 83.20Q651.37 82.62 650.78 82.42L650.78 82.42L649.02 82.42L648.24 81.64L646.48 81.64Q646.48 82.42 647.46 82.23L647.46 82.23Q647.66 82.81 647.66 83.59L647.66 83.59Q649.02 83.98 649.61 85.55L649.61 85.55Q650.20 85.74 650.98 85.74L650.98 85.74Q652.54 87.11 654.49 88.67L654.49 88.67Q656.25 88.87 657.62 90.04L657.62 90.04Q658.59 89.84 659.77 89.65L659.77 89.65Q660.16 89.84 660.94 90.23L660.94 90.23Q661.91 89.65 662.89 89.26L662.89 89.26Q664.06 86.52 665.23 83.98L665.23 83.98Q665.82 78.71 666.60 73.63L666.60 73.63Q670.12 72.46 673.83 71.09L673.83 71.09Q675.78 70.70 677.93 70.70L677.93 70.70Q681.25 74.80 684.57 79.10L684.57 79.10Q685.74 80.86 686.13 83.40L686.13 83.40Q687.89 83.98 690.04 83.40L690.04 83.40Q691.21 82.03 691.60 80.66L691.60 80.66Q691.41 79.30 691.41 78.13L691.41 78.13Q685.94 70.12 680.47 62.30L680.47 62.30Q676.76 57.62 672.46 52.93L672.46 52.93Q670.51 52.54 669.34 51.17L669.34 51.17Q668.55 51.37 668.55 52.15L668.55 52.15Q667.77 52.15 666.80 52.15L666.80 52.15Q666.02 51.17 666.41 50.20L666.41 50.20Q670.12 49.41 674.22 49.22L674.22 49.22Q675.20 48.63 676.56 48.24L676.56 48.24Q677.15 46.88 677.73 45.12L677.73 45.12Q676.95 44.14 676.76 43.36L676.76 43.36Q674.41 43.16 672.46 42.38L672.46 42.38Q668.95 42.58 665.63 43.16L665.63 43.16Q665.04 42.77 664.84 42.58L664.84 42.58Q664.26 38.28 662.89 34.77L662.89 34.77Q661.72 33.40 660.94 32.03L660.94 32.03Q658.59 30.86 656.84 29.69L656.84 29.69Q654.88 30.47 654.10 31.84ZM634.96 53.13L634.96 53.13Q635.55 52.93 636.13 53.71L636.13 53.71Q639.45 53.71 642.77 53.71L642.77 53.71Q643.36 52.73 644.73 53.13L644.73 53.13Q645.12 53.32 645.12 54.10L645.12 54.10Q640.04 64.84 634.57 75.59L634.57 75.59Q633.98 66.60 634.18 57.62L634.18 57.62Q634.77 55.47 634.96 53.13ZM666.99 52.73L666.99 52.73Q667.97 53.91 667.77 55.86L667.77 55.86Q670.51 59.77 672.66 64.06L672.66 64.06Q669.92 64.65 667.19 65.43L667.19 65.43Q666.21 59.38 666.41 53.13L666.41 53.13Q666.41 52.54 666.99 52.73ZM655.27 50.98L655.27 50.98L658.01 50.98L658.59 51.56Q658.79 58.98 658.98 66.21L658.98 66.21Q657.23 66.41 655.86 66.99L655.86 66.99Q651.76 66.99 648.63 66.80L648.63 66.80Q649.80 61.72 651.95 57.23L651.95 57.23Q652.15 54.10 652.34 51.95L652.34 51.95Q653.71 51.56 655.27 50.98Z"/></svg>