<svg xmlns="http://www.w3.org/2000/svg" xmlns:xlink="http://www.w3.org/1999/xlink" width="700" height="122.60000000000001"><path d="M6 21L38.10 21Q38.10 31.80 36.70 40.80Q35.30 49.80 32.20 59.30L32.20 59.30Q37.50 69.10 37.50 79.50L37.50 79.50Q37.50 89.70 32.50 99.40L32.50 99.40L19.60 99.40Q22.80 94.20 24.35 89.35Q25.90 84.50 25.90 79.50L25.90 79.50Q25.90 74.40 24.35 69.55Q22.80 64.70 19.60 59.50L19.60 59.50Q24.20 46.30 25.60 33.80L25.60 33.80L18.20 33.80L18.20 110L6 110L6 21ZM39.80 36.60L39.80 23.60L96.80 23.60L96.80 36.60L91.10 36.60L91.10 110L64.70 110L64.70 97.20L78.30 97.20L78.30 36.60L39.80 36.60ZM42.20 87.80L42.20 45.70L71.40 45.70L71.40 87.80L42.20 87.80ZM53.60 75.80L60 75.80L60 57.70L53.60 57.70L53.60 75.80ZM111.90 21.60L188.10 21.60L188.10 71.40L156.60 71.40L156.60 78.10L190.70 78.10L190.70 89.70L156.60 89.70L156.60 96.60L195 96.60L195 108.50L105 108.50L105 96.60L143.40 96.60L143.40 89.70L109.30 89.70L109.30 78.10L143.40 78.10L143.40 71.40L111.90 71.40L111.90 21.60ZM124.70 59.80L143.40 59.80L143.40 52L124.70 52L124.70 59.80ZM124.70 40.90L143.40 40.90L143.40 33.10L124.70 33.10L124.70 40.90ZM156.60 59.80L175.30 59.80L175.30 52L156.60 52L156.60 59.80ZM156.60 40.90L175.30 40.90L175.30 33.10L156.60 33.10L156.60 40.90ZM265.70 110L265.70 97.40L281.50 97.40L282.50 70.90L245.60 70.90L249.20 33.80L243.90 33.80L243.90 21L290.20 21L287.20 58.10L295.50 58.10L293.50 110L265.70 110ZM205 44.30L205 31.30L212.20 31.30L213.90 20L227.70 20L226.20 31.30L242.60 31.30Q242.60 48.90 241.15 60.85Q239.70 72.80 235.60 84.20L235.60 84.20L241.90 88.80L241.90 78.60L274.30 78.60L274.30 91.40L243.80 91.40L243.80 105.90L230.40 96.30Q227.20 102.80 222.80 110L222.80 110L207 110Q216 97 220 88.90L220 88.90L205.30 78.40L210.30 44.30L205 44.30ZM218.60 71.90L225.10 76.60Q229.70 62.90 230.50 44.30L230.50 44.30L222.50 44.30L218.60 71.90ZM259.20 58.10L274.80 58.10L276.80 33.80L261.50 33.80L259.20 58.10ZM365.70 110L365.70 97.40L381.50 97.40L382.50 70.90L345.60 70.90L349.20 33.80L343.90 33.80L343.90 21L390.20 21L387.20 58.10L395.50 58.10L393.50 110L365.70 110ZM305 44.30L305 31.30L312.20 31.30L313.90 20L327.70 20L326.20 31.30L342.60 31.30Q342.60 48.90 341.15 60.85Q339.70 72.80 335.60 84.20L335.60 84.20L341.90 88.80L341.90 78.60L374.30 78.60L374.30 91.40L343.80 91.40L343.80 105.90L330.40 96.30Q327.20 102.80 322.80 110L322.80 110L307 110Q316 97 320 88.90L320 88.90L305.30 78.40L310.30 44.30L305 44.30ZM318.60 71.90L325.10 76.60Q329.70 62.90 330.50 44.30L330.50 44.30L322.50 44.30L318.60 71.90ZM359.20 58.10L374.80 58.10L376.80 33.80L361.50 33.80L359.20 58.10ZM404.30 98.90Q414.90 98.60 422.10 95.30L422.10 95.30L409.10 88.80L412.30 81.50L404.30 81.50L404.30 70.70L417 70.70L419.60 64.80L432.20 64.80L429.60 70.70L455.70 70.70L455.70 81.50L448.90 81.50Q445.80 88.50 441.80 93.50L441.80 93.50L454 99.80L454 107.70Q463.30 94.70 468.50 84L468.50 84L461 62L453.50 62L454.60 64.10L443.40 64.10Q439.70 56.50 438.10 48L438.10 48L435.30 48L435.30 63.30L423.70 63.30L423.70 48L421 48Q419.20 57 415.70 64.10L415.70 64.10L404.40 64.10Q408.50 56.70 410.60 48L410.60 48L404.30 48L404.30 36.60L423.70 36.60L423.70 19.80L435.30 19.80L435.30 36.60L454.70 36.60L454.70 48L448.40 48Q450 54.60 452.70 60.20L452.70 60.20Q458.90 40.80 461 18.90L461 18.90L473.30 18.90Q473 22.60 472.20 28.80L472.20 28.80L496 28.80L496 41.80L492.30 41.80Q491.60 51.20 490.10 60.30L490.10 60.30Q488 71.70 484.70 81.30L484.70 81.30L496.50 109L483.60 109L477.40 94.20Q474.70 99.70 468.90 109L468.90 109L454 109L454 111.40L433.80 101.20Q422 109.90 404.30 110L404.30 110L404.30 98.90ZM406.70 20.80L417.60 20.80L421.50 34.20L410.50 34.20L406.70 20.80ZM423.70 84.20L431.80 88.40Q434.40 85.60 436.70 81.50L436.70 81.50L424.90 81.50L423.70 84.20ZM437.60 34.20L441.30 20.80L452.30 20.80L448.50 34.20L437.60 34.20ZM468.90 48.40L475.40 70.50Q479.20 58.40 480.70 41.80L480.70 41.80L470.20 41.80L468.90 48.40ZM509.80 21.80L590.20 21.80L590.20 57.60L556.40 57.60L556.40 61.50L591.60 61.50L591.60 73.80L556.40 73.80L556.40 77.60L595.40 77.60L595.40 89.80L504.60 89.80L504.60 77.60L543.60 77.60L543.60 73.80L508.40 73.80L508.40 61.50L543.60 61.50L543.60 57.60L509.80 57.60L509.80 21.80ZM503.60 110L511.10 93.80L525.80 93.80L518.30 110L503.60 110ZM522.60 47.60L543.60 47.60L543.60 32.80L522.60 32.80L522.60 47.60ZM525 43.20L525 34L541.20 37L541.20 46.30L525 43.20ZM529.70 110L533.60 93.80L547.30 93.80L543.40 110L529.70 110ZM552.70 93.80L566.40 93.80L570.30 110L556.60 110L552.70 93.80ZM556.40 47.60L577.40 47.60L577.40 32.80L556.40 32.80L556.40 47.60ZM558.80 46.30L558.80 37L575 34L575 43.20L558.80 46.30ZM574.20 93.80L588.90 93.80L596.40 110L581.70 110L574.20 93.80ZM604 53.10Q615.60 39.80 620.20 20L620.20 20L633.30 20Q630.90 33.70 625.80 45L625.80 45L625.80 110.50L612.90 110.50L612.90 65.10Q608.80 69.60 604 73.70L604 73.70L604 53.10ZM629 105.80Q637.70 76.40 640.70 43.10L640.70 43.10L631.90 43.10L631.90 30.30L656.50 30.30L656.50 19.90L669.50 19.90L669.50 30.30L695.10 30.30L695.10 43.10L685.30 43.10Q688.30 76.40 697 105.80L697 105.80L684.40 105.80Q682.10 97.60 680.90 91.80L680.90 91.80L669.30 91.80L669.30 110L656.70 110L656.70 91.80L645.10 91.80Q643.90 97.60 641.60 105.80L641.60 105.80L629 105.80ZM647.70 79L656.70 79L656.70 43.10L652.40 43.10Q650.70 62.30 647.70 79L647.70 79ZM669.30 79L678.30 79Q675.30 62.30 673.60 43.10L673.60 43.10L669.30 43.10L669.30 79Z"/></svg>