<svg xmlns="http://www.w3.org/2000/svg" xmlns:xlink="http://www.w3.org/1999/xlink" width="535.5" height="116"><path d="M9.90 38.30L12.20 38.30Q13.70 38.30 14.70 39.30Q15.70 40.30 15.70 41.80L15.70 41.80L15.70 71.30Q15.70 72.80 16.05 73.85Q16.40 74.90 16.90 74.90L16.90 74.90L18.50 74.90Q18.80 74.90 18.90 75.90Q19 76.90 19 78.40L19 78.40L19 80.60Q19 82.10 18.25 83.15Q17.50 84.20 16.40 84.20L16.40 84.20Q15.40 84.20 13.90 83.45Q12.40 82.70 11.40 81.60L11.40 81.60L9 79.20Q7.90 78.10 7.20 76.35Q6.50 74.60 6.50 73.20L6.50 73.20L6.50 41.80Q6.50 40.30 7.50 39.30Q8.50 38.30 9.90 38.30L9.90 38.30ZM4.90 29.70L4.90 27.40Q4.90 25.90 5.90 24.90Q6.90 23.90 8.30 23.90L8.30 23.90L33.70 23.90Q35.20 23.90 36.25 24.90Q37.30 25.90 37.30 27.40L37.30 27.40L37.30 29.70Q37.30 31.10 36.25 32.15Q35.20 33.20 33.70 33.20L33.70 33.20L8.30 33.20Q6.90 33.20 5.90 32.15Q4.90 31.10 4.90 29.70L4.90 29.70ZM23.60 74.90L25.30 74.90Q25.80 74.90 26.10 73.85Q26.40 72.80 26.40 71.30L26.40 71.30L26.40 41.80Q26.40 40.30 27.45 39.30Q28.50 38.30 30 38.30L30 38.30L32.20 38.30Q33.70 38.30 34.70 39.30Q35.70 40.30 35.70 41.80L35.70 41.80L35.70 73.20Q35.70 74.60 35 76.35Q34.30 78.10 33.20 79.20L33.20 79.20L30.80 81.60Q29.70 82.70 28.25 83.45Q26.80 84.20 25.70 84.20L25.70 84.20Q24.70 84.20 23.90 83.15Q23.10 82.10 23.10 80.60L23.10 80.60L23.10 78.40Q23.10 76.90 23.25 75.90Q23.40 74.90 23.60 74.90L23.60 74.90ZM68 27L60.20 27Q58.70 27 57.70 28.05Q56.70 29.10 56.70 30.50L56.70 30.50L56.70 38.60Q56.70 40.10 57.70 41.10Q58.70 42.10 60.20 42.10L60.20 42.10L68 42.10Q69.50 42.10 70.50 43.15Q71.50 44.20 71.50 45.70L71.50 45.70L71.50 87.60Q71.50 89 70.80 90.75Q70.10 92.50 69 93.40L69 93.40L66.70 95.90Q65.60 97 63.85 97.70Q62.10 98.40 60.70 98.40L60.70 98.40L42.80 98.40Q41.30 98.40 40.30 97.35Q39.30 96.30 39.30 94.90L39.30 94.90L39.30 45.70Q39.30 44.20 40.30 43.15Q41.30 42.10 42.80 42.10L42.80 42.10L43.90 42.10Q45.30 42.10 46.35 41.10Q47.40 40.10 47.40 38.60L47.40 38.60L47.40 10.20Q47.40 8.80 48.45 7.75Q49.50 6.70 50.90 6.70L50.90 6.70L53.10 6.70Q54.60 6.70 55.65 7.75Q56.70 8.80 56.70 10.20L56.70 10.20L56.70 14.30Q56.70 15.80 57.70 16.80Q58.70 17.80 60.20 17.80L60.20 17.80L68 17.80Q69.50 17.80 70.50 18.80Q71.50 19.80 71.50 21.30L71.50 21.30L71.50 23.60Q71.50 25 70.50 26Q69.50 27 68 27L68 27ZM62.20 85.60L62.20 54.80Q62.20 53.40 61.20 52.40Q60.20 51.40 58.70 51.40L58.70 51.40L52 51.40Q50.60 51.40 49.50 52.40Q48.40 53.40 48.40 54.80L48.40 54.80L48.40 85.60Q48.40 87.10 49.50 88.10Q50.60 89.10 52 89.10L52 89.10L58.70 89.10Q60.20 89.10 61.20 88.10Q62.20 87.10 62.20 85.60L62.20 85.60ZM4.90 94.80L4.90 92.40Q4.90 91 5.90 90Q6.90 89 8.30 89L8.30 89L33.70 89Q35.20 89 36.25 90Q37.30 91 37.30 92.40L37.30 92.40L37.30 94.80Q37.30 96.20 36.25 97.25Q35.20 98.30 33.70 98.30L33.70 98.30L8.30 98.30Q6.90 98.30 5.90 97.25Q4.90 96.20 4.90 94.80L4.90 94.80ZM37.30 8.90L37.30 8.90Q37.30 9.90 36.60 11.25Q35.90 12.60 34.80 13.70L34.80 13.70L32.30 16.20Q31.30 17.10 29.55 17.85Q27.80 18.60 26.40 18.60L26.40 18.60L8.30 18.60Q6.90 18.60 5.90 17.60Q4.90 16.60 4.90 15.10L4.90 15.10L4.90 12.80Q4.90 11.30 5.90 10.30Q6.90 9.30 8.30 9.30L8.30 9.30L24.60 9.30Q26 9.30 27 8.90Q28 8.50 28 8L28 8Q28 7.40 29.05 7Q30.10 6.60 31.50 6.60L31.50 6.60L33.70 6.60Q35.20 6.60 36.25 7.30Q37.30 8 37.30 8.90ZM84.80 25.90L89.80 25.90Q90.10 25.90 90.40 24.85Q90.70 23.80 90.70 22.40L90.70 22.40L90.70 19.30Q90.70 17.90 89.70 16.85Q88.70 15.80 87.20 15.80L87.20 15.80L84.80 15.80Q83.40 15.80 82.40 14.80Q81.40 13.80 81.40 12.30L81.40 12.30L81.40 10Q81.40 8.60 82.40 7.60Q83.40 6.60 84.80 6.60L84.80 6.60L111.20 6.60Q112.60 6.60 113.65 7.60Q114.70 8.60 114.70 10L114.70 10L114.70 12.30Q114.70 13.80 113.65 14.80Q112.60 15.80 111.20 15.80L111.20 15.80L109 15.80Q107.50 15.80 106.50 16.85Q105.50 17.90 105.50 19.30L105.50 19.30L105.50 22.40Q105.50 23.80 105.65 24.85Q105.80 25.90 106.20 25.90L106.20 25.90L111.20 25.90Q112.60 25.90 113.65 26.90Q114.70 27.90 114.70 29.30L114.70 29.30L114.70 87.50Q114.70 88.90 114.05 90.75Q113.40 92.60 112.50 93.80L112.50 93.80L111.20 95.50Q110.40 96.60 108.70 97.50Q107 98.40 105.60 98.40L105.60 98.40L84.80 98.40Q83.40 98.40 82.40 97.35Q81.40 96.30 81.40 94.90L81.40 94.90L81.40 29.30Q81.40 27.90 82.40 26.90Q83.40 25.90 84.80 25.90L84.80 25.90ZM116.70 94.90L116.70 57.50Q116.70 56 117.70 54.95Q118.70 53.90 120.20 53.90L120.20 53.90L144.70 53.90Q146.10 53.90 147.10 54.95Q148.10 56 148.10 57.50L148.10 57.50L148.10 87.60Q148.10 89 147.40 90.80Q146.70 92.60 145.90 93.70L145.90 93.70L143.90 95.70Q142.90 96.80 141.25 97.60Q139.60 98.40 138.10 98.40L138.10 98.40L120.20 98.40Q118.70 98.40 117.70 97.35Q116.70 96.30 116.70 94.90L116.70 94.90ZM120.20 39.20L126.60 39.20Q128 39.20 129 38.20Q130 37.20 130 35.70L130 35.70L130 29.60Q130 28.10 129 27.10Q128 26.10 126.60 26.10L126.60 26.10Q125.10 26.10 123.45 25.35Q121.80 24.60 120.80 23.50L120.80 23.50L118.90 21.40Q117.90 20.30 117.30 18.50Q116.70 16.70 116.70 15.20L116.70 15.20L116.70 10.10Q116.70 8.70 117.70 7.65Q118.70 6.60 120.20 6.60L120.20 6.60L121.50 6.60Q122.90 6.60 123.90 7.65Q124.90 8.70 124.90 10.10L124.90 10.10L124.90 13.40Q124.90 14.80 125.65 15.80Q126.40 16.80 127.50 16.80Q128.60 16.80 129.30 15.80Q130 14.80 130 13.40L130 13.40L130 10.10Q130 8.70 131.05 7.65Q132.10 6.60 133.50 6.60L133.50 6.60L135 6.60Q136.40 6.60 137.40 7.65Q138.40 8.70 138.40 10.10L138.40 10.10L138.40 13.40Q138.40 14.80 139.40 15.80Q140.40 16.80 141.90 16.80L141.90 16.80L144.70 16.80Q146.10 16.80 147.10 17.85Q148.10 18.90 148.10 20.30L148.10 20.30L148.10 22.70Q148.10 24.10 147.10 25.10Q146.10 26.10 144.70 26.10L144.70 26.10L141.90 26.10Q140.40 26.10 139.40 27.10Q138.40 28.10 138.40 29.60L138.40 29.60L138.40 35.70Q138.40 37.20 139.40 38.20Q140.40 39.20 141.90 39.20L141.90 39.20L144.70 39.20Q146.10 39.20 147.10 40.25Q148.10 41.30 148.10 42.80L148.10 42.80L148.10 45Q148.10 46.40 147.10 47.45Q146.10 48.50 144.70 48.50L144.70 48.50L120.20 48.50Q118.70 48.50 117.70 47.45Q116.70 46.40 116.70 45L116.70 45L116.70 42.80Q116.70 41.30 117.70 40.25Q118.70 39.20 120.20 39.20L120.20 39.20ZM136.30 63.20L128.50 63.20Q127.10 63.20 126 64.25Q124.90 65.30 124.90 66.70L124.90 66.70L124.90 85.60Q124.90 87.10 126 88.10Q127.10 89.10 128.50 89.10L128.50 89.10L136.30 89.10Q137.70 89.10 138.70 88.10Q139.70 87.10 139.70 85.60L139.70 85.60L139.70 66.70Q139.70 65.30 138.70 64.25Q137.70 63.20 136.30 63.20L136.30 63.20ZM101.70 70.80L100.80 69.50Q100 68.20 99.45 66.30Q98.90 64.40 98.90 63L98.90 63L98.90 38.60Q98.90 37.20 98.65 36.15Q98.40 35.10 98 35.10Q97.60 35.10 97.40 36.15Q97.20 37.20 97.20 38.60L97.20 38.60L97.20 63Q97.20 64.40 96.60 66.25Q96 68.10 95 69.30L95 69.30L94.70 70Q93.70 71.10 92.60 72Q91.50 72.90 90.70 72.90Q89.90 72.90 89.35 73.60Q88.80 74.30 88.80 75.20L88.80 75.20Q88.80 76.20 89.85 76.85Q90.90 77.50 92.30 77.50L92.30 77.50L103.70 77.50Q105.20 77.50 106.20 77.05Q107.20 76.60 107.20 75.80L107.20 75.80Q107.20 74.90 106.70 74.35Q106.20 73.80 105.40 73.80Q104.60 73.80 103.55 72.90Q102.50 72 101.70 70.80L101.70 70.80ZM89.80 35.10L89.80 35.10Q89.30 35.10 89.05 36.15Q88.80 37.20 88.80 38.60L88.80 38.60L88.80 61Q88.80 62.50 89.05 63.50Q89.30 64.50 89.80 64.50L89.80 64.50Q90.10 64.50 90.40 63.50Q90.70 62.50 90.70 61L90.70 61L90.70 38.60Q90.70 37.20 90.40 36.15Q90.10 35.10 89.80 35.10ZM92.30 89.10L103.70 89.10Q105.20 89.10 106.20 88.60Q107.20 88.10 107.20 87.60L107.20 87.60Q107.20 86.80 106.20 86.40Q105.20 86 103.70 86L103.70 86L92.30 86Q90.90 86 89.85 86.40Q88.80 86.80 88.80 87.60L88.80 87.60Q88.80 88.10 89.85 88.60Q90.90 89.10 92.30 89.10L92.30 89.10ZM106.20 35.10L106.20 35.10Q105.80 35.10 105.65 36.15Q105.50 37.20 105.50 38.60L105.50 38.60L105.50 62.10Q105.50 63.50 105.65 64.55Q105.80 65.60 106.20 65.60L106.20 65.60Q106.70 65.60 106.95 64.55Q107.20 63.50 107.20 62.10L107.20 62.10L107.20 38.60Q107.20 37.20 106.95 36.15Q106.70 35.10 106.20 35.10ZM97.20 19.30L97.20 22.40Q97.20 23.80 97.40 24.85Q97.60 25.90 98 25.90Q98.40 25.90 98.65 24.85Q98.90 23.80 98.90 22.40L98.90 22.40L98.90 19.30Q98.90 17.90 98.65 16.85Q98.40 15.80 98 15.80Q97.60 15.80 97.40 16.85Q97.20 17.90 97.20 19.30L97.20 19.30ZM223.80 92.70L223.80 94.90Q223.80 96.30 222.80 97.35Q221.80 98.40 220.30 98.40L220.30 98.40L213.60 98.40Q212.10 98.40 210.65 97.50Q209.20 96.60 208.60 95.20L208.60 95.20L199.90 78.80Q199.30 77.50 198.40 77.50Q197.50 77.50 196.80 78.80L196.80 78.80L188.10 95.20Q187.50 96.60 186 97.50Q184.50 98.40 183.10 98.40L183.10 98.40L176.40 98.40Q174.90 98.40 173.90 97.35Q172.90 96.30 172.90 94.90L172.90 94.90L172.90 92.70Q172.90 91.20 173.90 90.20Q174.90 89.20 176.40 89.20L176.40 89.20L177.60 89.20Q179 89.20 180.40 88.30Q181.80 87.40 182.60 86L182.60 86L192.30 67.70Q192.90 66.30 193.35 64.85Q193.80 63.40 193.80 62.60Q193.80 61.80 192.80 61.15Q191.80 60.50 190.30 60.50L190.30 60.50L176.30 60.50Q174.80 60.50 173.80 59.50Q172.80 58.50 172.80 57.10L172.80 57.10L172.80 54.80Q172.80 53.40 173.80 52.40Q174.80 51.40 176.30 51.40L176.30 51.40L190.30 51.40Q191.80 51.40 192.80 50.35Q193.80 49.30 193.80 47.90L193.80 47.90L193.80 42.90Q193.80 41.50 194.80 40.40Q195.80 39.30 197.30 39.30L197.30 39.30L199.50 39.30Q200.90 39.30 201.95 40.40Q203 41.50 203 42.90L203 42.90L203 47.90Q203 49.30 204 50.35Q205 51.40 206.50 51.40L206.50 51.40L220.20 51.40Q221.70 51.40 222.70 52.40Q223.70 53.40 223.70 54.80L223.70 54.80L223.70 57.10Q223.70 58.50 222.70 59.50Q221.70 60.50 220.20 60.50L220.20 60.50L206.50 60.50Q205 60.50 204 61.15Q203 61.80 203 62.60Q203 63.40 203.45 64.95Q203.90 66.50 204.50 67.70L204.50 67.70L214.10 86Q214.80 87.40 216.30 88.30Q217.80 89.20 219.20 89.20L219.20 89.20L220.30 89.20Q221.80 89.20 222.80 90.20Q223.80 91.20 223.80 92.70L223.80 92.70ZM223.70 28.50L223.70 30.70Q223.70 32.20 222.70 33.20Q221.70 34.20 220.20 34.20L220.20 34.20L173.90 34.20Q172.50 34.20 171.40 35.20Q170.30 36.20 170.30 37.70L170.30 37.70L170.30 87.30Q170.30 88.80 169.65 90.50Q169 92.20 167.90 93.30L167.90 93.30L165.40 95.70Q164.30 96.70 162.90 97.45Q161.50 98.20 160.50 98.20L160.50 98.20Q159.40 98.20 158.65 97.20Q157.90 96.20 157.90 94.70L157.90 94.70L157.90 92.40Q157.90 91 158.35 89.90Q158.80 88.80 159.50 88.80L159.50 88.80Q160.30 88.80 160.75 87.80Q161.20 86.80 161.20 85.40L161.20 85.40L161.20 26.40Q161.20 25.80 162.25 25.40Q163.30 25 164.70 25L164.70 25L220.20 25Q221.70 25 222.70 26Q223.70 27 223.70 28.50L223.70 28.50ZM222.80 7.40Q223.80 8.20 223.80 9.30Q223.80 10.40 223.10 11.95Q222.40 13.50 221.30 14.60L221.30 14.60L218.90 16.90Q217.90 18 216.15 18.70Q214.40 19.40 213 19.40L213 19.40L164.70 19.40Q163.30 19.40 162.25 18.40Q161.20 17.40 161.20 15.90L161.20 15.90L161.20 13.70Q161.20 12.20 162.25 11.20Q163.30 10.20 164.70 10.20L164.70 10.20L211.10 10.20Q212.60 10.20 213.60 9.70Q214.60 9.20 214.60 8.40Q214.60 7.60 215.65 7.10Q216.70 6.60 218.10 6.60L218.10 6.60L220.30 6.60Q221.80 6.60 222.80 7.40ZM276.80 41.10L277.80 41.10Q279.20 41.10 280.20 42.15Q281.20 43.20 281.20 44.60L281.20 44.60L281.20 54Q281.20 55.40 281.70 56.50Q282.20 57.60 283 57.60Q283.80 57.60 284.35 58.60Q284.90 59.60 284.90 61.10L284.90 61.10L284.90 63.30Q284.90 64.70 284.05 65.70Q283.20 66.70 282.10 66.70Q281 66.70 279.55 65.95Q278.10 65.20 277.10 64.10L277.10 64.10L275.50 62.20Q274.60 61 274 59.15Q273.40 57.30 273.40 55.90L273.40 55.90L273.40 44.60Q273.40 43.20 274.40 42.15Q275.40 41.10 276.80 41.10L276.80 41.10ZM275 71L285 71Q286.50 71 287.50 70Q288.50 69 288.50 67.60L288.50 67.60L288.50 10Q288.50 8.60 289.50 7.60Q290.50 6.60 292.10 6.60L292.10 6.60L294.30 6.60Q295.70 6.60 296.75 7.60Q297.80 8.60 297.80 10L297.80 10L297.80 67.60Q297.80 69 298.25 70Q298.70 71 299.50 71Q300.30 71 300.75 72.10Q301.20 73.20 301.20 74.60L301.20 74.60L301.20 76.90Q301.20 78.20 300.75 79.30Q300.30 80.40 299.50 80.40Q298.70 80.40 298.25 81.45Q297.80 82.50 297.80 83.90L297.80 83.90L297.80 94.90Q297.80 96.30 296.75 97.35Q295.70 98.40 294.30 98.40L294.30 98.40L292.10 98.40Q290.50 98.40 289.50 97.35Q288.50 96.30 288.50 94.90L288.50 94.90L288.50 83.90Q288.50 82.50 287.50 81.45Q286.50 80.40 285 80.40L285 80.40L275 80.40Q273.50 80.40 272.50 79.30Q271.50 78.20 271.50 76.90L271.50 76.90L271.50 74.60Q271.50 73.20 272.50 72.10Q273.50 71 275 71L275 71ZM283 37.10L283 37.10Q281.90 37.10 280.45 36.30Q279 35.50 278 34.40L278 34.40L276.40 32.40Q275.50 31.30 274.90 29.45Q274.30 27.60 274.30 26.10L274.30 26.10L274.30 13.90Q274.30 12.30 275.30 11.30Q276.30 10.30 277.80 10.30L277.80 10.30L278.60 10.30Q280.10 10.30 281.10 11.30Q282.10 12.30 282.10 13.90L282.10 13.90L282.10 24.30Q282.10 25.80 282.65 26.80Q283.20 27.80 284 27.80Q284.80 27.80 285.30 28.80Q285.80 29.80 285.80 31.20L285.80 31.20L285.80 33.50Q285.80 35 285 36.05Q284.20 37.10 283 37.10ZM258.60 8.70L258.60 8.70Q258.60 7.80 259.65 7.20Q260.70 6.60 262.10 6.60L262.10 6.60L264.30 6.60Q265.70 6.60 266.75 7.50Q267.80 8.40 267.80 9.60Q267.80 10.80 267.10 12.40Q266.40 14 265.40 15.10L265.40 15.10L263.10 17.40Q262 18.50 260.60 19.20Q259.20 19.90 258.10 19.90Q257 19.90 256.30 21.05Q255.60 22.20 255.60 23.60L255.60 23.60L255.60 28.30Q255.60 29.70 256.65 30.80Q257.70 31.90 259.20 31.90L259.20 31.90L264.30 31.90Q265.70 31.90 266.75 32.95Q267.80 34 267.80 35.50L267.80 35.50L267.80 37.60Q267.80 39.10 266.75 40.15Q265.70 41.20 264.30 41.20L264.30 41.20L259.20 41.20Q257.70 41.20 256.65 42.25Q255.60 43.30 255.60 44.70L255.60 44.70L255.60 94.90Q255.60 96.30 254.60 97.35Q253.60 98.40 252.10 98.40L252.10 98.40L249.90 98.40Q248.40 98.40 247.35 97.35Q246.30 96.30 246.30 94.90L246.30 94.90L246.30 44.70Q246.30 43.30 245.30 42.25Q244.30 41.20 242.80 41.20L242.80 41.20L237.80 41.20Q236.40 41.20 235.40 40.15Q234.40 39.10 234.40 37.60L234.40 37.60L234.40 35.50Q234.40 34 235.40 32.95Q236.40 31.90 237.80 31.90L237.80 31.90L242.80 31.90Q244.30 31.90 245.30 30.80Q246.30 29.70 246.30 28.30L246.30 28.30L246.30 23.60Q246.30 22.20 245.30 21.05Q244.30 19.90 242.80 19.90L242.80 19.90L237.80 19.90Q236.40 19.90 235.40 18.90Q234.40 17.90 234.40 16.40L234.40 16.40L234.40 14.30Q234.40 12.80 235.40 11.75Q236.40 10.70 237.80 10.70L237.80 10.70L255 10.70Q256.50 10.70 257.55 10.10Q258.60 9.50 258.60 8.70ZM243.20 51.40L243.20 94.80Q243.20 96.20 242.20 97.25Q241.20 98.30 239.70 98.30L239.70 98.30L238.30 98.30Q236.90 98.30 235.85 97.25Q234.80 96.20 234.80 94.80L234.80 94.80L234.80 51.40Q234.80 49.90 235.85 48.90Q236.90 47.90 238.30 47.90L238.30 47.90L239.70 47.90Q241.20 47.90 242.20 48.90Q243.20 49.90 243.20 51.40L243.20 51.40ZM262.50 47.90L263.80 47.90Q265.20 47.90 266.25 48.90Q267.30 49.90 267.30 51.40L267.30 51.40L267.30 94.80Q267.30 96.20 266.25 97.25Q265.20 98.30 263.80 98.30L263.80 98.30L262.50 98.30Q261 98.30 259.95 97.25Q258.90 96.20 258.90 94.80L258.90 94.80L258.90 51.40Q258.90 49.90 259.95 48.90Q261 47.90 262.50 47.90L262.50 47.90ZM368.85 7.30Q369.90 8 369.90 9.10Q369.90 10.20 370.90 10.95Q371.90 11.70 373.40 11.70L373.40 11.70L374.20 11.70Q375.60 11.70 376.60 12.70Q377.60 13.70 377.60 15.10L377.60 15.10L377.60 17.40Q377.60 18.80 376.60 19.80Q375.60 20.80 374.20 20.80L374.20 20.80L373.40 20.80Q371.90 20.80 370.90 21.90Q369.90 23 369.90 24.40L369.90 24.40L369.90 25.30Q369.90 26.70 370.90 27.70Q371.90 28.70 373.40 28.70L373.40 28.70L374.20 28.70Q375.60 28.70 376.60 29.70Q377.60 30.70 377.60 32.10L377.60 32.10L377.60 34.50Q377.60 36 376.60 37Q375.60 38 374.20 38L374.20 38L351.80 38Q350.40 38 349.35 38.80Q348.30 39.60 348.30 40.70Q348.30 41.80 349.35 42.60Q350.40 43.40 351.80 43.40L351.80 43.40L374 43.40Q375.50 43.40 376.50 44.40Q377.50 45.40 377.50 46.90L377.50 46.90L377.50 73Q377.50 74.50 376.80 76.20Q376.10 77.90 375 79L375 79L372.60 81.40Q371.50 82.50 370.35 83.25Q369.20 84 368.60 84L368.60 84Q368.10 84 367.70 84.70Q367.30 85.40 367.30 86.50L367.30 86.50Q367.30 87.50 368.30 88.30Q369.30 89.10 370.80 89.10L370.80 89.10L374 89.10Q375.50 89.10 376.50 90.10Q377.50 91.10 377.50 92.60L377.50 92.60L377.50 94.90Q377.50 96.30 376.50 97.35Q375.50 98.40 374 98.40L374 98.40L368.80 98.40Q367.40 98.40 365.65 97.70Q363.90 97 362.80 95.90L362.80 95.90L360.50 93.30Q359.40 92.40 358.70 90.65Q358 88.90 358 87.50L358 87.50Q358 86 356.95 85Q355.90 84 354.40 84L354.40 84L334 84Q332.60 84 331.60 85Q330.60 86 330.60 87.50L330.60 87.50Q330.60 88.90 329.85 90.65Q329.10 92.40 328 93.30L328 93.30L325.50 95.90Q324.50 97 322.75 97.70Q321 98.40 319.60 98.40L319.60 98.40L314.30 98.40Q312.90 98.40 311.90 97.35Q310.90 96.30 310.90 94.90L310.90 94.90L310.90 92.60Q310.90 91.10 311.90 90.10Q312.90 89.10 314.30 89.10L314.30 89.10L317.70 89.10Q319.20 89.10 320.25 88.30Q321.30 87.50 321.30 86.50L321.30 86.50Q321.30 85.40 320.25 84.70Q319.20 84 317.70 84L317.70 84L314.30 84Q312.90 84 311.90 82.95Q310.90 81.90 310.90 80.50L310.90 80.50L310.90 46.90Q310.90 45.40 311.90 44.40Q312.90 43.40 314.30 43.40L314.30 43.40L335.60 43.40Q337 43.40 338.05 42.60Q339.10 41.80 339.10 40.70Q339.10 39.60 338.05 38.80Q337 38 335.60 38L335.60 38L314.30 38Q312.90 38 311.90 37Q310.90 36 310.90 34.50L310.90 34.50L310.90 32.10Q310.90 30.70 311.90 29.70Q312.90 28.70 314.30 28.70L314.30 28.70L315.10 28.70Q316.50 28.70 317.60 27.70Q318.70 26.70 318.70 25.30L318.70 25.30L318.70 24.40Q318.70 23 317.60 21.90Q316.50 20.80 315.10 20.80L315.10 20.80L314.30 20.80Q312.90 20.80 311.90 19.80Q310.90 18.80 310.90 17.40L310.90 17.40L310.90 15.10Q310.90 13.70 311.90 12.70Q312.90 11.70 314.30 11.70L314.30 11.70L315.10 11.70Q316.50 11.70 317.60 10.95Q318.70 10.20 318.70 9.10Q318.70 8 319.70 7.30Q320.70 6.60 322.10 6.60L322.10 6.60L324.40 6.60Q325.80 6.60 326.80 7.30Q327.80 8 327.80 9.10Q327.80 10.20 328.90 10.95Q330 11.70 331.40 11.70L331.40 11.70L357.20 11.70Q358.60 11.70 359.65 10.95Q360.70 10.20 360.70 9.10Q360.70 8 361.70 7.30Q362.70 6.60 364.10 6.60L364.10 6.60L366.30 6.60Q367.80 6.60 368.85 7.30ZM335.60 52.60L323.70 52.60Q322.20 52.60 321.20 53.55Q320.20 54.50 320.20 55.90L320.20 55.90Q320.20 57.20 321.20 58.10Q322.20 59 323.70 59L323.70 59L335.60 59Q337 59 338.05 58.10Q339.10 57.20 339.10 55.90L339.10 55.90Q339.10 54.50 338.05 53.55Q337 52.60 335.60 52.60L335.60 52.60ZM320.20 71.40L320.20 71.40Q320.20 72.80 321.20 73.75Q322.20 74.70 323.70 74.70L323.70 74.70L335.60 74.70Q337 74.70 338.05 73.75Q339.10 72.80 339.10 71.40L339.10 71.40Q339.10 70.10 338.05 69.20Q337 68.30 335.60 68.30L335.60 68.30L323.70 68.30Q322.20 68.30 321.20 69.20Q320.20 70.10 320.20 71.40ZM351.80 74.70L364.70 74.70Q366.20 74.70 367.20 73.75Q368.20 72.80 368.20 71.40L368.20 71.40Q368.20 70.10 367.20 69.20Q366.20 68.30 364.70 68.30L364.70 68.30L351.80 68.30Q350.40 68.30 349.35 69.20Q348.30 70.10 348.30 71.40L348.30 71.40Q348.30 72.80 349.35 73.75Q350.40 74.70 351.80 74.70L351.80 74.70ZM364.70 52.60L351.80 52.60Q350.40 52.60 349.35 53.55Q348.30 54.50 348.30 55.90L348.30 55.90Q348.30 57.20 349.35 58.10Q350.40 59 351.80 59L351.80 59L364.70 59Q366.20 59 367.20 58.10Q368.20 57.20 368.20 55.90L368.20 55.90Q368.20 54.50 367.20 53.55Q366.20 52.60 364.70 52.60L364.70 52.60ZM360.70 25.30L360.70 24.40Q360.70 23 359.65 21.90Q358.60 20.80 357.20 20.80L357.20 20.80L331.40 20.80Q330 20.80 328.90 21.90Q327.80 23 327.80 24.40L327.80 24.40L327.80 25.30Q327.80 26.70 328.90 27.70Q330 28.70 331.40 28.70L331.40 28.70L357.20 28.70Q358.60 28.70 359.65 27.70Q360.70 26.70 360.70 25.30L360.70 25.30ZM454.10 18.70L454.10 87.60Q454.10 89 453.40 90.75Q452.70 92.50 451.70 93.40L451.70 93.40L449.20 95.90Q448.10 97 446.35 97.70Q444.60 98.40 443.20 98.40L443.20 98.40L408.70 98.40Q407.30 98.40 406.30 97.35Q405.30 96.30 405.30 94.90L405.30 94.90L405.30 19.70Q405.30 17 406.15 15.60Q407 14.20 409.10 14.20L409.10 14.20L421.80 14.20Q423.20 14.20 424.25 13.15Q425.30 12.10 425.30 10.70L425.30 10.70L425.30 10Q425.30 8.60 426.30 7.60Q427.30 6.60 428.70 6.60L428.70 6.60L430.90 6.60Q432.40 6.60 433.45 7.60Q434.50 8.60 434.50 10L434.50 10L434.50 10.70Q434.50 12.10 435.50 13.15Q436.50 14.20 438 14.20L438 14.20L450.50 14.20Q452.20 14.20 453.15 15.30Q454.10 16.40 454.10 18.70L454.10 18.70ZM390 85.70L390 48Q390 46.60 391 45.60Q392 44.60 393.40 44.60L393.40 44.60L395.80 44.60Q397.20 44.60 398.20 45.60Q399.20 46.60 399.20 48L399.20 48L399.20 87.60Q399.20 89 398.50 90.75Q397.80 92.50 396.80 93.40L396.80 93.40L394.20 95.90Q393.20 97 391.80 97.70Q390.40 98.40 389.60 98.40L389.60 98.40Q388.70 98.40 388.05 97.35Q387.40 96.30 387.40 94.90L387.40 94.90L387.40 92.70Q387.40 91.20 387.75 90.20Q388.10 89.20 388.70 89.20Q389.30 89.20 389.65 88.20Q390 87.20 390 85.70L390 85.70ZM421.80 23.50L418 23.50Q416.60 23.50 415.55 24.50Q414.50 25.50 414.50 27L414.50 27L414.50 48.70Q414.50 50.10 415.55 51.10Q416.60 52.10 418 52.10L418 52.10L421.80 52.10Q423.20 52.10 424.25 51.10Q425.30 50.10 425.30 48.70L425.30 48.70L425.30 27Q425.30 25.50 424.25 24.50Q423.20 23.50 421.80 23.50L421.80 23.50ZM414.50 64.90L414.50 85.60Q414.50 87.10 415.55 88.10Q416.60 89.10 418 89.10L418 89.10L421.80 89.10Q423.20 89.20 424.25 88.15Q425.30 87.10 425.30 85.60L425.30 85.60L425.30 64.90Q425.30 63.50 424.25 62.50Q423.20 61.50 421.80 61.50L421.80 61.50L418 61.50Q416.60 61.50 415.55 62.50Q414.50 63.50 414.50 64.90L414.50 64.90ZM441.30 23.50L438 23.50Q436.50 23.50 435.50 24.50Q434.50 25.50 434.50 27L434.50 27L434.50 48.70Q434.50 50.10 435.50 51.10Q436.50 52.10 438 52.10L438 52.10L441.30 52.10Q442.80 52.10 443.80 51.10Q444.80 50.10 444.80 48.70L444.80 48.70L444.80 27Q444.80 25.50 443.80 24.50Q442.80 23.50 441.30 23.50L441.30 23.50ZM438 89.20L441.30 89.20Q442.80 89.20 443.80 88.20Q444.80 87.20 444.80 85.70L444.80 85.70L444.80 64.90Q444.80 63.50 443.80 62.50Q442.80 61.50 441.30 61.50L441.30 61.50L438 61.50Q436.50 61.50 435.50 62.50Q434.50 63.50 434.50 64.90L434.50 64.90L434.50 85.60Q434.50 87.20 435.50 88.20Q436.50 89.20 438 89.20L438 89.20ZM396.90 9.50L398.70 11.10Q399.70 12.20 399.70 13.60Q399.70 15 398.70 16.10L398.70 16.10L396.90 17.60Q396 18.70 394.55 18.70Q393.10 18.70 392.10 17.60L392.10 17.60L390.60 16.10Q389.50 15 389.50 13.60Q389.50 12.20 390.60 11.10L390.60 11.10L392.10 9.50Q393.10 8.40 394.55 8.40Q396 8.40 396.90 9.50L396.90 9.50ZM396.90 28.60L398.70 30.10Q399.70 31.20 399.70 32.60Q399.70 34 398.70 35.10L398.70 35.10L396.90 36.70Q396 37.80 394.55 37.80Q393.10 37.80 392.10 36.70L392.10 36.70L390.60 35.10Q389.50 34 389.50 32.60Q389.50 31.20 390.60 30.10L390.60 30.10L392.10 28.60Q393.10 27.60 394.55 27.60Q396 27.60 396.90 28.60L396.90 28.60ZM510.60 26.50L510.60 66.20Q510.60 67.70 511.55 68.70Q512.50 69.70 513.90 69.70L513.90 69.70Q515.10 69.70 516.05 68.70Q517 67.70 517 66.20L517 66.20L517 30.60Q517 29.20 518 28.15Q519 27.10 520.40 27.10L520.40 27.10L522.70 27.10Q524.10 27.10 525.10 28.15Q526.10 29.20 526.10 30.60L526.10 30.60L526.10 84Q526.10 85.50 526.70 86.50Q527.30 87.50 528.20 87.50L528.20 87.50Q529 87.50 529.60 88.50Q530.20 89.50 530.20 90.90L530.20 90.90L530.20 93.20Q530.20 94.60 529.35 95.65Q528.50 96.70 527.30 96.70Q526.10 96.70 524.50 95.95Q522.90 95.20 521.80 94.20L521.80 94.20L519.30 91.70Q518.40 90.70 517.70 88.95Q517 87.20 517 85.80L517 85.80L517 82.40Q517 81 516.05 79.95Q515.10 78.90 513.90 78.90L513.90 78.90Q512.50 78.90 511.55 79.95Q510.60 81 510.60 82.40L510.60 82.40L510.60 94.90Q510.60 96.30 509.60 97.35Q508.60 98.40 507.10 98.40L507.10 98.40L504.90 98.40Q503.40 98.40 502.40 97.35Q501.40 96.30 501.40 94.90L501.40 94.90L501.40 82.40Q501.40 81 500.45 79.95Q499.50 78.90 498.10 78.90Q496.70 78.90 495.65 79.95Q494.60 81 494.60 82.40L494.60 82.40L494.60 85.80Q494.60 87.20 493.90 88.95Q493.20 90.70 492.10 91.70L492.10 91.70L489.80 94.20Q488.70 95.20 487.10 95.95Q485.50 96.70 484.30 96.70L484.30 96.70Q483 96.70 482.20 95.65Q481.40 94.60 481.40 93.20L481.40 93.20L481.40 90.90Q481.40 89.50 482 88.50Q482.60 87.50 483.50 87.50L483.50 87.50Q484.30 87.50 484.85 86.50Q485.40 85.50 485.40 84L485.40 84L485.40 30.60Q485.40 29.20 486.45 28.15Q487.50 27.10 489 27.10L489 27.10L491.10 27.10Q492.60 27.10 493.60 28.15Q494.60 29.20 494.60 30.60L494.60 30.60L494.60 66.20Q494.60 67.70 495.65 68.70Q496.70 69.70 498.10 69.70Q499.50 69.70 500.45 68.70Q501.40 67.70 501.40 66.20L501.40 66.20L501.40 26.50Q501.40 25.10 500.40 24.05Q499.40 23 497.90 23L497.90 23L484.80 23Q483.40 23 482.40 21.95Q481.40 20.90 481.40 19.50L481.40 19.50L481.40 17.30Q481.40 15.80 482.40 14.80Q483.40 13.80 484.80 13.80L484.80 13.80L497.90 13.80Q499.40 13.80 500.40 12.80Q501.40 11.80 501.40 10.30L501.40 10.30L501.40 10Q501.40 8.60 502.40 7.60Q503.40 6.60 504.90 6.60L504.90 6.60L507.10 6.60Q508.60 6.60 509.60 7.60Q510.60 8.60 510.60 10L510.60 10L510.60 10.30Q510.60 11.80 511.60 12.80Q512.60 13.80 514.10 13.80L514.10 13.80L526.70 13.80Q528.10 13.80 529.15 14.80Q530.20 15.80 530.20 17.30L530.20 17.30L530.20 19.50Q530.20 20.90 529.15 21.95Q528.10 23 526.70 23L526.70 23L514.10 23Q512.60 23 511.60 24.05Q510.60 25.10 510.60 26.50L510.60 26.50ZM463.90 35.50L463.90 33.30Q463.90 31.90 464.70 30.90Q465.50 29.90 466.60 29.90Q467.70 29.90 468.45 28.85Q469.20 27.80 469.20 26.40L469.20 26.40L469.20 10Q469.20 8.60 470.25 7.60Q471.30 6.60 472.70 6.60L472.70 6.60L475 6.60Q476.40 6.60 477.45 7.60Q478.50 8.60 478.50 10L478.50 10L478.50 28.20Q478.50 29.60 478.10 30.95Q477.70 32.30 477.20 32.90L477.20 32.90Q476.50 33.50 476.15 34.90Q475.80 36.30 475.80 37.80L475.80 37.80L475.80 94.90Q475.80 96.30 474.80 97.35Q473.80 98.40 472.30 98.40L472.30 98.40L470.10 98.40Q468.70 98.40 467.65 97.35Q466.60 96.30 466.60 94.90L466.60 94.90L466.60 42.40Q466.60 41 466.25 40Q465.90 39 465.20 39L465.20 39Q464.70 39 464.30 37.95Q463.90 36.90 463.90 35.50L463.90 35.50Z"/></svg>