<svg xmlns="http://www.w3.org/2000/svg" xmlns:xlink="http://www.w3.org/1999/xlink" width="1000" height="117.578125"><path d="M59.77 15.63L59.77 15.63L53.91 12.89Q53.52 12.50 53.52 12.50L53.52 12.50L53.52 12.11Q53.52 11.72 53.52 11.72L53.52 11.72L54.30 10.55Q54.69 10.16 55.08 10.16L55.08 10.16Q55.47 10.16 55.47 10.16L55.47 10.16Q57.42 11.33 60.94 13.67L60.94 13.67Q61.33 13.67 61.33 14.06L61.33 14.06Q61.33 14.45 61.33 14.84L61.33 14.84L61.33 14.84L60.94 15.23Q60.55 15.63 60.16 15.63L60.16 15.63Q59.77 15.63 59.77 15.63ZM53.13 41.02L53.13 41.02L53.13 39.84Q53.13 38.67 54.30 38.67L54.30 38.67Q55.47 38.67 55.47 38.67L55.47 38.67Q55.86 38.28 55.86 37.50L55.86 37.50L55.86 25.39Q55.86 25 55.47 24.22L55.47 24.22L54.30 24.22Q53.52 24.22 53.52 23.44L53.52 23.44L53.52 22.66Q53.52 21.48 54.30 21.48L54.30 21.48Q56.64 20.70 58.20 19.53L58.20 19.53Q58.59 19.14 58.98 19.14L58.98 19.14Q59.38 19.14 59.38 19.92L59.38 19.92L59.38 37.50L59.77 38.67Q60.16 39.06 60.94 39.06L60.94 39.06Q61.33 39.06 61.72 39.26Q62.11 39.45 62.11 39.84L62.11 39.84L62.11 41.02Q62.11 41.80 60.94 41.80L60.94 41.80L54.30 41.80Q53.13 41.80 53.13 41.02ZM38.28 41.02L38.28 41.02L38.28 40.23Q38.28 39.45 38.67 39.06L38.67 39.06L41.41 34.38L46.88 23.83Q46.88 23.83 47.07 23.63Q47.27 23.44 47.27 23.44L47.27 23.44L47.27 23.44L45.31 23.44Q43.75 23.44 42.97 24.22L42.97 24.22Q42.19 25.39 41.41 27.34L41.41 27.34Q40.63 28.13 40.23 28.13L40.23 28.13L39.84 28.13Q39.06 28.13 39.06 27.34L39.06 27.34L39.45 21.09Q39.45 19.92 40.63 19.92L40.63 19.92L51.17 19.92Q52.34 19.92 52.34 21.09L52.34 21.09L52.34 21.48Q52.34 23.05 51.95 23.44L51.95 23.44Q46.09 32.81 43.36 37.89L43.36 37.89L43.36 39.06L47.27 38.28Q48.05 37.50 49.61 35.55L49.61 35.55L49.61 34.77L49.61 34.38Q50 33.59 51.17 33.59L51.17 33.59L51.17 33.59Q52.34 33.59 52.34 34.38L52.34 34.38L51.56 41.02Q51.56 41.02 51.37 41.41Q51.17 41.80 50.78 41.80L50.78 41.80L39.06 41.80Q38.28 41.80 38.28 41.02ZM20.70 72.27L20.70 72.27Q20.70 70.31 20.70 69.14L20.70 69.14Q20.70 64.45 23.05 59.38L23.05 59.38Q24.22 57.42 26.56 57.03L26.56 57.03Q29.69 57.42 29.30 60.94L29.30 60.94Q34.38 57.81 50.39 57.03L50.39 57.03L49.22 53.91Q48.83 52.34 48.83 51.56Q48.83 50.78 49.61 50.78L49.61 50.78Q51.17 50.78 52.34 53.91L52.34 53.91L53.52 57.03Q71.48 57.03 75.78 60.94L75.78 60.94Q79.30 64.45 79.30 68.75L79.30 68.75Q79.30 71.48 78.71 73.05Q78.13 74.61 76.56 75L76.56 75L76.56 75Q75.39 75 75.39 73.44L75.39 73.44L75.78 71.48Q76.17 69.53 76.17 69.14L76.17 69.14Q76.17 66.41 74.61 64.45L74.61 64.45Q71.88 60.55 61.33 59.38L61.33 59.38Q58.98 59.38 54.69 59.38L54.69 59.38Q47.27 59.38 40.23 60.16L40.23 60.16Q31.64 62.11 28.91 64.06L28.91 64.06Q28.52 68.75 27.34 72.27L27.34 72.27Q26.95 75 24.22 75.39L24.22 75.39Q21.88 75.39 20.70 72.27ZM48.05 111.33L48.05 111.33Q46.09 111.33 43.75 110.55L43.75 110.55Q40.23 108.98 39.06 107.42L39.06 107.42Q37.11 105.47 38.28 104.30L38.28 104.30Q38.67 104.30 39.06 104.30L39.06 104.30Q40.23 104.30 41.80 105.47L41.80 105.47Q44.14 107.81 46.88 108.20L46.88 108.20Q50 108.98 49.22 101.17L49.22 101.17L49.22 87.11Q41.02 87.11 33.20 87.89L33.20 87.89Q23.44 89.06 21.48 89.84L21.48 89.84Q20.70 90.23 19.92 90.23L19.92 90.23Q18.75 90.23 18.36 89.06L18.36 89.06L17.97 88.67Q17.97 87.50 22.66 86.33L22.66 86.33Q28.52 85.55 49.22 84.38L49.22 84.38Q52.34 81.64 57.03 76.17L57.03 76.17Q58.59 73.44 58.59 72.27L58.59 72.27Q58.59 70.31 55.47 70.31L55.47 70.31Q46.88 70.70 42.97 71.88L42.97 71.88Q37.11 73.05 35.55 73.44L35.55 73.44Q35.16 73.44 34.38 73.44L34.38 73.44Q33.20 73.44 32.81 72.27L32.81 72.27L32.81 71.88Q32.81 70.70 35.16 70.31L35.16 70.31Q38.28 69.14 39.84 69.14L39.84 69.14Q41.80 68.75 46.09 67.97L46.09 67.97Q49.22 67.58 55.47 67.58L55.47 67.58Q59.77 67.58 62.50 70.31L62.50 70.31Q62.50 70.70 62.50 71.88L62.50 71.88Q62.50 73.83 61.33 75.78L61.33 75.78Q58.98 79.30 53.91 83.98L53.91 83.98Q63.28 83.59 69.92 84.38L69.92 84.38Q76.95 85.16 79.30 85.55L79.30 85.55Q81.64 86.33 80.86 87.89L80.86 87.89Q80.47 88.67 79.30 88.67L79.30 88.67Q78.52 88.67 75.39 88.28L75.39 88.28Q66.02 86.72 59.38 86.72L59.38 86.72Q57.03 86.72 52.34 87.11L52.34 87.11Q52.73 97.66 52.73 100L52.73 100Q52.73 105.08 52.34 107.81L52.34 107.81Q51.56 110.94 49.22 111.33L49.22 111.33Q48.83 111.33 48.05 111.33ZM151.56 14.06L151.56 14.06L149.22 10.94L149.22 10.55Q149.61 10.16 149.61 10.16L149.61 10.16L150.78 10.16Q152.34 10.16 153.91 12.11L153.91 12.11L155.08 13.67L155.86 12.11Q157.81 10.16 158.98 10.16L158.98 10.16L160.55 10.16Q160.55 10.16 160.55 10.55L160.55 10.55Q160.94 10.55 160.55 10.94L160.55 10.94L158.59 14.06Q155.86 17.19 155.47 17.19L155.47 17.19L154.69 17.19Q153.91 17.19 151.56 14.06ZM141.80 42.97L140.63 42.58Q138.67 42.19 138.28 39.84L138.28 39.84Q137.89 39.06 137.89 37.89L137.89 37.89L137.89 23.44Q137.89 22.66 137.50 22.66L137.50 22.66L135.16 22.66Q134.38 22.66 134.38 21.88L134.38 21.88L134.38 20.31Q134.38 19.53 135.16 19.53L135.16 19.53Q135.55 19.53 136.33 19.53L136.33 19.53Q137.89 17.97 137.89 16.02L137.89 16.02Q138.28 14.84 138.67 11.72L138.67 11.72Q138.67 10.55 139.45 10.55L139.45 10.55L140.23 10.55Q141.02 10.55 141.02 11.72L141.02 11.72L141.02 18.75Q141.02 19.53 141.41 19.53L141.41 19.53L144.14 19.53Q144.92 19.53 145.31 20.31L145.31 20.31L145.31 21.88Q145.31 22.66 144.14 22.66L144.14 22.66L141.41 22.66Q141.02 22.66 141.02 23.44L141.02 23.44L141.02 37.11Q141.41 38.67 142.19 39.06L142.19 39.06Q142.97 39.06 144.53 37.11L144.53 37.11Q144.92 36.33 145.31 36.33Q145.70 36.33 146.09 37.11L146.09 37.11Q146.88 37.89 146.48 39.06L146.48 39.06Q144.14 42.97 141.80 42.97L141.80 42.97ZM151.17 41.41L151.17 41.41L151.17 39.84Q151.17 39.06 151.95 39.06L151.95 39.06Q153.13 39.06 153.52 38.67L153.52 38.67Q153.91 37.89 153.91 37.50L153.91 37.50L153.91 25.39L153.13 24.61L152.34 24.61Q151.56 24.61 151.56 23.83L151.56 23.83L151.56 22.66Q151.56 21.48 152.34 21.48L152.34 21.48Q154.69 20.70 155.86 19.92L155.86 19.92Q155.86 19.92 156.25 19.73Q156.64 19.53 157.03 19.53L157.03 19.53Q157.42 19.53 157.42 19.92L157.42 19.92L157.42 37.50L157.81 39.06Q158.20 39.06 158.98 39.06L158.98 39.06Q159.77 39.06 159.77 40.23L159.77 40.23L159.77 41.41Q159.77 41.80 158.98 41.80L158.98 41.80L151.95 41.80Q151.17 41.80 151.17 41.41ZM158.20 107.81L158.20 107.81Q158.20 107.03 158.59 105.86L158.59 105.86Q160.16 102.73 160.16 100.39L160.16 100.39Q154.30 99.61 153.52 98.83L153.52 98.83Q151.95 98.05 153.52 97.27L153.52 97.27Q154.30 97.27 155.86 97.27L155.86 97.27Q158.59 97.27 160.16 97.66L160.16 97.66Q161.33 87.11 161.33 75L161.33 75Q148.05 87.11 145.31 94.14L145.31 94.14Q142.19 100.78 140.63 100.39L140.63 100.39Q139.45 99.61 139.45 98.83L139.45 98.83Q139.45 97.27 140.23 96.09L140.23 96.09Q141.41 92.97 147.66 84.77L147.66 84.77Q153.13 77.34 161.33 71.48L161.33 71.48L160.94 62.11Q148.05 62.89 143.75 64.45L143.75 64.45Q141.41 65.23 140.63 65.23L140.63 65.23Q139.45 65.23 139.06 64.84L139.06 64.84L139.06 64.45Q139.06 63.28 141.80 62.50L141.80 62.50Q145.31 61.33 148.83 60.55L148.83 60.55Q152.34 60.16 160.55 59.38L160.55 59.38Q160.16 54.30 158.98 51.17L158.98 51.17Q158.20 50 158.20 49.61L158.20 49.61Q158.20 48.44 159.77 48.44L159.77 48.44Q161.72 48.44 162.89 51.17L162.89 51.17Q164.06 53.91 164.06 59.38L164.06 59.38Q169.14 59.38 171.48 59.77L171.48 59.77Q173.05 59.77 178.91 60.94L178.91 60.94Q183.20 61.72 182.42 63.28L182.42 63.28Q182.42 64.06 180.86 64.06L180.86 64.06Q179.30 64.06 178.52 63.67L178.52 63.67Q175 62.50 170.70 62.50L170.70 62.50Q169.14 62.11 166.80 62.11L166.80 62.11Q164.84 62.11 164.45 62.50L164.45 62.50Q164.84 69.14 164.84 72.66L164.84 72.66Q168.36 73.05 175.78 82.03L175.78 82.03Q183.20 91.41 183.20 94.92L183.20 94.92L183.20 96.09Q183.20 98.83 181.64 99.61L181.64 99.61L181.64 99.61Q180.47 99.61 180.47 96.48L180.47 96.48Q180.47 93.36 174.61 85.55L174.61 85.55Q168.36 76.95 164.84 75.39L164.84 75.39Q164.84 86.33 163.67 97.66L163.67 97.66L166.41 97.66Q167.97 97.66 170.31 97.27L170.31 97.27L171.09 97.27Q173.05 97.27 173.05 98.44L173.05 98.44Q173.05 100 163.67 100.39L163.67 100.39Q163.67 103.13 162.50 106.25L162.50 106.25Q161.33 108.98 158.98 108.98L158.98 108.98Q158.20 108.98 158.20 107.81ZM116.80 75L116.80 75Q116.41 69.53 123.83 60.94L123.83 60.94Q132.03 51.95 136.72 51.56L136.72 51.56L137.11 51.56Q138.67 51.56 138.67 53.52L138.67 53.52Q139.06 57.03 131.64 66.41L131.64 66.41Q123.05 75.78 119.14 75.78L119.14 75.78L118.75 75.78Q117.19 75.78 116.80 75ZM128.91 107.03L128.91 107.03Q126.17 102.34 126.17 96.09L126.17 96.09Q126.17 92.58 127.34 84.77L127.34 84.77Q128.52 74.61 129.69 72.27L129.69 72.27Q130.47 69.53 131.25 68.75L131.25 68.75Q131.64 67.58 132.81 68.75L132.81 68.75Q133.20 69.14 133.20 69.92L133.20 69.92Q133.20 71.09 132.03 75L132.03 75Q130.86 80.08 130.08 87.89L130.08 87.89Q129.30 94.92 129.69 99.22L129.69 99.22Q130.47 101.95 132.03 106.64L132.03 106.64Q134.38 110.55 132.42 110.55L132.42 110.55Q131.25 110.16 128.91 107.03ZM242.58 41.02L242.58 41.02L242.58 39.84Q242.58 38.67 243.75 38.67L243.75 38.67Q244.53 38.67 244.92 38.67L244.92 38.67L245.31 37.50L245.31 15.63Q245.31 15.23 244.53 14.84L244.53 14.84L243.75 14.84Q242.97 14.84 242.97 13.67L242.97 13.67L242.97 12.89Q242.97 12.11 243.16 11.91Q243.36 11.72 243.75 11.72L243.75 11.72Q246.09 10.94 246.09 10.55L246.09 10.55L247.66 9.77Q248.05 9.38 248.05 9.38L248.05 9.38Q248.83 9.38 248.83 9.77L248.83 9.77Q248.83 9.77 248.83 10.55L248.83 10.55L248.83 21.09L248.83 21.48L249.22 21.09Q251.95 19.53 254.69 19.53L254.69 19.53Q256.25 19.53 257.42 21.09L257.42 21.09Q258.98 23.05 258.98 25L258.98 25L258.98 37.50L259.77 38.67L260.94 38.67Q261.33 38.67 261.72 39.45L261.72 39.45L261.72 39.84L261.72 41.02Q261.72 41.80 261.33 41.80L261.33 41.80L253.91 41.80Q253.13 41.80 253.13 41.02L253.13 41.02L253.13 39.84Q253.13 38.67 253.91 38.67L253.91 38.67Q255.08 38.67 255.08 38.67L255.08 38.67Q255.47 38.28 255.47 37.89L255.47 37.89L255.47 26.56Q255.47 24.22 254.30 23.05L254.30 23.05L253.13 23.05Q251.56 23.05 249.61 25.39L249.61 25.39Q248.83 25.78 248.83 26.56L248.83 26.56L248.83 37.50Q249.22 38.28 249.22 38.67L249.22 38.67Q249.61 38.67 250.78 38.67L250.78 38.67Q251.56 38.67 251.56 39.84L251.56 39.84L251.56 41.02Q251.56 41.80 250.78 41.80L250.78 41.80L243.75 41.80Q242.58 41.80 242.58 41.02ZM269.92 15.63L269.53 15.63L263.28 12.89L263.28 12.50L262.89 12.11L262.89 11.72L263.67 10.55Q264.06 10.16 264.45 10.16L264.45 10.16L264.84 10.16Q267.58 11.72 270.31 13.67L270.31 13.67Q270.31 13.67 270.51 13.87Q270.70 14.06 270.70 14.06L270.70 14.06L270.70 14.84L270.70 15.23L270.70 15.23Q270.31 15.63 269.92 15.63L269.92 15.63ZM262.89 41.02L262.89 41.02L262.89 39.84Q262.89 38.67 263.67 38.67L263.67 38.67Q264.84 38.67 265.23 38.67L265.23 38.67Q265.63 37.89 265.63 37.50L265.63 37.50L265.63 25.39L265.23 24.22L264.06 24.22Q263.28 24.22 263.28 23.83L263.28 23.83L263.28 22.66Q263.28 21.48 264.06 21.48L264.06 21.48Q266.02 21.09 267.58 19.53L267.58 19.53Q268.36 19.14 268.75 19.53L268.75 19.53Q268.75 19.53 268.75 19.92L268.75 19.92L268.75 37.50L269.53 38.67Q269.92 39.06 270.70 39.06L270.70 39.06Q271.48 39.06 271.48 39.84L271.48 39.84L271.48 41.02Q271.48 41.80 270.70 41.80L270.70 41.80L263.67 41.80Q262.89 41.80 262.89 41.02ZM230.86 42.19L230.86 42.19L228.91 35.16Q228.91 35.16 228.71 34.57Q228.52 33.98 229.30 33.59L229.30 33.59L229.69 33.59L229.69 33.59Q230.47 33.20 230.86 33.98L230.86 33.98Q231.64 35.94 233.59 37.89L233.59 37.89Q233.98 38.67 235.94 39.45L235.94 39.45L236.33 39.45Q237.50 39.45 238.28 37.50L238.28 37.50Q238.67 36.33 238.28 35.55L238.28 35.55Q237.11 33.98 235.16 33.20L235.16 33.20Q233.20 32.42 232.81 31.64L232.81 31.64Q229.69 30.47 229.30 27.34L229.30 27.34L228.91 25.78Q228.91 23.05 230.47 21.48L230.47 21.48Q232.03 19.53 234.77 19.53L234.77 19.53Q235.94 19.53 237.50 20.31L237.50 20.31L237.50 20.31Q238.28 20.31 238.67 19.92L238.67 19.92Q238.67 19.92 239.06 19.53L239.06 19.53Q239.45 19.53 239.45 19.92L239.45 19.92L239.84 19.92L239.84 20.31L241.41 26.17Q241.41 27.34 241.41 27.73L241.41 27.73Q241.41 27.73 241.02 27.73L241.02 27.73L240.63 27.73Q240.23 28.13 239.45 27.73L239.45 27.73Q239.06 27.34 239.06 27.34L239.06 27.34L238.67 25.78Q237.11 23.44 236.33 23.44L236.33 23.44L234.77 22.66Q233.98 22.66 233.20 23.44L233.20 23.44Q232.42 24.22 232.42 26.17L232.42 26.17Q232.81 27.34 233.59 27.73L233.59 27.73L236.33 28.91L239.06 30.47Q241.80 32.03 241.80 35.55L241.80 35.55Q241.80 35.94 241.80 36.33L241.80 36.33L241.41 37.89Q241.02 39.84 239.45 41.41L239.45 41.41Q238.28 42.58 236.33 42.58L236.33 42.58Q234.77 42.58 233.20 41.80L233.20 41.80Q232.81 41.80 232.03 42.19L232.03 42.19Q231.64 42.97 231.25 42.97L231.25 42.97L231.25 42.97Q230.86 42.19 230.86 42.19ZM274.61 88.28L274.61 88.28L274.61 85.94Q275.39 83.59 276.17 79.30L276.17 79.30Q276.56 73.44 276.56 69.53L276.56 69.53Q276.56 66.02 276.17 61.72L276.17 61.72Q275.78 54.30 267.58 54.69L267.58 54.69Q264.84 54.69 261.72 55.47L261.72 55.47Q260.94 55.86 255.86 57.42L255.86 57.42Q255.08 78.52 255.08 83.59L255.08 83.59Q254.30 91.02 250.78 90.23L250.78 90.23Q247.27 90.23 246.88 83.59L246.88 83.59Q246.48 80.86 246.48 74.61L246.48 74.61Q246.48 67.19 247.27 57.81L247.27 57.81Q247.27 51.56 250 52.34L250 52.34Q253.13 51.95 255.08 54.69L255.08 54.69Q259.77 51.95 267.58 51.17L267.58 51.17Q277.34 51.56 278.91 57.42L278.91 57.42Q280.08 61.72 280.08 67.97L280.08 67.97Q280.08 73.83 278.91 82.03L278.91 82.03Q277.73 91.02 276.17 90.63L276.17 90.63Q274.61 90.23 274.61 88.28ZM227.73 58.59L227.73 58.59Q227.73 52.73 231.25 52.34L231.25 52.34Q234.77 52.73 235.55 58.20L235.55 58.20Q235.16 64.06 231.64 64.06L231.64 64.06Q228.52 64.06 227.73 58.59ZM229.69 106.64L229.69 106.64L229.69 103.52L229.69 98.83Q229.69 93.75 230.47 88.28L230.47 88.28Q228.52 90.23 223.44 93.75L223.44 93.75Q219.14 96.88 217.97 95.70L217.97 95.70Q217.58 95.31 217.58 94.92L217.58 94.92Q217.58 93.75 220.31 92.19L220.31 92.19Q227.73 87.50 237.50 76.95L237.50 76.95Q239.84 73.83 239.84 72.27L239.84 72.27Q239.84 70.70 238.28 70.31L238.28 70.31Q233.98 69.53 230.08 69.53L230.08 69.53Q225 69.92 223.44 70.31L223.44 70.31Q222.27 70.70 221.29 70.70Q220.31 70.70 219.14 71.09L219.14 71.09L218.75 71.09Q217.19 71.09 216.80 69.53L216.80 69.53Q216.41 67.97 224.61 66.80L224.61 66.80Q229.69 66.41 231.64 66.41L231.64 66.41Q238.67 66.41 241.41 67.97L241.41 67.97Q244.53 69.14 244.53 71.48L244.53 71.48Q244.53 72.66 243.36 74.22L243.36 74.22Q241.80 76.95 235.94 82.81L235.94 82.81Q237.89 85.16 239.84 86.72L239.84 86.72Q242.19 88.67 243.36 90.23L243.36 90.23L243.36 91.02Q243.36 91.80 240.63 91.41L240.63 91.41Q238.28 89.84 233.98 85.55L233.98 85.55Q232.81 94.92 232.81 98.44L232.81 98.44Q232.81 100.78 232.81 103.91L232.81 103.91Q232.81 106.64 233.98 109.38L233.98 109.38Q234.38 110.55 234.38 111.33L234.38 111.33Q234.38 112.11 233.20 112.11L233.20 112.11Q230.08 112.11 229.69 106.64ZM246.48 110.16L246.48 110.16Q246.48 109.38 248.83 107.42L248.83 107.42Q257.42 93.36 260.16 80.86L260.16 80.86Q262.11 74.22 262.50 70.70L262.50 70.70Q262.50 67.58 264.45 68.75L264.45 68.75Q265.23 68.75 265.23 70.70L265.23 70.70Q265.23 73.83 263.28 82.03L263.28 82.03Q259.77 95.70 251.56 108.59L251.56 108.59Q249.22 112.11 247.27 111.33L247.27 111.33Q246.48 110.94 246.48 110.16ZM263.67 106.25L263.67 106.25Q262.89 103.91 262.89 100.78L262.89 100.78L262.50 96.88L262.89 93.36Q262.89 87.89 264.84 87.89L264.84 87.89Q266.41 88.28 266.41 90.63L266.41 90.63L266.02 95.70L265.63 98.83L266.02 103.13Q267.58 108.59 273.44 108.20L273.44 108.20Q278.52 108.20 279.30 105.08L279.30 105.08L279.30 103.52Q279.30 101.56 278.13 99.22L278.13 99.22Q277.73 98.05 277.73 97.27L277.73 97.27Q277.73 96.48 278.91 95.70L278.91 95.70Q281.25 95.31 282.42 102.34L282.42 102.34Q283.20 106.64 281.05 108.79Q278.91 110.94 273.44 110.94L273.44 110.94Q265.63 110.94 263.67 106.25ZM335.94 15.63L335.94 15.63L335.94 15.63Q334.38 14.45 334.38 12.89L334.38 12.89Q334.38 9.38 336.33 9.38L336.33 9.38L336.72 9.38Q338.67 9.38 339.06 11.33L339.06 11.33L339.45 12.50Q339.45 13.67 339.06 14.84L339.06 14.84Q338.28 16.02 337.11 16.02L337.11 16.02Q336.72 16.02 335.94 15.63ZM342.58 15.23L342.58 15.23Q341.41 13.28 341.80 11.72L341.80 11.72Q341.80 10.55 342.97 10.16L342.97 10.16Q343.36 9.38 344.53 9.38L344.53 9.38Q346.09 9.38 346.48 10.55L346.48 10.55Q347.66 12.11 346.88 13.67L346.88 13.67Q346.48 14.84 345.70 15.63L345.70 15.63Q344.92 16.02 344.53 16.02L344.53 16.02Q343.36 16.02 342.58 15.23ZM362.50 15.63L362.50 15.63L356.25 12.89Q356.25 12.89 355.86 12.89L355.86 12.89Q355.47 12.50 355.66 12.30Q355.86 12.11 355.86 11.72L355.86 11.72L356.64 10.94Q357.03 10.16 357.42 10.16L357.42 10.16Q357.81 10.16 357.81 10.16L357.81 10.16Q358.98 10.94 362.89 13.67L362.89 13.67Q364.06 14.45 363.67 14.84L363.67 14.84L363.67 15.23L363.67 15.63Q363.28 16.02 362.89 16.02L362.89 16.02L362.89 16.02Q362.50 16.02 362.50 15.63ZM332.03 47.66L332.03 47.66Q329.69 46.09 330.86 43.75L330.86 43.75Q330.86 43.36 330.86 43.36L330.86 43.36L331.25 42.97Q331.64 42.58 332.42 42.58L332.42 42.58Q332.81 42.58 333.98 43.75L333.98 43.75L334.77 45.31Q334.77 45.31 334.77 45.51Q334.77 45.70 334.77 45.70L334.77 45.70L334.77 45.31L334.77 44.92L335.55 42.97L335.55 25.39Q335.55 24.22 334.77 24.22L334.77 24.22Q334.38 24.22 334.38 24.22L334.38 24.22Q333.20 24.22 333.20 23.44L333.20 23.44L333.20 22.66Q333.20 21.48 333.98 21.48L333.98 21.48Q336.33 21.09 337.89 19.53L337.89 19.53Q337.89 19.14 338.09 19.14Q338.28 19.14 338.67 19.14L338.67 19.14Q339.06 19.14 339.06 19.53L339.06 19.53L339.06 41.02Q338.67 44.53 337.89 46.48L337.89 46.48Q336.72 48.44 334.77 49.22L334.77 49.22L334.38 49.22Q333.20 49.22 332.03 47.66ZM340.23 41.02L340.23 41.02L340.23 39.84Q340.23 38.67 341.41 38.67L341.41 38.67Q342.58 38.67 342.97 38.67L342.97 38.67Q343.36 37.89 343.36 37.11L343.36 37.11L343.36 25.39L342.58 24.22L341.80 24.22Q340.63 24.22 340.63 23.44L340.63 23.44L340.63 22.66Q340.63 21.48 341.80 21.48L341.80 21.48Q344.14 20.70 345.31 19.53L345.31 19.53Q345.31 19.53 345.70 19.34Q346.09 19.14 346.48 19.14L346.48 19.14Q346.48 19.14 346.48 19.92L346.48 19.92L346.48 37.50Q346.88 38.67 346.88 38.67L346.88 38.67Q347.66 38.67 348.05 38.67L348.05 38.67Q349.22 38.67 349.22 39.84L349.22 39.84L349.22 41.02Q349.22 41.80 348.05 41.80L348.05 41.80L341.41 41.80Q340.23 41.80 340.23 41.02ZM356.64 41.80L356.64 41.80Q354.69 41.41 353.91 39.06L353.91 39.06Q351.56 35.55 351.95 30.47L351.95 30.47Q351.95 26.95 353.91 23.44L353.91 23.44Q354.69 21.09 356.25 20.31L356.25 20.31Q357.81 19.14 359.38 19.14L359.38 19.14Q362.89 19.14 364.84 23.44L364.84 23.44Q366.41 26.56 366.41 29.69L366.41 29.69Q366.41 31.25 365.63 31.25L365.63 31.25L355.86 31.25Q355.47 31.25 355.47 31.64L355.47 31.64Q355.47 33.98 356.25 35.55L356.25 35.55Q357.03 37.50 358.59 38.28L358.59 38.28Q358.98 38.67 359.77 38.67L359.77 38.67Q362.11 38.67 364.06 35.55L364.06 35.55Q364.06 34.77 364.45 34.77L364.45 34.77Q364.84 34.38 365.23 34.96Q365.63 35.55 365.63 35.55L365.63 35.55Q366.02 35.55 366.02 35.94Q366.02 36.33 365.63 36.72L365.63 36.72Q364.06 41.80 360.16 42.58L360.16 42.58L358.98 42.58Q358.20 42.58 356.64 41.80ZM356.25 27.34L356.25 27.73L362.11 27.73L362.89 27.73L362.50 27.34L362.50 26.95L361.72 24.22Q360.55 23.05 359.77 22.66L359.77 22.66L358.98 22.66Q357.42 23.44 356.64 25.39L356.64 25.39Q356.64 26.17 356.45 26.56Q356.25 26.95 356.25 27.34L356.25 27.34ZM382.42 93.36L382.42 93.36Q382.03 93.36 380.08 92.58L380.08 92.58Q367.58 85.16 358.59 80.47L358.59 80.47Q353.13 78.13 355.47 76.56L355.47 76.56L346.09 77.34Q336.33 77.34 332.81 76.95L332.81 76.95Q332.81 79.30 329.69 80.47L329.69 80.47Q325.39 79.30 323.83 74.22L323.83 74.22Q320.31 62.89 320.31 56.25L320.31 56.25Q320.31 51.95 323.83 50.39L323.83 50.39Q326.56 50.78 328.52 53.52L328.52 53.52Q329.69 52.34 337.89 50.78L337.89 50.78Q343.36 49.61 350.78 49.61L350.78 49.61Q353.52 49.61 360.16 50L360.16 50Q373.44 50.78 373.05 61.72L373.05 61.72Q373.05 64.06 372.27 66.41L372.27 66.41Q372.27 68.36 371.48 73.44L371.48 73.44Q372.66 75 372.27 75.78L372.27 75.78Q371.48 76.56 367.58 76.56L367.58 76.56Q362.89 76.56 357.42 76.56L357.42 76.56Q367.58 81.25 382.81 90.63L382.81 90.63Q384.77 91.41 383.98 92.97L383.98 92.97Q383.20 93.36 382.42 93.36ZM367.97 73.05L367.97 73.05Q369.92 66.41 369.92 60.16L369.92 60.16Q369.53 53.52 359.38 52.34L359.38 52.34Q355.47 52.34 353.52 52.34L353.52 52.34Q351.56 52.34 347.27 52.34L347.27 52.34Q348.05 56.64 348.05 60.55L348.05 60.55Q360.94 60.55 360.94 62.50L360.94 62.50Q360.94 64.06 358.59 64.06L358.59 64.06Q357.42 64.06 356.64 64.06L356.64 64.06Q353.13 63.28 348.44 63.28L348.44 63.28Q348.44 68.75 347.66 74.22L347.66 74.22Q357.81 74.22 367.97 73.05ZM344.92 60.55L344.92 60.55Q344.92 56.64 344.14 52.73L344.14 52.73Q337.11 53.13 329.30 55.86L329.30 55.86L330.47 62.89Q335.55 61.33 344.92 60.55ZM344.92 63.28L344.92 63.28Q335.94 64.06 331.25 65.63L331.25 65.63Q331.64 67.97 332.81 73.83L332.81 73.83Q337.50 74.22 344.14 74.22L344.14 74.22Q344.92 69.53 344.92 63.28ZM314.84 98.83L314.84 98.83Q314.84 98.05 316.02 96.88L316.02 96.88Q330.86 86.72 335.94 80.47L335.94 80.47Q337.50 77.73 339.45 78.91L339.45 78.91Q340.23 79.30 340.23 80.08L340.23 80.08Q340.23 80.86 339.06 82.03L339.06 82.03Q329.30 92.58 317.58 99.22L317.58 99.22Q315.63 100.39 314.84 99.61L314.84 99.61Q314.84 99.22 314.84 98.83ZM330.86 110.55L330.86 110.55Q330.86 109.38 331.25 108.59L331.25 108.59Q335.94 100.39 337.89 89.84L337.89 89.84Q338.28 87.50 339.45 87.11L339.45 87.11Q341.02 87.11 341.41 89.84L341.41 89.84Q339.84 100 333.98 110.55L333.98 110.55Q332.81 112.11 331.25 111.72L331.25 111.72Q330.86 111.33 330.86 110.55ZM356.25 110.16L356.25 110.16Q356.25 108.98 356.25 106.64Q356.25 104.30 356.25 100L356.25 100L355.86 94.53Q355.86 90.63 355.86 89.45L355.86 89.45Q355.86 87.11 357.03 87.11L357.03 87.11Q358.98 87.11 358.98 89.45L358.98 89.45Q359.38 91.41 359.38 99.61L359.38 99.61L359.38 109.77Q359.38 112.50 357.81 112.50L357.81 112.50Q356.25 112.50 356.25 110.16ZM442.58 41.80L435.16 41.80Q433.98 41.80 433.98 41.02L433.98 41.02L433.98 39.45Q433.98 38.67 435.16 38.67L435.16 38.67Q436.33 38.67 436.72 38.28L436.72 38.28Q437.50 38.28 437.11 37.11L437.11 37.11L437.11 37.11L437.11 23.44Q437.11 23.05 436.72 23.05L436.72 23.05L435.16 23.05Q434.77 23.05 434.38 22.85Q433.98 22.66 433.98 21.88L433.98 21.88L433.98 20.70Q433.98 19.92 435.16 19.92L435.16 19.92L436.72 19.92Q437.11 19.92 437.11 18.75L437.11 18.75Q437.11 16.02 438.28 13.67L438.28 13.67Q439.06 11.72 439.84 10.16L439.84 10.16Q441.41 9.77 442.97 9.77L442.97 9.77L442.97 9.77L444.14 10.16L444.53 10.16Q444.92 10.94 445.70 11.72L445.70 11.72Q445.70 13.28 445.70 13.67L445.70 13.67Q445.70 14.45 445.31 15.23L445.31 15.23Q445.31 15.63 444.92 15.63L444.92 15.63L444.53 15.63L444.14 16.02L444.14 16.02Q442.58 16.02 441.80 13.67L441.80 13.67Q441.80 12.89 441.41 12.89L441.41 12.89Q441.41 13.28 441.41 13.67L441.41 13.67Q440.23 16.02 440.23 19.14L440.23 19.14Q440.23 19.92 440.63 19.92L440.63 19.92L443.75 19.92Q444.53 19.92 444.53 20.70L444.53 20.70L444.53 21.88Q444.53 23.05 443.75 23.05L443.75 23.05L441.02 23.05Q440.23 23.05 440.23 23.44L440.23 23.44L440.23 37.89Q440.23 37.89 440.63 38.28L440.63 38.28Q442.19 38.67 442.58 38.67L442.58 38.67Q443.36 38.67 443.36 39.45L443.36 39.45L443.36 41.02Q443.36 41.80 442.58 41.80L442.58 41.80ZM451.56 14.06L449.61 10.94Q449.22 10.94 449.22 10.55L449.22 10.55Q449.61 10.16 450 10.16L450 10.16L451.17 10.16Q452.73 10.16 454.30 12.11L454.30 12.11L455.08 13.67L456.25 12.11Q457.81 10.16 459.38 10.16L459.38 10.16L460.55 10.16Q460.94 10.16 460.94 10.55L460.94 10.55Q460.94 10.94 460.94 10.94L460.94 10.94L458.98 14.06Q456.25 17.19 455.47 17.19L455.47 17.19L454.69 17.19Q454.30 17.19 451.56 14.06L451.56 14.06ZM458.59 26.95L458.59 26.95Q458.59 25.78 458.20 25.78L458.20 25.78L458.20 25.39Q458.20 23.05 456.64 23.05L456.64 23.05L454.30 23.05Q453.52 23.44 453.52 23.83L453.52 23.83Q453.13 24.22 453.13 25.78L453.13 25.78L453.13 25.78L453.13 26.56Q453.13 27.34 452.73 27.34L452.73 27.34Q451.95 28.52 450.78 27.73L450.78 27.73Q449.61 27.34 449.22 26.17L449.22 26.17L449.22 25.39Q449.22 22.66 451.95 20.70L451.95 20.70Q453.13 19.53 455.47 19.53L455.47 19.53L457.03 19.53Q458.20 19.53 459.77 20.70L459.77 20.70Q460.94 21.09 460.94 22.27L460.94 22.27Q462.11 23.83 462.11 26.17L462.11 26.17L462.11 38.28L462.11 38.28L462.50 37.89L462.50 37.89L462.50 37.50Q462.50 37.11 462.70 36.91Q462.89 36.72 463.28 37.11L463.28 37.11Q463.67 37.11 463.67 37.89L463.67 37.89L463.67 39.45Q463.67 40.63 463.28 41.41L463.28 41.41Q461.72 42.97 460.16 42.58L460.16 42.58Q459.38 41.80 458.59 39.84L458.59 39.84Q455.86 42.58 453.52 42.58L453.52 42.58L452.34 42.58Q450.39 42.19 448.83 39.84L448.83 39.84Q448.44 37.89 448.44 36.72L448.44 36.72Q448.44 35.16 449.61 32.03L449.61 32.03Q451.95 30.08 452.73 29.69L452.73 29.69Q454.69 28.52 458.20 27.73L458.20 27.73Q458.59 27.34 458.59 26.95ZM458.20 31.25L458.20 31.25L458.20 31.25L455.47 31.64L452.73 33.98L452.34 35.94Q452.34 35.94 452.15 36.13Q451.95 36.33 451.95 36.72L451.95 36.72Q451.95 38.28 453.52 39.06L453.52 39.06Q455.47 39.45 458.20 35.94L458.20 35.94Q458.59 35.16 458.59 34.77L458.59 34.77L458.59 31.64Q458.59 31.25 458.20 31.25ZM480.08 75.78L480.08 75.78Q477.34 75.78 475 75.39L475 75.39L457.81 75Q453.13 82.03 450.39 86.33L450.39 86.33Q445.70 93.75 442.19 100L442.19 100Q441.02 101.95 441.80 102.73L441.80 102.73Q442.58 104.30 445.31 104.30L445.31 104.30L446.88 104.30Q458.59 104.30 475.39 100.78L475.39 100.78Q474.61 97.66 473.44 95.70L473.44 95.70Q472.66 93.36 471.09 90.63L471.09 90.63Q467.58 86.72 468.75 85.16L468.75 85.16Q469.53 84.77 470.70 85.55Q471.88 86.33 473.83 89.06L473.83 89.06Q477.34 94.92 478.91 102.34L478.91 102.34Q479.69 105.08 479.69 107.81L479.69 107.81Q479.69 109.77 478.91 110.16L478.91 110.16L478.52 110.16Q477.34 110.16 476.56 107.03L476.56 107.03Q476.17 105.86 475.78 103.91L475.78 103.91Q460.94 106.64 448.05 107.42L448.05 107.42Q447.27 107.42 445.31 107.42L445.31 107.42Q441.02 107.42 438.28 105.08L438.28 105.08Q437.89 104.30 437.89 103.13L437.89 103.13Q437.89 100.39 440.23 96.09L440.23 96.09Q442.97 91.41 447.66 84.38L447.66 84.38Q451.56 78.52 452.73 75.39L452.73 75.39L441.80 76.56Q439.06 77.34 437.50 77.34L437.50 77.34Q434.77 77.34 434.77 75.39L434.77 75.39Q434.38 74.22 441.80 73.83L441.80 73.83Q444.14 73.44 456.25 72.27L456.25 72.27Q458.20 68.36 458.20 63.67L458.20 63.67Q458.20 61.33 457.81 60.16L457.81 60.16Q450.78 60.16 447.27 60.94L447.27 60.94Q442.97 61.72 442.19 61.72L442.19 61.72Q441.02 61.72 440.63 60.94L440.63 60.94Q439.45 58.98 446.09 57.81L446.09 57.81Q450.39 57.42 457.81 57.03L457.81 57.03Q457.42 53.13 456.25 50.78L456.25 50.78L455.86 49.22Q455.86 48.44 457.03 48.44L457.03 48.44L457.81 48.44Q458.98 48.44 459.77 50.39L459.77 50.39Q460.94 51.95 461.72 57.03L461.72 57.03Q466.02 57.03 469.92 57.42L469.92 57.42Q477.34 57.03 477.34 59.77L477.34 59.77Q477.34 60.55 476.76 60.74Q476.17 60.94 475.39 60.94L475.39 60.94Q473.05 60.94 471.09 60.55L471.09 60.55L465.63 60.16L461.72 59.77Q462.11 62.50 462.11 64.06L462.11 64.06Q462.11 68.36 460.94 71.88L460.94 71.88Q466.80 71.88 475.78 72.66L475.78 72.66Q482.03 73.05 482.81 74.61L482.81 74.61Q482.81 75.78 480.08 75.78ZM421.48 54.69L421.48 54.69Q421.48 53.52 423.05 53.52L423.05 53.52L425.39 53.91Q429.30 54.69 432.42 58.20L432.42 58.20Q433.59 60.94 432.42 61.33L432.42 61.33L432.03 61.33Q430.47 61.33 428.91 59.38L428.91 59.38Q427.73 57.42 424.61 56.25L424.61 56.25Q421.48 55.86 421.48 54.69ZM420.31 75.39L420.31 75.39Q417.19 74.61 417.19 73.05L417.19 73.05Q417.19 72.27 418.75 72.27L418.75 72.27Q420.31 72.27 421.88 72.66L421.88 72.66Q425.78 73.83 428.52 77.34L428.52 77.34Q430.08 79.30 428.91 79.69L428.91 79.69Q428.52 80.08 428.13 80.08L428.13 80.08Q426.95 80.08 425.39 78.13L425.39 78.13Q423.83 76.17 420.31 75.39ZM433.98 91.02L433.98 91.02Q433.98 92.19 433.59 93.75L433.59 93.75Q431.64 100.39 427.34 107.03L427.34 107.03Q424.22 112.11 420.31 110.94L420.31 110.94Q419.14 109.38 419.14 107.03L419.14 107.03Q419.14 105.47 419.53 103.13L419.53 103.13Q419.92 102.34 421.48 98.83L421.48 98.83Q423.44 94.53 425.39 91.41L425.39 91.41Q427.73 86.72 430.47 86.72L430.47 86.72Q433.98 86.72 433.98 91.02ZM552.34 15.63L552.34 15.63L546.09 13.28L546.09 12.89Q545.70 12.50 546.09 11.72L546.09 11.72L546.88 10.55Q547.27 10.16 547.66 10.16L547.66 10.16Q547.66 10.16 547.66 10.16Q547.66 10.16 547.66 10.16L547.66 10.16Q549.22 10.94 553.13 13.67L553.13 13.67L553.52 14.45Q553.52 14.84 553.52 14.84L553.52 14.84L553.52 15.23Q553.52 15.63 553.13 15.63L553.13 15.63Q553.13 16.02 552.73 16.02L552.73 16.02Q552.73 16.02 552.34 15.63ZM543.75 39.84L543.75 39.84Q542.97 37.89 542.97 37.11L542.97 37.11L542.97 25.78Q542.97 25 542.58 24.22L542.58 24.22L541.41 24.22Q540.23 24.22 540.23 23.44L540.23 23.44L540.23 22.66Q540.23 21.48 541.41 21.48L541.41 21.48Q543.36 21.09 544.92 19.53L544.92 19.53L545.31 19.14Q545.70 19.14 545.70 19.14L545.70 19.14Q546.09 19.14 546.09 19.53L546.09 19.53L546.09 36.33Q546.88 38.67 548.44 39.06L548.44 39.06L548.83 39.06Q549.61 39.06 550.78 38.67L550.78 38.67Q551.17 38.28 552.73 35.94L552.73 35.94Q553.13 35.55 553.13 34.77L553.13 34.77L553.13 25.39Q553.13 25 552.73 24.22L552.73 24.22L551.56 24.22Q550.39 24.22 550.39 23.44L550.39 23.44L550.39 22.66Q550.39 21.48 551.56 21.48L551.56 21.48Q553.52 21.09 555.47 19.53L555.47 19.53L555.47 19.53Q555.86 19.14 556.25 19.14L556.25 19.14Q556.64 19.14 556.64 19.92L556.64 19.92L556.64 37.50Q556.25 38.67 557.03 39.06L557.03 39.06L557.42 39.06L558.20 39.45Q558.59 39.84 558.59 40.23L558.59 40.23L558.59 41.02Q558.59 41.80 557.42 41.80L557.42 41.80L554.30 41.80Q553.13 41.80 553.13 41.02L553.13 41.02L553.13 40.63L553.13 40.23Q553.13 40.23 553.13 40.43Q553.13 40.63 553.13 40.63L553.13 40.63Q550.39 42.58 548.44 42.58L548.44 42.58Q545.31 42.58 543.75 39.84ZM570.31 41.02L570.31 41.02L570.31 40.23Q570.31 39.06 571.09 39.06L571.09 39.06L572.66 38.67Q572.66 38.67 572.66 38.28L572.66 38.28L572.66 26.56Q572.66 23.83 571.09 23.05L571.09 23.05Q570.31 22.66 569.92 22.66L569.92 22.66Q568.75 22.66 567.58 24.61L567.58 24.61Q566.02 26.95 566.02 27.34L566.02 27.34Q565.63 27.34 565.63 28.13L565.63 28.13L565.63 37.89Q566.41 38.67 567.19 38.67L567.19 38.67Q567.97 38.67 567.97 39.84L567.97 39.84L567.97 41.02Q567.97 41.80 567.19 41.80L567.19 41.80L561.33 41.80Q560.16 41.80 560.16 41.02L560.16 41.02L560.16 39.84Q560.16 38.67 560.94 38.67L560.94 38.67Q560.94 38.67 561.33 38.67L561.33 38.67Q561.72 38.67 562.11 38.28L562.11 38.28Q562.11 38.28 562.30 38.09Q562.50 37.89 562.50 37.11L562.50 37.11L562.50 25.39Q562.50 24.22 562.11 23.83L562.11 23.83L561.33 23.83L560.94 23.83Q560.94 23.83 560.55 23.63Q560.16 23.44 560.16 23.05L560.16 23.05L560.16 22.27Q560.16 21.09 560.94 21.09L560.94 21.09Q563.67 20.31 564.84 19.53L564.84 19.53L564.84 19.53Q564.84 19.14 565.23 19.14L565.23 19.14Q565.63 19.14 565.63 19.92L565.63 19.92L565.63 21.48L565.63 21.88L566.02 21.48Q567.97 19.53 570.31 19.53L570.31 19.53L571.09 19.53Q571.48 19.53 573.83 20.31L573.83 20.31L573.83 20.70Q575.39 21.88 575.78 23.44L575.78 23.44L576.17 25.39L576.17 37.50L576.56 39.06L577.34 39.06Q577.73 39.06 578.52 39.84L578.52 39.84L578.52 40.23L578.52 41.02L578.52 41.41Q577.73 41.80 577.34 41.80L577.34 41.80L571.09 41.80Q570.31 41.80 570.31 41.02ZM523.05 47.66L523.05 47.66Q521.48 46.88 521.09 44.53L521.09 44.53Q520.70 44.14 520.70 43.36L520.70 43.36Q520.70 41.02 523.05 39.45L523.05 39.45Q523.44 38.67 523.05 38.28L523.05 38.28L523.05 38.28L522.66 37.11L522.66 37.11Q522.66 35.55 523.83 34.38L523.83 34.38Q524.22 33.98 524.22 33.98L524.22 33.98Q524.22 33.98 524.02 33.79Q523.83 33.59 523.83 33.59L523.83 33.59L523.44 33.20Q522.27 30.86 522.27 29.69L522.27 29.69L521.88 28.13Q521.88 25.78 523.05 23.44L523.05 23.44Q523.83 21.48 525.78 20.31L525.78 20.31Q527.34 19.53 527.73 19.53L527.73 19.53L529.69 19.53Q530.86 19.53 533.20 20.70L533.20 20.70Q533.20 21.09 533.59 20.70L533.59 20.70Q535.16 19.53 536.72 19.53L536.72 19.53Q538.28 19.92 538.67 22.27L538.67 22.27Q538.67 22.66 538.28 24.22L538.28 24.22L538.28 24.22Q537.89 25 537.11 25L537.11 25Q535.94 25 535.16 23.83L535.16 23.83Q535.16 23.83 535.16 23.63Q535.16 23.44 535.16 23.44L535.16 23.44Q535.16 24.22 535.16 24.61L535.16 24.61Q535.55 25 535.55 26.56L535.55 26.56Q535.55 27.73 535.55 28.13L535.55 28.13Q535.55 29.69 535.16 30.08L535.16 30.08Q534.38 32.81 533.59 33.59L533.59 33.59Q530.86 35.94 527.73 35.55L527.73 35.55L527.73 35.55L526.95 35.55L527.34 35.94L530.86 37.11L533.59 37.50Q535.55 38.67 536.72 39.45L536.72 39.45Q536.72 39.45 536.72 39.84L536.72 39.84L537.11 41.80L537.11 41.80L537.11 42.19Q537.11 44.53 536.33 46.09L536.33 46.09L535.94 46.09Q535.16 46.88 533.20 47.66L533.20 47.66Q532.03 48.44 529.30 48.83L529.30 48.83L527.34 48.83Q525 48.83 523.05 47.66ZM530.47 32.03L530.47 32.03Q530.47 32.03 530.47 31.84Q530.47 31.64 530.47 31.64L530.47 31.64Q530.86 31.64 531.64 30.47L531.64 30.47Q532.03 28.91 532.03 26.17L532.03 26.17Q531.64 23.44 529.69 22.66L529.69 22.66L528.52 22.66L527.73 23.05Q525.78 23.83 525.78 26.17L525.78 26.17Q525.78 26.56 525.78 28.13L525.78 28.13Q525.78 29.69 526.17 31.25L526.17 31.25Q526.95 32.03 527.34 32.03L527.34 32.03Q528.13 32.42 528.91 32.42L528.91 32.42Q529.69 32.42 530.47 32.03ZM532.42 44.53L532.42 44.53Q532.81 44.53 533.59 43.75L533.59 43.75L533.59 42.97Q533.20 42.19 532.42 41.80L532.42 41.80Q530.08 41.02 527.73 40.63L527.73 40.63L527.34 41.02Q527.34 41.02 527.15 41.02Q526.95 41.02 526.95 41.02L526.95 41.02Q526.56 41.02 526.56 41.02Q526.56 41.02 526.17 41.02L526.17 41.02L525 41.80L524.22 42.58L524.22 42.97Q524.22 43.75 524.61 44.53L524.61 44.53Q526.56 45.70 528.52 45.70L528.52 45.70Q530.08 45.70 532.42 44.53ZM529.69 105.47L529.69 105.47Q528.91 100.39 528.52 96.09L528.52 96.09Q528.13 91.02 528.13 82.42L528.13 82.42Q524.61 90.23 521.88 93.36L521.88 93.36Q519.92 96.88 515.63 96.48L515.63 96.48Q514.06 95.70 514.06 93.75L514.06 93.75Q514.06 92.19 515.63 89.84L515.63 89.84L523.83 76.17Q526.56 73.44 528.13 73.44L528.13 73.44Q528.13 71.48 528.52 67.58L528.52 67.58L528.91 64.06Q523.83 63.67 519.53 64.84L519.53 64.84Q518.75 65.23 517.19 65.23L517.19 65.23Q516.02 65.23 516.02 64.06L516.02 64.06L516.02 64.06Q516.02 62.89 519.53 62.11L519.53 62.11Q523.44 61.33 529.30 61.33L529.30 61.33Q530.47 50.78 532.42 50.78L532.42 50.78L532.42 50.78Q533.59 50.78 533.59 52.73L533.59 52.73Q533.59 53.91 533.59 54.69L533.59 54.69Q532.42 58.20 532.42 61.33L532.42 61.33Q540.23 61.72 541.02 63.67L541.02 63.67Q541.02 64.06 541.02 64.45L541.02 64.45Q541.02 65.63 539.45 64.84L539.45 64.84Q537.11 64.06 532.03 64.06L532.03 64.06Q531.25 70.31 531.64 75.78L531.64 75.78Q538.28 76.56 540.23 78.52L540.23 78.52Q542.58 80.47 541.80 82.03L541.80 82.03Q541.41 82.42 540.63 82.42L540.63 82.42Q539.84 82.42 538.28 81.25L538.28 81.25Q535.55 79.30 531.64 78.91L531.64 78.91L531.64 90.63Q531.64 96.48 533.59 108.20L533.59 108.20Q533.20 111.72 532.03 110.94L532.03 110.94Q530.47 111.33 529.69 105.47ZM544.92 75L544.92 75Q544.53 69.92 544.53 67.19L544.53 67.19Q544.53 64.06 544.92 58.59L544.92 58.59Q545.31 53.91 548.83 52.73L548.83 52.73Q551.56 53.52 552.34 56.25L552.34 56.25Q554.30 54.69 558.20 53.91L558.20 53.91Q562.50 53.52 564.06 53.52L564.06 53.52Q567.19 53.52 572.66 53.91L572.66 53.91Q578.91 55.47 580.47 61.33L580.47 61.33Q580.47 64.06 580.47 65.63L580.47 65.63Q580.47 70.31 578.91 75.78L578.91 75.78Q581.64 75.78 581.25 77.34L581.25 77.34Q580.86 78.52 576.17 78.91L576.17 78.91Q572.66 79.30 564.84 79.69L564.84 79.69L553.13 79.69Q551.95 82.03 549.22 82.03L549.22 82.03Q545.70 80.47 544.92 75ZM575.78 76.17L575.78 76.17Q577.34 69.92 577.34 66.02L577.34 66.02Q577.34 62.50 576.17 60.55L576.17 60.55Q574.22 57.03 568.36 56.64L568.36 56.64Q567.19 56.25 564.06 56.25L564.06 56.25Q561.33 56.25 559.77 56.64L559.77 56.64Q555.47 57.03 553.13 59.38L553.13 59.38Q553.13 60.94 553.13 65.23L553.13 65.23Q558.20 63.67 562.11 63.67L562.11 63.67Q566.02 63.67 568.16 64.45Q570.31 65.23 570.31 66.02L570.31 66.02Q570.31 66.80 568.75 66.80L568.75 66.80Q568.36 66.80 566.41 66.41L566.41 66.41Q560.16 66.02 553.52 67.97L553.52 67.97L553.52 76.56Q556.64 76.56 563.67 76.56L563.67 76.56Q569.53 76.56 575.78 76.17ZM562.50 101.95L562.50 101.95Q562.11 98.05 562.11 95.70L562.11 95.70Q562.11 90.23 562.89 84.77L562.89 84.77Q563.28 81.25 565.23 80.86L565.23 80.86L565.63 80.86Q566.41 80.86 566.41 82.03L566.41 82.03L566.02 83.98L565.63 89.45Q571.09 88.28 575.78 88.28L575.78 88.28Q580.47 88.28 582.81 89.84L582.81 89.84L582.81 90.23Q582.81 91.41 580.86 91.41L580.86 91.41Q580.08 91.41 579.30 91.41L579.30 91.41L575 91.41Q573.05 91.02 565.63 92.58L565.63 92.58Q565.23 93.75 565.23 96.09L565.23 96.09Q565.23 100 566.02 102.34L566.02 102.34Q567.58 106.25 573.44 107.81L573.44 107.81Q581.64 108.59 581.64 103.13L581.64 103.13L582.03 99.61Q581.64 99.22 581.64 98.05L581.64 98.05Q581.64 96.88 582.81 96.88L582.81 96.88Q584.38 96.88 584.77 100.39L584.77 100.39Q585.16 100.78 585.16 102.34L585.16 102.34Q585.16 104.69 584.38 105.86L584.38 105.86Q582.81 110.94 573.83 110.94L573.83 110.94Q564.45 109.77 562.50 101.95ZM542.97 103.13L542.97 103.13Q542.58 100.78 542.58 98.83L542.58 98.83Q542.58 94.14 544.14 87.11L544.14 87.11Q545.31 83.20 546.88 83.20L546.88 83.20L547.27 83.20Q548.83 83.20 548.44 84.77L548.44 84.77L547.27 88.28Q548.83 88.28 550.78 88.28L550.78 88.28Q553.91 88.28 555.47 88.67L555.47 88.67Q559.38 89.06 559.38 90.63L559.38 90.63L559.38 91.02Q559.38 92.19 557.81 92.19L557.81 92.19Q554.69 91.02 550.78 91.02L550.78 91.02Q549.61 91.02 546.48 91.41L546.48 91.41Q545.70 98.44 545.70 99.61L545.70 99.61Q545.70 101.17 546.09 103.13L546.09 103.13Q547.27 106.64 551.95 106.64L551.95 106.64Q554.69 106.25 556.64 104.30L556.64 104.30Q558.20 103.13 559.77 103.91L559.77 103.91Q560.16 103.91 560.16 104.69L560.16 104.69Q560.16 105.47 558.59 106.64L558.59 106.64Q555.47 109.38 550.39 109.38L550.39 109.38Q544.14 108.59 542.97 103.13ZM651.56 14.06L651.56 14.06L649.22 10.94L649.22 10.55Q649.61 10.16 649.61 10.16L649.61 10.16L650.78 10.16Q652.34 10.16 653.91 12.11L653.91 12.11L655.08 13.67L655.86 12.11Q657.81 10.16 658.98 10.16L658.98 10.16L660.55 10.16Q660.55 10.16 660.55 10.55L660.55 10.55Q660.94 10.55 660.55 10.94L660.55 10.94L658.59 14.06Q655.86 17.19 655.47 17.19L655.47 17.19L654.69 17.19Q653.91 17.19 651.56 14.06ZM641.80 42.97L640.63 42.58Q638.67 42.19 638.28 39.84L638.28 39.84Q637.89 39.06 637.89 37.89L637.89 37.89L637.89 23.44Q637.89 22.66 637.50 22.66L637.50 22.66L635.16 22.66Q634.38 22.66 634.38 21.88L634.38 21.88L634.38 20.31Q634.38 19.53 635.16 19.53L635.16 19.53Q635.55 19.53 636.33 19.53L636.33 19.53Q637.89 17.97 637.89 16.02L637.89 16.02Q638.28 14.84 638.67 11.72L638.67 11.72Q638.67 10.55 639.45 10.55L639.45 10.55L640.23 10.55Q641.02 10.55 641.02 11.72L641.02 11.72L641.02 18.75Q641.02 19.53 641.41 19.53L641.41 19.53L644.14 19.53Q644.92 19.53 645.31 20.31L645.31 20.31L645.31 21.88Q645.31 22.66 644.14 22.66L644.14 22.66L641.41 22.66Q641.02 22.66 641.02 23.44L641.02 23.44L641.02 37.11Q641.41 38.67 642.19 39.06L642.19 39.06Q642.97 39.06 644.53 37.11L644.53 37.11Q644.92 36.33 645.31 36.33Q645.70 36.33 646.09 37.11L646.09 37.11Q646.88 37.89 646.48 39.06L646.48 39.06Q644.14 42.97 641.80 42.97L641.80 42.97ZM651.17 41.41L651.17 41.41L651.17 39.84Q651.17 39.06 651.95 39.06L651.95 39.06Q653.13 39.06 653.52 38.67L653.52 38.67Q653.91 37.89 653.91 37.50L653.91 37.50L653.91 25.39L653.13 24.61L652.34 24.61Q651.56 24.61 651.56 23.83L651.56 23.83L651.56 22.66Q651.56 21.48 652.34 21.48L652.34 21.48Q654.69 20.70 655.86 19.92L655.86 19.92Q655.86 19.92 656.25 19.73Q656.64 19.53 657.03 19.53L657.03 19.53Q657.42 19.53 657.42 19.92L657.42 19.92L657.42 37.50L657.81 39.06Q658.20 39.06 658.98 39.06L658.98 39.06Q659.77 39.06 659.77 40.23L659.77 40.23L659.77 41.41Q659.77 41.80 658.98 41.80L658.98 41.80L651.95 41.80Q651.17 41.80 651.17 41.41ZM658.20 107.81L658.20 107.81Q658.20 107.03 658.59 105.86L658.59 105.86Q660.16 102.73 660.16 100.39L660.16 100.39Q654.30 99.61 653.52 98.83L653.52 98.83Q651.95 98.05 653.52 97.27L653.52 97.27Q654.30 97.27 655.86 97.27L655.86 97.27Q658.59 97.27 660.16 97.66L660.16 97.66Q661.33 87.11 661.33 75L661.33 75Q648.05 87.11 645.31 94.14L645.31 94.14Q642.19 100.78 640.63 100.39L640.63 100.39Q639.45 99.61 639.45 98.83L639.45 98.83Q639.45 97.27 640.23 96.09L640.23 96.09Q641.41 92.97 647.66 84.77L647.66 84.77Q653.13 77.34 661.33 71.48L661.33 71.48L660.94 62.11Q648.05 62.89 643.75 64.45L643.75 64.45Q641.41 65.23 640.63 65.23L640.63 65.23Q639.45 65.23 639.06 64.84L639.06 64.84L639.06 64.45Q639.06 63.28 641.80 62.50L641.80 62.50Q645.31 61.33 648.83 60.55L648.83 60.55Q652.34 60.16 660.55 59.38L660.55 59.38Q660.16 54.30 658.98 51.17L658.98 51.17Q658.20 50 658.20 49.61L658.20 49.61Q658.20 48.44 659.77 48.44L659.77 48.44Q661.72 48.44 662.89 51.17L662.89 51.17Q664.06 53.91 664.06 59.38L664.06 59.38Q669.14 59.38 671.48 59.77L671.48 59.77Q673.05 59.77 678.91 60.94L678.91 60.94Q683.20 61.72 682.42 63.28L682.42 63.28Q682.42 64.06 680.86 64.06L680.86 64.06Q679.30 64.06 678.52 63.67L678.52 63.67Q675 62.50 670.70 62.50L670.70 62.50Q669.14 62.11 666.80 62.11L666.80 62.11Q664.84 62.11 664.45 62.50L664.45 62.50Q664.84 69.14 664.84 72.66L664.84 72.66Q668.36 73.05 675.78 82.03L675.78 82.03Q683.20 91.41 683.20 94.92L683.20 94.92L683.20 96.09Q683.20 98.83 681.64 99.61L681.64 99.61L681.64 99.61Q680.47 99.61 680.47 96.48L680.47 96.48Q680.47 93.36 674.61 85.55L674.61 85.55Q668.36 76.95 664.84 75.39L664.84 75.39Q664.84 86.33 663.67 97.66L663.67 97.66L666.41 97.66Q667.97 97.66 670.31 97.27L670.31 97.27L671.09 97.27Q673.05 97.27 673.05 98.44L673.05 98.44Q673.05 100 663.67 100.39L663.67 100.39Q663.67 103.13 662.50 106.25L662.50 106.25Q661.33 108.98 658.98 108.98L658.98 108.98Q658.20 108.98 658.20 107.81ZM616.80 75L616.80 75Q616.41 69.53 623.83 60.94L623.83 60.94Q632.03 51.95 636.72 51.56L636.72 51.56L637.11 51.56Q638.67 51.56 638.67 53.52L638.67 53.52Q639.06 57.03 631.64 66.41L631.64 66.41Q623.05 75.78 619.14 75.78L619.14 75.78L618.75 75.78Q617.19 75.78 616.80 75ZM628.91 107.03L628.91 107.03Q626.17 102.34 626.17 96.09L626.17 96.09Q626.17 92.58 627.34 84.77L627.34 84.77Q628.52 74.61 629.69 72.27L629.69 72.27Q630.47 69.53 631.25 68.75L631.25 68.75Q631.64 67.58 632.81 68.75L632.81 68.75Q633.20 69.14 633.20 69.92L633.20 69.92Q633.20 71.09 632.03 75L632.03 75Q630.86 80.08 630.08 87.89L630.08 87.89Q629.30 94.92 629.69 99.22L629.69 99.22Q630.47 101.95 632.03 106.64L632.03 106.64Q634.38 110.55 632.42 110.55L632.42 110.55Q631.25 110.16 628.91 107.03ZM744.53 12.50L744.53 12.50L744.53 10.94Q744.53 10.16 745.70 10.16L745.70 10.16L752.73 10.16Q753.91 10.16 753.91 10.94L753.91 10.94L753.91 12.50Q753.91 13.67 752.73 13.67L752.73 13.67L745.70 13.67Q744.53 13.67 744.53 12.50ZM726.56 48.05L726.56 48.05L726.56 46.88Q726.56 45.70 727.34 45.70L727.34 45.70L728.52 45.70L729.30 44.53L729.30 25.39Q728.91 24.22 728.52 24.22L728.52 24.22L728.13 24.22L727.73 24.22Q726.56 24.22 726.56 23.44L726.56 23.44L726.56 22.66Q726.56 21.48 727.34 21.48L727.34 21.48Q729.69 21.09 731.64 19.92L731.64 19.92Q732.03 19.14 732.42 19.53L732.42 19.53Q732.81 19.53 732.81 19.92L732.81 19.92L732.81 20.70L732.81 20.70L732.81 20.70Q734.38 19.53 736.72 19.53L736.72 19.53Q741.02 19.53 742.97 24.22L742.97 24.22Q744.53 27.73 744.53 30.86L744.53 30.86L744.14 32.81Q744.14 34.77 743.36 36.33L743.36 36.33Q742.19 41.02 738.67 42.19L738.67 42.19Q737.89 42.58 736.33 42.58L736.33 42.58Q733.98 42.58 732.81 41.41L732.81 41.41L732.81 41.80L732.81 44.53Q732.81 44.92 733.20 45.70L733.20 45.70Q733.20 45.70 734.38 45.70L734.38 45.70Q735.55 45.70 735.55 46.88L735.55 46.88L735.55 48.05Q735.55 49.22 734.38 49.22L734.38 49.22L727.34 49.22Q726.56 49.22 726.56 48.05ZM753.91 23.05L753.91 22.27Q753.91 21.09 755.08 21.09L755.08 21.09Q757.03 20.70 758.59 19.92L758.59 19.92L758.59 19.53Q758.59 19.53 759.38 19.53L759.38 19.53Q759.77 19.53 759.77 19.92L759.77 19.92L759.77 21.48L759.77 21.88L760.16 21.48Q761.72 19.53 764.06 19.53L764.06 19.53L764.84 19.53Q765.63 19.53 767.58 20.31L767.58 20.31L767.58 20.70Q768.75 21.88 769.92 23.83L769.92 23.83L769.92 25.78L769.92 37.50L770.31 39.45L771.09 39.45Q771.88 39.45 772.27 39.84L772.27 39.84L772.27 40.23L772.27 41.02L772.27 41.41Q771.88 42.19 771.09 42.19L771.09 42.19L764.84 42.19Q764.06 42.19 764.06 41.02L764.06 41.02L764.06 40.23Q764.06 39.45 764.84 39.45L764.84 39.45Q765.23 39.45 766.41 39.06L766.41 39.06Q766.41 38.67 766.41 38.28L766.41 38.28L766.41 26.56Q766.02 23.83 765.23 23.05L765.23 23.05L764.06 22.66Q762.89 22.66 761.33 24.61L761.33 24.61Q760.94 25.39 759.77 27.34L759.77 27.34L759.77 28.13L759.77 37.89Q760.16 38.67 760.94 38.67L760.94 38.67Q761.33 38.67 761.72 39.06Q762.11 39.45 762.11 39.84L762.11 39.84L762.11 41.02Q762.11 41.41 761.72 41.60Q761.33 41.80 760.94 41.80L760.94 41.80L755.08 41.80Q753.91 41.80 753.91 41.02L753.91 41.02Q753.91 41.80 753.13 41.80L753.13 41.80L746.09 41.80Q744.92 41.80 744.92 41.02L744.92 41.02L744.92 39.84Q744.92 38.67 746.09 38.67L746.09 38.67Q747.27 38.67 747.66 38.67L747.66 38.67Q747.66 38.28 747.66 37.50L747.66 37.50L747.66 25.39Q747.66 25 747.66 24.22L747.66 24.22L746.48 24.22Q745.70 24.22 745.70 23.44L745.70 23.44L745.70 22.66Q745.70 21.48 746.48 21.48L746.48 21.48Q748.44 21.09 750 19.92L750 19.92Q750.39 19.14 751.17 19.53L751.17 19.53Q751.56 19.53 751.56 19.92L751.56 19.92L751.56 37.50L751.95 38.67Q752.34 39.06 753.13 39.06L753.13 39.06Q753.52 39.06 753.71 39.26Q753.91 39.45 753.91 39.84L753.91 39.84L753.91 39.84Q753.91 39.06 754.69 38.67L754.69 38.67Q754.69 38.67 755.08 38.67L755.08 38.67Q755.86 38.67 756.25 38.28L756.25 38.28Q756.25 38.28 756.25 38.09Q756.25 37.89 756.25 37.11L756.25 37.11L756.25 25.39Q756.25 24.22 756.25 24.22L756.25 24.22L755.08 23.83L755.08 23.83Q754.69 23.83 754.30 23.63Q753.91 23.44 753.91 23.05L753.91 23.05ZM732.81 26.17L732.81 36.72Q732.81 37.50 733.20 38.28L733.20 38.28Q734.77 39.45 735.55 39.45L735.55 39.45Q737.11 39.45 738.28 37.89L738.28 37.89Q740.23 35.55 740.63 32.03L740.63 32.03L740.63 30.86Q740.63 28.52 739.84 25.39L739.84 25.39Q738.67 23.44 737.11 22.66L737.11 22.66L735.94 22.66Q733.98 22.66 732.81 25.39L732.81 25.39L732.81 26.17ZM772.27 88.67L772.27 88.67Q772.66 90.23 772.66 93.36L772.66 93.36Q772.66 98.44 771.88 103.91L771.88 103.91Q772.27 111.33 768.75 110.94L768.75 110.94Q768.36 110.94 768.36 108.59L768.36 108.59Q768.36 107.03 768.36 105.47L768.36 105.47Q769.14 99.61 769.14 94.92L769.14 94.92Q769.14 92.97 768.75 88.67L768.75 88.67L751.95 88.67Q750.78 96.09 750.78 98.83L750.78 98.83Q750.78 101.56 751.95 106.25L751.95 106.25L751.95 107.81Q751.95 110.16 750.78 110.16L750.78 110.16Q748.05 110.16 748.05 107.03L748.05 107.03Q747.66 103.13 747.66 98.44L747.66 98.44Q747.66 96.48 748.44 88.28L748.44 88.28Q741.80 87.89 741.02 86.72L741.02 86.72Q740.23 85.55 741.41 84.77L741.41 84.77Q741.80 84.77 742.97 84.77L742.97 84.77Q744.53 84.77 744.92 85.16L744.92 85.16Q747.27 85.94 748.83 85.94L748.83 85.94Q750.39 78.52 750.78 76.56L750.78 76.56Q751.95 73.05 753.52 72.66L753.52 72.66L753.52 72.66Q754.30 72.66 754.30 74.22L754.30 74.22Q754.30 75.39 753.91 77.73L753.91 77.73Q752.34 83.98 751.95 85.94L751.95 85.94L760.16 85.94L768.75 85.94Q768.75 76.95 765.63 66.80L765.63 66.80Q763.28 66.41 757.81 66.41L757.81 66.41Q751.95 66.41 748.44 67.19L748.44 67.19Q745.70 67.58 742.58 68.75L742.58 68.75Q741.41 69.14 741.41 69.14L741.41 69.14Q740.23 69.14 739.45 67.58L739.45 67.58Q740.23 65.63 745.31 64.84L745.31 64.84Q748.44 64.06 751.95 63.67L751.95 63.67Q757.42 63.67 762.50 63.67L762.50 63.67Q764.45 61.72 765.63 59.38L765.63 59.38Q766.80 58.20 770.70 50.78L770.70 50.78Q773.05 50 773.05 51.95L773.05 51.95Q773.05 54.30 766.80 63.67L766.80 63.67Q779.30 64.84 780.08 67.58L780.08 67.58L780.08 67.97Q780.08 69.53 777.73 68.75L777.73 68.75Q775.39 67.97 768.75 67.19L768.75 67.19Q771.09 74.61 772.27 85.94L772.27 85.94Q778.52 85.55 781.25 84.77L781.25 84.77Q782.03 84.38 782.81 84.38L782.81 84.38Q783.98 84.38 783.98 85.94L783.98 85.94Q785.16 88.28 772.27 88.67ZM736.33 78.52L736.72 78.52Q739.06 78.52 741.02 80.08L741.02 80.08Q741.02 82.81 737.11 84.77L737.11 84.77L733.59 85.94Q733.59 92.58 732.81 101.56L732.81 101.56Q732.42 109.38 727.73 110.16L727.73 110.16Q723.05 110.55 718.75 107.03L718.75 107.03Q715.63 104.30 716.80 103.13L716.80 103.13Q717.58 102.34 722.27 106.25L722.27 106.25Q724.61 107.42 725.78 107.42L725.78 107.42Q729.69 107.42 729.69 98.05L729.69 98.05L730.08 86.72L721.48 89.06Q719.92 89.45 719.14 89.45L719.14 89.45Q716.41 89.45 714.45 87.89L714.45 87.89Q714.84 84.77 719.14 82.81L719.14 82.81Q725 81.25 725 81.25L725 81.25L730.08 79.69Q730.08 72.27 729.69 66.41L729.69 66.41Q722.66 67.58 719.53 68.75L719.53 68.75Q716.02 70.31 715.63 68.75L715.63 68.75L715.63 68.75Q715.63 67.97 716.41 67.38Q717.19 66.80 719.14 66.02L719.14 66.02Q724.22 64.45 729.30 63.67L729.30 63.67Q728.13 55.86 728.13 52.73L728.13 52.73Q728.13 50.78 728.91 50.78L728.91 50.78Q731.25 50.39 732.42 63.28L732.42 63.28L733.98 63.28Q735.55 63.28 737.89 63.67L737.89 63.67Q739.84 64.45 739.84 65.63L739.84 65.63Q739.84 66.41 739.26 66.60Q738.67 66.80 737.50 66.41L737.50 66.41Q735.94 66.02 735.16 66.02L735.16 66.02L732.81 66.41Q733.59 74.22 733.59 78.91L733.59 78.91L736.33 78.52ZM752.34 56.25L752.34 56.25Q752.73 58.59 752.73 58.98L752.73 58.98Q752.73 61.33 751.56 61.33L751.56 61.33Q750 60.94 749.22 56.25L749.22 56.25Q748.83 54.30 748.83 53.52L748.83 53.52Q748.83 51.17 750 50.78L750 50.78Q751.56 51.17 752.34 56.25ZM844.92 12.11L844.92 12.11L844.92 10.94Q844.92 9.77 845.70 9.77L845.70 9.77L853.13 9.77Q854.30 9.77 854.30 10.94L854.30 10.94L854.30 12.11Q854.30 13.28 853.13 13.28L853.13 13.28L845.70 13.28Q844.92 13.28 844.92 12.11ZM854.30 22.66L854.30 21.88Q854.30 21.09 855.08 20.70L855.08 20.70Q857.81 19.92 858.98 19.53L858.98 19.53L858.98 19.14Q858.98 19.14 859.38 19.14L859.38 19.14Q859.77 19.14 859.77 19.53L859.77 19.53L859.77 21.48L859.77 21.48L860.16 21.48Q862.11 19.14 864.45 19.14L864.45 19.14L865.23 19.14Q865.63 19.14 867.97 19.92L867.97 19.92L867.97 20.31Q869.53 21.48 869.92 23.44L869.92 23.44L870.31 25.39L870.31 37.11L870.70 39.06L871.48 39.06Q871.88 39.06 872.66 39.45L872.66 39.45L872.66 39.84L872.66 41.02L872.66 41.02Q871.88 41.80 871.48 41.80L871.48 41.80L865.23 41.80Q864.45 41.80 864.45 41.02L864.45 41.02L864.45 39.84Q864.45 39.06 865.23 39.06L865.23 39.06L866.80 38.67Q866.80 38.28 866.80 37.89L866.80 37.89L866.80 26.17Q866.80 23.83 865.63 22.66L865.63 22.66Q864.45 22.27 864.06 22.27L864.06 22.27Q862.89 22.27 861.72 24.22L861.72 24.22Q860.16 26.56 860.16 26.95L860.16 26.95Q859.77 27.34 859.77 27.73L859.77 27.73L859.77 37.89Q860.55 38.28 861.33 38.28L861.33 38.28Q862.11 38.28 862.11 39.45L862.11 39.45L862.11 40.63Q862.11 41.41 861.33 41.41L861.33 41.41L855.47 41.41Q854.30 41.41 854.30 41.02L854.30 41.02Q854.30 41.41 853.52 41.41L853.52 41.41L846.48 41.41Q845.31 41.41 845.31 41.02L845.31 41.02L845.31 39.45Q845.31 38.28 846.48 38.28L846.48 38.28Q847.66 38.28 848.05 38.28L848.05 38.28Q848.05 37.89 848.05 37.11L848.05 37.11L848.05 25L847.66 24.22L846.88 24.22Q845.70 24.22 845.70 23.05L845.70 23.05L845.70 22.27Q845.70 21.09 846.88 21.09L846.88 21.09Q848.83 20.70 850.39 19.53L850.39 19.53Q850.78 18.75 851.17 19.14L851.17 19.14Q851.56 19.14 851.56 19.53L851.56 19.53L851.56 37.11L851.95 38.28Q852.73 38.67 853.52 38.67L853.52 38.67Q853.52 38.67 853.91 39.06Q854.30 39.45 854.30 39.45L854.30 39.45L854.30 39.45Q854.30 38.67 855.08 38.28L855.08 38.28Q855.08 38.28 855.47 38.28L855.47 38.28Q855.86 38.28 856.25 37.89L856.25 37.89Q856.25 37.89 856.45 37.70Q856.64 37.50 856.64 36.72L856.64 36.72L856.64 25Q856.64 24.22 856.25 23.83L856.25 23.83L855.47 23.44L855.08 23.44Q855.08 23.44 854.69 23.24Q854.30 23.05 854.30 22.66L854.30 22.66ZM826.56 21.88L826.56 21.88L826.56 20.70Q826.56 19.92 827.73 19.92L827.73 19.92L834.38 19.92Q835.16 19.92 835.16 20.70L835.16 20.70L835.16 21.88Q835.16 23.05 834.38 23.05L834.38 23.05L833.98 23.05Q833.59 23.44 833.59 24.22L833.59 24.22L836.33 33.20L836.33 32.81L839.06 23.83L839.06 23.44L838.67 23.05L837.50 23.05Q836.72 23.05 836.72 21.88L836.72 21.88L836.72 20.70Q836.72 19.92 837.89 19.92L837.89 19.92L844.14 19.92Q845.31 19.92 845.31 20.70L845.31 20.70L844.92 22.27Q844.92 23.05 843.75 23.05L843.75 23.05L842.97 23.44L841.80 24.61L836.33 42.58Q835.16 45.70 833.59 47.66L833.59 47.66L832.42 48.44Q831.64 48.83 830.86 48.83L830.86 48.83Q829.69 48.83 828.52 47.66L828.52 47.66Q827.73 46.88 827.73 45.70L827.73 45.70L828.13 44.14Q828.52 43.36 829.30 43.36L829.30 43.36L830.08 43.36Q830.86 43.36 831.64 44.14L831.64 44.14L831.64 44.14L832.03 44.53Q832.42 44.53 832.42 44.34Q832.42 44.14 832.42 43.75L832.42 43.75Q833.20 42.58 833.98 39.45L833.98 39.45L833.98 38.28L830.47 25.78Q829.69 23.05 827.73 23.05L827.73 23.05Q826.56 23.05 826.56 21.88ZM825 58.98L825 58.98Q823.44 58.98 823.44 57.81L823.44 57.81Q823.05 57.03 824.22 56.45Q825.39 55.86 827.73 55.47L827.73 55.47Q829.69 55.08 846.48 53.91L846.48 53.91L850 53.52Q851.56 49.61 851.17 47.27L851.17 47.27Q851.17 46.09 851.95 46.09L851.95 46.09Q851.95 46.09 853.13 46.88L853.13 46.88Q854.30 47.27 854.30 48.83L854.30 48.83Q854.30 50.39 853.13 53.52L853.13 53.52Q865.63 53.91 871.48 55.08L871.48 55.08Q877.73 56.25 877.73 57.81L877.73 57.81Q877.73 58.98 875.78 58.98L875.78 58.98Q873.83 58.98 871.48 58.20L871.48 58.20Q865.23 57.03 856.64 56.64L856.64 56.64Q848.83 56.64 840.63 57.03L840.63 57.03Q832.42 57.42 827.73 58.59L827.73 58.59Q826.56 58.98 825 58.98ZM880.47 75.78L880.47 75.78Q883.59 75.78 883.59 76.95L883.59 76.95Q883.59 78.52 879.30 78.91L879.30 78.91L862.50 79.69Q853.52 80.86 835.55 81.25L835.55 81.25Q827.34 81.25 821.88 80.08L821.88 80.08Q816.41 79.30 816.80 77.73L816.80 77.73Q817.19 76.95 819.14 76.95L819.14 76.95Q820.31 76.95 821.48 76.95L821.48 76.95Q826.17 77.73 834.38 77.73L834.38 77.73Q835.16 71.48 835.16 67.19L835.16 67.19Q835.16 64.45 835.16 64.06L835.16 64.06L834.77 63.28Q834.77 62.11 837.11 62.50L837.11 62.50Q839.06 62.89 839.06 68.36L839.06 68.36Q839.06 71.09 838.28 77.73L838.28 77.73Q846.88 77.73 855.08 77.34L855.08 77.34Q855.86 75.78 859.77 65.23L859.77 65.23Q861.33 61.72 863.28 62.89L863.28 62.89Q864.06 63.67 864.06 64.45L864.06 64.45Q864.06 65.63 863.67 66.41L863.67 66.41Q862.50 67.97 858.59 77.34L858.59 77.34L878.13 76.17Q878.91 75.78 880.47 75.78ZM873.05 107.03L873.05 107.03Q873.83 107.03 874.22 107.81L874.22 107.81Q874.61 109.38 867.97 110.94L867.97 110.94Q865.63 111.72 859.38 112.11L859.38 112.11L854.69 112.11Q852.34 112.11 846.88 111.72L846.88 111.72Q839.45 111.33 836.33 108.20L836.33 108.20Q835.16 113.28 833.20 112.89L833.20 112.89Q831.25 113.28 829.30 108.59L829.30 108.59Q827.73 104.69 827.73 96.88L827.73 96.88Q827.73 91.41 828.52 87.89L828.52 87.89Q829.69 82.42 832.03 82.81L832.03 82.81Q833.98 82.81 836.33 86.72L836.33 86.72Q838.28 85.55 842.19 83.98L842.19 83.98Q851.95 81.64 860.55 81.64L860.55 81.64Q865.63 81.64 869.92 84.38L869.92 84.38Q873.05 87.11 873.44 92.97L873.44 92.97Q873.83 98.05 871.88 107.03L871.88 107.03Q872.27 107.03 873.05 107.03ZM869.92 92.19L869.92 92.19Q869.92 84.77 859.77 85.16L859.77 85.16Q851.17 85.16 845.31 86.33L845.31 86.33Q839.84 87.50 836.72 90.63L836.72 90.63Q836.72 92.19 836.72 92.97L836.72 92.97L836.72 95.31Q844.92 93.75 856.25 93.75L856.25 93.75Q864.06 93.75 862.89 96.09L862.89 96.09Q861.72 98.05 857.42 97.27L857.42 97.27Q853.52 96.88 847.27 96.88L847.27 96.88Q841.80 97.27 836.72 98.44L836.72 98.44L836.72 104.69Q842.97 108.98 852.34 108.98L852.34 108.98Q859.77 108.98 868.36 107.42L868.36 107.42Q869.53 100.39 869.53 94.53L869.53 94.53Q869.92 93.75 869.92 92.19ZM924.22 41.80L924.22 41.80L924.22 14.84L923.83 14.84Q923.83 14.84 923.83 14.65Q923.83 14.45 923.83 14.45L923.83 14.45L922.66 14.06Q921.48 14.06 921.48 13.28L921.48 13.28L921.48 12.11Q921.48 11.72 922.66 11.72L922.66 11.72Q924.61 11.72 926.56 9.77L926.56 9.77Q926.56 9.38 926.76 9.18Q926.95 8.98 926.95 9.38L926.95 9.38Q927.73 9.38 927.73 10.16L927.73 10.16L927.73 21.09L927.73 21.09L928.13 21.09Q929.69 19.53 931.64 19.53L931.64 19.53L933.20 19.53Q934.77 19.53 935.94 20.70L935.94 20.70Q938.28 22.27 938.67 25.39L938.67 25.39Q939.45 26.95 939.45 29.30L939.45 29.30L939.45 31.64Q939.45 35.55 937.50 39.06L937.50 39.06Q937.50 39.45 937.50 39.45L937.50 39.45Q935.94 41.41 934.38 41.80L934.38 41.80Q933.59 42.58 931.64 42.58L931.64 42.58L930.86 42.58L930.86 42.58Q929.30 42.58 927.34 41.02L927.34 41.02L926.95 40.63L926.95 41.41L926.95 41.41Q926.95 41.80 926.56 41.80L926.56 41.80Q926.17 42.58 925.39 42.58L925.39 42.58L925.39 42.58Q924.22 42.58 924.22 41.80ZM946.09 14.06L946.09 14.06L943.75 10.94Q943.75 10.55 943.75 10.55L943.75 10.55Q943.75 10.16 944.14 10.16L944.14 10.16L945.31 10.16Q946.88 10.16 948.44 12.11L948.44 12.11L949.61 13.67L950.39 12.11Q952.34 10.16 953.52 10.16L953.52 10.16L954.69 10.16Q955.08 10.16 955.47 10.55L955.47 10.55L955.47 10.94L953.13 14.06Q950.39 17.19 949.61 17.19L949.61 17.19L949.22 17.19Q948.44 17.19 946.09 14.06ZM970.70 41.02L970.70 41.02L970.70 40.23Q970.70 39.06 971.88 39.06L971.88 39.06Q972.27 39.06 973.05 39.06L973.05 39.06Q973.44 38.67 973.44 38.28L973.44 38.28L973.44 26.56Q973.05 23.83 971.88 23.05L971.88 23.05L970.70 22.66Q969.53 22.66 967.97 24.61L967.97 24.61Q967.58 25.39 966.41 27.34L966.41 27.34L966.41 28.13L966.41 37.89Q967.19 38.67 967.58 38.67L967.58 38.67Q968.75 38.67 968.75 39.84L968.75 39.84L968.75 41.02Q968.75 41.80 967.58 41.80L967.58 41.80L961.72 41.80Q960.94 41.80 960.94 41.02L960.94 41.02L960.94 39.84Q960.94 39.06 961.33 38.67L961.33 38.67Q961.72 38.28 961.72 38.67L961.72 38.67Q962.50 38.67 962.89 38.28L962.89 38.28Q962.89 38.28 962.89 38.09Q962.89 37.89 962.89 37.11L962.89 37.11L962.89 25.39Q963.28 25 963.09 24.61Q962.89 24.22 962.89 23.83L962.89 23.83Q962.89 23.83 962.50 23.83Q962.11 23.83 961.72 23.83L961.72 23.83L961.72 23.83Q961.33 23.83 960.94 23.63Q960.55 23.44 960.55 23.05L960.55 23.05L960.55 22.27Q960.55 21.09 961.72 21.09L961.72 21.09Q964.06 20.31 965.23 19.53L965.23 19.53L965.23 19.53Q965.63 19.53 966.02 19.53L966.02 19.53Q966.41 19.53 966.41 19.92L966.41 19.92L966.41 21.48L966.41 21.88Q966.41 21.88 966.80 21.48L966.80 21.48Q968.75 19.53 971.09 19.53L971.09 19.53L971.48 19.53Q972.27 19.53 974.22 20.31L974.22 20.31L974.22 20.70Q975.78 21.88 976.56 23.83L976.56 23.83L976.56 25.39L976.56 37.50L976.95 39.06L978.13 39.06Q978.52 39.06 978.91 39.84L978.91 39.84L978.91 40.23L978.91 41.02L978.91 41.41Q978.52 42.19 978.13 42.19L978.13 42.19L971.88 42.19Q970.70 42.19 970.70 41.02ZM947.66 42.58L946.48 42.58Q944.53 42.19 943.36 39.84L943.36 39.84Q942.58 36.72 942.58 36.72L942.58 36.72Q942.58 34.77 943.75 32.03L943.75 32.03Q945.70 30.08 946.88 29.69L946.88 29.69Q948.83 28.52 952.73 27.73L952.73 27.73Q952.73 27.34 952.73 26.95L952.73 26.95Q952.73 25.78 952.73 25.39L952.73 25.39L952.73 25.39Q952.34 23.05 950.78 22.66L950.78 22.66L948.44 23.05Q947.66 23.44 947.66 23.83L947.66 23.83Q947.27 23.83 947.27 25.39L947.27 25.39L947.27 25.78L947.27 26.56Q947.27 26.95 946.88 27.34L946.88 27.34Q946.09 28.52 944.92 27.73L944.92 27.73Q943.75 27.34 943.75 25.78L943.75 25.78L943.75 25.39Q943.75 22.66 946.48 20.70L946.48 20.70Q947.66 19.53 949.61 19.53L949.61 19.53L951.17 19.53Q952.73 19.53 954.30 20.70L954.30 20.70Q955.08 21.09 955.47 22.27L955.47 22.27Q956.25 23.83 956.25 26.17L956.25 26.17L956.25 37.89L956.25 38.28L956.64 37.89L956.64 37.50L956.64 37.50Q957.03 36.72 957.42 37.11L957.42 37.11Q957.81 37.11 957.81 37.50L957.81 37.50L957.81 39.45Q957.81 40.63 957.42 41.02L957.42 41.02Q955.86 42.97 954.30 42.58L954.30 42.58Q953.52 41.80 953.13 39.84L953.13 39.84L952.73 39.45L952.73 39.84Q950 42.58 947.66 42.58L947.66 42.58ZM933.98 38.28L933.98 38.28Q935.16 37.11 935.16 36.72L935.16 36.72Q935.94 33.98 935.94 31.64L935.94 31.64L935.55 28.13L935.16 25.39Q933.98 22.66 932.03 22.66L932.03 22.66L931.64 22.66Q929.69 23.05 928.13 26.17L928.13 26.17Q927.73 26.17 927.73 27.34L927.73 27.34L927.73 35.94Q928.13 37.89 929.69 39.06L929.69 39.06L931.25 39.06Q932.42 39.06 933.98 38.28ZM952.34 35.94L952.34 35.94Q952.73 35.16 952.73 34.38L952.73 34.38L952.73 31.64Q952.73 31.25 952.73 31.25L952.73 31.25L952.34 31.25L949.61 31.64L946.88 33.98L946.48 35.94Q946.48 35.94 946.48 36.13Q946.48 36.33 946.48 36.72L946.48 36.72Q946.48 38.28 947.07 38.67Q947.66 39.06 947.66 39.06L947.66 39.06Q949.61 39.45 952.34 35.94ZM942.19 109.77L942.19 109.77Q942.19 107.03 943.36 102.34L943.36 102.34Q946.09 87.11 948.44 70.70L948.44 70.70L950 58.20Q948.44 58.98 947.66 58.98L947.66 58.98Q946.48 58.98 946.09 57.81L946.09 57.81Q946.09 57.42 946.09 57.03L946.09 57.03Q946.09 55.47 948.05 55.08L948.05 55.08L961.33 52.73Q971.88 51.17 976.17 51.17L976.17 51.17Q980.86 51.17 981.64 52.73L981.64 52.73Q982.81 53.52 981.25 54.30L981.25 54.30Q980.86 54.69 979.69 54.69L979.69 54.69Q978.13 54.69 977.73 54.69L977.73 54.69Q975.39 53.91 953.91 57.03L953.91 57.03Q952.73 64.84 952.34 71.88L952.34 71.88Q962.11 71.09 967.58 71.09L967.58 71.09Q969.92 71.09 976.17 71.48L976.17 71.48Q982.81 72.27 982.81 76.95L982.81 76.95Q982.81 78.13 982.42 79.69L982.42 79.69Q979.69 87.89 974.22 96.88L974.22 96.88Q975 98.05 976.95 100.39L976.95 100.39Q978.91 102.34 980.86 103.52L980.86 103.52Q983.59 105.86 983.59 107.42L983.59 107.42L983.59 108.20Q983.59 110.94 980.47 110.16L980.47 110.16Q976.17 110.16 969.14 103.91L969.14 103.91Q966.41 107.03 963.28 109.77L963.28 109.77Q959.38 112.89 958.20 111.72L958.20 111.72Q957.81 111.72 957.81 110.94L957.81 110.94Q957.81 109.77 959.77 108.20L959.77 108.20L963.28 103.91Q965.23 101.95 966.41 100.78L966.41 100.78Q957.03 91.02 954.30 87.89L954.30 87.89Q953.91 86.72 953.91 85.94L953.91 85.94Q953.91 84.38 955.08 83.20L955.08 83.20Q955.86 82.81 957.03 82.81L957.03 82.81Q958.59 82.81 961.33 84.77L961.33 84.77L964.06 87.50L971.09 94.14Q975 88.28 977.34 82.81L977.34 82.81Q978.91 80.08 978.91 78.13L978.91 78.13Q978.91 76.17 976.56 75.20Q974.22 74.22 969.14 74.22L969.14 74.22Q962.11 74.22 951.56 75L951.56 75L951.17 79.69L949.22 89.45Q948.05 94.53 946.09 108.59L946.09 108.59Q944.53 112.89 942.58 112.11L942.58 112.11Q942.19 111.33 942.19 109.77ZM916.80 103.52L916.80 103.52Q917.97 83.59 919.53 58.98L919.53 58.98Q919.92 54.30 922.66 53.52L922.66 53.52Q925 53.91 926.17 57.03L926.17 57.03Q927.34 58.59 926.95 66.02L926.95 66.02Q928.52 66.02 933.20 66.02L933.20 66.02Q932.81 60.94 932.81 55.47L932.81 55.47Q933.20 52.73 934.38 52.73L934.38 52.73Q935.94 52.73 935.94 55.47L935.94 55.47Q936.33 57.42 936.33 58.20L936.33 58.20L935.94 60.16Q935.94 63.28 936.33 65.63L936.33 65.63Q944.92 66.02 944.92 67.97L944.92 67.97Q944.92 69.14 942.19 69.14L942.19 69.14Q941.02 69.14 940.23 69.14L940.23 69.14Q938.28 68.75 936.33 68.75L936.33 68.75Q934.38 68.75 926.95 69.53L926.95 69.53Q926.95 76.56 926.95 77.73L926.95 77.73L926.95 80.47Q930.08 80.08 932.81 80.08L932.81 80.08Q939.06 80.08 940.63 82.81L940.63 82.81Q941.80 83.98 941.80 88.67L941.80 88.67Q941.80 92.97 940.63 100.39L940.63 100.39Q940.23 105.08 937.50 104.69L937.50 104.69Q936.72 104.30 936.72 103.13L936.72 103.13Q936.72 101.56 937.50 99.61L937.50 99.61L938.67 89.06Q939.06 82.81 931.64 82.81L931.64 82.81Q929.30 82.81 926.56 83.59L926.56 83.59Q926.17 88.67 925.39 103.52L925.39 103.52Q924.22 110.16 919.92 110.55L919.92 110.55Q916.41 108.98 916.80 103.52Z"/></svg>