<svg xmlns="http://www.w3.org/2000/svg" xmlns:xlink="http://www.w3.org/1999/xlink" width="240" height="120"><path d="M13.60 44.80L13.60 44.80L7.60 38.60Q14.30 32.50 19.55 25.85Q24.80 19.20 29.30 11.80L29.30 11.80L36.20 16.90Q31.50 24.50 26.05 31.30Q20.60 38.10 13.60 44.80ZM76.10 21.40L76.10 21.40L73.10 49.70L37.20 49.70L40.90 14.30L69.60 14.30Q73.30 14.30 74.90 16.35Q76.50 18.40 76.10 21.40ZM48.10 22.10L47.50 28.30L67.40 28.30L68.10 22.10L48.10 22.10ZM46.70 35.40L46 41.90L66 41.90L66.60 35.40L46.70 35.40ZM25.30 54.30L19.50 108L10.90 108L15.50 65.60Q12.50 68.70 9.40 71.60L9.40 71.60L3.60 65.10Q11 58.60 16.80 51.40Q22.60 44.20 27.70 36.60L27.70 36.60L34.20 42.10Q32.10 45.20 29.90 48.25Q27.70 51.30 25.30 54.30L25.30 54.30ZM33.80 93L33.80 93L41.80 92Q42.10 95.60 43.70 97.90Q45.30 100.20 48.20 100.20L48.20 100.20Q51.40 100.20 53.35 97.75Q55.30 95.30 55.90 89.60L55.90 89.60L57 78.60L42.70 78.60Q43.40 80.80 44.10 83.05Q44.80 85.30 45.30 87.60L45.30 87.60L37.50 89.90Q36.90 87.10 36.05 84.25Q35.20 81.40 34.30 78.60L34.30 78.60L28 78.60L28.70 71.40L57.80 71.40L58.50 63.70L32.10 63.70L32.80 56.20L74.90 56.20L74.20 63.70L67 63.70L66.20 71.40L75 71.40L74.30 78.60L65.50 78.60L64.30 90.60Q63.50 98.60 59.50 103.50Q55.50 108.40 48.20 108.40L48.20 108.40Q43.60 108.40 40.45 106.15Q37.30 103.90 35.70 100.35Q34.10 96.80 33.80 93ZM142.20 33.10L159 33.10L158.20 41.10L88.60 41.10L89.40 33.10L106.60 33.10Q106.40 31.30 106.25 29.55Q106.10 27.80 106 26L106 26L95.70 26L96.50 18.20L121.30 18.20L122.10 11.20L131.10 11.20L130.30 18.20L155.30 18.20L154.50 26L144.30 26Q143.40 29.50 142.20 33.10L142.20 33.10ZM115.50 33.10L115.50 33.10L132.90 33.10Q133.60 31.30 134.10 29.55Q134.60 27.80 135.10 26L135.10 26L114.90 26Q115.10 27.80 115.25 29.55Q115.40 31.30 115.50 33.10ZM116.40 79.70L95.90 79.70L99.90 45.70L139.10 45.70Q147.20 45.70 146.30 53.50L146.30 53.50L143.40 79.70L120.20 79.70Q124.10 84 127.40 89.40L127.40 89.40L120.70 94.10Q118.80 90.60 116.80 87.80Q114.80 85 112.40 82.50L112.40 82.50L116.40 79.70ZM107.50 53.30L106.80 59.10L137 59.10L137.60 53.30L107.50 53.30ZM106.10 65.80L105.40 71.90L135.60 71.90L136.30 65.80L106.10 65.80ZM90.20 105.60L90.20 105.60L82.60 101.40Q85.50 96.80 87.60 92Q89.70 87.20 91.10 82.30L91.10 82.30L99.10 84.90Q97.60 90.20 95.35 95.45Q93.10 100.70 90.20 105.60ZM153.30 102.70L153.30 102.70L145.20 105.90Q143.90 100.50 142.15 95.40Q140.40 90.30 138.20 85.60L138.20 85.60L146.20 82.40Q148.20 86.90 150.10 92.10Q152 97.30 153.30 102.70ZM130.90 90.80L130.90 90.80L139.20 93.10Q137.30 100.10 132.30 104.50Q127.30 108.90 118.90 108.90L118.90 108.90Q109.70 108.90 104.70 103.05Q99.70 97.20 101 85.30L101 85.30L109.30 85.30Q108.50 93.20 111.10 96.95Q113.70 100.70 119 100.70L119 100.70Q123.70 100.70 126.75 98.20Q129.80 95.70 130.90 90.80ZM203.80 73.10L232.10 73.10L231.30 81.40L168.20 81.40L169.10 73.10L195.80 73.10L196.60 66L173.10 66L174 57.70L197.40 57.70L198.20 50.30L175.20 50.30L179 14.40L226.40 14.40Q230.60 14.40 232.20 16.55Q233.80 18.70 233.40 22.10L233.40 22.10L230.30 50.30L206.20 50.30L205.40 57.70L230.20 57.70L229.40 66L204.60 66L203.80 73.10ZM186.10 22.80L184.10 41.90L199.10 41.90L201.10 22.80L186.10 22.80ZM209.10 22.80L207.10 41.90L223.10 41.90L225.20 22.80L209.10 22.80ZM197.70 37.80L197.70 37.80L191.10 39.90Q190.10 36.80 189.30 33Q188.50 29.20 188 26.20L188 26.20L194.70 24.70Q195.80 31.30 197.70 37.80ZM215.90 40.30L215.90 40.30L209.60 37.30Q211.40 34.20 212.90 31.10Q214.40 28 215.50 24.70L215.50 24.70L221.90 26.80Q220.90 30 219.30 33.65Q217.70 37.30 215.90 40.30ZM170 109.20L170 109.20L162.40 104.50Q165.80 99.80 168.20 95.10Q170.60 90.40 172.30 85.80L172.30 85.80L180.10 88.80Q178.30 93.70 175.90 98.95Q173.50 104.20 170 109.20ZM231 105.40L231 105.40L223.40 108.50Q222.10 103.10 220.25 98.25Q218.40 93.40 216.40 89.10L216.40 89.10L223.90 86Q227.90 94.40 231 105.40ZM212.80 105.20L212.80 105.20L204.80 107.40Q204.10 102.70 202.95 98.25Q201.80 93.80 200.40 89.50L200.40 89.50L208.20 87.40Q209.60 91.60 210.80 96.05Q212 100.50 212.80 105.20ZM195.20 106.10L195.20 106.10L186.60 107.20Q186.60 102.70 186.30 98.15Q186 93.60 185.30 89L185.30 89L193.50 88.10Q194.20 92.60 194.65 97.05Q195.10 101.50 195.20 106.10Z"/></svg>