<svg xmlns="http://www.w3.org/2000/svg" xmlns:xlink="http://www.w3.org/1999/xlink" width="500" height="100.10000000000001"><path d="M49.30 94.50L49.30 60L60.50 60.10L60.50 60L64.10 60L64.10 33.40L75.50 33.40L75.50 43.90L91.70 43.90L89 48.40L75.50 48.40L75.50 60L91.50 60L91.50 94.50L49.30 94.50ZM8.20 94.30L8.20 89.70L48.60 89.70L44.80 94.30L8.20 94.30ZM8.20 44.90L8.20 40.40L24.50 40.40L21.20 33.50L33.30 33.50L36.40 40.40L52 40.40L48.20 44.90L8.20 44.90ZM10.50 48.30L22.60 48.30L28.60 88L16.70 88L10.50 48.30ZM31.10 88L37.10 48.30L49.20 48.30L43 88L31.10 88ZM60.70 90.10L80.20 90.10L80.20 61.60L77.80 64.60L60.70 64.60L60.70 90.10ZM106.50 94.50L106.50 49L117.30 49L117.30 40.10L106.50 40.10L106.50 35.80L148 35.80L145.60 40.10L136 40.10L136 49L148 49L148 56.70L167.30 56.70L167.30 44.60L159.50 44.60L158 51.80L148 51.80L151.50 36L161.40 36L160.50 40.20L167.30 40.20L167.30 33.40L177.30 33.40L177.30 40.20L192.10 40.20L189.60 44.60L177.30 44.60L177.30 56.70L193.40 56.70L191 61.10L148 61.10L148 94.50L106.50 94.50ZM115.40 90.10L138.10 90.10L138.10 84.10L115.40 84.10L115.40 90.10ZM115.40 79.70L138.10 79.70L138.10 73.40L137.10 74.90L128.40 74.90L128.40 53.40L124.90 53.40L124.90 67.10L122 74.90L115.40 74.90L115.40 79.70ZM115.40 72.20L117.30 67.10L117.30 53.40L115.40 53.40L115.40 72.20ZM124.90 49L128.40 49L128.40 40.10L124.90 40.10L124.90 49ZM136 70.50L138.10 70.50L138.10 53.40L136 53.40L136 70.50ZM151.30 94.50L151.30 65.30L181.10 65.30L178.60 69.70L161.20 69.70L161.20 90.10L181.10 90.10L181.10 65.30L191 65.30L191 94.50L151.30 94.50ZM208.10 94.60L208.10 63.90L291.30 63.90L291.30 94.60L272 94.60L269.30 89.90L279.80 89.90L279.80 68.60L219.50 68.60L219.50 94.60L208.10 94.60ZM207.60 42.30L207.60 37.70L244.70 37.70L244.70 33.30L256.10 33.30L256.10 37.70L292.30 37.70L289.30 42.30L207.60 42.30ZM215.20 60.40L215.20 45.70L284.60 45.70L284.60 60.40L215.20 60.40ZM222.50 88.30L222.50 72.70L277.10 72.70L277.10 88.30L222.50 88.30ZM226.50 56.20L273.20 56.20L273.20 46.60L270.30 49.60L226.50 49.60L226.50 56.20ZM234.10 84.10L265.70 84.10L265.70 73.50L262.70 76.50L234.10 76.50L234.10 84.10ZM342.90 94.70L342.90 62.70L359.40 62.70L361.60 57.40L342.90 57.40L342.90 52.70L392.10 52.70L389.40 57.40L373 57.40L370.80 62.70L380.70 62.70L378 67.40L377.30 67.40L377.30 89.90L380.70 89.90L380.70 62.70L392.10 62.70L392.10 94.70L373.90 94.70L372.40 92L370.30 92L370.30 67.40L364.70 67.40L364.70 92L357.70 92L357.70 67.40L354.30 67.40L354.30 94.70L342.90 94.70ZM307.90 94.80L307.90 90.10L325.10 87.10L327.30 49.30L338.60 49.30L336.50 85.20L341.30 84.40L341.30 89.10L307.90 94.80ZM307.90 44.90L307.90 40.20L318.90 40.20L318.90 33.10L330.20 33.10L330.20 40.20L341.30 40.20L338.60 44.90L307.90 44.90ZM310.20 49.30L321.50 49.30L323.50 82.70L312.10 82.70L310.20 49.30ZM344.30 49.70L344.30 33.40L355.70 33.40L355.70 45.10L361.40 45.10L361.40 33.40L372.80 33.40L372.80 45.10L378 45.10L378 33.40L389.40 33.40L389.40 49.70L344.30 49.70ZM406 78.40L406 73.10L444.70 73.10L444.70 69.10L410.20 69.10L410.20 63.90L444.70 63.90L444.70 60.70L409.70 60.70L409.70 33.20L479.10 33.20L476.40 37.90L457.30 37.90L457.30 55.80L479.20 55.80L479.20 43.20L473.60 51.80L462.70 51.80L468.90 42.10L479.20 42.10L479.20 33.20L491 33.20L491 60.70L457.30 60.70L457.30 63.90L489.70 63.90L486.90 69.10L457.30 69.10L457.30 73.10L493.90 73.10L491.20 78.40L406 78.40ZM407.60 94.70L414.50 81L426.80 81L420 94.70L407.60 94.70ZM422 55.80L444.70 55.80L444.70 37.90L422 37.90L422 55.80ZM423.70 42.10L435.30 42.10L441.50 51.80L430.10 51.80L423.70 42.10ZM432.90 81L445.40 81L452.10 94.70L439.80 94.70L432.90 81ZM452.80 81L465.50 81L472.20 94.70L459.50 94.70L452.80 81ZM473.10 81L485.40 81L492.10 94.70L479.80 94.70L473.10 81Z"/></svg>