<svg xmlns="http://www.w3.org/2000/svg" xmlns:xlink="http://www.w3.org/1999/xlink" width="500" height="102"><path d="M62.80 22.30L41.90 22.30L39.80 5.50L60.50 5.50L62.80 22.30ZM93.50 5.50L90.30 22.30L70.50 22.30L73.70 5.50L93.50 5.50ZM23.50 23.50L21.50 36.30L3.90 36.30L8.70 7.20L26.10 7.20L24.60 16.90L35.90 16.90L35.90 23.50L23.50 23.50ZM90.40 93.60L97.30 93.60L97.30 101.10L69.30 101.10L69.30 60.50L65.20 60.50L60.60 101.10L38.60 101.10L43.70 60.50L38.40 60.50L38.40 24.90L88.60 24.90Q91.20 24.90 93 26.70Q94.80 28.50 94.80 31.10L94.80 31.10L94.80 60.50L90.40 60.50L90.40 93.60ZM73 53.70L73 34Q73 32 70.90 32L70.90 32L59.80 32L59.80 53.70L73 53.70ZM30.70 69.60L30.70 88.30L36.70 86.80L36.70 93.80L8 100.90L6.90 94.40L10.80 93.40L10.80 69.60L4.70 69.60L4.70 62.70L10.80 62.70L10.80 48.80L4.70 48.80L4.70 42.10L36 42.10L36 48.80L30.70 48.80L30.70 62.70L36 62.70L36 69.60L30.70 69.60ZM126.50 21.50L126.50 34.50L105.30 34.50L105.30 14.70L137.70 14.70L137.70 5.20L163 5.20L163 14.70L189.20 14.70Q191.70 14.70 193.55 16.55Q195.40 18.40 195.40 21L195.40 21L195.40 34.50L174.20 34.50L174.20 23.60Q174.20 21.50 172.10 21.50L172.10 21.50L126.50 21.50ZM196.50 64.20L196.50 71.10L162.40 71.10L162.40 100.60L133.40 100.60L133.40 93.10L139.10 93.10L139.10 71.10L104.20 71.10L104.20 64.20L139.40 64.20L150.20 46.90Q150.50 46.40 150.50 45.80L150.50 45.80Q150.50 44.90 149.90 44.30Q149.30 43.70 148.40 43.70L148.40 43.70L120.80 43.70L120.80 36.90L175.60 36.90Q177.30 36.90 178.50 38.15Q179.70 39.40 179.70 41L179.70 41Q179.70 42.40 179 43.40L179 43.40L165 64.20L196.50 64.20ZM297.30 76.60L297.30 83.30L203 83.30L203 76.60L211 76.60L211 25L237.60 25L237.60 18.90L206.10 18.90L206.10 12.20L237.60 12.20L237.60 4.90L263.20 4.90L263.20 12.20L294.80 12.20L294.80 18.90L263.20 18.90L263.20 25L283.10 25Q285.60 25 287.45 26.85Q289.30 28.70 289.30 31.30L289.30 31.30L289.30 76.60L297.30 76.60ZM263.50 31.80L234.60 31.80L234.60 38.40L265.60 38.40L265.60 33.90Q265.60 31.80 263.50 31.80L263.50 31.80ZM265.60 51.10L265.60 45.10L234.60 45.10L234.60 51.10L265.60 51.10ZM265.60 63.70L265.60 57.80L234.60 57.80L234.60 63.70L265.60 63.70ZM234.60 70.60L234.60 76.60L265.60 76.60L265.60 70.60L234.60 70.60ZM237.40 85.20L233.50 100.80L210.10 100.80L214.20 85.20L237.40 85.20ZM287.10 85.20L291 100.80L268.70 100.80L264.70 85.20L287.10 85.20ZM362.80 17.90L397.20 17.90L397.20 24.60L303.30 24.60L303.30 17.90L337.50 17.90L337.50 5L362.80 5L362.80 17.90ZM388.70 32.60L388.70 39.40L311.60 39.40L311.60 32.60L388.70 32.60ZM311.60 54.10L311.60 47.30L388.70 47.30L388.70 54.10L311.60 54.10ZM383.80 62.20Q386.30 62.20 388.15 64.05Q390 65.90 390 68.50L390 68.50L390 100.90L310.40 100.90L310.40 62.20L383.80 62.20ZM366.80 94.30L366.80 71.20Q366.80 69.10 364.70 69.10L364.70 69.10L333.60 69.10L333.60 94.30L366.80 94.30ZM435.40 5.30L423.60 37.30L429.90 37.30L429.90 100.80L408.60 100.80L408.60 42.20L402 42.20L415.30 5.30L435.40 5.30ZM498.20 96L480.80 96L480.20 86.40L475.30 86.40L475.30 100.90L454.60 100.90L454.60 86.40L449.50 86.40L448.80 96L431.10 96L435.50 34L453 34L449.90 79.60L454.60 79.60L454.60 28L432.70 28L432.70 21.10L454.60 21.10L454.60 5.90L475.30 5.90L475.30 21.10L497.10 21.10L497.10 28L475.30 28L475.30 79.60L479.70 79.60L476.70 34L494.20 34L498.20 96Z"/></svg>