<svg xmlns="http://www.w3.org/2000/svg" xmlns:xlink="http://www.w3.org/1999/xlink" width="700" height="100"><path d="M57.42 38.28L57.42 38.28Q63.28 38.28 66.41 42.97L66.41 42.97Q67.19 46.09 65.04 50.39Q62.89 54.69 55.47 62.50L55.47 62.50Q67.58 62.11 76.37 63.09Q85.16 64.06 88.48 65.04Q91.80 66.02 90.82 68.36Q89.84 70.70 83.59 68.75L83.59 68.75Q66.41 65.63 53.52 67.19L53.52 67.19Q54.30 92.58 53.32 97.07Q52.34 101.56 49.22 102.34Q46.09 103.13 41.99 101.17Q37.89 99.22 35.55 96.48Q33.20 93.75 34.77 92.38Q36.33 91.02 39.06 93.95Q41.80 96.88 45.90 98.05Q50 99.22 49.22 87.50L49.22 87.50L48.83 67.19Q40.23 67.19 28.32 68.55Q16.41 69.92 13.09 71.29Q9.77 72.66 8.79 70.31Q7.81 67.97 14.65 66.21Q21.48 64.45 48.83 62.89L48.83 62.89Q54.30 58.20 59.38 50.78Q64.45 43.36 57.42 42.58L57.42 42.58Q46.88 42.97 40.63 44.53Q34.38 46.09 31.25 47.07Q28.13 48.05 27.73 45.70Q27.34 43.36 30.86 42.38Q34.38 41.41 36.91 40.82Q39.45 40.23 44.92 39.45L44.92 39.45Q50.39 38.67 57.42 38.28ZM53.13 18.75L53.13 18.75L54.30 23.05Q78.13 23.44 83.40 29.30Q88.67 35.16 88.09 42.19Q87.50 49.22 84.77 49.61Q82.03 50 83.40 44.53Q84.77 39.06 81.84 34.18Q78.91 29.30 64.45 27.34L64.45 27.34Q50.78 26.17 37.50 28.52L37.50 28.52Q25.78 31.25 22.66 33.98L22.66 33.98Q21.48 41.80 20.51 45.90Q19.53 50 16.41 50.20Q13.28 50.39 12.11 45.70L12.11 45.70Q10.55 36.72 14.84 27.34L14.84 27.34Q16.41 24.22 19.53 23.83L19.53 23.83Q23.83 24.22 23.05 29.30L23.05 29.30Q29.30 25 50.39 23.05L50.39 23.05L49.22 18.75Q47.27 14.45 49.41 14.45Q51.56 14.45 53.13 18.75ZM168.75 31.25L168.75 31.25Q169.14 38.67 169.14 46.09L169.14 46.09Q173.83 46.48 183.40 59.57Q192.97 72.66 193.16 78.52Q193.36 84.38 191.21 85.16Q189.06 85.94 189.45 81.25Q189.84 76.56 182.03 64.65Q174.22 52.73 169.14 50L169.14 50Q169.14 66.02 167.97 82.03L167.97 82.03Q172.27 82.42 176.17 81.84Q180.08 81.25 180.08 83.59Q180.08 85.94 167.97 86.33L167.97 86.33Q167.58 90.63 166.02 94.73Q164.45 98.83 161.91 98.63Q159.38 98.44 161.13 94.14Q162.89 89.84 163.28 86.33L163.28 86.33Q155.86 85.16 154.30 83.98Q152.73 82.81 154.69 81.84Q156.64 80.86 163.28 82.03L163.28 82.03Q164.84 66.02 164.84 49.61L164.84 49.61Q147.27 67.58 143.55 77.34Q139.84 87.11 137.50 85.94Q135.16 84.77 137.30 79.69Q139.45 74.61 146.88 63.67Q154.30 52.73 164.84 44.53L164.84 44.53Q164.45 37.50 164.06 30.86L164.06 30.86Q146.48 32.42 141.60 34.38Q136.72 36.33 135.74 34.77Q134.77 33.20 139.06 31.45Q143.36 29.69 148.44 28.71Q153.52 27.73 163.67 26.95L163.67 26.95Q162.89 18.75 161.33 15.04Q159.77 11.33 162.50 11.33Q165.23 11.33 166.60 15.23Q167.97 19.14 168.36 26.95L168.36 26.95Q173.44 26.95 177.73 27.34Q182.03 27.73 187.50 29.10Q192.97 30.47 192.19 32.62Q191.41 34.77 187.11 33.20Q182.81 31.64 176.76 31.25Q170.70 30.86 168.75 31.25ZM132.81 15.63L132.81 15.63Q135.16 15.23 135.16 18.36L135.16 18.36L135.16 18.36Q135.55 23.83 125.78 37.11L125.78 37.11Q114.84 50.39 109.77 50.78L109.77 50.78L109.38 50.78Q107.03 50.78 106.64 49.22L106.64 49.22Q106.25 42.19 115.63 29.30L115.63 29.30Q126.17 16.41 132.81 15.63ZM126.95 100.78L126.95 100.78Q125 100.39 122.46 95.70Q119.92 91.02 119.34 84.38Q118.75 77.73 120.31 63.87Q121.88 50 123.24 45.70Q124.61 41.41 125.39 40.23Q126.17 39.06 127.34 40.43Q128.52 41.80 126.76 49.41Q125 57.03 124.02 68.36Q123.05 79.69 123.63 84.38Q124.22 89.06 126.76 94.92Q129.30 100.78 126.95 100.78ZM216.80 37.89L216.80 37.89Q232.81 36.33 238.67 39.45L238.67 39.45Q244.92 42.58 241.41 48.44L241.41 48.44Q238.67 53.52 231.64 61.33L231.64 61.33Q233.98 64.45 236.72 66.80L236.72 66.80Q239.45 69.14 241.02 71.68Q242.58 74.22 237.89 73.44L237.89 73.44Q234.77 71.48 228.91 64.84L228.91 64.84Q227.34 77.73 227.73 83.59L227.73 83.59Q227.34 88.28 227.34 91.80Q227.34 95.31 228.91 99.61Q230.47 103.91 227.34 103.52Q224.22 103.13 223.44 95.31L223.44 95.31Q223.05 92.58 223.44 83.98L223.44 83.98Q223.44 77.73 224.22 69.14L224.22 69.14Q221.09 72.66 215.43 76.95Q209.77 81.25 208.01 79.49Q206.25 77.73 210.94 74.61L210.94 74.61Q221.09 67.19 233.59 52.34L233.59 52.34Q239.45 44.14 234.38 42.97Q229.30 41.80 223.83 41.80L223.83 41.80Q217.58 42.19 215.23 42.77Q212.89 43.36 209.96 43.95Q207.03 44.53 206.64 41.80Q206.25 39.06 216.80 37.89ZM225.39 16.80L225.39 16.80Q230.08 17.58 230.86 25.39L230.86 25.39Q230.47 33.98 225.78 33.98L225.78 33.98Q221.88 33.59 220.70 25.78L220.70 25.78Q220.70 17.97 225.39 16.80ZM270.70 90.23L270.70 90.23Q273.05 98.44 280.08 97.27L280.08 97.27Q287.11 97.27 287.70 92.58Q288.28 87.89 286.33 84.18Q284.38 80.47 287.50 79.49Q290.63 78.52 292.19 88.67L292.19 88.67Q293.75 100.78 281.64 101.56L281.64 101.56Q270.31 101.95 267.58 94.53L267.58 94.53Q266.41 91.80 266.41 86.33L266.41 86.33Q266.02 80.47 266.41 76.17L266.41 76.17Q266.80 67.97 269.14 68.16Q271.48 68.36 271.29 72.27Q271.09 76.17 270.70 79.30Q270.31 82.42 270.70 90.23ZM256.64 20.31L256.64 20.31Q262.50 16.41 272.66 15.63L272.66 15.63Q285.55 16.02 287.50 24.61L287.50 24.61Q290.23 36.72 287.50 60.16L287.50 60.16Q286.33 73.05 283.59 72.07Q280.86 71.09 282.03 65.82Q283.20 60.55 283.59 55.86L283.59 55.86Q285.16 44.14 283.98 30.47L283.98 30.47Q283.20 19.53 272.66 20.31L272.66 20.31Q268.75 20.31 265.04 21.48Q261.33 22.66 257.42 24.22L257.42 24.22Q256.25 57.03 255.86 62.11L255.86 62.11Q255.08 73.05 250.78 71.88L250.78 71.88Q246.09 71.88 245.70 62.11L245.70 62.11Q244.92 48.44 246.09 25L246.09 25Q246.09 16.02 250 16.80L250 16.80Q253.91 16.41 256.64 20.31ZM267.19 60.16L267.19 60.16Q262.50 80.08 251.95 98.05L251.95 98.05Q248.44 103.52 246.09 102.15Q243.75 100.78 248.05 96.48L248.05 96.48Q259.38 76.56 263.28 58.20L263.28 58.20Q265.63 48.44 265.82 43.75Q266.02 39.06 268.75 40.43Q271.48 41.80 267.19 60.16ZM363.67 13.28L363.67 13.28Q381.64 14.45 380.86 30.47L380.86 30.47Q380.86 33.59 380.08 37.11L380.08 37.11Q380.08 40.23 378.52 47.66L378.52 47.66Q380.47 49.61 379.69 50.98Q378.91 52.34 373.83 51.95L373.83 51.95Q364.45 52.34 360.16 52.34L360.16 52.34Q372.27 58.20 393.36 72.27L393.36 72.27Q395.70 73.83 394.53 75.59Q393.36 77.34 389.84 75L389.84 75Q375.78 65.63 361.72 57.42L361.72 57.42Q354.69 54.30 357.42 52.34L357.42 52.34Q353.91 52.73 345.31 53.13L345.31 53.13Q335.16 53.13 328.13 52.73L328.13 52.73Q327.73 55.86 323.83 57.42L323.83 57.42Q318.36 56.64 316.41 48.83L316.41 48.83Q312.11 32.81 311.72 23.44L311.72 23.44Q311.33 16.02 316.41 13.67L316.41 13.67Q319.92 14.84 322.27 18.36L322.27 18.36Q323.83 16.80 334.57 14.45Q345.31 12.11 363.67 13.28ZM335.94 59.77L335.94 59.77Q323.05 75.39 308.20 84.77L308.20 84.77Q305.86 86.33 304.88 85.16Q303.91 83.98 306.25 81.64L306.25 81.64Q325.39 66.80 332.42 57.81L332.42 57.81Q334.38 53.91 336.52 55.47Q338.67 57.03 335.94 59.77ZM339.06 71.09L339.06 71.09Q337.11 85.94 329.69 101.17L329.69 101.17Q328.13 103.52 326.17 102.73Q324.22 101.95 326.17 98.44L326.17 98.44Q332.03 87.11 334.77 71.09L334.77 71.09Q335.16 67.58 336.91 67.38Q338.67 67.19 339.06 71.09ZM359.77 67.19L359.77 67.19Q362.11 67.19 362.30 70.90Q362.50 74.61 362.50 85.55Q362.50 96.48 362.50 100.39Q362.50 104.30 360.55 104.10Q358.59 103.91 358.59 100.59Q358.59 97.27 358.40 85.74Q358.20 74.22 358.01 70.70Q357.81 67.19 359.77 67.19ZM362.89 17.19L362.89 17.19Q355.47 16.41 347.27 17.19L347.27 17.19Q348.44 23.05 348.44 28.91L348.44 28.91Q364.84 28.91 364.84 32.03Q364.84 35.16 359.57 34.18Q354.30 33.20 348.83 33.20L348.83 33.20Q348.83 41.02 347.66 48.83L347.66 48.83Q359.77 48.83 373.83 47.27L373.83 47.27Q376.17 37.89 376.17 28.52L376.17 28.52Q375.78 18.75 362.89 17.19ZM323.44 22.27L323.44 22.27Q323.83 26.56 325 32.03L325 32.03Q332.42 29.69 344.14 28.91L344.14 28.91Q343.75 23.05 342.58 17.58L342.58 17.58Q332.81 18.36 323.44 22.27ZM326.17 36.33L326.17 36.33Q326.56 41.02 328.13 48.44L328.13 48.44Q332.81 48.83 342.97 48.83L342.97 48.83Q344.14 41.02 344.14 33.20L344.14 33.20Q332.81 34.38 326.17 36.33ZM458.98 11.33L458.98 11.33Q460.94 10.55 462.50 13.87Q464.06 17.19 464.84 23.44L464.84 23.44Q470.70 23.44 475.78 24.22L475.78 24.22Q485.16 23.83 485.16 27.73L485.16 27.73Q485.94 30.08 477.34 28.52L477.34 28.52Q474.61 28.52 470.12 28.13Q465.63 27.73 464.84 27.73L464.84 27.73Q466.41 35.55 463.67 45.31L463.67 45.31Q471.48 45.31 483.20 46.09L483.20 46.09Q491.80 46.88 492.38 49.41Q492.97 51.95 482.42 50.39L482.42 50.39Q465.23 50 460.16 50L460.16 50Q454.69 58.59 450.39 66.02L450.39 66.02Q445.31 74.22 439.45 85.55L439.45 85.55Q438.28 89.06 439.06 89.84L439.06 89.84Q440.23 92.58 445.70 91.80L445.70 91.80Q461.72 91.80 482.81 86.72L482.81 86.72Q482.03 83.20 480.47 79.69L480.47 79.69Q478.91 75.78 477.34 72.27L477.34 72.27Q472.66 66.41 474.41 64.45Q476.17 62.50 480.86 69.92L480.86 69.92Q485.55 78.52 487.50 89.06L487.50 89.06Q489.84 99.61 487.50 100.39Q485.16 101.17 484.38 96.09L484.38 96.09Q483.98 93.36 483.59 91.41L483.59 91.41Q464.45 95.31 447.27 96.48L447.27 96.48Q438.28 97.66 434.77 93.36L434.77 93.36Q432.03 90.23 437.11 80.08L437.11 80.08Q441.80 71.48 446.68 63.48Q451.56 55.47 453.52 50.78L453.52 50.78Q448.83 51.17 439.06 52.34L439.06 52.34Q429.30 54.30 430.08 50.78L430.08 50.78Q429.69 49.22 439.06 48.05L439.06 48.05Q446.09 46.88 458.20 45.70L458.20 45.70Q461.72 36.72 460.16 28.13L460.16 28.13Q450.39 28.13 446.09 29.30L446.09 29.30Q437.89 31.25 437.50 29.30L437.50 29.30Q435.94 26.17 444.92 25L444.92 25Q450.39 23.83 460.16 23.44L460.16 23.44Q459.38 17.58 458.01 14.45Q456.64 11.33 458.98 11.33ZM425.78 66.80L425.78 66.80Q430.47 68.36 428.52 76.95L428.52 76.95Q425.78 86.72 420.31 96.09L420.31 96.09Q416.02 103.13 411.33 101.56L411.33 101.56Q408.20 98.05 410.16 90.63L410.16 90.63Q411.33 86.72 412.50 84.38L412.50 84.38Q415.23 77.73 417.58 73.44L417.58 73.44Q421.48 65.23 425.78 66.80ZM426.56 25.39L426.56 25.39Q428.52 29.30 426.56 29.69Q424.61 30.08 422.46 26.95Q420.31 23.83 416.41 22.85Q412.50 21.88 412.50 19.92Q412.50 17.97 417.58 19.14Q422.66 20.31 426.56 25.39ZM421.88 53.13L421.88 53.13Q423.83 55.86 422.07 56.64Q420.31 57.42 417.97 54.30Q415.63 51.17 411.33 50Q407.03 48.83 407.23 46.88Q407.42 44.92 412.89 46.29Q418.36 47.66 421.88 53.13ZM549.22 17.58L549.22 17.58Q552.73 18.75 553.91 22.66L553.91 22.66Q557.03 19.92 561.72 19.14L561.72 19.14Q571.88 17.97 580.08 19.53L580.08 19.53Q588.28 21.88 590.23 30.08L590.23 30.08Q591.80 39.84 588.67 50.78L588.67 50.78Q592.19 51.17 591.60 53.13Q591.02 55.08 585.16 55.47L585.16 55.47Q578.13 56.25 570.31 56.64L570.31 56.64Q561.33 56.64 555.08 56.64L555.08 56.64Q553.13 59.77 550 59.77L550 59.77Q545.31 57.42 544.14 50L544.14 50Q543.36 38.67 544.14 26.17L544.14 26.17Q544.53 19.14 549.22 17.58ZM571.88 62.50L571.88 62.50Q571.88 64.06 571.09 70.70L571.09 70.70Q587.50 67.19 593.36 71.09L593.36 71.09Q594.14 74.61 589.06 73.44L589.06 73.44Q587.11 73.44 583.59 73.24Q580.08 73.05 571.09 75L571.09 75Q570.70 85.94 571.88 89.45L571.88 89.45Q573.83 94.92 581.25 97.27L581.25 97.27Q591.80 98.44 591.80 90.23L591.80 90.23Q592.19 87.89 592.58 85.55L592.58 85.55Q591.80 81.25 593.75 81.64Q595.70 82.03 596.48 86.33L596.48 86.33Q596.88 92.19 595.70 94.53L595.70 94.53Q593.75 101.95 582.03 101.56L582.03 101.56Q569.92 100.39 567.19 88.67L567.19 88.67Q566.02 79.30 567.58 64.06L567.58 64.06Q568.36 58.59 570.70 58.20Q573.05 57.81 571.88 62.50ZM547.27 69.14L547.27 69.14Q554.69 68.36 558.20 69.53L558.20 69.53Q562.89 69.92 563.28 72.27Q563.67 74.61 560.94 74.61L560.94 74.61Q554.69 72.27 546.48 73.44L546.48 73.44Q544.92 85.94 546.09 90.23L546.09 90.23Q546.88 95.31 553.52 95.70L553.52 95.70Q557.42 94.53 559.57 92.38Q561.72 90.23 563.48 91.60Q565.23 92.97 562.11 95.70L562.11 95.70Q558.20 99.61 551.17 99.61L551.17 99.61Q543.36 98.44 541.80 90.63L541.80 90.63Q540.23 82.03 543.36 67.58L543.36 67.58Q544.53 61.72 546.88 61.52Q549.22 61.33 548.63 64.06Q548.05 66.80 547.27 69.14ZM555.47 39.84L555.47 39.84L555.47 51.95Q561.72 52.34 568.75 52.34L568.75 52.34Q575.39 52.34 584.38 51.17L584.38 51.17Q588.28 35.55 585.16 28.91L585.16 28.91Q582.42 23.83 575 23.05L575 23.05Q569.14 21.88 563.67 23.05L563.67 23.05Q557.81 23.83 554.69 27.34L554.69 27.34Q555.08 30.08 555.08 35.55L555.08 35.55Q563.67 32.42 570.70 33.59L570.70 33.59Q577.34 34.77 577.34 36.72Q577.34 38.67 572.27 37.50L572.27 37.50Q564.06 36.72 555.47 39.84ZM526.95 55.47L526.95 55.47Q526.95 65.23 526.95 72.66Q526.95 80.08 529.69 98.05L529.69 98.05Q529.30 102.73 527.34 101.95L527.34 101.95Q525.39 102.34 524.41 94.14Q523.44 85.94 523.05 80.27Q522.66 74.61 522.66 60.55L522.66 60.55Q517.97 72.27 514.45 76.17L514.45 76.17Q511.72 81.64 506.25 80.86L506.25 80.86Q502.73 78.52 505.86 71.48L505.86 71.48Q511.33 61.72 516.80 51.56L516.80 51.56Q519.92 47.66 522.66 47.66L522.66 47.66Q522.66 43.36 523.05 39.26Q523.44 35.16 523.44 33.98L523.44 33.98Q517.58 33.59 511.33 35.16L511.33 35.16Q506.64 36.72 506.64 34.38L506.64 34.38Q506.25 32.03 511.33 31.25L511.33 31.25Q516.41 29.69 523.83 29.69L523.83 29.69Q525.39 15.23 527.93 14.84Q530.47 14.45 529.30 20.51Q528.13 26.56 528.13 29.69L528.13 29.69Q538.28 30.47 539.26 33.40Q540.23 36.33 537.11 35.16Q533.98 33.98 527.73 33.98L527.73 33.98Q526.56 43.36 526.95 50.78L526.95 50.78Q535.55 52.34 538.28 55.08Q541.02 57.81 540.04 59.77Q539.06 61.72 535.55 58.79Q532.03 55.86 526.95 55.47ZM668.75 31.25L668.75 31.25Q669.14 38.67 669.14 46.09L669.14 46.09Q673.83 46.48 683.40 59.57Q692.97 72.66 693.16 78.52Q693.36 84.38 691.21 85.16Q689.06 85.94 689.45 81.25Q689.84 76.56 682.03 64.65Q674.22 52.73 669.14 50L669.14 50Q669.14 66.02 667.97 82.03L667.97 82.03Q672.27 82.42 676.17 81.84Q680.08 81.25 680.08 83.59Q680.08 85.94 667.97 86.33L667.97 86.33Q667.58 90.63 666.02 94.73Q664.45 98.83 661.91 98.63Q659.38 98.44 661.13 94.14Q662.89 89.84 663.28 86.33L663.28 86.33Q655.86 85.16 654.30 83.98Q652.73 82.81 654.69 81.84Q656.64 80.86 663.28 82.03L663.28 82.03Q664.84 66.02 664.84 49.61L664.84 49.61Q647.27 67.58 643.55 77.34Q639.84 87.11 637.50 85.94Q635.16 84.77 637.30 79.69Q639.45 74.61 646.88 63.67Q654.30 52.73 664.84 44.53L664.84 44.53Q664.45 37.50 664.06 30.86L664.06 30.86Q646.48 32.42 641.60 34.38Q636.72 36.33 635.74 34.77Q634.77 33.20 639.06 31.45Q643.36 29.69 648.44 28.71Q653.52 27.73 663.67 26.95L663.67 26.95Q662.89 18.75 661.33 15.04Q659.77 11.33 662.50 11.33Q665.23 11.33 666.60 15.23Q667.97 19.14 668.36 26.95L668.36 26.95Q673.44 26.95 677.73 27.34Q682.03 27.73 687.50 29.10Q692.97 30.47 692.19 32.62Q691.41 34.77 687.11 33.20Q682.81 31.64 676.76 31.25Q670.70 30.86 668.75 31.25ZM632.81 15.63L632.81 15.63Q635.16 15.23 635.16 18.36L635.16 18.36L635.16 18.36Q635.55 23.83 625.78 37.11L625.78 37.11Q614.84 50.39 609.77 50.78L609.77 50.78L609.38 50.78Q607.03 50.78 606.64 49.22L606.64 49.22Q606.25 42.19 615.63 29.30L615.63 29.30Q626.17 16.41 632.81 15.63ZM626.95 100.78L626.95 100.78Q625 100.39 622.46 95.70Q619.92 91.02 619.34 84.38Q618.75 77.73 620.31 63.87Q621.88 50 623.24 45.70Q624.61 41.41 625.39 40.23Q626.17 39.06 627.34 40.43Q628.52 41.80 626.76 49.41Q625 57.03 624.02 68.36Q623.05 79.69 623.63 84.38Q624.22 89.06 626.76 94.92Q629.30 100.78 626.95 100.78Z"/></svg>