<svg xmlns="http://www.w3.org/2000/svg" xmlns:xlink="http://www.w3.org/1999/xlink" width="300" height="103.60000000000001"><path d="M38 29.90Q38 29.90 38.35 29.70Q38.70 29.50 39.75 29.50Q40.80 29.50 41.10 29.30Q41.40 29.10 41.70 29.10Q42 29.10 42.60 28.70Q43.20 28.30 43.80 28.30Q44.40 28.30 45.10 27.85Q45.80 27.40 45.85 27.25Q45.90 27.10 46.15 27.10Q46.40 27.10 47.20 26.60Q48 26.10 48.15 26.10Q48.30 26.10 50.35 25.10Q52.40 24.10 52.55 24.10Q52.70 24.10 54.80 23.50Q56.90 22.90 57.35 22.55Q57.80 22.20 58.05 22.20Q58.30 22.20 59.30 21.90Q60.30 21.60 61.05 21.10Q61.80 20.60 61.95 20.40Q62.10 20.20 62.30 20.20Q62.50 20.20 63.35 19.90Q64.20 19.60 65.05 18.85Q65.90 18.10 66 18.10Q66.10 18.10 66.95 17.55Q67.80 17 68.05 16.60Q68.30 16.20 68.30 15.35Q68.30 14.50 67.90 13.95Q67.50 13.40 66.95 13.10Q66.40 12.80 65.50 12.85Q64.60 12.90 63.50 13.65Q62.40 14.40 62.15 14.70Q61.90 15 61.10 15.20Q60.30 15.40 59.55 15.90Q58.80 16.40 58.55 16.65Q58.30 16.90 57.25 17.10Q56.20 17.30 55.65 17.70Q55.10 18.10 53.25 18.55Q51.40 19 49.20 20.05Q47 21.10 46.35 21.35Q45.70 21.60 45.45 21.80Q45.20 22 44.50 22.05Q43.80 22.10 43.15 22.65Q42.50 23.20 41.95 23.25Q41.40 23.30 40.95 23.65Q40.50 24 40 24.15Q39.50 24.30 38.40 24.40Q37.30 24.50 37.10 24.65Q36.90 24.80 36.20 24.85Q35.50 24.90 34.95 25.30Q34.40 25.70 34.10 26.25Q33.80 26.80 33.85 27.50Q33.90 28.20 34.30 28.75Q34.70 29.30 35.25 29.60Q35.80 29.90 36.90 29.90Q38 29.90 38 29.90ZM16.60 63.50Q16.60 63.50 17.80 63.20Q19 62.90 19.80 62.55Q20.60 62.20 20.85 62.20Q21.10 62.20 22.45 61.85Q23.80 61.50 24.10 61.50Q24.40 61.50 24.70 61.35Q25 61.20 25.40 61.20Q25.80 61.20 26.90 61Q28 60.80 29.20 60.15Q30.40 59.50 30.75 59.50Q31.10 59.50 32.75 59.15Q34.40 58.80 34.75 58.60Q35.10 58.40 35.45 58.40Q35.80 58.40 36.90 58.30Q38 58.20 39.40 57.65Q40.80 57.10 42.65 57.10Q44.50 57.10 45.40 56.70Q46.30 56.30 47.85 56.30Q49.40 56.30 51.40 55.70Q53.40 55.10 53.95 55.10Q54.50 55.10 54.85 54.90Q55.20 54.70 68.60 54.70Q82 54.70 82.70 54.25Q83.40 53.80 83.65 53.40Q83.90 53 83.90 52.15Q83.90 51.30 83.30 50.55Q82.70 49.80 82.10 49.35Q81.50 48.90 80.10 48.90Q78.70 48.90 78.25 49.25Q77.80 49.60 65.80 49.65Q53.80 49.70 53.60 49.85Q53.40 50 52.50 50.10Q51.60 50.20 50 50.70Q48.40 51.20 46.65 51.25Q44.90 51.30 44.15 51.65Q43.40 52 42.80 51.95Q42.20 51.90 43.15 51.25Q44.10 50.60 44.20 50.60Q44.30 50.60 45.30 49.95Q46.30 49.30 46.40 49.30Q46.50 49.30 47.20 48.85Q47.90 48.40 48.05 48.40Q48.20 48.40 49 47.90Q49.80 47.40 50.25 46.70Q50.70 46 50.75 46Q50.80 46 51.30 45.50Q51.80 45 51.90 45Q52 45 52.90 44.40Q53.80 43.80 54 43.45Q54.20 43.10 54.30 43.10Q54.40 43.10 55.85 41.65Q57.30 40.20 57.65 39.45Q58 38.70 58.05 38.70Q58.10 38.70 58.35 38.30Q58.60 37.90 58.70 37.90Q58.80 37.90 59.60 37.10Q60.40 36.30 60.60 36.30Q60.80 36.30 61.50 35.85Q62.20 35.40 62.45 35Q62.70 34.60 62.70 33.75Q62.70 32.90 62.30 32.35Q61.90 31.80 61.35 31.50Q60.80 31.20 58.90 31.25Q57 31.30 56.55 31.65Q56.10 32 54.30 32.60Q52.50 33.20 51.30 33.50Q50.10 33.80 48.35 34.60Q46.60 35.40 43.10 36.20Q39.60 37 38.85 37.30Q38.10 37.60 35.75 37.65Q33.40 37.70 32.85 38.10Q32.30 38.50 32 39.05Q31.70 39.60 31.75 40.30Q31.80 41 32.20 41.55Q32.60 42.10 33.15 42.40Q33.70 42.70 35.45 42.70Q37.20 42.70 38.45 42.35Q39.70 42 40.45 41.55Q41.20 41.10 41.30 41.10Q41.40 41.10 42.20 40.75Q43 40.40 43.25 40.40Q43.50 40.40 44.50 40.05Q45.50 39.70 46.60 39Q47.70 38.30 47.85 38.30Q48 38.30 48.85 37.95Q49.70 37.60 49.95 37.60Q50.20 37.60 50.75 37.35Q51.30 37.10 51.55 37.10Q51.80 37.10 52.40 37Q53 36.90 52.45 37.75Q51.90 38.60 51.15 39.10Q50.40 39.60 50.20 39.95Q50 40.30 49 40.95Q48 41.60 47 42.65Q46 43.70 44.50 44.55Q43 45.40 41.30 46.50Q39.60 47.60 39 47.70Q38.40 47.80 37 48.70Q35.60 49.60 34.90 49.65Q34.20 49.70 33.05 50.40Q31.90 51.10 30.15 51.65Q28.40 52.20 27.50 52.85Q26.60 53.50 25.50 53.85Q24.40 54.20 24.05 54.50Q23.70 54.80 22.95 54.85Q22.20 54.90 21.55 55.45Q20.90 56 20.40 56.10Q19.90 56.20 19.80 56.30Q19.70 56.40 19.15 56.45Q18.60 56.50 18.15 56.85Q17.70 57.20 17.10 57.25Q16.50 57.30 16.30 57.45Q16.10 57.60 15.30 57.65Q14.50 57.70 13.95 58Q13.40 58.30 12.50 58.45Q11.60 58.60 11.05 59.10Q10.50 59.60 10.30 60Q10.10 60.40 10.15 61.10Q10.20 61.80 10.60 62.35Q11 62.90 11.55 63.20Q12.10 63.50 14.35 63.50Q16.60 63.50 16.60 63.50ZM53.60 98.30Q53.60 98.30 54.30 97.85Q55 97.40 55.60 96.70Q56.20 96 56.30 95.70Q56.40 95.40 56.35 82.10Q56.30 68.80 55.95 67.90Q55.60 67 55.55 60.35Q55.50 53.70 55.35 53.55Q55.20 53.40 55.15 51.95Q55.10 50.50 54.95 50.35Q54.80 50.20 54.75 47.75Q54.70 45.30 54.55 45.15Q54.40 45 54.35 43.75Q54.30 42.50 54.15 42.30Q54 42.10 53.95 41.10Q53.90 40.10 53.75 39.95Q53.60 39.80 53.45 39.20Q53.30 38.60 53.05 38.30Q52.80 38 52.70 37.35Q52.60 36.70 52.50 36.65Q52.40 36.60 52.25 36Q52.10 35.40 51.95 34.65Q51.80 33.90 51.50 33.45Q51.20 33 51.15 31.35Q51.10 29.70 50.70 29.15Q50.30 28.60 49.75 28.30Q49.20 28 48.50 28.05Q47.80 28.10 47.25 28.50Q46.70 28.90 46.40 29.45Q46.10 30 46.15 32.30Q46.20 34.60 46.55 35.20Q46.90 35.80 46.95 36.40Q47 37 47.15 37.20Q47.30 37.40 47.35 38Q47.40 38.60 47.55 38.80Q47.70 39 47.80 39.50Q47.90 40 48.40 40.90Q48.90 41.80 48.95 42.65Q49 43.50 49.15 43.70Q49.30 43.90 49.35 45.45Q49.40 47 49.55 47.20Q49.70 47.40 49.75 49.60Q49.80 51.80 49.95 52Q50.10 52.20 50.15 53.60Q50.20 55 50.35 55.20Q50.50 55.40 50.55 61.85Q50.60 68.30 50.95 69.20Q51.30 70.10 51.25 79.05Q51.20 88 50.45 86.75Q49.70 85.50 48.30 84.05Q46.90 82.60 45.70 80.75Q44.50 78.90 43.60 77.90Q42.70 76.90 41.70 75.70Q40.70 74.50 40.35 73.90Q40 73.30 39.95 73.05Q39.90 72.80 39.05 71.40Q38.20 70 37.25 68.90Q36.30 67.80 35 66.05Q33.70 64.30 33.40 63.85Q33.10 63.40 31.80 61.90Q30.50 60.40 30.15 60Q29.80 59.60 29.10 59.45Q28.40 59.30 27.85 59.50Q27.30 59.70 26.90 60.10Q26.50 60.50 26.35 61.20Q26.20 61.90 26.40 62.45Q26.60 63 27 63.40Q27.40 63.80 28.10 64Q28.80 64.20 30.10 65.30Q31.40 66.40 32.45 67.45Q33.50 68.50 34.10 69.35Q34.70 70.20 35.50 71.25Q36.30 72.30 38 75.25Q39.70 78.20 40.75 79.90Q41.80 81.60 42.40 82.85Q43 84.10 43.50 84.95Q44 85.80 45 87Q46 88.20 46.25 89.05Q46.50 89.90 47.05 90.85Q47.60 91.80 48 92.20Q48.40 92.60 48.65 93.30Q48.90 94 49.45 94.80Q50 95.60 50.30 96.20Q50.60 96.80 51.15 97.35Q51.70 97.90 52.10 98.10Q52.50 98.30 53.05 98.30Q53.60 98.30 53.60 98.30ZM0 80Q0 80 0 80ZM157 54.20Q157 54.20 157.60 53.85Q158.20 53.50 158.70 53.50Q159.20 53.50 159.90 53.05Q160.60 52.60 161.05 51.80Q161.50 51 161.60 50.60Q161.70 50.20 161.75 50.20Q161.80 50.20 162.55 48.80Q163.30 47.40 163.35 47.40Q163.40 47.40 163.85 46.70Q164.30 46 164.35 46Q164.40 46 164.80 45.45Q165.20 44.90 166.25 43Q167.30 41.10 167.35 41.10Q167.40 41.10 168 40.35Q168.60 39.60 169.10 38.15Q169.60 36.70 169.55 35Q169.50 33.30 169.10 32.75Q168.70 32.20 168.15 31.90Q167.60 31.60 166.10 31.65Q164.60 31.70 164 32.05Q163.40 32.40 161.80 32.45Q160.20 32.50 160 32.65Q159.80 32.80 159.30 32.90Q158.80 33 158.50 33.25Q158.20 33.50 157.20 33.60Q156.20 33.70 155.60 34Q155 34.30 154.25 34.55Q153.50 34.80 152.65 34.85Q151.80 34.90 151.25 35.30Q150.70 35.70 149.95 35.85Q149.20 36 148.10 36.05Q147 36.10 146.25 36.50Q145.50 36.90 143.75 37.25Q142 37.60 139.90 37.65Q137.80 37.70 136.05 38.25Q134.30 38.80 133.25 38.85Q132.20 38.90 131.65 39.30Q131.10 39.70 130.80 40.25Q130.50 40.80 130.55 41.50Q130.60 42.20 131 42.75Q131.40 43.30 131.95 43.60Q132.50 43.90 133.90 43.90Q135.30 43.90 136.55 43.45Q137.80 43 138.05 43Q138.30 43 138.80 42.85Q139.30 42.70 141.15 42.70Q143 42.70 145.20 42.20Q147.40 41.70 147.90 41.40Q148.40 41.10 149.30 41.10Q150.20 41.10 151.35 40.80Q152.50 40.50 152.90 40.20Q153.30 39.90 153.90 39.90Q154.50 39.90 156.05 39.30Q157.60 38.70 158.25 38.70Q158.90 38.70 159.75 38.35Q160.60 38 161.10 37.75Q161.60 37.50 162.60 37.55Q163.60 37.60 162.85 38.75Q162.10 39.90 161.70 40.70Q161.30 41.50 160.85 42.20Q160.40 42.90 160.05 43.25Q159.70 43.60 159.40 44.10Q159.10 44.60 158.70 45.05Q158.30 45.50 157.80 46.55Q157.30 47.60 156.95 48.10Q156.60 48.60 155.50 49.30Q154.40 50 154.10 50.55Q153.80 51.10 153.85 51.80Q153.90 52.50 154.30 53.05Q154.70 53.60 155.25 53.90Q155.80 54.20 156.40 54.20Q157 54.20 157 54.20ZM171.40 74Q171.40 74 170.45 73.20Q169.50 72.40 168.15 71.05Q166.80 69.70 166.45 69.20Q166.10 68.70 162.95 65.60Q159.80 62.50 159.20 61.75Q158.60 61 157.25 59.45Q155.90 57.90 156 57.90Q156.10 57.90 156.95 57.35Q157.80 56.80 157.95 56.80Q158.10 56.80 158.60 56.55Q159.10 56.30 160.60 56.30Q162.10 56.30 162.85 55.90Q163.60 55.50 164.20 55.50Q164.80 55.50 165.40 55.10Q166 54.70 166.80 54.70Q167.60 54.70 167.90 54.50Q168.20 54.30 168.95 54.30Q169.70 54.30 170.05 54.10Q170.40 53.90 172.60 53.95Q174.80 54 175.10 54.60Q175.40 55.20 175.55 55.35Q175.70 55.50 175.65 57.70Q175.60 59.90 175.45 60.15Q175.30 60.40 175.25 61.45Q175.20 62.50 174.90 62.90Q174.60 63.30 174.50 64.60Q174.40 65.90 174.05 66.55Q173.70 67.20 173.65 67.55Q173.60 67.90 173.45 68.15Q173.30 68.40 173.25 69.25Q173.20 70.10 172.90 70.50Q172.60 70.90 172.50 71.50Q172.40 72.10 171.95 72.80Q171.50 73.50 171.45 73.75Q171.40 74 171.40 74ZM172.40 80.70Q172.40 80.70 173.10 80.25Q173.80 79.80 174.55 79Q175.30 78.20 175.50 77.80Q175.70 77.40 175.75 77.40Q175.80 77.40 176.05 77Q176.30 76.60 176.40 75.95Q176.50 75.30 176.60 75.30Q176.70 75.30 177.10 74.75Q177.50 74.20 177.60 73.35Q177.70 72.50 177.75 72.50Q177.80 72.50 178.10 71.80Q178.40 71.10 178.45 70.35Q178.50 69.60 178.55 69.60Q178.60 69.60 178.75 68.90Q178.90 68.20 178.95 68.20Q179 68.20 179.25 67.80Q179.50 67.40 179.60 66.20Q179.70 65 179.75 65Q179.80 65 180.05 64.60Q180.30 64.20 180.40 62.75Q180.50 61.30 180.55 61.30Q180.60 61.30 180.70 61Q180.80 60.70 180.75 57.40Q180.70 54.10 180.35 53.55Q180 53 179.90 52.25Q179.80 51.50 178.90 50.55Q178 49.60 177.20 49.20Q176.40 48.80 172.70 48.85Q169 48.90 168.80 49.05Q168.60 49.20 167.60 49.25Q166.60 49.30 166.45 49.45Q166.30 49.60 165.45 49.65Q164.60 49.70 164.05 50.05Q163.50 50.40 162.85 50.45Q162.20 50.50 161.60 50.85Q161 51.20 159.35 51.25Q157.70 51.30 156.35 51.95Q155 52.60 154.60 52.85Q154.20 53.10 153.10 53.40Q152 53.70 150.75 52.30Q149.50 50.90 147.55 49Q145.60 47.10 141.95 43Q138.30 38.90 138 38.95Q137.70 39 137.55 39.35Q137.40 39.70 141.50 44.25Q145.60 48.80 146.85 50.30Q148.10 51.80 149.10 53Q150.10 54.20 148.75 54.70Q147.40 55.20 145.95 55.25Q144.50 55.30 142.55 55.95Q140.60 56.60 139 56.90Q137.40 57.20 134.30 58.05Q131.20 58.90 129.90 59.45Q128.60 60 127.60 60.05Q126.60 60.10 126.40 60.25Q126.20 60.40 125.20 60.45Q124.20 60.50 123.65 60.90Q123.10 61.30 122.80 61.85Q122.50 62.40 122.55 63.10Q122.60 63.80 123 64.35Q123.40 64.90 123.95 65.20Q124.50 65.50 125.90 65.50Q127.30 65.50 127.65 65.30Q128 65.10 128.80 65.10Q129.60 65.10 130.65 64.45Q131.70 63.80 131.85 63.80Q132 63.80 132.30 63.60Q132.60 63.40 132.75 63.40Q132.90 63.40 133 63.25Q133.10 63.10 133.25 63.10Q133.40 63.10 133.75 62.90Q134.10 62.70 134.30 62.70Q134.50 62.70 136.30 62.20Q138.10 61.70 138.85 61.40Q139.60 61.10 139.80 61.10Q140 61.10 141.90 60.85Q143.80 60.60 144.60 60.45Q145.40 60.30 146.95 60.30Q148.50 60.30 149.55 59.85Q150.60 59.40 150.85 59.40Q151.10 59.40 152.50 59Q153.90 58.60 155.45 60.50Q157 62.40 158.25 64Q159.50 65.60 160.70 67.30Q161.90 69 163.95 71.95Q166 74.90 167.10 76.10Q168.20 77.30 168.80 78.45Q169.40 79.60 169.75 79.95Q170.10 80.30 170.50 80.50Q170.90 80.70 171.65 80.70Q172.40 80.70 172.40 80.70ZM147.20 99.90Q147.20 99.90 147.90 99.45Q148.60 99 148.85 98.60Q149.10 98.20 149.20 95.30Q149.30 92.40 149.35 92.40Q149.40 92.40 149.55 91.85Q149.70 91.30 149.75 91.30Q149.80 91.30 150 90.35Q150.20 89.40 150.05 88.95Q149.90 88.50 149.75 88.35Q149.60 88.20 149.65 86.90Q149.70 85.60 149.75 85.60Q149.80 85.60 149.90 85.30Q150 85 150.05 82.95Q150.10 80.90 150.15 80.90Q150.20 80.90 150.30 80.60Q150.40 80.30 150.45 77.35Q150.50 74.40 150.55 74.40Q150.60 74.40 150.70 74.10Q150.80 73.80 150.85 69.70Q150.90 65.60 150.95 65.60Q151 65.60 151.10 65.30Q151.20 65 151.15 51.95Q151.10 38.90 150.95 38.75Q150.80 38.60 150.75 33.50Q150.70 28.40 150.55 28.10Q150.40 27.80 150.30 27.05Q150.20 26.30 150.10 26.20Q150 26.10 149.95 19.90Q149.90 13.70 149.30 12.95Q148.70 12.20 148.15 11.90Q147.60 11.60 146.70 11.65Q145.80 11.70 145.25 12.10Q144.70 12.50 144.40 13.05Q144.10 13.60 144.15 14.30Q144.20 15 144.55 15.45Q144.90 15.90 144.95 21.70Q145 27.50 145.15 27.70Q145.30 27.90 145.35 28.50Q145.40 29.10 145.55 29.40Q145.70 29.70 145.75 34.95Q145.80 40.20 145.95 40.40Q146.10 40.60 146.05 52.05Q146 63.50 145.85 63.75Q145.70 64 145.65 68.15Q145.60 72.30 145.45 72.55Q145.30 72.80 145.25 76.15Q145.20 79.50 145.05 79.75Q144.90 80 144.85 81.75Q144.80 83.50 144.65 83.75Q144.50 84 144.45 85.35Q144.40 86.70 144.25 86.95Q144.10 87.20 144.15 92.70Q144.20 98.20 144.60 98.75Q145 99.30 145.55 99.60Q146.10 99.90 146.65 99.90Q147.20 99.90 147.20 99.90ZM179.10 33.50Q179.10 33.50 179.80 33.05Q180.50 32.60 180.75 32.20Q181 31.80 181 30.95Q181 30.10 180.60 29.55Q180.20 29 179.65 28.65Q179.10 28.30 178.70 27.90Q178.30 27.50 178.05 27.40Q177.80 27.30 177.35 26.80Q176.90 26.30 175.35 25.35Q173.80 24.40 173.10 23.65Q172.40 22.90 171.95 22.65Q171.50 22.40 170.70 22.25Q169.90 22.10 169.50 21.40Q169.10 20.70 168.75 20.55Q168.40 20.40 167.80 20.35Q167.20 20.30 167 20.15Q166.80 20 166.40 20.10Q166 20.20 165.85 20.45Q165.70 20.70 165.75 21.25Q165.80 21.80 166.10 22.05Q166.40 22.30 166.75 22.45Q167.10 22.60 167.25 23.45Q167.40 24.30 167.80 24.75Q168.20 25.20 168.85 25.60Q169.50 26 170.20 27.10Q170.90 28.20 172.05 29.25Q173.20 30.30 174.55 31.20Q175.90 32.10 176.40 32.60Q176.90 33.10 177.30 33.30Q177.70 33.50 178.40 33.50Q179.10 33.50 179.10 33.50ZM100 80Q100 80 100 80ZM226 89.90Q226 89.90 226.70 89.45Q227.40 89 227.65 88.60Q227.90 88.20 228 86.50Q228.10 84.80 228.15 84.80Q228.20 84.80 228.30 84.50Q228.40 84.20 228.35 76.55Q228.30 68.90 228.15 68.75Q228 68.60 227.95 59.35Q227.90 50.10 227.55 49.65Q227.20 49.20 227.10 48.55Q227 47.90 226.45 47.15Q225.90 46.40 225.70 45.95Q225.50 45.50 225.15 45.15Q224.80 44.80 224.40 44.60Q224 44.40 223.70 44.40Q223.40 44.40 224 43.45Q224.60 42.50 224.90 42.15Q225.20 41.80 225.30 41.80Q225.40 41.80 225.85 41.20Q226.30 40.60 226.50 39.90Q226.70 39.20 226.75 39.20Q226.80 39.20 227.20 38.65Q227.60 38.10 227.90 37.50Q228.20 36.90 228.25 36.90Q228.30 36.90 228.70 36.35Q229.10 35.80 229.55 35.10Q230 34.40 230.15 33.95Q230.30 33.50 230.35 33.50Q230.40 33.50 230.60 33.05Q230.80 32.60 230.90 32.15Q231 31.70 231.05 31.70Q231.10 31.70 231.50 31.15Q231.90 30.60 232.30 29.40Q232.70 28.20 232.75 28.20Q232.80 28.20 233.15 27.60Q233.50 27 233.60 26.55Q233.70 26.10 233.75 26.10Q233.80 26.10 234.15 25.35Q234.50 24.60 234.55 24.60Q234.60 24.60 234.85 24.20Q235.10 23.80 235.10 22.35Q235.10 20.90 234.70 20.35Q234.30 19.80 233.75 19.50Q233.20 19.20 232.30 19.25Q231.40 19.30 230.85 19.70Q230.30 20.10 230 20.65Q229.70 21.20 229.70 21.90Q229.70 22.60 229.50 22.90Q229.30 23.20 229.25 23.45Q229.20 23.70 228.90 24.10Q228.60 24.50 228.50 25.10Q228.40 25.70 228.05 26.20Q227.70 26.70 227.40 27.65Q227.10 28.60 226.70 29.05Q226.30 29.50 225.95 30.50Q225.60 31.50 225.05 32.30Q224.50 33.10 224.25 33.60Q224 34.10 223.55 34.80Q223.10 35.50 222.90 35.85Q222.70 36.20 222.30 36.65Q221.90 37.10 221.75 37.70Q221.60 38.30 221.15 38.60Q220.70 38.90 220.05 40.10Q219.40 41.30 218.15 42.65Q216.90 44 216.60 44.60Q216.30 45.20 215.90 45.45Q215.50 45.70 214.80 46.85Q214.10 48 213.45 48.40Q212.80 48.80 212.40 49.25Q212 49.70 211.20 50.10Q210.40 50.50 209.55 51.30Q208.70 52.10 207.55 52.85Q206.40 53.60 205.20 54.40Q204 55.20 203.50 55.85Q203 56.50 203 57.35Q203 58.20 203.40 58.75Q203.80 59.30 204.35 59.60Q204.90 59.90 205.65 59.90Q206.40 59.90 208.25 58.70Q210.10 57.50 210.45 57.10Q210.80 56.70 211 56.70Q211.20 56.70 211.90 56.25Q212.60 55.80 212.95 55.40Q213.30 55 213.40 55Q213.50 55 214.15 54.45Q214.80 53.90 215 53.90Q215.20 53.90 215.90 53.45Q216.60 53 216.85 52.55Q217.10 52.10 217.20 52.10Q217.30 52.10 217.65 51.80Q218 51.50 218.20 51.50Q218.40 51.50 219.10 51.05Q219.80 50.60 220.10 50.25Q220.40 49.90 220.80 49.90Q221.20 49.90 221.55 49.75Q221.90 49.60 222.25 50.55Q222.60 51.50 222.75 51.65Q222.90 51.80 222.95 61Q223 70.20 223.15 70.40Q223.30 70.60 223.25 75.35Q223.20 80.10 222.85 81Q222.50 81.90 222.55 85.05Q222.60 88.20 223 88.75Q223.40 89.30 223.95 89.60Q224.50 89.90 225.25 89.90Q226 89.90 226 89.90ZM239.20 49.90Q239.20 49.90 239.90 49.45Q240.60 49 241 48.40Q241.40 47.80 241.50 47.80Q241.60 47.80 242.35 47.35Q243.10 46.90 243.20 46.90Q243.30 46.90 244.45 46.10Q245.60 45.30 245.70 45.30Q245.80 45.30 247 44.85Q248.20 44.40 249.50 43.90Q250.80 43.40 252.60 42.65Q254.40 41.90 254.65 41.70Q254.90 41.50 255.45 41.50Q256 41.50 257.25 40.70Q258.50 39.90 259.10 39.90Q259.70 39.90 261.15 39.30Q262.60 38.70 263.15 38.70Q263.70 38.70 264.80 38.15Q265.90 37.60 266.05 37.60Q266.20 37.60 266.95 37.45Q267.70 37.30 268.05 37Q268.40 36.70 268.80 36.70Q269.20 36.70 269.90 36.30Q270.60 35.90 271.10 35.90Q271.60 35.90 272.30 35.45Q273 35 273.45 34.40Q273.90 33.80 273.90 32.95Q273.90 32.10 273.50 31.55Q273.10 31 272.55 30.70Q272 30.40 270.75 30.45Q269.50 30.50 269 30.90Q268.50 31.30 268.20 31.45Q267.90 31.60 267.35 31.70Q266.80 31.80 266.35 32.10Q265.90 32.40 265.25 32.50Q264.60 32.60 263.60 33.10Q262.60 33.60 261.95 33.65Q261.30 33.70 260 34.25Q258.70 34.80 257.85 34.85Q257 34.90 255.90 35.65Q254.80 36.40 254.10 36.45Q253.40 36.50 252.75 36.95Q252.10 37.40 251.35 37.65Q250.60 37.90 249.05 38.55Q247.50 39.20 246.95 39.30Q246.40 39.40 246.10 39.65Q245.80 39.90 245.10 40.05Q244.40 40.20 243.25 40.85Q242.10 41.50 241.70 41.80Q241.30 42.10 240.85 42.30Q240.40 42.50 239.90 42.85Q239.40 43.20 238.75 43.55Q238.10 43.90 237.30 44.75Q236.50 45.60 236.30 46Q236.10 46.40 236.15 47.30Q236.20 48.20 236.60 48.75Q237 49.30 237.55 49.60Q238.10 49.90 238.65 49.90Q239.20 49.90 239.20 49.90ZM256.40 97.50Q256.40 97.50 257.10 97.05Q257.80 96.60 258.05 96.20Q258.30 95.80 258.40 91.90Q258.50 88 258.55 88Q258.60 88 258.70 87.70Q258.80 87.40 258.85 81.90Q258.90 76.40 258.95 76.40Q259 76.40 259.10 76.10Q259.20 75.80 259.25 74.15Q259.30 72.50 259.35 72.50Q259.40 72.50 259.50 72.20Q259.60 71.90 259.55 56.60Q259.50 41.30 259.35 41.15Q259.20 41 259.05 40.20Q258.90 39.40 258.75 38.25Q258.60 37.10 258.50 37Q258.40 36.90 258.35 31.30Q258.30 25.70 258.15 25.55Q258 25.40 257.95 23.95Q257.90 22.50 257.75 22.30Q257.60 22.10 257.55 20.70Q257.50 19.30 257.35 19.10Q257.20 18.90 257.15 18.10Q257.10 17.30 256.70 16.75Q256.30 16.20 255.75 15.90Q255.20 15.60 254.30 15.65Q253.40 15.70 252.85 16.10Q252.30 16.50 252 17.05Q251.70 17.60 251.75 18.30Q251.80 19 251.95 19.20Q252.10 19.40 252.20 19.95Q252.30 20.50 252.40 20.60Q252.50 20.70 252.55 22.10Q252.60 23.50 252.75 23.70Q252.90 23.90 252.95 25.45Q253 27 253.15 27.20Q253.30 27.40 253.35 32.85Q253.40 38.30 253.55 38.50Q253.70 38.70 253.75 39.70Q253.80 40.70 253.95 41Q254.10 41.30 254.15 41.95Q254.20 42.60 254.35 42.80Q254.50 43 254.45 57.05Q254.40 71.10 254.25 71.35Q254.10 71.60 254.05 73.15Q254 74.70 253.85 74.95Q253.70 75.20 253.70 75.90Q253.70 76.60 253.25 76.80Q252.80 77 252.45 77.35Q252.10 77.70 251.90 78.10Q251.70 78.50 251.75 82.75Q251.80 87 252.20 89.60Q252.60 92.20 252.95 93.30Q253.30 94.40 253.35 95.10Q253.40 95.80 253.80 96.35Q254.20 96.90 254.75 97.20Q255.30 97.50 255.85 97.50Q256.40 97.50 256.40 97.50ZM228.80 82.30Q228.80 82.30 230.05 81.65Q231.30 81 232.15 80.15Q233 79.30 233.10 79.05Q233.20 78.80 233.30 78.80Q233.40 78.80 234.20 78.30Q235 77.80 235.35 77.30Q235.70 76.80 235.80 76.80Q235.90 76.80 236.40 76.30Q236.90 75.80 237.20 75.10Q237.50 74.40 237.55 74.40Q237.60 74.40 238.35 73.85Q239.10 73.30 239.50 72.65Q239.90 72 239.95 72Q240 72 240.70 71.25Q241.40 70.50 241.70 70.15Q242 69.80 242.10 69.80Q242.20 69.80 242.80 69Q243.40 68.20 243.50 68.20Q243.60 68.20 244.30 67.55Q245 66.90 245.40 66.10Q245.80 65.30 245.85 65.30Q245.90 65.30 246.70 64.25Q247.50 63.20 247.55 63.20Q247.60 63.20 248.55 62.20Q249.50 61.20 250.75 59.40Q252 57.60 252.05 57.60Q252.10 57.60 252.95 56.55Q253.80 55.50 254.60 54.20Q255.40 52.90 255.45 52.90Q255.50 52.90 255.85 52.40Q256.20 51.90 256.30 51.90Q256.40 51.90 257.30 51.25Q258.20 50.60 258.45 50.20Q258.70 49.80 258.70 48.95Q258.70 48.10 258.30 47.55Q257.90 47 257.35 46.70Q256.80 46.40 255.70 46.45Q254.60 46.50 254.05 46.90Q253.50 47.30 253.35 47.60Q253.20 47.90 252.75 48.20Q252.30 48.50 251.90 49.15Q251.50 49.80 251.10 50.25Q250.70 50.70 250.40 51.30Q250.10 51.90 249.45 52.80Q248.80 53.70 248.35 54.15Q247.90 54.60 246.65 56.40Q245.40 58.20 244.10 59.55Q242.80 60.90 242.45 61.45Q242.10 62 241.70 62.40Q241.30 62.80 241 63.45Q240.70 64.10 240.15 64.45Q239.60 64.80 239.15 65.45Q238.70 66.10 238.15 66.45Q237.60 66.80 237.15 67.50Q236.70 68.20 236 68.90Q235.30 69.60 235.10 69.85Q234.90 70.10 233.90 71.05Q232.90 72 232.65 72.55Q232.40 73.10 231.95 73.40Q231.50 73.70 231.35 73.90Q231.20 74.10 230.65 74.35Q230.10 74.60 229.55 74.20Q229 73.80 228.15 73.80Q227.30 73.80 226.75 74.20Q226.20 74.60 225.75 75.45Q225.30 76.30 225.35 77.70Q225.40 79.10 225.55 79.40Q225.70 79.70 225.80 80.25Q225.90 80.80 226.40 81.35Q226.90 81.90 227.30 82.10Q227.70 82.30 228.25 82.30Q228.80 82.30 228.80 82.30ZM291.10 76.70Q291.10 76.70 291.80 76.25Q292.50 75.80 292.75 75.40Q293 75 293 74.15Q293 73.30 292.45 72.55Q291.90 71.80 290.90 71.15Q289.90 70.50 289.35 70.35Q288.80 70.20 288 69.50Q287.20 68.80 286.70 68.55Q286.20 68.30 285.85 67.90Q285.50 67.50 284.55 67Q283.60 66.50 282.95 66Q282.30 65.50 281.30 64.50Q280.30 63.50 279.80 63.20Q279.30 62.90 278.45 62.25Q277.60 61.60 276.90 60.65Q276.20 59.70 275.05 58.60Q273.90 57.50 273.65 57.30Q273.40 57.10 273.05 56.70Q272.70 56.30 272.20 56Q271.70 55.70 271.25 55Q270.80 54.30 270.15 53.90Q269.50 53.50 269.10 52.85Q268.70 52.20 268 51.75Q267.30 51.30 266.40 50.40Q265.50 49.50 264.65 49.05Q263.80 48.60 263.05 47.85Q262.30 47.10 261.60 46.75Q260.90 46.40 259.95 46.45Q259 46.50 258.45 46.90Q257.90 47.30 257.60 47.85Q257.30 48.40 257.35 49.10Q257.40 49.80 257.80 50.35Q258.20 50.90 258.75 51.20Q259.30 51.50 259.55 51.55Q259.80 51.60 260.55 52.35Q261.30 53.10 262.15 53.55Q263 54 263.95 54.95Q264.90 55.90 265.15 56.10Q265.40 56.30 266.35 57.30Q267.30 58.30 267.55 58.50Q267.80 58.70 268.40 59.35Q269 60 269.40 60.35Q269.80 60.70 270.35 61.55Q270.90 62.40 271.50 62.75Q272.10 63.10 272.30 63.10Q272.50 63.10 272.70 63.50Q272.90 63.90 274.30 65.30Q275.70 66.70 276.80 67.40Q277.90 68.10 278.50 68.75Q279.10 69.40 279.40 69.90Q279.70 70.40 280.30 70.75Q280.90 71.10 281.25 71.15Q281.60 71.20 282.10 71.55Q282.60 71.90 282.95 72.30Q283.30 72.70 284.05 73.05Q284.80 73.40 285.25 73.85Q285.70 74.30 286.55 74.85Q287.40 75.40 287.95 75.65Q288.50 75.90 288.95 76.25Q289.40 76.60 290.25 76.65Q291.10 76.70 291.10 76.70ZM244.50 78.70Q244.50 78.70 246.05 77.90Q247.60 77.10 248.60 76.70Q249.60 76.30 249.85 76.10Q250.10 75.90 250.70 75.90Q251.30 75.90 252.35 75.45Q253.40 75 253.60 75Q253.80 75 254.80 74.65Q255.80 74.30 256.45 73.95Q257.10 73.60 257.25 73.60Q257.40 73.60 258.20 73.45Q259 73.30 259.45 73Q259.90 72.70 261.20 72.70Q262.50 72.70 263.60 72.10Q264.70 71.50 264.95 71.50Q265.20 71.50 265.50 71.30Q265.80 71.10 266.90 71.10Q268 71.10 268.30 70.90Q268.60 70.70 269.65 70.70Q270.70 70.70 271.40 70.25Q272.10 69.80 272.35 69.40Q272.60 69 272.60 68.15Q272.60 67.30 272.20 66.75Q271.80 66.20 271.25 65.90Q270.70 65.60 268.85 65.65Q267 65.70 266.85 65.85Q266.70 66 265.45 66.05Q264.20 66.10 264.05 66.25Q263.90 66.40 263.35 66.50Q262.80 66.60 262.20 67.05Q261.60 67.50 259.90 67.60Q258.20 67.70 257.75 68.05Q257.30 68.40 256.70 68.45Q256.10 68.50 254.85 69.10Q253.60 69.70 252.55 69.95Q251.50 70.20 250.85 70.50Q250.20 70.80 249.40 70.85Q248.60 70.90 248.05 71.30Q247.50 71.70 246.50 72Q245.50 72.30 244.95 72.70Q244.40 73.10 243.90 73.35Q243.40 73.60 242.80 73.65Q242.20 73.70 241.65 74.10Q241.10 74.50 240.80 75.05Q240.50 75.60 240.55 76.30Q240.60 77 241 77.55Q241.40 78.10 241.95 78.40Q242.50 78.70 243.50 78.70Q244.50 78.70 244.50 78.70ZM200 80Q200 80 200 80Z"/></svg>