<svg xmlns="http://www.w3.org/2000/svg" xmlns:xlink="http://www.w3.org/1999/xlink" width="540" height="100"><path d="M26.50 48.20Q28.80 46.60 33.30 48L33.30 48Q34.60 48.40 35.05 50.55Q35.50 52.70 34.90 55.60L34.90 55.60Q34.10 59.10 34.85 60.50Q35.60 61.90 33.90 67.20Q32.20 72.50 32.30 73L32.30 73Q32.40 73.10 32.90 72.85Q33.40 72.60 34.20 71.95Q35 71.30 36 70.50L36 70.50Q39.50 67.40 39.90 68.40L39.90 68.40Q40.30 69.60 38.40 74.75Q36.50 79.90 34.70 82.60L34.70 82.60Q29.20 90.40 27 91.95Q24.80 93.50 22.80 91.20L22.80 91.20Q21.50 89.70 20.35 87.10Q19.20 84.50 19.20 83L19.20 83Q19.20 81.50 16.95 78.95Q14.70 76.40 13.40 76.40L13.40 76.40Q12.40 76.40 11.30 75.90L11.30 75.90Q10.70 75.60 10.80 74.60Q10.90 73.60 11.95 72.30Q13 71 14.60 69.80L14.60 69.80L21 65.20Q24.70 62.70 25.30 62.70L25.30 62.70Q26.10 62.70 27.05 61.15Q28 59.60 28.40 57.70L28.40 57.70Q28.80 55 28.20 54.45Q27.60 53.90 25 55.10L25 55.10Q22.20 56.40 20.20 55.60L20.20 55.60L18.20 54.70L21.50 52Q24.80 49.30 26.50 48.20L26.50 48.20ZM26 69Q26 67.60 25.45 67.55Q24.90 67.50 23.40 68.70L23.40 68.70L19.40 71.80L16.90 73.80L18.80 75.40Q22.40 78.20 23.70 76.10L23.70 76.10Q24.30 75.10 25.15 72.65Q26 70.20 26 69L26 69ZM64.40 20.40Q69.10 23 67.10 26.60L67.10 26.60L65.30 29.90Q64.40 31.70 64 38.30L64 38.30Q63.80 43.70 64.30 44.45Q64.80 45.20 68.20 43.80L68.20 43.80Q71.60 42.30 74.20 42.05Q76.80 41.80 79.90 42.40L79.90 42.40Q83.90 43.20 84.70 43.80L84.70 43.80Q86.30 44.70 84.75 49.10Q83.20 53.50 81 53.90L81 53.90Q80 54.30 77.65 56.15Q75.30 58 75.30 58.50L75.30 58.50Q75.30 59 77.40 59.50L77.40 59.50Q78.50 59.70 78.90 60.10Q79.30 60.50 79.30 61.50L79.30 61.50Q79.30 62.70 78.65 63.05Q78 63.40 75.40 63.70L75.40 63.70Q71.40 64.20 67.80 66.10L67.80 66.10Q65.70 67.40 64.95 68.20Q64.20 69 63.90 70.50L63.90 70.50Q63.40 72.80 63.80 88.70L63.80 88.70Q64 100.10 63.85 102.45Q63.70 104.80 62.80 105.50L62.80 105.50Q59.50 107.60 58.30 101.90L58.30 101.90Q57.50 98.60 58 87.50L58 87.50Q58.50 78 58.25 75.10Q58 72.20 56.90 72.20L56.90 72.20Q55.70 72.20 52.15 73.60Q48.60 75 47.60 75L47.60 75Q46.50 75 45.50 73Q44.50 71 44.80 69.90L44.80 69.90Q45.20 69.20 44.20 66.90Q43.20 64.60 42.50 64.60L42.50 64.60Q41.60 64.60 41.15 61.70Q40.70 58.80 41.20 56.40L41.20 56.40Q42.10 53 42.50 53L42.50 53Q43.20 53 45.35 55.70Q47.50 58.40 48 60.30L48 60.30Q49 63 51.50 64.20L51.50 64.20Q53.30 65.10 54 65.10Q54.70 65.10 56.40 64.30L56.40 64.30Q58.30 63.40 58.55 62.75Q58.80 62.10 58.70 59.20L58.70 59.20L58.50 55.40L55 55.70Q51.60 55.80 50 54.50L50 54.50L48.40 53.10L53.60 50.70Q58.80 48.30 58.90 47.80Q59 47.30 59.25 45.90Q59.50 44.50 59.85 36.95Q60.20 29.40 60.60 24.15Q61 18.90 61.30 18.90Q61.60 18.90 64.40 20.40L64.40 20.40ZM72.10 50.40Q73 48.80 72.95 48.55Q72.90 48.30 71.70 48.30L71.70 48.30Q70.10 48.30 66.50 49.90L66.50 49.90Q63.70 51.30 63.25 52.35Q62.80 53.40 63.60 56.80L63.60 56.80L64 58.90L67.40 55.70Q70.80 52.60 72.10 50.40L72.10 50.40ZM25.60 16.50Q26.40 14.40 26.90 14.40L26.90 14.40Q27.10 14.30 27.30 14.70L27.30 14.70Q28 15.80 28 17.50L28 17.50Q28 19.20 26.65 23.25Q25.30 27.30 23.90 29.60L23.90 29.60Q22.40 31.90 22.60 32.60L22.60 32.60Q22.70 32.70 23.35 32.50Q24 32.30 25.10 31.80Q26.20 31.30 27.30 30.50L27.30 30.50Q33.50 26.80 34.50 28.40L34.50 28.40Q34.90 29.10 36.45 29.10Q38 29.10 39.40 30L39.40 30Q40.30 30.70 40.25 30.95Q40.20 31.20 38.90 31.60L38.90 31.60Q33.20 33.90 31.60 33.90L31.60 33.90Q30.80 33.90 24.80 37.70L24.80 37.70Q15.10 44.10 10.40 51.20L10.40 51.20Q6.20 57.90 4.80 56.10L4.80 56.10Q4.70 55.90 4.60 55.70L4.60 55.70Q4.10 54.30 5.10 52.30Q6.10 50.30 9 46.80L9 46.80Q13.30 41.80 18.95 30.50Q24.60 19.20 25.60 16.50L25.60 16.50ZM136.10 15.90Q135.30 14.50 135.35 14.25Q135.40 14 136.30 14L136.30 14Q137.70 14 141.40 16.80L141.40 16.80Q143.70 18.70 144.45 19.80Q145.20 20.90 145.50 22.80L145.50 22.80Q146 25.90 145.60 27.75Q145.20 29.60 146.15 29.60Q147.10 29.60 148.30 30.90L148.30 30.90Q149.10 31.80 148.90 32.65Q148.70 33.50 147.40 36.90L147.40 36.90Q145.50 41.70 145.95 42.20Q146.40 42.70 154.70 41.60L154.70 41.60L162.90 40.30L165.90 41.80Q168.70 43.20 170.40 44.90Q172.10 46.60 171.80 47.90L171.80 47.90Q171.70 48.70 170.60 48.85Q169.50 49 165.20 48.90L165.20 48.90Q158.60 48.80 155.60 49.85Q152.60 50.90 151 50.90L151 50.90Q148.20 50.90 149.70 54L149.70 54Q150.20 55.50 149.50 68.55Q148.80 81.60 147.80 86.50L147.80 86.50Q146.70 91.60 146 96.40L146 96.40Q145.40 100.50 145 102.50Q144.60 104.50 143.90 105.50Q143.20 106.50 142.40 106.40Q141.60 106.30 140.20 105.40L140.20 105.40Q138.50 104.20 137.50 104.20L137.50 104.20Q136.10 104.20 136.80 103.10L136.80 103.10Q137.10 102.60 137.80 101.70L137.80 101.70Q138.60 100.70 138.90 99.15Q139.20 97.60 139.20 93.60L139.20 93.60Q139.20 89 140.10 77.15Q141 65.30 141.60 62.40L141.60 62.40Q142.10 60.40 141.40 60.40L141.40 60.40Q139.50 60.40 138.50 66.90L138.50 66.90Q137.10 75 132.60 82.10L132.60 82.10Q129.80 86.70 128.10 86.45Q126.40 86.20 124.40 81.20L124.40 81.20L122.60 77L124.40 73.50Q126.20 70.10 126.20 67.30L126.20 67.30Q126.20 65.30 125.90 64.95Q125.60 64.60 124.40 64.90L124.40 64.90Q122.60 65.40 121.30 66.70Q120 68 119 68Q118 68 115.60 70.15Q113.20 72.30 112.45 71.75Q111.70 71.20 113.15 70Q114.60 68.80 113.90 68.40L113.90 68.40Q113 67.80 111.70 69.10Q110.40 70.40 110.80 71.60L110.80 71.60Q111 72.30 110.70 72.50Q110.40 72.70 109.40 72.70L109.40 72.70Q107.80 72.70 106.90 74Q106 75.30 103.20 75.40L103.20 75.40Q98.20 75.50 98.05 72.50Q97.90 69.50 102.60 65.30L102.60 65.30Q106.50 61.80 109.40 60L109.40 60L114 57Q119.90 53 127.30 50.20L127.30 50.20Q131.60 48.60 133.30 46.35Q135 44.10 135 43.75Q135 43.40 136.75 40.65Q138.50 37.90 137.50 37.90Q136.50 37.90 136.10 38.60L136.10 38.60Q135.30 40 130.75 41.40Q126.20 42.80 123.10 42.70L123.10 42.70Q122.30 42.70 121.10 42.10Q119.90 41.50 119.10 40.75Q118.30 40 118.70 39.70L118.70 39.70Q118.90 39.50 123.40 38L123.40 38Q127.70 36.60 133.80 33.40Q139.90 30.20 139.90 29.35Q139.90 28.50 138.85 28.15Q137.80 27.80 136.30 28.10L136.30 28.10Q135.30 28.30 135.30 28.20L135.30 28.20Q135.20 28.10 136.70 26.60L136.70 26.60Q138.50 24.80 138.50 21.80Q138.50 18.80 137.80 18.40Q137.10 18 136.10 15.90L136.10 15.90ZM152.20 48.50Q151.80 48 150.05 48.30Q148.30 48.60 145.95 49.50Q143.60 50.40 142.90 51.10L142.90 51.10Q142.40 51.60 143.40 51.70L143.40 51.70Q146.40 51.90 149.50 50.30L149.50 50.30Q149.70 50.20 149.90 50.20L149.90 50.20Q152.20 48.70 152.20 48.50L152.20 48.50ZM138.50 55.70Q138.50 54.30 137.10 54.30Q135.70 54.30 135.70 55Q135.70 55.70 133.80 57.40Q131.90 59.10 130.10 60.10L130.10 60.10Q126.50 62 130.20 65.50L130.20 65.50Q131.50 66.80 132.05 67Q132.60 67.20 133.30 66.60L133.30 66.60Q134.40 65.70 136.45 61.40Q138.50 57.10 138.50 55.70L138.50 55.70ZM119.90 60.70Q123.70 57.10 122.70 57.10L122.70 57.10Q117.70 57.40 108.10 64.10L108.10 64.10Q102.60 68 102.40 70.70L102.40 70.70Q102.30 72.90 106.50 71.40L106.50 71.40Q108.60 70.60 111.15 68.55Q113.70 66.50 119.90 60.70L119.90 60.70ZM188.50 80.80Q188.50 79 189.10 79L189.10 79Q190.10 79 193.75 82.95Q197.40 86.90 198.10 88.70L198.10 88.70Q198.70 90.40 198.70 91Q198.70 91.60 198 92.50L198 92.50Q197 93.40 195.15 93.50Q193.30 93.60 192.55 92.85Q191.80 92.10 190.20 87.25Q188.60 82.40 188.50 80.80L188.50 80.80ZM234.70 65.10Q238.80 63.40 239.30 63.40L239.30 63.40Q240.30 63.20 239.50 65L239.50 65Q239.20 65.80 238.50 66.30L238.50 66.30Q237.10 67.60 237.10 68.45Q237.10 69.30 235.40 71.10L235.40 71.10Q231.90 74.50 235.90 75.10L235.90 75.10Q240.20 75.80 246.40 79.45Q252.60 83.10 253.20 85.40L253.20 85.40Q253.90 87.90 253.15 89.25Q252.40 90.60 249.80 92.10L249.80 92.10Q242.30 96.20 230.90 96.10L230.90 96.10Q221.90 96 219 94.95Q216.10 93.90 211 88.90L211 88.90Q204 81.90 205.30 81.80L205.30 81.80Q206.20 81.80 211.10 84.20L211.10 84.20Q220 88.50 229.60 87.60L229.60 87.60Q233.40 87.30 237 86.10Q240.60 84.90 240.60 83.90L240.60 83.90Q240.60 82 235.95 79.50Q231.30 77 230.10 78.20L230.10 78.20Q228.20 80.10 224.50 76.90L224.50 76.90Q222.20 74.90 221.55 74.90Q220.90 74.90 219.05 73.50Q217.20 72.10 217.20 69.50L217.20 69.50L217.20 66.90L223.90 66.90Q228.20 66.90 230.15 66.55Q232.10 66.20 234.70 65.10L234.70 65.10ZM246.90 55.90Q249.30 53.90 250.55 53.80Q251.80 53.70 255.90 55.20L255.90 55.20Q259.80 56.70 261.15 58.35Q262.50 60 261.70 62.40L261.70 62.40Q261 64.30 260 64.45Q259 64.60 255.75 63.35Q252.50 62.10 248.40 61.10L248.40 61.10Q244.70 60.30 244.35 59.20Q244 58.10 246.90 55.90L246.90 55.90ZM208.40 25.30Q209.20 24.10 210.20 24.25Q211.20 24.40 213.40 25.80L213.40 25.80L218.10 28.70Q220.30 30.10 220.60 32.30L220.60 32.30Q220.70 34.30 221.30 34.40Q221.90 34.50 223.90 33L223.90 33Q225.20 32 226.45 31.75Q227.70 31.50 231.10 31.50L231.10 31.50Q235.50 31.60 237.35 32.30Q239.20 33 239.20 34.40L239.20 34.40Q239.20 36 237.65 36.55Q236.10 37.10 230.80 37.80L230.80 37.80Q224 38.60 222.40 39.35Q220.80 40.10 220.10 43L220.10 43Q219.30 46.10 219.30 47.10L219.30 47.10Q219.30 47.80 222.40 49.50Q225.50 51.20 228.60 52.10L228.60 52.10Q229.80 52.40 230.25 52.95Q230.70 53.50 230.80 54.70L230.80 54.70Q230.90 56.20 230.50 56.85Q230.10 57.50 228.40 58.50L228.40 58.50Q224 61.30 216.60 64.35Q209.20 67.40 206.90 67.40L206.90 67.40Q204.60 67.40 203.05 65.70Q201.50 64 201.50 61.70L201.50 61.70Q201.50 60 202.90 58.55Q204.30 57.10 206.10 57.10L206.10 57.10Q208.60 57 210.90 53.85Q213.20 50.70 213.20 47.30L213.20 47.30Q213.20 44.80 212.30 44.80L212.30 44.80Q211.20 45 208.40 47.90L208.40 47.90Q204.60 51.90 202.15 53.15Q199.70 54.40 196.90 53.90L196.90 53.90Q193.70 53.50 191.95 52.60Q190.20 51.70 188.90 51.30L188.90 51.30Q188.10 51.10 188 50.85Q187.90 50.60 188.60 50.20L188.60 50.20Q189.50 49.60 191.40 49.60L191.40 49.60Q194 49.60 207.30 42L207.30 42L212.50 39L212.50 35.40Q212.50 33 212.10 31.90Q211.70 30.80 210 29L210 29Q208.50 27.40 208.20 26.65Q207.90 25.90 208.40 25.30L208.40 25.30ZM288.80 73.40Q289.20 72.70 289.95 72.70Q290.70 72.70 289.90 73.70L289.90 73.70Q288.80 75 288.50 74.20L288.50 74.20Q288.40 74 288.80 73.40L288.80 73.40ZM340.30 30.70Q341 29.70 347 31.30L347 31.30Q350.90 32.40 351.85 33.15Q352.80 33.90 352.80 35.80L352.80 35.80Q352.80 37.90 351.30 38.60Q349.80 39.30 347.80 38.30L347.80 38.30Q346.10 37.40 343 34.35Q339.90 31.30 340.30 30.70L340.30 30.70ZM328.70 15.70L328.30 12.30L330.50 12.80Q335.80 13.90 336.30 15.90L336.30 15.90Q336.60 17.30 338.55 17.30Q340.50 17.30 340.90 17.90Q341.30 18.50 344.20 19.80L344.20 19.80Q349.30 22.10 348.40 24.70L348.40 24.70Q348 25.90 347.15 25.95Q346.30 26 342.40 25.10L342.40 25.10Q341.30 24.70 340.35 25.10Q339.40 25.50 337.60 26.90L337.60 26.90Q334.80 29.20 329.45 32.60Q324.10 36 324.10 36.70L324.10 36.70Q324.10 38 325.50 39.30Q326.90 40.60 328.80 41L328.80 41Q335.10 42.10 335.10 45L335.10 45Q335.10 46 334.75 46.35Q334.40 46.70 333.40 46.70L333.40 46.70Q332.80 46.70 331.20 47.20Q329.60 47.70 327.80 48.55Q326 49.40 324.35 50.20Q322.70 51 321.70 51.65Q320.70 52.30 321 52.60L321 52.60Q321.30 52.90 324.30 51.50L324.30 51.50Q328.90 49.40 336.80 47.30Q344.70 45.20 346.30 45.70L346.30 45.70Q352.80 47.60 352.80 50L352.80 50Q352.80 52.10 351.60 53.10Q350.40 54.10 347.40 54.50L347.40 54.50Q344.80 54.90 341 56.50Q337.20 58.10 337.20 58.90L337.20 58.90Q337.20 59.40 340.85 60.60Q344.50 61.80 345.70 63.30L345.70 63.30Q346.50 64.50 346.40 64.85Q346.30 65.20 344.90 65.50L344.90 65.50Q342.50 65.90 339 66.95Q335.50 68 335.10 68.30L335.10 68.30Q334.80 68.70 334.50 71.90L334.50 71.90Q333.70 89.80 332.60 97.60Q331.50 105.40 329.50 107.10L329.50 107.10Q328 108.30 327.20 108.10Q326.40 107.90 325.70 106L325.70 106Q325.10 104.70 325.20 104Q325.30 103.30 326.30 102.30L326.30 102.30Q327.90 100.80 328.05 99.55Q328.20 98.30 328.95 93.90Q329.70 89.50 328.95 80.70Q328.20 71.90 327.90 71.20L327.90 71.20Q327.30 70.40 325.35 70.75Q323.40 71.10 320.70 72.50L320.70 72.50Q317.30 74.20 316.70 75Q316.10 75.80 313.90 82.70L313.90 82.70Q311.50 90.10 310 90.20L310 90.20Q308.80 90.20 307.40 85.60L307.40 85.60Q306.80 83.50 306.25 83.15Q305.70 82.80 303 82.70L303 82.70Q297.40 82.50 297.50 79.30L297.50 79.30Q297.50 78.40 302.60 76.10Q307.70 73.80 308.30 73L308.30 73Q308.80 72.50 309.20 69.80Q309.60 67.10 309.60 64.95Q309.60 62.80 309.10 62.30L309.10 62.30Q308.40 62.30 305.65 64.85Q302.90 67.40 292.80 77.50L292.80 77.50Q284.90 85.30 281.85 87.55Q278.80 89.80 277.40 88.60L277.40 88.60Q276.80 87.90 277.50 85.75Q278.20 83.60 279 83.60L279 83.60Q279.70 83.60 279.70 82.75Q279.70 81.90 283.10 78.50Q286.50 75.10 286.90 75.60L286.90 75.60Q287.40 76 283.10 80.50L283.10 80.50Q278.20 86 279.90 86.40L279.90 86.40Q280.60 86.40 281.75 85.45Q282.90 84.50 288.30 79.70L288.30 79.70Q290.30 78.10 293.05 75.05Q295.80 72 297.70 69.60Q299.60 67.20 299.05 67.20Q298.50 67.20 295.20 69.60L295.20 69.60Q292.10 71.90 292 71.50L292 71.50Q291.90 71 296.60 67.40L296.60 67.40Q301.30 63.80 302.40 62.50L302.40 62.50Q303.60 61.30 303.10 60.95Q302.60 60.60 297.80 59.70L297.80 59.70Q293.90 58.80 292.10 57.30L292.10 57.30L290.30 55.70L293 55Q295.70 54.20 296.20 54.20Q296.70 54.20 303.90 51.40L303.90 51.40Q310.30 48.90 312.75 47.10Q315.20 45.30 315.20 43.30L315.20 43.30Q315.20 41.30 318.20 37.60L318.20 37.60Q320.80 34.40 323.10 30.70Q325.40 27 325.40 26.10L325.40 26.10Q325.20 25.30 323.50 25.55Q321.80 25.80 319.35 26.90Q316.90 28 316 29.10L316 29.10Q315.10 30.10 315.85 32.70Q316.60 35.30 315.60 36.40L315.60 36.40Q314.80 37 314.30 37Q313.80 37 312.50 36.20L312.50 36.20Q310.50 35.10 309.65 35.10Q308.80 35.10 307.50 36.10L307.50 36.10Q306.40 37.30 303.10 37.40L303.10 37.40Q301.10 37.40 300.20 37Q299.30 36.60 297.70 34.70L297.70 34.70Q294.70 31.30 295.30 29.10L295.30 29.10Q295.70 28.10 296.90 28.40L296.90 28.40Q298.40 28.80 301.10 27.60L301.10 27.60Q303 26.70 303.30 26.20Q303.60 25.70 303.30 23.40L303.30 23.40Q302.80 20.30 301.70 17.40Q300.60 14.50 301.10 14L301.10 14Q302.30 12.70 307 19.80L307 19.80Q310.60 25.10 310.90 25.45Q311.20 25.80 319.20 23.15Q327.20 20.50 328.10 19.80L328.10 19.80Q329 19 328.70 15.70L328.70 15.70ZM337.50 54.20Q338.40 52.90 337.80 52.90L337.80 52.90Q334.40 53.10 334.40 54.60L334.40 54.60Q334.40 56 336 55.30L336 55.30Q336.70 55 337.50 54.20L337.50 54.20ZM328.90 58Q328.90 55.70 327.60 55.55Q326.30 55.40 321.40 57.20L321.40 57.20Q320.70 57.40 319.60 57.90L319.60 57.90Q314.40 59.70 313.70 60.45Q313 61.20 313.90 63.60L313.90 63.60Q314.10 64.20 314.20 64.40L314.20 64.40Q315.20 67.30 314.85 67.95Q314.50 68.60 315.25 68.60Q316 68.60 317.20 66.50L317.20 66.50Q319.40 62.30 320.20 62.50L320.20 62.50Q320.30 62.50 320.40 62.60L320.40 62.60Q320.80 63 320.30 64L320.30 64Q319.60 65.10 319.60 66.15Q319.60 67.20 320.30 67.20L320.30 67.20Q321.20 67.20 323.80 64.90L323.80 64.90L327.70 61.40Q328.90 60.40 328.90 58L328.90 58ZM417.90 30.70Q419.70 28.60 423.65 29.45Q427.60 30.30 429.50 33.20L429.50 33.20Q430.60 34.90 430.40 38.50L430.40 38.50Q430.20 40.80 429.70 41.85Q429.20 42.90 427.80 44.20L427.80 44.20Q426 45.80 422.15 47.90Q418.30 50 417.60 49.80L417.60 49.80Q417.10 49.50 418.80 45.80Q420.50 42.10 420.70 39.95Q420.90 37.80 421.20 35.60L421.20 35.60Q421.40 34 420.55 32.95Q419.70 31.90 418.40 32L418.40 32Q417.30 32.30 417.20 31.95Q417.10 31.60 417.90 30.70L417.90 30.70ZM393.60 21.80Q393.60 20.10 393.90 19.85Q394.20 19.60 395.80 20.40L395.80 20.40Q400.70 23 400.45 27.30Q400.20 31.60 394.60 38.50L394.60 38.50Q391.40 42.50 391.70 43.25Q392 44 394.40 44.40L394.40 44.40Q396.50 44.70 398.45 45.85Q400.40 47 400.80 48.10L400.80 48.10Q401.40 49.60 397.90 56Q394.40 62.40 391.20 65.60L391.20 65.60Q389.90 67 390.35 67.70Q390.80 68.40 393.10 69.10L393.10 69.10Q396 69.80 396.50 70.10L396.50 70.10Q396.60 70.20 397.45 68.85Q398.30 67.50 399.65 65Q401 62.50 402.30 59.60L402.30 59.60Q407.10 50.20 408.70 47.30Q410.30 44.40 410.80 44.40L410.80 44.40Q411.50 44.40 410.20 46.70L410.20 46.70Q409.40 47.90 406.95 54.40Q404.50 60.90 404.50 61.70L404.50 61.70Q404.50 62.10 409.05 61.80Q413.60 61.50 414.20 60.50Q414.80 59.50 418.30 58.70L418.30 58.70Q421.30 58 425.05 58.60Q428.80 59.20 430.10 60.70L430.10 60.70Q431.10 61.80 432.60 67.90L432.60 67.90Q433.60 72.20 433.70 73.90Q433.80 75.60 433.30 79L433.30 79Q432.40 83.70 430.80 86.20Q429.20 88.70 428.80 90.60L428.80 90.60Q428.20 92.50 425 95.75Q421.80 99 419.80 99.30L419.80 99.30Q417.90 99.70 415.70 100.40L415.70 100.40Q413.60 101 413.20 100.40Q412.80 99.80 414.60 98.60L414.60 98.60Q417.60 96.60 419.90 93.75Q422.20 90.90 422.90 88.40L422.90 88.40Q424.50 82.40 424.50 75.10Q424.50 67.80 422.90 65.90L422.90 65.90Q422.50 65.30 421.95 65.30Q421.40 65.30 420.40 66L420.40 66Q418.60 67.10 416.10 69.80L416.10 69.80Q414.50 71.60 413.75 72Q413 72.40 411.70 72.10L411.70 72.10Q409.50 71.60 408.55 69.25Q407.60 66.90 407.15 66.90Q406.70 66.90 406.40 65.50L406.40 65.50Q405.60 62.40 403.50 66.90L403.50 66.90Q402.30 69.50 401.20 74L401.20 74Q400.40 77.20 398.25 81.50Q396.10 85.80 395.30 88.55Q394.50 91.30 393 91.50L393 91.50Q391.90 91.60 390.70 90.15Q389.50 88.70 389.50 87L389.50 87Q389.50 85.50 388.90 85.10L388.90 85.10Q388 84.60 388 82.80Q388 81 388.90 80.20L388.90 80.20Q390.10 79.10 390.10 76.30L390.10 76.30Q390.10 74.50 389.90 74.15Q389.70 73.80 388.70 74L388.70 74Q387 74.50 386.20 74.50Q385.40 74.50 383.80 76L383.80 76Q382.40 77.40 380.40 78.35Q378.40 79.30 377.70 78.90L377.70 78.90Q376.60 78.20 377.40 75Q378.20 71.80 379.70 71.30L379.70 71.30Q380.70 70.80 381.65 69.75Q382.60 68.70 385 65.30L385 65.30Q395.70 49.20 391.90 49.20L391.90 49.20Q390.30 49.20 386.45 50.85Q382.60 52.50 381.40 53.80L381.40 53.80Q380.40 54.90 379.85 55.10Q379.30 55.30 378.20 54.70L378.20 54.70Q376.50 53.90 376.30 53.10L376.30 53.10Q376 48.70 378.80 45.70L378.80 45.70Q381.10 43.30 385.30 37.35Q389.50 31.40 391.40 27.90L391.40 27.90Q393.60 24 393.60 21.80L393.60 21.80ZM504.80 36.10Q506.10 35.10 506.90 35.10Q507.70 35.10 509.50 36.10L509.50 36.10Q511.20 37 512.90 37L512.90 37Q515 37.10 517.20 38.80Q519.40 40.50 520.20 42.80L520.20 42.80Q521.10 45.40 520.70 46Q520.30 46.60 517.70 46.60Q515.10 46.60 511.40 43.85Q507.70 41.10 505.40 40.30L505.40 40.30Q503.50 39.60 503.30 38.40Q503.10 37.20 504.80 36.10L504.80 36.10ZM483.90 30Q483.50 28.90 484.20 28.90L484.20 28.90Q485 28.90 487.70 30.70L487.70 30.70Q491.20 32.70 492 34.70Q492.80 36.70 492.40 42L492.40 42Q492.10 48 492.75 48Q493.40 48 495.70 47.30L495.70 47.30Q497.90 46.80 500.80 47.85Q503.70 48.90 504.30 50.70L504.30 50.70Q504.60 51.80 503.45 54.40Q502.30 57 500.40 59.40L500.40 59.40Q498.20 61.90 495.75 66.35Q493.30 70.80 492.30 73.50L492.30 73.50Q491.10 77.10 489.65 77.80Q488.20 78.50 487.80 79.40L487.80 79.40Q487.20 81.10 496.10 78.80L496.10 78.80Q498.50 78.10 501.10 77.30L501.10 77.30Q501.60 77.10 502.50 76.90L502.50 76.90Q506.40 75.60 506.80 74.80Q507.20 74 505.90 70.40L505.90 70.40Q505.70 69.50 505.40 69.10L505.40 69.10Q504.40 65.80 504.80 65.50L504.80 65.50Q505.10 65.20 507.80 67.65Q510.50 70.10 513.15 73.20Q515.80 76.30 516.10 77.30L516.10 77.30Q516.90 79.60 516.10 80.90Q515.30 82.20 512 83.90L512 83.90Q509.80 85 507.30 85.60Q504.80 86.20 499.20 86.80L499.20 86.80Q490 87.80 487.20 88.85Q484.40 89.90 479.60 90.90L479.60 90.90Q475 91.90 473.70 91.25Q472.40 90.60 472.60 87.10L472.60 87.10Q472.60 84.90 473 84.15Q473.40 83.40 475.30 82.20L475.30 82.20Q477.60 80.80 480.55 77.40Q483.50 74 483.20 73.10L483.20 73.10Q482.90 72.30 480.30 71.80L480.30 71.80Q474.20 70.60 472 68.85Q469.80 67.10 469.30 63.10L469.30 63.10Q469.10 60.80 469.40 60.20Q469.70 59.60 472 58.60L472 58.60L480.50 54.20L486.10 51.40L486.10 42.20Q486.10 33.10 485.25 32.15Q484.40 31.20 483.90 30L483.90 30ZM495.10 57.20Q497.30 54 496.60 53.40L496.60 53.40Q495.80 52.70 494.35 53.65Q492.90 54.60 492.60 56.10L492.60 56.10Q492.20 57.90 491.90 59.20L491.90 59.20Q491.50 60.40 492.10 60.30L492.10 60.30Q493 60.10 495.10 57.20L495.10 57.20ZM484.60 63.90Q484.90 61 484.30 61L484.30 61Q483.70 61.10 480.30 63.55Q476.90 66 476.75 66.50Q476.60 67 477.50 67.20L477.50 67.20Q478.90 67.60 481.80 67.20L481.80 67.20Q483.70 67 484.10 66.55Q484.50 66.10 484.60 63.90L484.60 63.90Z"/></svg>