<svg xmlns="http://www.w3.org/2000/svg" xmlns:xlink="http://www.w3.org/1999/xlink" width="500" height="99.7"><path d="M90.60 50.10L90.60 85.90Q90.60 89.60 88 92.25Q85.40 94.90 81.60 94.90L81.60 94.90L46 94.90L46 52.10L61.50 52.10L61.50 17.30L69.40 17.30L69.40 31.50L92.90 31.50L92.90 39.30L69.40 39.30L69.40 52.10L82.80 52.10L82.80 50.10L90.60 50.10ZM53.80 60L53.80 87L81.60 87Q82.80 87 82.80 85.90L82.80 85.90L82.80 60L53.80 60ZM42.90 27L42.90 34.90L6.20 34.90L6.20 27L20.70 27L17.90 19.50L25.30 16.80L29 27L42.90 27ZM6.90 94L5.60 86.30L20.90 83.50Q22.60 78.70 24.10 73.60Q25.60 68.50 26.85 63.55Q28.10 58.60 29.10 54.20Q30.10 49.80 30.80 46.45Q31.50 43.10 31.90 41.15Q32.30 39.20 32.30 39.10L32.30 39.10L40 40.40Q39.90 40.80 39.15 44.70Q38.40 48.60 37.10 54.50Q35.80 60.40 33.95 67.65Q32.10 74.90 29.80 81.90L29.80 81.90L41.50 79.80L42.90 87.60L26.70 90.50L6.90 94ZM15.60 39L21.20 70.30L13.50 71.60L7.90 40.40L15.60 39ZM184 61.20L184 59.40L191.80 59.40L191.80 85Q191.80 88.80 189.20 91.40Q186.60 94 182.80 94L182.80 94L154.70 94L154.70 61.20L184 61.20ZM184 85L184 69.10L162.50 69.10L162.50 86.20L182.80 86.20Q183.30 86.20 183.65 85.85Q184 85.50 184 85L184 85ZM194.30 47.60L194.30 55.40L152.20 55.40L152.20 47.60L170 47.60L170 33.90L161.30 33.90Q160.50 36.20 159.50 38.65Q158.50 41.10 157.40 43.40L157.40 43.40L150.30 39.90Q152.10 36.30 153.45 32.40Q154.80 28.50 155.65 25.35Q156.50 22.20 156.95 20.10Q157.40 18 157.40 18L157.40 18L165.10 19.30Q165.10 19.50 164.75 21.35Q164.40 23.20 163.60 26.10L163.60 26.10L170 26.10L170 17.10L177.90 17.10L177.90 26.10L190.90 26.10L190.90 33.90L177.90 33.90L177.90 47.60L194.30 47.60ZM151 26L138 26L138 35.40L142.40 35.40L142.40 33.50L150.20 33.50L150.20 85.30Q150.20 89.10 147.60 91.70Q145 94.30 141.20 94.30L141.20 94.30L106.90 94.30L106.90 35.40L119 35.40L119 26L106.10 26L106.10 18.10L151 18.10L151 26ZM126.90 26L126.90 35.40L130.10 35.40L130.10 26L126.90 26ZM114.70 43.30L114.70 58.60Q116.30 56.60 117.65 53.60Q119 50.60 119 47.10L119 47.10L119 43.30L114.70 43.30ZM142.40 85.30L142.40 80.80L114.70 80.80L114.70 86.40L141.20 86.40Q141.70 86.40 142.05 86.10Q142.40 85.80 142.40 85.30L142.40 85.30ZM142.40 72.90L142.40 66.90L130.10 66.90L130.10 43.30L126.90 43.30L126.90 47.10Q126.90 51.60 125.40 55.35Q123.90 59.10 122.05 61.85Q120.20 64.60 118.60 66.25Q117 67.90 116.90 68L116.90 68L114.70 65.50L114.70 72.90L142.40 72.90ZM142.40 43.30L138 43.30L138 59.10L142.40 59.10L142.40 43.30ZM248.30 16.60L255.70 26.90L292 26.90L292 34.80L282.70 34.80L282.70 42.40L281.90 43.50Q276.30 50.40 270.20 56.25Q264.10 62.10 257.80 67L257.80 67L291.20 87.30L287.10 94L250.90 72Q246.60 75 242.60 77.50Q238.60 80 235.10 82L235.10 82Q229.70 85 225 87.25Q220.30 89.50 216.85 91Q213.40 92.50 211.40 93.25Q209.40 94 209.20 94L209.20 94L207.90 90.30L206.70 86.60Q206.80 86.60 209.85 85.40Q212.90 84.20 218 81.85Q223.10 79.50 229.75 75.90Q236.40 72.30 243.60 67.50L243.60 67.50L217.10 51.40L221.20 44.70L250.60 62.60Q256.90 57.80 263.10 52.10Q269.30 46.40 274.80 39.70L274.80 39.70L274.80 34.80L207.90 34.80L207.90 26.90L246.10 26.90L241.90 21.20L248.30 16.60ZM324.30 36.60L324.30 31.60L305.30 31.60L305.30 23.70L324.30 23.70L324.30 17.60L332.10 17.60L332.10 23.70L346.50 23.70L346.50 31.60L332.10 31.60L332.10 36.60L324.30 36.60ZM394.60 23.70L394.60 31.60L375.70 31.60L375.70 36.60L367.80 36.60L367.80 31.60L353.50 31.60L353.50 23.70L367.80 23.70L367.80 17.60L375.70 17.60L375.70 23.70L394.60 23.70ZM311.70 83.60L314.30 82.70Q314.40 82.70 317.25 81.65Q320.10 80.60 324.85 78.60Q329.60 76.60 335.80 73.75Q342 70.90 348.90 67.20Q355.80 63.50 362.95 59.05Q370.10 54.60 376.60 49.50L376.60 49.50L314.30 49.50L314.30 41.60L377.90 41.60L377.90 39.70L385.80 39.70L385.80 52.20L384.30 53.30Q376.90 59.50 368.75 64.70Q360.60 69.90 352.75 74.10Q344.90 78.30 337.90 81.45Q330.90 84.60 325.90 86.70L325.90 86.70L381.70 86.70Q382.90 86.70 382.90 85.50L382.90 85.50L382.90 76L390.70 76L390.70 85.50Q390.70 89.30 388.10 91.90Q385.50 94.50 381.70 94.50L381.70 94.50L311.70 94.50L311.70 83.60ZM464.70 37.30L464.70 75.70L475.50 75.70L475.50 83.50L464.70 83.50L464.70 94.10L456.80 94.10L456.80 83.50L445.90 83.50L445.90 75.70L456.80 75.70L456.80 37.30L452.70 37.30L453.20 37.40Q450.90 48.10 447.65 57.90Q444.40 67.70 441.40 75.35Q438.40 83 436.20 87.70Q434 92.40 433.80 92.80L433.80 92.80L426.80 89.30Q426.80 89.20 427.75 87.20Q428.70 85.20 430.25 81.65Q431.80 78.10 433.75 73.25Q435.70 68.40 437.75 62.65Q439.80 56.90 441.70 50.45Q443.60 44 445.10 37.30L445.10 37.30L429.90 37.30L429.90 29.40L456.80 29.40L456.80 17.40L464.70 17.40L464.70 29.40L491.50 29.40L491.50 37.30L464.70 37.30ZM476.30 38.80L493.60 89.80L486.20 92.30L468.90 41.40L476.30 38.80ZM425.90 16.50L432.50 20.70Q432.30 20.90 430.30 23.85Q428.30 26.80 424.60 31.10L424.60 31.10L424.80 31.10L424.80 94.30L416.90 94.30L416.90 39.30Q413.80 42.20 410.40 44.90L410.40 44.90L405.50 38.70Q410.10 35.20 413.85 31.30Q417.60 27.40 420.25 24.10Q422.90 20.80 424.40 18.65Q425.90 16.50 425.90 16.50L425.90 16.50Z"/></svg>