<svg xmlns="http://www.w3.org/2000/svg" xmlns:xlink="http://www.w3.org/1999/xlink" width="810" height="114.7"><path d="M43.90 23Q43.80 21.30 45.10 20Q46.40 18.70 48.30 18.70L48.30 18.70Q50 18.70 51.35 19.90Q52.70 21.10 52.80 22.80L52.80 22.80Q52.80 27.60 52.75 31.85Q52.70 36.10 52.60 40L52.60 40L80.40 40Q82.30 40 83.60 41.30Q84.90 42.60 84.90 44.50L84.90 44.50Q84.90 46.40 83.60 47.70Q82.30 49 80.40 49L80.40 49L66.10 49L66.10 95.30Q66.10 98.80 66.70 100Q67.30 101.20 68.60 101.20L68.60 101.20L73.40 101.20Q74.70 101.20 75.30 100Q75.90 98.80 75.90 95.30L75.90 95.30L75.90 86.70Q75.90 84.80 77.20 83.50Q78.50 82.20 80.40 82.20L80.40 82.20Q82.30 82.20 83.60 83.50Q84.90 84.80 84.90 86.70L84.90 86.70L84.90 95.30Q84.90 98.80 83.95 101.55Q83 104.30 81.45 106.25Q79.90 108.20 77.80 109.20Q75.70 110.20 73.40 110.20L73.40 110.20L68.60 110.20Q66.30 110.20 64.20 109.20Q62.10 108.20 60.55 106.25Q59 104.30 58.05 101.55Q57.10 98.80 57.10 95.30L57.10 95.30L57.10 49L52.20 49Q51.60 60.60 50.35 69.15Q49.10 77.70 47.10 84.55Q45.10 91.40 42.25 97.15Q39.40 102.90 35.70 108.70L35.70 108.70Q35.20 109.50 34.45 110Q33.70 110.50 32.70 110.60L32.70 110.60Q31.80 110.80 30.85 110.50Q29.90 110.20 29.05 109.65Q28.20 109.10 27.60 108.35Q27 107.60 26.90 106.70L26.90 106.70Q26.60 105.30 27.50 103.90L27.50 103.90Q31 98.40 33.70 93.20Q36.40 88 38.35 81.80Q40.30 75.60 41.50 67.70Q42.70 59.80 43.30 49L43.30 49L32.80 49Q30.90 49 29.60 47.70Q28.30 46.40 28.30 44.50L28.30 44.50Q28.30 42.60 29.60 41.30Q30.90 40 32.80 40L32.80 40L43.70 40Q43.80 36.20 43.85 31.95Q43.90 27.70 43.90 23L43.90 23ZM9.60 67Q8.20 68.50 6.10 68.50L6.10 68.50Q4.20 68.40 2.95 67.05Q1.70 65.70 1.80 63.80L1.80 63.80Q2 62 3.10 60.90L3.10 60.90Q9.30 54.10 13.70 44.85Q18.10 35.60 20.30 22.60L20.30 22.60Q20.60 20.90 21.95 19.80Q23.30 18.70 25 18.80L25 18.80Q27 18.90 28.30 20.45Q29.60 22 29.20 24L29.20 24Q28.30 29.40 27 34.20Q25.70 39 24 43.40L24 43.40Q24.20 44.20 24.20 44.50L24.20 44.50L24.20 106.80Q24.20 108.70 22.90 110Q21.60 111.30 19.70 111.30L19.70 111.30Q17.80 111.30 16.50 110Q15.20 108.70 15.20 106.80L15.20 106.80L15.20 60.20Q13.80 62 12.45 63.70Q11.10 65.40 9.60 67L9.60 67ZM69.30 21.10L75.90 29.30Q76.90 30.60 76.90 32.10L76.90 32.10Q76.90 34 75.60 35.30Q74.30 36.60 72.40 36.60L72.40 36.60Q70.30 36.60 68.90 34.90L68.90 34.90L62.30 26.70Q61.30 25.40 61.30 23.90L61.30 23.90Q61.30 22 62.60 20.70Q63.90 19.40 65.80 19.40L65.80 19.40Q67.90 19.40 69.30 21.10L69.30 21.10ZM124.80 109.70Q124 109.90 123.50 109.90L123.50 109.90Q121.60 110 120.25 108.75Q118.90 107.50 118.80 105.60L118.80 105.60Q118.70 104.10 119.55 102.90Q120.40 101.70 121.80 101.20L121.80 101.20Q126.20 99.70 130.50 97.55Q134.80 95.40 138.90 92.70L138.90 92.70Q135.40 89.80 132.55 86.55Q129.70 83.30 127.60 79.80L127.60 79.80Q127 78.80 127 77.50L127 77.50Q127 75.60 128.30 74.30Q129.60 73 131.50 73L131.50 73Q132.70 73 133.75 73.60Q134.80 74.20 135.40 75.20L135.40 75.20Q137.30 78.40 140.05 81.40Q142.80 84.40 146.20 87.10L146.20 87.10Q150.40 83.40 153.50 79.20Q156.60 75 158.10 70.50L158.10 70.50L128.40 70.50Q126.50 70.50 125.20 69.20Q123.90 67.90 123.90 66L123.90 66Q123.90 64.10 125.20 62.80Q126.50 61.50 128.40 61.50L128.40 61.50L163.70 61.50Q165.70 61.50 167 63L167 63L167.40 63.40Q167.40 63.50 167.60 63.70L167.60 63.70Q168.40 65.20 168.30 66.60L168.30 66.60Q167.50 73.80 163.50 80.30Q159.50 86.80 153.60 92.30L153.60 92.30Q158.60 95.40 163.80 97.80Q169 100.20 173.90 101.60L173.90 101.60Q175.30 102 176.20 103.20Q177.10 104.40 177.10 105.90L177.10 105.90Q177.10 107.80 175.80 109.10Q174.50 110.40 172.60 110.40L172.60 110.40Q172.10 110.40 171.30 110.20L171.30 110.20Q165.40 108.50 158.95 105.45Q152.50 102.40 146.40 98.30L146.40 98.30Q141.30 102.10 135.75 104.95Q130.20 107.80 124.80 109.70L124.80 109.70ZM166 48.50L172.20 48.50Q174.10 48.50 175.40 49.80Q176.70 51.10 176.70 53L176.70 53Q176.70 54.90 175.40 56.20Q174.10 57.50 172.20 57.50L172.20 57.50L165.60 57.50Q162.40 57.50 160.35 56.80Q158.30 56.10 157.10 54.55Q155.90 53 155.40 50.60Q154.90 48.20 154.90 44.80L154.90 44.80L154.90 31L137.90 31Q137.60 37.50 136.55 41.90Q135.50 46.30 133.95 49.30Q132.40 52.30 130.50 54.25Q128.60 56.20 126.50 57.80L126.50 57.80Q125.40 58.70 123.80 58.70L123.80 58.70Q121.90 58.70 120.60 57.40Q119.30 56.10 119.30 54.20L119.30 54.20Q119.30 51.90 121.10 50.60L121.10 50.60Q123 49.20 124.45 47.60Q125.90 46 126.90 43.45Q127.90 40.90 128.45 36.85Q129 32.80 129 26.40L129 26.40Q129 24.50 130.30 23.20Q131.60 21.90 133.50 21.90L133.50 21.90Q133.70 21.90 133.95 21.95Q134.20 22 134.40 22L134.40 22L159.30 22Q161.30 22 162.50 23.40L162.50 23.40Q163.90 24.60 163.90 26.60L163.90 26.60L163.90 44.60Q163.90 47.40 164.30 47.95Q164.70 48.50 166 48.50L166 48.50ZM121.80 93.80L110.40 103Q109.40 103.50 108.30 103.50L108.30 103.50Q106.20 103.50 104.90 101.90L104.90 101.90Q103.50 100.70 103.50 98.60L103.50 98.60L103.50 55.60L98.50 55.60Q96.60 55.60 95.30 54.30Q94 53 94 51.10L94 51.10Q94 49.20 95.30 47.90Q96.60 46.60 98.50 46.60L98.50 46.60L107.90 46.60Q109.30 46.60 110.40 47.35Q111.50 48.10 112 49.20L112 49.20Q112.50 50.40 112.50 51.30L112.50 51.30L112.50 90L116 87.10Q116.40 86.80 116.85 86.55Q117.30 86.30 117.90 86.10L117.90 86.10Q119.70 85.70 121.20 86.60Q122.70 87.50 123.20 89.40L123.20 89.40Q123.50 90.60 123.10 91.80Q122.70 93 121.80 93.80L121.80 93.80ZM107 22.10L113.90 35.30Q114.60 36.30 114.40 37.50L114.40 37.50Q114.30 39.40 113 40.65Q111.70 41.90 109.80 41.80L109.80 41.80Q108.50 41.80 107.50 41.15Q106.50 40.50 106 39.40L106 39.40L99.10 26.20Q98.40 25.20 98.60 24L98.60 24Q98.70 22.10 100 20.85Q101.30 19.60 103.20 19.70L103.20 19.70Q104.50 19.70 105.50 20.35Q106.50 21 107 22.10L107 22.10ZM253.30 69.50L253.60 69.50Q255.20 69.60 256.35 70.75Q257.50 71.90 257.50 73.50L257.50 73.50L257.50 84.40Q257.50 87.50 256.40 90.10Q255.30 92.70 253.40 94.65Q251.50 96.60 248.85 97.70Q246.20 98.80 243.10 98.80L243.10 98.80L206.90 98.80Q203.80 98.80 201.15 97.70Q198.50 96.60 196.60 94.65Q194.70 92.70 193.60 90.10Q192.50 87.50 192.50 84.40L192.50 84.40L192.50 80.50Q191.90 80.80 191.30 81.10Q190.70 81.40 190.10 81.60L190.10 81.60Q189.40 82 188.50 82L188.50 82Q186.80 82 185.65 80.85Q184.50 79.70 184.50 78L184.50 78Q184.50 76.80 185.15 75.85Q185.80 74.90 186.90 74.40L186.90 74.40Q193 71.60 196.60 67.80Q200.20 64 202.10 58.60L202.10 58.60Q202.60 57.40 203.60 56.65Q204.60 55.90 205.90 55.90L205.90 55.90Q207.10 55.90 208.10 56.60Q209.10 57.30 209.60 58.40L209.60 58.40L243.40 58.40Q245.30 58.40 246.60 59.10Q247.90 59.80 248.50 60.85Q249.10 61.90 249.10 63.20Q249.10 64.50 248.50 65.70L248.50 65.70L246.30 69.50L253.30 69.50ZM228 37.80L228 22.50Q228 20.60 229.30 19.30Q230.60 18 232.50 18L232.50 18Q234.40 18 235.70 19.30Q237 20.60 237 22.50L237 22.50L237 23.90L253.90 23.90Q256.60 23.90 258.30 25.55Q260 27.20 260 30L260 30Q260 34 258.90 38.40Q257.80 42.80 255.10 46.45Q252.40 50.10 247.80 52.50Q243.20 54.90 236.20 54.90L236.20 54.90L218.10 54.90Q216.20 54.90 214.90 53.60Q213.60 52.30 213.60 50.40L213.60 50.40Q213.60 48.50 214.90 47.20Q216.20 45.90 218.10 45.90L218.10 45.90L236.20 45.90Q240.20 45.90 242.90 44.90Q245.60 43.90 247.30 42.15Q249 40.40 249.80 38.05Q250.60 35.70 250.80 32.90L250.80 32.90L237 32.90L237 37.80Q237 39.70 235.70 41Q234.40 42.30 232.50 42.30L232.50 42.30Q230.60 42.30 229.30 41Q228 39.70 228 37.80L228 37.80ZM189.50 102L260.50 102Q262.20 102 263.35 103.15Q264.50 104.30 264.50 106L264.50 106Q264.50 107.70 263.35 108.85Q262.20 110 260.50 110L260.50 110L189.50 110Q187.80 110 186.65 108.85Q185.50 107.70 185.50 106L185.50 106Q185.50 104.30 186.65 103.15Q187.80 102 189.50 102L189.50 102ZM228.90 80.60L241.50 80.60Q242.80 80.60 243.65 81.45Q244.50 82.30 244.50 83.60L244.50 83.60Q244.50 84.90 243.65 85.75Q242.80 86.60 241.50 86.60L241.50 86.60L228.90 86.60L228.90 90.80L243.10 90.80Q249.50 90.80 249.50 84.40L249.50 84.40L249.50 76.50L228.90 76.50L228.90 80.60ZM200.50 76.50L200.50 84.40Q200.50 90.80 206.90 90.80L206.90 90.80L220.90 90.80L220.90 86.60L208.50 86.60Q207.20 86.60 206.35 85.75Q205.50 84.90 205.50 83.60L205.50 83.60Q205.50 82.30 206.35 81.45Q207.20 80.60 208.50 80.60L208.50 80.60L220.90 80.60L220.90 76.50L200.50 76.50ZM203.70 31.20L191.40 31.20Q189.70 31.20 188.45 29.95Q187.20 28.70 187.20 27L187.20 27Q187.20 25.30 188.45 24Q189.70 22.70 191.40 22.70L191.40 22.70L203.70 22.70Q205.40 22.70 206.70 24Q208 25.30 208 27L208 27Q208 28.70 206.70 29.95Q205.40 31.20 203.70 31.20L203.70 31.20ZM203.70 54.60L191.40 54.60Q189.70 54.60 188.45 53.35Q187.20 52.10 187.20 50.40L187.20 50.40Q187.20 48.70 188.45 47.40Q189.70 46.10 191.40 46.10L191.40 46.10L203.70 46.10Q205.40 46.10 206.70 47.40Q208 48.70 208 50.40L208 50.40Q208 52.10 206.70 53.35Q205.40 54.60 203.70 54.60L203.70 54.60ZM203.70 42.90L191.40 42.90Q189.70 42.90 188.45 41.65Q187.20 40.40 187.20 38.70L187.20 38.70Q187.20 37 188.45 35.70Q189.70 34.40 191.40 34.40L191.40 34.40L203.70 34.40Q205.40 34.40 206.70 35.70Q208 37 208 38.70L208 38.70Q208 40.40 206.70 41.65Q205.40 42.90 203.70 42.90L203.70 42.90ZM213.60 37.80L213.60 27Q213.60 25.10 214.90 23.80Q216.20 22.50 218.10 22.50L218.10 22.50Q220 22.50 221.30 23.80Q222.60 25.10 222.60 27L222.60 27L222.60 37.80Q222.60 39.70 221.30 41Q220 42.30 218.10 42.30L218.10 42.30Q216.20 42.30 214.90 41Q213.60 39.70 213.60 37.80L213.60 37.80ZM238.80 66.40L207.30 66.40Q206.30 68.10 205.40 69.50L205.40 69.50L237 69.50L238.80 66.40ZM338.10 46L345.30 46Q347.20 46 348.60 47.40L348.60 47.40Q350 48.80 350 50.70L350 50.70L350 79.70Q350 82.90 348.90 85.65Q347.80 88.40 345.80 90.40Q343.80 92.40 341.05 93.50Q338.30 94.60 335.10 94.60L335.10 94.60L316.20 94.60L316 94.60L296.90 94.60Q293.70 94.60 290.95 93.50Q288.20 92.40 286.20 90.40Q284.20 88.40 283.10 85.65Q282 82.90 282 79.70L282 79.70L282 51.80Q281 52.30 279.90 52.30L279.90 52.30Q278 52.30 276.70 51Q275.40 49.70 275.40 47.80L275.40 47.80Q275.40 45.10 277.70 43.90L277.70 43.90Q284.40 40.10 287.80 35.10Q291.20 30.10 291.60 22.30L291.60 22.30Q291.70 20.50 293 19.25Q294.30 18 296.10 18L296.10 18Q298.10 18 299.40 19.45Q300.70 20.90 300.60 22.70L300.60 22.70L300.30 25.50L337.40 25.50Q340.70 25.50 342.35 27.55Q344 29.60 343.40 32.50L343.40 32.50Q342.80 35.70 341.40 39.25Q340 42.80 338.10 46L338.10 46ZM280.50 101L350.50 101Q352.40 101 353.70 102.30Q355 103.60 355 105.50L355 105.50Q355 107.40 353.70 108.70Q352.40 110 350.50 110L350.50 110L280.50 110Q278.60 110 277.30 108.70Q276 107.40 276 105.50L276 105.50Q276 103.60 277.30 102.30Q278.60 101 280.50 101L280.50 101ZM320.40 64.80L331.50 64.80Q333.40 64.80 334.70 66.10Q336 67.40 336 69.30L336 69.30Q336 71.20 334.70 72.50Q333.40 73.80 331.50 73.80L331.50 73.80L320.40 73.80L320.40 85.60L335.10 85.60Q338.30 85.60 339.65 84.25Q341 82.90 341 79.70L341 79.70L341 55L320.40 55L320.40 64.80ZM296 69.30Q296 67.40 297.30 66.10Q298.60 64.80 300.50 64.80L300.50 64.80L311.40 64.80L311.40 55L291 55L291 79.70Q291 82.90 292.35 84.25Q293.70 85.60 296.90 85.60L296.90 85.60L311.40 85.60L311.40 73.80L300.50 73.80Q298.60 73.80 297.30 72.50Q296 71.20 296 69.30L296 69.30ZM315.90 46L327.20 46Q329 44 330.75 40.85Q332.50 37.70 333.60 34.50L333.60 34.50L298 34.50Q295.40 41.10 290 46L290 46L315.50 46L315.90 46ZM389.60 60.40L371.90 60.40Q370 60.40 368.70 59.10Q367.40 57.80 367.40 55.90L367.40 55.90Q367.40 54 368.70 52.70Q370 51.40 371.90 51.40L371.90 51.40L389.60 51.40L389.60 47Q389.60 45.10 390.90 43.80Q392.20 42.50 394.10 42.50L394.10 42.50Q396 42.50 397.30 43.80Q398.60 45.10 398.60 47L398.60 47L398.60 55.60L398.60 55.90L398.60 56.30L398.60 74.60L398.60 74.90L398.60 94.50L398.60 94.90L398.60 107.50Q398.60 109.40 397.30 110.70Q396 112 394.10 112L394.10 112Q392.20 112 390.90 110.70Q389.60 109.40 389.60 107.50L389.60 107.50L389.60 99L368.90 99Q367 99 365.70 97.70Q364.40 96.40 364.40 94.50L364.40 94.50Q364.40 92.60 365.70 91.30Q367 90 368.90 90L368.90 90L389.60 90L389.60 79.40L374.60 79.40Q372.70 79.40 371.40 78.10Q370.10 76.80 370.10 74.90L370.10 74.90Q370.10 73 371.40 71.70Q372.70 70.40 374.60 70.40L374.60 70.40L389.60 70.40L389.60 60.40ZM411.40 74.60L411.40 47Q411.40 45.10 412.70 43.80Q414 42.50 415.90 42.50L415.90 42.50Q417.80 42.50 419.10 43.80Q420.40 45.10 420.40 47L420.40 47L420.40 51.40L438.10 51.40Q440 51.40 441.30 52.70Q442.60 54 442.60 55.90L442.60 55.90Q442.60 57.80 441.30 59.10Q440 60.40 438.10 60.40L438.10 60.40L420.40 60.40L420.40 70.40L435.40 70.40Q437.30 70.40 438.60 71.70Q439.90 73 439.90 74.90L439.90 74.90Q439.90 76.80 438.60 78.10Q437.30 79.40 435.40 79.40L435.40 79.40L420.40 79.40L420.40 90L441.10 90Q443 90 444.30 91.30Q445.60 92.60 445.60 94.50L445.60 94.50Q445.60 96.40 444.30 97.70Q443 99 441.10 99L441.10 99L420.40 99L420.40 107.50Q420.40 109.40 419.10 110.70Q417.80 112 415.90 112L415.90 112Q414 112 412.70 110.70Q411.40 109.40 411.40 107.50L411.40 107.50L411.40 94.50L411.40 94.20L411.40 74.90L411.40 74.60ZM416.80 25.60L416.80 22.50Q416.80 20.60 418.10 19.30Q419.40 18 421.30 18L421.30 18Q423.20 18 424.50 19.30Q425.80 20.60 425.80 22.50L425.80 22.50L425.80 25.60L440.50 25.60Q442.40 25.60 443.70 26.90Q445 28.20 445 30.20L445 30.20Q445 32 443.70 33.30Q442.40 34.60 440.50 34.60L440.50 34.60L425.80 34.60L425.80 37.80Q425.80 39.70 424.50 41Q423.20 42.30 421.30 42.30L421.30 42.30Q419.40 42.30 418.10 41Q416.80 39.70 416.80 37.80L416.80 37.80L416.80 34.60L393 34.60L393 37.80Q393 39.70 391.70 41Q390.40 42.30 388.50 42.30L388.50 42.30Q386.60 42.30 385.30 41Q384 39.70 384 37.80L384 37.80L384 34.60L369.50 34.60Q367.60 34.60 366.30 33.30Q365 32 365 30.20L365 30.20Q365 28.20 366.30 26.90Q367.60 25.60 369.50 25.60L369.50 25.60L384 25.60L384 22.50Q384 20.60 385.30 19.30Q386.60 18 388.50 18L388.50 18Q390.40 18 391.70 19.30Q393 20.60 393 22.50L393 22.50L393 25.60L416.80 25.60ZM508.20 38.30L496.20 38.30Q494.30 38.30 493 37Q491.70 35.70 491.70 33.80L491.70 33.80Q491.70 31.90 493 30.60Q494.30 29.30 496.20 29.30L496.20 29.30L508.20 29.30L508.20 22.50Q508.20 20.60 509.50 19.30Q510.80 18 512.70 18L512.70 18Q514.60 18 515.90 19.30Q517.20 20.60 517.20 22.50L517.20 22.50L517.20 29.30L529.10 29.30Q531 29.30 532.30 30.60Q533.60 31.90 533.60 33.80L533.60 33.80Q533.60 35.70 532.35 37Q531.10 38.30 529.20 38.30L529.20 38.30L517.20 38.30L517.20 49.20L521.50 49.20L521.90 49.20L532.50 49.20Q534.40 49.20 535.70 50.50Q537 51.80 537 53.70L537 53.70Q537 55.60 535.70 56.90Q534.40 58.20 532.50 58.20L532.50 58.20L526.40 58.20L526.40 68.90L531.10 68.90Q533 68.90 534.30 70.20Q535.60 71.50 535.60 73.40L535.60 73.40Q535.60 75.30 534.30 76.60Q533 77.90 531.10 77.90L531.10 77.90L526.40 77.90L526.40 108.50Q526.40 110.40 525.10 111.70Q523.80 113 521.90 113L521.90 113Q520 113 518.70 111.70Q517.40 110.40 517.40 108.50L517.40 108.50L517.40 77.90L495.40 77.90Q493.50 77.90 492.20 76.60Q490.90 75.30 490.90 73.40L490.90 73.40Q490.90 71.50 492.20 70.20Q493.50 68.90 495.40 68.90L495.40 68.90L517.40 68.90L517.40 58.20L492.80 58.20Q490.90 58.20 489.60 56.90Q488.30 55.60 488.30 53.70L488.30 53.70Q488.30 51.80 489.60 50.50Q490.90 49.20 492.80 49.20L492.80 49.20L508.20 49.20L508.20 38.30ZM453 59.90L454.60 35.60Q454.70 33.90 456 32.65Q457.30 31.40 459.10 31.40L459.10 31.40Q461.10 31.40 462.40 32.80Q463.70 34.20 463.60 36.20L463.60 36.20L462.50 51.90L469.70 47.40L469.70 22.50Q469.70 20.60 471 19.30Q472.30 18 474.20 18L474.20 18Q476.10 18 477.40 19.30Q478.70 20.60 478.70 22.50L478.70 22.50L478.70 41.90L482.50 39.50Q483.50 38.80 484.90 38.80L484.90 38.80Q486.80 38.80 488.10 40.10Q489.40 41.40 489.40 43.30L489.40 43.30Q489.40 44.50 488.80 45.50Q488.20 46.50 487.30 47.10L487.30 47.10L478.70 52.50L478.70 68.20L482.50 65.80Q483.50 65.10 484.90 65.10L484.90 65.10Q486.80 65.10 488.10 66.40Q489.40 67.70 489.40 69.60L489.40 69.60Q489.40 70.80 488.80 71.80Q488.20 72.80 487.30 73.40L487.30 73.40L478.70 78.80L478.70 108.40Q478.70 110.30 477.40 111.60Q476.10 112.90 474.20 112.90L474.20 112.90Q472.30 112.90 471 111.60Q469.70 110.30 469.70 108.40L469.70 108.40L469.70 84.30L459.90 90.40Q458.90 91 457.50 91.10L457.50 91.10Q455.60 91.10 454.30 89.80Q453 88.50 453 86.60L453 86.60Q453 85.40 453.60 84.40Q454.20 83.40 455.10 82.80L455.10 82.80L469.70 73.80L469.70 58L459.90 64.10Q458.90 64.70 457.50 64.80L457.50 64.80Q456 64.80 454.90 64Q453.80 63.20 453.30 61.90L453.30 61.90L453 61.10L453 60.30L453 60L453 59.90ZM511 93.50L500 100.80Q498.90 101.60 497.50 101.60L497.50 101.60Q495.60 101.60 494.30 100.30Q493 99 493 97.10L493 97.10Q493 94.70 495 93.40L495 93.40L506 86.10Q507.10 85.30 508.50 85.30L508.50 85.30Q510.40 85.30 511.70 86.60Q513 87.90 513 89.80L513 89.80Q513 92.20 511 93.50L511 93.50ZM572.60 109.20Q571.40 110.70 569.70 111L569.70 111Q567.90 111.20 566.45 110.15Q565 109.10 564.80 107.30L564.80 107.30Q564.60 106.50 564.85 105.70Q565.10 104.90 565.50 104.20L565.50 104.20Q567.50 101.40 569.10 98.60Q570.70 95.80 572.10 92.90L572.10 92.90Q568.40 85.80 566 74.40L566 74.40Q565.60 72.40 566.85 70.75Q568.10 69.10 570.30 69.20L570.30 69.20Q571.80 69.30 572.95 70.25Q574.10 71.20 574.40 72.60L574.40 72.60Q574.90 74.80 575.35 76.75Q575.80 78.70 576.40 80.40L576.40 80.40Q578.30 72.70 579.20 63.40L579.20 63.40L570.40 63.40L570.30 63.40L569.90 63.40Q568.10 63.40 566.85 62.15Q565.60 60.90 565.60 59.10L565.60 59.10Q565.60 58.10 566.10 57.10L566.10 57.10L577.10 34.30L571 34.30Q569.50 34.30 568.40 33.45Q567.30 32.60 566.90 31.20L566.90 31.20Q566 36.40 564.75 40.90Q563.50 45.40 561.90 49.60L561.90 49.60Q562.70 50.70 562.70 52.10L562.70 52.10L562.70 106.80Q562.70 108.70 561.40 110Q560.10 111.30 558.20 111.30L558.20 111.30Q556.30 111.30 555 110Q553.70 108.70 553.70 106.80L553.70 106.80L553.70 65.50L552.70 66.90Q551.60 68.70 549.50 68.80L549.50 68.80Q547.60 69 546.15 67.85Q544.70 66.70 544.50 64.80L544.50 64.80Q544.40 63.20 545.30 61.80L545.30 61.80Q547.90 58 550.10 53.80Q552.30 49.60 554.05 44.80Q555.80 40 557.05 34.45Q558.30 28.90 559.10 22.40L559.10 22.40Q559.30 20.70 560.60 19.55Q561.90 18.40 563.60 18.40L563.60 18.40Q565.60 18.40 566.95 19.90Q568.30 21.40 568.10 23.40L568.10 23.40L567.50 27.50Q568.80 25.70 571 25.70L571 25.70L583.70 25.70Q585.40 25.70 586.60 26.90L586.60 26.90Q586.80 26.90 586.80 27.10L586.80 27.10L587.10 27.30Q588.20 28.60 588.20 30.20L588.20 30.20Q588.20 31.20 587.70 32.20L587.70 32.20L576.70 54.80L583.90 54.80L584.20 54.80Q586.10 55 587.30 56.40Q588.50 57.80 588.30 59.50L588.30 59.50Q587.40 68.60 586 76.60Q584.60 84.60 581.80 92.10L581.80 92.10Q585.50 97.50 590.60 99.60Q595.70 101.70 602.60 101.70L602.60 101.70L621.40 101.70Q623.20 101.70 624.45 102.95Q625.70 104.20 625.70 106L625.70 106Q625.70 107.80 624.45 109.05Q623.20 110.30 621.40 110.30L621.40 110.30L602.60 110.30Q594.80 110.30 588.60 108.30Q582.40 106.30 577.60 101.10L577.60 101.10Q576.50 103.10 575.25 105.15Q574 107.20 572.60 109.20L572.60 109.20ZM598.70 26.60L598.70 22.70Q598.70 20.80 600 19.50Q601.30 18.20 603.20 18.20L603.20 18.20Q605.10 18.20 606.40 19.50Q607.70 20.80 607.70 22.70L607.70 22.70L607.70 26.60L616 26.60L616.10 26.60Q617.90 26.60 619.15 27.85Q620.40 29.10 620.40 30.90L620.40 30.90L620.40 41.30L622.20 41.30Q624 41.30 625.25 42.55Q626.50 43.80 626.50 45.60L626.50 45.60Q626.50 47.40 625.20 48.65Q623.90 49.90 622.10 49.90L622.10 49.90L620.40 49.90Q620.40 53.40 619.85 56.10Q619.30 58.80 618 60.60Q616.70 62.40 614.40 63.35Q612.10 64.30 608.60 64.30L608.60 64.30L607.70 64.30L607.70 70.20L616 70.20Q617.80 70.20 619.05 71.50Q620.30 72.80 620.30 74.60L620.30 74.60Q620.30 76.40 619.05 77.60Q617.80 78.80 616 78.80L616 78.80L607.70 78.80L607.70 82.80L619.50 82.80Q621.30 82.80 622.55 84Q623.80 85.20 623.80 87L623.80 87Q623.80 88.80 622.55 90.10Q621.30 91.40 619.50 91.40L619.50 91.40L607.70 91.40L607.70 95.60Q607.70 97.60 606.40 98.90Q605.10 100.20 603.20 100.20L603.20 100.20Q601.30 100.20 600 98.90Q598.70 97.60 598.70 95.60L598.70 95.60L598.70 91.40L591 91.40Q589.20 91.40 587.95 90.10Q586.70 88.80 586.70 87L586.70 87Q586.70 85.20 587.95 84Q589.20 82.80 591 82.80L591 82.80L598.70 82.80L598.70 78.80L593.40 78.80Q591.60 78.80 590.35 77.60Q589.10 76.40 589.10 74.60L589.10 74.60Q589.10 72.80 590.35 71.50Q591.60 70.20 593.40 70.20L593.40 70.20L598.70 70.20L598.70 64.30L593.90 64.30Q592.10 64.30 590.85 63.05Q589.60 61.80 589.60 60L589.60 60Q589.60 58.20 590.85 56.95Q592.10 55.70 593.90 55.70L593.90 55.70L598.70 55.70L598.70 49.90L590.50 49.90Q588.70 49.90 587.50 48.65Q586.30 47.40 586.30 45.60L586.30 45.60Q586.30 43.80 587.55 42.55Q588.80 41.30 590.60 41.30L590.60 41.30L598.70 41.30L598.70 35.20L593.90 35.20Q592.10 35.20 590.85 33.95Q589.60 32.70 589.60 30.90L589.60 30.90Q589.60 29.10 590.85 27.85Q592.10 26.60 593.90 26.60L593.90 26.60L598.70 26.60ZM607.70 35.20L607.70 41.30L611.80 41.30L611.80 35.20L607.70 35.20ZM607.70 55.70L608.60 55.70Q609.40 55.70 610 55.50Q610.60 55.30 610.95 54.70Q611.30 54.10 611.55 52.95Q611.80 51.80 611.80 49.90L611.80 49.90L607.70 49.90L607.70 55.70ZM674.60 28L672.90 24.20Q672.70 23.70 672.60 23.25Q672.50 22.80 672.50 22.30L672.50 22.30Q672.50 20.40 673.80 19.10Q675.10 17.80 677 17.80L677 17.80Q678.40 17.80 679.50 18.55Q680.60 19.30 681.10 20.40L681.10 20.40L684.50 28L708.10 28Q709.90 28 711.15 29.35Q712.40 30.70 712.40 32.50L712.40 32.50Q712.40 34.30 711.15 35.55Q709.90 36.80 708.10 36.80L708.10 36.80L682 36.80Q683.40 37.20 684.35 38.35Q685.30 39.50 685.30 41.10L685.30 41.10L685.30 42L702.50 42Q703.70 42 704.75 42.65Q705.80 43.30 706.30 44.40L706.30 44.40Q706.80 45.40 706.80 46.40L706.80 46.40L706.80 53.70L709.30 53.70Q711 53.70 712.25 54.90Q713.50 56.10 713.50 57.80L713.50 57.80Q713.50 59.50 712.25 60.70Q711 61.90 709.30 61.90L709.30 61.90L706.60 61.90Q706 67.30 702.50 70.65Q699 74 693.30 74L693.30 74L685.40 74Q687.30 77.20 689.15 79.85Q691 82.50 693.10 84.90L693.10 84.90Q695.40 83.10 698.10 80.70Q700.80 78.30 702.50 76.40L702.50 76.40Q703.80 75.10 705.60 75.10L705.60 75.10Q707.30 75.20 708.45 76.40Q709.60 77.60 709.60 79.30L709.60 79.30Q709.40 80.90 708.50 82L708.50 82Q706.60 84.20 703.95 86.60Q701.30 89 699 90.70L699 90.70Q701.60 92.80 704.60 94.80Q707.60 96.80 711.40 98.90L711.40 98.90Q713.10 99.90 713.30 102.10L713.30 102.10Q713.50 103.90 712.45 105.25Q711.40 106.60 709.60 106.80L709.60 106.80Q708.20 106.90 706.90 106.10L706.90 106.10Q700.40 102.40 695.20 98.25Q690 94.10 685.30 88.40L685.30 88.40L685.30 96.10Q685.30 103 681.50 106.60Q677.70 110.20 671.50 110.20L671.50 110.20Q669.60 110.20 668.35 108.90Q667.10 107.60 667.10 105.80L667.10 105.80Q667.10 104 668.35 102.75Q669.60 101.50 671.50 101.50L671.50 101.50Q674.40 101.50 675.50 100.30Q676.60 99.10 676.60 96.10L676.60 96.10L676.60 92.40Q674.30 93.80 671.55 95.50Q668.80 97.20 665.95 98.90Q663.10 100.60 660.35 102.20Q657.60 103.80 655.30 105L655.30 105Q654.80 105.20 654.20 105.40Q653.60 105.60 653 105.50L653 105.50Q651.20 105.40 650.05 104.15Q648.90 102.90 649.10 101.10L649.10 101.10Q649.10 100 649.70 99.05Q650.30 98.10 651.30 97.60L651.30 97.60Q654.90 95.60 658.85 93.45Q662.80 91.30 666.30 89.10L666.30 89.10Q665.50 88.70 665.10 88.40L665.10 88.40Q662.90 86.80 660.30 85Q657.70 83.20 655.20 81.70L655.20 81.70Q653.70 80.90 653.40 79.10L653.40 79.10Q653.10 77.50 654 76.15Q654.90 74.80 656.50 74.50L656.50 74.50Q657.90 74.20 659.20 75L659.20 75Q662.40 76.70 665.15 78.65Q667.90 80.60 669.60 82.10L669.60 82.10Q670.60 82.80 671 83.80L671 83.80Q671.50 85.10 671.20 86L671.20 86Q672.80 85 674.15 84.15Q675.50 83.30 676.60 82.50L676.60 82.50L676.60 74L660.90 74Q659.20 74 658.15 72.70Q657.10 71.40 657.20 69.80L657.20 69.80Q657.20 68.20 658.25 66.90Q659.30 65.60 660.90 65.60L660.90 65.60L676.60 65.60L676.60 61.90L656.70 61.90Q655 61.90 653.75 60.70Q652.50 59.50 652.50 57.80L652.50 57.80Q652.50 56.10 653.75 54.90Q655 53.70 656.70 53.70L656.70 53.70L676.60 53.70L676.60 50.40L660.70 50.40Q659 50.40 657.75 49.15Q656.50 47.90 656.50 46.20L656.50 46.20Q656.50 44.40 657.75 43.20Q659 42 660.70 42L660.70 42L676.60 42L676.60 41.10Q676.60 39.50 677.55 38.35Q678.50 37.20 679.90 36.80L679.90 36.80L651.50 36.80Q651.50 51.40 651.25 62.15Q651 72.90 650.30 81.15Q649.60 89.40 648.20 95.80Q646.80 102.20 644.40 108L644.40 108Q643.90 109.30 642.75 110.05Q641.60 110.80 640.20 110.80L640.20 110.80Q638.30 110.80 637 109.50Q635.70 108.20 635.70 106.30L635.70 106.30Q635.70 105.40 636 104.60L636 104.60Q638.30 99 639.60 92.85Q640.90 86.70 641.55 78.50Q642.20 70.30 642.35 59.30Q642.50 48.30 642.50 32.90L642.50 32.90L642.50 32.60L642.50 32.40Q642.50 30.60 643.75 29.30Q645 28 646.80 28L646.80 28L674.60 28ZM685.30 65.60L692.40 65.60Q697.20 65.60 698.10 61.90L698.10 61.90L685.30 61.90L685.30 65.60ZM685.30 50.40L685.30 53.70L698.30 53.70L698.30 50.40L685.30 50.40ZM771.30 32.80L771.30 23.10Q771.30 21.20 772.60 19.90Q773.90 18.60 775.80 18.60L775.80 18.60Q777.70 18.60 779 19.90Q780.30 21.20 780.30 23.10L780.30 23.10L780.30 32.80L798 32.80Q799.90 32.80 801.20 34.10Q802.50 35.40 802.50 37.30L802.50 37.30Q802.50 39.20 801.20 40.50Q799.90 41.80 798 41.80L798 41.80L780.30 41.80L780.30 84.50L788.70 84.50Q790.60 84.50 791.90 85.80Q793.20 87.10 793.20 89L793.20 89Q793.20 90.90 791.90 92.20Q790.60 93.50 788.70 93.50L788.70 93.50L780.30 93.50L780.30 107Q780.30 108.90 779 110.20Q777.70 111.50 775.80 111.50L775.80 111.50Q773.90 111.50 772.60 110.20Q771.30 108.90 771.30 107L771.30 107L771.30 93.50L762.90 93.50Q761 93.50 759.70 92.20Q758.40 90.90 758.40 89L758.40 89Q758.40 87.10 759.70 85.80Q761 84.50 762.90 84.50L762.90 84.50L771.30 84.50L771.30 41.80L753.60 41.80Q751.70 41.80 750.40 40.50Q749.10 39.20 749.10 37.30L749.10 37.30Q749.10 35.40 750.40 34.10Q751.70 32.80 753.60 32.80L753.60 32.80L771.30 32.80ZM730.20 66.40Q728.80 68 726.70 67.80L726.70 67.80Q724.80 67.70 723.55 66.40Q722.30 65.10 722.40 63.20L722.40 63.20Q722.40 61.70 723.60 60.30L723.60 60.30Q729.80 53.40 734.15 44.15Q738.50 34.90 740.50 21.90L740.50 21.90Q740.80 20.20 742.15 19.10Q743.50 18 745.20 18.10L745.20 18.10Q747.20 18.20 748.50 19.70Q749.80 21.20 749.50 23.20L749.50 23.20Q748.50 29.20 747.05 34.50Q745.60 39.80 743.70 44.60L743.70 44.60L743.70 107Q743.70 108.90 742.40 110.20Q741.10 111.50 739.20 111.50L739.20 111.50Q737.30 111.50 736 110.20Q734.70 108.90 734.70 107L734.70 107L734.70 61Q733.60 62.40 732.45 63.75Q731.30 65.10 730.20 66.40L730.20 66.40ZM752.50 98.40Q751.20 100.40 748.80 100.40L748.80 100.40Q746.90 100.40 745.60 99.10Q744.30 97.80 744.30 95.90L744.30 95.90Q744.30 94.50 745.10 93.40L745.10 93.40Q751 84.60 753.90 74.35Q756.80 64.10 756.60 51L756.60 51Q756.60 49.10 757.90 47.80Q759.20 46.50 761.10 46.50L761.10 46.50Q763 46.50 764.30 47.80Q765.60 49.10 765.60 51L765.60 51Q765.80 65.10 762.45 76.90Q759.10 88.70 752.50 98.40L752.50 98.40ZM806.50 93.50Q807.30 94.60 807.30 96L807.30 96Q807.30 97.90 806 99.20Q804.70 100.50 802.80 100.50L802.80 100.50Q800.40 100.50 799.10 98.50L799.10 98.50Q792.50 88.80 789.15 77Q785.80 65.20 786 51.10L786 51.10Q786 49.20 787.30 47.90Q788.60 46.60 790.50 46.60L790.50 46.60Q792.40 46.60 793.70 47.90Q795 49.20 795 51.10L795 51.10Q794.80 64.20 797.70 74.45Q800.60 84.70 806.50 93.50L806.50 93.50Z"/></svg>