<svg xmlns="http://www.w3.org/2000/svg" xmlns:xlink="http://www.w3.org/1999/xlink" width="700" height="100"><path d="M46 30.10Q46 29.90 46.10 29.80Q46.20 29.70 46.40 29.70L46.40 29.70L71.80 29.70Q72 29.70 72.10 29.80Q72.20 29.90 72.20 30.10L72.20 30.10L72.20 72.60Q72.20 72.80 72.10 72.90Q72 73 71.80 73L71.80 73L46.40 73Q46.20 73 46.10 72.90Q46 72.80 46 72.60L46 72.60L46 30.10ZM69.60 70.40L69.60 32.30L48.60 32.30L48.60 70.40L69.60 70.40ZM88.40 10.90Q88.80 10.90 88.80 11.30L88.80 11.30L88.80 92.90Q88.80 93.30 88.40 93.30L88.40 93.30L75.30 93.30Q74.90 93.30 74.90 92.90L74.90 92.90L74.90 91.10Q74.90 90.70 75.30 90.70L75.30 90.70L86.20 90.70L86.20 11.30Q86.20 10.90 86.60 10.90L86.60 10.90L88.40 10.90ZM95.90 9.60Q96.30 9.60 96.30 10L96.30 10L96.30 11.80Q96.30 12.20 95.90 12.20L95.90 12.20L40.50 12.20Q40.10 12.20 40.10 11.80L40.10 11.80L40.10 10Q40.10 9.60 40.50 9.60L40.50 9.60L95.90 9.60ZM34.70 9Q34.90 9 35 9.10Q35.10 9.20 35.10 9.40L35.10 9.40Q35.40 25.60 28.50 39.20L28.50 39.20Q33 44.40 34.50 51.05Q36 57.70 34.35 64.75Q32.70 71.80 28.20 78.20L28.20 78.20Q28.10 78.40 27.95 78.45Q27.80 78.50 27.70 78.40L27.70 78.40L26.10 77.40Q25.80 77.30 26 76.80L26 76.80Q30.50 70.40 31.95 63.60Q33.40 56.80 31.70 50.65Q30 44.50 25.30 40L25.30 40Q25.30 39.80 25.50 39.20L25.50 39.20Q32.20 27.10 32.50 11.60L32.50 11.60L11.10 11.60L11.10 95.60Q11.10 96 10.70 96L10.70 96L8.90 96Q8.50 96 8.50 95.60L8.50 95.60L8.50 9.40Q8.50 9 8.90 9L8.90 9L34.70 9ZM112.70 9.30Q112.70 9.10 112.80 9Q112.90 8.90 113.10 8.90L113.10 8.90L186.90 8.90Q187.10 8.90 187.20 9Q187.30 9.10 187.30 9.30L187.30 9.30L187.30 53.80Q187.30 54 187.20 54.10Q187.10 54.20 186.90 54.20L186.90 54.20L113.10 54.20Q112.90 54.20 112.80 54.10Q112.70 54 112.70 53.80L112.70 53.80L112.70 9.30ZM184.70 51.60L184.70 11.50L115.30 11.50L115.30 51.60L184.70 51.60ZM195.80 90Q196.20 90 196.20 90.40L196.20 90.40L196.20 92.20Q196.20 92.60 195.80 92.60L195.80 92.60L104.20 92.60Q103.80 92.60 103.80 92.20L103.80 92.20L103.80 90.40Q103.80 90 104.20 90L104.20 90L195.80 90ZM191.10 69.70Q191.50 69.70 191.50 70.10L191.50 70.10L191.50 71.90Q191.50 72.30 191.10 72.30L191.10 72.30L108.90 72.30Q108.50 72.30 108.50 71.90L108.50 71.90L108.50 70.10Q108.50 69.70 108.90 69.70L108.90 69.70L191.10 69.70ZM150.90 10.20Q151.30 10.20 151.30 10.60L151.30 10.60L151.30 90.90Q151.30 91.30 150.90 91.30L150.90 91.30L149.10 91.30Q148.70 91.30 148.70 90.90L148.70 90.90L148.70 10.60Q148.70 10.20 149.10 10.20L149.10 10.20L150.90 10.20ZM185.60 30.20Q186 30.20 186 30.60L186 30.60L186 32.40Q186 32.80 185.60 32.80L185.60 32.80L114.40 32.80Q114 32.80 114 32.40L114 32.40L114 30.60Q114 30.20 114.40 30.20L114.40 30.20L185.60 30.20ZM281.30 70.30Q281.70 70.30 281.70 70.70L281.70 70.70L281.70 72.50Q281.70 72.90 281.30 72.90L281.30 72.90L241.40 72.90Q241 72.90 241 72.50L241 72.50L241 70.70Q241 70.30 241.40 70.30L241.40 70.30L281.30 70.30ZM251.60 20.70Q252 20.70 252 21.10L252 21.10L252 48.60L293.30 48.60Q293.50 48.60 293.60 48.70Q293.70 48.80 293.70 49L293.70 49L293.70 92.90Q293.70 93.10 293.60 93.20Q293.50 93.30 293.30 93.30L293.30 93.30L279.50 93.30Q279.10 93.30 279.10 92.90L279.10 92.90L279.10 91.10Q279.10 90.70 279.50 90.70L279.50 90.70L291.10 90.70L291.10 51.20L249.80 51.20Q249.60 51.20 249.50 51.10Q249.40 51 249.40 50.80L249.40 50.80L249.40 21.10Q249.40 20.70 249.80 20.70L249.80 20.70L251.60 20.70ZM284.50 9.40Q284.70 9.40 284.80 9.50Q284.90 9.60 284.90 9.80L284.90 9.80L284.90 49.50Q284.90 49.90 284.50 49.90L284.50 49.90L282.70 49.90Q282.30 49.90 282.30 49.50L282.30 49.50L282.30 12L243.10 12Q242.70 12 242.70 11.60L242.70 11.60L242.70 9.80Q242.70 9.40 243.10 9.40L243.10 9.40L284.50 9.40ZM219.40 5.60Q219.80 5.70 219.70 6.10L219.70 6.10L212.60 56L239.90 92Q240.10 92.40 239.80 92.50L239.80 92.50L238.40 93.70Q238 93.90 237.90 93.60L237.90 93.60L210 57.10Q209.80 56.70 209.90 56.40L209.90 56.40L217.10 5.70Q217.20 5.30 217.60 5.40L217.60 5.40L219.40 5.60ZM236.40 20.70Q236.60 20.70 236.70 20.80Q236.80 20.90 236.80 21.10L236.80 21.10L236.80 42.40Q236.80 58.80 229.35 70.80Q221.90 82.80 207.10 93.80L207.10 93.80Q206.70 94.10 206.50 93.80L206.50 93.80L205.30 92.40Q205.10 92.10 205.50 91.80L205.50 91.80Q215 84.70 221.25 77.55Q227.50 70.40 230.85 61.75Q234.20 53.10 234.20 42.40L234.20 42.40L234.20 23.30L204.90 23.30Q204.50 23.30 204.50 22.90L204.50 22.90L204.50 21.10Q204.50 20.70 204.90 20.70L204.90 20.70L236.40 20.70ZM381.30 70.30Q381.70 70.30 381.70 70.70L381.70 70.70L381.70 72.50Q381.70 72.90 381.30 72.90L381.30 72.90L341.40 72.90Q341 72.90 341 72.50L341 72.50L341 70.70Q341 70.30 341.40 70.30L341.40 70.30L381.30 70.30ZM351.60 20.70Q352 20.70 352 21.10L352 21.10L352 48.60L393.30 48.60Q393.50 48.60 393.60 48.70Q393.70 48.80 393.70 49L393.70 49L393.70 92.90Q393.70 93.10 393.60 93.20Q393.50 93.30 393.30 93.30L393.30 93.30L379.50 93.30Q379.10 93.30 379.10 92.90L379.10 92.90L379.10 91.10Q379.10 90.70 379.50 90.70L379.50 90.70L391.10 90.70L391.10 51.20L349.80 51.20Q349.60 51.20 349.50 51.10Q349.40 51 349.40 50.80L349.40 50.80L349.40 21.10Q349.40 20.70 349.80 20.70L349.80 20.70L351.60 20.70ZM384.50 9.40Q384.70 9.40 384.80 9.50Q384.90 9.60 384.90 9.80L384.90 9.80L384.90 49.50Q384.90 49.90 384.50 49.90L384.50 49.90L382.70 49.90Q382.30 49.90 382.30 49.50L382.30 49.50L382.30 12L343.10 12Q342.70 12 342.70 11.60L342.70 11.60L342.70 9.80Q342.70 9.40 343.10 9.40L343.10 9.40L384.50 9.40ZM319.40 5.60Q319.80 5.70 319.70 6.10L319.70 6.10L312.60 56L339.90 92Q340.10 92.40 339.80 92.50L339.80 92.50L338.40 93.70Q338 93.90 337.90 93.60L337.90 93.60L310 57.10Q309.80 56.70 309.90 56.40L309.90 56.40L317.10 5.70Q317.20 5.30 317.60 5.40L317.60 5.40L319.40 5.60ZM336.40 20.70Q336.60 20.70 336.70 20.80Q336.80 20.90 336.80 21.10L336.80 21.10L336.80 42.40Q336.80 58.80 329.35 70.80Q321.90 82.80 307.10 93.80L307.10 93.80Q306.70 94.10 306.50 93.80L306.50 93.80L305.30 92.40Q305.10 92.10 305.50 91.80L305.50 91.80Q315 84.70 321.25 77.55Q327.50 70.40 330.85 61.75Q334.20 53.10 334.20 42.40L334.20 42.40L334.20 23.30L304.90 23.30Q304.50 23.30 304.50 22.90L304.50 22.90L304.50 21.10Q304.50 20.70 304.90 20.70L304.90 20.70L336.40 20.70ZM482.80 45.50Q483 45.50 483.10 45.60Q483.20 45.70 483.20 45.90L483.20 45.90L483.20 93.40Q483.20 93.60 483.10 93.70Q483 93.80 482.80 93.80L482.80 93.80L468.90 93.80Q468.50 93.80 468.50 93.40L468.50 93.40L468.50 91.60Q468.50 91.20 468.90 91.20L468.90 91.20L480.60 91.20L480.60 48.10L431.30 48.10Q430.90 48.10 430.90 47.70L430.90 47.70L430.90 45.90Q430.90 45.50 431.30 45.50L431.30 45.50L482.80 45.50ZM431.40 18.50Q431.80 18.50 431.80 18.90L431.80 18.90L431.80 42.90Q431.80 58.10 425.70 71.40Q419.60 84.70 406.70 94.60L406.70 94.60Q406.30 94.90 406.10 94.60L406.10 94.60L404.90 93.20Q404.70 92.90 405.10 92.60L405.10 92.60Q417.60 83.10 423.40 70.40Q429.20 57.70 429.20 42.90L429.20 42.90L429.20 18.90Q429.20 18.50 429.60 18.50L429.60 18.50L431.40 18.50ZM491.50 17.20Q491.90 17.20 491.90 17.60L491.90 17.60L491.90 19.40Q491.90 19.80 491.50 19.80L491.50 19.80L408.50 19.80Q408.10 19.80 408.10 19.40L408.10 19.40L408.10 17.60Q408.10 17.20 408.50 17.20L408.50 17.20L491.50 17.20ZM450.90 4.60Q451.30 4.60 451.30 5L451.30 5L451.30 18.10Q451.30 18.50 450.90 18.50L450.90 18.50L449.10 18.50Q448.70 18.50 448.70 18.10L448.70 18.10L448.70 5Q448.70 4.60 449.10 4.60L449.10 4.60L450.90 4.60ZM509 8.30Q509 7.90 509.40 7.90L509.40 7.90L590.60 7.90Q591 7.90 591 8.30L591 8.30L591 91.70Q591 92.10 590.60 92.10L590.60 92.10L509.40 92.10Q509 92.10 509 91.70L509 91.70L509 8.30ZM588.40 89.50L588.40 10.50L511.60 10.50L511.60 89.50L588.40 89.50ZM548.70 55.20Q548.70 54.90 548.80 54.80Q548.90 54.70 549.10 54.70L549.10 54.70L550.90 54.70Q551.10 54.70 551.20 54.80Q551.30 54.90 551.30 55.10L551.30 55.10Q551.20 61.80 547.70 67.75Q544.20 73.70 537.30 77.65Q530.40 81.60 520.50 82.30L520.50 82.30Q520 82.30 520 81.90L520 81.90L519.80 80.10Q519.80 79.70 520.20 79.70L520.20 79.70Q529.40 79 535.80 75.45Q542.20 71.90 545.40 66.55Q548.60 61.20 548.70 55.20L548.70 55.20ZM576.20 46.80Q576.60 46.80 576.60 47.20L576.60 47.20L577.10 68Q577.10 68.40 576.70 68.40L576.70 68.40L574.90 68.40Q574.50 68.40 574.50 68L574.50 68L574 49.40L526.10 49.40L526.10 68Q526.10 68.40 525.70 68.40L525.70 68.40L523.90 68.40Q523.50 68.40 523.50 68L523.50 68L523.50 47.20Q523.50 46.80 523.90 46.80L523.90 46.80L576.20 46.80ZM580.20 79.60Q580.60 79.70 580.40 80.20L580.40 80.20L579.80 81.80Q579.70 82.20 579.20 82L579.20 82L553.60 71.30Q553.20 71.20 553.40 70.70L553.40 70.70L554 69.10Q554.10 68.70 554.60 68.90L554.60 68.90L580.20 79.60ZM527.50 19.60Q527.50 19.40 527.60 19.30Q527.70 19.20 527.90 19.20L527.90 19.20L572.10 19.20Q572.30 19.20 572.40 19.30Q572.50 19.40 572.50 19.60L572.50 19.60L572.50 38Q572.50 38.20 572.40 38.30Q572.30 38.40 572.10 38.40L572.10 38.40L527.90 38.40Q527.70 38.40 527.60 38.30Q527.50 38.20 527.50 38L527.50 38L527.50 19.60ZM569.90 35.80L569.90 21.80L530.10 21.80L530.10 35.80L569.90 35.80ZM694 21.40Q694.40 21.40 694.40 21.80L694.40 21.80L694.40 23.60Q694.40 24 694 24L694 24L629.20 24Q628.80 24 628.80 23.60L628.80 23.60L628.80 21.80Q628.80 21.40 629.20 21.40L629.20 21.40L694 21.40ZM662.50 4.90Q662.90 4.90 662.90 5.30L662.90 5.30L662.90 94.40Q662.90 94.80 662.50 94.80L662.50 94.80L660.70 94.80Q660.30 94.80 660.30 94.40L660.30 94.40L660.30 5.30Q660.30 4.90 660.70 4.90L660.70 4.90L662.50 4.90ZM644.30 32.30Q644.70 32.40 644.70 32.80L644.70 32.80Q640.90 63.20 631.20 88.50L631.20 88.50Q631.10 88.80 630.70 88.70L630.70 88.70L629.10 88.10Q628.70 88 628.80 87.50L628.80 87.50Q633.70 74.70 637 60.95Q640.30 47.20 642 32.40L642 32.40Q642.10 32 642.50 32.10L642.50 32.10L644.30 32.30ZM680.70 32.10Q681.10 32 681.10 32.40L681.10 32.40Q685.10 63.30 694.40 87.50L694.40 87.50Q694.60 88 694.10 88.10L694.10 88.10L692.50 88.70Q692.10 88.80 692 88.50L692 88.50Q687.10 75.50 683.75 61.55Q680.40 47.60 678.60 32.80L678.60 32.80Q678.50 32.40 678.90 32.30L678.90 32.30L680.70 32.10ZM680.20 72.40Q680.60 72.40 680.60 72.80L680.60 72.80L680.60 74.60Q680.60 75 680.20 75L680.20 75L643 75Q642.60 75 642.60 74.60L642.60 74.60L642.60 72.80Q642.60 72.40 643 72.40L643 72.40L680.20 72.40ZM616.70 32.40Q617.10 32.40 617.10 32.80L617.10 32.80L617.10 94.40Q617.10 94.80 616.70 94.80L616.70 94.80L614.90 94.80Q614.50 94.80 614.50 94.40L614.50 94.40L614.50 32.80Q614.50 32.40 614.90 32.40L614.90 32.40L616.70 32.40ZM627.40 5Q627.60 5.10 627.70 5.20Q627.80 5.30 627.70 5.50L627.70 5.50Q623 18.90 617.15 31.30Q611.30 43.70 604.20 55.10L604.20 55.10Q604.10 55.30 603.95 55.35Q603.80 55.40 603.70 55.30L603.70 55.30L602.10 54.30Q601.80 54.20 602 53.70L602 53.70Q615.50 32.30 625.30 4.70L625.30 4.70Q625.40 4.50 625.50 4.40Q625.60 4.30 625.80 4.40L625.80 4.40L627.40 5Z"/></svg>