<svg xmlns="http://www.w3.org/2000/svg" xmlns:xlink="http://www.w3.org/1999/xlink" width="964.6999999999999" height="140"><path d="M38.80 20.40L38.80 36.50Q38.10 40.80 36.45 48.10Q34.80 55.40 33.90 59.20L33.90 59.20Q37.30 66.80 38.65 72.55Q40 78.30 40 84.20L40 84.20Q40 90.50 39.10 93.75Q38.20 97 36.25 98.40Q34.30 99.80 30.50 100.50L30.50 100.50L24.60 101.70L20.70 87.60L20.70 111.20L7 111.20L7 20.40L38.80 20.40ZM41.10 22.30L95.70 22.30L95.70 37.80L90.30 37.80L90.30 95.90Q90.30 101.90 89.10 104.85Q87.90 107.80 84.80 109.20Q81.70 110.60 75.20 111.30L75.20 111.30L68.90 112L63.40 94.50L70.30 93.80Q72.90 93.50 73.80 92.55Q74.70 91.60 74.70 89.10L74.70 89.10L74.70 37.80L41.10 37.80L41.10 22.30ZM20.70 85.30L23.90 84.70Q25.40 84.40 26.10 83.35Q26.80 82.30 26.80 79.10L26.80 79.10Q26.60 71.90 21.40 61.60L21.40 61.60Q22.50 56.90 24.05 49.35Q25.60 41.80 26.60 35.30L26.60 35.30L20.70 35.30L20.70 85.30ZM41.30 88.60L41.30 43.10L70.50 43.10L70.50 88.60L41.30 88.60ZM52.40 56.90L52.40 74.80L58.60 74.80L58.60 56.90L52.40 56.90ZM187.10 89.10L156.30 89.10L156.30 94.50L194.30 94.50L194.30 108.70L102.40 108.70L102.40 94.50L140.60 94.50L140.60 89.10L109.60 89.10L109.60 75.80L140.60 75.80L140.60 70.40L110.10 70.40L110.10 20.80L186.60 20.80L186.60 70.40L156.30 70.40L156.30 75.80L187.10 75.80L187.10 89.10ZM126.20 41.20L140.60 41.20L140.60 35.70L126.20 35.70L126.20 41.20ZM156.30 35.70L156.30 41.20L170.50 41.20L170.50 35.70L156.30 35.70ZM140.60 51.70L126.20 51.70L126.20 57.20L140.60 57.20L140.60 51.70ZM170.50 51.70L156.30 51.70L156.30 57.20L170.50 57.20L170.50 51.70ZM275.80 80.90L292.60 86.50Q292.10 91.80 290.90 96.90L290.90 96.90Q289.70 102.10 288.15 104.65Q286.60 107.20 283.60 108.35Q280.60 109.50 274.70 109.80L274.70 109.80Q262 110.40 248.80 110.40L248.80 110.40Q234.90 110.40 221.40 109.80L221.40 109.80Q215.80 109.50 212.65 108.10Q209.50 106.70 208 103.20Q206.50 99.70 206.50 93.20L206.50 93.20L206.50 21.90L285.80 21.90L285.80 72.60L222.90 72.60L222.90 87.20Q222.90 91 224.35 92.30Q225.80 93.60 229.70 93.80L229.70 93.80Q241.70 94.30 251.10 94.30L251.10 94.30Q261.20 94.30 268.30 93.80L268.30 93.80Q271.70 93.60 272.90 92.40Q274.10 91.20 274.90 87.50L274.90 87.50Q275.70 83.90 275.80 80.90L275.80 80.90ZM222.90 57L239.20 57L239.20 37.70L222.90 37.70L222.90 57ZM254.40 37.70L254.40 57L269.20 57L269.20 37.70L254.40 37.70ZM374.80 80.90L391.60 86.50Q391.10 91.80 389.90 96.90L389.90 96.90Q388.70 102.10 387.15 104.65Q385.60 107.20 382.60 108.35Q379.60 109.50 373.70 109.80L373.70 109.80Q361 110.40 347.80 110.40L347.80 110.40Q333.90 110.40 320.40 109.80L320.40 109.80Q314.80 109.50 311.65 108.10Q308.50 106.70 307 103.20Q305.50 99.70 305.50 93.20L305.50 93.20L305.50 21.90L384.80 21.90L384.80 72.60L321.90 72.60L321.90 87.20Q321.90 91 323.35 92.30Q324.80 93.60 328.70 93.80L328.70 93.80Q340.70 94.30 350.10 94.30L350.10 94.30Q360.20 94.30 367.30 93.80L367.30 93.80Q370.70 93.60 371.90 92.40Q373.10 91.20 373.90 87.50L373.90 87.50Q374.70 83.90 374.80 80.90L374.80 80.90ZM321.90 57L338.20 57L338.20 37.70L321.90 37.70L321.90 57ZM353.40 37.70L353.40 57L368.20 57L368.20 37.70L353.40 37.70ZM476.80 52L489.90 52L489.90 64.60L401 64.60L401 52L413 52Q409.40 47 405 42L405 42L411.80 37.20L403.20 37.20L403.20 24.30L421.80 24.30Q419.50 19.40 418.90 18.50L418.90 18.50L436.20 18.40Q436.90 19.70 438.90 24.30L438.90 24.30L451.90 24.30Q453.60 20.80 454.50 18.40L454.50 18.40L472.10 18.60L469.40 24.30L487.70 24.30L487.70 37.20L478.60 37.20L484.90 41.40Q481.50 46.20 476.80 52L476.80 52ZM427.30 37.20L417.80 37.20Q423.20 43.50 425.80 47.40L425.80 47.40L419.20 52L427.30 52L427.30 37.20ZM442.60 37.20L442.60 52L448.40 52L448.40 37.20L442.60 37.20ZM463.80 52L471.70 52L464.60 47.30Q468.30 42.90 472.30 37.20L472.30 37.20L463.80 37.20L463.80 52ZM481.10 68.40L481.10 109.90L409.90 109.90L409.90 68.40L481.10 68.40ZM425.60 83.40L464.60 83.40L464.60 79.10L425.60 79.10L425.60 83.40ZM464.60 94.10L425.60 94.10L425.60 98.30L464.60 98.30L464.60 94.10ZM591 102.40L577.10 109.80Q573.60 102.80 569.40 95.90L569.40 95.90Q569.30 98.50 568.10 102.30L568.10 102.30Q567.10 105.60 565.55 107.20Q564 108.80 561 109.45Q558 110.10 552 110.30L552 110.30Q546.80 110.50 543.70 110.50L543.70 110.50Q540.80 110.50 535.40 110.30L535.40 110.30Q528.40 110 525.70 107.30Q523 104.60 523 98.40L523 98.40L523 85.60L538.20 86L538.20 93Q538.20 96.20 538.95 97.35Q539.70 98.50 542 98.70L542 98.70Q543.10 98.80 545.80 98.80L545.80 98.80Q548.60 98.80 549.60 98.70L549.60 98.70Q552.50 98.40 553.40 97.85Q554.30 97.30 554.70 95.30L554.70 95.30L555.30 91.40L548.10 97.10Q546.50 94.70 543.60 91Q540.70 87.30 538.70 85.10L538.70 85.10L542.80 82.20L501.20 83.10L500.60 70.70L536.40 70.50L536.40 67.30L507.30 67.30L507.30 37.80L536.40 37.80L536.40 34.50L501.80 34.50L501.80 23L536.40 23L536.40 18.40L552.30 18.80L552.30 23L586.90 23L586.90 34.50L552.30 34.50L552.30 37.80L581.50 37.80L581.50 67.30L579.10 67.30Q585 75.50 588.30 80.70L588.30 80.70L580.40 85.50Q581.70 87.50 588.50 98.30L588.50 98.30Q589.30 99.80 591 102.40L591 102.40ZM523.20 49.40L536.40 49.40L536.40 46L523.20 46L523.20 49.40ZM552.30 49.40L565.30 49.40L565.30 46L552.30 46L552.30 49.40ZM536.40 56.10L523.20 56.10L523.20 59.50L536.40 59.50L536.40 56.10ZM565.30 56.10L552.30 56.10L552.30 59.50L565.30 59.50L565.30 56.10ZM563.80 67.30L552.30 67.30L552.30 70.40L565.70 70.30L563.80 67.30ZM559.20 88.40L556.50 90.50L568.90 94.90Q565.70 89.80 564.60 88.10L564.60 88.10L573.90 83.80L572.60 81.60L553.70 82Q557.60 86.30 559.20 88.40L559.20 88.40ZM510.80 111.40L497.40 104.30Q500.20 100 503.45 94.15Q506.70 88.30 508.80 83.60L508.80 83.60L522.20 89.60Q516.50 102.20 510.80 111.40L510.80 111.40ZM690.90 78.60L683.30 97.70Q678.20 91.30 674.70 86.20L674.70 86.20L674.70 98.90L663.40 98.90L663.40 111.30L646.40 111.30L646.30 98.90L634.70 98.90L634.70 87.60Q630.90 93.20 626.80 98.10L626.80 98.10L621.80 86.60L621.80 111.10L606.50 111.10L606.50 70.20Q603.80 74.30 600.20 79L600.20 79L595.70 55.50Q601.40 46.20 605.45 37.65Q609.50 29.10 612.10 18.90L612.10 18.90L628.70 21.60Q625.60 32.10 621.80 41.60L621.80 41.60L621.80 75.40Q633.90 63.10 639.60 47.30L639.60 47.30L626.30 47.30L626.30 30.50L646.30 30.50L646.40 18.60L663.40 19L663.40 30.50L686.60 30.50L686.60 47.30L667.50 47.30Q671.40 55.10 677.65 63.30Q683.90 71.50 690.90 78.60L690.90 78.60ZM646.90 83.80L646.90 62.50Q643.30 73.60 637.10 83.80L637.10 83.80L646.90 83.80ZM662.80 66.30L662.80 83.80L673 83.80Q666.80 74.40 662.80 66.30L662.80 66.30ZM699.60 100L699.60 30.60L725.50 30.60Q733.70 30.60 739.10 31.80Q744.50 33 747.70 35.35Q750.90 37.70 752.20 41.25Q753.50 44.80 753.50 49.50L753.50 49.50Q753.50 54.90 751.30 58.35Q749.10 61.80 743.40 63.40L743.40 63.40L743.40 63.80Q748.80 65.50 752.05 69.20Q755.30 72.90 755.30 79.80L755.30 79.80Q755.30 84.50 754.05 88.25Q752.80 92 749.65 94.60Q746.50 97.20 741.15 98.60Q735.80 100 727.70 100L727.70 100L699.60 100ZM719.50 57.90L723.20 57.90Q728.80 57.90 731.25 56.85Q733.70 55.80 733.70 51.90L733.70 51.90Q733.70 48.20 731.25 47.20Q728.80 46.20 723.20 46.20L723.20 46.20L719.50 46.20L719.50 57.90ZM719.50 84.30L724.70 84.30Q727.70 84.30 729.75 84.05Q731.80 83.80 733 83.10Q734.20 82.40 734.70 81.20Q735.20 80 735.20 78.20L735.20 78.20Q735.20 76.40 734.70 75.15Q734.20 73.90 733 73.15Q731.80 72.40 729.80 72.05Q727.80 71.70 724.70 71.70L724.70 71.70L719.50 71.70L719.50 84.30ZM784.10 100.60L784.10 100.60Q778.50 100.60 774.90 99.65Q771.30 98.70 769.25 96.70Q767.20 94.70 766.40 91.70Q765.60 88.70 765.60 84.60L765.60 84.60L765.60 24L784.60 24L784.60 80.10Q784.60 83.50 785.50 84.70Q786.40 85.90 788.70 85.90L788.70 85.90Q789.20 85.90 789.60 85.90Q790 85.90 790.80 85.70L790.80 85.70L790.80 100Q787.50 100.60 784.10 100.60ZM821 45.10L821 45.10Q828.10 45.10 833.10 46.15Q838.10 47.20 841.30 49.45Q844.50 51.70 845.95 55.15Q847.40 58.60 847.40 63.30L847.40 63.30L847.40 100L830.20 100L828.70 95Q828.10 96 826.90 97.05Q825.70 98.10 823.80 99Q821.90 99.90 819.25 100.45Q816.60 101 813 101L813 101Q804.50 101 799.55 97Q794.60 93 794.60 84.30L794.60 84.30Q794.60 75 800.10 71.15Q805.60 67.30 817.40 67.30L817.40 67.30L828.50 67.30Q828.40 65.20 827.90 64Q827.40 62.80 826.25 62.10Q825.10 61.40 823.20 61.20Q821.30 61 818.30 61L818.30 61Q812.40 61 807.20 61.90L807.20 61.90L807.20 46Q810.30 45.50 814.20 45.30Q818.10 45.10 821 45.10ZM819 86.90L819 86.90Q822.50 86.90 824.95 85.90Q827.40 84.90 828.50 83.50L828.50 83.50L828.50 79.30L820.90 79.30Q816.40 79.30 814.70 80.15Q813 81 813 83.40L813 83.40Q813 85.50 814.55 86.20Q816.10 86.90 819 86.90ZM885.30 101L885.30 101Q878.70 101 873.50 99.75Q868.30 98.50 864.70 95.35Q861.10 92.20 859.20 86.75Q857.30 81.30 857.30 73L857.30 73Q857.30 64.70 859.20 59.25Q861.10 53.80 864.70 50.65Q868.30 47.50 873.50 46.25Q878.70 45 885.30 45L885.30 45Q888.90 45 892.65 45.35Q896.40 45.70 899.10 46.50L899.10 46.50L899.10 61.90Q896.40 60.90 893.90 60.55Q891.40 60.20 888.60 60.20L888.60 60.20Q885.70 60.20 883.45 60.80Q881.20 61.40 879.65 62.85Q878.10 64.30 877.30 66.75Q876.50 69.20 876.50 73L876.50 73Q876.50 76.80 877.30 79.25Q878.10 81.70 879.65 83.10Q881.20 84.50 883.55 85.05Q885.90 85.60 889 85.60L889 85.60Q891.60 85.60 894.25 85.25Q896.90 84.90 899.80 83.80L899.80 83.80L899.80 98.90Q898.60 99.40 896.90 99.75Q895.20 100.10 893.25 100.40Q891.30 100.70 889.25 100.85Q887.20 101 885.30 101ZM947.50 71.20L964.50 100L941.80 100L931 78.70L928.80 78.70L928.80 100L909.80 100L909.80 24L928.80 24L928.80 64.20L932 64.20L942.50 46L963.90 46L947.50 71.20Z"/></svg>