<svg xmlns="http://www.w3.org/2000/svg" xmlns:xlink="http://www.w3.org/1999/xlink" width="807.8125" height="107.421875"><path d="M24.61 30.08L24.61 30.08L28.52 30.08Q31.64 30.08 33.20 37.89L33.20 37.89Q32.03 44.14 32.03 49.61L32.03 49.61Q33.59 49.22 33.98 49.22L33.98 49.22L39.06 47.66L42.19 52.73L39.45 56.25L32.03 57.81L32.42 62.89L41.80 70.70Q42.19 77.34 37.50 79.30L37.50 79.30L34.38 76.56Q31.64 73.44 32.03 73.44L32.03 73.44Q31.64 78.13 31.64 101.17L31.64 101.17L32.42 105.47Q31.64 107.03 31.64 108.98L31.64 108.98Q25.78 108.98 22.27 103.91L22.27 103.91Q23.44 87.50 23.44 83.20L23.44 83.20L23.44 79.30Q21.88 80.86 13.67 85.94L13.67 85.94L7.81 85.94Q23.44 67.58 23.83 60.94L23.83 60.94Q23.83 59.77 24.61 59.77L24.61 59.77L19.53 61.72L16.80 61.72Q12.89 58.98 12.89 55.08L12.89 55.08Q21.48 52.73 25 51.17L25 51.17Q25 39.84 25 35.94L25 35.94Q24.61 32.81 24.61 30.08ZM44.92 35.94L63.67 31.25L69.14 32.42Q71.48 33.59 73.83 37.89L73.83 37.89Q67.58 43.75 56.25 58.98L56.25 58.98L56.25 58.20L58.20 57.81Q69.14 55.86 76.56 55.08L76.56 55.08Q86.72 53.91 91.41 62.89L91.41 62.89Q91.02 75.78 74.61 111.33L74.61 111.33L72.27 111.33Q70.70 111.33 53.91 99.61L53.91 99.61L52.34 100L42.58 107.03L42.58 102.34Q62.11 77.73 64.06 67.97L64.06 67.97L66.80 66.02L68.75 66.02Q71.88 67.19 71.88 69.92L71.88 69.92Q71.88 77.73 56.64 95.70L56.64 95.70Q56.64 95.31 66.80 98.83L66.80 98.83L70.31 98.44Q75 91.80 81.25 64.84L81.25 64.84Q80.86 62.89 72.66 63.67L72.66 63.67Q66.02 64.84 53.91 66.41L53.91 66.41L45.31 67.97L44.14 62.89L47.66 58.59Q56.25 44.14 57.81 40.23L57.81 40.23L57.81 40.63L60.16 40.63L45.70 42.97L44.92 38.67L44.92 35.94ZM50.78 67.58L50.78 67.58L54.30 67.58Q58.59 67.58 57.03 71.48L57.03 71.48Q55.47 80.08 42.58 93.75L42.58 93.75L35.16 95.31Q46.09 78.13 50.78 67.58ZM166.80 32.03L166.80 32.03Q169.53 33.20 171.88 33.20L171.88 33.20L171.88 39.06L164.45 45.70L164.45 45.70Q164.45 51.56 164.84 61.33L164.84 61.33Q167.97 60.94 177.34 59.77L177.34 59.77L183.59 58.98L188.28 60.16Q191.80 63.28 191.80 65.63Q191.80 67.97 188.67 68.16Q185.55 68.36 177.73 69.14L177.73 69.14Q164.84 70.31 164.84 69.92L164.84 69.92Q165.23 83.20 164.84 88.28L164.84 88.28L164.84 88.28Q174.61 87.89 175.78 87.11L175.78 87.11Q182.81 88.67 183.98 92.19L183.98 92.19L183.98 97.66Q181.64 97.66 175.78 97.66L175.78 97.66Q170.70 96.88 156.64 98.44L156.64 98.44L151.95 98.83L144.92 100.39Q139.45 96.48 139.45 94.14L139.45 94.14Q139.45 91.02 156.64 89.06L156.64 89.06Q155.86 83.98 156.64 72.27L156.64 72.27Q156.64 72.27 154.69 73.05L154.69 73.05Q141.80 75.39 138.67 75.39L138.67 75.39Q137.50 74.61 134.77 74.61L134.77 74.61L132.81 68.75Q156.64 63.67 156.64 64.06L156.64 64.06L156.64 55.86Q157.03 50.39 156.25 49.61L156.25 49.61Q155.86 49.61 147.27 51.56L147.27 51.56L144.14 51.56L144.14 45.70Q147.66 45.70 166.80 32.03ZM131.64 33.98L131.64 33.98Q138.28 35.16 136.33 43.75L136.33 43.75Q128.13 52.34 128.13 53.91L128.13 53.91Q130.08 62.50 130.08 69.92L130.08 69.92Q130.08 74.22 129.69 95.31L129.69 95.31L130.08 102.34L126.95 104.69L125.39 104.69Q123.44 104.69 120.70 97.27L120.70 97.27Q121.48 82.81 121.48 69.92L121.48 69.92Q120.70 59.38 120.70 60.55L120.70 60.55L106.64 73.44L106.64 69.14Q107.03 66.02 126.56 41.80L126.56 41.80Q128.91 38.28 131.64 33.98ZM238.28 23.44L241.41 22.66L242.58 22.66Q244.14 22.66 246.88 26.56L246.88 26.56L246.09 39.06Q246.48 39.06 261.72 37.50L261.72 37.50L264.06 37.50Q264.84 37.89 264.84 55.86L264.84 55.86Q266.80 45.70 264.06 45.70Q261.33 45.70 258.59 45.70L258.59 45.70Q243.36 45.70 242.97 51.17L242.97 51.17L235.94 70.31L235.94 70.31Q244.92 70.31 244.92 65.23L244.92 65.23L244.92 63.28Q244.92 57.42 244.92 56.25L244.92 56.25L247.27 54.69L248.44 54.69Q252.73 54.69 253.52 65.63L253.52 65.63L263.67 65.23Q269.53 67.19 269.53 69.92L269.53 69.92L269.53 70.70Q268.75 73.83 261.33 73.83L261.33 73.83L253.13 75.78Q253.52 103.13 253.52 103.13L253.52 103.13L250.39 116.02L252.34 111.33Q244.53 111.33 234.38 100.78L234.38 100.78L234.38 99.22Q234.38 96.48 237.50 96.48L237.50 96.48Q243.36 100 244.14 99.61L244.14 99.61L244.14 100Q244.53 77.73 244.92 77.73L244.92 77.73L241.80 78.52Q237.11 78.52 226.56 82.03L226.56 82.03Q223.83 78.52 223.83 77.73L223.83 77.73L225.39 73.44Q228.52 71.48 233.98 50L233.98 50Q233.59 50 229.30 49.22L229.30 49.22L228.52 49.22Q226.95 49.22 224.61 45.70L224.61 45.70Q224.61 43.36 236.72 41.41L236.72 41.41Q238.67 31.64 238.67 28.52L238.67 28.52L238.28 23.44ZM221.88 84.38L221.88 84.38L221.88 84.38Q225 84.38 227.34 89.06L227.34 89.06Q224.61 101.17 220.70 103.91L220.70 103.91L218.36 103.91Q215.63 103.91 215.63 100.78L215.63 100.78L215.63 97.66Q219.53 84.38 221.88 84.38ZM264.06 82.81L266.41 81.64Q275.39 83.20 283.98 92.58L283.98 92.58L284.77 98.44Q283.98 101.17 281.25 101.17L281.25 101.17Q271.88 98.44 264.06 82.81L264.06 82.81ZM354.69 29.30L358.59 27.34L362.89 35.16L362.11 40.63L362.11 40.63Q366.80 40.63 383.59 38.28L383.59 38.28Q385.55 38.67 387.89 38.67L387.89 38.67L387.89 42.19Q387.89 45.70 374.61 48.05L374.61 48.05Q375.39 55.47 375.78 71.48L375.78 71.48Q375.78 74.61 375.78 95.70L375.78 95.70Q375.39 101.17 375.39 102.34L375.39 102.34Q373.44 107.42 370.70 107.42L370.70 107.42Q366.02 107.42 353.13 98.05L353.13 98.05L353.13 92.97L364.84 96.48L366.41 96.48L366.80 86.33L366.80 63.67Q366.80 57.03 366.80 56.64L366.80 56.64Q366.02 48.83 365.63 48.83L365.63 48.83L360.55 49.22Q360.55 50.39 354.30 57.42L354.30 57.42L346.09 64.45L343.36 60.55Q354.69 46.88 354.69 29.30L354.69 29.30ZM319.53 40.63L319.92 33.20L324.22 33.20L328.52 40.23L327.34 44.92L327.73 45.31Q344.14 42.97 351.17 42.97L351.17 42.97L349.22 47.66Q349.22 50.78 334.38 53.13L334.38 53.13L335.16 60.55Q335.55 107.42 327.73 104.30L327.73 104.30L325 99.22Q325.78 93.36 326.17 85.55L326.17 85.55L326.17 55.47Q326.17 54.69 325.39 54.69L325.39 54.69L324.61 54.30Q323.05 57.03 311.33 65.63L311.33 65.63L307.42 65.63Q319.53 44.92 319.53 40.63L319.53 40.63ZM428.91 38.67L468.75 33.59Q473.05 39.45 473.05 40.23L473.05 40.23Q473.83 42.97 469.92 43.75L469.92 43.75Q463.28 43.36 459.38 43.36L459.38 43.36Q447.27 43.36 444.53 51.56L444.53 51.56Q441.41 60.16 438.28 65.23L438.28 65.23L437.11 64.84Q467.19 59.38 468.36 59.38L468.36 59.38Q474.22 59.38 481.64 67.58L481.64 67.58L479.30 71.09Q475.78 79.69 472.66 84.38L472.66 84.38Q472.66 84.77 477.34 91.41L477.34 91.41L477.34 92.97Q478.52 94.92 474.22 96.48L474.22 96.48L471.09 94.92Q458.59 94.92 441.02 98.05L441.02 98.05L441.02 104.30L439.06 104.30Q431.25 104.30 430.47 77.34L430.47 77.34Q429.69 77.34 429.69 79.30L429.69 79.30Q418.75 92.97 407.42 95.31L407.42 95.31L407.42 91.80Q427.73 74.61 435.55 50.78L435.55 50.78Q437.11 46.88 435.16 44.14L435.16 44.14Q433.98 44.53 426.56 43.36L426.56 43.36L426.56 38.67L428.91 38.67ZM440.63 71.88L440.63 71.88Q435.55 72.27 435.55 71.48L435.55 71.48Q438.28 76.17 440.63 87.89L440.63 87.89L441.41 89.06L444.53 89.06Q461.33 87.11 464.45 82.81L464.45 82.81Q464.45 81.64 467.97 69.14L467.97 69.14Q467.97 69.53 465.63 69.53L465.63 69.53Q458.20 70.31 440.63 71.88ZM549.61 19.92L549.61 19.92L554.30 21.88Q558.20 23.44 557.42 41.80L557.42 41.80L560.55 41.41L571.48 39.84Q573.05 40.63 575.39 40.63L575.39 40.63L575.39 44.92Q575.39 48.83 558.59 50L558.59 50Q557.42 50 557.42 51.17L557.42 51.17Q557.81 53.91 578.13 74.61L578.13 74.61Q583.20 78.52 591.41 82.42L591.41 82.42L597.66 84.77Q590.63 88.67 587.89 88.28L587.89 88.28Q581.64 93.36 556.64 62.89L556.64 62.89L556.64 63.28L556.64 64.06L556.64 78.52L555.86 78.52Q560.55 78.52 569.14 77.34L569.14 77.34L571.48 82.03L571.48 82.81Q571.48 87.11 557.03 88.28L557.03 88.28Q557.42 98.05 556.64 107.42L556.64 107.42Q555.47 108.98 555.47 110.94L555.47 110.94L551.95 110.94Q550.78 110.94 547.66 105.08L547.66 105.08L548.05 92.58L548.05 89.45Q542.58 91.02 538.28 87.89L538.28 87.89L535.16 85.55L535.16 82.42Q548.44 80.86 548.83 80.08L548.83 80.08Q548.83 67.19 548.83 64.45L548.83 64.45L548.44 64.84Q532.03 89.06 527.34 91.41L527.34 91.41L524.61 91.41L524.61 87.50Q535.94 71.09 546.48 53.13L546.48 53.13L546.48 52.34L543.36 52.34L542.58 52.34L537.50 52.34Q532.42 50.39 532.42 48.05L532.42 48.05L532.42 44.92Q549.61 44.14 549.61 42.97L549.61 42.97L549.61 41.41Q549.61 25.39 549.61 19.92ZM525 31.64L525 31.64L526.95 31.64Q529.69 31.64 531.25 37.89L531.25 37.89L531.25 40.23Q528.52 45.31 522.27 53.91L522.27 53.91Q523.05 57.42 522.66 64.45L522.66 64.45L522.66 98.83L521.48 105.86L517.58 105.86Q515.23 105.86 513.67 99.22L513.67 99.22Q513.67 98.05 514.45 85.55L514.45 85.55L514.45 76.56Q514.45 69.53 514.45 58.20L514.45 58.20L515.23 58.98Q503.91 67.19 501.17 67.19L501.17 67.19L501.17 64.06Q519.14 44.92 525 31.64ZM642.19 65.23L642.19 65.23L644.14 69.92L644.14 73.44L637.50 73.83Q626.56 74.22 607.42 74.22L607.42 74.22L604.69 69.53Q605.47 66.02 609.77 66.02L609.77 66.02Q625.78 65.23 642.19 65.23ZM660.55 35.94L676.17 35.55Q691.80 39.06 691.80 48.44L691.80 48.44Q692.58 55.47 685.94 60.94L685.94 60.94Q701.17 60.94 702.73 77.73L702.73 77.73Q704.69 94.53 679.30 100.39L679.30 100.39Q673.05 101.17 671.48 101.17L671.48 101.17L657.42 100.39Q656.25 94.92 656.25 79.30L656.25 79.30L656.25 67.97Q656.25 67.19 656.25 65.63L656.25 65.63Q655.86 35.94 660.55 35.94L660.55 35.94ZM664.45 43.36L664.45 43.36L664.06 46.48Q663.67 53.13 663.67 62.89L663.67 62.89L664.45 63.28Q672.66 63.28 682.81 52.73L682.81 52.73Q684.38 48.05 684.38 46.88L684.38 46.88Q682.81 42.58 675.39 42.58L675.39 42.58L669.14 42.58Q665.23 43.36 664.45 43.36ZM663.67 74.61L663.67 74.61L663.67 82.81L663.67 91.80Q664.06 93.75 677.34 92.19L677.34 92.19Q694.92 87.89 694.53 77.73L694.53 77.73L694.14 74.61Q691.41 69.53 684.77 68.75L684.77 68.75L677.34 69.14Q667.97 70.31 663.67 74.61ZM720.31 62.50L722.66 62.50Q737.89 63.28 739.06 82.03L739.06 82.03Q738.28 98.44 721.48 101.17L721.48 101.17Q705.86 101.17 705.47 82.42L705.47 82.42Q708.59 63.67 720.31 62.50L720.31 62.50ZM714.45 79.30L714.45 79.30L714.06 84.77Q714.45 91.80 721.48 93.36L721.48 93.36Q730.86 90.63 730.86 82.42L730.86 82.42Q732.42 71.88 721.88 70.31L721.88 70.31Q714.84 71.88 714.45 79.30ZM748.05 37.50L748.05 37.50Q753.91 33.98 755.86 38.67L755.86 38.67Q754.69 50.78 753.91 57.42L753.91 57.42L752.34 80.47Q751.17 89.06 754.30 90.63L754.30 90.63L756.64 90.23L760.94 87.11Q762.50 87.11 765.23 89.84L765.23 89.84Q765.23 95.31 755.47 100.78L755.47 100.78Q741.41 100.39 744.92 78.91L744.92 78.91Q744.92 73.83 748.05 37.50ZM797.66 32.81L797.66 32.81L801.17 33.59Q804.69 33.59 804.69 37.89L804.69 37.89Q799.22 66.41 798.83 80.47L798.83 80.47Q799.22 92.19 807.42 92.58L807.42 92.58L808.98 96.09L808.98 97.27Q808.98 99.22 804.69 101.95L804.69 101.95Q791.41 99.61 791.41 98.05L791.41 98.05Q792.19 91.41 782.42 99.61L782.42 99.61L778.91 100.39Q765.23 99.61 766.02 84.77L766.02 84.77Q767.97 65.23 782.03 62.50L782.03 62.50Q792.19 61.33 792.19 61.72L792.19 61.72Q792.58 60.16 797.66 32.81ZM774.61 85.16L774.61 85.16Q774.61 91.41 777.73 91.41L777.73 91.41Q782.03 91.41 789.45 74.61L789.45 74.61Q789.45 70.70 786.33 69.92L786.33 69.92L783.98 69.92Q776.95 71.09 774.61 85.16Z"/></svg>