<svg xmlns="http://www.w3.org/2000/svg" xmlns:xlink="http://www.w3.org/1999/xlink" width="909.0999999999999" height="140"><path d="M37.40 23.80L37.40 33.80L30.90 55.70Q34.90 61.90 36.55 67.55Q38.20 73.20 38.20 79.30L38.20 79.30Q38.20 85.40 37.15 88.40Q36.10 91.40 33.50 92.75Q30.90 94.10 25.50 95L25.50 95L23.30 95.40L19.70 84.90L22.70 84.50Q25.50 84.20 26.75 83.65Q28 83.10 28.45 81.70Q28.90 80.30 28.90 77.30L28.90 77.30Q28.90 70 20.60 57.60L20.60 57.60L27.60 33.80L19.10 33.80L19.10 109.80L9.10 109.80L9.10 23.80L37.40 23.80ZM40.50 25.50L92.90 25.50L92.90 35.60L87.10 35.60L87.10 95.30Q87.10 100.70 86.05 103.55Q85 106.40 82.10 107.75Q79.20 109.10 73.20 109.50L73.20 109.50L64.60 110.10L61.40 99L69.50 98.50Q72.60 98.30 74.05 97.70Q75.50 97.10 76.05 95.75Q76.60 94.40 76.60 91.70L76.60 91.70L76.60 35.60L40.50 35.60L40.50 25.50ZM42.40 87.90L42.40 45.60L69.50 45.60L69.50 87.90L42.40 87.90ZM51.80 55.60L51.80 78.10L59.90 78.10L59.90 55.60L51.80 55.60ZM183.30 90.30L152.90 90.30L152.90 98.90L190.80 98.90L190.80 108.70L103.90 108.70L103.90 98.90L141.90 98.90L141.90 90.30L111.60 90.30L111.60 80L141.90 80L141.90 72L112.10 72L112.10 24.60L182.70 24.60L182.70 72L152.90 72L152.90 80L183.30 80L183.30 90.30ZM123 43.60L141.90 43.60L141.90 34.20L123 34.20L123 43.60ZM152.90 34.20L152.90 43.60L171.80 43.60L171.80 34.20L152.90 34.20ZM141.90 53L123 53L123 62.30L141.90 62.30L141.90 53ZM171.80 53L152.90 53L152.90 62.30L171.80 62.30L171.80 53ZM278.70 82.70L290 86.60Q289.80 90.90 288.90 95.10L288.90 95.10Q287.80 100.20 286.25 102.80Q284.70 105.40 281.65 106.70Q278.60 108 272.60 108.30L272.60 108.30Q262.80 108.80 248.50 108.80L248.50 108.80Q234.30 108.80 224.40 108.30L224.40 108.30Q218.50 108 215.15 106.45Q211.80 104.90 210.30 101.45Q208.80 98 208.80 91.70L208.80 91.70L208.80 24.80L282 24.80L282 69.40L220.20 69.40L220.20 88.40Q220.20 92.20 220.80 94Q221.40 95.80 223.10 96.55Q224.80 97.30 228.40 97.50L228.40 97.50Q238.60 98.10 249.40 98.10L249.40 98.10Q259.60 98.10 269.20 97.50L269.20 97.50Q272.60 97.30 274.25 96.65Q275.90 96 276.65 94.55Q277.40 93.10 277.90 90.10L277.90 90.10Q278.60 86.30 278.70 82.70L278.70 82.70ZM220.20 58.60L239.90 58.60L239.90 35.50L220.20 35.50L220.20 58.60ZM251.10 35.50L251.10 58.60L270.30 58.60L270.30 35.50L251.10 35.50ZM377.10 82.70L388.40 86.60Q388.20 90.90 387.30 95.10L387.30 95.10Q386.20 100.20 384.65 102.80Q383.10 105.40 380.05 106.70Q377.00 108 371.00 108.30L371.00 108.30Q361.20 108.80 346.90 108.80L346.90 108.80Q332.70 108.80 322.80 108.30L322.80 108.30Q316.90 108 313.55 106.45Q310.20 104.90 308.70 101.45Q307.20 98 307.20 91.70L307.20 91.70L307.20 24.80L380.40 24.80L380.40 69.40L318.60 69.40L318.60 88.40Q318.60 92.20 319.20 94Q319.80 95.80 321.50 96.55Q323.20 97.30 326.80 97.50L326.80 97.50Q337.00 98.10 347.80 98.10L347.80 98.10Q358.00 98.10 367.60 97.50L367.60 97.50Q371.00 97.30 372.65 96.65Q374.30 96 375.05 94.55Q375.80 93.10 376.30 90.10L376.30 90.10Q377.00 86.30 377.10 82.70L377.10 82.70ZM318.60 58.60L338.30 58.60L338.30 35.50L318.60 35.50L318.60 58.60ZM349.50 35.50L349.50 58.60L368.70 58.60L368.70 35.50L349.50 35.50ZM468.30 54.60L486.60 54.60L486.60 63.70L398.90 63.70L398.90 54.60L416.90 54.60Q414.80 51.80 411.70 48.35Q408.60 44.90 406.30 42.80L406.30 42.80L411.20 37.90L403.40 37.90L403.40 28.70L423.10 28.70Q420.60 24.80 418.20 22.40L418.20 22.40L426.80 17.10Q432.10 23.60 434.10 26.80L434.10 26.80L431.50 28.70L450.40 28.70Q452.70 26.10 455.05 22.70Q457.40 19.30 458.70 16.90L458.70 16.90L467.60 22.40L463.30 28.70L482.10 28.70L482.10 37.90L473.90 37.90L479.10 42Q476.50 45.90 468.30 54.60L468.30 54.60ZM427.60 37.90L415.20 37.90Q421.20 43.70 425 48.90L425 48.90L419.50 54.60L427.60 54.60L427.60 37.90ZM438.30 37.90L438.30 54.60L447.40 54.60L447.40 37.90L438.30 37.90ZM457.90 54.60L466.10 54.60L460 49.60Q462.50 47.30 465.45 44Q468.40 40.70 470.50 37.90L470.50 37.90L457.90 37.90L457.90 54.60ZM421.40 105.70L421.40 110.10L411.10 110.10L411.10 68.90L474.40 68.90L474.40 110L464.10 110L464.10 105.70L421.40 105.70ZM421.40 83.30L464.10 83.30L464.10 77.90L421.40 77.90L421.40 83.30ZM464.10 92L421.40 92L421.40 97.50L464.10 97.50L464.10 92ZM583.60 81.50L576.40 87.70Q581.40 95 585.30 101.20L585.30 101.20L576.50 106.90Q572.80 100.10 570.35 96.10Q567.90 92.10 564.50 87.20L564.50 87.20L572.80 82.70Q572.30 82.10 572 81.60Q571.70 81.10 571.40 80.70L571.40 80.70L543 81.50Q549.60 87.40 552.10 90.90L552.10 90.90L545.90 97.70Q541.70 92.20 534.80 85.50L534.80 85.50L538.90 81.70L508.90 82.60L517.20 87.10Q512.60 95.80 504.50 107.70L504.50 107.70L495.60 102.30Q502.80 93.10 508.60 82.60L508.60 82.60L500.20 82.90L500 74.20Q501.70 74.10 505.40 74.05Q509.10 74 514.40 73.90L514.40 73.90Q520.70 73.90 526.25 73.80Q531.80 73.70 536 73.60L536 73.60L536 68.30L505.90 68.30L505.90 38.80L536 38.80L536 34.70L499.90 34.70L499.90 26.20L536 26.20L536 19.60L545.80 20L545.80 26.20L582 26.20L582 34.70L545.80 34.70L545.80 38.80L575.70 38.80L575.70 68.30L573.70 68.30Q579.40 75.40 583.60 81.50L583.60 81.50ZM516.60 50.30L536 50.30L536 46.40L516.60 46.40L516.60 50.30ZM545.80 50.30L565.10 50.30L565.10 46.40L545.80 46.40L545.80 50.30ZM536 56.90L516.60 56.90L516.60 61L536 61L536 56.90ZM545.80 61L565.10 61L565.10 56.90L545.80 56.90L545.80 61ZM545.80 68.30L545.80 73.50L565.90 73.20L564.10 70.80L567.70 68.30L545.80 68.30ZM555.20 89.50L555.20 89.50L565.10 92.80Q564.80 95.70 564.40 97.45Q564 99.20 563.90 99.60L563.90 99.60Q563.10 102.80 561.60 104.55Q560.10 106.30 557.35 107.20Q554.60 108.10 549.70 108.40L549.70 108.40Q546.70 108.60 540.70 108.60L540.70 108.60Q534.70 108.60 531.70 108.40L531.70 108.40Q525 108.10 522.10 105.85Q519.20 103.60 519.20 98.70L519.20 98.70L519.20 85L530.20 85.40L530.20 95.20Q530.20 97.80 531.15 98.55Q532.10 99.30 535.10 99.50L535.10 99.50Q539.50 99.70 541.80 99.70L541.80 99.70Q544 99.70 548.40 99.50L548.40 99.50Q551.60 99.40 552.75 98.60Q553.90 97.80 554.40 95.60L554.40 95.60Q554.90 93.50 555.20 89.50ZM680.80 45.60L658.20 45.60Q662.70 56.40 669.85 65.80Q677 75.20 686.90 84.10L686.90 84.10L679.50 94.30Q671.80 86.80 665.35 77.45Q658.90 68.10 654.40 58L654.40 58L654.40 84.20L669.50 84.20L669.50 94.20L654.40 94.20L654.40 110L643.70 110L643.70 94.20L629.50 94.20L629.50 84.20L643.70 84.20L643.70 58.60Q639.60 68.50 634.10 77.20Q628.60 85.90 620.60 94.20L620.60 94.20L616.20 88.20L616.20 109.40L605.70 109.40L605.70 62.90Q602.60 67.90 598.50 73.20L598.50 73.20L591.80 63.30Q597.70 54.90 603.40 43.35Q609.10 31.80 612.40 20.40L612.40 20.40L623.40 22.40Q620.30 33.40 616.20 42.90L616.20 42.90L616.20 82.20Q624.40 74.20 630.25 65.35Q636.10 56.50 640.30 45.60L640.30 45.60L620.90 45.60L620.90 35L643.70 35L643.70 19.40L654.40 19.90L654.40 35L680.80 35L680.80 45.60ZM745 49.20L745 49.20Q745 54.90 742.65 58.45Q740.30 62 734.90 63.60L734.90 63.60L734.90 64Q747.10 66.90 747.10 80L747.10 80Q747.10 86.60 744.80 91Q742.50 95.40 736.90 97.70Q731.30 100 721.60 100L721.60 100L696.80 100L696.80 30.60L719.60 30.60Q729.40 30.60 734.95 32.60Q740.50 34.60 742.75 38.65Q745 42.70 745 49.20ZM710.90 88.60L718.30 88.60Q724.20 88.60 727.25 87.80Q730.30 87 731.60 85.05Q732.90 83.10 732.90 79.20L732.90 79.20Q732.90 75.60 731.60 73.60Q730.30 71.60 727.15 70.70Q724 69.80 718.30 69.80L718.30 69.80L710.90 69.80L710.90 88.60ZM710.90 59.50L716.30 59.50Q721.90 59.50 725 58.80Q728.10 58.10 729.60 56.20Q731.10 54.30 731.10 50.60L731.10 50.60Q731.10 46.80 729.65 44.95Q728.20 43.10 725.15 42.50Q722.10 41.90 716.30 41.90L716.30 41.90L710.90 41.90L710.90 59.50ZM757.90 73L757.90 73Q757.90 62.40 760.90 56.25Q763.90 50.10 769.60 47.55Q775.30 45 784.00 45L784.00 45Q792.70 45 798.45 47.55Q804.20 50.10 807.20 56.25Q810.20 62.40 810.20 73L810.20 73Q810.20 83.60 807.20 89.75Q804.20 95.90 798.45 98.45Q792.70 101 784.00 101L784.00 101Q775.30 101 769.60 98.45Q763.90 95.90 760.90 89.75Q757.90 83.60 757.90 73ZM784.00 90.70L784.00 90.70Q788.90 90.70 791.55 89.10Q794.20 87.50 795.30 83.75Q796.40 80 796.40 73L796.40 73Q796.40 66.10 795.25 62.30Q794.10 58.50 791.40 56.85Q788.70 55.20 784.00 55.20L784.00 55.20Q779.20 55.20 776.55 56.85Q773.90 58.50 772.80 62.30Q771.70 66.10 771.70 73L771.70 73Q771.70 79.90 772.85 83.70Q774.00 87.50 776.65 89.10Q779.30 90.70 784.00 90.70ZM822.50 87L822.50 87L822.50 24L836.00 24L836.00 83.80Q836.00 87.40 837.00 88.65Q838.00 89.90 840.60 89.90L840.60 89.90Q842.10 89.90 843.70 89.50L843.70 89.50L843.70 100Q840.90 100.60 837.60 100.60L837.60 100.60Q829.30 100.60 825.90 97.40Q822.50 94.20 822.50 87ZM901.50 24L901.50 100L889.40 100L888.30 92.30Q884.60 101 871.60 101L871.60 101Q863.10 101 858.35 97.65Q853.60 94.30 851.75 88.25Q849.90 82.20 849.90 73L849.90 73Q849.90 60 854.65 52.50Q859.40 45 871.60 45L871.60 45Q878.70 45 882.55 47.15Q886.40 49.30 888.10 53.30L888.10 53.30L888.10 24L901.50 24ZM875.60 90.70L875.60 90.70Q883.10 90.70 885.90 86.40Q888.70 82.10 888.70 73L888.70 73Q888.70 64.30 885.80 59.75Q882.90 55.20 875.60 55.20L875.60 55.20Q870.60 55.20 868.00 57.55Q865.40 59.90 864.60 63.65Q863.80 67.40 863.80 73L863.80 73Q863.80 78.80 864.65 82.55Q865.50 86.30 868.05 88.50Q870.60 90.70 875.60 90.70Z"/></svg>