<svg xmlns="http://www.w3.org/2000/svg" xmlns:xlink="http://www.w3.org/1999/xlink" width="1159.1" height="140"><path d="M38.50 23.30L38.50 35.10Q35.20 46.70 31.70 56.20L31.70 56.20Q32.20 57.40 32.65 58.20Q33.10 59 33.40 59.60L33.40 59.60Q36 64.40 37.40 68.80Q38.80 73.20 38.80 80.70L38.80 80.70Q38.80 86.20 37.45 88.95Q36.10 91.70 33.95 92.70Q31.80 93.70 27.80 94.50L27.80 94.50L23.50 95.30L20.10 83.70L24.10 83Q25.90 82.60 26.65 82.15Q27.40 81.70 27.75 80.45Q28.10 79.20 28.10 76.50L28.10 76.50Q28.10 71.90 26.25 67.65Q24.40 63.40 20.80 57.40L20.80 57.40Q25.30 44.90 27.30 35.10L27.30 35.10L19.90 35.10L19.90 110.30L8.40 110.30L8.40 23.30L38.50 23.30ZM41.20 25.10L92.80 25.10L92.80 37L86.90 37L86.90 93Q86.90 99.60 85.80 102.85Q84.70 106.10 81.65 107.50Q78.60 108.90 72.30 109.40L72.30 109.40L64.20 110L60.90 97.80L68.70 97.20Q71.30 97 72.55 96.30Q73.80 95.60 74.30 94.05Q74.80 92.50 74.80 89.30L74.80 89.30L74.80 37L41.20 37L41.20 25.10ZM41.50 86.80L41.50 45.20L69.90 45.20L69.90 86.80L41.50 86.80ZM51.70 56.10L51.70 76L59.10 76L59.10 56.10L51.70 56.10ZM183 89.50L153.50 89.50L153.50 96.60L190.20 96.60L190.20 107.80L104.20 107.80L104.20 96.60L141.20 96.60L141.20 89.50L111.80 89.50L111.80 78.10L141.20 78.10L141.20 71.40L111.60 71.40L111.60 23.80L183.10 23.80L183.10 71.40L153.50 71.40L153.50 78.10L183 78.10L183 89.50ZM123.80 42.20L141.20 42.20L141.20 35L123.80 35L123.80 42.20ZM153.50 35L153.50 42.20L170.90 42.20L170.90 35L153.50 35ZM141.20 52.90L123.80 52.90L123.80 60.30L141.20 60.30L141.20 52.90ZM170.90 52.90L153.50 52.90L153.50 60.30L170.90 60.30L170.90 52.90ZM277.20 80.70L290.50 85.20Q290.40 88.20 289.10 94.80L289.10 94.80Q288 100.30 286.55 102.95Q285.10 105.60 281.95 106.80Q278.80 108 272.50 108.30L272.50 108.30Q260.70 108.90 249 108.90L249 108.90Q237.40 108.90 225.50 108.30L225.50 108.30Q219.10 108 215.55 106.45Q212 104.90 210.35 101.30Q208.70 97.70 208.70 91.20L208.70 91.20L208.70 23.90L282.10 23.90L282.10 68.90L221.80 68.90L221.80 87.80Q221.80 91.20 222.45 92.85Q223.10 94.50 224.80 95.20Q226.50 95.90 230.10 96.10L230.10 96.10Q240.20 96.70 249.50 96.70L249.50 96.70Q259 96.70 268.60 96.10L268.60 96.10Q271.50 95.90 272.85 95.40Q274.20 94.90 274.90 93.55Q275.60 92.20 276.20 89.20L276.20 89.20Q277 85.30 277.20 80.70L277.20 80.70ZM221.80 56.60L239 56.60L239 36L221.80 36L221.80 56.60ZM251.80 36L251.80 56.60L268.80 56.60L268.80 36L251.80 36ZM375.60 80.70L388.90 85.20Q388.80 88.20 387.50 94.80L387.50 94.80Q386.40 100.30 384.95 102.95Q383.50 105.60 380.35 106.80Q377.20 108 370.90 108.30L370.90 108.30Q359.10 108.90 347.40 108.90L347.40 108.90Q335.80 108.90 323.90 108.30L323.90 108.30Q317.50 108 313.95 106.45Q310.40 104.90 308.75 101.30Q307.10 97.70 307.10 91.20L307.10 91.20L307.10 23.90L380.50 23.90L380.50 68.90L320.20 68.90L320.20 87.80Q320.20 91.20 320.85 92.85Q321.50 94.50 323.20 95.20Q324.90 95.90 328.50 96.10L328.50 96.10Q338.60 96.70 347.90 96.70L347.90 96.70Q357.40 96.70 367.00 96.10L367.00 96.10Q369.90 95.90 371.25 95.40Q372.60 94.90 373.30 93.55Q374.00 92.20 374.60 89.20L374.60 89.20Q375.40 85.30 375.60 80.70L375.60 80.70ZM320.20 56.60L337.40 56.60L337.40 36L320.20 36L320.20 56.60ZM350.20 36L350.20 56.60L367.20 56.60L367.20 36L350.20 36ZM469.30 54L486.10 54L486.10 64.50L399.20 64.50L399.20 54L416.30 54Q414.10 51.50 412.20 49.55Q410.30 47.60 409.10 46.20L409.10 46.20L406.60 43.50L411.60 38.60L404 38.60L404 28L422.10 28Q420.80 24 419.20 20.70L419.20 20.70L432.70 19.70Q433.60 22.50 435.10 28L435.10 28L450.20 28L452.90 19.70L466.10 20.70L463.10 28L481.40 28L481.40 38.60L472.80 38.60L478.60 43.20Q474.90 48 469.30 54L469.30 54ZM427.40 38.60L417 38.60Q421.60 43.10 426.30 48.50L426.30 48.50L420.50 54L427.40 54L427.40 38.60ZM438.60 38.60L438.60 54L446.80 54L446.80 38.60L438.60 38.60ZM458.10 54L465.20 54L459.30 49Q464.90 43.60 468.70 38.60L468.70 38.60L458.10 38.60L458.10 54ZM475 68L475 108.70L410.40 108.70L410.40 68L475 68ZM422.80 83.60L462.60 83.60L462.60 78.40L422.80 78.40L422.80 83.60ZM462.60 93.40L422.80 93.40L422.80 99.10L462.60 99.10L462.60 93.40ZM582.90 81.40L576.80 86.60Q581.70 93.40 585.20 100.30L585.20 100.30L574.70 106.70Q572.90 102 569.70 96.70Q566.50 91.40 563.90 88.30L563.90 88.30L571 84Q570 82.20 569.40 81.30L569.40 81.30Q558.10 81.80 544.10 82.10L544.10 82.10Q549.60 87.30 552.10 90.40L552.10 90.40L544.70 97.20Q542.70 94.60 539.35 91Q536 87.40 534.40 86L534.40 86L538.20 82.30L509.30 83.10L517.60 87.50Q515.30 92.80 512.15 98.20Q509 103.60 505.80 107.80L505.80 107.80L495.70 101.40Q498.70 97.90 501.80 92.90Q504.90 87.90 507 83.20L507 83.20L500.70 83.40L500.50 73.70Q502.50 73.60 513.30 73.60L513.30 73.60L535.40 73.60L535.40 68.30L505.70 68.30L505.70 38.30L535.40 38.30L535.40 34.90L500.60 34.90L500.60 25.80L535.40 25.80L535.40 19.70L546.50 20.20L546.50 25.80L581.40 25.80L581.40 34.90L546.50 34.90L546.50 38.30L575.80 38.30L575.80 68.30L572.40 68.30Q578.20 75.10 582.90 81.40L582.90 81.40ZM517.60 49.90L535.40 49.90L535.40 46.60L517.60 46.60L517.60 49.90ZM546.50 49.90L564 49.90L564 46.60L546.50 46.60L546.50 49.90ZM535.40 56.90L517.60 56.90L517.60 60.40L535.40 60.40L535.40 56.90ZM546.50 60.40L564 60.40L564 56.90L546.50 56.90L546.50 60.40ZM546.50 68.30L546.50 73.40Q558.50 73.20 564.10 73L564.10 73Q562.30 70.60 562.10 70.30L562.10 70.30L565.40 68.30L546.50 68.30ZM554.50 89.80L554.50 89.80L565.50 93.30Q565.50 96.40 564.90 99.70L564.90 99.70Q564.20 103.20 562.70 105.05Q561.20 106.90 558.30 107.70Q555.40 108.50 550 108.80L550 108.80Q546.90 109 540.60 109L540.60 109Q534.30 109 531.20 108.80L531.20 108.80Q524.20 108.50 521.25 106.15Q518.30 103.80 518.30 98.70L518.30 98.70L518.30 84.70L530.80 85.20L530.80 94.80Q530.80 97.40 531.60 98.05Q532.40 98.70 535.10 98.90L535.10 98.90Q538.10 99.20 541.30 99.20L541.30 99.20Q544.80 99.20 548.40 98.90L548.40 98.90Q551.40 98.70 552.50 98Q553.60 97.30 554 95.40L554 95.40Q554.40 93.60 554.50 89.80ZM687.60 83.50L678.50 94.60Q670.10 85.70 664.95 77.50Q659.80 69.30 655.40 59.20L655.40 59.20L655.40 83.40L668.70 83.40L668.70 94.80L655.40 94.80L655.40 109.90L643.30 109.90L643.30 94.80L629.80 94.80L629.80 84Q626 89 621.90 93.30L621.90 93.30L617.50 88.30L617.50 109L605.80 109L605.80 65.90Q602.80 70.40 600.30 73.30L600.30 73.30L591.70 63.50Q599.20 54 604.45 42.90Q609.70 31.80 612.90 20.70L612.90 20.70L625 23.40Q622.40 32.70 617.50 43.90L617.50 43.90L617.50 78.90Q629.80 66.10 637.80 47.20L637.80 47.20L622.30 47.20L622.30 34.90L643.30 34.90L643.30 20.20L655.40 20.70L655.40 34.90L679.40 34.90L679.40 47.20L659.90 47.20Q665.10 58 671.80 66.55Q678.50 75.10 687.60 83.50L687.60 83.50ZM630.20 83.40L643.30 83.40L643.30 60Q638.30 72.40 630.20 83.40L630.20 83.40ZM711.70 86.80L740.30 86.80L740.30 100L696.50 100L696.50 30.60L738.90 30.60L738.90 43.80L711.70 43.80L711.70 58.10L736.90 58.10L736.90 70.80L711.70 70.80L711.70 86.80ZM745.90 100L764.60 72.40L747 46L764 46L774.50 63.60L775.10 63.60L785.60 46L802.40 46L784.90 72.30L803.40 100L786.20 100L775 81.40L774.40 81.40L763 100L745.90 100ZM838.40 57.40L827.20 57.40L827.20 81.50Q827.20 83.90 827.45 85.40Q827.70 86.90 828.40 87.75Q829.10 88.60 830.30 88.95Q831.50 89.30 833.40 89.30L833.40 89.30Q836 89.30 837.70 88.90L837.70 88.90L837.70 100.10Q836.10 100.30 834.30 100.45Q832.50 100.60 830.70 100.60L830.70 100.60Q825.70 100.60 822.25 99.80Q818.80 99 816.70 97Q814.60 95 813.65 91.50Q812.70 88 812.70 82.70L812.70 82.70L812.70 57.40L805.60 57.40L805.60 46L812.70 46L812.70 33.20L827.20 33.20L827.20 46L838.40 46L838.40 57.40ZM877.60 45L878.70 45L878.30 57.90L876.90 57.90Q874.40 57.90 871.95 58.45Q869.50 59 867.50 60.30Q865.50 61.60 864.00 63.80Q862.50 66 861.90 69.30L861.90 69.30L861.90 100L847.40 100L847.40 46L861.90 46L861.90 55.70Q863.10 52.40 864.85 50.30Q866.60 48.20 868.60 47Q870.60 45.80 872.90 45.40Q875.20 45 877.60 45L877.60 45ZM906.00 45.10L906.00 45.10Q912.80 45.10 917.45 46.25Q922.10 47.40 924.95 49.60Q927.80 51.80 929.05 55.05Q930.30 58.30 930.30 62.60L930.30 62.60L930.30 100L917.30 100L915.90 93.70Q914.20 96.70 909.80 98.85Q905.40 101 898.70 101L898.70 101Q889.60 101 884.90 96.95Q880.20 92.90 880.20 84.50L880.20 84.50Q880.20 75.10 885.85 71.30Q891.50 67.50 902.40 67.50L902.40 67.50L915.80 67.50L915.80 66.10Q915.80 63.70 915.35 62Q914.90 60.30 913.60 59.25Q912.30 58.20 910.10 57.70Q907.90 57.20 904.30 57.20L904.30 57.20Q901.40 57.20 898.50 57.45Q895.60 57.70 892.80 58.20L892.80 58.20L892.80 45.90Q895.90 45.50 899.50 45.30Q903.10 45.10 906.00 45.10ZM902.40 89.90L902.40 89.90Q907.40 89.90 910.90 88.15Q914.40 86.40 915.80 83.60L915.80 83.60L915.80 77.30L904.60 77.30Q899.20 77.30 896.85 78.60Q894.50 79.90 894.50 84L894.50 84Q894.50 87.20 896.35 88.55Q898.20 89.90 902.40 89.90ZM945.60 100L945.60 30.60L969.00 30.60Q976.60 30.60 981.60 31.75Q986.60 32.90 989.55 35.25Q992.50 37.60 993.70 41.10Q994.90 44.60 994.90 49.30L994.90 49.30Q994.90 54.70 992.70 58.30Q990.50 61.90 984.80 63.50L984.80 63.50L984.80 63.90Q997.00 67 997.00 80L997.00 80Q997.00 84.70 995.80 88.45Q994.60 92.20 991.65 94.75Q988.70 97.30 983.70 98.65Q978.70 100 971.10 100L971.10 100L945.60 100ZM960.80 59.20L965.90 59.20Q969.60 59.20 972.25 58.85Q974.90 58.50 976.60 57.60Q978.30 56.70 979.10 55.10Q979.90 53.50 979.90 50.90L979.90 50.90Q979.90 48.20 979.10 46.60Q978.30 45 976.65 44.10Q975.00 43.20 972.30 42.95Q969.60 42.70 965.90 42.70L965.90 42.70L960.80 42.70L960.80 59.20ZM960.80 87.80L967.80 87.80Q971.80 87.80 974.45 87.40Q977.10 87 978.70 86.05Q980.30 85.10 980.95 83.40Q981.60 81.70 981.60 79L981.60 79Q981.60 76.60 980.95 74.90Q980.30 73.20 978.75 72.15Q977.20 71.10 974.50 70.65Q971.80 70.20 967.80 70.20L967.80 70.20L960.80 70.20L960.80 87.80ZM1033.70 101L1033.70 101Q1027.40 101 1022.45 99.70Q1017.50 98.40 1014.15 95.20Q1010.80 92 1009.00 86.60Q1007.20 81.20 1007.20 73L1007.20 73Q1007.20 64.80 1009.00 59.40Q1010.80 54 1014.15 50.80Q1017.50 47.60 1022.45 46.30Q1027.40 45 1033.70 45L1033.70 45Q1040.00 45 1044.90 46.30Q1049.80 47.60 1053.15 50.80Q1056.50 54 1058.30 59.40Q1060.10 64.80 1060.10 73L1060.10 73Q1060.10 81.20 1058.30 86.60Q1056.50 92 1053.15 95.20Q1049.80 98.40 1044.90 99.70Q1040.00 101 1033.70 101ZM1033.70 90L1033.70 90Q1037.00 90 1039.25 89.20Q1041.50 88.40 1042.85 86.45Q1044.20 84.50 1044.75 81.20Q1045.30 77.90 1045.30 73L1045.30 73Q1045.30 68.10 1044.70 64.80Q1044.10 61.50 1042.75 59.50Q1041.40 57.50 1039.20 56.65Q1037.00 55.80 1033.70 55.80L1033.70 55.80Q1030.40 55.80 1028.15 56.65Q1025.90 57.50 1024.55 59.50Q1023.20 61.50 1022.65 64.80Q1022.10 68.10 1022.10 73L1022.10 73Q1022.10 77.90 1022.70 81.20Q1023.30 84.50 1024.65 86.45Q1026.00 88.40 1028.20 89.20Q1030.40 90 1033.70 90ZM1087.50 100.60L1087.50 100.60Q1083 100.60 1080 99.75Q1077 98.90 1075.15 97.20Q1073.30 95.50 1072.55 92.85Q1071.80 90.20 1071.80 86.60L1071.80 86.60L1071.80 24L1086.30 24L1086.30 83.10Q1086.30 86.70 1087.30 87.90Q1088.30 89.10 1090.80 89.10L1090.80 89.10Q1091.40 89.10 1092.10 89.05Q1092.80 89 1093.70 88.80L1093.70 88.80L1093.70 100Q1090.80 100.60 1087.50 100.60ZM1137.40 24L1151.80 24L1151.80 100L1138.70 100L1137.60 92.50Q1136 96.20 1132.25 98.60Q1128.50 101 1121.10 101L1121.10 101Q1114.50 101 1110.30 99.05Q1106.10 97.10 1103.70 93.45Q1101.30 89.80 1100.40 84.60Q1099.50 79.40 1099.50 73L1099.50 73Q1099.50 67.20 1100.40 62.10Q1101.30 57 1103.70 53.20Q1106.10 49.40 1110.30 47.20Q1114.50 45 1121.10 45L1121.10 45Q1128.50 45 1132.15 47.15Q1135.80 49.30 1137.40 52.90L1137.40 52.90L1137.40 24ZM1125.70 90L1125.70 90Q1129.40 90 1131.80 88.90Q1134.20 87.80 1135.60 85.60Q1137 83.40 1137.55 80.25Q1138.10 77.10 1138.10 73L1138.10 73Q1138.10 69.10 1137.55 65.95Q1137 62.80 1135.60 60.55Q1134.20 58.30 1131.80 57.05Q1129.40 55.80 1125.70 55.80L1125.70 55.80Q1121.90 55.80 1119.65 57.20Q1117.40 58.60 1116.25 60.95Q1115.10 63.30 1114.75 66.40Q1114.40 69.50 1114.40 73L1114.40 73Q1114.40 76.70 1114.75 79.85Q1115.10 83 1116.30 85.25Q1117.50 87.50 1119.75 88.75Q1122 90 1125.70 90Z"/></svg>