<svg xmlns="http://www.w3.org/2000/svg" xmlns:xlink="http://www.w3.org/1999/xlink" width="978.515625" height="107.421875"><path d="M26.56 32.03L26.56 32.03L28.52 32.03Q30.08 32.03 31.25 37.89L31.25 37.89Q30.08 44.14 30.08 51.95L30.08 51.95Q33.59 51.17 34.38 51.17L34.38 51.17L38.28 50L39.84 52.73L38.28 54.30L30.08 56.25L30.47 63.67L39.84 71.88Q40.23 75.78 37.89 76.95L37.89 76.95L35.94 75Q33.20 71.88 30.08 67.97L30.08 67.97Q29.69 78.13 29.69 101.17L29.69 101.17L30.47 105.08Q29.69 106.64 29.69 107.03L29.69 107.03Q26.95 107.03 24.22 103.52L24.22 103.52Q25.39 87.50 25.39 83.20L25.39 83.20L25.78 74.22Q20.70 79.30 13.28 83.98L13.28 83.98L12.11 83.98Q25.39 68.36 25.78 60.94L25.78 60.94Q26.17 57.81 24.22 57.81L24.22 57.81L19.14 59.77L17.19 59.77Q14.84 57.81 14.84 56.64L14.84 56.64Q21.88 54.69 26.95 52.34L26.95 52.34Q26.95 39.84 26.95 35.94L26.95 35.94Q26.56 32.81 26.56 32.03ZM46.88 37.50L63.67 33.20L68.75 34.38Q69.92 35.16 71.48 37.50L71.48 37.50Q66.02 42.19 54.30 58.59L54.30 58.59L54.30 60.55L58.59 59.77Q69.53 57.81 76.56 57.03L76.56 57.03Q85.55 55.86 89.45 63.28L89.45 63.28Q89.06 75.39 73.05 109.38L73.05 109.38L72.27 109.38Q71.09 109.38 53.91 97.27L53.91 97.27L51.17 98.44L44.53 103.13L44.53 102.73Q64.06 78.52 66.02 69.14L66.02 69.14L67.19 67.97L68.36 67.97Q69.92 68.75 69.92 69.92L69.92 69.92Q69.92 77.34 54.69 95.31L54.69 95.31Q54.69 96.88 66.80 100.78L66.80 100.78L71.48 100.39Q76.95 92.58 83.20 64.84L83.20 64.84Q82.42 60.94 72.66 61.72L72.66 61.72Q65.63 62.89 53.52 64.45L53.52 64.45L46.88 65.63L46.09 63.28L49.22 59.77Q58.20 44.92 59.77 41.02L59.77 41.02L61.33 38.67L60.16 38.67L47.27 40.63L46.88 38.67L46.88 37.50ZM52.34 69.53L52.34 69.53L54.30 69.53Q55.86 69.53 55.08 71.09L55.08 71.09Q53.52 79.30 41.41 91.80L41.41 91.80L39.45 92.19Q48.05 78.91 52.34 69.53ZM167.19 34.38L167.19 34.38Q169.14 35.16 169.92 35.16L169.92 35.16L169.92 38.28L162.50 44.92L162.50 45.70Q162.50 51.56 162.89 63.67L162.89 63.67Q168.36 62.89 177.73 61.72L177.73 61.72L183.59 60.94L187.50 62.11Q189.84 64.06 189.84 65.04Q189.84 66.02 187.70 66.21Q185.55 66.41 177.73 67.19L177.73 67.19Q162.50 68.75 162.89 70.31L162.89 70.31Q163.28 83.20 162.89 88.67L162.89 88.67L163.28 90.23Q175.39 89.84 176.17 89.06L176.17 89.06Q181.25 90.23 182.03 92.58L182.03 92.58L182.03 95.70Q181.64 95.70 175.78 95.70L175.78 95.70Q170.70 94.92 156.64 96.48L156.64 96.48L151.56 96.88L145.31 98.44Q141.41 95.31 141.41 94.14L141.41 94.14Q141.41 92.97 158.59 91.02L158.59 91.02Q157.81 83.98 158.59 72.27L158.59 72.27Q158.59 69.92 154.30 71.09L154.30 71.09Q141.80 73.44 139.06 73.44L139.06 73.44Q137.89 72.66 136.33 72.66L136.33 72.66L135.16 70.31Q158.98 65.23 158.59 63.67L158.59 63.67L158.59 55.86Q158.98 49.61 156.64 47.66L156.64 47.66Q155.86 47.66 147.27 49.61L147.27 49.61L146.09 49.61L146.09 47.66Q148.05 47.66 167.19 34.38ZM132.42 35.94L132.42 35.94Q135.94 36.72 134.38 42.97L134.38 42.97Q126.17 51.56 126.17 53.91L126.17 53.91Q128.13 62.50 128.13 69.92L128.13 69.92Q128.13 74.22 127.73 95.31L127.73 95.31L128.13 101.56L126.56 102.73L125.39 102.73Q125 102.73 122.66 96.88L122.66 96.88Q123.44 82.81 123.44 69.92L123.44 69.92Q122.66 59.38 122.66 56.25L122.66 56.25L108.59 69.14L108.59 69.14Q108.98 66.80 128.13 42.97L128.13 42.97Q130.47 39.45 132.42 35.94ZM240.23 25L241.41 24.61L242.58 24.61Q242.97 24.61 244.92 26.95L244.92 26.95L244.14 41.02Q246.48 41.02 261.72 39.45L261.72 39.45L263.67 39.45Q266.80 41.02 266.80 36.33L266.80 36.33Q265.23 43.75 263.28 43.75Q261.33 43.75 258.59 43.75L258.59 43.75Q241.41 43.75 241.02 50.78L241.02 50.78L233.98 69.92L233.98 72.27Q246.88 72.27 246.88 65.23L246.88 65.23L246.88 63.28Q246.88 57.42 246.88 57.42L246.88 57.42L247.66 56.64L248.44 56.64Q250.78 56.64 251.56 67.58L251.56 67.58L263.28 67.19Q267.58 68.75 267.58 69.92L267.58 69.92L267.58 70.70Q267.19 71.88 261.33 71.88L261.33 71.88L251.17 74.22Q251.56 103.13 251.56 103.13L251.56 103.13L252.34 105.86L250.78 109.38Q245.31 109.38 236.33 100L236.33 100L236.33 99.22Q236.33 98.44 237.11 98.44L237.11 98.44Q243.36 101.95 246.09 101.17L246.09 101.17L246.09 100Q246.48 76.95 245.31 75.78L245.31 75.78L241.80 76.56Q236.72 76.56 226.95 79.69L226.95 79.69Q225.78 78.13 225.78 78.13L225.78 78.13L226.95 75Q230.08 73.05 236.33 48.05L236.33 48.05Q233.59 48.05 229.30 47.27L229.30 47.27L228.52 47.27Q228.13 47.27 226.56 45.31L226.56 45.31Q226.56 44.92 238.28 42.97L238.28 42.97Q240.63 31.64 240.63 28.52L240.63 28.52L240.23 25ZM223.83 86.33L223.83 86.33L223.83 86.33Q223.83 86.33 225.39 89.06L225.39 89.06Q222.66 100 220.31 101.95L220.31 101.95L218.36 101.95Q217.58 101.95 217.58 100.78L217.58 100.78L217.58 98.05Q221.09 86.33 223.83 86.33ZM266.41 83.59L266.80 83.59Q274.22 85.16 282.03 93.36L282.03 93.36L282.81 98.44Q282.42 99.22 281.64 99.22L281.64 99.22Q273.44 96.88 266.41 83.59L266.41 83.59ZM356.64 30.47L357.81 29.69L360.94 35.55L360.16 42.19L362.11 42.58Q366.80 42.58 383.59 40.23L383.59 40.23Q385.55 40.63 385.94 40.63L385.94 40.63L385.94 42.19Q385.94 44.14 372.66 46.48L372.66 46.48Q373.44 55.47 373.83 71.48L373.83 71.48Q373.83 74.61 373.83 95.70L373.83 95.70Q373.44 101.17 373.44 101.95L373.44 101.95Q371.88 105.47 370.70 105.47L370.70 105.47Q366.41 105.47 355.08 96.88L355.08 96.88L355.08 95.31L364.45 98.44L368.36 98.44L368.75 86.33L368.75 63.67Q368.75 57.03 368.75 56.64L368.75 56.64Q367.97 46.88 365.63 46.88L365.63 46.88L358.98 47.27Q358.59 49.61 352.73 55.86L352.73 55.86L346.48 61.72L345.70 60.55Q356.64 47.27 356.64 30.47L356.64 30.47ZM321.48 40.63L321.88 35.16L323.05 35.16L326.56 40.63L325.39 45.31L326.95 47.27Q344.14 44.92 348.05 44.92L348.05 44.92L347.27 47.27Q347.27 49.22 332.42 51.56L332.42 51.56L333.20 60.55Q333.59 104.69 329.30 102.73L329.30 102.73L326.95 98.83Q327.73 93.36 328.13 85.55L328.13 85.55L328.13 55.47Q328.13 52.73 325.78 52.73L325.78 52.73L323.83 51.95Q321.48 55.47 310.94 63.67L310.94 63.67L310.94 63.67Q321.48 45.31 321.48 40.63L321.48 40.63ZM428.91 40.63L467.97 35.55Q471.09 39.84 471.09 40.23L471.09 40.23Q471.48 41.41 469.92 41.80L469.92 41.80Q463.28 41.41 459.38 41.41L459.38 41.41Q445.70 41.41 442.58 51.17L442.58 51.17Q439.45 59.38 435.55 66.41L435.55 66.41L437.11 66.80Q467.19 61.33 468.36 61.33L468.36 61.33Q473.44 61.33 479.30 67.58L479.30 67.58L477.34 70.31Q473.83 78.91 470.70 83.98L470.70 83.98Q470.70 85.16 475.39 91.80L475.39 91.80L475.39 93.36Q475.78 93.75 474.22 94.53L474.22 94.53L471.48 92.97Q458.59 92.97 439.06 96.48L439.06 96.48L439.06 102.34L439.06 102.34Q433.20 102.34 432.42 75.39L432.42 75.39Q431.64 75.39 431.64 73.44L431.64 73.44Q417.58 91.02 409.38 92.97L409.38 92.97L409.38 92.58Q429.30 75.78 437.50 51.17L437.50 51.17Q439.45 46.48 438.28 44.53L438.28 44.53Q440.23 43.36 428.52 41.80L428.52 41.80L428.52 40.63L428.91 40.63ZM440.63 69.92L440.63 69.92Q433.59 70.31 433.59 71.88L433.59 71.88Q436.33 76.56 438.67 88.67L438.67 88.67L440.63 91.02L444.53 91.02Q462.50 89.06 466.41 83.20L466.41 83.20Q466.41 82.03 469.92 69.53L469.92 69.53Q469.92 67.58 465.63 67.58L465.63 67.58Q458.20 68.36 440.63 69.92ZM551.56 23.05L551.56 23.05L553.52 23.83Q556.25 25 555.47 44.14L555.47 44.14L560.94 43.36L571.09 41.80Q572.66 42.58 573.44 42.58L573.44 42.58L573.44 44.92Q573.44 46.88 558.59 48.05L558.59 48.05Q555.08 48.44 555.47 51.56L555.47 51.56Q555.86 54.69 576.56 76.17L576.56 76.17Q582.03 80.08 590.63 84.38L590.63 84.38L592.97 85.16Q590.23 86.72 587.50 86.33L587.50 86.33Q582.03 90.63 558.20 61.72L558.20 61.72L555.08 57.03L554.69 64.06L554.69 80.47L555.86 80.47Q560.55 80.47 567.97 79.30L567.97 79.30L569.53 82.42L569.53 82.81Q569.53 85.16 555.08 86.33L555.08 86.33Q555.47 98.05 554.69 107.03L554.69 107.03Q553.52 108.59 553.52 108.98L553.52 108.98L551.95 108.98Q551.95 108.98 549.61 104.69L549.61 104.69L550 92.58L550 87.11Q542.97 89.06 539.45 86.33L539.45 86.33L537.11 84.77L537.11 84.38Q550 82.81 550.78 80.47L550.78 80.47Q550.78 67.19 550.78 58.59L550.78 58.59L546.88 63.67Q530.47 87.50 526.95 89.45L526.95 89.45L526.56 89.45L526.56 87.89Q537.50 72.27 548.44 53.52L548.44 53.52L548.44 50.39L543.36 50.39L542.58 50.39L537.89 50.39Q534.38 48.83 534.38 48.05L534.38 48.05L534.38 46.88Q551.56 46.09 551.56 42.97L551.56 42.97L551.56 41.41Q551.56 25.39 551.56 23.05ZM526.56 33.59L526.56 33.59L526.95 33.59Q528.13 33.59 529.30 37.89L529.30 37.89L529.30 39.84Q526.95 44.14 520.31 53.52L520.31 53.52Q521.09 57.42 520.70 64.45L520.70 64.45L520.70 98.83L519.92 103.91L517.58 103.91Q516.80 103.91 515.63 99.22L515.63 99.22Q515.63 98.05 516.41 85.55L516.41 85.55L516.41 76.56Q516.41 69.53 516.41 57.03L516.41 57.03L515.23 56.64Q503.52 65.23 503.13 65.23L503.13 65.23L503.13 64.84Q520.70 46.09 526.56 33.59ZM640.63 67.19L640.63 67.19L642.19 70.31L642.19 71.48L637.50 71.88Q626.56 72.27 608.59 72.27L608.59 72.27L606.64 69.14Q607.03 67.97 609.77 67.97L609.77 67.97Q625.78 67.19 640.63 67.19ZM692.97 37.50L692.97 37.50Q698.83 37.50 699.61 38.28L699.61 38.28L700.78 41.02Q700.78 41.41 698.44 41.41L698.44 41.41L664.84 41.80Q664.06 41.80 663.67 50L663.67 50Q664.06 61.33 663.28 63.67L663.28 63.67L663.28 65.63Q680.86 65.63 686.33 65.63L686.33 65.63L690.23 65.63Q694.92 64.84 696.48 66.41L696.48 66.41L696.09 69.92Q689.45 69.92 684.38 69.92L684.38 69.92L664.45 69.92Q663.28 69.14 663.28 73.44L663.28 73.44Q662.89 78.91 662.50 92.97L662.50 92.97L664.84 94.92L689.45 94.92Q692.19 94.92 699.22 94.92L699.22 94.92Q702.73 96.09 702.73 97.27L702.73 97.27L702.73 98.44Q702.73 99.61 696.09 99.61L696.09 99.61L692.19 99.61L666.02 99.61Q658.98 100 657.81 99.22L657.81 99.22L657.81 95.31Q657.81 83.20 658.59 80.86L658.59 80.86Q658.59 78.91 658.59 75.39L658.59 75.39Q659.77 46.88 659.77 42.58L659.77 42.58Q659.77 39.06 659.77 38.28L659.77 38.28L660.94 37.50L677.34 37.50Q685.16 37.50 692.97 37.50ZM739.06 66.41L739.06 66.41L740.63 66.41L740.63 65.23Q731.25 70.70 727.34 77.73L727.34 77.73L725.78 81.25Q729.30 91.41 733.20 95.31L733.20 95.31L739.45 94.92L739.45 96.48Q739.06 98.05 735.55 99.22L735.55 99.22Q728.13 101.56 723.83 89.06L723.83 89.06L722.27 86.72Q714.84 100 709.38 98.44L709.38 98.44Q705.86 97.66 705.86 97.27L705.86 97.27L710.94 94.53Q716.80 90.23 721.48 80.08L721.48 80.08Q717.58 70.70 710.94 69.14L710.94 69.14Q712.11 67.19 713.67 67.58L713.67 67.58Q718.75 66.80 723.05 73.44L723.05 73.44L724.61 76.95Q730.86 65.63 739.06 66.41ZM753.52 53.91L753.52 53.91L755.86 55.08L755.47 60.55L755.08 66.41L761.33 66.02Q762.50 66.02 762.50 65.23L762.50 65.23Q764.45 65.23 766.41 69.14L766.41 69.14Q764.45 69.92 762.89 69.92L762.89 69.92L755.47 69.92Q753.91 69.92 752.73 83.59L752.73 83.59Q751.95 94.14 756.64 94.14L756.64 94.14L760.16 94.14L763.67 90.23Q764.84 90.23 764.84 91.02L764.84 91.02Q762.89 98.83 757.42 98.83L757.42 98.83Q747.27 100.39 748.83 80.86L748.83 80.86L750 76.17L750 71.09Q750 69.92 743.36 70.31L743.36 70.31L744.53 66.80Q753.52 67.19 751.95 64.84L751.95 64.84Q752.73 56.64 753.52 53.91ZM792.19 65.23L792.19 65.23L792.58 65.23Q798.83 66.41 798.83 70.31L798.83 70.31L795.70 72.27Q793.36 68.36 787.89 70.31L787.89 70.31Q776.95 80.08 778.13 93.36L778.13 93.36L778.13 97.66Q778.13 98.83 776.17 98.83L776.17 98.83L775.39 98.83Q774.61 98.83 773.83 97.27L773.83 97.27L773.83 93.75Q773.83 92.97 774.61 78.13L774.61 78.13L774.61 75.78Q774.61 72.66 772.27 66.41L772.27 66.41Q773.44 64.45 776.56 64.45L776.56 64.45L777.34 67.19Q777.73 70.70 778.91 73.44L778.91 73.44L779.69 73.44Q786.72 65.23 792.19 65.23ZM818.75 65.23L818.75 65.23Q825 64.84 829.30 71.88L829.30 71.88Q828.52 81.64 826.95 85.94L826.95 85.94L827.73 89.06Q828.13 91.80 830.47 94.53L830.47 94.53Q832.81 96.88 832.81 97.66L832.81 97.66L828.52 98.83Q825.78 96.88 823.05 89.84L823.05 89.84Q815.23 99.22 809.77 98.83L809.77 98.83Q801.56 97.66 800.39 88.67L800.39 88.67Q801.56 69.92 812.11 65.63L812.11 65.63Q816.02 64.45 818.75 65.23ZM804.69 83.98L804.69 83.98L805.08 89.06Q806.25 93.36 808.59 93.36L808.59 93.36L811.33 93.36Q818.36 93.36 823.44 80.08L823.44 80.08L824.61 73.05Q822.66 68.75 817.97 68.75L817.97 68.75L817.58 68.75Q807.42 68.75 804.69 83.98ZM843.75 38.67L843.75 38.67Q846.88 36.72 847.66 39.06L847.66 39.06Q846.48 50.78 845.70 57.42L845.70 57.42L844.14 80.47Q842.97 90.23 847.66 92.58L847.66 92.58L851.17 92.19L855.08 89.06Q855.47 89.06 857.03 90.63L857.03 90.63Q857.03 94.14 848.83 98.83L848.83 98.83Q837.50 98.44 840.63 78.91L840.63 78.91Q840.63 73.83 843.75 38.67ZM868.36 54.30L868.36 54.30Q871.09 55.47 871.48 57.42L871.48 57.42L871.48 58.59Q871.48 59.77 870.70 59.77L870.70 59.77L869.53 59.77Q866.02 57.42 866.02 54.69L866.02 54.69Q867.58 54.30 868.36 54.30ZM862.11 67.58L867.19 64.45L867.97 64.45Q869.14 64.45 871.09 66.41L871.09 66.41Q868.36 76.17 867.58 87.50L867.58 87.50Q867.19 95.31 871.48 94.14L871.48 94.14L875 92.58L875.78 92.58Q875.78 96.09 872.66 98.44L872.66 98.44Q863.67 101.56 864.45 87.89L864.45 87.89Q865.23 74.61 867.58 67.58L867.58 67.58L862.89 71.09L862.11 67.58ZM896.88 64.45L896.88 64.45Q908.59 63.67 906.25 77.73L906.25 77.73Q906.64 83.20 905.86 88.28L905.86 88.28Q905.86 93.36 905.86 100.78L905.86 100.78Q905.86 118.75 892.58 118.75L892.58 118.75L886.72 117.58Q878.91 113.28 880.47 103.91L880.47 103.91L880.86 103.52Q883.59 113.28 892.58 114.06L892.58 114.06Q902.73 113.28 901.56 96.88L901.56 96.88Q901.17 95.31 902.34 91.02L902.34 91.02Q897.66 96.48 893.36 97.27L893.36 97.27Q881.64 96.09 883.59 80.47L883.59 80.47Q885.16 65.23 896.88 64.45ZM887.11 82.03L887.11 82.03Q885.55 91.02 893.36 92.97L893.36 92.97Q902.34 88.67 902.34 78.91L902.34 78.91L901.56 71.09Q901.56 69.14 900 69.14L900 69.14L898.44 69.14Q887.89 69.53 887.11 82.03ZM923.44 33.59L923.44 33.59L924.22 34.77L924.22 41.02Q924.22 53.13 923.05 69.14L923.05 69.14L923.05 71.48Q928.13 64.45 937.11 64.84L937.11 64.84Q944.53 64.06 942.97 78.91L942.97 78.91Q941.02 92.58 949.61 95.31L949.61 95.31L949.61 97.66L947.27 98.44Q936.33 98.83 937.89 71.48L937.89 71.48L935.55 70.70Q921.48 70.70 921.48 98.83L921.48 98.83L919.92 98.83Q916.80 97.66 916.80 94.53L916.80 94.53Q918.75 94.53 921.88 37.50L921.88 37.50Q922.66 33.59 923.44 33.59ZM963.67 53.91L963.67 53.91L966.02 55.08L965.63 60.55L965.23 66.41L971.48 66.02Q972.66 66.02 972.66 65.23L972.66 65.23Q974.61 65.23 976.56 69.14L976.56 69.14Q974.61 69.92 973.05 69.92L973.05 69.92L965.63 69.92Q964.06 69.92 962.89 83.59L962.89 83.59Q962.11 94.14 966.80 94.14L966.80 94.14L970.31 94.14L973.83 90.23Q975 90.23 975 91.02L975 91.02Q973.05 98.83 967.58 98.83L967.58 98.83Q957.42 100.39 958.98 80.86L958.98 80.86L960.16 76.17L960.16 71.09Q960.16 69.92 953.52 70.31L953.52 70.31L954.69 66.80Q963.67 67.19 962.11 64.84L962.11 64.84Q962.89 56.64 963.67 53.91Z"/></svg>