<svg xmlns="http://www.w3.org/2000/svg" xmlns:xlink="http://www.w3.org/1999/xlink" width="1002.4000000000001" height="140"><path d="M38.40 22.30L38.40 35.60L37.60 38.60Q34.50 50.80 32.30 57.20L32.30 57.20Q32.90 58.60 34.30 61.20L34.30 61.20Q37.10 67.10 38.45 71.30Q39.80 75.50 39.80 81.90L39.80 81.90Q39.80 87.60 38.45 90.55Q37.10 93.50 34.80 94.65Q32.50 95.80 28.60 96.50L28.60 96.50L23.70 97.40L20 84.30L23.90 83.60Q25.40 83.30 26.10 82.85Q26.80 82.40 27.15 81.15Q27.50 79.90 27.50 77.40L27.50 77.40Q27.50 73.20 25.70 68.80Q23.90 64.40 20.50 58.80L20.50 58.80Q22.20 54.20 23.85 47.85Q25.50 41.50 26.60 35.20L26.60 35.20L19.80 35.20L19.80 110.60L7.10 110.60L7.10 22.30L38.40 22.30ZM41.40 24.20L93.60 24.20L93.60 37.30L87.80 37.30L87.80 94Q87.80 100.30 86.65 103.45Q85.50 106.60 82.45 108.05Q79.40 109.50 73 110L73 110L65.50 110.70L61.50 96.70L69 96.10Q72.40 95.80 73.45 94.45Q74.50 93.10 74.50 89.20L74.50 89.20L74.50 37.30L41.40 37.30L41.40 24.20ZM41.50 89L41.50 44.50L69.80 44.50L69.80 89L41.50 89ZM52.70 56.40L52.70 77.20L58.60 77.20L58.60 56.40L52.70 56.40ZM184 89.40L154.10 89.40L154.10 95.90L191.20 95.90L191.20 108.10L103.30 108.10L103.30 95.90L140.70 95.90L140.70 89.40L110.70 89.40L110.70 77.30L140.70 77.30L140.70 71.10L110.80 71.10L110.80 22.80L183.90 22.80L183.90 71.10L154.10 71.10L154.10 77.30L184 77.30L184 89.40ZM124.30 41.90L140.70 41.90L140.70 35.20L124.30 35.20L124.30 41.90ZM154.10 35.20L154.10 41.90L170.40 41.90L170.40 35.20L154.10 35.20ZM140.70 52.50L124.30 52.50L124.30 59.30L140.70 59.30L140.70 52.50ZM170.40 52.50L154.10 52.50L154.10 59.30L170.40 59.30L170.40 52.50ZM276.20 80.80L290.70 85.60Q290.40 89.10 289.20 95.50L289.20 95.50Q288.10 100.90 286.60 103.50Q285.10 106.10 282 107.30Q278.90 108.50 272.70 108.80L272.70 108.80Q260.40 109.40 248.20 109.40L248.20 109.40Q235.90 109.40 223.60 108.80L223.60 108.80Q217.50 108.50 214.05 106.95Q210.60 105.40 209 101.90Q207.40 98.40 207.40 91.90L207.40 91.90L207.40 23.20L282.80 23.20L282.80 70.10L221.60 70.10L221.60 87.60Q221.60 90.70 222.25 92.25Q222.90 93.80 224.55 94.45Q226.20 95.10 229.40 95.30L229.40 95.30Q239.60 95.90 249.40 95.90L249.40 95.90Q258.70 95.90 268 95.30L268 95.30Q270.70 95.10 272 94.60Q273.30 94.10 273.95 92.80Q274.60 91.50 275.20 88.60L275.20 88.60Q276 84.90 276.20 80.80L276.20 80.80ZM221.60 56.70L238.50 56.70L238.50 36.60L221.60 36.60L221.60 56.70ZM252.10 36.60L252.10 56.70L268.40 56.70L268.40 36.60L252.10 36.60ZM374.60 80.80L389.10 85.60Q388.80 89.10 387.60 95.50L387.60 95.50Q386.50 100.90 385.00 103.50Q383.50 106.10 380.40 107.30Q377.30 108.50 371.10 108.80L371.10 108.80Q358.80 109.40 346.60 109.40L346.60 109.40Q334.30 109.40 322.00 108.80L322.00 108.80Q315.90 108.50 312.45 106.95Q309.00 105.40 307.40 101.90Q305.80 98.40 305.80 91.90L305.80 91.90L305.80 23.20L381.20 23.20L381.20 70.10L320.00 70.10L320.00 87.60Q320.00 90.70 320.65 92.25Q321.30 93.80 322.95 94.45Q324.60 95.10 327.80 95.30L327.80 95.30Q338.00 95.90 347.80 95.90L347.80 95.90Q357.10 95.90 366.40 95.30L366.40 95.30Q369.10 95.10 370.40 94.60Q371.70 94.10 372.35 92.80Q373.00 91.50 373.60 88.60L373.60 88.60Q374.40 84.90 374.60 80.80L374.60 80.80ZM320.00 56.70L336.90 56.70L336.90 36.60L320.00 36.60L320.00 56.70ZM350.50 36.60L350.50 56.70L366.80 56.70L366.80 36.60L350.50 36.60ZM470.90 53.30L486.40 53.30L486.40 64.50L398.90 64.50L398.90 53.30L414.20 53.30Q411 49.40 405.10 43L405.10 43L410.80 38.10L402.80 38.10L402.80 26.80L421.10 26.80Q419.40 22.50 418.20 20L418.20 20L432.90 19.30L435.40 26.80L449.80 26.80Q451 23.80 452.50 19.30L452.50 19.30L467.20 20L464.30 26.80L482.60 26.80L482.60 38.10L473.70 38.10L479.80 42.60Q475.40 48.50 470.90 53.30L470.90 53.30ZM426.40 38.10L416.30 38.10Q421.80 43.80 425.20 48.10L425.20 48.10L419.10 53.30L426.40 53.30L426.40 38.10ZM439 38.10L439 53.30L446.40 53.30L446.40 38.10L439 38.10ZM459.10 53.30L466.40 53.30L460.10 48.40Q464 44.70 469 38.10L469 38.10L459.10 38.10L459.10 53.30ZM476.10 68.10L476.10 109.10L409.30 109.10L409.30 68.10L476.10 68.10ZM422.80 83.50L462.30 83.50L462.30 78.60L422.80 78.60L422.80 83.50ZM462.30 93.60L422.80 93.60L422.80 98.80L462.30 98.80L462.30 93.60ZM583 81.70L576.90 86.30Q581.20 92.40 586 101L586 101L574.40 107.70Q572.30 102.90 569 97.30Q565.70 91.70 563 88.20L563 88.20L570.50 84.20Q569.90 83.20 568.50 81.20L568.50 81.20Q560.80 81.60 553.90 81.70L553.90 81.70L545.10 82Q549.60 86.30 552.60 90L552.60 90L544.30 97.20Q542.60 94.80 539.55 91.35Q536.50 87.90 534.70 86.10L534.70 86.10L539.20 82.20L499.70 83.30L499.40 72.70L511.20 72.60Q517.40 72.60 534.60 72.40L534.60 72.40L534.60 68.80L505.10 68.80L505.10 38.10L534.60 38.10L534.60 34.40L499.90 34.40L499.90 24.50L534.60 24.50L534.60 19.30L547.30 19.70L547.30 24.50L582.10 24.50L582.10 34.40L547.30 34.40L547.30 38.10L576.60 38.10L576.60 68.80L573.20 68.80Q576.40 72.90 583 81.70L583 81.70ZM518.30 50L534.60 50L534.60 46.40L518.30 46.40L518.30 50ZM547.30 50L563.30 50L563.30 46.40L547.30 46.40L547.30 50ZM534.60 56.90L518.30 56.90L518.30 60.60L534.60 60.60L534.60 56.90ZM563.30 56.90L547.30 56.90L547.30 60.60L563.30 60.60L563.30 56.90ZM547.30 68.80L547.30 72.20Q557.30 72 561.90 71.80L561.90 71.80L559.60 68.80L547.30 68.80ZM506 109L495.10 102.70Q498.20 98.80 501.35 93.60Q504.50 88.40 506.50 83.90L506.50 83.90L517.50 89.10Q515.20 94.30 512.15 99.60Q509.10 104.90 506 109L506 109ZM553.70 89.90L553.70 89.90L565.70 93.90Q565.70 97 564.80 100.60L564.80 100.60Q564 104.10 562.50 105.80Q561 107.50 558.05 108.25Q555.10 109 549.50 109.30L549.50 109.30Q546.60 109.50 540.50 109.50L540.50 109.50Q534.50 109.50 531.50 109.30L531.50 109.30Q524.50 109 521.60 106.55Q518.70 104.10 518.70 98.60L518.70 98.60L518.70 85L532.10 85.50L532.10 94.20Q532.10 97 532.90 97.80Q533.70 98.60 536.30 98.80L536.30 98.80Q538.90 99.10 541.60 99.10L541.60 99.10Q544.70 99.10 547.70 98.80L547.70 98.80Q550.70 98.60 551.70 97.95Q552.70 97.30 553.10 95.40L553.10 95.40Q553.40 93.80 553.70 89.90ZM687.40 81.90L678.80 95.60Q674.20 90.60 669.40 84.10L669.40 84.10L669.40 96.20L656.70 96.20L656.70 110.40L643 110.40L643 96.20L630.10 96.20L630.10 85.20Q627 89.60 622.20 94.90L622.20 94.90L617.60 88L617.60 109.70L604.70 109.70L604.70 67.30Q601.80 71.60 598.90 75.20L598.90 75.20L591.70 60.80Q598.50 51.70 603.40 41.30Q608.30 30.90 611.30 20.10L611.30 20.10L624.90 22.80Q621.80 33.50 617.60 43L617.60 43L617.60 77.80Q630 64.90 637 47.20L637 47.20L622.30 47.20L622.30 33.40L643 33.40L643 19.70L656.70 20.10L656.70 33.40L680.50 33.40L680.50 47.20L661.20 47.20Q669.60 65 687.40 81.90L687.40 81.90ZM643.20 83.50L643.20 61Q638.60 73 631.30 83.50L631.30 83.50L643.20 83.50ZM656.50 61.60L656.50 83.50L669 83.50Q662 73.80 656.50 61.60L656.50 61.60ZM755.80 30.60L755.80 100L738.10 100L738.10 70.50L713.60 70.50L713.60 100L695.90 100L695.90 30.60L713.60 30.60L713.60 55.70L738.10 55.70L738.10 30.60L755.80 30.60ZM817.70 77.20L817.70 77.20L783.70 79.20Q784.30 83.70 787.65 85.85Q791 88 797.10 88L797.10 88Q802.10 88 807.50 86.80Q812.90 85.60 815.50 84.20L815.50 84.20L815.50 96.90Q812.90 98.60 806.90 99.80Q800.90 101 793.80 101L793.80 101Q784.90 101 779.05 98.50Q773.20 96 770.05 89.85Q766.90 83.70 766.90 73L766.90 73Q766.90 62.20 770.05 56.10Q773.20 50 779.20 47.50Q785.20 45 794.50 45L794.50 45Q803.70 45 808.95 47.75Q814.20 50.50 816.25 55.75Q818.30 61 818.30 69.10L818.30 69.10Q818.30 73.60 817.70 77.20ZM783.70 67.70L803.10 66.20Q803.10 62 801.30 59.75Q799.50 57.50 794.50 57.50L794.50 57.50Q788.80 57.50 786.40 59.75Q784 62 783.70 67.70L783.70 67.70ZM876.90 63L876.90 63L876.90 100L861.70 100L860.30 94.40Q858.60 97.20 854.45 99.10Q850.30 101 843.90 101L843.90 101Q834.90 101 830.15 96.90Q825.40 92.80 825.40 84.40L825.40 84.40Q825.40 75.20 830.85 71.30Q836.30 67.40 847.90 67.40L847.90 67.40L860.10 67.40L860.10 66.30Q860 63.40 859.05 61.90Q858.10 60.40 855.85 59.80Q853.60 59.20 849.30 59.20L849.30 59.20Q843.10 59.20 838 60.20L838 60.20L838 46Q844.20 45.10 851.50 45.10L851.50 45.10Q865.20 45.10 871.05 49.40Q876.90 53.70 876.90 63ZM848.80 88.30L848.80 88.30Q852.90 88.30 855.90 87Q858.90 85.70 860.10 83.50L860.10 83.50L860.10 78.40L850.80 78.40Q845.80 78.40 843.85 79.50Q841.90 80.60 841.90 83.70L841.90 83.70Q841.90 86.20 843.55 87.25Q845.20 88.30 848.80 88.30ZM882.50 46L901.60 46L912 82.20L912.60 82.20L923.80 46L942 46L922.40 100L901.70 100L882.50 46ZM963.40 99.40L963.40 99.40L942.60 46L961.40 46L972.70 82L973.30 82L983.80 46L1002.10 46L984.60 93.70Q980.50 104.80 976.40 110.30Q972.30 115.80 966.35 117.90Q960.40 120 950.10 120L950.10 120L950.10 105.40Q956.60 105.40 959.55 103.95Q962.50 102.50 963.40 99.40Z"/></svg>