<svg xmlns="http://www.w3.org/2000/svg" xmlns:xlink="http://www.w3.org/1999/xlink" width="848.4375" height="107.421875"><path d="M24.22 29.69L24.22 29.69L28.52 29.69Q32.03 29.69 33.59 37.89L33.59 37.89Q32.42 44.14 32.42 49.22L32.42 49.22Q33.20 48.83 33.98 48.83L33.98 48.83L39.06 47.27L42.58 52.73L39.84 56.25L32.42 58.20L32.81 62.89L42.19 70.31Q42.58 77.34 37.50 79.69L37.50 79.69L33.98 76.95Q32.03 73.05 32.42 73.44L32.42 73.44Q32.03 78.13 32.03 101.17L32.03 101.17L32.81 105.47Q32.03 107.03 32.03 109.38L32.03 109.38Q25.39 109.38 21.88 103.91L21.88 103.91Q23.05 87.50 23.05 83.20L23.05 83.20L23.05 80.47Q22.27 81.25 13.67 86.33L13.67 86.33L7.03 86.33Q23.05 67.58 23.44 60.94L23.44 60.94Q23.83 59.38 26.56 59.38L26.56 59.38L19.53 62.11L16.41 62.11Q12.50 59.38 12.50 54.69L12.50 54.69Q21.09 52.34 24.61 50.78L24.61 50.78Q24.61 39.84 24.61 35.94L24.61 35.94Q24.22 32.81 24.22 29.69ZM44.53 35.55L63.67 30.86L69.53 32.03Q71.88 33.20 74.22 37.89L74.22 37.89Q67.97 43.75 55.86 60.16L55.86 60.16L55.86 57.81L58.20 57.42Q69.14 55.47 76.17 54.69L76.17 54.69Q87.11 53.52 91.80 62.89L91.80 62.89Q91.41 75.78 74.61 111.72L74.61 111.72L72.27 111.72Q70.31 111.72 53.91 100L53.91 100L52.73 100.39L42.19 107.42L42.19 101.95Q61.72 77.73 63.67 67.58L63.67 67.58L66.41 65.63L68.75 65.63Q72.27 67.19 72.27 69.92L72.27 69.92Q72.27 78.13 56.25 96.88L56.25 96.88Q56.25 94.92 67.19 98.44L67.19 98.44L69.92 98.05Q74.61 91.80 80.86 64.84L80.86 64.84Q80.47 63.28 73.05 64.06L73.05 64.06Q66.02 65.23 53.91 66.80L53.91 66.80L44.92 68.36L43.36 62.89L47.27 58.20Q56.25 44.14 55.86 44.53L55.86 44.53L58.59 40.23L65.63 40.23L45.31 43.36L44.53 38.67L44.53 35.55ZM50.78 67.19L50.78 67.19L54.30 67.19Q58.98 67.19 57.42 71.48L57.42 71.48Q55.86 80.08 42.97 93.75L42.97 93.75L34.38 96.09Q46.09 78.13 50.78 67.19ZM144.53 51.17L144.53 46.09Q147.66 46.09 167.19 32.81L167.19 32.81Q169.53 33.59 171.48 33.59L171.48 33.59L171.48 38.67L164.06 45.31L164.06 45.70Q164.06 51.56 164.45 62.11L164.45 62.11Q168.36 61.33 177.73 60.16L177.73 60.16L183.59 59.38L187.89 60.55Q191.41 63.67 191.41 65.63Q191.41 67.58 188.48 67.77Q185.55 67.97 177.73 68.75L177.73 68.75Q165.23 69.92 164.45 67.58L164.45 67.58Q164.84 83.20 164.45 86.33L164.45 86.33L165.23 88.67Q175 88.28 175.78 87.50L175.78 87.50Q182.42 88.67 183.59 92.58L183.59 92.58L183.59 97.27Q181.64 97.27 175.78 97.27L175.78 97.27Q170.70 96.48 156.64 98.05L156.64 98.05L151.56 98.44L144.92 100Q139.84 96.48 139.84 94.14L139.84 94.14Q139.84 91.41 157.03 89.45L157.03 89.45Q156.25 83.98 157.03 72.27L157.03 72.27Q156.25 72.27 154.69 72.66L154.69 72.66Q141.80 75 138.67 75L138.67 75Q137.50 74.22 135.16 74.22L135.16 74.22L133.20 69.14Q156.25 64.06 157.03 66.41L157.03 66.41L157.03 55.86Q157.42 50 156.25 49.22L156.25 49.22Q155.86 49.22 147.27 51.17L147.27 51.17L144.53 51.17ZM131.64 33.20L131.64 33.20Q138.67 34.77 136.72 43.75L136.72 43.75Q128.52 52.34 128.52 53.52L128.52 53.52Q130.47 62.11 130.47 69.92L130.47 69.92Q130.47 74.22 130.08 95.31L130.08 95.31L130.47 102.34L127.34 105.08L125.39 105.08Q123.44 105.08 120.31 97.27L120.31 97.27Q121.09 82.81 121.09 69.92L121.09 69.92Q121.09 59.38 121.09 60.94L121.09 60.94L106.25 74.22L106.25 69.14Q106.64 66.02 126.17 41.41L126.17 41.41Q128.52 37.89 131.64 33.20ZM237.89 23.05L241.02 22.27L242.58 22.27Q244.53 22.27 247.27 26.56L247.27 26.56L246.48 38.67Q246.48 38.67 261.72 37.11L261.72 37.11L264.06 37.11Q265.23 37.50 265.23 51.95L265.23 51.95Q266.41 46.09 263.87 46.09Q261.33 46.09 258.59 46.09L258.59 46.09Q243.75 46.09 243.36 51.17L243.36 51.17L236.33 70.31L236.33 69.92Q244.53 69.92 244.53 65.23L244.53 65.23L244.53 63.28Q244.53 57.42 244.53 55.86L244.53 55.86L246.88 54.30L248.44 54.30Q253.13 54.30 253.91 65.23L253.91 65.23L263.67 64.84Q269.92 66.80 269.92 69.92L269.92 69.92L269.92 71.09Q269.14 74.22 261.72 74.22L261.72 74.22L253.52 76.17Q253.13 103.13 253.13 106.25L253.13 106.25L251.95 110.55L251.56 111.72Q244.53 111.72 233.98 100.78L233.98 100.78L233.98 99.22Q233.98 96.09 237.50 96.09L237.50 96.09Q243.75 99.61 244.53 99.22L244.53 99.22L243.75 100Q244.14 76.56 245.70 78.13L245.70 78.13L242.19 78.91Q237.11 78.91 226.17 82.42L226.17 82.42Q223.44 78.91 223.44 77.73L223.44 77.73L225 73.44Q228.13 71.48 233.59 50.39L233.59 50.39Q233.59 50.39 229.30 49.61L229.30 49.61L228.52 49.61Q226.56 49.61 224.22 46.09L224.22 46.09Q224.22 42.97 236.33 41.02L236.33 41.02Q238.28 31.25 238.28 28.52L238.28 28.52L237.89 23.05ZM221.48 83.98L221.48 83.98L221.48 83.98Q225.39 83.98 227.73 88.67L227.73 88.67Q224.61 101.56 221.09 104.30L221.09 104.30L218.36 104.30Q215.23 104.30 215.23 100.78L215.23 100.78L215.23 97.66Q219.14 83.98 221.48 83.98ZM263.28 82.81L266.41 81.25Q275.78 82.81 284.38 92.58L284.38 92.58L285.16 98.44Q284.38 101.56 281.25 101.56L281.25 101.56Q271.88 98.83 263.28 82.81L263.28 82.81ZM354.30 28.91L358.59 26.56L363.28 35.16L362.89 40.23L362.50 40.23Q366.80 40.23 383.59 37.89L383.59 37.89Q385.55 38.28 388.28 38.28L388.28 38.28L388.28 42.19Q388.28 46.09 375 48.44L375 48.44Q375.78 55.47 376.17 71.48L376.17 71.48Q376.17 74.61 376.17 95.70L376.17 95.70Q375.78 101.17 375.78 102.34L375.78 102.34Q373.44 107.81 370.70 107.81L370.70 107.81Q365.63 107.81 352.73 98.44L352.73 98.44L352.73 92.19L364.84 96.09L366.02 96.09L366.41 86.33L366.41 63.67Q366.41 57.03 366.41 56.64L366.41 56.64Q365.63 49.22 365.63 49.22L365.63 49.22L360.94 49.61Q360.94 50.39 354.69 57.81L354.69 57.81L346.09 64.84L342.97 60.55Q354.30 46.48 354.30 28.91L354.30 28.91ZM319.14 40.63L319.53 32.81L324.61 32.81L328.91 40.23L327.73 44.92L327.73 44.92Q344.14 42.58 351.95 42.58L351.95 42.58L349.61 47.66Q349.61 51.17 334.77 53.52L334.77 53.52L335.55 60.55Q335.94 107.81 327.34 104.69L327.34 104.69L324.61 99.22Q325.39 93.36 325.78 85.55L325.78 85.55L325.78 55.47Q325.78 55.08 325.39 55.08L325.39 55.08L324.61 54.69Q323.44 57.03 311.72 66.02L311.72 66.02L306.64 66.02Q319.14 44.92 319.14 40.63L319.14 40.63ZM428.91 38.28L468.75 33.20Q473.44 39.06 473.44 39.84L473.44 39.84Q474.22 43.36 469.92 44.14L469.92 44.14Q463.28 43.75 459.38 43.75L459.38 43.75Q447.66 43.75 444.92 51.95L444.92 51.95Q441.80 60.16 438.28 65.63L438.28 65.63L435.55 64.84Q467.19 58.98 468.36 58.98L468.36 58.98Q474.22 58.98 482.03 67.58L482.03 67.58L479.30 71.09Q475.78 79.69 473.05 84.38L473.05 84.38Q473.05 84.38 477.73 91.02L477.73 91.02L477.73 92.97Q478.91 95.31 474.22 97.27L474.22 97.27L471.09 95.31Q458.59 95.31 441.41 98.44L441.41 98.44L441.41 104.69L439.06 104.69Q430.86 104.69 430.08 77.73L430.08 77.73Q430.08 77.73 430.08 79.30L430.08 79.30Q419.14 93.36 407.03 95.70L407.03 95.70L407.03 91.80Q427.34 74.22 435.16 50.39L435.16 50.39Q436.72 46.88 435.16 44.53L435.16 44.53Q433.98 44.92 426.17 43.75L426.17 43.75L426.17 38.28L428.91 38.28ZM440.63 72.27L440.63 72.27Q435.16 72.66 435.16 69.92L435.16 69.92Q438.67 75.78 441.02 87.89L441.02 87.89L441.41 88.67L444.53 88.67Q460.94 86.72 464.06 82.42L464.06 82.42Q464.06 81.64 468.36 66.41L468.36 66.41Q468.36 69.92 465.63 69.92L465.63 69.92Q458.20 70.70 440.63 72.27ZM549.22 19.14L549.22 19.14L554.30 21.48Q558.59 23.44 557.81 41.41L557.81 41.41L560.55 41.02L571.48 39.45Q573.05 40.23 575.78 40.23L575.78 40.23L575.78 44.92Q575.78 49.22 558.98 50.39L558.98 50.39Q557.81 50.39 557.81 51.17L557.81 51.17Q558.20 53.91 578.13 74.22L578.13 74.22Q583.59 78.13 591.41 82.03L591.41 82.03L598.44 84.77Q590.63 89.06 587.89 88.67L587.89 88.67Q581.64 93.75 559.38 67.19L559.38 67.19L557.03 63.28L557.03 64.06L557.03 78.91L557.03 78.91Q560.55 78.13 569.53 76.56L569.53 76.56L571.88 82.03L571.88 82.81Q571.88 87.50 557.42 88.67L557.42 88.67Q557.81 98.05 557.03 107.81L557.03 107.81Q555.86 109.38 555.86 111.33L555.86 111.33L551.95 111.33Q550.39 111.33 547.27 105.08L547.27 105.08L547.66 92.58L547.66 90.23Q542.58 91.41 537.89 88.28L537.89 88.28L534.77 85.55L534.77 82.42Q548.05 80.47 548.44 80.08L548.44 80.08Q548.44 67.19 548.44 65.63L548.44 65.63L548.83 65.23Q532.03 89.45 527.34 91.80L527.34 91.80L524.22 91.80L524.22 87.11Q535.55 70.70 546.09 53.13L546.09 53.13L546.09 52.73L543.36 52.73L542.58 52.73L537.50 52.73Q532.03 50.39 532.03 48.05L532.03 48.05L532.03 44.53Q549.22 43.75 549.22 42.97L549.22 42.97L549.22 41.41Q549.22 25.39 549.22 19.14ZM525 31.25L525 31.25L526.95 31.25Q530.08 31.25 531.64 37.50L531.64 37.50L531.64 40.23Q528.91 45.70 522.66 53.91L522.66 53.91Q523.44 57.42 523.05 64.45L523.05 64.45L523.05 98.83L521.88 106.25L517.58 106.25Q514.84 106.25 513.28 99.61L513.28 99.61Q513.28 98.05 514.06 85.55L514.06 85.55L514.06 76.56Q514.06 69.53 514.06 57.81L514.06 57.81L516.02 58.98Q504.30 67.58 500.78 67.58L500.78 67.58L500.78 64.06Q518.75 44.53 525 31.25ZM642.19 64.84L642.19 64.84L644.53 69.92L644.53 73.83L637.50 74.22Q626.56 74.61 607.03 74.61L607.03 74.61L604.30 69.53Q605.08 65.63 609.77 65.63L609.77 65.63Q625.78 64.84 642.19 64.84ZM694.92 58.98L694.92 58.98Q695.70 40.23 697.66 36.33L697.66 36.33L703.13 35.94L703.13 52.34L703.13 59.38Q701.56 85.94 701.56 96.09L701.56 96.09Q700 101.17 697.66 101.17L697.66 101.17Q692.19 100 694.14 91.41L694.14 91.41Q694.53 82.81 694.53 79.69L694.53 79.69L694.53 70.31Q693.75 66.41 693.75 66.41L693.75 66.41L678.91 66.02Q677.73 66.02 671.48 66.02L671.48 66.02L667.58 66.02Q665.63 66.80 665.63 66.02L665.63 66.02Q664.06 92.97 662.50 98.83L662.50 98.83L660.16 98.83Q657.81 98.83 655.86 94.92L655.86 94.92L655.86 87.89Q657.81 54.30 659.77 35.94L659.77 35.94L663.67 35.94L666.41 37.11Q665.63 52.34 665.63 56.25L665.63 56.25L666.41 58.59Q666.41 58.59 670.70 58.20L670.70 58.20Q680.08 58.98 681.25 58.98L681.25 58.98Q685.55 58.98 688.67 58.98L688.67 58.98L694.92 58.98ZM725.39 62.11L725.39 62.11Q738.67 62.11 741.41 72.27L741.41 72.27Q741.41 82.03 717.19 86.72L717.19 86.72L717.19 79.30Q718.75 92.58 724.61 92.19L724.61 92.19Q728.52 93.36 742.58 86.72L742.58 86.72L741.80 94.14Q733.59 101.56 725 101.56L725 101.56Q707.81 101.17 708.20 81.25L708.20 81.25Q710.94 65.23 725.39 62.11ZM718.36 77.73L718.36 77.73L718.75 77.73Q727.73 77.73 732.42 71.09L732.42 71.09L732.42 71.09Q732.42 70.31 730.86 69.92L730.86 69.92L729.30 69.92Q718.75 72.27 718.36 77.73ZM765.63 62.89L765.63 62.89Q773.05 62.50 778.13 71.48L778.13 71.48Q777.34 82.03 775.78 85.94L775.78 85.94L776.56 88.67Q776.95 91.02 778.91 92.97L778.91 92.97Q781.64 96.09 781.64 99.61L781.64 99.61L774.61 101.17Q770.31 98.44 768.75 94.53L768.75 94.53Q762.50 101.56 755.86 101.17L755.86 101.17Q746.09 99.61 744.53 88.67L744.53 88.67Q745.70 68.36 757.81 63.28L757.81 63.28Q762.50 62.11 765.63 62.89ZM753.52 83.98L753.52 83.98L753.91 88.67Q754.69 91.02 755.08 91.02L755.08 91.02L757.81 91.02Q763.28 91.02 767.58 79.69L767.58 79.69L768.75 73.44Q767.58 71.09 764.45 71.09L764.45 71.09L764.06 71.09Q755.86 71.09 753.52 83.98ZM802.34 62.11L802.34 62.11L806.25 62.11Q812.11 65.63 812.11 67.97L812.11 67.97Q812.11 75.78 796.48 100.78L796.48 100.78Q787.50 100.78 784.77 73.05L784.77 73.05Q783.98 72.27 781.64 72.27L781.64 72.27L781.64 68.75Q781.64 65.23 785.16 65.23L785.16 65.23L787.50 65.23Q791.41 65.23 795.70 87.50L795.70 87.50Q798.05 86.33 803.91 70.31L803.91 70.31Q802.34 65.63 802.34 62.11ZM808.59 71.09L808.59 71.09L818.75 62.50Q821.48 62.50 825 68.75L825 68.75Q824.22 77.34 824.61 88.28L824.61 88.28L827.34 86.33Q834.38 80.08 835.16 62.89L835.16 62.89L839.06 62.89Q843.75 63.67 842.97 74.61L842.97 74.61L842.97 101.56Q842.97 103.13 843.36 106.64L843.36 106.64Q842.19 116.41 837.89 119.14L837.89 119.14Q835.16 123.05 826.56 122.66L826.56 122.66Q814.45 122.27 810.94 107.42L810.94 107.42L810.94 104.30L814.84 104.30Q821.09 113.67 826.95 113.28L826.95 113.28Q833.59 112.50 833.59 107.42L833.59 107.42L834.38 90.63Q833.98 94.92 835.94 89.06L835.94 89.06Q832.81 92.58 824.22 100.78L824.22 100.78Q821.48 100.78 815.23 96.88L815.23 96.88L816.41 93.75L816.41 71.88Q816.41 71.09 808.59 71.09Z"/></svg>