<svg xmlns="http://www.w3.org/2000/svg" xmlns:xlink="http://www.w3.org/1999/xlink" width="816.40625" height="107.421875"><path d="M26.17 31.64L26.17 31.64L28.52 31.64Q30.47 31.64 31.64 37.89L31.64 37.89Q30.47 44.14 30.47 51.56L30.47 51.56Q33.59 50.78 34.38 50.78L34.38 50.78L38.28 49.61L40.23 52.73L38.67 54.69L30.47 56.64L30.86 63.67L40.23 71.48Q40.63 76.17 37.89 77.34L37.89 77.34L35.55 75.39Q32.81 72.27 30.47 69.14L30.47 69.14Q30.08 78.13 30.08 101.17L30.08 101.17L30.86 105.08Q30.08 106.64 30.08 107.42L30.08 107.42Q26.56 107.42 23.83 103.52L23.83 103.52Q25 87.50 25 83.20L25 83.20L25.39 75.39Q21.09 79.69 13.28 84.38L13.28 84.38L11.33 84.38Q25 68.36 25.39 60.94L25.39 60.94Q25.78 58.20 24.22 58.20L24.22 58.20L19.14 60.16L17.19 60.16Q14.45 58.20 14.45 56.25L14.45 56.25Q21.88 54.30 26.56 51.95L26.56 51.95Q26.56 39.84 26.56 35.94L26.56 35.94Q26.17 32.81 26.17 31.64ZM46.48 37.11L63.67 32.81L68.75 33.98Q70.31 34.77 71.88 37.50L71.88 37.50Q66.41 42.58 54.69 58.59L54.69 58.59L54.69 60.16L58.59 59.38Q69.53 57.42 76.56 56.64L76.56 56.64Q85.94 55.47 89.84 63.28L89.84 63.28Q89.45 75.39 73.44 109.77L73.44 109.77L72.27 109.77Q71.09 109.77 53.91 97.66L53.91 97.66L51.56 98.83L44.14 103.91L44.14 102.73Q63.67 78.52 65.63 68.75L65.63 68.75L67.19 67.58L68.36 67.58Q70.31 68.36 70.31 69.92L70.31 69.92Q70.31 77.34 55.08 95.31L55.08 95.31Q55.08 96.48 66.80 100.39L66.80 100.39L71.09 100Q76.56 92.58 82.81 64.84L82.81 64.84Q82.03 61.33 72.66 62.11L72.66 62.11Q65.63 63.28 53.52 64.84L53.52 64.84L46.48 66.02L45.70 63.28L48.83 59.38Q57.81 44.92 59.38 41.02L59.38 41.02L60.55 39.06L60.16 39.06L46.88 41.02L46.48 38.67L46.48 37.11ZM51.95 69.14L51.95 69.14L54.30 69.14Q56.25 69.14 55.47 71.09L55.47 71.09Q53.91 79.30 41.80 92.19L41.80 92.19L38.67 92.97Q47.66 78.91 51.95 69.14ZM167.19 33.98L167.19 33.98Q169.14 34.77 170.31 34.77L170.31 34.77L170.31 38.28L162.89 44.92L162.89 45.70Q162.89 51.56 163.28 63.28L163.28 63.28Q168.36 62.50 177.73 61.33L177.73 61.33L183.59 60.55L187.50 61.72Q190.23 64.06 190.23 65.23Q190.23 66.41 187.89 66.60Q185.55 66.80 177.73 67.58L177.73 67.58Q162.89 69.14 163.28 70.31L163.28 70.31Q163.67 83.20 163.28 88.67L163.28 88.67L163.67 89.84Q175.39 89.45 176.17 88.67L176.17 88.67Q181.64 89.84 182.42 92.58L182.42 92.58L182.42 96.09Q181.64 96.09 175.78 96.09L175.78 96.09Q170.70 95.31 156.64 96.88L156.64 96.88L151.56 97.27L145.31 98.83Q141.02 95.70 141.02 94.14L141.02 94.14Q141.02 92.58 158.20 90.63L158.20 90.63Q157.42 83.98 158.20 72.27L158.20 72.27Q158.20 70.31 154.30 71.48L154.30 71.48Q141.80 73.83 139.06 73.83L139.06 73.83Q137.89 73.05 135.94 73.05L135.94 73.05L134.77 69.92Q158.59 64.84 158.20 63.67L158.20 63.67L158.20 55.86Q158.59 49.61 156.64 48.05L156.64 48.05Q155.86 48.05 147.27 50L147.27 50L145.70 50L145.70 47.27Q148.05 47.27 167.19 33.98ZM132.42 35.55L132.42 35.55Q136.33 36.33 134.77 42.97L134.77 42.97Q126.56 51.56 126.56 53.91L126.56 53.91Q128.52 62.50 128.52 69.92L128.52 69.92Q128.52 74.22 128.13 95.31L128.13 95.31L128.52 101.56L126.56 103.13L125.39 103.13Q124.61 103.13 122.27 96.88L122.27 96.88Q123.05 82.81 123.05 69.92L123.05 69.92Q122.27 59.38 122.27 57.03L122.27 57.03L108.20 69.92L108.20 69.14Q108.59 66.80 127.73 42.58L127.73 42.58Q130.08 39.06 132.42 35.55ZM239.84 24.61L241.41 24.22L242.58 24.22Q243.36 24.22 245.31 26.95L245.31 26.95L244.53 40.63Q246.48 40.63 261.72 39.06L261.72 39.06L263.67 39.06Q266.41 40.23 266.41 40.23L266.41 40.23Q265.63 44.14 263.48 44.14Q261.33 44.14 258.59 44.14L258.59 44.14Q241.80 44.14 241.41 50.78L241.41 50.78L234.38 69.92L234.38 71.88Q246.48 71.88 246.48 65.23L246.48 65.23L246.48 63.28Q246.48 57.42 246.48 57.03L246.48 57.03L247.66 56.25L248.44 56.25Q251.17 56.25 251.95 67.19L251.95 67.19L263.28 66.80Q267.97 68.36 267.97 69.92L267.97 69.92L267.97 70.70Q267.58 72.27 261.33 72.27L261.33 72.27L251.56 74.61Q251.95 103.13 251.95 107.81L251.95 107.81L251.95 107.81L251.17 109.77Q245.31 109.77 235.94 100L235.94 100L235.94 99.22Q235.94 98.05 237.11 98.05L237.11 98.05Q243.36 101.56 245.70 100.78L245.70 100.78L245.70 100Q246.09 76.95 245.31 76.17L245.31 76.17L241.80 76.95Q236.72 76.95 226.95 80.08L226.95 80.08Q225.39 78.13 225.39 78.13L225.39 78.13L226.56 74.61Q229.69 72.66 235.94 48.44L235.94 48.44Q233.59 48.44 229.30 47.66L229.30 47.66L228.52 47.66Q227.73 47.66 226.17 45.31L226.17 45.31Q226.17 44.53 237.89 42.58L237.89 42.58Q240.23 31.64 240.23 28.52L240.23 28.52L239.84 24.61ZM223.44 85.94L223.44 85.94L223.44 85.94Q224.22 85.94 225.78 89.06L225.78 89.06Q223.05 100.39 220.31 102.34L220.31 102.34L218.36 102.34Q217.19 102.34 217.19 100.78L217.19 100.78L217.19 98.05Q220.70 85.94 223.44 85.94ZM266.02 83.59L266.80 83.20Q274.61 84.77 282.42 93.36L282.42 93.36L283.20 98.44Q282.81 99.61 281.64 99.61L281.64 99.61Q273.05 97.27 266.02 83.59L266.02 83.59ZM356.25 30.08L357.81 29.30L361.33 35.55L360.55 41.80L362.11 42.19Q366.80 42.19 383.59 39.84L383.59 39.84Q385.55 40.23 386.33 40.23L386.33 40.23L386.33 42.19Q386.33 44.53 373.05 46.88L373.05 46.88Q373.83 55.47 374.22 71.48L374.22 71.48Q374.22 74.61 374.22 95.70L374.22 95.70Q373.83 101.17 373.83 101.95L373.83 101.95Q372.27 105.86 370.70 105.86L370.70 105.86Q366.41 105.86 354.69 97.27L354.69 97.27L354.69 94.92L364.45 98.05L367.97 98.05L368.36 86.33L368.36 63.67Q368.36 57.03 368.36 56.64L368.36 56.64Q367.58 47.27 365.63 47.27L365.63 47.27L359.38 47.66Q358.98 49.61 353.13 56.25L353.13 56.25L346.48 62.11L345.31 60.55Q356.25 47.27 356.25 30.08L356.25 30.08ZM321.09 40.63L321.48 34.77L323.44 34.77L326.95 40.63L325.78 45.31L326.95 46.88Q344.14 44.53 348.83 44.53L348.83 44.53L347.66 47.27Q347.66 49.61 332.81 51.95L332.81 51.95L333.59 60.55Q333.98 105.08 328.91 103.13L328.91 103.13L326.56 98.83Q327.34 93.36 327.73 85.55L327.73 85.55L327.73 55.47Q327.73 53.13 325.78 53.13L325.78 53.13L323.83 52.34Q321.88 55.86 310.94 64.06L310.94 64.06L310.16 64.06Q321.09 45.31 321.09 40.63L321.09 40.63ZM428.91 40.23L467.97 35.16Q471.48 39.84 471.48 40.23L471.48 40.23Q471.88 41.80 469.92 42.19L469.92 42.19Q463.28 41.80 459.38 41.80L459.38 41.80Q446.09 41.80 442.97 51.17L442.97 51.17Q439.84 59.38 435.94 66.02L435.94 66.02L437.11 66.41Q467.19 60.94 468.36 60.94L468.36 60.94Q473.44 60.94 479.69 67.58L479.69 67.58L477.73 70.31Q474.22 78.91 471.09 83.98L471.09 83.98Q471.09 85.16 475.78 91.80L475.78 91.80L475.78 93.36Q476.17 94.14 474.22 94.92L474.22 94.92L471.48 93.36Q458.59 93.36 439.45 96.88L439.45 96.88L439.45 102.73L439.06 102.73Q432.81 102.73 432.03 75.78L432.03 75.78Q431.25 75.78 431.25 74.61L431.25 74.61Q417.97 91.41 408.98 93.36L408.98 93.36L408.98 92.58Q428.91 75.39 437.11 51.17L437.11 51.17Q439.06 46.48 437.50 44.53L437.50 44.53Q439.06 43.75 428.13 42.19L428.13 42.19L428.13 40.23L428.91 40.23ZM440.63 70.31L440.63 70.31Q433.98 70.70 433.98 71.88L433.98 71.88Q436.72 76.56 439.06 88.67L439.06 88.67L440.63 90.63L444.53 90.63Q462.11 88.67 466.02 83.20L466.02 83.20Q466.02 82.03 469.53 69.53L469.53 69.53Q469.53 67.97 465.63 67.97L465.63 67.97Q458.20 68.75 440.63 70.31ZM551.17 22.27L551.17 22.27L553.52 23.44Q556.64 24.61 555.86 43.75L555.86 43.75L560.94 42.97L571.09 41.41Q572.66 42.19 573.83 42.19L573.83 42.19L573.83 44.92Q573.83 47.27 558.59 48.44L558.59 48.44Q555.47 48.83 555.86 51.56L555.86 51.56Q556.25 54.69 576.95 75.78L576.95 75.78Q582.42 79.69 590.63 83.98L590.63 83.98L593.75 85.16Q590.23 87.11 587.50 86.72L587.50 86.72Q582.03 91.02 557.81 62.11L557.81 62.11L555.47 58.20L555.08 64.06L555.08 80.08L555.86 80.08Q560.55 80.08 568.36 78.91L568.36 78.91L569.92 82.42L569.92 82.81Q569.92 85.55 555.47 86.72L555.47 86.72Q555.86 98.05 555.08 107.03L555.08 107.03Q553.91 108.59 553.91 109.38L553.91 109.38L551.95 109.38Q551.56 109.38 549.22 104.69L549.22 104.69L549.61 92.58L549.61 87.50Q542.97 89.45 539.06 86.72L539.06 86.72L536.72 84.77L536.72 83.98Q549.61 82.42 550.39 80.47L550.39 80.47Q550.39 67.19 550.39 59.77L550.39 59.77L547.27 64.06Q530.86 87.89 526.95 89.84L526.95 89.84L526.17 89.84L526.17 87.89Q537.11 71.88 548.05 53.52L548.05 53.52L548.05 50.78L543.36 50.78L542.58 50.78L537.89 50.78Q533.98 49.22 533.98 48.05L533.98 48.05L533.98 46.48Q551.17 45.70 551.17 42.97L551.17 42.97L551.17 41.41Q551.17 25.39 551.17 22.27ZM526.17 33.20L526.17 33.20L526.95 33.20Q528.52 33.20 529.69 37.89L529.69 37.89L529.69 39.84Q527.34 44.53 520.70 53.52L520.70 53.52Q521.48 57.42 521.09 64.45L521.09 64.45L521.09 98.83L520.31 104.30L517.58 104.30Q516.41 104.30 515.23 99.22L515.23 99.22Q515.23 98.05 516.02 85.55L516.02 85.55L516.02 76.56Q516.02 69.53 516.02 57.42L516.02 57.42L515.23 57.03Q503.52 65.63 502.73 65.63L502.73 65.63L502.73 64.84Q520.31 45.70 526.17 33.20ZM641.02 66.80L641.02 66.80L642.58 70.31L642.58 71.88L637.50 72.27Q626.56 72.66 608.20 72.66L608.20 72.66L606.25 69.14Q606.64 67.58 609.77 67.58L609.77 67.58Q625.78 66.80 641.02 66.80ZM662.89 37.50L662.89 37.50L663.67 37.50Q666.41 37.89 666.41 43.75L666.41 43.75L664.45 91.41L664.45 93.75Q682.42 94.14 690.63 93.36L690.63 93.36Q694.53 94.14 694.53 98.05L694.53 98.05Q694.53 99.61 692.58 99.61L692.58 99.61L677.73 99.61Q676.17 99.61 666.02 99.61L666.02 99.61L662.50 99.61L657.03 99.61L660.55 50.78L661.33 37.89Q660.94 37.50 662.89 37.50ZM706.25 53.91L706.25 53.91Q709.38 55.08 709.77 57.42L709.77 57.42L709.77 58.59Q709.77 60.16 708.59 60.16L708.59 60.16L707.42 60.16Q703.52 57.81 703.52 54.30L703.52 54.30Q705.47 53.91 706.25 53.91ZM699.61 67.58L705.08 64.06L705.86 64.06Q707.03 64.06 709.38 66.41L709.38 66.41Q706.64 76.17 705.86 87.50L705.86 87.50Q705.47 94.92 709.38 93.75L709.38 93.75L712.89 92.19L714.06 92.19Q714.06 96.09 710.55 98.83L710.55 98.83Q701.17 101.95 701.95 87.89L701.95 87.89Q702.73 74.61 704.69 68.75L704.69 68.75L700.39 71.88L699.61 67.58ZM734.77 64.06L734.77 64.06Q746.88 63.28 744.53 77.73L744.53 77.73Q744.92 83.20 744.14 88.28L744.14 88.28Q744.14 93.36 744.14 100.78L744.14 100.78Q744.14 119.14 730.47 119.14L730.47 119.14L724.61 117.97Q716.41 113.67 717.97 103.52L717.97 103.52L719.14 102.73Q721.88 112.89 730.47 113.67L730.47 113.67Q740.23 112.89 739.06 96.88L739.06 96.88Q738.67 95.31 739.45 92.58L739.45 92.58Q735.94 96.88 731.25 97.66L731.25 97.66Q719.14 96.48 721.09 80.47L721.09 80.47Q722.66 64.84 734.77 64.06ZM725.39 82.03L725.39 82.03Q723.83 90.63 731.25 92.58L731.25 92.58Q739.84 88.28 739.84 78.91L739.84 78.91L739.06 71.09Q739.06 69.53 737.89 69.53L737.89 69.53L736.33 69.53Q726.17 69.92 725.39 82.03ZM761.33 33.20L761.33 33.20L762.50 34.77L762.50 41.02Q762.50 53.13 761.33 69.14L761.33 69.14L761.33 70.31Q765.63 64.06 775 64.45L775 64.45Q782.81 63.67 781.25 78.91L781.25 78.91Q779.30 92.19 787.89 94.92L787.89 94.92L787.89 98.05L785.16 98.83Q773.83 99.22 775.39 71.88L775.39 71.88L773.44 71.09Q759.77 71.09 759.77 99.22L759.77 99.22L757.81 99.22Q754.30 98.05 754.30 94.14L754.30 94.14Q756.25 94.14 759.38 37.50L759.38 37.50Q760.16 33.20 761.33 33.20ZM801.17 53.52L801.17 53.52L804.30 54.69L803.91 60.55L803.52 66.02L809.38 65.63Q810.16 65.63 810.16 64.84L810.16 64.84Q812.89 64.84 814.84 69.14L814.84 69.14Q812.50 70.31 810.94 70.31L810.94 70.31L803.52 70.31Q802.34 70.31 801.17 83.59L801.17 83.59Q800.39 93.75 804.69 93.75L804.69 93.75L808.20 93.75L811.72 89.84Q813.28 89.84 813.28 91.02L813.28 91.02Q811.33 99.22 805.47 99.22L805.47 99.22Q794.92 100.78 796.48 80.86L796.48 80.86L797.66 76.17L797.66 71.09Q797.66 70.31 791.02 70.70L791.02 70.70L792.19 66.41Q800.78 66.80 799.61 64.84L799.61 64.84Q800.39 56.64 801.17 53.52Z"/></svg>