<svg xmlns="http://www.w3.org/2000/svg" xmlns:xlink="http://www.w3.org/1999/xlink" width="916.3999999999999" height="140"><path d="M16.10 109.50L11 109.50L11 25.60L36 25.60L36 30.90L28.40 55.20Q32.20 61.20 34 66.30Q35.80 71.40 35.80 78.10L35.80 78.10Q35.80 84.60 33.60 87.40Q31.40 90.20 25.30 91.10L25.30 91.10L20.80 91.70L18.90 86.60L23.30 86.10Q26.40 85.70 28 84.90Q29.60 84.10 30.25 82.50Q30.90 80.90 30.90 77.80L30.90 77.80Q30.90 71.70 28.90 66.65Q26.90 61.60 23 56L23 56L31.10 30.90L16.10 30.90L16.10 109.50ZM40.10 27.40L93.60 27.40L93.60 32.70L84.20 32.70L84.20 97.10Q84.20 101.10 83.15 103.25Q82.10 105.40 79.50 106.40Q76.90 107.40 71.90 107.80L71.90 107.80L66.10 108.30L64.20 102.80L71.10 102.40Q74.30 102.20 75.90 101.55Q77.50 100.90 78.15 99.40Q78.80 97.90 78.80 95L78.80 95L78.80 32.70L40.10 32.70L40.10 27.40ZM42.10 84.60L42.10 47.70L67 47.70L67 84.60L42.10 84.60ZM47 52.80L47 79.60L62.10 79.60L62.10 52.80L47 52.80ZM183 86.50L150.10 86.50L150.10 100.40L191.30 100.40L191.30 105.40L103.50 105.40L103.50 100.40L144.70 100.40L144.70 86.50L111.80 86.50L111.80 81.40L144.70 81.40L144.70 68.80L113.90 68.80L113.90 25.30L180.50 25.30L180.50 68.80L150.10 68.80L150.10 81.40L183 81.40L183 86.50ZM119.20 44.60L144.70 44.60L144.70 30.20L119.20 30.20L119.20 44.60ZM150.10 30.20L150.10 44.60L175 44.60L175 30.20L150.10 30.20ZM144.70 49.30L119.20 49.30L119.20 63.80L144.70 63.80L144.70 49.30ZM175 49.30L150.10 49.30L150.10 63.80L175 63.80L175 49.30ZM282 84.20L287.50 86.40Q286.70 92.40 286.40 94.60L286.40 94.60Q285.60 99.30 284.25 101.65Q282.90 104 280.40 104.85Q277.90 105.70 273.10 105.90L273.10 105.90Q260.80 106.40 246.70 106.40L246.70 106.40Q232.70 106.40 223.90 106L223.90 106Q216.90 105.70 214.15 102.70Q211.40 99.70 211.40 93.50L211.40 93.50L211.40 26.20L279.10 26.20L279.10 65.70L217 65.70L217 92.60Q217 97 218.65 98.60Q220.30 100.20 224.90 100.40L224.90 100.40Q235.20 100.90 247.20 100.90L247.20 100.90Q262.60 100.90 272.50 100.30L272.50 100.30Q275.80 100.20 277.45 99.45Q279.10 98.70 279.80 97.20Q280.50 95.70 281 92.80L281 92.80Q282 86.70 282 84.20L282 84.20ZM217 60.30L242.80 60.30L242.80 31.40L217 31.40L217 60.30ZM248.40 31.40L248.40 60.30L273.40 60.30L273.40 31.40L248.40 31.40ZM380.40 84.20L385.90 86.40Q385.10 92.40 384.80 94.60L384.80 94.60Q384.00 99.30 382.65 101.65Q381.30 104 378.80 104.85Q376.30 105.70 371.50 105.90L371.50 105.90Q359.20 106.40 345.10 106.40L345.10 106.40Q331.10 106.40 322.30 106L322.30 106Q315.30 105.70 312.55 102.70Q309.80 99.70 309.80 93.50L309.80 93.50L309.80 26.20L377.50 26.20L377.50 65.70L315.40 65.70L315.40 92.60Q315.40 97 317.05 98.60Q318.70 100.20 323.30 100.40L323.30 100.40Q333.60 100.90 345.60 100.90L345.60 100.90Q361.00 100.90 370.90 100.30L370.90 100.30Q374.20 100.20 375.85 99.45Q377.50 98.70 378.20 97.20Q378.90 95.70 379.40 92.80L379.40 92.80Q380.40 86.70 380.40 84.20L380.40 84.20ZM315.40 60.30L341.20 60.30L341.20 31.40L315.40 31.40L315.40 60.30ZM346.80 31.40L346.80 60.30L371.80 60.30L371.80 31.40L346.80 31.40ZM455 36L455 56.90L486.60 56.90L486.60 61.60L398.80 61.60L398.80 56.90L430.40 56.90L430.40 36L403.70 36L403.70 31.20L429 31.20Q426 26.90 420.30 21.20L420.30 21.20L424.40 18.40Q430.50 24.80 433.70 29L433.70 29L430.80 31.20L451.20 31.20Q453.60 28.40 456.65 24.60Q459.70 20.80 461.20 18.50L461.20 18.50L465.40 21.20Q462.90 24.90 457.70 31.20L457.70 31.20L481.70 31.20L481.70 36L455 36ZM450 56.90L450 36L435.50 36L435.50 56.90L450 56.90ZM424.40 51.10L420.80 55.10Q418.80 52.10 414.90 47.65Q411 43.20 408.40 40.90L408.40 40.90L411.80 37.50Q414.50 40 418.45 44.25Q422.40 48.50 424.40 51.10L424.40 51.10ZM464.20 54.70L460.60 51.50Q463.40 48.90 467.20 44.75Q471 40.60 473.20 37.80L473.20 37.80L476.90 40.80Q474.60 43.70 470.70 48Q466.80 52.30 464.20 54.70L464.20 54.70ZM418.40 104.80L418.40 109.80L413.30 109.80L413.30 70.40L472.20 70.40L472.20 109.60L467.10 109.60L467.10 104.80L418.40 104.80ZM418.40 85.50L467.10 85.50L467.10 75.30L418.40 75.30L418.40 85.50ZM467.10 90.10L418.40 90.10L418.40 100L467.10 100L467.10 90.10ZM508.10 40.40L538.60 40.40L538.60 33.30L499.90 33.30L499.90 28.70L538.60 28.70L538.60 19.60L543.50 19.90L543.50 28.70L582.10 28.70L582.10 33.30L543.50 33.30L543.50 40.40L573.70 40.40L573.70 67.30L543.50 67.30L543.50 75.80Q557 75.40 568.80 75.20L568.80 75.20Q566.50 72.50 564.30 70.30L564.30 70.30L567.90 67.80Q570.50 70.30 574.70 75.10Q578.90 79.90 581.80 83.60L581.80 83.60L578.30 87.10Q575.50 83.10 572.40 79.40L572.40 79.40L548.40 80.10Q538.40 80.40 525.30 80.70Q512.20 81 501.10 81.40L501.10 81.40L500.90 76.70Q512.50 76.30 535.30 76L535.30 76Q536.40 75.90 538.60 75.90L538.60 75.90L538.60 67.30L508.10 67.30L508.10 40.40ZM513.50 51.80L538.60 51.80L538.60 44.60L513.50 44.60L513.50 51.80ZM543.50 51.80L568.30 51.80L568.30 44.60L543.50 44.60L543.50 51.80ZM538.60 55.60L513.50 55.60L513.50 63.10L538.60 63.10L538.60 55.60ZM568.30 55.60L543.50 55.60L543.50 63.10L568.30 63.10L568.30 55.60ZM536 84.20L539.30 81.30Q541.40 83 545.30 86.95Q549.20 90.90 551.20 93.20L551.20 93.20L547.70 96.70Q545.80 94.20 541.95 90.05Q538.10 85.90 536 84.20L536 84.20ZM502.10 106.70L497.70 103.90Q500.90 100.10 504.35 94.55Q507.80 89 509.90 84.30L509.90 84.30L514.40 86.50Q511.90 91.90 508.55 97.40Q505.20 102.90 502.10 106.70L502.10 106.70ZM566.70 87.20L570.60 84.60Q573.30 87.70 577.10 92.90Q580.90 98.10 583.80 102.60L583.80 102.60L579.40 105.60Q576.70 101 573.20 95.85Q569.70 90.70 566.70 87.20L566.70 87.20ZM558.50 90.80L558.50 90.80L563.40 92.60Q563.20 95.90 562.70 99L562.70 99Q562.10 102.30 561 103.90Q559.90 105.50 557.80 106.15Q555.70 106.80 551.50 107.10L551.50 107.10Q546.70 107.40 541.80 107.40L541.80 107.40Q536.90 107.40 532.10 107.10L532.10 107.10Q526.10 106.70 523.70 104.85Q521.30 103 521.30 98.30L521.30 98.30L521.30 85.50L526.80 85.80L526.80 96.60Q526.80 100 528.15 101.05Q529.50 102.10 533.70 102.40L533.70 102.40Q537.90 102.70 542 102.70L542 102.70Q546.30 102.70 550.30 102.40L550.30 102.40Q553.50 102.20 554.90 101.80Q556.30 101.40 556.90 100.40Q557.50 99.40 557.90 97.10L557.90 97.10Q558.10 96.20 558.50 90.80ZM680.60 43.50L655.30 43.50Q666.10 70.80 686.20 88L686.20 88L682.40 92.70Q671.80 83.10 664.40 71.75Q657 60.40 652 46.70L652 46.70L652 86.60L669.70 86.60L669.70 91.70L652 91.70L652 109.80L646.50 109.80L646.50 91.70L628.90 91.70L628.90 86.60L646.50 86.60L646.50 46.80Q642.30 59.50 635.20 70.55Q628.10 81.60 617.50 92.60L617.50 92.60L613.30 88.40Q634.50 67.90 643.20 43.50L643.20 43.50L620.50 43.50L620.50 38.20L646.50 38.20L646.50 19.90L652 20.20L652 38.20L680.60 38.20L680.60 43.50ZM615.80 20.60L621.10 22Q617.80 32.80 613 43.60L613 43.60L613 109L607.60 109L607.60 54.50Q602.30 64.10 596.80 71.40L596.80 71.40L592.70 67.70Q600.30 57.50 606.40 44.95Q612.50 32.40 615.80 20.60L615.80 20.60ZM704.60 30.60L704.60 93.90L735.70 93.90L735.70 100L698 100L698 30.60L704.60 30.60ZM746.10 30.80L746.10 30.80Q746.10 28.20 746.95 27.45Q747.80 26.70 750.20 26.70L750.20 26.70Q752.40 26.70 753.25 27.45Q754.10 28.20 754.10 30.80L754.10 30.80Q754.10 33.40 753.25 34.15Q752.40 34.90 750.20 34.90L750.20 34.90Q747.80 34.90 746.95 34.15Q746.10 33.40 746.10 30.80ZM753.30 100L746.90 100L746.90 46L753.30 46L753.30 100ZM815.30 46L815.30 96.40Q815.30 107.80 808.95 113.90Q802.60 120 789.90 120L789.90 120Q782.40 120 777.30 118.80L777.30 118.80L777.30 113.20Q782.60 114.40 789.90 114.40L789.90 114.40Q799.70 114.40 804.35 109.80Q809.00 105.20 809.00 95.30L809.00 95.30L809.00 89Q807.20 94.40 802.80 97.20Q798.40 100 790.40 100L790.40 100Q782.20 100 777.45 96.85Q772.70 93.70 770.75 87.75Q768.80 81.80 768.80 72.50L768.80 72.50Q768.80 59.40 773.65 52.20Q778.50 45 790.40 45L790.40 45Q798.40 45 802.80 48.15Q807.20 51.30 809.00 56.90L809.00 56.90L809.00 46L815.30 46ZM809.20 72.50L809.20 72.50Q809.20 61.80 805.20 56.15Q801.20 50.50 791.40 50.50L791.40 50.50Q784.90 50.50 781.45 53.20Q778.00 55.90 776.80 60.65Q775.60 65.40 775.60 72.50L775.60 72.50Q775.60 79.90 776.85 84.60Q778.10 89.30 781.55 91.90Q785.00 94.50 791.40 94.50L791.40 94.50Q801.30 94.50 805.25 88.90Q809.20 83.30 809.20 72.50ZM875.80 62.40L875.80 62.40L875.80 100L869.50 100L869.50 65.40Q869.50 60.10 868.50 56.95Q867.50 53.80 864.85 52.25Q862.20 50.70 857.30 50.70L857.30 50.70Q851.00 50.70 846.50 53.25Q842.00 55.80 840.20 62.70L840.20 62.70L840.20 100L833.90 100L833.90 24L840.20 24L840.20 54.60Q841.90 49.60 846.90 47.30Q851.90 45 858.00 45L858.00 45Q867.80 45 871.80 49.45Q875.80 53.90 875.80 62.40ZM915.30 94.40L915.30 94.40L915.30 100Q911.10 100.60 908.70 100.60L908.70 100.60Q903.00 100.60 899.90 99.30Q896.80 98 895.40 94.40Q894.00 90.80 894.00 83.70L894.00 83.70L894.00 51.50L885.60 51.50L885.60 46L894.00 46L894.00 33.20L900.30 33.20L900.30 46L914.60 46L914.60 51.50L900.30 51.50L900.30 83.60Q900.30 88.30 901.00 90.70Q901.70 93.10 903.45 94.10Q905.20 95.10 908.70 95.10L908.70 95.10Q912.40 95.10 915.30 94.40Z"/></svg>