<svg xmlns="http://www.w3.org/2000/svg" xmlns:xlink="http://www.w3.org/1999/xlink" width="772.4609375" height="106.4453125"><path d="M63.09 3.44L67.19 3.44L71.48 3.44L71.48 13.01L71.48 22.58L80.27 22.58L88.87 22.58L88.87 24.53L88.87 26.48L80.27 26.48L71.48 26.48L71.48 33.71Q71.48 40.94 71.09 42.50L71.09 42.50Q70.90 44.06 70.31 45.23L70.31 45.23Q69.73 46.41 69.34 46.80L69.34 46.80L68.95 47.38L73.44 47.38L77.93 47.38L77.93 46.41L77.93 45.63L82.23 45.63L86.33 45.63L86.33 61.84Q86.33 78.24 86.13 79.61L86.13 79.61Q85.74 81.17 85.35 82.15L85.35 82.15Q84.77 83.32 83.98 84.10L83.98 84.10Q83.20 85.08 82.03 85.66Q80.86 86.25 79.49 86.25L79.49 86.25L77.93 86.45L77.93 82.54L77.93 78.63L67.19 78.63L56.64 78.63L56.45 79.22Q56.45 79.22 56.05 80.98L56.05 80.98Q55.66 82.15 55.08 83.13L55.08 83.13Q54.30 84.10 53.71 84.69L53.71 84.69Q53.13 85.27 51.95 85.86L51.95 85.86Q50.78 86.45 49.41 86.45L49.41 86.45L48.05 86.45L48.24 65.94L48.24 45.63L52.34 45.63L56.64 45.63L56.64 46.41L56.64 47.38L59.77 47.38L63.09 47.38L63.09 25.51L63.09 3.44ZM77.93 51.09L67.38 51.09Q56.84 51.09 56.74 51.39Q56.64 51.68 56.64 63.20L56.64 63.20L56.64 74.73L67.38 74.73L77.93 74.73L77.93 63.01L77.93 51.09ZM31.05 4.22L31.05 4.22L35.16 4.22L35.16 8.71Q35.16 13.20 34.67 14.47Q34.18 15.74 33.40 16.91L33.40 16.91Q32.42 17.70 31.25 18.28Q30.08 18.87 28.52 18.87L28.52 18.87L26.76 19.06L26.76 11.84Q26.76 4.80 26.86 4.51Q26.95 4.22 31.05 4.22ZM14.45 21.80L28.71 21.80L42.97 21.80L42.97 23.55L42.97 25.51L28.71 25.51L14.65 25.51L14.45 23.55L14.45 21.80ZM33.59 33.52L37.89 33.52L42.38 33.52L42.38 34.10Q42.38 34.69 40.82 48.95L40.82 48.95L39.45 63.20L38.48 65.16Q37.70 66.72 36.52 68.38Q35.35 70.04 33.98 71.02L33.98 71.02Q32.42 72.19 31.05 72.97Q29.69 73.75 28.61 73.46Q27.54 73.16 27.54 72.97L27.54 72.97Q27.54 72.97 28.52 71.41L28.52 71.41Q29.30 70.04 30.08 68.28L30.08 68.28Q30.86 66.52 31.45 64.77L31.45 64.77Q32.03 62.81 32.81 49.14L32.81 49.14Q33.59 35.27 33.59 34.49L33.59 34.49L33.59 33.52ZM11.13 41.33Q11.13 40.55 11.33 40.55Q11.52 40.55 14.06 43.09L14.06 43.09Q16.60 45.63 18.55 47.77L18.55 47.77Q20.31 50.12 21.88 52.27L21.88 52.27Q23.44 54.61 24.41 56.76L24.41 56.76Q25.59 58.91 26.17 60.86L26.17 60.86Q26.76 62.62 27.15 64.18L27.15 64.18Q27.34 65.94 27.15 66.13L27.15 66.13Q27.15 66.13 23.24 67.70L23.24 67.70Q19.53 69.06 19.53 68.87L19.53 68.87Q19.34 68.87 18.75 65.16L18.75 65.16Q18.16 61.45 17.38 57.93L17.38 57.93Q16.60 54.02 16.02 52.07L16.02 52.07Q15.43 50.12 14.65 47.97L14.65 47.97Q14.06 46.02 13.28 44.75Q12.50 43.48 11.82 42.79Q11.13 42.11 11.13 41.33ZM14.45 75.70L27.73 75.70L41.02 75.70L41.02 77.46L41.02 79.41L27.73 79.41L14.65 79.41L14.45 77.46L14.45 75.70ZM167.19 4.41L170.31 4.41L173.44 4.41L173.44 12.62L173.44 20.63L179.49 20.63L185.35 20.63L185.35 22.38L185.16 24.34L179.30 24.34L173.44 24.53L173.44 29.22Q173.44 34.10 173.24 35.66L173.24 35.66Q173.05 37.03 172.46 38.40L172.46 38.40Q171.88 39.77 171.88 39.96L171.88 39.96Q171.68 39.96 172.07 40.06Q172.46 40.16 173.44 40.16Q174.41 40.16 176.07 40.16Q177.73 40.16 180.27 40.16L180.27 40.16L188.87 40.16L188.87 42.11L188.87 44.06L169.34 44.06L149.80 44.06L149.80 42.11L149.80 40.16L158.59 40.16L167.19 40.16L167.19 32.34L167.19 24.53L162.30 24.53L157.42 24.53L156.84 25.51Q156.45 26.29 154.69 28.83L154.69 28.83Q153.32 31.17 151.17 33.71L151.17 33.71Q149.22 36.45 148.44 37.03L148.44 37.03Q147.85 37.81 147.27 37.62L147.27 37.62Q146.68 37.42 146.68 37.42L146.68 37.42Q146.68 37.23 147.85 34.49L147.85 34.49Q148.83 32.54 151.76 25.31L151.76 25.31Q154.88 17.50 155.86 14.77L155.86 14.77L157.23 11.05L160.55 11.05Q163.87 11.05 163.87 11.15Q163.87 11.25 162.50 14.57L162.50 14.57Q160.74 18.28 160.35 19.06L160.35 19.06Q159.77 20.43 159.77 20.53Q159.77 20.63 163.48 20.63L163.48 20.63L167.19 20.63L167.19 12.62L167.19 4.41ZM128.32 8.32L128.32 8.32L145.70 8.32L145.70 10.27L145.70 12.23L141.41 12.23L137.11 12.23L137.11 17.11Q136.91 22.19 137.11 22.58L137.11 22.58Q137.11 23.16 138.28 23.07Q139.45 22.97 139.55 22.48Q139.65 21.99 142.58 21.99L142.58 21.99L145.70 21.99L145.70 48.95Q145.70 75.70 145.31 77.27L145.31 77.27Q144.92 78.83 144.34 80L144.34 80Q143.95 81.17 142.97 82.15L142.97 82.15Q142.19 82.93 141.02 83.52L141.02 83.52Q140.04 83.91 139.84 83.91Q139.65 83.91 139.65 81.37L139.65 81.37L139.45 78.63L128.32 78.63L117.19 78.63L116.99 79.22Q116.60 80.20 116.02 81.17L116.02 81.17Q115.23 82.15 114.16 82.93Q113.09 83.71 112.50 83.91L112.50 83.91L111.72 83.91L111.72 53.05L111.72 21.99L114.84 21.99Q117.77 21.99 117.87 22.48Q117.97 22.97 119.34 22.97L119.34 22.97L120.90 22.97L120.90 17.70L120.90 12.23L116.02 12.23L110.94 12.03L110.94 10.47Q110.94 9.10 110.94 8.71L110.94 8.71Q111.13 8.32 128.32 8.32ZM131.05 12.23L129.10 12.23Q127.15 12.23 127.15 12.42L127.15 12.42Q126.95 12.42 126.95 17.50Q126.95 22.58 127.15 22.77L127.15 22.77Q127.34 23.16 129.10 22.97L129.10 22.97L130.86 22.97L130.86 17.50L131.05 12.23ZM120.90 26.88L119.34 26.88L117.77 26.88L117.77 50.90L117.77 74.73L128.71 74.73L139.65 74.73L139.65 50.90L139.65 26.88L138.28 26.88L136.91 26.88L136.91 35.47Q136.91 43.87 136.62 45.23Q136.33 46.60 135.84 47.48Q135.35 48.36 134.77 49.14L134.77 49.14Q133.98 49.92 132.81 50.51L132.81 50.51Q131.84 51.09 131.45 51.09Q131.05 51.09 131.05 38.98L131.05 38.98L131.05 26.88L129.10 26.88L127.15 27.07L126.95 36.05Q126.76 45.04 126.46 45.92Q126.17 46.80 125.78 47.58Q125.39 48.36 124.61 49.24Q123.83 50.12 122.75 50.61Q121.68 51.09 121.29 51.09Q120.90 51.09 120.90 38.98L120.90 38.98L120.90 26.88ZM119.73 57.93L128.91 57.93L138.09 57.93L138.09 59.69L138.09 61.64L128.91 61.64L119.73 61.64L119.73 59.69L119.73 57.93ZM158.59 51.09L158.59 51.09L161.52 51.09L161.52 52.27L161.52 53.44L169.73 53.44L178.13 53.24L178.13 52.27L178.13 51.29L181.25 51.29L184.18 51.29L184.18 64.77Q184.18 72.77 184.08 75.61Q183.98 78.44 183.79 79.22L183.79 79.22Q183.59 80.20 183.01 81.56L183.01 81.56Q182.42 82.73 181.25 83.71Q180.08 84.69 179.10 85.08L179.10 85.08L178.13 85.47L178.13 81.76L178.13 78.05L169.73 78.05L161.33 78.05L160.94 79.61Q160.35 81.37 159.57 82.54L159.57 82.54Q158.59 83.71 157.42 84.30L157.42 84.30Q156.25 85.08 155.66 85.08L155.66 85.08L155.27 85.08L155.27 68.28Q155.27 51.48 155.47 51.29L155.47 51.29Q155.47 51.09 158.59 51.09ZM178.13 57.15L169.73 57.15L161.52 57.15L161.52 65.55L161.52 74.14L169.73 74.14L178.13 73.95L178.13 65.55L178.13 57.15ZM244.34 3.44L248.63 3.44L252.73 3.44L252.73 40.16Q252.73 76.88 252.25 78.34Q251.76 79.80 250.98 81.56L250.98 81.56Q250.20 83.32 249.41 84.30L249.41 84.30Q248.83 85.08 247.85 85.76Q246.88 86.45 245.70 86.45L245.70 86.45L244.34 86.45L244.34 44.84L244.34 3.44ZM262.30 26.68L262.30 26.68Q262.30 26.68 263.87 27.46L263.87 27.46Q265.63 28.24 267.29 29.51Q268.95 30.78 271.29 33.13L271.29 33.13Q273.24 35.08 275.20 37.62L275.20 37.62Q277.15 39.96 278.13 41.52L278.13 41.52Q279.49 43.48 281.25 46.41L281.25 46.41Q283.01 49.34 284.77 52.66L284.77 52.66Q286.33 55.98 286.72 56.95L286.72 56.95L287.11 57.93L286.52 57.93Q286.33 57.93 280.47 58.52L280.47 58.52Q275 58.91 275 58.91L275 58.91Q274.80 58.71 274.02 55.59L274.02 55.59Q272.66 50.90 272.07 49.53L272.07 49.53Q271.09 46.41 270.12 43.67L270.12 43.67Q268.75 40.16 267.19 37.23L267.19 37.23Q265.82 34.10 264.75 32.44Q263.67 30.78 262.50 29.61L262.50 29.61L261.13 28.24L261.72 27.46Q262.11 26.68 262.30 26.68ZM223.44 27.07L227.54 27.07L231.84 27.07L231.84 34.69Q231.84 42.30 231.54 44.65Q231.25 46.99 230.66 48.95Q230.08 50.90 229.10 53.05L229.10 53.05Q227.93 55.39 226.95 56.95L226.95 56.95Q225.98 58.71 224.41 60.57Q222.85 62.42 221.29 63.79L221.29 63.79Q219.53 64.96 218.16 65.94L218.16 65.94Q216.80 67.11 214.84 67.89L214.84 67.89Q213.09 69.06 212.89 69.06Q212.70 69.06 212.70 67.30L212.70 67.30L212.70 65.74L213.87 64.96Q215.04 64.18 216.31 63.01Q217.58 61.84 218.75 60.27L218.75 60.27Q219.92 58.71 220.90 57.15L220.90 57.15Q221.48 55.59 222.07 53.83L222.07 53.83Q222.85 51.88 223.05 50.51L223.05 50.51Q223.44 48.55 223.44 37.81L223.44 37.81L223.44 27.07ZM331.45 3.44L335.55 3.44L339.84 3.44L339.84 5.59L339.84 7.73L350.78 7.73L361.52 7.54L361.72 5.59L361.72 3.44L366.02 3.44L370.12 3.44L370.12 5.59L370.12 7.73L381.05 7.73L391.99 7.73L391.99 9.49L391.80 11.45L380.86 11.45L369.92 11.64L369.53 12.62Q369.34 13.59 368.75 14.57L368.75 14.57Q368.36 15.35 367.58 16.33L367.58 16.33Q366.80 17.30 365.63 17.89L365.63 17.89Q364.45 18.48 363.09 18.48L363.09 18.48L361.72 18.48L361.72 14.96L361.72 11.45L350.78 11.45L339.65 11.45L339.26 12.81Q338.87 13.98 338.28 14.96L338.28 14.96Q337.89 15.94 336.91 16.72L336.91 16.72Q336.13 17.50 335.16 18.09L335.16 18.09Q334.18 18.48 332.81 18.48L332.81 18.48L331.45 18.48L331.45 14.96L331.45 11.45L320.31 11.45L309.18 11.45L309.18 9.69L309.18 7.73L320.31 7.73L331.25 7.54L331.45 5.59L331.45 3.44ZM322.66 17.11L326.17 17.11Q329.69 17.11 329.79 17.30Q329.88 17.50 328.71 19.84L328.71 19.84Q327.54 22.19 326.07 24.53Q324.61 26.88 323.83 27.85L323.83 27.85Q323.05 28.63 321.88 30.20L321.88 30.20Q320.70 31.37 318.55 33.32L318.55 33.32Q316.41 35.08 314.45 36.45L314.45 36.45Q312.30 37.81 309.96 38.98L309.96 38.98Q307.62 40.16 307.42 40.16L307.42 40.16Q307.42 40.16 307.42 38.98L307.42 38.98L307.42 37.81L308.79 36.64Q310.55 35.27 312.30 33.32L312.30 33.32Q314.45 31.17 315.63 29.61L315.63 29.61Q316.99 27.66 318.36 25.70L318.36 25.70Q319.73 23.75 320.80 21.31Q321.88 18.87 322.27 17.89L322.27 17.89L322.66 17.11ZM342.58 19.26L346.88 19.26L350.98 19.26L350.98 26.68L350.98 33.91L350.20 35.27Q350.20 35.66 350 36.05Q349.80 36.45 349.71 36.74Q349.61 37.03 349.41 37.03L349.41 37.03L351.76 37.42L354.10 37.42L354.10 30.59L354.30 23.95L357.23 23.75L360.35 23.75L360.35 29.61Q360.35 35.47 360.16 36.64L360.16 36.64Q359.77 38.01 359.38 38.98L359.38 38.98Q358.79 40.35 357.81 41.33L357.81 41.33Q356.84 42.30 355.86 42.89L355.86 42.89Q354.69 43.28 354.39 43.28Q354.10 43.28 354.10 42.30L354.10 42.30L354.10 41.13L345.90 41.13L337.70 41.13L336.52 41.91Q335.55 42.70 334.77 43.09L334.77 43.09Q333.98 43.28 333.69 43.28Q333.40 43.28 333.40 33.71L333.40 33.71L333.59 23.95L336.52 23.75L339.65 23.75L339.65 30.59L339.45 37.42L341.02 37.42L342.58 37.42L342.58 28.24L342.58 19.26ZM367.58 19.65Q367.58 19.26 371.68 19.26Q375.78 19.26 375.78 19.45L375.78 19.45Q375.78 19.45 375 23.95L375 23.95Q374.02 28.63 373.44 30.39L373.44 30.39Q372.85 31.95 372.85 32.15L372.85 32.15Q372.85 32.15 383.20 32.34L383.20 32.34L393.75 32.34L393.75 33.91L393.75 35.27L390.63 35.27L387.30 35.27L387.30 35.86Q387.11 36.64 386.91 38.01L386.91 38.01Q386.91 39.18 386.52 41.33L386.52 41.33Q386.13 43.48 385.55 45.23L385.55 45.23Q385.16 47.38 384.38 49.63Q383.59 51.88 383.01 53.63L383.01 53.63Q382.03 55.78 380.47 59.30L380.47 59.30L378.71 62.81L380.47 64.96Q382.23 67.11 385.16 69.84L385.16 69.84Q387.70 72.58 389.26 73.75L389.26 73.75Q391.02 74.92 391.21 74.92L391.21 74.92L391.60 75.31L390.82 80.78Q390.23 86.25 390.14 86.35Q390.04 86.45 386.52 83.03Q383.01 79.61 381.05 77.46L381.05 77.46Q379.10 75.51 377.54 73.36L377.54 73.36Q376.37 71.80 375.39 70.23L375.39 70.23Q374.80 69.26 374.61 69.26Q374.41 69.26 373.63 70.33Q372.85 71.41 370.12 74.14L370.12 74.14Q367.58 76.88 365.04 78.63L365.04 78.63Q363.09 80.20 361.72 80.98L361.72 80.98Q360.55 81.56 360.55 82.54Q360.55 83.52 360.45 83.52Q360.35 83.52 359.77 82.93L359.77 82.93L358.98 82.54L357.81 82.93Q357.42 83.13 356.05 83.71L356.05 83.71Q355.47 83.91 354.88 83.52L354.88 83.52L354.30 83.13L355.47 81.95Q356.84 80.78 356.84 80.68Q356.84 80.59 354.88 78.34Q352.93 76.09 351.76 74.14Q350.59 72.19 350 70.43L350 70.43Q349.22 68.87 348.83 67.11L348.83 67.11Q348.24 65.35 348.24 61.05L348.24 61.05L348.05 56.95L344.34 56.95L340.82 56.95L340.82 60.08Q340.82 63.40 340.43 65.35L340.43 65.35Q340.04 66.91 339.45 68.87L339.45 68.87Q338.87 70.43 337.79 72.58Q336.72 74.73 335.35 76.48L335.35 76.48Q333.79 78.63 331.25 80.98L331.25 80.98Q328.71 83.52 328.52 83.52Q328.32 83.52 328.32 82.05Q328.32 80.59 329.10 80L329.10 80Q329.88 79.61 330.86 77.85L330.86 77.85Q331.64 76.09 332.03 74.53L332.03 74.53Q332.42 72.77 332.81 70.82L332.81 70.82Q333.01 68.87 333.01 61.25L333.01 61.25L333.01 53.63L344.34 53.63L355.86 53.63L355.86 62.62Q356.05 71.21 356.45 73.26Q356.84 75.31 357.42 76.88L357.42 76.88Q358.20 78.63 358.40 78.63L358.40 78.63Q358.79 78.83 359.96 77.66L359.96 77.66Q360.74 76.68 362.50 74.73L362.50 74.73Q363.87 72.97 365.82 70.23L365.82 70.23Q367.97 67.30 369.34 64.96L369.34 64.96Q370.90 62.42 370.70 62.03L370.70 62.03Q370.70 61.45 369.34 58.52L369.34 58.52Q368.16 55.39 367.19 52.46L367.19 52.46Q366.21 49.14 365.82 46.99L365.82 46.99L365.23 44.26L363.67 45.63Q362.30 46.80 360.94 47.77L360.94 47.77Q359.38 48.55 359.38 48.95Q359.38 49.34 345.31 49.34L345.31 49.34L331.25 49.34L331.25 47.58L331.25 45.63L345.51 45.63L359.77 45.63L361.13 42.70Q362.30 40.16 363.67 36.84L363.67 36.84Q364.65 34.10 365.43 31.95L365.43 31.95Q365.82 30 366.80 24.92L366.80 24.92Q367.58 19.65 367.58 19.65L367.58 19.65ZM378.71 35.27L375 35.27L371.29 35.27L370.70 36.45Q370.12 37.42 368.85 39.47Q367.58 41.52 367.58 41.82Q367.58 42.11 368.75 44.84L368.75 44.84Q370.12 47.77 372.07 51.29L372.07 51.29Q374.02 55.20 374.22 55.20Q374.41 55.20 375 53.44L375 53.44Q375.78 51.68 376.56 48.75L376.56 48.75Q377.15 46.60 377.73 43.67L377.73 43.67Q378.13 41.52 378.32 39.18L378.32 39.18Q378.71 37.03 378.71 36.25L378.71 36.25L378.71 35.27ZM324.41 33.61Q324.61 33.32 328.32 33.32Q332.03 33.32 332.13 33.42Q332.23 33.52 331.64 35.18Q331.05 36.84 330.27 38.59L330.27 38.59Q329.49 39.96 328.32 42.11L328.32 42.11L327.15 44.06L327.15 60.08Q327.15 76.09 326.76 77.66L326.76 77.66Q326.56 79.41 325.98 80.78L325.98 80.78Q325.20 82.15 324.61 83.13L324.61 83.13Q323.83 83.91 322.36 84.59Q320.90 85.27 319.73 85.27L319.73 85.27L318.55 85.08L318.55 69.06L318.36 52.85L317.38 53.63Q316.21 54.41 314.06 55.59L314.06 55.59Q311.72 56.76 309.38 57.54L309.38 57.54Q307.42 58.13 306.64 58.32L306.64 58.32L305.86 58.52L306.05 57.34Q306.25 55.98 307.91 54.80Q309.57 53.63 311.91 51.29L311.91 51.29Q314.65 48.75 316.41 46.60L316.41 46.60Q318.16 44.26 319.92 41.72L319.92 41.72Q321.68 38.98 322.95 36.45Q324.22 33.91 324.41 33.61ZM409.18 71.02L409.18 16.52Q408.98 12.03 404.69 12.03L404.69 12.03Q400 12.03 400 16.72L400 16.72L400 74.73L400 75.51Q400 80 404.49 80L404.49 80L434.77 80Q439.45 80 439.45 75.51L439.45 75.51Q439.45 71.02 434.77 71.02L434.77 71.02L409.18 71.02ZM486.72 70.82Q476.95 70.82 470.12 63.79L470.12 63.79Q463.28 56.56 463.28 46.41L463.28 46.41Q463.28 36.25 470.12 29.22L470.12 29.22Q476.95 21.99 486.72 21.99L486.72 21.99Q496.29 21.99 503.13 29.22L503.13 29.22Q509.96 36.25 509.96 46.41L509.96 46.41Q509.96 56.56 503.13 63.79L503.13 63.79Q496.29 70.82 486.72 70.82L486.72 70.82ZM486.72 13.01Q473.44 13.01 464.06 22.77L464.06 22.77Q454.69 32.54 454.69 46.41L454.69 46.41Q454.69 60.27 464.06 70.04L464.06 70.04Q473.44 79.80 486.72 79.80L486.72 79.80Q499.80 79.80 509.18 70.04L509.18 70.04Q518.55 60.27 518.55 46.41L518.55 46.41Q518.55 32.54 509.18 22.77L509.18 22.77Q499.80 13.01 486.72 13.01L486.72 13.01ZM559.38 80Q571.09 80 578.71 71.60L578.71 71.60Q586.33 63.20 586.91 50.31L586.91 50.31L586.91 50.31L587.11 49.73Q587.11 45.63 583.20 45.43L583.20 45.43L552.15 45.43L552.15 45.43L552.15 45.43L551.95 45.43Q548.05 45.63 548.05 49.73L548.05 49.73Q548.05 54.02 552.15 54.02L552.15 54.02L552.15 54.02L578.52 54.02Q575 71.02 559.38 71.02L559.38 71.02Q550.20 71.02 543.75 63.59L543.75 63.59Q537.30 56.37 537.30 46.02L537.30 46.02Q537.30 35.86 543.75 28.63L543.75 28.63Q550.39 21.21 559.57 21.21L559.57 21.21Q570.31 21.21 576.95 32.15L576.95 32.15Q578.13 34.49 580.66 34.49L580.66 34.49Q584.77 34.49 584.77 30L584.77 30L584.38 28.05L584.38 27.85L583.59 26.68Q574.61 12.23 559.57 12.23L559.57 12.23Q546.88 12.23 538.09 22.19L538.09 22.19Q529.10 32.15 529.10 46.02L529.10 46.02Q529.10 60.27 537.89 70.04L537.89 70.04Q546.68 80 559.38 80L559.38 80ZM630.66 70.82Q620.90 70.82 614.06 63.79L614.06 63.79Q607.23 56.56 607.23 46.41L607.23 46.41Q607.23 36.25 614.06 29.22L614.06 29.22Q620.90 21.99 630.66 21.99L630.66 21.99Q640.23 21.99 647.07 29.22L647.07 29.22Q653.91 36.25 653.91 46.41L653.91 46.41Q653.91 56.56 647.07 63.79L647.07 63.79Q640.23 70.82 630.66 70.82L630.66 70.82ZM630.66 13.01Q617.38 13.01 608.01 22.77L608.01 22.77Q598.63 32.54 598.63 46.41L598.63 46.41Q598.63 60.27 608.01 70.04L608.01 70.04Q617.38 79.80 630.66 79.80L630.66 79.80Q643.75 79.80 653.13 70.04L653.13 70.04Q662.50 60.27 662.50 46.41L662.50 46.41Q662.50 32.54 653.13 22.77L653.13 22.77Q643.75 13.01 630.66 13.01L630.66 13.01ZM732.42-0.08L732.42-0.08L736.52 0.12L736.52 9.49L736.52 18.87L749.41 18.87L762.30 19.06L762.30 20.82L762.30 22.58L753.71 22.58L745.12 22.58L745.12 24.92Q745.31 26.68 745.70 29.41L745.70 29.41Q746.09 32.15 746.48 34.10L746.48 34.10Q747.07 36.84 747.85 39.18L747.85 39.18Q748.63 42.11 749.80 45.04L749.80 45.04Q750.98 47.97 752.34 50.70L752.34 50.70Q753.71 53.44 755.27 55.98L755.27 55.98Q757.03 58.91 758.20 60.27L758.20 60.27Q759.57 62.23 760.55 63.40L760.55 63.40Q761.72 64.96 761.52 65.55Q761.33 66.13 761.13 66.13L761.13 66.13Q760.94 66.13 759.08 64.86Q757.23 63.59 754.88 61.64L754.88 61.64Q752.34 59.69 750 57.34Q747.66 55 745.70 52.46L745.70 52.46Q743.75 49.92 742.19 47.58L742.19 47.58Q740.43 45.04 739.45 42.89L739.45 42.89Q738.28 40.94 737.50 38.79L737.50 38.79L736.72 36.84L736.52 48.36L736.52 59.88L742.97 59.88L749.22 59.88L749.22 61.64L749.22 63.40L742.97 63.40L736.72 63.40L736.52 72.97Q736.52 82.54 736.13 83.71L736.13 83.71Q735.74 84.88 735.35 85.86L735.35 85.86Q734.77 86.84 734.18 87.62L734.18 87.62Q733.40 88.40 732.23 88.98L732.23 88.98Q731.05 89.57 729.49 89.57L729.49 89.57L727.93 89.77L727.93 76.68L727.73 63.59L720.90 63.40L713.87 63.40L713.87 61.64L713.87 59.88L720.90 59.88L727.73 59.69L727.93 48.95Q727.93 38.01 727.73 38.01Q727.54 38.01 727.15 38.98L727.15 38.98Q726.95 39.96 725.39 42.70L725.39 42.70Q724.22 45.04 722.46 47.77L722.46 47.77Q720.90 50.12 718.95 52.66L718.95 52.66Q717.19 54.80 714.45 57.54L714.45 57.54Q711.72 60.27 709.38 62.03L709.38 62.03Q706.84 64.18 705.47 64.96L705.47 64.96Q703.91 66.13 703.71 66.13Q703.52 66.13 703.22 65.55Q702.93 64.96 705.08 62.42L705.08 62.42Q707.23 59.49 708.20 57.93L708.20 57.93Q709.57 56.17 710.74 54.02L710.74 54.02Q711.91 52.07 712.89 50.31L712.89 50.31Q713.87 48.36 715.04 45.63L715.04 45.63Q716.21 42.70 717.19 40.16L717.19 40.16Q718.16 37.42 718.75 34.88L718.75 34.88Q719.53 32.15 720.02 29.32Q720.51 26.48 720.70 24.53L720.70 24.53L720.90 22.58L712.30 22.58L703.71 22.58L703.71 20.82L703.71 18.87L715.82 18.87L727.93 18.87L727.93 9.49Q727.93 0.31 728.13 0.12Q728.32-0.08 732.42-0.08ZM695.90 1.88L700.98 1.88L705.86 1.88L705.86 2.46Q705.86 3.05 705.27 5L705.27 5Q704.88 6.95 704.10 9.10L704.10 9.10Q703.32 11.05 702.54 12.81L702.54 12.81L701.56 14.77L701.56 47.77Q701.56 80.59 701.17 82.15L701.17 82.15Q700.78 83.71 700 84.88L700 84.88Q699.22 86.25 698.14 86.84Q697.07 87.42 696.29 87.62L696.29 87.62Q695.51 88.01 694.34 88.01L694.34 88.01L693.16 88.01L693.16 57.15L693.16 26.29L691.60 27.46Q690.04 28.83 688.48 29.80L688.48 29.80Q686.52 30.78 684.77 31.56L684.77 31.56Q683.59 31.95 683.20 32.05Q682.81 32.15 682.81 31.95L682.81 31.95Q682.62 31.56 684.57 28.63L684.57 28.63Q685.74 26.68 687.30 24.14L687.30 24.14Q688.09 22.77 690.04 19.06L690.04 19.06Q691.99 15.16 692.97 12.62L692.97 12.62Q693.95 9.69 694.73 7.54L694.73 7.54Q695.31 5.20 695.70 3.63L695.70 3.63L695.90 1.88Z"/></svg>