<svg xmlns="http://www.w3.org/2000/svg" xmlns:xlink="http://www.w3.org/1999/xlink" width="1077.9" height="140"><path d="M37.10 24.20L37.10 32.70L30.20 55.70Q33.90 61.70 35.60 67.05Q37.30 72.40 37.30 79L37.30 79Q37.30 84.40 36.35 87.25Q35.40 90.10 33.05 91.50Q30.70 92.90 26 93.70L26 93.70L22.50 94.20L19.50 85.50L23.20 85Q25.90 84.70 27.15 84.10Q28.40 83.50 28.90 82.10Q29.40 80.70 29.40 77.80L29.40 77.80Q29.40 72.70 27.40 67.80Q25.40 62.90 21.50 57.10L21.50 57.10L28.90 32.70L18.20 32.70L18.20 109.70L9.70 109.70L9.70 24.20L37.10 24.20ZM40.20 26L93.30 26L93.30 34.50L85.70 34.50L85.70 96.50Q85.70 101.20 84.65 103.70Q83.60 106.20 80.85 107.35Q78.10 108.50 72.60 109L72.60 109L64.90 109.60L62.10 100.30L70.10 99.80Q74.20 99.60 75.50 98.30Q76.80 97 76.80 93.20L76.80 93.20L76.80 34.50L40.20 34.50L40.20 26ZM41 86L41 46.30L68.20 46.30L68.20 86L41 86ZM49 54.60L49 77.80L60.10 77.80L60.10 54.60L49 54.60ZM183.20 88.80L152 88.80L152 99.30L191.20 99.30L191.20 107.50L103.60 107.50L103.60 99.30L142.80 99.30L142.80 88.80L111.60 88.80L111.60 80.30L142.80 80.30L142.80 70.70L112.60 70.70L112.60 24.70L181.90 24.70L181.90 70.70L152 70.70L152 80.30L183.20 80.30L183.20 88.80ZM121.60 43.80L142.80 43.80L142.80 32.80L121.60 32.80L121.60 43.80ZM152 32.80L152 43.80L172.80 43.80L172.80 32.80L152 32.80ZM142.80 51.60L121.60 51.60L121.60 62.50L142.80 62.50L142.80 51.60ZM172.80 51.60L152 51.60L152 62.50L172.80 62.50L172.80 51.60ZM279.70 83.30L289 86.70Q288.80 91 287.90 95.10L287.90 95.10Q287 100 285.55 102.50Q284.10 105 281.30 106.10Q278.50 107.20 273.30 107.40L273.30 107.40Q264.20 107.90 248.60 107.90L248.60 107.90Q233 107.90 223.50 107.40L223.50 107.40Q215.90 107.10 212.80 103.85Q209.70 100.60 209.70 93.20L209.70 93.20L209.70 25.20L281 25.20L281 68L219.20 68L219.20 90.90Q219.20 95.20 220.55 96.65Q221.90 98.10 226.20 98.30L226.20 98.30Q236.10 98.90 248.90 98.90L248.90 98.90Q261.80 98.90 271.10 98.30L271.10 98.30Q274 98.10 275.50 97.40Q277 96.70 277.70 95.35Q278.40 94 278.90 91.40L278.90 91.40Q279.70 86.60 279.70 83.30L279.70 83.30ZM219.20 59L240.90 59L240.90 34.10L219.20 34.10L219.20 59ZM250.30 34.10L250.30 59L271.30 59L271.30 34.10L250.30 34.10ZM378.10 83.30L387.40 86.70Q387.20 91 386.30 95.10L386.30 95.10Q385.40 100 383.95 102.50Q382.50 105 379.70 106.10Q376.90 107.20 371.70 107.40L371.70 107.40Q362.60 107.90 347.00 107.90L347.00 107.90Q331.40 107.90 321.90 107.40L321.90 107.40Q314.30 107.10 311.20 103.85Q308.10 100.60 308.10 93.20L308.10 93.20L308.10 25.20L379.40 25.20L379.40 68L317.60 68L317.60 90.90Q317.60 95.20 318.95 96.65Q320.30 98.10 324.60 98.30L324.60 98.30Q334.50 98.90 347.30 98.90L347.30 98.90Q360.20 98.90 369.50 98.30L369.50 98.30Q372.40 98.10 373.90 97.40Q375.40 96.70 376.10 95.35Q376.80 94 377.30 91.40L377.30 91.40Q378.10 86.60 378.10 83.30L378.10 83.30ZM317.60 59L339.30 59L339.30 34.10L317.60 34.10L317.60 59ZM348.70 34.10L348.70 59L369.70 59L369.70 34.10L348.70 34.10ZM457 55.30L486.60 55.30L486.60 63L398.80 63L398.80 55.30L418.40 55.30Q416.50 52.40 413 48.50Q409.50 44.60 406.90 42.10L406.90 42.10L411.90 37.20L403.40 37.20L403.40 29.50L425 29.50Q422.30 25.50 419 22L419 22L426.10 17.50Q426.70 18.20 429.40 21.50Q432.10 24.80 433.90 27.40L433.90 27.40L431.10 29.50L450.70 29.50Q453 26.80 455.55 23.30Q458.10 19.80 459.40 17.50L459.40 17.50L466.70 22Q464.90 25 461.40 29.50L461.40 29.50L482 29.50L482 37.20L472.80 37.20L478.40 41.60Q476.40 44.30 472.65 48.50Q468.90 52.70 466.30 55.30L466.30 55.30L460.30 50.20Q463 47.60 466.40 43.75Q469.80 39.90 471.80 37.20L471.80 37.20L457 37.20L457 55.30ZM428.50 37.20L413.40 37.20Q416.10 39.70 419.40 43.30Q422.70 46.90 424.70 49.60L424.70 49.60L419.40 55.30L428.50 55.30L428.50 37.20ZM437.30 37.20L437.30 55.30L448.20 55.30L448.20 37.20L437.30 37.20ZM420.40 105.40L420.40 110L411.80 110L411.80 69.40L473.70 69.40L473.70 109.90L465.10 109.90L465.10 105.40L420.40 105.40ZM420.40 84L465.10 84L465.10 77.10L420.40 77.10L420.40 84ZM465.10 91.40L420.40 91.40L420.40 98.30L465.10 98.30L465.10 91.40ZM506.70 39.20L536.80 39.20L536.80 34.10L499.90 34.10L499.90 26.90L536.80 26.90L536.80 19.60L545.10 20L545.10 26.90L582.10 26.90L582.10 34.10L545.10 34.10L545.10 39.20L574.90 39.20L574.90 67.70L571.60 67.70Q574.30 70.80 577.60 74.95Q580.90 79.10 583 82.20L583 82.20L576.90 87.70Q574.40 83.80 571.70 80.20L571.70 80.20Q560.50 80.40 541.70 81L541.70 81Q544.20 83.30 547.25 86.45Q550.30 89.60 551.90 91.70L551.90 91.70L546.50 97.30Q544.50 94.50 541.20 90.85Q537.90 87.20 535.40 84.90L535.40 84.90L539.50 81.10L500.80 82.30L500.50 74.80Q504 74.80 536.80 74.20L536.80 74.20L536.80 67.70L506.70 67.70L506.70 39.20ZM515.70 50.60L536.80 50.60L536.80 45.70L515.70 45.70L515.70 50.60ZM545.10 50.60L566 50.60L566 45.70L545.10 45.70L545.10 50.60ZM536.80 56.30L515.70 56.30L515.70 61.40L536.80 61.40L536.80 56.30ZM566 61.40L566 56.30L545.10 56.30L545.10 61.40L566 61.40ZM564.10 70.50L564.10 70.50L568.10 67.70L545.10 67.70L545.10 74L566.70 73.70Q565.40 71.80 564.10 70.50ZM503.70 107.50L496.30 102.90Q499.70 98.80 503.15 93.35Q506.60 87.90 509 83.10L509 83.10L516.20 86.90Q510.80 97.90 503.70 107.50L503.70 107.50ZM565.20 87.30L572 83.30Q578.50 91.60 584.80 101.60L584.80 101.60L577.50 106.50Q571.10 95.10 565.20 87.30L565.20 87.30ZM556.40 90L556.40 90L564.70 92.80Q564.50 95 563.70 99.40L563.70 99.40Q563 102.70 561.65 104.40Q560.30 106.10 557.75 106.90Q555.20 107.70 550.60 108L550.60 108Q547.60 108.20 541.30 108.20L541.30 108.20Q535.10 108.20 532 108L532 108Q525.50 107.70 522.80 105.55Q520.10 103.40 520.10 98.60L520.10 98.60L520.10 85.10L529.30 85.50L529.30 95.70Q529.30 98.50 530.40 99.35Q531.50 100.20 534.80 100.40L534.80 100.40Q538.40 100.70 542 100.70L542 100.70Q545.60 100.70 549.20 100.40L549.20 100.40Q552.80 100.30 554 99.45Q555.20 98.60 555.70 96L555.70 96Q556.10 93.90 556.40 90ZM680.70 44.90L657.70 44.90Q662.40 56.90 669.65 66.80Q676.90 76.70 686.90 85.40L686.90 85.40L680.60 93.70Q663 76.90 653.70 53.70L653.70 53.70L653.70 84.90L669.80 84.90L669.80 93.40L653.70 93.40L653.70 110L644.60 110L644.60 93.40L629.20 93.40L629.20 84.90L644.60 84.90L644.60 54.60Q640.50 65.30 634.45 74.80Q628.40 84.30 619.80 93.40L619.80 93.40L615.10 87.60L615.10 109.20L606.20 109.20L606.20 60.60Q601.60 67.90 598.10 72.50L598.10 72.50L592.10 64.90Q598.90 55.40 604.65 43.55Q610.40 31.70 613.60 20.40L613.60 20.40L622.70 22.30Q619.20 34.20 615.10 43.40L615.10 43.40L615.10 84.30Q623.90 75.80 630.35 66.10Q636.80 56.40 641.10 44.90L641.10 44.90L621 44.90L621 36.10L644.60 36.10L644.60 19.70L653.70 20L653.70 36.10L680.70 36.10L680.70 44.90ZM708.50 100L697.50 100L697.50 30.60L715.60 30.60L731 73.30L731.60 73.30L747.30 30.60L765 30.60L765 100L753.90 100L753.90 41.70L753.30 41.70L737.10 85.20L725.30 85.20L709.10 41.70L708.50 41.70L708.50 100ZM826.00 74.70L826.00 74.70L790.10 77Q790.30 84.90 794.00 88.45Q797.70 92 806.40 92L806.40 92Q811.00 92 815.85 90.95Q820.70 89.90 823.70 88.40L823.70 88.40L823.70 97.60Q821.10 99 815.80 100Q810.50 101 804.60 101L804.60 101Q796.10 101 790.55 98.45Q785.00 95.90 782.05 89.75Q779.10 83.60 779.10 73L779.10 73Q779.10 62.40 782.00 56.25Q784.90 50.10 790.45 47.55Q796.00 45 804.40 45L804.40 45Q817.10 45 821.80 51.30Q826.50 57.60 826.50 68L826.50 68Q826.50 71.20 826.00 74.70ZM790.10 69.20L816.30 67.30Q816.30 60.70 813.95 57.10Q811.60 53.50 804.40 53.50L804.40 53.50Q796.40 53.50 793.35 57.30Q790.30 61.10 790.10 69.20L790.10 69.20ZM876.40 24L887.10 24L887.10 100L877.70 100L876.50 91.60Q874.80 96 870.55 98.50Q866.30 101 859.30 101L859.30 101Q850.70 101 845.90 97.60Q841.10 94.20 839.20 88.10Q837.30 82 837.30 73L837.30 73Q837.30 60.10 842.15 52.55Q847 45 859.30 45L859.30 45Q866.70 45 870.65 47.40Q874.60 49.80 876.40 54.50L876.40 54.50L876.40 24ZM876.80 73L876.80 73Q876.80 63.50 873.45 58.50Q870.10 53.50 861.80 53.50L861.80 53.50Q856.20 53.50 853.25 56.10Q850.30 58.70 849.40 62.85Q848.50 67 848.50 73L848.50 73Q848.50 79.20 849.45 83.35Q850.40 87.50 853.30 89.95Q856.20 92.40 861.80 92.40L861.80 92.40Q870.30 92.40 873.55 87.60Q876.80 82.80 876.80 73ZM903 30.90L903 30.90Q903 28.30 903.55 27.05Q904.10 25.80 905.40 25.40Q906.70 25 909.30 25L909.30 25Q911.90 25 913.15 25.40Q914.40 25.80 914.95 27.05Q915.50 28.30 915.50 30.90L915.50 30.90Q915.50 34.70 914.25 35.85Q913 37 909.30 37L909.30 37Q906.70 37 905.40 36.55Q904.10 36.10 903.55 34.85Q903 33.60 903 30.90ZM914.60 100L903.80 100L903.80 46L914.60 46L914.60 100ZM965.80 46L976.50 46L976.50 100L967.10 100L966 92.70Q961.90 101 949.10 101L949.10 101Q939.20 101 935.10 96.45Q931 91.90 931 83.20L931 83.20L931 46L941.80 46L941.80 79.80Q941.80 86.10 943.85 89Q945.90 91.90 951.60 91.90L951.60 91.90Q957 91.90 960.50 89.90Q964 87.90 965.80 82.30L965.80 82.30L965.80 46ZM1069.90 63.20L1069.90 63.20L1069.90 100L1059.10 100L1059.10 66.20Q1059.10 60 1057 57.10Q1054.90 54.20 1049.60 54.20L1049.60 54.20Q1044.60 54.20 1041.40 56.15Q1038.20 58.10 1036.90 63.10L1036.90 63.10L1036.90 100L1026.10 100L1026.10 66.20Q1026.10 60 1024.10 57.10Q1022.10 54.20 1016.90 54.20L1016.90 54.20Q1011.80 54.20 1008.80 56.05Q1005.80 57.90 1004.20 63L1004.20 63L1004.20 100L993.40 100L993.40 46L1004.20 46L1004.20 52.70Q1006.40 48.50 1010.25 46.75Q1014.10 45 1019.60 45L1019.60 45Q1031.60 45 1035.20 53.40L1035.20 53.40Q1039.40 45 1052.10 45L1052.10 45Q1069.90 45 1069.90 63.20Z"/></svg>