<svg xmlns="http://www.w3.org/2000/svg" xmlns:xlink="http://www.w3.org/1999/xlink" width="913.28125" height="107.421875"><path d="M25.39 30.86L25.39 30.86L28.52 30.86Q31.25 30.86 32.42 37.89L32.42 37.89Q31.25 44.14 31.25 50.39L31.25 50.39Q33.59 50 34.38 50L34.38 50L38.67 48.83L41.02 52.73L39.06 55.47L31.25 57.42L31.64 63.28L41.02 71.09Q41.41 76.56 37.89 78.13L37.89 78.13L35.16 75.78Q32.03 72.66 31.25 71.48L31.25 71.48Q30.86 78.13 30.86 101.17L30.86 101.17L31.64 105.08Q30.86 106.64 30.86 108.20L30.86 108.20Q26.17 108.20 23.05 103.91L23.05 103.91Q24.22 87.50 24.22 83.20L24.22 83.20L24.61 77.34Q21.48 80.47 13.67 85.16L13.67 85.16L9.77 85.16Q24.22 67.97 24.61 60.94L24.61 60.94Q25 58.98 24.22 58.98L24.22 58.98L19.14 60.94L16.80 60.94Q13.67 58.59 13.67 55.47L13.67 55.47Q21.48 53.52 25.78 51.56L25.78 51.56Q25.78 39.84 25.78 35.94L25.78 35.94Q25.39 32.81 25.39 30.86ZM45.70 36.33L63.67 32.03L69.14 33.20Q70.70 33.98 73.05 37.50L73.05 37.50Q67.19 42.97 55.47 58.98L55.47 58.98L55.47 59.38L58.59 58.59Q69.53 56.64 76.56 55.86L76.56 55.86Q86.33 54.69 90.63 63.28L90.63 63.28Q90.23 75.39 73.83 110.55L73.83 110.55L72.27 110.55Q70.70 110.55 53.91 98.44L53.91 98.44L51.95 99.61L43.36 105.47L43.36 102.34Q62.89 78.13 64.84 68.36L64.84 68.36L66.80 66.80L68.36 66.80Q71.09 67.97 71.09 69.92L71.09 69.92Q71.09 77.73 55.86 95.70L55.86 95.70Q55.86 96.09 66.80 99.61L66.80 99.61L70.70 99.22Q75.78 92.19 82.03 64.84L82.03 64.84Q81.25 62.11 72.66 62.89L72.66 62.89Q65.63 64.06 53.52 65.63L53.52 65.63L46.09 66.80L44.92 63.28L48.05 58.98Q57.03 44.53 58.59 40.63L58.59 40.63L58.98 39.84L60.16 39.84L46.09 41.80L45.70 38.67L45.70 36.33ZM51.56 68.36L51.56 68.36L54.30 68.36Q57.42 68.36 56.25 71.48L56.25 71.48Q54.69 79.69 42.19 92.97L42.19 92.97L37.11 94.14Q46.88 78.52 51.56 68.36ZM167.19 33.20L167.19 33.20Q169.14 33.98 171.09 33.98L171.09 33.98L171.09 38.67L163.67 45.31L163.67 45.70Q163.67 51.56 164.06 62.50L164.06 62.50Q168.36 61.72 177.73 60.55L177.73 60.55L183.59 59.77L187.89 60.94Q191.02 63.67 191.02 65.43Q191.02 67.19 188.28 67.38Q185.55 67.58 177.73 68.36L177.73 68.36Q164.06 69.92 164.06 70.31L164.06 70.31Q164.45 83.20 164.06 88.67L164.06 88.67L164.06 89.06Q175 88.67 175.78 87.89L175.78 87.89Q182.42 89.06 183.20 92.58L183.20 92.58L183.20 96.88Q181.64 96.88 175.78 96.88L175.78 96.88Q170.70 96.09 156.64 97.66L156.64 97.66L151.56 98.05L145.31 99.61Q140.23 96.09 140.23 94.14L140.23 94.14Q140.23 91.80 157.42 89.84L157.42 89.84Q156.64 83.98 157.42 72.27L157.42 72.27Q157.42 71.48 154.30 72.27L154.30 72.27Q141.80 74.61 138.67 74.61L138.67 74.61Q137.50 73.83 135.55 73.83L135.55 73.83L133.59 69.53Q157.42 64.45 157.42 63.67L157.42 63.67L157.42 55.86Q157.81 50 156.25 48.83L156.25 48.83Q155.86 48.83 147.27 50.78L147.27 50.78L144.92 50.78L144.92 46.48Q147.66 46.48 167.19 33.20ZM132.03 34.77L132.03 34.77Q137.11 35.55 135.55 43.36L135.55 43.36Q127.34 51.95 127.34 53.91L127.34 53.91Q129.30 62.50 129.30 69.92L129.30 69.92Q129.30 74.22 128.91 95.31L128.91 95.31L129.30 101.95L126.95 103.91L125.39 103.91Q124.22 103.91 121.48 96.88L121.48 96.88Q122.27 82.81 122.27 69.92L122.27 69.92Q121.48 59.38 121.48 58.98L121.48 58.98L107.42 71.88L107.42 69.14Q107.81 66.41 126.95 42.19L126.95 42.19Q129.30 38.67 132.03 34.77ZM239.06 23.83L241.41 23.44L242.58 23.44Q243.75 23.44 246.09 26.56L246.09 26.56L245.31 39.84Q246.48 39.84 261.72 38.28L261.72 38.28L263.67 38.28Q265.63 39.06 265.63 48.05L265.63 48.05Q266.41 44.92 263.87 44.92Q261.33 44.92 258.59 44.92L258.59 44.92Q242.58 44.92 242.19 50.78L242.19 50.78L235.16 69.92L235.16 71.09Q245.70 71.09 245.70 65.23L245.70 65.23L245.70 63.28Q245.70 57.42 245.70 56.64L245.70 56.64L247.27 55.47L248.44 55.47Q251.95 55.47 252.73 66.41L252.73 66.41L263.28 66.02Q268.75 67.97 268.75 69.92L268.75 69.92L268.75 70.70Q268.36 73.05 261.33 73.05L261.33 73.05L252.34 75.39Q252.73 103.13 252.73 103.13L252.73 103.13L251.17 111.72L251.56 110.55Q244.92 110.55 235.16 100.39L235.16 100.39L235.16 99.22Q235.16 97.27 237.50 97.27L237.50 97.27Q243.36 100.78 244.92 100.39L244.92 100.39L244.92 100Q245.31 77.34 244.92 76.95L244.92 76.95L241.80 77.73Q236.72 77.73 226.56 80.86L226.56 80.86Q224.61 78.52 224.61 78.13L224.61 78.13L225.78 74.22Q228.91 72.27 234.77 49.22L234.77 49.22Q233.59 49.22 229.30 48.44L229.30 48.44L228.52 48.44Q227.34 48.44 225.39 45.70L225.39 45.70Q225.39 43.75 237.11 41.80L237.11 41.80Q239.45 31.64 239.45 28.52L239.45 28.52L239.06 23.83ZM222.66 85.16L222.66 85.16L222.66 85.16Q224.61 85.16 226.56 89.06L226.56 89.06Q223.83 100.78 220.70 103.13L220.70 103.13L218.36 103.13Q216.41 103.13 216.41 100.78L216.41 100.78L216.41 98.05Q219.92 85.16 222.66 85.16ZM264.84 83.20L266.80 82.42Q275 83.98 283.20 92.97L283.20 92.97L283.98 98.44Q283.20 100.39 281.64 100.39L281.64 100.39Q272.66 98.05 264.84 83.20L264.84 83.20ZM355.47 29.69L358.20 28.13L362.11 35.55L361.33 41.02L362.11 41.41Q366.80 41.41 383.59 39.06L383.59 39.06Q385.55 39.45 387.11 39.45L387.11 39.45L387.11 42.19Q387.11 45.31 373.83 47.66L373.83 47.66Q374.61 55.47 375 71.48L375 71.48Q375 74.61 375 95.70L375 95.70Q374.61 101.17 374.61 101.95L374.61 101.95Q372.66 106.64 370.70 106.64L370.70 106.64Q366.02 106.64 353.91 97.66L353.91 97.66L353.91 93.75L364.45 97.27L367.19 97.27L367.58 86.33L367.58 63.67Q367.58 57.03 367.58 56.64L367.58 56.64Q366.80 48.05 365.63 48.05L365.63 48.05L360.16 48.44Q359.77 50 353.52 56.64L353.52 56.64L346.48 63.28L344.14 60.55Q355.47 46.88 355.47 29.69L355.47 29.69ZM320.31 40.63L320.70 33.98L323.83 33.98L327.73 40.63L326.56 45.31L327.34 46.09Q344.14 43.75 350 43.75L350 43.75L348.44 47.27Q348.44 50.39 333.59 52.73L333.59 52.73L334.38 60.55Q334.77 106.25 328.52 103.91L328.52 103.91L325.78 98.83Q326.56 93.36 326.95 85.55L326.95 85.55L326.95 55.47Q326.95 53.91 325.78 53.91L325.78 53.91L324.22 53.52Q322.66 56.25 311.33 64.84L311.33 64.84L308.98 64.84Q320.31 44.92 320.31 40.63L320.31 40.63ZM428.91 39.45L468.36 34.38Q472.27 39.45 472.27 40.23L472.27 40.23Q472.66 42.58 469.92 42.97L469.92 42.97Q463.28 42.58 459.38 42.58L459.38 42.58Q446.48 42.58 443.75 51.56L443.75 51.56Q440.63 59.77 437.11 65.63L437.11 65.63L437.11 65.63Q467.19 60.16 468.36 60.16L468.36 60.16Q473.83 60.16 480.86 67.58L480.86 67.58L478.52 70.70Q475 79.30 471.88 84.38L471.88 84.38Q471.88 84.77 476.56 91.41L476.56 91.41L476.56 93.36Q477.34 94.53 474.22 95.70L474.22 95.70L471.09 94.14Q458.59 94.14 440.23 97.66L440.23 97.66L440.23 103.52L439.06 103.52Q432.03 103.52 431.25 76.56L431.25 76.56Q430.47 76.56 430.47 76.95L430.47 76.95Q418.36 92.19 408.20 94.14L408.20 94.14L408.20 92.19Q428.13 75 436.33 50.78L436.33 50.78Q438.28 46.48 436.33 44.14L436.33 44.14Q436.33 44.14 427.34 42.97L427.34 42.97L427.34 39.45L428.91 39.45ZM440.63 71.09L440.63 71.09Q434.77 71.48 434.77 71.48L434.77 71.48Q437.50 76.17 439.84 88.28L439.84 88.28L441.02 89.84L444.53 89.84Q461.72 87.89 465.23 82.81L465.23 82.81Q465.23 82.03 468.75 69.53L468.75 69.53Q468.75 68.75 465.63 68.75L465.63 68.75Q458.20 69.53 440.63 71.09ZM550.39 21.09L550.39 21.09L553.91 22.66Q557.42 24.22 556.64 42.97L556.64 42.97L560.94 42.19L571.09 40.63Q572.66 41.41 574.61 41.41L574.61 41.41L574.61 44.92Q574.61 48.05 558.59 49.22L558.59 49.22Q556.25 49.61 556.64 51.56L556.64 51.56Q557.03 54.30 577.34 75L577.34 75Q582.81 78.91 591.02 83.20L591.02 83.20L595.70 85.16Q590.23 87.89 587.89 87.50L587.89 87.50Q582.03 92.19 557.03 62.50L557.03 62.50L556.25 60.94L555.86 64.06L555.86 79.30L555.86 79.30Q560.55 79.30 568.75 78.13L568.75 78.13L570.70 82.42L570.70 82.81Q570.70 86.33 556.25 87.50L556.25 87.50Q556.64 98.05 555.86 107.42L555.86 107.42Q554.69 108.98 554.69 110.16L554.69 110.16L551.95 110.16Q551.17 110.16 548.44 104.69L548.44 104.69L548.83 92.58L548.83 88.67Q542.97 90.23 538.67 87.50L538.67 87.50L535.94 85.16L535.94 83.20Q549.22 81.64 549.61 80.47L549.61 80.47Q549.61 67.19 549.61 62.11L549.61 62.11L548.05 64.45Q531.25 88.67 526.95 90.63L526.95 90.63L525.39 90.63L525.39 87.50Q536.33 71.48 547.27 53.13L547.27 53.13L547.27 51.56L543.36 51.56L542.58 51.56L537.89 51.56Q533.20 49.61 533.20 48.05L533.20 48.05L533.20 45.70Q550.39 44.92 550.39 42.97L550.39 42.97L550.39 41.41Q550.39 25.39 550.39 21.09ZM525.78 32.42L525.78 32.42L526.95 32.42Q529.30 32.42 530.47 37.89L530.47 37.89L530.47 39.84Q528.13 44.92 521.48 53.52L521.48 53.52Q522.27 57.42 521.88 64.45L521.88 64.45L521.88 98.83L521.09 105.08L517.58 105.08Q515.63 105.08 514.45 99.22L514.45 99.22Q514.45 98.05 515.23 85.55L515.23 85.55L515.23 76.56Q515.23 69.53 515.23 57.81L515.23 57.81L515.23 57.81Q503.91 66.41 501.95 66.41L501.95 66.41L501.95 64.45Q519.53 45.31 525.78 32.42ZM641.41 66.02L641.41 66.02L643.36 70.31L643.36 72.66L637.50 73.05Q626.56 73.44 607.81 73.44L607.81 73.44L605.47 69.14Q605.86 66.80 609.77 66.80L609.77 66.80Q625.78 66.02 641.41 66.02ZM703.13 41.80L704.30 37.11L707.42 37.11Q712.89 37.11 718.75 85.94L718.75 85.94L721.48 100.78L717.19 100.78Q716.02 100.78 712.89 96.09L712.89 96.09L711.33 83.98Q707.42 51.56 706.25 51.56L706.25 51.56Q702.34 59.77 687.50 98.44L687.50 98.44Q683.59 96.09 678.52 68.36L678.52 68.36Q677.34 61.33 677.34 56.64L677.34 56.64L676.17 52.34Q676.17 50.39 675.78 50L675.78 50L675.78 50.78Q675.39 52.73 672.66 62.89L672.66 62.89Q668.36 71.48 658.59 96.09L658.59 96.09L655.47 96.09Q653.13 96.09 653.13 93.75L653.13 93.75L653.13 92.97Q659.77 78.13 673.83 40.23L673.83 40.23L676.56 39.45L678.13 39.45Q681.25 41.80 687.50 78.91L687.50 78.91L687.89 80.08Q692.19 73.44 703.13 41.80L703.13 41.80ZM741.80 63.28L741.80 63.28Q753.91 63.28 756.25 72.66L756.25 72.66Q756.25 81.25 732.81 85.55L732.81 85.55L732.81 85.55Q733.98 93.75 740.23 93.36L740.23 93.36Q744.53 94.53 757.03 88.67L757.03 88.67L756.64 93.75Q749.22 100.39 741.02 100.39L741.02 100.39Q725 100 725.39 81.25L725.39 81.25Q727.73 66.02 741.80 63.28ZM733.20 78.91L733.20 78.91L734.77 78.91Q744.53 78.91 749.61 71.48L749.61 71.48L749.61 71.09Q749.61 69.53 747.27 68.75L747.27 68.75L744.92 68.75Q733.59 71.48 733.20 78.91ZM793.75 33.98L793.75 33.98L796.88 34.38Q799.61 34.38 799.61 37.89L799.61 37.89Q794.14 66.41 793.75 80.47L793.75 80.47Q794.14 92.97 802.34 93.36L802.34 93.36L803.91 96.48L803.91 97.27Q803.91 98.83 800 101.17L800 101.17Q787.89 99.22 787.11 91.02L787.11 91.02Q787.11 91.02 777.73 98.83L777.73 98.83L774.61 99.61Q761.72 98.83 762.50 84.77L762.50 84.77Q764.45 65.63 778.13 63.28L778.13 63.28Q787.11 62.11 788.28 65.23L788.28 65.23Q789.06 60.55 793.75 33.98ZM769.53 85.16L769.53 85.16Q769.53 92.19 773.44 92.19L773.44 92.19Q778.52 92.19 785.94 75L785.94 75Q785.94 70.31 782.42 69.14L782.42 69.14L779.69 69.14Q772.27 70.31 769.53 85.16ZM813.67 53.13L813.67 53.13Q817.58 54.69 817.97 57.42L817.97 57.42L817.97 58.59Q817.97 60.94 816.02 60.94L816.02 60.94L814.45 60.94Q810.16 58.20 810.16 53.52L810.16 53.52Q812.89 53.13 813.67 53.13ZM806.25 67.19L812.11 63.28L813.28 63.28Q814.84 63.28 817.58 66.02L817.58 66.02Q814.84 76.17 814.06 87.50L814.06 87.50Q813.67 93.75 816.41 92.97L816.41 92.97L820.31 91.41L822.27 91.41Q822.27 96.48 818.36 99.61L818.36 99.61Q807.81 103.13 808.59 87.89L808.59 87.89Q809.38 74.61 810.55 70.70L810.55 70.70L807.42 73.05L806.25 67.19ZM834.77 64.06L834.77 64.06Q837.11 64.06 837.11 67.97L837.11 67.97Q833.59 78.13 833.20 89.06L833.20 89.06L834.38 91.41Q845.70 98.05 851.17 68.36L851.17 68.36Q851.95 66.80 851.95 65.23L851.95 65.23L856.25 65.23Q856.25 66.80 857.03 68.75L857.03 68.75Q854.30 81.64 854.30 89.45L854.30 89.45Q854.30 89.84 857.81 97.66L857.81 97.66L857.81 100L855.86 100Q851.17 100 848.83 93.75L848.83 93.75Q844.92 100.39 836.33 99.61L836.33 99.61Q827.73 96.48 827.73 90.23L827.73 90.23L827.73 89.45Q827.73 84.38 830.47 70.31L830.47 70.31Q822.66 70.31 829.30 66.02L829.30 66.02Q832.03 64.06 834.77 64.06ZM895.31 64.06L895.31 64.06Q906.64 64.45 905.86 72.66L905.86 72.66L905.86 85.94Q905.86 94.53 913.28 96.09L913.28 96.09L913.28 98.44L910.55 100Q898.05 101.17 899.22 72.66L899.22 72.66L897.27 71.88Q888.67 70.70 888.28 81.25L888.28 81.25Q888.28 97.66 887.11 97.66L887.11 97.66L885.16 98.44Q882.42 97.27 882.42 94.92L882.42 94.92Q882.42 82.42 882.42 80.86L882.42 80.86Q881.64 72.66 876.56 73.83L876.56 73.83Q869.92 72.27 869.14 99.61L869.14 99.61L865.63 100Q862.11 98.83 862.50 92.97L862.50 92.97L862.50 90.63Q864.84 75.78 864.06 73.05L864.06 73.05Q862.89 69.92 858.98 66.41L858.98 66.41L864.84 65.23Q868.75 68.36 869.14 68.75L869.14 68.75L870.31 68.36Q873.44 65.63 878.13 65.23L878.13 65.23Q883.59 66.41 885.55 68.75L885.55 68.75Q889.84 64.06 895.31 64.06Z"/></svg>