<svg xmlns="http://www.w3.org/2000/svg" xmlns:xlink="http://www.w3.org/1999/xlink" width="1058.6" height="140"><path d="M17.40 109.70L10.30 109.70L10.30 24.30L37.10 24.30L37.10 31.40L29.90 55.80Q30.30 56.60 32.25 60.40Q34.20 64.20 35.20 68.80Q36.20 73.40 36.20 79L36.20 79Q36.20 85.50 34.45 88.55Q32.70 91.60 27.70 92.30L27.70 92.30L22 93.10L19.40 86.10L24.10 85.50Q27.20 85.10 28.35 83.80Q29.50 82.50 29.50 78.90L29.50 78.90Q29.50 71.70 27.70 66.80Q25.90 61.90 22.40 56.70L22.40 56.70L30.50 31.40L17.40 31.40L17.40 109.70ZM40.50 26.10L93.80 26.10L93.80 33.20L85.50 33.20L85.50 98.80Q85.50 102.40 84.45 104.30Q83.40 106.20 80.95 107.15Q78.50 108.10 73.90 108.50L73.90 108.50L67 109.10L64.50 101.80L73 101.20Q75.90 101 76.95 99.85Q78 98.70 78 95.40L78 95.40L78 33.20L40.50 33.20L40.50 26.10ZM41.70 85.20L41.70 46.80L68 46.80L68 85.20L41.70 85.20ZM48.50 53.50L48.50 78.50L61.20 78.50L61.20 53.50L48.50 53.50ZM183.20 86.90L151.10 86.90L151.10 99.40L191.90 99.40L191.90 106.10L103.10 106.10L103.10 99.40L143.60 99.40L143.60 86.90L111.70 86.90L111.70 80L143.60 80L143.60 68.90L113 68.90L113 24.50L181.10 24.50L181.10 68.90L151.10 68.90L151.10 80L183.20 80L183.20 86.90ZM120.10 43.50L143.60 43.50L143.60 31.20L120.10 31.20L120.10 43.50ZM151.10 31.20L151.10 43.50L173.60 43.50L173.60 31.20L151.10 31.20ZM143.60 49.90L120.10 49.90L120.10 62.20L143.60 62.20L143.60 49.90ZM173.60 49.90L151.10 49.90L151.10 62.20L173.60 62.20L173.60 49.90ZM280.60 84.10L287.90 87.10Q287.40 91.60 286.80 95.60L286.80 95.60Q286.10 100.20 284.75 102.45Q283.40 104.70 281.20 105.45Q279 106.20 275.10 106.40L275.10 106.40Q263.40 106.90 245.30 106.90L245.30 106.90Q229.40 106.90 221 106.50L221 106.50Q215.50 106.20 213.10 103.30Q210.70 100.40 210.70 96.60L210.70 96.60L210.70 25.50L280.10 25.50L280.10 66.50L218.40 66.50L218.40 95.50Q218.40 98.40 222.10 98.70L222.10 98.70Q230.80 99.30 246.40 99.30L246.40 99.30Q264.40 99.30 274.50 98.60L274.50 98.60Q277.10 98.40 278.15 97.10Q279.20 95.80 279.60 93.30L279.60 93.30Q280.60 87.30 280.60 84.10L280.60 84.10ZM218.40 59.30L242 59.30L242 32.50L218.40 32.50L218.40 59.30ZM249.60 32.50L249.60 59.30L272.30 59.30L272.30 32.50L249.60 32.50ZM379.00 84.10L386.30 87.10Q385.80 91.60 385.20 95.60L385.20 95.60Q384.50 100.20 383.15 102.45Q381.80 104.70 379.60 105.45Q377.40 106.20 373.50 106.40L373.50 106.40Q361.80 106.90 343.70 106.90L343.70 106.90Q327.80 106.90 319.40 106.50L319.40 106.50Q313.90 106.20 311.50 103.30Q309.10 100.40 309.10 96.60L309.10 96.60L309.10 25.50L378.50 25.50L378.50 66.50L316.80 66.50L316.80 95.50Q316.80 98.40 320.50 98.70L320.50 98.70Q329.20 99.30 344.80 99.30L344.80 99.30Q362.80 99.30 372.90 98.60L372.90 98.60Q375.50 98.40 376.55 97.10Q377.60 95.80 378.00 93.30L378.00 93.30Q379.00 87.30 379.00 84.10L379.00 84.10ZM316.80 59.30L340.40 59.30L340.40 32.50L316.80 32.50L316.80 59.30ZM348.00 32.50L348.00 59.30L370.70 59.30L370.70 32.50L348.00 32.50ZM456.10 36.50L456.10 55.80L486.60 55.80L486.60 62.20L398.70 62.20L398.70 55.80L429.30 55.80L429.30 36.50L403.30 36.50L403.30 30.10L426.70 30.10Q424.10 26.10 420.10 21.70L420.10 21.70L425.60 18Q431.30 24.70 433.50 27.90L433.50 27.90L430.60 30.10L451 30.10Q453.20 27.60 455.80 24Q458.40 20.40 459.80 18L459.80 18L465.50 21.50Q463.80 24.40 459.50 30.10L459.50 30.10L482.10 30.10L482.10 36.50L456.10 36.50ZM449.10 55.80L449.10 36.50L436.30 36.50L436.30 55.80L449.10 55.80ZM424.20 50.10L419.40 55.70Q417.50 52.50 413.75 48Q410 43.50 407.40 41.30L407.40 41.30L412 36.80Q414.70 39.30 418.50 43.40Q422.30 47.50 424.20 50.10L424.20 50.10ZM465.50 54.80L460.70 50.70Q463.50 48 467.05 43.95Q470.60 39.90 472.60 37.20L472.60 37.20L477.70 41.20Q475.10 44.40 471.45 48.55Q467.80 52.70 465.50 54.80L465.50 54.80ZM419.40 105.30L419.40 109.90L412.40 109.90L412.40 69.80L473 69.80L473 109.80L466 109.80L466 105.30L419.40 105.30ZM419.40 84.70L466 84.70L466 76.40L419.40 76.40L419.40 84.70ZM466 90.90L419.40 90.90L419.40 99L466 99L466 90.90ZM507.80 39.10L537.70 39.10L537.70 33.40L499.90 33.40L499.90 27.40L537.70 27.40L537.70 19.60L544.40 19.90L544.40 27.40L582.20 27.40L582.20 33.40L544.40 33.40L544.40 39.10L573.90 39.10L573.90 66.80L569.20 66.80Q572 69.60 575.90 74.35Q579.80 79.10 582.40 83.10L582.40 83.10L577.60 87.60Q575.80 84.50 571.90 79.20L571.90 79.20L501.90 81.40L501.50 75.10L537.70 74.30L537.70 66.80L507.80 66.80L507.80 39.10ZM515.10 50.30L537.70 50.30L537.70 44.70L515.10 44.70L515.10 50.30ZM544.40 50.30L566.60 50.30L566.60 44.70L544.40 44.70L544.40 50.30ZM537.70 55.30L515.10 55.30L515.10 61.20L537.70 61.20L537.70 55.30ZM566.60 61.20L566.60 55.30L544.40 55.30L544.40 61.20L566.60 61.20ZM564.20 69.80L564.20 69.80L568.70 66.80L544.40 66.80L544.40 74.20Q561.40 73.80 567.50 73.60L567.50 73.60Q566.50 72.40 564.20 69.80ZM536.30 83.80L540.90 80.20Q543.10 82.30 546.60 86.15Q550.10 90 551.90 92.40L551.90 92.40L547 97Q545.20 94.10 541.65 89.75Q538.10 85.40 536.30 83.80L536.30 83.80ZM503 107.50L496.80 103.80Q500.10 100 503.65 94.30Q507.20 88.60 509.10 83.80L509.10 83.80L515.30 86.70Q512.60 92.60 509.30 98.25Q506 103.90 503 107.50L503 107.50ZM565.80 87.40L571 83.80Q573.90 87 577.60 92.10Q581.30 97.20 584.30 102L584.30 102L578.40 106.30Q571.90 94.60 565.80 87.40L565.80 87.40ZM557.80 90.50L557.80 90.50L564.60 93Q564.40 95.30 563.80 99.10L563.80 99.10Q563.20 102.60 562 104.30Q560.80 106 558.65 106.65Q556.50 107.30 552.30 107.60L552.30 107.60Q547.70 107.90 542.50 107.90L542.50 107.90Q537.50 107.90 532.70 107.60L532.70 107.60Q526.40 107.20 523.80 105.20Q521.20 103.20 521.20 98.60L521.20 98.60L521.20 85.20L528.80 85.60L528.80 96Q528.80 99.10 530.05 100.05Q531.30 101 535.10 101.30L535.10 101.30Q539 101.60 542.80 101.60L542.80 101.60Q546.60 101.60 550.30 101.30L550.30 101.30Q553.20 101.10 554.50 100.75Q555.80 100.40 556.40 99.40Q557 98.40 557.30 96.30L557.30 96.30Q557.70 92.50 557.80 90.50ZM680.40 44.10L657.90 44.10Q663.70 58.20 670.70 68.35Q677.70 78.50 687.40 86.60L687.40 86.60L682.10 93Q671.50 83.10 664.95 72.40Q658.40 61.70 653.30 47.70L653.30 47.70L653.30 85.60L670.70 85.60L670.70 92.50L653.30 92.50L653.30 109.90L645.70 109.90L645.70 92.50L628.90 92.50L628.90 85.60L645.70 85.60L645.70 49Q641.90 60.80 635.30 71.40Q628.70 82 619.40 92.10L619.40 92.10L613.80 86.70L613.80 109.10L606.50 109.10L606.50 58.70Q602.50 65.60 597.80 71.70L597.80 71.70L592.20 66.70Q608.40 44.80 615 20.20L615 20.20L622.10 22.40Q618.60 34.20 613.80 44.60L613.80 44.60L613.80 86.50Q622.80 77.70 630.05 66.95Q637.30 56.20 641.40 44.10L641.40 44.10L621.60 44.10L621.60 37L645.70 37L645.70 20L653.30 20.30L653.30 37L680.40 37L680.40 44.10ZM748.70 100L738.10 100L719 72Q718.20 72.10 717.35 72.10Q716.50 72.10 715.60 72.10L715.60 72.10L707 72.10L707 100L698 100L698 30.60L715.60 30.60Q722.90 30.60 727.95 31.65Q733 32.70 736.15 35.10Q739.30 37.50 740.70 41.45Q742.10 45.40 742.10 51.10L742.10 51.10Q742.10 60.10 738.60 64.75Q735.10 69.40 727.90 71L727.90 71L748.70 100ZM707 64.60L714.80 64.60Q719.60 64.60 723.05 64.15Q726.50 63.70 728.70 62.30Q730.90 60.90 731.95 58.20Q733 55.50 733 51.10L733 51.10Q733 47.20 731.95 44.70Q730.90 42.20 728.70 40.80Q726.50 39.40 723.05 38.90Q719.60 38.40 714.80 38.40L714.80 38.40L707 38.40L707 64.60ZM800.20 67.60L800.20 67.60Q800.20 68.70 800.05 70.35Q799.90 72 799.70 73.90L799.70 73.90L763.10 76.20Q763.10 80.60 764.00 83.85Q764.90 87.10 766.90 89.20Q768.90 91.30 772.20 92.35Q775.50 93.40 780.40 93.40L780.40 93.40Q784.90 93.40 789.55 92.40Q794.20 91.40 797.30 89.90L797.30 89.90L797.30 97.80Q796.10 98.40 794.20 99Q792.30 99.60 789.90 100.05Q787.50 100.50 784.75 100.75Q782.00 101 779.10 101L779.10 101Q773.10 101 768.45 99.65Q763.80 98.30 760.60 95.05Q757.40 91.80 755.75 86.45Q754.10 81.10 754.10 73L754.10 73Q754.10 64.90 755.75 59.55Q757.40 54.20 760.55 50.95Q763.70 47.70 768.25 46.35Q772.80 45 778.60 45L778.60 45Q785.50 45 789.75 47.05Q794.00 49.10 796.30 52.35Q798.60 55.60 799.40 59.65Q800.20 63.70 800.20 67.60ZM763.10 69.80L791.70 67.70Q791.70 64.60 791.30 61.75Q790.90 58.90 789.55 56.75Q788.20 54.60 785.60 53.35Q783.00 52.10 778.60 52.10L778.60 52.10Q773.90 52.10 770.95 53.30Q768.00 54.50 766.30 56.80Q764.60 59.10 763.90 62.40Q763.20 65.70 763.10 69.80L763.10 69.80ZM851.90 46L860.50 46L860.50 96.20Q860.50 107.40 854.15 113.70Q847.80 120 834.10 120L834.10 120Q830.60 120 827.10 119.60Q823.60 119.20 821.00 118.70L821.00 118.70L821.00 111.40Q827.10 112.60 834.20 112.60L834.20 112.60Q843.20 112.60 847.55 108.60Q851.90 104.60 851.90 95.30L851.90 95.30L851.90 89.90Q850.20 94.70 846.20 97.35Q842.20 100 834.40 100L834.40 100Q827.60 100 823.30 98Q819.00 96 816.45 92.40Q813.90 88.80 812.95 83.75Q812.00 78.70 812.00 72.50L812.00 72.50Q812.00 66.90 812.95 61.90Q813.90 56.90 816.45 53.15Q819.00 49.40 823.30 47.20Q827.60 45 834.40 45L834.40 45Q838.50 45 841.45 45.85Q844.40 46.70 846.45 48.15Q848.50 49.60 849.80 51.65Q851.10 53.70 851.90 56.10L851.90 56.10L851.90 46ZM835.60 92.80L835.60 92.80Q840.50 92.80 843.70 91.45Q846.90 90.10 848.80 87.50Q850.70 84.90 851.45 81.10Q852.20 77.30 852.20 72.50L852.20 72.50Q852.20 67.90 851.45 64.10Q850.70 60.30 848.80 57.70Q846.90 55.10 843.70 53.65Q840.50 52.20 835.60 52.20L835.60 52.20Q830.70 52.20 827.85 53.90Q825.00 55.60 823.50 58.40Q822.00 61.20 821.60 64.90Q821.20 68.60 821.20 72.50L821.20 72.50Q821.20 76.70 821.65 80.40Q822.10 84.10 823.60 86.85Q825.10 89.60 827.95 91.20Q830.80 92.80 835.60 92.80ZM913.20 46L921.80 46L921.80 100L914.50 100L913.40 92.20Q912.20 94.90 910.30 96.60Q908.40 98.30 906.15 99.25Q903.90 100.20 901.40 100.60Q898.90 101 896.40 101L896.40 101Q891.10 101 887.60 99.70Q884.10 98.40 882.05 96.10Q880.00 93.80 879.15 90.55Q878.30 87.30 878.30 83.40L878.30 83.40L878.30 46L886.90 46L886.90 80.20Q886.90 83.30 887.30 85.75Q887.70 88.20 888.85 89.90Q890.00 91.60 892.05 92.50Q894.10 93.40 897.30 93.40L897.30 93.40Q899.80 93.40 902.20 93.05Q904.60 92.70 906.65 91.55Q908.70 90.40 910.35 88.30Q912.00 86.20 913.20 82.70L913.20 82.70L913.20 46ZM952.00 100.60L952.00 100.60Q946.00 100.60 943.00 97.90Q940.00 95.20 940.00 89.10L940.00 89.10L940.00 24L948.60 24L948.60 86.90Q948.60 91 949.80 92.20Q951.00 93.40 953.60 93.40L953.60 93.40Q954.50 93.40 955.55 93.30Q956.60 93.20 957.70 92.90L957.70 92.90L957.70 100Q956.50 100.30 955.15 100.45Q953.80 100.60 952.00 100.60ZM990.00 45L990.00 45Q996.40 45 1000.55 46.25Q1004.70 47.50 1007.15 49.70Q1009.60 51.90 1010.55 55Q1011.50 58.10 1011.50 61.70L1011.50 61.70L1011.50 100L1004.20 100L1002.90 91.80Q1001.70 94 999.70 95.70Q997.70 97.40 995.15 98.60Q992.60 99.80 989.60 100.40Q986.60 101 983.60 101L983.60 101Q973.90 101 969.45 96.80Q965.00 92.60 965.00 84.90L965.00 84.90Q965.00 80.10 966.55 76.80Q968.10 73.50 970.90 71.50Q973.70 69.50 977.65 68.60Q981.60 67.70 986.40 67.70L986.40 67.70L1002.90 67.70L1002.90 63.20Q1002.90 60.80 1002.35 58.75Q1001.80 56.70 1000.35 55.25Q998.90 53.80 996.30 53Q993.70 52.20 989.60 52.20L989.60 52.20Q986.90 52.20 983.75 52.50Q980.60 52.80 977.70 53.40L977.70 53.40L977.70 45.80Q980.70 45.40 983.90 45.20Q987.10 45 990.00 45ZM984.40 93.80L984.40 93.80Q991.20 93.80 996.00 91.05Q1000.80 88.30 1002.90 83.50L1002.90 83.50L1002.90 74.60L987.00 74.60Q983.70 74.60 981.20 75Q978.70 75.40 977.10 76.55Q975.50 77.70 974.70 79.70Q973.90 81.70 973.90 84.80L973.90 84.80Q973.90 89.30 976.30 91.55Q978.70 93.80 984.40 93.80ZM1055.60 45L1056.60 45L1056.30 52.80L1055.10 52.80Q1052.50 52.80 1050 53.30Q1047.50 53.80 1045.30 55.15Q1043.10 56.50 1041.30 58.80Q1039.50 61.10 1038.40 64.70L1038.40 64.70L1038.40 100L1029.80 100L1029.80 46L1038.40 46L1038.40 55.80Q1039.70 52.40 1041.60 50.30Q1043.50 48.20 1045.80 47Q1048.10 45.80 1050.65 45.40Q1053.20 45 1055.60 45L1055.60 45Z"/></svg>