<svg xmlns="http://www.w3.org/2000/svg" xmlns:xlink="http://www.w3.org/1999/xlink" width="898.046875" height="107.421875"><path d="M25.78 31.25L25.78 31.25L28.52 31.25Q30.86 31.25 32.03 37.89L32.03 37.89Q30.86 44.14 30.86 51.17L30.86 51.17Q33.59 50.39 34.38 50.39L34.38 50.39L38.28 49.22L40.63 52.73L39.06 55.08L30.86 57.03L31.25 63.67L40.63 71.09Q41.02 76.56 37.89 77.73L37.89 77.73L35.16 75.78Q32.42 72.66 30.86 70.31L30.86 70.31Q30.47 78.13 30.47 101.17L30.47 101.17L31.25 105.08Q30.47 106.64 30.47 107.81L30.47 107.81Q26.17 107.81 23.44 103.52L23.44 103.52Q24.61 87.50 24.61 83.20L24.61 83.20L25 76.56Q21.48 80.08 13.28 84.77L13.28 84.77L10.55 84.77Q24.61 68.36 25 60.94L25 60.94Q25.39 58.59 24.22 58.59L24.22 58.59L19.14 60.55L17.19 60.55Q14.06 58.59 14.06 55.86L14.06 55.86Q21.88 53.91 26.17 51.56L26.17 51.56Q26.17 39.84 26.17 35.94L26.17 35.94Q25.78 32.81 25.78 31.25ZM46.09 36.72L63.67 32.42L68.75 33.59Q70.70 34.38 72.27 37.50L72.27 37.50Q66.80 42.97 55.08 58.59L55.08 58.59L55.08 59.77L58.59 58.98Q69.53 57.03 76.56 56.25L76.56 56.25Q86.33 55.08 90.23 63.28L90.23 63.28Q89.84 75.39 73.83 110.16L73.83 110.16L72.27 110.16Q71.09 110.16 53.91 98.05L53.91 98.05L51.95 99.22L43.75 104.69L43.75 102.73Q63.28 78.52 65.23 68.36L65.23 68.36L67.19 67.19L68.36 67.19Q70.70 67.97 70.70 69.92L70.70 69.92Q70.70 77.34 55.47 95.31L55.47 95.31Q55.47 96.09 66.80 100L66.80 100L70.70 99.61Q76.17 92.58 82.42 64.84L82.42 64.84Q81.64 61.72 72.66 62.50L72.66 62.50Q65.63 63.67 53.52 65.23L53.52 65.23L46.09 66.41L45.31 63.28L48.44 58.98Q57.42 44.92 58.98 41.02L58.98 41.02L59.77 39.45L60.16 39.45L46.48 41.41L46.09 38.67L46.09 36.72ZM51.56 68.75L51.56 68.75L54.30 68.75Q56.64 68.75 55.86 71.09L55.86 71.09Q54.30 79.30 42.19 92.58L42.19 92.58L37.89 93.75Q47.27 78.91 51.56 68.75ZM167.19 33.59L167.19 33.59Q169.14 34.38 170.70 34.38L170.70 34.38L170.70 38.28L163.28 44.92L163.28 45.70Q163.28 51.56 163.67 62.89L163.67 62.89Q168.36 62.11 177.73 60.94L177.73 60.94L183.59 60.16L187.50 61.33Q190.63 64.06 190.63 65.43Q190.63 66.80 188.09 66.99Q185.55 67.19 177.73 67.97L177.73 67.97Q163.28 69.53 163.67 70.31L163.67 70.31Q164.06 83.20 163.67 88.67L163.67 88.67L164.06 89.45Q175.39 89.06 176.17 88.28L176.17 88.28Q182.03 89.45 182.81 92.58L182.81 92.58L182.81 96.48Q181.64 96.48 175.78 96.48L175.78 96.48Q170.70 95.70 156.64 97.27L156.64 97.27L151.56 97.66L145.31 99.22Q140.63 96.09 140.63 94.14L140.63 94.14Q140.63 92.19 157.81 90.23L157.81 90.23Q157.03 83.98 157.81 72.27L157.81 72.27Q157.81 70.70 154.30 71.88L154.30 71.88Q141.80 74.22 139.06 74.22L139.06 74.22Q137.89 73.44 135.55 73.44L135.55 73.44L134.38 69.53Q158.20 64.45 157.81 63.67L157.81 63.67L157.81 55.86Q158.20 49.61 156.64 48.44L156.64 48.44Q155.86 48.44 147.27 50.39L147.27 50.39L145.31 50.39L145.31 46.88Q148.05 46.88 167.19 33.59ZM132.42 35.16L132.42 35.16Q136.72 35.94 135.16 42.97L135.16 42.97Q126.95 51.56 126.95 53.91L126.95 53.91Q128.91 62.50 128.91 69.92L128.91 69.92Q128.91 74.22 128.52 95.31L128.52 95.31L128.91 101.56L126.56 103.52L125.39 103.52Q124.22 103.52 121.88 96.88L121.88 96.88Q122.66 82.81 122.66 69.92L122.66 69.92Q121.88 59.38 121.88 57.81L121.88 57.81L107.81 70.70L107.81 69.14Q108.20 66.80 127.34 42.19L127.34 42.19Q129.69 38.67 132.42 35.16ZM239.45 24.22L241.41 23.83L242.58 23.83Q243.75 23.83 245.70 26.95L245.70 26.95L244.92 40.23Q246.48 40.23 261.72 38.67L261.72 38.67L263.67 38.67Q266.02 39.45 266.02 44.14L266.02 44.14Q266.02 44.53 263.67 44.53Q261.33 44.53 258.59 44.53L258.59 44.53Q242.19 44.53 241.80 50.78L241.80 50.78L234.77 69.92L234.77 71.48Q246.09 71.48 246.09 65.23L246.09 65.23L246.09 63.28Q246.09 57.42 246.09 56.64L246.09 56.64L247.66 55.86L248.44 55.86Q251.56 55.86 252.34 66.80L252.34 66.80L263.28 66.41Q268.36 67.97 268.36 69.92L268.36 69.92L268.36 70.70Q267.97 72.66 261.33 72.66L261.33 72.66L251.95 75Q252.34 103.13 252.34 103.13L252.34 103.13L251.56 109.77L251.56 110.16Q245.31 110.16 235.55 100L235.55 100L235.55 99.22Q235.55 97.66 237.11 97.66L237.11 97.66Q243.36 101.17 245.31 100.39L245.31 100.39L245.31 100Q245.70 76.95 245.31 76.56L245.31 76.56L241.80 77.34Q236.72 77.34 226.95 80.47L226.95 80.47Q225 78.13 225 78.13L225 78.13L226.17 74.22Q229.30 72.27 235.55 48.83L235.55 48.83Q233.59 48.83 229.30 48.05L229.30 48.05L228.52 48.05Q227.34 48.05 225.78 45.31L225.78 45.31Q225.78 44.14 237.50 42.19L237.50 42.19Q239.84 31.64 239.84 28.52L239.84 28.52L239.45 24.22ZM223.05 85.55L223.05 85.55L223.05 85.55Q224.61 85.55 226.17 89.06L226.17 89.06Q223.44 100.78 220.31 102.73L220.31 102.73L218.36 102.73Q216.80 102.73 216.80 100.78L216.80 100.78L216.80 98.05Q220.31 85.55 223.05 85.55ZM265.63 83.59L266.80 82.81Q275 84.38 282.81 93.36L282.81 93.36L283.59 98.44Q283.20 100 281.64 100L281.64 100Q272.66 97.66 265.63 83.59L265.63 83.59ZM355.86 29.69L357.81 28.91L361.72 35.55L360.94 41.41L362.11 41.80Q366.80 41.80 383.59 39.45L383.59 39.45Q385.55 39.84 386.72 39.84L386.72 39.84L386.72 42.19Q386.72 44.92 373.44 47.27L373.44 47.27Q374.22 55.47 374.61 71.48L374.61 71.48Q374.61 74.61 374.61 95.70L374.61 95.70Q374.22 101.17 374.22 101.95L374.22 101.95Q372.66 106.25 370.70 106.25L370.70 106.25Q366.41 106.25 354.30 97.66L354.30 97.66L354.30 94.53L364.45 97.66L367.58 97.66L367.97 86.33L367.97 63.67Q367.97 57.03 367.97 56.64L367.97 56.64Q367.19 47.66 365.63 47.66L365.63 47.66L359.77 48.05Q359.38 49.61 353.52 56.64L353.52 56.64L346.48 62.50L344.92 60.55Q355.86 47.27 355.86 29.69L355.86 29.69ZM320.70 40.63L321.09 34.38L323.83 34.38L327.34 40.63L326.17 45.31L326.95 46.48Q344.14 44.14 349.61 44.14L349.61 44.14L348.05 47.27Q348.05 50 333.20 52.34L333.20 52.34L333.98 60.55Q334.38 105.47 328.52 103.52L328.52 103.52L326.17 98.83Q326.95 93.36 327.34 85.55L327.34 85.55L327.34 55.47Q327.34 53.52 325.78 53.52L325.78 53.52L323.83 52.73Q322.27 56.25 310.94 64.45L310.94 64.45L309.38 64.45Q320.70 45.31 320.70 40.63L320.70 40.63ZM428.91 39.84L467.97 34.77Q471.88 39.84 471.88 40.23L471.88 40.23Q472.27 42.19 469.92 42.58L469.92 42.58Q463.28 42.19 459.38 42.19L459.38 42.19Q446.48 42.19 443.36 51.17L443.36 51.17Q440.23 59.38 436.33 65.63L436.33 65.63L437.11 66.02Q467.19 60.55 468.36 60.55L468.36 60.55Q473.44 60.55 480.08 67.58L480.08 67.58L478.13 70.31Q474.61 78.91 471.48 83.98L471.48 83.98Q471.48 85.16 476.17 91.80L476.17 91.80L476.17 93.36Q476.56 94.53 474.22 95.31L474.22 95.31L471.48 93.75Q458.59 93.75 439.84 97.27L439.84 97.27L439.84 103.13L439.06 103.13Q432.42 103.13 431.64 76.17L431.64 76.17Q430.86 76.17 430.86 75.78L430.86 75.78Q418.36 91.80 408.59 93.75L408.59 93.75L408.59 92.58Q428.52 75 436.72 51.17L436.72 51.17Q438.67 46.48 436.72 44.53L436.72 44.53Q437.89 44.14 427.73 42.58L427.73 42.58L427.73 39.84L428.91 39.84ZM440.63 70.70L440.63 70.70Q434.38 71.09 434.38 71.88L434.38 71.88Q437.11 76.56 439.45 88.67L439.45 88.67L440.63 90.23L444.53 90.23Q461.72 88.28 465.63 83.20L465.63 83.20Q465.63 82.03 469.14 69.53L469.14 69.53Q469.14 68.36 465.63 68.36L465.63 68.36Q458.20 69.14 440.63 70.70ZM550.78 21.48L550.78 21.48L553.52 23.05Q557.03 24.22 556.25 43.36L556.25 43.36L560.94 42.58L571.09 41.02Q572.66 41.80 574.22 41.80L574.22 41.80L574.22 44.92Q574.22 47.66 558.59 48.83L558.59 48.83Q555.86 49.22 556.25 51.56L556.25 51.56Q556.64 54.69 577.34 75.39L577.34 75.39Q582.81 79.30 590.63 83.59L590.63 83.59L594.53 85.16Q590.23 87.50 587.50 87.11L587.50 87.11Q582.03 91.41 557.42 62.50L557.42 62.50L555.86 59.38L555.47 64.06L555.47 79.69L555.86 79.69Q560.55 79.69 568.75 78.52L568.75 78.52L570.31 82.42L570.31 82.81Q570.31 85.94 555.86 87.11L555.86 87.11Q556.25 98.05 555.47 107.03L555.47 107.03Q554.30 108.59 554.30 109.77L554.30 109.77L551.95 109.77Q551.17 109.77 548.83 104.69L548.83 104.69L549.22 92.58L549.22 87.89Q542.97 89.84 538.67 87.11L538.67 87.11L536.33 84.77L536.33 83.59Q549.22 82.03 550 80.47L550 80.47Q550 67.19 550 60.94L550 60.94L547.66 64.45Q531.25 88.28 526.95 90.23L526.95 90.23L525.78 90.23L525.78 87.89Q536.72 71.48 547.66 53.52L547.66 53.52L547.66 51.17L543.36 51.17L542.58 51.17L537.89 51.17Q533.59 49.61 533.59 48.05L533.59 48.05L533.59 46.09Q550.78 45.31 550.78 42.97L550.78 42.97L550.78 41.41Q550.78 25.39 550.78 21.48ZM525.78 32.81L525.78 32.81L526.95 32.81Q528.91 32.81 530.08 37.89L530.08 37.89L530.08 39.84Q527.73 44.92 521.09 53.52L521.09 53.52Q521.88 57.42 521.48 64.45L521.48 64.45L521.48 98.83L520.70 104.69L517.58 104.69Q516.02 104.69 514.84 99.22L514.84 99.22Q514.84 98.05 515.63 85.55L515.63 85.55L515.63 76.56Q515.63 69.53 515.63 57.81L515.63 57.81L515.23 57.42Q503.52 66.02 502.34 66.02L502.34 66.02L502.34 64.84Q519.92 45.31 525.78 32.81ZM641.41 66.41L641.41 66.41L642.97 70.31L642.97 72.27L637.50 72.66Q626.56 73.05 607.81 73.05L607.81 73.05L605.86 69.14Q606.25 67.19 609.77 67.19L609.77 67.19Q625.78 66.41 641.41 66.41ZM660.55 37.89L668.75 37.50Q696.48 35.55 697.66 52.34L697.66 52.34Q697.66 62.89 686.72 68.75L686.72 68.75Q681.25 71.09 675 71.88L675 71.88Q690.23 85.94 703.13 99.61L703.13 99.61L698.05 100L694.53 100Q677.73 83.20 664.45 71.48L664.45 71.48Q664.06 73.05 664.06 85.55L664.06 85.55L663.67 98.44Q663.67 100.39 661.72 100.39L661.72 100.39L660.55 100.39L657.03 100Q658.20 38.67 660.55 37.89L660.55 37.89ZM665.23 65.23L665.23 65.23L667.58 65.63L671.88 65.23Q692.97 65.63 690.23 49.22L690.23 49.22Q685.94 41.80 666.02 43.36L666.02 43.36Q664.06 42.97 665.23 65.23ZM719.92 63.67L719.92 63.67Q731.64 63.67 733.98 72.66L733.98 72.66Q733.98 80.86 710.55 85.16L710.55 85.16L710.55 85.55Q711.72 94.14 718.36 93.75L718.36 93.75Q722.66 94.92 734.77 89.06L734.77 89.06L734.38 93.36Q726.95 100 719.14 100L719.14 100Q703.52 99.61 703.91 81.25L703.91 81.25Q706.25 66.41 719.92 63.67ZM710.94 79.30L710.94 79.30L712.89 79.30Q722.66 79.30 728.13 71.88L728.13 71.88L728.13 71.09Q728.13 69.53 725.39 68.36L725.39 68.36L723.05 68.36Q711.33 71.09 710.94 79.30ZM757.03 63.67L757.03 63.67Q769.53 62.89 767.19 77.73L767.19 77.73Q767.58 83.20 766.80 88.28L766.80 88.28Q766.80 93.36 766.80 100.78L766.80 100.78Q766.80 119.53 752.73 119.53L752.73 119.53L746.88 118.36Q738.28 114.06 739.84 103.13L739.84 103.13L741.80 101.95Q744.53 112.50 752.73 113.28L752.73 113.28Q762.11 112.50 760.94 96.88L760.94 96.88Q760.55 95.31 760.94 94.14L760.94 94.14Q758.59 97.27 753.52 98.05L753.52 98.05Q741.02 96.88 742.97 80.47L742.97 80.47Q744.53 64.45 757.03 63.67ZM748.05 82.03L748.05 82.03Q746.48 90.23 753.52 92.19L753.52 92.19Q761.72 87.89 761.72 78.91L761.72 78.91L760.94 71.09Q760.94 69.92 760.16 69.92L760.16 69.92L758.59 69.92Q748.83 70.31 748.05 82.03ZM784.38 64.45L784.38 64.45Q786.33 64.45 786.33 67.97L786.33 67.97Q782.81 78.13 782.42 89.06L782.42 89.06L783.98 91.41Q795.31 98.44 801.17 68.75L801.17 68.75Q801.95 66.80 801.95 65.63L801.95 65.63L805.47 65.63Q805.47 66.80 806.25 68.75L806.25 68.75Q803.52 81.64 803.52 89.45L803.52 89.45Q803.52 89.84 807.03 97.66L807.03 97.66L807.03 99.61L805.47 99.61Q800.78 99.61 798.44 92.58L798.44 92.58Q794.53 100 785.94 99.22L785.94 99.22Q777.73 96.48 777.73 90.23L777.73 90.23L777.73 89.45Q777.73 84.38 780.47 69.92L780.47 69.92Q773.83 69.92 778.91 66.41L778.91 66.41Q782.03 64.45 784.38 64.45ZM816.02 37.89L816.02 37.89Q819.92 35.94 821.48 39.06L821.48 39.06Q820.31 50.78 819.53 57.42L819.53 57.42L817.97 80.47Q816.80 89.45 820.70 91.80L820.70 91.80L824.22 91.41L828.13 88.28Q828.52 88.28 830.86 90.63L830.86 90.63Q830.86 94.92 821.88 99.61L821.88 99.61Q809.77 99.22 812.89 78.91L812.89 78.91Q812.89 73.83 816.02 37.89ZM852.34 64.45L852.34 64.45Q859.38 64.06 863.67 71.88L863.67 71.88Q862.89 81.64 861.33 85.94L861.33 85.94L862.11 89.06Q862.50 91.80 864.84 93.75L864.84 93.75Q867.19 96.88 867.19 98.44L867.19 98.44L862.11 99.61Q858.59 97.66 856.64 91.41L856.64 91.41Q848.83 100 843.36 99.61L843.36 99.61Q834.38 98.44 833.20 88.67L833.20 88.67Q834.38 69.14 845.70 64.84L845.70 64.84Q849.61 63.67 852.34 64.45ZM839.06 83.98L839.06 83.98L839.45 89.06Q840.63 92.58 842.19 92.58L842.19 92.58L844.92 92.58Q851.17 92.58 856.25 80.08L856.25 80.08L857.42 73.05Q855.47 69.53 851.56 69.53L851.56 69.53L851.17 69.53Q841.80 69.53 839.06 83.98ZM892.58 64.45L892.58 64.45L892.97 64.45Q900 65.63 900 71.09L900 71.09L896.09 73.05Q893.75 69.14 889.06 71.09L889.06 71.09Q878.13 80.08 879.30 93.36L879.30 93.36L879.30 97.66Q879.30 99.61 876.56 99.61L876.56 99.61L875.78 99.61Q874.22 99.61 873.44 97.27L873.44 97.27L873.44 93.75Q873.44 92.97 874.22 78.13L874.22 78.13L874.22 75.78Q874.22 72.66 871.88 66.41L871.88 66.41Q873.05 63.67 877.73 63.67L877.73 63.67L878.52 67.19Q878.91 70.70 880.08 72.66L880.08 72.66L880.08 72.66Q887.11 64.45 892.58 64.45Z"/></svg>