<svg xmlns="http://www.w3.org/2000/svg" xmlns:xlink="http://www.w3.org/1999/xlink" width="950.78125" height="107.421875"><path d="M25 30.47L25 30.47L28.52 30.47Q31.25 30.47 32.81 37.89L32.81 37.89Q31.64 44.14 31.64 50L31.64 50Q33.59 49.61 34.38 49.61L34.38 49.61L38.67 48.05L41.80 52.73L39.45 55.86L31.64 57.42L32.03 63.28L41.41 70.70Q41.80 76.95 37.50 78.52L37.50 78.52L34.77 76.17Q32.03 73.05 31.64 72.66L31.64 72.66Q31.25 78.13 31.25 101.17L31.25 101.17L32.03 105.08Q31.25 107.03 31.25 108.59L31.25 108.59Q25.78 108.59 22.66 103.91L22.66 103.91Q23.83 87.50 23.83 83.20L23.83 83.20L24.22 78.52Q21.88 80.47 13.67 85.55L13.67 85.55L8.59 85.55Q23.83 67.97 24.22 60.94L24.22 60.94Q24.61 59.38 24.61 59.38L24.61 59.38L19.53 61.33L16.80 61.33Q13.28 58.98 13.28 55.47L13.28 55.47Q21.48 53.13 25.39 51.17L25.39 51.17Q25.39 39.84 25.39 35.94L25.39 35.94Q25 32.81 25 30.47ZM45.31 36.33L63.67 31.64L69.14 32.81Q71.09 33.98 73.44 37.89L73.44 37.89Q67.19 43.36 55.86 58.98L55.86 58.98L55.86 58.59L58.20 58.20Q69.53 56.25 76.56 55.47L76.56 55.47Q86.72 54.30 91.02 62.89L91.02 62.89Q90.63 75.78 74.22 110.94L74.22 110.94L72.27 110.94Q70.70 110.94 53.91 98.83L53.91 98.83L52.34 100L42.97 106.25L42.97 102.34Q62.50 78.13 64.45 67.97L64.45 67.97L66.80 66.41L68.75 66.41Q71.48 67.58 71.48 69.92L71.48 69.92Q71.48 77.73 56.25 95.70L56.25 95.70Q56.25 95.70 66.80 99.22L66.80 99.22L70.31 98.83Q75.39 92.19 81.64 64.84L81.64 64.84Q81.25 62.50 72.66 63.28L72.66 63.28Q65.63 64.45 53.52 66.02L53.52 66.02L45.70 67.19L44.53 62.89L48.05 58.59Q56.64 44.53 58.20 40.63L58.20 40.63L58.59 40.23L60.16 40.23L46.09 42.19L45.31 38.67L45.31 36.33ZM51.17 67.97L51.17 67.97L54.30 67.97Q57.81 67.97 56.64 71.48L56.64 71.48Q55.08 79.69 42.58 93.36L42.58 93.36L35.94 94.92Q46.48 78.52 51.17 67.97ZM167.19 32.81L167.19 32.81Q169.53 33.59 171.48 33.59L171.48 33.59L171.48 38.67L164.06 45.31L164.06 45.70Q164.06 51.56 164.45 62.11L164.45 62.11Q168.36 61.33 177.73 60.16L177.73 60.16L183.59 59.38L187.89 60.55Q191.41 63.67 191.41 65.63Q191.41 67.58 188.48 67.77Q185.55 67.97 177.73 68.75L177.73 68.75Q164.45 70.31 164.45 69.92L164.45 69.92Q164.84 83.20 164.45 88.67L164.45 88.67L164.45 88.67Q175 88.28 175.78 87.50L175.78 87.50Q182.42 88.67 183.59 92.58L183.59 92.58L183.59 97.27Q181.64 97.27 175.78 97.27L175.78 97.27Q170.70 96.48 156.64 98.05L156.64 98.05L151.56 98.44L144.92 100Q139.84 96.48 139.84 94.14L139.84 94.14Q139.84 91.41 157.03 89.45L157.03 89.45Q156.25 83.98 157.03 72.27L157.03 72.27Q157.03 71.88 154.69 72.66L154.69 72.66Q141.80 75 138.67 75L138.67 75Q137.50 74.22 135.16 74.22L135.16 74.22L133.20 69.14Q157.03 64.06 157.03 63.67L157.03 63.67L157.03 55.86Q157.42 50 156.25 49.22L156.25 49.22Q155.86 49.22 147.27 51.17L147.27 51.17L144.53 51.17L144.53 46.09Q147.66 46.09 167.19 32.81ZM132.03 34.38L132.03 34.38Q137.89 35.55 135.94 43.36L135.94 43.36Q127.73 51.95 127.73 53.91L127.73 53.91Q129.69 62.50 129.69 69.92L129.69 69.92Q129.69 74.22 129.30 95.31L129.30 95.31L129.69 101.95L126.95 104.30L125.39 104.30Q123.83 104.30 121.09 96.88L121.09 96.88Q121.88 82.81 121.88 69.92L121.88 69.92Q121.09 59.38 121.09 59.77L121.09 59.77L107.03 72.66L107.03 69.14Q107.42 66.41 126.95 41.80L126.95 41.80Q129.30 38.28 132.03 34.38ZM238.67 23.83L241.41 23.05L242.58 23.05Q244.14 23.05 246.48 26.56L246.48 26.56L245.70 39.45Q246.48 39.45 261.72 37.89L261.72 37.89L264.06 37.89Q265.23 38.28 265.23 51.95L265.23 51.95Q266.41 45.31 263.87 45.31Q261.33 45.31 258.59 45.31L258.59 45.31Q242.97 45.31 242.58 51.17L242.58 51.17L235.55 70.31L235.55 70.70Q245.31 70.70 245.31 65.23L245.31 65.23L245.31 63.28Q245.31 57.42 245.31 56.25L245.31 56.25L247.27 55.08L248.44 55.08Q252.34 55.08 253.13 66.02L253.13 66.02L263.28 65.63Q269.14 67.58 269.14 69.92L269.14 69.92L269.14 70.70Q268.36 73.44 261.33 73.44L261.33 73.44L252.73 75.39Q253.13 103.13 253.13 103.13L253.13 103.13L250.78 114.06L251.95 110.94Q244.92 110.94 234.77 100.39L234.77 100.39L234.77 99.22Q234.77 96.88 237.50 96.88L237.50 96.88Q243.36 100.39 244.53 100L244.53 100L244.53 100Q244.92 77.34 244.92 77.34L244.92 77.34L241.80 78.13Q236.72 78.13 226.56 81.25L226.56 81.25Q224.22 78.52 224.22 78.13L224.22 78.13L225.39 73.83Q228.52 71.88 234.38 49.61L234.38 49.61Q233.59 49.61 229.30 48.83L229.30 48.83L228.52 48.83Q226.95 48.83 225 45.70L225 45.70Q225 43.36 236.72 41.41L236.72 41.41Q239.06 31.64 239.06 28.52L239.06 28.52L238.67 23.83ZM222.27 84.77L222.27 84.77L222.27 84.77Q225 84.77 226.95 89.06L226.95 89.06Q224.22 101.17 220.70 103.52L220.70 103.52L218.36 103.52Q216.02 103.52 216.02 100.78L216.02 100.78L216.02 98.05Q219.92 84.77 222.27 84.77ZM264.45 83.20L266.80 82.03Q275.39 83.59 283.59 92.97L283.59 92.97L284.38 98.44Q283.59 100.78 281.64 100.78L281.64 100.78Q272.27 98.44 264.45 83.20L264.45 83.20ZM355.08 29.30L358.20 27.73L362.50 35.16L361.72 41.02L362.11 41.02Q366.80 41.02 383.59 38.67L383.59 38.67Q385.55 39.06 387.50 39.06L387.50 39.06L387.50 42.19Q387.50 45.70 374.22 47.66L374.22 47.66Q375 55.47 375.39 71.48L375.39 71.48Q375.39 74.61 375.39 95.70L375.39 95.70Q375 101.17 375 102.34L375 102.34Q373.05 107.03 370.70 107.03L370.70 107.03Q366.02 107.03 353.52 98.05L353.52 98.05L353.52 93.36L364.45 96.88L366.80 96.88L367.19 86.33L367.19 63.67Q367.19 57.03 367.19 56.64L367.19 56.64Q366.41 48.44 365.63 48.44L365.63 48.44L360.16 48.83Q360.16 50 353.91 57.03L353.91 57.03L346.48 63.67L343.75 60.55Q355.08 46.88 355.08 29.30L355.08 29.30ZM319.92 40.63L320.31 33.59L324.22 33.59L328.13 40.63L326.95 44.92L327.34 45.70Q344.14 43.36 350.78 43.36L350.78 43.36L348.83 47.66Q348.83 50.78 333.98 53.13L333.98 53.13L334.77 60.55Q335.16 106.64 328.13 103.91L328.13 103.91L325.39 99.22Q326.17 93.36 326.56 85.55L326.56 85.55L326.56 55.47Q326.56 54.30 325.39 54.30L325.39 54.30L324.22 53.91Q322.66 56.64 311.33 65.23L311.33 65.23L308.20 65.23Q319.92 44.92 319.92 40.63L319.92 40.63ZM428.91 39.06L468.36 33.98Q472.66 39.45 472.66 40.23L472.66 40.23Q473.44 42.58 469.92 43.36L469.92 43.36Q463.28 42.97 459.38 42.97L459.38 42.97Q446.88 42.97 444.14 51.56L444.14 51.56Q441.02 59.77 437.50 65.23L437.50 65.23L437.11 65.23Q467.19 59.77 468.36 59.77L468.36 59.77Q473.83 59.77 481.25 67.58L481.25 67.58L478.91 70.70Q475.39 79.30 472.27 84.38L472.27 84.38Q472.27 84.77 476.95 91.41L476.95 91.41L476.95 92.97Q477.73 94.92 474.22 96.09L474.22 96.09L471.09 94.53Q458.59 94.53 440.63 97.66L440.63 97.66L440.63 103.91L439.06 103.91Q431.64 103.91 430.86 76.95L430.86 76.95Q430.08 76.95 430.08 78.13L430.08 78.13Q418.75 92.58 407.81 94.92L407.81 94.92L407.81 92.19Q427.73 74.61 435.94 50.78L435.94 50.78Q437.89 46.48 435.55 44.14L435.55 44.14Q435.16 44.53 426.95 43.36L426.95 43.36L426.95 39.06L428.91 39.06ZM440.63 71.48L440.63 71.48Q435.16 71.88 435.16 71.48L435.16 71.48Q437.89 76.17 440.23 88.28L440.23 88.28L441.02 89.45L444.53 89.45Q461.33 87.50 464.84 82.81L464.84 82.81Q464.84 82.03 468.36 69.53L468.36 69.53Q468.36 69.14 465.63 69.14L465.63 69.14Q458.20 69.92 440.63 71.48ZM550 20.31L550 20.31L553.91 22.27Q557.81 23.83 557.03 42.19L557.03 42.19L560.94 41.80L571.09 40.23Q573.05 41.02 575 41.02L575 41.02L575 44.92Q575 48.44 558.59 49.61L558.59 49.61Q556.64 50 557.03 51.56L557.03 51.56Q557.42 54.30 577.73 75L577.73 75Q583.20 78.52 591.02 82.81L591.02 82.81L596.48 84.77Q590.63 88.28 587.89 87.89L587.89 87.89Q582.03 92.58 557.03 62.89L557.03 62.89L556.25 62.11L556.25 64.06L556.25 78.91L555.86 78.91Q560.55 78.91 569.14 77.73L569.14 77.73L571.09 82.03L571.09 82.81Q571.09 86.72 556.64 87.89L556.64 87.89Q557.03 98.05 556.25 107.42L556.25 107.42Q555.08 108.98 555.08 110.55L555.08 110.55L551.95 110.55Q550.78 110.55 548.05 105.08L548.05 105.08L548.44 92.58L548.44 89.06Q542.58 90.63 538.28 87.50L538.28 87.50L535.55 85.16L535.55 82.81Q548.83 81.25 549.22 80.08L549.22 80.08Q549.22 67.19 549.22 63.28L549.22 63.28L548.05 64.84Q531.64 88.67 527.34 91.02L527.34 91.02L525 91.02L525 87.50Q535.94 71.09 546.88 53.13L546.88 53.13L546.88 51.95L543.36 51.95L542.58 51.95L537.50 51.95Q532.81 50 532.81 48.05L532.81 48.05L532.81 45.31Q550 44.53 550 42.97L550 42.97L550 41.41Q550 25.39 550 20.31ZM525.39 32.03L525.39 32.03L526.95 32.03Q529.30 32.03 530.86 37.89L530.86 37.89L530.86 40.23Q528.52 45.31 521.88 53.91L521.88 53.91Q522.66 57.42 522.27 64.45L522.27 64.45L522.27 98.83L521.48 105.47L517.58 105.47Q515.63 105.47 514.06 99.22L514.06 99.22Q514.06 98.05 514.84 85.55L514.84 85.55L514.84 76.56Q514.84 69.53 514.84 58.20L514.84 58.20L515.23 58.59Q503.91 66.80 501.56 66.80L501.56 66.80L501.56 64.45Q519.14 44.92 525.39 32.03ZM641.80 65.63L641.80 65.63L643.75 69.92L643.75 73.05L637.50 73.44Q626.56 73.83 607.42 73.83L607.42 73.83L605.08 69.14Q605.86 66.41 609.77 66.41L609.77 66.41Q625.78 65.63 641.80 65.63ZM679.69 35.94L679.69 35.94Q689.84 37.50 692.58 42.97L692.58 42.97L692.19 44.53L690.63 47.27L682.42 43.36Q667.58 40.23 664.45 51.17L664.45 51.17Q665.63 58.98 682.81 64.06L682.81 64.06Q695.70 67.97 695.31 82.81L695.31 82.81Q690.23 102.73 667.97 100.39L667.97 100.39Q655.86 99.22 651.56 85.94L651.56 85.94L651.56 82.81L655.47 80.47Q661.33 90.63 669.14 92.97L669.14 92.97L676.56 92.19Q685.55 90.23 686.33 82.42L686.33 82.42L686.33 80.86Q685.94 72.27 673.83 69.92L673.83 69.92Q655.47 62.89 656.64 50.78L656.64 50.78Q658.20 33.59 679.69 35.94ZM715.23 62.89L715.23 62.89Q727.34 62.89 730.08 72.66L730.08 72.66Q730.08 81.25 706.64 85.55L706.64 85.55L706.64 85.55Q707.81 93.36 713.67 92.97L713.67 92.97Q717.97 94.14 731.25 87.89L731.25 87.89L730.47 93.75Q722.66 100.78 714.45 100.78L714.45 100.78Q698.05 100.39 698.44 81.25L698.44 81.25Q700.78 65.63 715.23 62.89ZM707.03 78.52L707.03 78.52L708.20 78.52Q717.58 78.52 722.66 71.48L722.66 71.48L722.66 71.09Q722.66 69.92 720.31 69.14L720.31 69.14L718.36 69.14Q707.42 71.48 707.03 78.52ZM770.31 63.67L770.31 63.67Q782.03 64.06 781.25 72.66L781.25 72.66L781.25 85.94Q781.25 94.53 788.67 96.09L788.67 96.09L788.67 98.83L785.55 100.39Q772.66 101.56 773.83 73.05L773.83 73.05L772.27 72.27Q764.06 71.09 763.67 81.25L763.67 81.25Q763.67 98.05 762.50 98.05L762.50 98.05L760.16 98.83Q757.03 97.66 757.03 94.92L757.03 94.92Q757.03 82.42 757.03 80.86L757.03 80.86Q756.25 73.44 751.56 74.22L751.56 74.22Q745.31 73.05 744.53 100L744.53 100L740.63 100.39Q736.72 99.22 737.11 92.97L737.11 92.97L737.11 90.63Q739.45 75.78 738.67 73.05L738.67 73.05Q737.50 70.31 732.81 66.02L732.81 66.02L739.84 64.84Q744.14 67.97 744.14 68.36L744.14 68.36L745.31 67.97Q748.44 65.23 753.13 64.84L753.13 64.84Q758.98 66.02 760.55 67.97L760.55 67.97Q764.84 63.67 770.31 63.67ZM798.83 52.73L798.83 52.73Q802.73 54.30 803.13 57.42L803.13 57.42L803.13 58.59Q803.13 61.33 800.78 61.33L800.78 61.33L799.22 61.33Q794.53 58.59 794.53 53.52L794.53 53.52Q797.66 52.73 798.83 52.73ZM790.63 67.19L796.88 62.89L798.05 62.89Q799.61 62.89 802.73 66.02L802.73 66.02Q800 76.56 799.22 87.50L799.22 87.50Q798.83 93.36 801.17 92.58L801.17 92.58L804.69 91.02L807.42 91.02Q807.42 96.48 803.13 100L803.13 100Q792.19 103.52 792.97 87.89L792.97 87.89Q793.75 74.22 794.53 71.88L794.53 71.88L791.80 73.83L790.63 67.19ZM816.41 30.86L816.41 30.86L818.75 30.86Q822.27 32.03 822.27 36.72L822.27 36.72L821.88 57.03Q821.88 60.16 821.48 62.89L821.48 62.89L833.98 62.89Q846.48 66.02 847.27 78.13L847.27 78.13Q846.09 100 828.91 100L828.91 100Q825.78 100.39 819.14 100.39L819.14 100.39L814.06 100.39L812.50 96.09Q814.06 96.09 816.02 34.77L816.02 34.77Q816.41 32.42 816.41 30.86ZM821.48 71.09L821.48 71.09L821.48 77.73Q820.70 89.45 821.09 91.41L821.09 91.41Q841.02 92.97 838.67 77.34L838.67 77.34Q837.11 68.75 828.91 70.31L828.91 70.31Q821.09 70.31 821.48 71.09ZM863.28 62.89L865.63 62.89Q880.47 63.67 881.64 82.03L881.64 82.03Q880.86 98.44 864.45 100.78L864.45 100.78Q849.22 100.78 848.83 82.42L848.83 82.42Q851.56 64.06 863.28 62.89L863.28 62.89ZM857.03 79.30L857.03 79.30L856.64 84.77Q857.03 92.19 864.45 93.75L864.45 93.75Q874.22 91.02 874.22 82.42L874.22 82.42Q876.17 71.48 864.84 69.92L864.84 69.92Q857.42 71.48 857.03 79.30ZM891.41 37.50L891.41 37.50Q896.48 34.77 898.44 39.06L898.44 39.06Q897.27 50.78 896.48 57.42L896.48 57.42L894.92 80.47Q893.75 89.06 897.27 91.02L897.27 91.02L900 90.63L903.91 87.50Q905.08 87.50 907.81 90.23L907.81 90.23Q907.81 95.31 898.44 100.39L898.44 100.39Q885.16 100 888.28 78.91L888.28 78.91Q888.28 73.83 891.41 37.50ZM941.02 33.59L941.02 33.59L944.14 33.98Q947.27 33.98 947.27 37.89L947.27 37.89Q941.80 66.41 941.41 80.47L941.41 80.47Q941.80 92.58 950 92.97L950 92.97L951.56 96.09L951.56 97.27Q951.56 99.22 947.66 101.56L947.66 101.56Q934.77 99.61 934.38 94.53L934.38 94.53Q934.77 91.41 925 99.22L925 99.22L921.88 100Q908.59 99.22 909.38 84.77L909.38 84.77Q911.33 65.23 925.39 62.89L925.39 62.89Q934.77 61.72 935.16 63.28L935.16 63.28Q935.94 60.16 941.02 33.59ZM917.19 85.16L917.19 85.16Q917.19 91.80 920.70 91.80L920.70 91.80Q925.39 91.80 932.81 74.61L932.81 74.61Q932.81 70.31 929.69 69.53L929.69 69.53L926.95 69.53Q919.92 70.70 917.19 85.16Z"/></svg>