<svg xmlns="http://www.w3.org/2000/svg" xmlns:xlink="http://www.w3.org/1999/xlink" width="1145.5" height="140"><path d="M37.10 24.20L37.10 33.40L30.40 55.60Q34.40 61.70 36.10 67.35Q37.80 73 37.80 79L37.80 79Q37.80 84.90 36.75 87.85Q35.70 90.80 33.15 92.15Q30.60 93.50 25.20 94.40L25.20 94.40L22.80 94.80L19.50 85.20L22.70 84.80Q25.70 84.40 27 83.80Q28.30 83.20 28.80 81.75Q29.30 80.30 29.30 77.20L29.30 77.20Q29.30 69.60 21 57.30L21 57.30L28.10 33.40L18.60 33.40L18.60 109.70L9.40 109.70L9.40 24.20L37.10 24.20ZM40.10 25.90L93 25.90L93 35.20L85.80 35.20L85.80 95.30Q85.80 100.60 84.75 103.35Q83.70 106.10 80.80 107.40Q77.90 108.70 72 109.20L72 109.20L63.90 109.80L60.90 99.60L68.70 99.10Q71.90 98.90 73.50 98.25Q75.10 97.60 75.65 96.25Q76.20 94.90 76.20 92.10L76.20 92.10L76.20 35.20L40.10 35.20L40.10 25.90ZM40.70 86.40L40.70 46L68.30 46L68.30 86.40L40.70 86.40ZM49.30 55.20L49.30 77.40L59.50 77.40L59.50 55.20L49.30 55.20ZM183.20 89.80L152.40 89.80L152.40 99.20L190.80 99.20L190.80 108.20L103.90 108.20L103.90 99.20L142.40 99.20L142.40 89.80L111.60 89.80L111.60 80.40L142.40 80.40L142.40 71.60L112.40 71.60L112.40 24.80L182.30 24.80L182.30 71.60L152.40 71.60L152.40 80.40L183.20 80.40L183.20 89.80ZM122.40 43.90L142.40 43.90L142.40 33.60L122.40 33.60L122.40 43.90ZM152.40 33.60L152.40 43.90L172.40 43.90L172.40 33.60L152.40 33.60ZM142.40 52.50L122.40 52.50L122.40 62.70L142.40 62.70L142.40 52.50ZM172.40 52.50L152.40 52.50L152.40 62.70L172.40 62.70L172.40 52.50ZM279.30 82.90L289.60 86.50Q289.40 90.60 288.50 94.90L288.50 94.90Q287.40 100 285.95 102.60Q284.50 105.20 281.40 106.40Q278.30 107.60 272.40 107.90L272.40 107.90Q262.70 108.40 248.60 108.40L248.60 108.40Q234.50 108.40 224.70 107.90L224.70 107.90Q218.80 107.60 215.50 106.10Q212.20 104.60 210.70 101.20Q209.20 97.80 209.20 91.50L209.20 91.50L209.20 25.10L281.50 25.10L281.50 68.80L219.60 68.80L219.60 88.60Q219.60 92.50 220.25 94.40Q220.90 96.30 222.70 97.10Q224.50 97.90 228.30 98.10L228.30 98.10Q238.70 98.70 249.50 98.70L249.50 98.70Q259.70 98.70 269.40 98.10L269.40 98.10Q272.90 97.90 274.65 97.20Q276.40 96.50 277.20 95Q278 93.50 278.50 90.40L278.50 90.40Q279.20 86.50 279.30 82.90L279.30 82.90ZM219.60 58.90L240.40 58.90L240.40 34.90L219.60 34.90L219.60 58.90ZM250.60 34.90L250.60 58.90L270.80 58.90L270.80 34.90L250.60 34.90ZM377.70 82.90L388.00 86.50Q387.80 90.60 386.90 94.90L386.90 94.90Q385.80 100 384.35 102.60Q382.90 105.20 379.80 106.40Q376.70 107.60 370.80 107.90L370.80 107.90Q361.10 108.40 347.00 108.40L347.00 108.40Q332.90 108.40 323.10 107.90L323.10 107.90Q317.20 107.60 313.90 106.10Q310.60 104.60 309.10 101.20Q307.60 97.80 307.60 91.50L307.60 91.50L307.60 25.10L379.90 25.10L379.90 68.80L318.00 68.80L318.00 88.60Q318.00 92.50 318.65 94.40Q319.30 96.30 321.10 97.10Q322.90 97.90 326.70 98.10L326.70 98.10Q337.10 98.70 347.90 98.70L347.90 98.70Q358.10 98.70 367.80 98.10L367.80 98.10Q371.30 97.90 373.05 97.20Q374.80 96.50 375.60 95Q376.40 93.50 376.90 90.40L376.90 90.40Q377.60 86.50 377.70 82.90L377.70 82.90ZM318.00 58.90L338.80 58.90L338.80 34.90L318.00 34.90L318.00 58.90ZM349.00 34.90L349.00 58.90L369.20 58.90L369.20 34.90L349.00 34.90ZM467.20 55L486.60 55L486.60 63.40L398.90 63.40L398.90 55L417.80 55Q415.90 52.30 412.60 48.65Q409.30 45 406.70 42.50L406.70 42.50L411.60 37.60L403.50 37.60L403.50 29.20L424.10 29.20Q421.60 25.30 418.50 22.20L418.50 22.20L426.30 17.30Q432 24 434.10 27.20L434.10 27.20L431.40 29.20L450.50 29.20Q452.80 26.50 455.35 23Q457.90 19.50 459.20 17.20L459.20 17.20L467.30 22.20Q465.20 25.50 462.40 29.20L462.40 29.20L482 29.20L482 37.60L473.40 37.60L478.70 41.80Q475.20 46.80 467.20 55L467.20 55ZM428.10 37.60L414.30 37.60Q417 40.10 420 43.40Q423 46.70 424.90 49.30L424.90 49.30L419.50 55L428.10 55L428.10 37.60ZM437.80 37.60L437.80 55L447.80 55L447.80 37.60L437.80 37.60ZM457.40 55L466.10 55L460.10 49.90Q462.80 47.30 466 43.75Q469.20 40.20 471.20 37.60L471.20 37.60L457.40 37.60L457.40 55ZM420.90 105.50L420.90 110L411.50 110L411.50 69.20L474 69.20L474 109.90L464.60 109.90L464.60 105.50L420.90 105.50ZM420.90 83.70L464.60 83.70L464.60 77.40L420.90 77.40L420.90 83.70ZM464.60 91.70L420.90 91.70L420.90 97.90L464.60 97.90L464.60 91.70ZM506.20 39.20L536.40 39.20L536.40 34.50L499.90 34.50L499.90 26.70L536.40 26.70L536.40 19.60L545.40 20L545.40 26.70L582 26.70L582 34.50L545.40 34.50L545.40 39.20L575.40 39.20L575.40 68.20L572.80 68.20Q578.10 74.50 583.30 81.80L583.30 81.80L576.50 87.70Q576 86.70 574.80 85.05Q573.60 83.40 572.90 82.50L572.90 82.50L571.60 80.60L558.20 81L542.10 81.40Q544.70 83.70 547.60 86.60Q550.50 89.50 551.90 91.30L551.90 91.30L546.20 97.50Q542 92.10 534.90 85.40L534.90 85.40L539 81.50Q525.80 81.90 515.40 82.20Q505 82.50 500.20 82.70L500.20 82.70L500 74.70L536.40 74.10L536.40 68.20L506.20 68.20L506.20 39.20ZM516 50.70L536.40 50.70L536.40 46.20L516 46.20L516 50.70ZM545.40 50.70L565.70 50.70L565.70 46.20L545.40 46.20L545.40 50.70ZM536.40 56.80L516 56.80L516 61.50L536.40 61.50L536.40 56.80ZM565.70 61.50L565.70 56.80L545.40 56.80L545.40 61.50L565.70 61.50ZM564.10 70.80L564.10 70.80L567.80 68.20L545.40 68.20L545.40 74L554.60 73.90Q563.60 73.70 566.40 73.70L566.40 73.70Q565.80 73 565.25 72.25Q564.70 71.50 564.10 70.80ZM504.10 107.50L496 102.50Q499.50 98 502.95 92.75Q506.40 87.50 508.90 82.80L508.90 82.80L516.70 87Q511.80 96.40 504.10 107.50L504.10 107.50ZM564.90 87.20L572.50 83Q579.30 92.40 585 101.40L585 101.40L577 106.60Q570.30 94.90 564.90 87.20L564.90 87.20ZM555.70 89.70L555.70 89.70L564.70 92.70Q564.50 95.70 563.60 99.50L563.60 99.50Q562.80 102.70 561.40 104.45Q560 106.20 557.30 107.05Q554.60 107.90 549.80 108.20L549.80 108.20Q546.80 108.40 540.80 108.40L540.80 108.40Q534.70 108.40 531.70 108.20L531.70 108.20Q525.20 107.90 522.35 105.70Q519.50 103.50 519.50 98.60L519.50 98.60L519.50 85.10L529.50 85.50L529.50 95.50Q529.50 98.20 530.50 99Q531.50 99.80 534.70 100L534.70 100Q537 100.20 541.70 100.20L541.70 100.20Q546.30 100.20 548.60 100L548.60 100Q552 99.90 553.20 99.05Q554.40 98.20 554.90 95.90L554.90 95.90Q555.40 94 555.70 89.70ZM680.80 45.30L657.60 45.30Q662.10 56.40 669.40 66.10Q676.70 75.80 686.70 84.80L686.70 84.80L679.90 94.10Q671.80 86.20 665.15 76.55Q658.50 66.90 653.90 56.40L653.90 56.40L653.90 84.60L669.40 84.60L669.40 93.80L653.90 93.80L653.90 110L644.10 110L644.10 93.80L629.40 93.80L629.40 84.60L644.10 84.60L644.10 57Q639.90 67.30 634.15 76.30Q628.40 85.30 620 94.10L620 94.10L615.70 88.30L615.70 109.30L606.10 109.30L606.10 61.40Q603 66.50 598.20 72.90L598.20 72.90L592 64Q597.90 55.50 603.75 43.75Q609.60 32 612.90 20.50L612.90 20.50L623 22.30Q619.80 33.40 615.70 42.90L615.70 42.90L615.70 83.20Q624.30 74.90 630.40 65.70Q636.50 56.50 640.90 45.30L640.90 45.30L620.70 45.30L620.70 35.60L644.10 35.60L644.10 19.50L653.90 19.90L653.90 35.60L680.80 35.60L680.80 45.30ZM714.70 101L714.70 101Q711.60 101 708.60 100.80Q705.60 100.60 702.90 100.20Q700.20 99.80 698 99.40Q695.80 99 694.30 98.50L694.30 98.50L694.30 86.80Q695.90 87.40 698.20 87.90Q700.50 88.40 703.15 88.80Q705.80 89.20 708.65 89.45Q711.50 89.70 714.30 89.70L714.30 89.70Q721.50 89.70 724.60 87.65Q727.70 85.60 727.70 80.30L727.70 80.30Q727.70 77.90 727.15 76.25Q726.60 74.60 725.10 73.35Q723.60 72.10 720.95 71.15Q718.30 70.20 714 69.10L714 69.10Q708.50 67.80 704.85 66.30Q701.20 64.80 698.95 62.55Q696.70 60.30 695.75 57.15Q694.80 54 694.80 49.40L694.80 49.40Q694.80 38.80 701.05 34.15Q707.30 29.50 719.40 29.50L719.40 29.50Q725 29.50 729.70 30.25Q734.40 31 737.10 32L737.10 32L737.10 43.10Q735.70 42.60 733.70 42.15Q731.70 41.70 729.35 41.30Q727 40.90 724.50 40.70Q722 40.50 719.80 40.50L719.80 40.50Q713.50 40.50 710.55 42.20Q707.60 43.90 707.60 49.10L707.60 49.10Q707.60 51.10 708 52.45Q708.40 53.80 709.75 54.85Q711.10 55.90 713.60 56.80Q716.10 57.70 720.20 58.70L720.20 58.70Q726.30 60.20 730.25 61.90Q734.20 63.60 736.50 66.10Q738.80 68.60 739.75 72.10Q740.70 75.60 740.70 80.50L740.70 80.50Q740.70 90.70 734.50 95.85Q728.30 101 714.70 101ZM799.70 68.30L799.70 68.30Q799.70 70.30 799.55 72.15Q799.40 74 799.20 75.40L799.20 75.40L763.80 77.70Q764.00 84.50 767.60 87.70Q771.20 90.90 779.30 90.90L779.30 90.90Q781.70 90.90 784.25 90.60Q786.80 90.30 789.15 89.75Q791.50 89.20 793.50 88.55Q795.50 87.90 796.90 87.20L796.90 87.20L796.90 97.40Q794.50 98.80 789.10 99.90Q783.70 101 777.10 101L777.10 101Q770.90 101 766.10 99.70Q761.30 98.40 758.00 95.20Q754.70 92 752.95 86.60Q751.20 81.20 751.20 73L751.20 73Q751.20 64.80 752.95 59.40Q754.70 54 758.00 50.80Q761.30 47.60 766.10 46.30Q770.90 45 777.10 45L777.10 45Q784.10 45 788.50 46.85Q792.90 48.70 795.40 51.90Q797.90 55.10 798.80 59.30Q799.70 63.50 799.70 68.30ZM763.80 68.80L788.10 67Q788.10 64.50 787.75 62.25Q787.40 60 786.20 58.30Q785.00 56.60 782.85 55.60Q780.70 54.60 777.10 54.60L777.10 54.60Q773.30 54.60 770.80 55.50Q768.30 56.40 766.80 58.20Q765.30 60 764.60 62.65Q763.90 65.30 763.80 68.80L763.80 68.80ZM872.60 45L872.60 45Q881.90 45 886.20 49.65Q890.50 54.30 890.50 63.70L890.50 63.70L890.50 100L878.00 100L878.00 66.50Q878.00 60.80 876.10 58.10Q874.20 55.40 869.10 55.40L869.10 55.40Q864.60 55.40 861.65 57.20Q858.70 59 857.50 63.80L857.50 63.80L857.50 100L845.00 100L845.00 66.50Q845.00 60.80 843.15 58.10Q841.30 55.40 836.30 55.40L836.30 55.40Q831.80 55.40 829.00 57.10Q826.20 58.80 824.90 63.50L824.90 63.50L824.90 100L812.40 100L812.40 46L824.90 46L824.90 52.40Q827.20 48.40 831.00 46.70Q834.80 45 840.20 45L840.20 45Q846.50 45 850.20 47.05Q853.90 49.10 855.70 53L855.70 53Q858.00 48.60 862.50 46.80Q867.00 45 872.60 45ZM912.10 37.70L912.10 37.70Q910.00 37.70 908.65 37.50Q907.30 37.30 906.45 36.55Q905.60 35.80 905.30 34.50Q905.00 33.20 905.00 30.90L905.00 30.90Q905.00 28.60 905.30 27.25Q905.60 25.90 906.45 25.25Q907.30 24.60 908.65 24.40Q910.00 24.20 912.10 24.20L912.10 24.20Q914.20 24.20 915.55 24.40Q916.90 24.60 917.75 25.25Q918.60 25.90 918.90 27.25Q919.20 28.60 919.20 30.90L919.20 30.90Q919.20 33.20 918.90 34.50Q918.60 35.80 917.75 36.55Q916.90 37.30 915.55 37.50Q914.20 37.70 912.10 37.70ZM905.80 100L905.80 46L918.30 46L918.30 100L905.80 100ZM934.30 100L934.30 30.60L956.60 30.60Q963.90 30.60 968.75 31.75Q973.60 32.90 976.45 35.20Q979.30 37.50 980.45 41Q981.60 44.50 981.60 49.20L981.60 49.20Q981.60 54.60 979.35 58.25Q977.10 61.90 971.50 63.60L971.50 63.60L971.50 64Q978.00 65.50 980.85 69.55Q983.70 73.60 983.70 80L983.70 80Q983.70 84.70 982.55 88.45Q981.40 92.20 978.50 94.75Q975.60 97.30 970.75 98.65Q965.90 100 958.60 100L958.60 100L934.30 100ZM947.40 59.80L953.10 59.80Q957.20 59.80 960.15 59.40Q963.10 59 965.00 57.95Q966.90 56.90 967.80 55.10Q968.70 53.30 968.70 50.40L968.70 50.40Q968.70 47.30 967.80 45.50Q966.90 43.70 965.05 42.75Q963.20 41.80 960.25 41.50Q957.30 41.20 953.10 41.20L953.10 41.20L947.40 41.20L947.40 59.80ZM947.40 89.30L955.20 89.30Q959.70 89.30 962.65 88.90Q965.60 88.50 967.35 87.35Q969.10 86.20 969.80 84.30Q970.50 82.40 970.50 79.40L970.50 79.40Q970.50 76.70 969.80 74.80Q969.10 72.90 967.35 71.75Q965.60 70.60 962.65 70.05Q959.70 69.50 955.20 69.50L955.20 69.50L947.40 69.50L947.40 89.30ZM1020.80 101L1020.80 101Q1014.60 101 1009.80 99.70Q1005.00 98.40 1001.70 95.20Q998.40 92 996.65 86.60Q994.90 81.20 994.90 73L994.90 73Q994.90 64.80 996.65 59.40Q998.40 54 1001.70 50.80Q1005.00 47.60 1009.80 46.30Q1014.60 45 1020.80 45L1020.80 45Q1027.00 45 1031.85 46.30Q1036.70 47.60 1040.00 50.80Q1043.30 54 1045.05 59.40Q1046.80 64.80 1046.80 73L1046.80 73Q1046.80 81.20 1045.05 86.60Q1043.30 92 1040.00 95.20Q1036.70 98.40 1031.85 99.70Q1027.00 101 1020.80 101ZM1020.80 91.30L1020.80 91.30Q1024.60 91.30 1027.10 90.40Q1029.60 89.50 1031.10 87.40Q1032.60 85.30 1033.25 81.80Q1033.90 78.30 1033.90 73L1033.90 73Q1033.90 67.80 1033.25 64.25Q1032.60 60.70 1031.05 58.55Q1029.50 56.40 1027.00 55.50Q1024.50 54.60 1020.80 54.60L1020.80 54.60Q1017.10 54.60 1014.60 55.50Q1012.10 56.40 1010.60 58.55Q1009.10 60.70 1008.45 64.25Q1007.80 67.80 1007.80 73L1007.80 73Q1007.80 78.30 1008.45 81.80Q1009.10 85.30 1010.65 87.40Q1012.20 89.50 1014.70 90.40Q1017.20 91.30 1020.80 91.30ZM1074.10 100.60L1074.10 100.60Q1066.10 100.60 1062.85 97.45Q1059.60 94.30 1059.60 87.40L1059.60 87.40L1059.60 24L1072.10 24L1072.10 84.40Q1072.10 88.20 1073.15 89.40Q1074.20 90.60 1076.80 90.60L1076.80 90.60Q1078.50 90.60 1080.10 90.20L1080.10 90.20L1080.10 100Q1077.40 100.60 1074.10 100.60ZM1125.20 24L1137.60 24L1137.60 100L1126.50 100L1125.30 92.10Q1123.70 96 1119.75 98.50Q1115.80 101 1108.50 101L1108.50 101Q1101.90 101 1097.65 99Q1093.40 97 1090.95 93.35Q1088.50 89.70 1087.55 84.50Q1086.60 79.30 1086.60 73L1086.60 73Q1086.60 67.30 1087.55 62.20Q1088.50 57.10 1090.95 53.30Q1093.40 49.50 1097.65 47.25Q1101.90 45 1108.50 45L1108.50 45Q1112.30 45 1115.05 45.60Q1117.80 46.20 1119.80 47.35Q1121.80 48.50 1123.10 50.10Q1124.40 51.70 1125.20 53.70L1125.20 53.70L1125.20 24ZM1111.90 91.30L1111.90 91.30Q1116 91.30 1118.70 90.05Q1121.40 88.80 1122.95 86.50Q1124.50 84.20 1125.10 80.80Q1125.70 77.40 1125.70 73L1125.70 73Q1125.70 68.90 1125.10 65.50Q1124.50 62.10 1122.90 59.70Q1121.30 57.30 1118.65 55.95Q1116 54.60 1111.90 54.60L1111.90 54.60Q1107.70 54.60 1105.30 56.10Q1102.90 57.60 1101.60 60.15Q1100.30 62.70 1099.95 66.05Q1099.60 69.40 1099.60 73L1099.60 73Q1099.60 76.90 1100 80.25Q1100.40 83.60 1101.70 86.05Q1103 88.50 1105.40 89.90Q1107.80 91.30 1111.90 91.30Z"/></svg>