<svg xmlns="http://www.w3.org/2000/svg" xmlns:xlink="http://www.w3.org/1999/xlink" width="878.8000000000001" height="140"><path d="M34.90 27L34.90 30.40L26.80 54.70Q35.30 66.10 35.30 77.20L35.30 77.20Q35.30 81.80 34.15 84.25Q33 86.70 30.40 87.95Q27.80 89.20 22.90 89.90L22.90 89.90L19.60 90.40L18.40 87.10L22.40 86.70Q26.50 86.20 28.55 85.25Q30.60 84.30 31.45 82.35Q32.30 80.40 32.30 76.70L32.30 76.70Q32.30 67.10 23.50 55.40L23.50 55.40L31.70 30.40L14.80 30.40L14.80 109.30L11.70 109.30L11.70 27L34.90 27ZM39.60 28.80L93.40 28.80L93.40 32.20L82.90 32.20L82.90 95.50Q82.90 99.90 81.80 102.25Q80.70 104.60 77.95 105.65Q75.20 106.70 69.80 107.10L69.80 107.10L65.20 107.40L63.90 103.80L69.20 103.60Q73.70 103.30 75.85 102.55Q78 101.80 78.80 100.05Q79.60 98.30 79.60 94.70L79.60 94.70L79.60 32.20L39.60 32.20L39.60 28.80ZM42.40 84.10L42.40 48.70L66 48.70L66 84.10L42.40 84.10ZM45.40 52.10L45.40 80.80L63 80.80L63 52.10L45.40 52.10ZM182.70 86.20L149 86.20L149 101.40L190.60 101.40L190.60 104.70L103.90 104.70L103.90 101.40L145.70 101.40L145.70 86.20L111.90 86.20L111.90 82.90L145.70 82.90L145.70 68.70L114.70 68.70L114.70 26.10L179.80 26.10L179.80 68.70L149 68.70L149 82.90L182.70 82.90L182.70 86.20ZM118.20 45.70L145.70 45.70L145.70 29.30L118.20 29.30L118.20 45.70ZM149 29.30L149 45.70L176.40 45.70L176.40 29.30L149 29.30ZM145.70 48.80L118.20 48.80L118.20 65.40L145.70 65.40L145.70 48.80ZM176.40 48.80L149 48.80L149 65.40L176.40 65.40L176.40 48.80ZM283.40 84.40L287 85.70Q287 86.10 286.75 87.80Q286.50 89.50 285.90 93.60L285.90 93.60Q285.20 98.40 283.85 100.80Q282.50 103.20 279.60 104.20Q276.70 105.20 271.10 105.40L271.10 105.40Q261.20 105.80 248.90 105.80L248.90 105.80Q236.60 105.80 226.70 105.40L226.70 105.40Q220.90 105.20 217.80 103.85Q214.70 102.50 213.35 99.35Q212 96.20 212 90.40L212 90.40L212 27L278.10 27L278.10 64.90L215.50 64.90L215.50 89.80Q215.50 94.80 216.55 97.35Q217.60 99.90 220.10 100.85Q222.60 101.80 227.60 102L227.60 102Q237.10 102.40 249 102.40L249 102.40Q261 102.40 270.50 102L270.50 102Q275.30 101.80 277.55 101Q279.80 100.20 280.75 98.35Q281.70 96.50 282.40 92.30L282.40 92.30Q282.80 89.60 283.05 87.45Q283.30 85.30 283.40 84.40L283.40 84.40ZM215.50 61.30L243.60 61.30L243.60 30.40L215.50 30.40L215.50 61.30ZM247.10 30.40L247.10 61.30L274.50 61.30L274.50 30.40L247.10 30.40ZM381.80 84.40L385.40 85.70Q385.40 86.10 385.15 87.80Q384.90 89.50 384.30 93.60L384.30 93.60Q383.60 98.40 382.25 100.80Q380.90 103.20 378.00 104.20Q375.10 105.20 369.50 105.40L369.50 105.40Q359.60 105.80 347.30 105.80L347.30 105.80Q335.00 105.80 325.10 105.40L325.10 105.40Q319.30 105.20 316.20 103.85Q313.10 102.50 311.75 99.35Q310.40 96.20 310.40 90.40L310.40 90.40L310.40 27L376.50 27L376.50 64.90L313.90 64.90L313.90 89.80Q313.90 94.80 314.95 97.35Q316.00 99.90 318.50 100.85Q321.00 101.80 326.00 102L326.00 102Q335.50 102.40 347.40 102.40L347.40 102.40Q359.40 102.40 368.90 102L368.90 102Q373.70 101.80 375.95 101Q378.20 100.20 379.15 98.35Q380.10 96.50 380.80 92.30L380.80 92.30Q381.20 89.60 381.45 87.45Q381.70 85.30 381.80 84.40L381.80 84.40ZM313.90 61.30L342.00 61.30L342.00 30.40L313.90 30.40L313.90 61.30ZM345.50 30.40L345.50 61.30L372.90 61.30L372.90 30.40L345.50 30.40ZM433.80 30.20L431.20 32.20Q429.60 30 426.40 26.55Q423.20 23.10 420.50 20.70L420.50 20.70L423.10 18.80Q425.50 21 428.75 24.45Q432 27.90 433.80 30.20L433.80 30.20ZM453.90 35.50L453.90 58L486.60 58L486.60 61.10L398.80 61.10L398.80 58L431.40 58L431.40 35.50L404.10 35.50L404.10 32.40L451.30 32.40Q454.10 29.30 457.50 25.35Q460.90 21.40 462.60 19.10L462.60 19.10L465.30 20.90Q462.40 24.80 455.60 32.40L455.60 32.40L481.30 32.40L481.30 35.50L453.90 35.50ZM450.80 58L450.80 35.50L434.60 35.50L434.60 58L450.80 58ZM424.50 52.20L422.10 54.50Q420 51.90 415.95 47.50Q411.90 43.10 409.30 40.50L409.30 40.50L411.50 38.20Q414.10 40.70 418.20 45.10Q422.30 49.50 424.50 52.20L424.50 52.20ZM462.80 54.60L460.50 52.30Q463.50 49.70 467.55 45.45Q471.60 41.20 473.70 38.40L473.70 38.40L476 40.50Q473.90 43.10 469.85 47.45Q465.80 51.80 462.80 54.60L462.80 54.60ZM417.30 104.20L417.30 109.60L414.10 109.60L414.10 71.10L471.30 71.10L471.30 109.40L468.10 109.40L468.10 104.20L417.30 104.20ZM417.30 86.40L468.10 86.40L468.10 74.20L417.30 74.20L417.30 86.40ZM468.10 89.40L417.30 89.40L417.30 101L468.10 101L468.10 89.40ZM508.40 41.70L539.40 41.70L539.40 33.20L499.80 33.20L499.80 30.10L539.40 30.10L539.40 19.70L542.60 19.90L542.60 30.10L582 30.10L582 33.20L542.60 33.20L542.60 41.70L573.40 41.70L573.40 67.80L542.60 67.80L542.60 77.40L570.20 76.80Q565.70 72.10 564.30 70.80L564.30 70.80L566.80 69Q571.20 73.20 581.10 84.20L581.10 84.20L578.90 86.60Q577.10 84.40 572.80 79.60L572.80 79.60L539.70 80.40Q529.60 80.70 519.40 80.90Q509.20 81.10 500.30 81.40L500.30 81.40L500.20 78.30L539.40 77.50L539.40 67.80L508.40 67.80L508.40 41.70ZM511.80 53.40L539.40 53.40L539.40 44.60L511.80 44.60L511.80 53.40ZM542.60 53.40L570 53.40L570 44.60L542.60 44.60L542.60 53.40ZM539.40 56L511.80 56L511.80 65L539.40 65L539.40 56ZM570 56L542.60 56L542.60 65L570 65L570 56ZM550.50 94.10L548.30 96.40Q546.50 94.40 542.25 90.45Q538 86.50 535.60 84.60L535.60 84.60L537.70 82.40Q539.70 84 543.75 87.70Q547.80 91.40 550.50 94.10L550.50 94.10ZM501.20 105.80L498.50 103.90Q501.60 100.20 504.95 94.90Q508.30 89.60 510.60 84.80L510.60 84.80L513.40 86.30Q511.10 91.10 507.80 96.40Q504.50 101.70 501.20 105.80L501.20 105.80ZM567.50 87.10L570.20 85.40Q573.90 89.90 581.70 101L581.70 101L583.20 103.10L580.30 104.80Q577.90 101 574.10 95.75Q570.30 90.50 567.50 87.10L567.50 87.10ZM559.10 91.10L559.10 91.10L562.20 92.30Q562.20 93.40 562 95.30Q561.80 97.20 561.60 98.90L561.60 98.90Q561.10 102 560.05 103.50Q559 105 556.90 105.65Q554.80 106.30 550.60 106.60L550.60 106.60Q545.80 106.90 541 106.90L541 106.90Q536.20 106.90 531.40 106.60L531.40 106.60Q525.80 106.20 523.60 104.45Q521.40 102.70 521.40 98.10L521.40 98.10L521.40 85.80L524.80 86L524.80 97.30Q524.80 100.90 526.25 102.05Q527.70 103.20 532.20 103.50L532.20 103.50Q536.70 103.80 541.20 103.80L541.20 103.80Q545.70 103.80 550.20 103.50L550.20 103.50Q553.70 103.30 555.20 102.85Q556.70 102.40 557.35 101.35Q558 100.30 558.50 97.90L558.50 97.90Q558.70 96.90 558.90 94.50Q559.10 92.10 559.10 91.10ZM680.70 43L652.80 43Q657.80 56.40 666.15 68.35Q674.50 80.30 685 89.50L685 89.50L682.60 92.40Q672.10 83.20 663.95 71.30Q655.80 59.40 650.70 45.90L650.70 45.90L650.70 87.70L668.70 87.70L668.70 91L650.70 91L650.70 109.70L647.20 109.70L647.20 91L628.90 91L628.90 87.70L647.20 87.70L647.20 45.10Q642.20 58.80 634.70 70.15Q627.20 81.50 615.50 93.20L615.50 93.20L612.90 90.20Q624.40 79.10 632.15 67.75Q639.90 56.40 645 43L645 43L619.30 43L619.30 39.50L647.20 39.50L647.20 19.90L650.70 20.10L650.70 39.50L680.70 39.50L680.70 43ZM616.50 21L620 21.70Q616.80 32.40 612.10 42.80L612.10 42.80L612.10 108.90L608.70 108.90L608.70 49.90Q602.30 62.50 595.80 71.10L595.80 71.10L593.20 68.80Q599.80 60.10 606.35 46.85Q612.90 33.60 616.50 21L616.50 21ZM737.50 30.60L737.50 34.90L715.80 34.90L715.80 100L711.10 100L711.10 34.90L689.30 34.90L689.30 30.60L737.50 30.60ZM770.10 45L770.10 45Q775.20 45 778.60 46.20Q782 47.40 784 49.60Q786 51.80 786.85 55Q787.70 58.20 787.70 62.20L787.70 62.20L787.70 100L783.20 100L783.20 65Q783.20 60.80 782.60 57.75Q782 54.70 780.50 52.80Q779 50.90 776.35 50Q773.70 49.10 769.60 49.10L769.60 49.10Q766.90 49.10 764.10 49.60Q761.30 50.10 758.85 51.50Q756.40 52.90 754.55 55.45Q752.70 58 751.90 62.10L751.90 62.10L751.90 100L747.40 100L747.40 24L751.90 24L751.90 55.30Q752.60 52.50 754.45 50.50Q756.30 48.50 758.85 47.30Q761.40 46.10 764.30 45.55Q767.20 45 770.10 45ZM808.40 34L808.40 34Q806.60 34 805.95 33.45Q805.30 32.90 805.30 30.70L805.30 30.70Q805.30 28.50 805.95 27.95Q806.60 27.40 808.40 27.40L808.40 27.40Q810.10 27.40 810.75 27.95Q811.40 28.50 811.40 30.70L811.40 30.70Q811.40 32.90 810.75 33.45Q810.10 34 808.40 34ZM806.10 100L806.10 46L810.60 46L810.60 100L806.10 100ZM852.30 45L852.30 45Q857.40 45 860.80 46.20Q864.20 47.40 866.20 49.60Q868.20 51.80 869.05 55Q869.90 58.20 869.90 62.20L869.90 62.20L869.90 100L865.40 100L865.40 65Q865.40 60.80 864.80 57.75Q864.20 54.70 862.70 52.80Q861.20 50.90 858.55 50Q855.90 49.10 851.80 49.10L851.80 49.10Q849.10 49.10 846.30 49.60Q843.50 50.10 841.05 51.50Q838.60 52.90 836.75 55.45Q834.90 58 834.10 62.10L834.10 62.10L834.10 100L829.60 100L829.60 46L834.10 46L834.10 55.30Q834.80 52.50 836.65 50.50Q838.50 48.50 841.05 47.30Q843.60 46.10 846.50 45.55Q849.40 45 852.30 45Z"/></svg>