<svg xmlns="http://www.w3.org/2000/svg" xmlns:xlink="http://www.w3.org/1999/xlink" width="901.2" height="125.30000000000001"><path d="M37.60 46.70L40.70 47.10Q37.10 69.10 28.90 88.20L28.90 88.20Q40.10 85.40 45.60 83.90L45.60 83.90L46 86.30Q26.80 91.70 4.10 97.20L4.10 97.20L3.60 94.30Q9.30 93 25.40 89.10L25.40 89.10Q34.20 68.60 37.60 46.70L37.60 46.70ZM9.80 48.80L12 47.80Q12.80 50.20 21.60 80.60L21.60 80.60L18.90 81.70Q18.20 79.30 14.30 64.70L14.30 64.70Q11.60 54.70 9.80 48.80L9.80 48.80ZM27.20 18.30L27.20 37.70L47.20 37.70L46.70 40.70L5.10 40.70L4.90 37.70L24.20 37.70L24.20 18.30L27.20 18.30ZM86.30 66.50L52.10 66.50L52.10 99.30L86.30 99.30L86.30 66.50ZM94.90 40.30L67.20 40.30L67.20 63.50L86.20 63.50Q89.40 63.50 89.40 66.80L89.40 66.80L89.40 102.30L49.10 102.30L49.10 63.50L64.20 63.50L64.20 16.10L67.20 16.10L67.20 37.30L95.40 37.30L94.90 40.30ZM116 85.20L115.80 82.20L138.70 82.20L138.20 85.20L116 85.20ZM130.70 41.10L130.70 26.70L123.10 26.70L123.10 41.10L130.70 41.10ZM143 44.10L133.80 44.10L133.80 70.40L143 70.40L143 44.10ZM143 96.30L143 73.40L133.70 73.40Q130.70 73.40 130.70 70.60L130.70 70.60L130.70 44.10L123.20 44.10Q122.90 66.50 112.50 77.80L112.50 77.80L111.20 77L111.20 96.30L143 96.30ZM120.20 44.10L111.20 44.10L111.20 75.80Q119.80 65.30 120.20 44.10L120.20 44.10ZM106.30 26.70L106 23.70L147.50 23.70L146.90 26.70L133.70 26.70L133.70 41.10L142.80 41.10Q146.10 41.10 146.10 44.50L146.10 44.50L146.10 99.30L108.20 99.30L108.20 41.10L120.10 41.10L120.10 26.70L106.30 26.70ZM185.90 99.50L185.90 74.80L159 74.80L159 99.50L185.90 99.50ZM156 71.80L185.90 71.80Q189 71.80 189 74.90L189 74.90L189 102.50L156 102.50L156 71.80ZM174.50 57.90L195.80 57.90L195.30 60.90L149.10 60.90L148.80 57.90L171.50 57.90L171.50 38.10L158 38.10Q155.70 44.90 152 51.70L152 51.70L150.20 48.90Q156.60 37.10 158.80 22.80L158.80 22.80L161.80 23.20Q160.90 28.40 159 35.10L159 35.10L171.50 35.10L171.50 16.40L174.50 16.40L174.50 35.10L191.70 35.10L191.20 38.10L174.50 38.10L174.50 57.90ZM230 56.80L230 100.20L286.60 100.20L286 103.10L230.70 103.10Q227.20 103.10 227.20 99.70L227.20 99.70L227.20 53.80L266.60 53.80L266.60 53.90Q267.90 54.10 267.90 55.20L267.90 55.20L267.90 78.60Q267.90 81.20 267.40 81.90L267.40 81.90Q267 82.50 265 82.50L265 82.50L249.10 82.50L248.20 80L264.90 80L264.90 56.80L230 56.80ZM249.80 16.40L252.80 17.50Q251.10 20.40 249.40 22.70L249.40 22.70Q267.70 46.40 296.10 58.50L296.10 58.50L294.60 61.30Q266.60 48.70 247.90 24.90L247.90 24.90Q231 48.20 205.60 63.20L205.60 63.20L203.90 60.90Q233.60 43.30 249.80 16.40L249.80 16.40ZM327.20 87.70L371.30 85.50L371.30 69.20L327.20 69.20L327.20 87.70ZM371.30 29L327.20 29L327.20 46.10L371.30 46.10L371.30 29ZM327.20 49.10L327.20 66.20L371.30 66.20L371.30 49.10L327.20 49.10ZM396 84.20L395.50 87.30L374.30 88.40L374.30 107.90L371.30 107.90L371.30 88.50L304.90 91.80L304.40 88.90L324.20 87.90L324.20 29L311.30 29L311 26L388.50 26L387.90 29L374.30 29L374.30 85.30L396 84.20ZM472.90 30.80L446.80 30.80Q442.20 37.80 436.10 44.60L436.10 44.60L462.50 44.60Q468.30 37.50 472.90 30.80L472.90 30.80ZM484.70 47.60L463.10 47.60L463.10 62.40L484.70 62.40L484.70 47.60ZM463.10 82.80L484.70 82.80L484.70 65.60L463.10 65.60L463.10 82.80ZM438.40 62.40L460.10 62.40L460.10 47.60L438.40 47.60L438.40 62.40ZM438.40 65.60L438.40 82.80L460.10 82.80L460.10 65.60L438.40 65.60ZM426.50 54.30L425.40 51.50Q441.90 36.20 452 16L452 16L455 16.90Q452.50 22 448.80 27.80L448.80 27.80L476.60 27.80Q477.60 27.80 477.90 28.60L477.90 28.60Q478.20 29.40 477.60 30L477.60 30Q475.50 32.50 472.20 37.30L472.20 37.30Q468.60 42.20 466.70 44.60L466.70 44.60L484.50 44.60Q487.80 44.60 487.80 48L487.80 48L487.80 85.80L435.40 85.80L435.40 45.30Q430.70 50.40 426.50 54.30L426.50 54.30ZM429.30 33.50L427.50 36Q415.70 27 410.30 23L410.30 23L411.80 21Q418.10 25.30 429.30 33.50L429.30 33.50ZM423.20 56.10L421.70 58.80L403 47.20L404.30 45.10Q413.70 50.40 423.20 56.10L423.20 56.10ZM424 69.50L425.90 71.40Q413.90 89.50 406.80 99.10L406.80 99.10L404.90 97.10Q411.20 88.50 424 69.50L424 69.50ZM425.60 98.70L496.20 98.70L495.50 101.70L425.90 101.70L425.60 98.70ZM511.40 23.50L540.20 23.50Q541.40 23.50 540.90 24.50L540.90 24.50Q533 41.30 527.80 50.50L527.80 50.50Q545.60 70.70 541 80.60L541 80.60Q539.10 84.80 532.70 84.80L532.70 84.80L518.70 84.80L518.10 81.90L531.80 81.90Q537 81.90 538.40 79.10L538.40 79.10Q542 71.40 524.10 50.70L524.10 50.70Q529.90 40.80 536.60 26.50L536.60 26.50L514.40 26.50L514.40 107.90L511.40 107.90L511.40 23.50ZM552.40 96.80L585 96.80L585 61.20L552.40 61.20L552.40 96.80ZM585 27.70L552.40 27.70L552.40 58.20L585 58.20L585 27.70ZM549.40 24.70L584.70 24.70Q588.10 24.70 588.10 28.20L588.10 28.20L588.10 99.80L549.40 99.80L549.40 24.70ZM632 16.20L635 16.90Q629 29.60 621.40 40.80L621.40 40.80L621.50 40.80L621.50 107.90L618.50 107.90L618.50 45Q612.40 53.60 604.30 62.40L604.30 62.40L602.90 59.70Q620.50 40.80 632 16.20L632 16.20ZM692.10 42.90L666.50 42.90Q676.90 68.40 696 85.80L696 85.80L694.10 88.60Q674.40 70 663.70 42.90L663.70 42.90L661.80 42.90L661.80 81.30L681.40 81.30L680.90 84.30L661.80 84.30L661.80 107.30L658.80 107.30L658.80 84.30L639.80 84.30L639.50 81.30L658.80 81.30L658.80 42.90L657.30 42.90Q646.90 69.30 627.90 91L627.90 91L626.30 88.70Q644.70 67.10 653.90 42.90L653.90 42.90L631.20 42.90L630.90 39.90L658.80 39.90L658.80 16L661.80 16L661.80 39.90L692.70 39.90L692.10 42.90ZM717.80 98.20L701.60 25.30L706 25.30L720.60 94.70L720.90 94.70L739.20 29.50L742.20 29.50Q744.10 29.50 745 32.30L745 32.30L763.20 94.70L763.40 94.70L777.80 25.30L781.90 25.30L765.40 100L762.40 100Q760.90 100 760.50 98.50L760.50 98.50L741.70 33.70L741.50 33.70L722.40 100L719.70 100Q718.30 100 717.80 98.20L717.80 98.20ZM831.10 62.60Q831.10 45.50 825.40 36.40L825.40 36.40Q820.20 28.20 811.60 28.20L811.60 28.20Q803.30 28.20 798.30 36.60L798.30 36.60Q792.80 45.70 792.80 62.60L792.80 62.60Q792.80 80.40 798.40 89.50L798.40 89.50Q803.40 97.60 811.60 97.60L811.60 97.60Q819.90 97.60 825.10 89.50L825.10 89.50Q831.10 80.20 831.10 62.60L831.10 62.60ZM835 62.60Q835 81.80 828.70 91.50L828.70 91.50Q822.70 100.70 811.60 100.70L811.60 100.70Q800.80 100.70 794.80 91.50L794.80 91.50Q788.50 81.80 788.50 62.60L788.50 62.60Q788.50 43.60 795.10 33.80L795.10 33.80Q801.20 24.90 811.60 24.90L811.60 24.90Q822.40 24.90 828.40 33.80L828.40 33.80Q835 43.50 835 62.60L835 62.60ZM877.80 99.90L877.80 31.80Q869.50 39.60 854.80 41.60L854.80 41.60L853.90 38.50Q869.10 35.80 877.80 25.20L877.80 25.20L880.30 25.20Q881.60 25.20 881.60 26.90L881.60 26.90L881.60 99.90L877.80 99.90Z"/></svg>