<svg xmlns="http://www.w3.org/2000/svg" xmlns:xlink="http://www.w3.org/1999/xlink" width="903.9999999999999" height="125.30000000000001"><path d="M35.80 46.40L42.10 47.10Q38.60 67.50 31 86.40L31 86.40L45.40 83.10L46.10 87.50Q24.50 93.50 4.10 98.40L4.10 98.40L3.20 92.20Q9.30 91 25.30 87.60L25.30 87.60Q32.60 68.20 35.80 46.40L35.80 46.40ZM8.60 48.90L12.80 47.40Q15.70 56 22.90 79.50L22.90 79.50L17.10 81.70L8.60 48.90ZM28.40 17.60L28.40 37.10L47.50 37.10L46.90 41.30L4.70 41.30L4.40 37.10L22.60 37.10L22.60 17.60L28.40 17.60ZM84.40 98.40L84.40 67.20L54.90 67.20L54.90 98.40L84.40 98.40ZM95.40 40.50L69.40 40.50L69.40 62.90L85.40 62.90Q88.40 62.90 89.50 64L89.50 64Q90.60 65.10 90.60 67.80L90.60 67.80L90.60 102.70L48.80 102.70L48.80 62.90L63.30 62.90L63.30 15.70L69.40 15.70L69.40 36.20L96 36.20L95.40 40.50ZM116.50 86L116.20 82.30L138.10 82.30L137.60 86L116.50 86ZM130.10 40.50L130.10 26.80L123.60 26.80L123.60 40.50L130.10 40.50ZM141.60 71.30L141.60 44.40L134.30 44.40L134.30 71.30L141.60 71.30ZM112.50 96L141.60 96L141.60 74.60L133.50 74.60Q130.10 74.60 130.10 71.20L130.10 71.20L130.10 44.40L124.10 44.40Q123.50 66.40 114.10 78.50L114.10 78.50L112.50 77.70L112.50 96ZM119.80 44.40L112.50 44.40L112.50 75.50Q119.30 65 119.80 44.40L119.80 44.40ZM105.70 26.80L105.30 22.80L148.20 22.80L147.60 26.80L135.30 26.80L135.30 40.50L142 40.50Q144.80 40.50 145.80 41.50L145.80 41.50Q146.80 42.50 146.80 45L146.80 45L146.80 100L107.40 100L107.40 40.50L118.60 40.50L118.60 26.80L105.70 26.80ZM184.30 99L184.30 75.50L161.10 75.50L161.10 99L184.30 99ZM155.50 71.50L185.50 71.50Q190.10 71.50 190.10 75.90L190.10 75.90L190.10 103.10L155.50 103.10L155.50 71.50ZM176.20 57.20L196.30 57.20L195.70 61.30L149.50 61.30L149.20 57.20L170.50 57.20L170.50 38.50L159 38.50Q156.90 44.80 153.40 51.90L153.40 51.90L150.20 49.10Q155.30 37.70 157.20 22.50L157.20 22.50L162.90 23Q161.90 28.50 160.30 34.40L160.30 34.40L170.50 34.40L170.50 16L176.20 16L176.20 34.40L192.60 34.40L192 38.50L176.20 38.50L176.20 57.20ZM231.90 57.40L231.90 100L286.90 100L286.30 103.80L232.60 103.80Q228.70 103.80 227.20 102.40L227.20 102.40Q225.80 101 225.80 97.40L225.80 97.40L225.80 53.20L267.40 53.20Q269.80 53.50 269.80 55.60L269.80 55.60L269.80 77.90Q269.80 81.20 268.20 82.30L268.20 82.30Q267 83.20 263.60 83.20L263.60 83.20L248.10 83.20L247.20 79.70L263.40 79.70L263.40 57.40L231.90 57.40ZM248.20 15.60L255.40 17.60Q253.40 20.80 251.40 23.40L251.40 23.40Q269.20 44.50 296.50 56.10L296.50 56.10L293.20 62Q267 49.60 248.60 27.10L248.60 27.10Q231.60 48.70 206.30 62.90L206.30 62.90L203.50 59Q232.20 41.70 248.20 15.60L248.20 15.60ZM329.30 87.10L369.30 84.90L369.30 69.40L329.30 69.40L329.30 87.10ZM369.30 29L329.30 29L329.30 44.90L369.30 44.90L369.30 29ZM329.30 49.10L329.30 65.30L369.30 65.30L369.30 49.10L329.30 49.10ZM396.20 83.40L395.70 87.60L375.70 88.70L375.70 108.30L369.30 108.30L369.30 89.10L304.70 92.60L304 88.50L322.90 87.50L322.90 29L310.10 29L309.70 24.80L389.70 24.80L388.90 29L375.70 29L375.70 84.50L396.20 83.40ZM470.80 31.40L448 31.40Q443.70 37.40 437.60 44.20L437.60 44.20L462.20 44.20Q467 37.70 470.80 31.40L470.80 31.40ZM482.80 62.50L482.80 48.20L464.30 48.20L464.30 62.50L482.80 62.50ZM464.30 82.90L482.80 82.90L482.80 66.40L464.30 66.40L464.30 82.90ZM440.20 62.50L458.70 62.50L458.70 48.20L440.20 48.20L440.20 62.50ZM440.20 66.40L440.20 82.90L458.70 82.90L458.70 66.40L440.20 66.40ZM427.30 54.40L424.60 50.50Q439.80 35.90 450.30 15.50L450.30 15.50L456.70 17.70Q454.40 21.80 450.80 27.40L450.80 27.40L477 27.40Q478.90 27.40 479.60 28.70L479.60 28.70Q480.10 29.90 479.10 31.10L479.10 31.10L468.90 44.20L483.60 44.20Q488.70 44.20 488.70 48.90L488.70 48.90L488.70 86.80L434.40 86.80L434.40 47.60Q431.10 50.90 427.30 54.40L427.30 54.40ZM430.10 31.90L426.90 37.20Q419.10 31 409.90 24L409.90 24L412.50 20.50Q425.10 28.50 430.10 31.90L430.10 31.90ZM424.20 55.30L421.10 60.70Q416 57.20 402.50 48.50L402.50 48.50L404.90 44.80Q417.80 51.60 424.20 55.30L424.20 55.30ZM422.70 69.40L426.60 72.30Q415.80 90.40 408.90 101L408.90 101L403.90 97.60Q406.50 93.80 422.70 69.40L422.70 69.40ZM424.80 98.40L496.40 98.40L495.70 102.40L425.20 102.40L424.80 98.40ZM510.10 22.50L539.50 22.50Q542.30 22.50 541.30 25L541.30 25Q537.90 34.60 529.70 50.70L529.70 50.70Q546 70.80 541.30 81L541.30 81Q539.10 85.90 531.50 85.90L531.50 85.90L519.40 85.90L518.70 82L530.20 82Q534.90 82 536.30 78.10L536.30 78.10Q539.10 70.10 523.60 51.30L523.60 51.30Q529 40.10 534.30 26.60L534.30 26.60L515.90 26.60L515.90 108.20L510.10 108.20L510.10 22.50ZM554.50 96.30L583.10 96.30L583.10 62L554.50 62L554.50 96.30ZM583.10 28.10L554.50 28.10L554.50 57.90L583.10 57.90L583.10 28.10ZM548.70 24L583.40 24Q586.70 24 587.90 25.20L587.90 25.20Q589 26.20 589 29.10L589 29.10L589 100.40L548.70 100.40L548.70 24ZM630.50 15.60L637.10 17.40Q630.70 30.40 623.30 41.10L623.30 41.10L623.30 108.10L617.20 108.10L617.20 49.50Q612 56.50 605.40 63.50L605.40 63.50L602.50 59.90Q619 40.80 630.50 15.60L630.50 15.60ZM692.50 43L668 43Q678.20 66.80 696.90 83.10L696.90 83.10L692.70 88.70Q674.10 70.80 663.50 43.60L663.50 43.60L663.50 81.30L681.50 81.30L680.90 85.40L663.70 85.40L663.70 107.80L657.20 107.80L657.20 85.40L640 85.40L639.70 81.30L657.50 81.30L657.50 46.10Q647.80 69.80 629 91L629 91L626.90 85.30Q643.70 66 652.30 43L652.30 43L631.50 43L631.10 38.70L657.40 38.70L657.40 15.60L663.70 15.60L663.70 38.70L693.20 38.70L692.50 43ZM724.80 100L720.70 100Q718 100 717.10 96.20L717.10 96.20Q716.90 95 701.30 25.10L701.30 25.10L708.60 25.10L722.50 90.60L722.70 90.60L740.20 29L744.50 29Q746.90 29 747.70 32L747.70 32L765 90.50L765.30 90.50L779.20 25.10L784.50 25.10L767.90 100L763.70 100Q761.60 100 760.80 97.60L760.80 97.60L742.80 36.30L742.60 36.30L724.80 100ZM832.10 62.40Q832.10 46.40 827 37.50L827 37.50Q822.20 29.20 814.40 29.20L814.40 29.20Q806.60 29.20 802.10 37.60L802.10 37.60Q797.20 46.40 797.20 62.40L797.20 62.40Q797.20 79.10 802.20 88L802.20 88Q806.80 96.20 814.40 96.20L814.40 96.20Q822.10 96.20 826.90 88L826.90 88Q832.10 79 832.10 62.40L832.10 62.40ZM838.60 62.40Q838.60 100.80 814.40 100.80L814.40 100.80Q803 100.80 796.90 91.60L796.90 91.60Q790.30 81.80 790.30 62.40L790.30 62.40Q790.30 43.30 797.20 33.40L797.20 33.40Q803.40 24.50 814.40 24.50L814.40 24.50Q825.50 24.50 831.80 33.40L831.80 33.40Q838.60 43.20 838.60 62.40L838.60 62.40ZM856.60 49.10L851.10 47.90Q852.60 37.30 858.10 31.30L858.10 31.30Q864.20 24.60 874.40 24.70L874.40 24.70Q884.70 24.80 891.10 30.90L891.10 30.90Q897.40 36.90 896.90 45.50L896.90 45.50Q896.30 54.90 890.80 61.70L890.80 61.70Q886.70 66.80 877.30 72.90L877.30 72.90Q862.60 82.30 857.60 95.50L857.60 95.50L898.30 95.50L897.60 100L854.10 100Q849.00 100 852.30 92.30L852.30 92.30Q858.30 78.80 874.20 68.30L874.20 68.30Q881.90 63.10 885.20 58.90L885.20 58.90Q889.50 53.40 890.00 45.60L890.00 45.60Q890.50 38.90 886.10 34.20L886.10 34.20Q881.50 29.50 874.30 29.40L874.30 29.40Q860.00 29.40 856.60 49.10L856.60 49.10Z"/></svg>