<svg xmlns="http://www.w3.org/2000/svg" xmlns:xlink="http://www.w3.org/1999/xlink" width="906.4999999999999" height="125.30000000000001"><path d="M33.90 46L43.50 47.10Q40 66.50 33 84.70L33 84.70Q40.30 83.30 45.20 82.20L45.20 82.20L46.10 88.70Q27.40 94 4.20 99.60L4.20 99.60L2.90 90.10Q13.90 88.30 25.10 86.20L25.10 86.20Q31.20 67 33.90 46L33.90 46ZM7.30 49.10L13.60 46.90Q20 65.30 24.10 78.40L24.10 78.40L15.30 81.60Q10.60 61.80 7.30 49.10L7.30 49.10ZM29.60 17L29.60 36.50L47.70 36.50L47.10 42L4.30 42L3.90 36.50L21 36.50L21 17L29.60 17ZM82.40 97.50L82.40 67.80L57.70 67.80L57.70 97.50L82.40 97.50ZM95.90 40.70L71.70 40.70L71.70 62.30L84.60 62.30Q88.60 62.30 90.20 63.70L90.20 63.70Q91.80 65.20 91.80 68.80L91.80 68.80L91.80 103L48.50 103L48.50 62.30L62.40 62.30L62.40 15.30L71.70 15.30L71.70 35.20L96.50 35.20L95.90 40.70ZM116.90 86.80L116.60 82.50L137.40 82.50L136.90 86.80L116.90 86.80ZM129.40 39.90L129.40 26.90L124.20 26.90L124.20 39.90L129.40 39.90ZM140.30 72.20L140.30 44.70L134.70 44.70L134.70 72.20L140.30 72.20ZM113.70 95.70L140.30 95.70L140.30 75.90L133.30 75.90Q129.40 75.90 129.40 71.90L129.40 71.90L129.40 44.70L124.90 44.70Q124.20 66.50 115.70 79.10L115.70 79.10L113.70 78.30L113.70 95.70ZM119.30 44.70L113.70 44.70L113.70 75.20Q119.10 64.40 119.30 44.70L119.30 44.70ZM105 26.90L104.70 22L148.80 22L148.20 26.90L136.90 26.90L136.90 39.90L141.30 39.90Q144.80 39.90 146.20 41.20L146.20 41.20Q147.50 42.40 147.50 45.50L147.50 45.50L147.50 100.60L106.60 100.60L106.60 39.90L117 39.90L117 26.90L105 26.90ZM182.80 98.60L182.80 76.30L163.30 76.30L163.30 98.60L182.80 98.60ZM155 71.20L185.10 71.20Q188.60 71.20 189.90 72.40L189.90 72.40Q191.20 73.70 191.20 76.90L191.20 76.90L191.20 103.70L155 103.70L155 71.20ZM177.80 56.60L196.80 56.60L196.10 61.80L149.90 61.80L149.50 56.60L169.40 56.60L169.40 38.80L160 38.80Q157.90 45.40 154.90 52.10L154.90 52.10L150.20 49.40Q154.20 37.40 155.70 22.30L155.70 22.30L163.90 22.80Q163.10 27.60 161.60 33.60L161.60 33.60L169.40 33.60L169.40 15.60L177.80 15.60L177.80 33.60L193.40 33.60L192.80 38.80L177.80 38.80L177.80 56.60ZM233.90 58L233.90 99.70L287.30 99.70L286.70 104.50L234.50 104.50Q228.70 104.50 226.50 102.40L226.50 102.40Q224.40 100.40 224.40 95.20L224.40 95.20L224.40 52.60L268.30 52.60L268.30 52.70Q271.70 53 271.70 56L271.70 56L271.70 77.10Q271.70 81.30 269.10 82.80L269.10 82.80Q267.10 83.90 262.20 83.90L262.20 83.90L247 83.90L246.20 79.50L261.90 79.50L261.90 58L233.90 58ZM246.60 14.90L258 17.80Q255 22 253.40 24.10L253.40 24.10Q270.40 42.40 296.90 53.70L296.90 53.70L291.70 62.60Q267.20 50.40 249.30 29.10L249.30 29.10Q231.30 49.90 207 62.60L207 62.60L203.10 57.10Q230.80 40.40 246.60 14.90L246.60 14.90ZM331.40 86.50L367.30 84.30L367.30 69.70L331.40 69.70L331.40 86.50ZM367.30 29L331.40 29L331.40 43.80L367.30 43.80L367.30 29ZM331.40 49.10L331.40 64.40L367.30 64.40L367.30 49.10L331.40 49.10ZM396.40 82.60L395.90 88L377.10 89.10L377.10 108.70L367.30 108.70L367.30 89.70L304.50 93.40L303.70 88.10L321.70 87L321.70 29L308.90 29L308.40 23.70L390.80 23.70L390 29L377.10 29L377.10 83.70L396.40 82.60ZM469 31.90L449.30 31.90Q444.50 38.20 439.20 43.80L439.20 43.80L461.80 43.80Q465.50 38 469 31.90L469 31.90ZM480.90 62.50L480.90 48.70L465.60 48.70L465.60 62.50L480.90 62.50ZM465.60 82.90L480.90 82.90L480.90 67.20L465.60 67.20L465.60 82.90ZM442 62.50L457.30 62.50L457.30 48.70L442 48.70L442 62.50ZM442 67.20L442 82.90L457.30 82.90L457.30 67.20L442 67.20ZM428 54.40L423.80 49.50Q437.30 36.10 448.50 15.10L448.50 15.10L458.50 18.60Q456.20 22.30 452.90 27L452.90 27L477.30 27Q480.20 27 481.20 28.80L481.20 28.80Q482.10 30.50 480.60 32.30L480.60 32.30Q479.70 33.30 475.90 38.10L475.90 38.10Q473.20 41.50 471.20 43.80L471.20 43.80L482.80 43.80Q489.70 43.80 489.70 49.80L489.70 49.80L489.70 87.80L433.30 87.80L433.30 49.60Q431.60 51.20 428 54.40L428 54.40ZM431 30.20L426.20 38.30Q415.80 29.90 409.50 25L409.50 25L413.10 19.90Q429.70 29.40 431 30.20L431 30.20ZM425.10 54.40L420.60 62.60Q412.30 56.60 401.90 49.70L401.90 49.70L405.40 44.50Q420.10 51.80 425.10 54.40L425.10 54.40ZM421.40 69.20L427.30 73.30Q417.30 92.20 410.90 103L410.90 103L402.80 98.20Q404.90 95.10 421.40 69.20L421.40 69.20ZM424 98L496.70 98L496 103.20L424.40 103.20L424 98ZM508.70 21.50L538.90 21.50Q543.10 21.50 541.80 25.40L541.80 25.40Q538.30 36.40 531.70 51L531.70 51Q546.60 70.60 541.60 81.40L541.60 81.40Q539 87.10 530.30 87.10L530.30 87.10L520.10 87.10L519.30 82.10L528.60 82.10Q532.90 82.10 534.20 77.10L534.20 77.10Q536.40 68.70 523 51.90L523 51.90Q528.10 39.30 532 26.80L532 26.80L517.40 26.80L517.40 108.50L508.70 108.50L508.70 21.50ZM556.60 95.70L581.10 95.70L581.10 62.80L556.60 62.80L556.60 95.70ZM581.10 28.60L556.60 28.60L556.60 57.50L581.10 57.50L581.10 28.60ZM548 23.30L582.20 23.30Q586.70 23.30 588.30 24.80L588.30 24.80Q589.90 26.30 589.90 30L589.90 30L589.90 101L548 101L548 23.30ZM628.90 15.10L639.30 18Q632.70 30.80 625.20 41.50L625.20 41.50L625.20 108.40L615.90 108.40L615.90 53.90Q610.90 60 606.60 64.50L606.60 64.50L602 60Q616.80 41.90 628.90 15.10L628.90 15.10ZM693 43L669.50 43Q679.10 64.90 697.80 80.50L697.80 80.50L691.40 88.70Q674.70 72.40 665.20 49.10L665.20 49.10L665.20 81.20L681.60 81.20L680.90 86.50L665.70 86.50L665.70 108.20L655.70 108.20L655.70 86.50L640.20 86.50L639.80 81.20L656.20 81.20L656.20 52.50Q646.80 72.40 630.10 90.90L630.10 90.90L627.60 81.90Q643 64.10 650.80 43L650.80 43L631.70 43L631.30 37.60L655.90 37.60L655.90 15.20L665.50 15.20L665.50 37.60L693.70 37.60L693 43ZM727.10 100L721.70 100Q717.80 100 716.40 94.30L716.40 94.30Q716.10 92.70 701.10 24.80L701.10 24.80L711.20 24.80L724.40 86.40L724.60 86.40L741.10 28.60L746.70 28.60Q749.40 28.60 750.50 31.70L750.50 31.70L766.90 86.20L767.10 86.20L780.70 24.80L787.10 24.80L770.40 100L765.10 100Q762.20 100 761.10 96.70L761.10 96.70Q760.70 95.70 744 39L744 39L743.80 39L727.10 100ZM832.90 62.20Q832.90 47.10 828.40 38.50L828.40 38.50Q824.10 30.10 817 30.10L817 30.10Q809.90 30.10 805.70 38.50L805.70 38.50Q801.50 47.10 801.50 62.20L801.50 62.20Q801.50 77.80 805.90 86.60L805.90 86.60Q810.10 94.90 817 94.90L817 94.90Q824.10 94.90 828.40 86.50L828.40 86.50Q832.90 77.70 832.90 62.20L832.90 62.20ZM842.10 62.20Q842.10 100.80 817 100.80L817 100.80Q805.30 100.80 798.90 91.50L798.90 91.50Q792.10 81.60 792.10 62.20L792.10 62.20Q792.10 43 799.20 33.10L799.20 33.10Q805.70 24.10 817 24.10L817 24.10Q828.50 24.10 835 33.10L835 33.10Q842.10 42.90 842.10 62.20L842.10 62.20ZM851.60 88.10L858.40 85.60Q864.90 94 875.30 94L875.30 94Q882.20 94 886.70 90.20L886.70 90.20Q891.20 86.30 891.30 79.90L891.30 79.90Q891.40 73 886.70 68.80L886.70 68.80Q881.50 64.40 871.50 64.10L871.50 64.10Q867.30 64 867.30 60.70L867.30 60.70Q867.30 57.50 871.30 57.40L871.30 57.40Q888.10 57 888.30 42.70L888.30 42.70Q888.40 37 884.60 33.50L884.60 33.50Q880.70 30 874.40 30L874.40 30Q864.70 30 859.50 39L859.50 39L852.80 36Q859.50 24.20 874.60 24.20L874.60 24.20Q884.80 24.20 891.20 29.40L891.20 29.40Q897.50 34.60 897.50 42.80L897.50 42.80Q897.50 49.10 894.00 53.90L894.00 53.90Q890.50 58.60 884.50 60.30L884.50 60.30L884.50 60.50Q891.70 61.70 896.20 66.60L896.20 66.60Q901.00 71.70 901.00 78.90L901.00 78.90Q901.00 88.70 894.10 94.50L894.10 94.50Q887.20 100.30 876.00 100.30L876.00 100.30Q859.80 100.30 851.60 88.10L851.60 88.10Z"/></svg>