<svg xmlns="http://www.w3.org/2000/svg" xmlns:xlink="http://www.w3.org/1999/xlink" width="909.3" height="125.30000000000001"><path d="M32 45.60L44.90 47.10Q41.20 66.40 34.90 83.10L34.90 83.10Q38.80 82.50 44.90 81.40L44.90 81.40L46.20 89.90Q22.10 96.60 4.20 100.80L4.20 100.80L2.50 88.10Q14.40 86.40 24.70 84.80L24.70 84.80Q29.40 67.30 32 45.60L32 45.60ZM6.10 49.30L14.30 46.50Q21.50 65.70 25.40 77.40L25.40 77.40L13.50 81.60Q8.80 60.60 6.10 49.30L6.10 49.30ZM30.80 16.30L30.80 35.90L48 35.90L47.30 42.60L3.90 42.60L3.40 35.90L19.30 35.90L19.30 16.30L30.80 16.30ZM80.50 96.60L80.50 68.50L60.50 68.50L60.50 96.60L80.50 96.60ZM96.40 40.90L73.90 40.90L73.90 61.70L83.90 61.70Q89 61.70 91 63.50L91 63.50Q93 65.30 93 69.70L93 69.70L93 103.40L48.20 103.40L48.20 61.70L61.50 61.70L61.50 14.90L73.90 14.90L73.90 34.20L97 34.20L96.40 40.90ZM117.40 87.70L117 82.70L136.80 82.70L136.30 87.70L117.40 87.70ZM128.80 39.20L128.80 27.10L124.70 27.10L124.70 39.20L128.80 39.20ZM139 73.20L139 45L135.10 45L135.10 73.20L139 73.20ZM115 95.40L139 95.40L139 77.10L133 77.10Q128.80 77.10 128.80 72.50L128.80 72.50L128.80 45L125.70 45Q124.80 66.50 117.20 79.80L117.20 79.80L115 78.90L115 95.40ZM118.90 45L115 45L115 73.90Q118.90 63.30 118.90 45L118.90 45ZM104.40 27.10L104 21.20L149.50 21.20L148.90 27.10L138.40 27.10L138.40 39.20L140.50 39.20Q144.90 39.20 146.60 40.80L146.60 40.80Q148.20 42.20 148.20 46L148.20 46L148.20 101.30L105.90 101.30L105.90 39.20L115.50 39.20L115.50 27.10L104.40 27.10ZM181.20 98.20L181.20 77.10L165.40 77.10L165.40 98.20L181.20 98.20ZM154.40 70.90L184.60 70.90Q188.90 70.90 190.60 72.40L190.60 72.40Q192.30 74 192.30 77.80L192.30 77.80L192.30 104.40L154.40 104.40L154.40 70.90ZM179.40 55.90L197.20 55.90L196.50 62.20L150.30 62.20L149.90 55.90L168.40 55.90L168.40 39.20L161.10 39.20Q159.10 45.60 156.30 52.30L156.30 52.30L150.20 49.70Q153 37.90 154.10 22.10L154.10 22.10L165 22.60Q164 28.30 162.80 32.90L162.80 32.90L168.40 32.90L168.40 15.20L179.40 15.20L179.40 32.90L194.20 32.90L193.50 39.20L179.40 39.20L179.40 55.90ZM297.30 51.30L290.30 63.20Q267.20 51.20 249.90 31L249.90 31Q238.90 42.80 225.40 52L225.40 52L269.20 52L269.20 52.10Q273.50 52.50 273.50 56.40L273.50 56.40L273.50 76.40Q273.50 81.40 269.80 83.20L269.80 83.20Q267 84.60 260.70 84.60L260.70 84.60L245.90 84.60L245.20 79.20L260.30 79.20L260.30 58.60L235.80 58.60L235.80 99.50L287.70 99.50L287 105.30L236.40 105.30Q228.70 105.30 225.80 102.40L225.80 102.40Q223 99.70 223 92.90L223 92.90L223 53.60Q215.60 58.40 207.80 62.40L207.80 62.40L202.70 55.20Q229.40 38.90 245 14.20L245 14.20L260.70 17.90Q259 20.20 255.40 24.60L255.40 24.60Q272 40.60 297.30 51.30L297.30 51.30ZM333.50 85.90L365.30 83.80L365.30 69.90L333.50 69.90L333.50 85.90ZM365.30 29.10L333.50 29.10L333.50 42.70L365.30 42.70L365.30 29.10ZM333.50 49.10L333.50 63.50L365.30 63.50L365.30 49.10L333.50 49.10ZM396.60 81.80L396.10 88.40L378.40 89.50L378.40 109.10L365.30 109.10L365.30 90.30L304.40 94.20L303.40 87.80L320.40 86.70L320.40 29.10L307.70 29.10L307.10 22.60L391.90 22.60L391.10 29.10L378.40 29.10L378.40 83L396.60 81.80ZM467.30 32.40L450.60 32.40Q446.60 37.40 440.80 43.40L440.80 43.40L461.40 43.40Q465.20 36.60 467.30 32.40L467.30 32.40ZM479 62.50L479 49.30L466.90 49.30L466.90 62.50L479 62.50ZM466.90 83L479 83L479 68L466.90 68L466.90 83ZM443.80 62.50L455.90 62.50L455.90 49.30L443.80 49.30L443.80 62.50ZM443.80 68L443.80 83L455.90 83L455.90 68L443.80 68ZM428.70 54.50L423 48.50Q435.20 36 446.70 14.60L446.70 14.60L460.20 19.40Q457.70 23.10 455.10 26.60L455.10 26.60L477.60 26.60Q481.50 26.60 482.80 28.90L482.80 28.90Q484 31 482.10 33.40L482.10 33.40Q476.90 39.60 473.50 43.40L473.50 43.40L481.90 43.40Q490.60 43.40 490.60 50.70L490.60 50.70L490.60 88.80L432.30 88.80L432.30 51.40L428.70 54.50ZM431.80 28.60L425.50 39.40Q415.80 31.30 409 26L409 26L413.70 19.30Q428.10 26.60 431.80 28.60L431.80 28.60ZM426.10 53.60L420 64.50Q411.40 58 401.40 51L401.40 51L406 44.20Q420.70 50.90 426.10 53.60L426.10 53.60ZM420 69.10L428 74.20Q420.30 90.90 412.90 104.90L412.90 104.90L401.80 98.70L420 69.10ZM423.20 97.70L497 97.70L496.20 103.90L423.70 103.90L423.20 97.70ZM507.30 20.50L538.20 20.50Q543.80 20.50 542.20 25.90L542.20 25.90Q539.30 36.60 533.60 51.20L533.60 51.20Q547 70.50 542 81.80L542 81.80Q539 88.30 529.20 88.30L529.20 88.30L520.70 88.30L519.90 82.20L526.90 82.20Q531 82.10 532 76.20L532 76.20Q533.70 67.50 522.40 52.40L522.40 52.40Q526.10 41.90 529.80 27L529.80 27L518.80 27L518.80 108.80L507.30 108.80L507.30 20.50ZM558.70 95.20L579.20 95.20L579.20 63.60L558.70 63.60L558.70 95.20ZM579.20 29L558.70 29L558.70 57.10L579.20 57.10L579.20 29ZM547.30 22.70L580.90 22.70Q586.70 22.70 588.80 24.50L588.80 24.50Q590.80 26.30 590.80 30.90L590.80 30.90L590.80 101.60L547.30 101.60L547.30 22.70ZM627.40 14.60L641.40 18.50Q634.80 30.80 627 42L627 42L627 108.60L614.60 108.60L614.60 57.90Q612.30 60.60 607.70 65.60L607.70 65.60L601.60 60.10Q614.80 42.80 627.40 14.60L627.40 14.60ZM693.50 43.10L671.10 43.10Q680.30 63.20 698.60 77.90L698.60 77.90L690 88.80Q675.70 74.80 666.90 54.70L666.90 54.70L666.90 81.20L681.60 81.20L681 87.60L667.70 87.60L667.70 108.70L654.10 108.70L654.10 87.60L640.40 87.60L640 81.20L654.90 81.20L654.90 58.10Q646.10 74.80 631.10 90.90L631.10 90.90L628.30 78.50Q642.10 62.60 649.40 43.10L649.40 43.10L632 43.10L631.50 36.40L654.50 36.40L654.50 14.70L667.30 14.70L667.30 36.40L694.30 36.40L693.50 43.10ZM715.70 92.30L700.90 24.50L713.80 24.50L726.30 82.20L726.50 82.20L742.10 28.20L748.90 28.20Q752.10 28.20 753.20 31.50L753.20 31.50Q753.80 33.30 768.70 81.90L768.70 81.90L768.90 81.90L782.10 24.50L789.70 24.50L772.90 99.90L766.40 99.90Q762.80 99.90 761.40 95.80L761.40 95.80L745.10 41.60L744.90 41.60L729.40 99.90L722.60 99.90Q717.50 99.90 715.70 92.30L715.70 92.30ZM833.90 62Q833.90 47.90 830.10 39.50L830.10 39.50Q826.20 31 819.70 31L819.70 31Q813.10 31 809.50 39.50L809.50 39.50Q805.90 47.70 805.90 62L805.90 62Q805.90 76.50 809.70 85L809.70 85Q813.40 93.50 819.70 93.50L819.70 93.50Q826.20 93.50 830 85L830 85Q833.90 76.50 833.90 62L833.90 62ZM845.70 62Q845.70 100.80 819.70 100.80L819.70 100.80Q807.60 100.80 801 91.50L801 91.50Q793.90 81.60 793.90 62L793.90 62Q793.90 42.70 801.20 32.80L801.20 32.80Q807.90 23.80 819.70 23.80L819.70 23.80Q831.70 23.80 838.40 32.80L838.40 32.80Q845.70 42.60 845.70 62L845.70 62ZM862.10 75.80L883.70 75.80L883.70 39.20Q875 52.50 862 75.30L862 75.30L862.10 75.80ZM895 75.80L905 75.80L904.10 82.60L895 82.60L895 100L883.70 100L883.70 82.60L856.40 82.70Q853.20 82.70 852.40 79.70L852.40 79.70Q851.70 76.90 853.30 74.10L853.30 74.10Q879 30.50 883.70 24.30L883.70 24.30L891.10 24.30Q895 24.30 895 29.30L895 29.30L895 75.80Z"/></svg>