<svg xmlns="http://www.w3.org/2000/svg" xmlns:xlink="http://www.w3.org/1999/xlink" width="912.1" height="125.30000000000001"><path d="M30.20 45.20L46.30 47Q42.60 65.60 36.80 81.80L36.80 81.80L44.70 80.60L46.30 91.10Q20.60 98.20 4.20 102L4.20 102L2.10 86Q9.30 85.30 24.10 83.50L24.10 83.50Q25.20 78.50 25.50 76.70L25.50 76.70L11.70 81.60Q10.40 75.20 8.20 65.10L8.20 65.10L4.90 49.50L15.10 46.10L26 74.30Q28.50 60.70 30.20 45.20L30.20 45.20ZM32 35.30L48.30 35.30L47.50 43.30L3.50 43.30L2.90 35.30L17.70 35.30L17.70 15.60L32 15.60L32 35.30ZM78.60 95.70L78.60 69.10L63.30 69.10L63.30 95.70L78.60 95.70ZM96.90 41.10L76.20 41.10L76.20 61.10L83.10 61.10Q89.20 61.10 91.70 63.30L91.70 63.30Q94.20 65.50 94.20 70.70L94.20 70.70L94.20 103.70L47.80 103.70L47.80 61.10L60.60 61.10L60.60 14.50L76.20 14.50L76.20 33.10L97.60 33.10L96.90 41.10ZM117.90 88.50L117.50 82.80L136.10 82.80L135.60 88.50L117.90 88.50ZM128.10 38.60L128.10 27.20L125.20 27.20L125.20 38.60L128.10 38.60ZM137.60 74.10L137.60 45.30L135.60 45.30L135.60 74.10L137.60 74.10ZM116.20 95.10L137.60 95.10L137.60 78.30L132.80 78.30Q128.10 78.30 128.10 73.20L128.10 73.20L128.10 45.30L126.50 45.30Q125.40 66.90 118.80 80.40L118.80 80.40L116.20 79.50L116.20 95.10ZM118.50 45.30L116.20 45.30L116.20 71.70Q118.50 62 118.50 45.30L118.50 45.30ZM149.50 27.20L140 27.20L140 38.60Q145 38.60 147 40.50L147 40.50Q148.90 42.20 148.90 46.60L148.90 46.60L148.90 101.90L105.10 101.90L105.10 38.60L114 38.60L114 27.20L103.80 27.20L103.30 20.40L150.20 20.40L149.50 27.20ZM179.70 97.70L179.70 77.80L167.50 77.80L167.50 97.70L179.70 97.70ZM153.90 70.60L184.20 70.60Q189.30 70.60 191.40 72.40L191.40 72.40Q193.40 74.30 193.40 78.80L193.40 78.80L193.40 105L153.90 105L153.90 70.60ZM181 55.20L197.70 55.20L197 62.60L150.70 62.60L150.20 55.20L167.30 55.20L167.30 39.50L162.10 39.50Q160.40 45.50 157.70 52.50L157.70 52.50L150.20 49.90Q152.10 37.30 152.50 21.80L152.50 21.80L166 22.40Q165.40 26.30 164.10 32.10L164.10 32.10L167.30 32.10L167.30 14.80L181 14.80L181 32.10L195 32.10L194.30 39.50L181 39.50L181 55.20ZM227.50 51.40L269.90 51.40Q260.20 43.80 250.30 32.70L250.30 32.70Q240 43 227.50 51.40L227.50 51.40ZM297.70 48.90L288.80 63.90Q281.50 59.80 275.20 55.40L275.20 55.40Q275.40 56.20 275.40 56.80L275.40 56.80L275.40 75.70Q275.40 81.60 270.60 83.80L270.60 83.80Q267.10 85.40 259.30 85.40L259.30 85.40L244.90 85.40L244.20 79L258.80 79L258.80 59.20L237.70 59.20L237.70 99.20L288 99.20L287.30 106L238.20 106Q228.70 106 225 102.40L225 102.40Q221.60 99.10 221.60 90.60L221.60 90.60L221.60 55.10Q214.70 59.20 208.50 62.10L208.50 62.10L202.30 53.30Q227.70 37.50 243.40 13.40L243.40 13.40L263.30 18Q261.40 20.40 257.60 25L257.60 25Q272.90 38.50 297.70 48.90L297.70 48.90ZM335.60 85.20L363.40 83.30L363.40 70.20L335.60 70.20L335.60 85.20ZM363.40 29.10L335.60 29.10L335.60 41.60L363.40 41.60L363.40 29.10ZM335.60 49.10L335.60 62.60L363.40 62.60L363.40 49.10L335.60 49.10ZM396.80 81L396.30 88.80L379.80 89.90L379.80 109.50L363.40 109.50L363.40 91L304.20 95L303.10 87.40L319.10 86.30L319.10 29.10L306.40 29.10L305.80 21.40L393.10 21.40L392.10 29.10L379.80 29.10L379.80 82.20L396.80 81ZM465.70 32.90L452 32.90Q447.70 37.90 442.60 43L442.60 43L460.90 43L465.70 32.90ZM477.10 62.50L477.10 49.80L468.20 49.80L468.20 62.50L477.10 62.50ZM468.20 83L477.10 83L477.10 68.80L468.20 68.80L468.20 83ZM445.60 62.50L454.50 62.50L454.50 49.80L445.60 49.80L445.60 62.50ZM445.60 68.80L445.60 83L454.50 83L454.50 68.80L445.60 68.80ZM429.50 54.60L422.30 47.50Q433 35.80 444.90 14.20L444.90 14.20L462 20.20Q459.80 23.30 457.50 26.20L457.50 26.20L478 26.20Q482.80 26.20 484.40 29L484.40 29Q485.90 31.60 483.60 34.60L483.60 34.60Q479.80 39.20 476.10 43L476.10 43L481.10 43Q486.70 43 489.20 45.10L489.20 45.10Q491.50 47.10 491.50 51.70L491.50 51.70L491.50 89.80L431.30 89.80L431.30 53.10L429.50 54.60ZM432.70 27L424.80 40.50Q416.70 33.50 408.60 27.10L408.60 27.10L414.30 18.80Q427.70 24.60 432.70 27L432.70 27ZM427.10 52.70L419.40 66.40Q413.50 61.60 400.90 52.30L400.90 52.30L406.50 43.90Q417.80 48.60 427.10 52.70L427.10 52.70ZM418.70 68.90L428.80 75.20Q422.10 91.30 414.90 106.80L414.90 106.80L400.80 99.20L418.70 68.90ZM422.40 97.40L497.30 97.40L496.40 104.70L423 104.70L422.40 97.40ZM506 19.50L537.60 19.50Q541.30 19.50 542.50 21L542.50 21Q543.70 22.50 542.70 26.30L542.70 26.30Q539.90 37.60 535.50 51.40L535.50 51.40Q547.70 70.30 542.30 82.10L542.30 82.10Q539 89.40 528 89.40L528 89.40L521.40 89.40L520.40 82.30L525.30 82.30Q529.10 82.20 529.90 75.20L529.90 75.20Q530.80 65.80 521.90 53L521.90 53Q525.10 40.80 527.80 27.10L527.80 27.10L520.30 27.10L520.30 109.10L506 109.10L506 19.50ZM560.80 94.60L577.30 94.60L577.30 64.40L560.80 64.40L560.80 94.60ZM577.30 29.50L560.80 29.50L560.80 56.80L577.30 56.80L577.30 29.50ZM546.60 22L579.70 22Q586.70 22 589.30 24.20L589.30 24.20Q591.70 26.40 591.70 31.90L591.70 31.90L591.70 102.20L546.60 102.20L546.60 22ZM668.50 81.20L681.70 81.20Q673.90 71.50 668.50 59.90L668.50 59.90L668.50 81.20ZM653.60 81.20L653.60 63Q648 72.40 640.70 81.20L640.70 81.20L653.60 81.20ZM699.50 75.30L688.60 88.90Q684.50 84.80 681.70 81.20L681.70 81.20L681 88.70L669.60 88.70L669.60 109.10L652.50 109.10L652.50 88.70L640.70 88.70L640.20 81.90Q637.60 85 632.20 90.80L632.20 90.80L629 75.20Q641.40 60.70 647.90 43.10L647.90 43.10L632.30 43.10L631.90 38L628.90 42.40L628.90 108.80L613.30 108.80L613.30 61.80L611.10 64.20Q609.60 65.90 608.80 66.70L608.80 66.70L601.10 60.20Q612.10 45 625.90 14.10L625.90 14.10L643.50 19.10Q638.80 27.50 633.80 35.20L633.80 35.20L653 35.20L653 14.30L669.20 14.30L669.20 35.20L694.80 35.20L694 43.10L672.60 43.10Q681.40 61.30 699.50 75.30L699.50 75.30ZM731.70 99.90L723.60 99.90Q720 99.90 718.10 97.70L718.10 97.70Q716.20 95.70 715 90.40L715 90.40L700.70 24.20L716.40 24.20L728.20 78L728.40 78L743 27.70L751.10 27.70Q754.80 27.70 756 31.20L756 31.20L770.50 77.60L770.70 77.60L783.50 24.20L792.40 24.20L775.50 99.90L767.70 99.90Q763.40 99.90 761.70 94.90L761.70 94.90Q761.20 93.50 746.20 44.20L746.20 44.20L746 44.20L731.70 99.90ZM834.80 61.90Q834.80 48.60 831.60 40.50L831.60 40.50Q828.30 31.90 822.40 31.90L822.40 31.90Q816.30 31.90 813.20 40.40L813.20 40.40Q810.20 48.30 810.20 61.90L810.20 61.90Q810.20 75.30 813.40 83.60L813.40 83.60Q816.70 92.20 822.40 92.20L822.40 92.20Q828.40 92.20 831.70 83.60L831.70 83.60Q834.80 75.40 834.80 61.90L834.80 61.90ZM849.40 61.90Q849.40 100.90 822.40 100.90L822.40 100.90Q809.90 100.90 803 91.50L803 91.50Q795.70 81.50 795.70 61.90L795.70 61.90Q795.70 42.40 803.20 32.50L803.20 32.50Q810.10 23.40 822.40 23.40L822.40 23.40Q834.80 23.40 841.80 32.50L841.80 32.50Q849.40 42.40 849.40 61.90L849.40 61.90ZM873.70 32L872.20 52.50L872.40 52.70Q879.80 48.90 886 49.40L886 49.40Q895.20 50.10 901.70 56.70L901.70 56.70Q908.70 63.90 908.70 74.60L908.70 74.60Q908.70 86.80 901.10 93.90L901.10 93.90Q893.80 100.90 881.80 100.90L881.80 100.90Q863.40 100.90 856.10 84.30L856.10 84.30L864.90 80Q868 87.10 871.40 89.70L871.40 89.70Q874.80 92.20 881.50 92.20L881.50 92.20Q894.80 92.20 894.60 74.60L894.60 74.60Q894.60 67.80 891.40 63.10L891.40 63.10Q887.70 57.80 881.40 57.80L881.40 57.80Q873.10 57.80 868.80 64.70L868.80 64.70Q867.20 67.50 863.30 66.50L863.30 66.50Q859.40 65.40 859.60 61.10L859.60 61.10L862.60 24.10L904.30 24.10L903.30 32L873.70 32Z"/></svg>